<svg width="24" height="24" viewBox="0 0 24 24" fill="none" xmlns="http://www.w3.org/2000/svg">
<path fill-rule="evenodd" clip-rule="evenodd" d="M22 12C22 17.5228 17.5228 22 12 22C6.47715 22 2 17.5228 2 12C2 6.47715 6.47715 2 12 2C17.5228 2 22 6.47715 22 12ZM14.5526 14.9036C14.7234 14.857 14.8568 14.7236 14.9034 14.5528L16.7193 7.8944C16.8211 7.52115 16.4786 7.17866 16.1054 7.28046L9.44701 9.09637C9.2762 9.14295 9.14276 9.2764 9.09618 9.44722L7.28055 16.1059C7.17878 16.4791 7.52128 16.8216 7.89453 16.7198L14.5526 14.9036ZM12 13C12.5523 13 13 12.5523 13 12C13 11.4477 12.5523 11 12 11C11.4477 11 11 11.4477 11 12C11 12.5523 11.4477 13 12 13Z" fill="#233043"/>
</svg>
