<svg width="24" height="24" viewBox="0 0 24 24" fill="none" xmlns="http://www.w3.org/2000/svg">
<path fill-rule="evenodd" clip-rule="evenodd" d="M12 20.5C16.6944 20.5 20.5 16.6944 20.5 12C20.5 7.30558 16.6944 3.5 12 3.5C7.30558 3.5 3.5 7.30558 3.5 12C3.5 16.6944 7.30558 20.5 12 20.5ZM12 22C17.5228 22 22 17.5228 22 12C22 6.47715 17.5228 2 12 2C6.47715 2 2 6.47715 2 12C2 17.5228 6.47715 22 12 22ZM15.908 6.55688C16.8411 6.30239 17.6974 7.15861 17.4429 8.09173L15.6269 14.7501C15.5105 15.1771 15.1769 15.5107 14.75 15.6272L8.0919 17.4434C7.15879 17.6979 6.30253 16.8417 6.55697 15.9086L8.3726 9.24992C8.48904 8.82288 8.82264 8.48926 9.24967 8.3728L15.908 6.55688ZM15.8806 8.11914L9.78218 9.78235L8.11923 15.8811L14.2174 14.2176L15.8806 8.11914ZM12 13C12.5523 13 13 12.5523 13 12C13 11.4477 12.5523 11 12 11C11.4477 11 11 11.4477 11 12C11 12.5523 11.4477 13 12 13Z" fill="#233043"/>
</svg>
