<svg width="24" height="24" viewBox="0 0 24 24" fill="none" xmlns="http://www.w3.org/2000/svg">
<path fill-rule="evenodd" clip-rule="evenodd" d="M8.85824 2.5C8.84516 2.5 8.83207 2.50037 8.81901 2.50112C7.81405 2.55842 6.83287 2.82938 5.94092 3.29591C5.26236 3.65082 4.64731 4.11272 4.11876 4.66246L3.95477 4.21214C3.81304 3.82292 3.38263 3.6223 2.99341 3.76403C2.6042 3.90576 2.40358 4.33618 2.54531 4.72539L8.83828 22.0066C8.98001 22.3959 9.41043 22.5965 9.79964 22.4547C10.1888 22.313 10.3895 21.8826 10.2477 21.4934L7.8755 14.9789C7.88375 14.9677 7.89169 14.9562 7.8993 14.9443C8.38953 14.1832 9.05212 13.5482 9.83342 13.0908C10.6142 12.6337 11.4917 12.3667 12.3948 12.3115C12.8973 12.2834 13.4015 12.3182 13.8954 12.4151C14.3485 12.5246 14.8129 12.5805 15.2791 12.5816L15.2807 12.5816H15.8294C15.8428 12.5816 15.8561 12.5812 15.8695 12.5805C17.4754 12.4868 19.0027 11.854 20.2041 10.7844C21.4055 9.71473 22.2108 8.27093 22.4896 6.68667C22.5354 6.42647 22.4284 6.16299 22.2142 6.00837C22 5.85374 21.7162 5.83518 21.4837 5.96058C20.7322 6.36585 19.9013 6.60239 19.0491 6.65373C18.2251 6.69977 17.4009 6.5684 16.6321 6.2685C15.8629 5.96844 15.1671 5.50665 14.5917 4.91438C14.58 4.9023 14.5678 4.89066 14.5553 4.87947C14.5337 4.86029 14.5134 4.83923 14.4729 4.796L14.4668 4.78946C14.4356 4.75599 14.3871 4.70408 14.329 4.651C13.0402 3.3176 11.278 2.54471 9.42344 2.5002L9.4069 2.5H8.85824Z" fill="#233043"/>
</svg>
