<svg width="24" height="24" viewBox="0 0 24 24" fill="none" xmlns="http://www.w3.org/2000/svg">
<path d="M2.99339 3.76404C3.3826 3.62231 3.81302 3.82293 3.95475 4.21214L10.2477 21.4934C10.3894 21.8826 10.1888 22.313 9.79962 22.4548C9.41041 22.5965 8.97999 22.3959 8.83826 22.0066L2.54529 4.7254C2.40356 4.33619 2.60418 3.90577 2.99339 3.76404Z" fill="#233043"/>
<path d="M13.7897 5.17223C13.8005 5.18339 13.8116 5.1942 13.8231 5.20466C13.8571 5.23572 13.8877 5.26816 13.9188 5.30146L13.9189 5.30154L13.925 5.30808L13.9253 5.30837L13.9258 5.30896C13.9629 5.34864 14.0051 5.39368 14.0553 5.43853C14.7052 6.10708 15.4909 6.62839 16.3596 6.96722C17.2284 7.30614 18.1598 7.45459 19.0909 7.40257L19.0942 7.40237C20.0133 7.34701 20.9103 7.10064 21.7281 6.6795C21.4594 8.04916 20.7496 9.29457 19.7054 10.2242C18.6305 11.1811 17.2643 11.7475 15.8276 11.8316L15.2821 11.8316L15.2809 11.8316C15.2809 11.8316 15.2808 11.8316 15.2808 11.8316C14.8734 11.8306 14.4676 11.7818 14.0716 11.6861C14.061 11.6835 14.0504 11.6812 14.0397 11.6791C13.4845 11.5702 12.9179 11.5311 12.3529 11.5627L12.3529 11.5627L12.349 11.5629C11.3285 11.6253 10.3369 11.927 9.45451 12.4436C8.57158 12.9605 7.8228 13.6781 7.26879 14.5382C7.21417 14.623 7.17409 14.7082 7.14521 14.778C7.13379 14.78 7.12271 14.782 7.11201 14.7839C7.08824 14.7882 7.06406 14.7928 7.04044 14.7974L3.82485 6.06931C3.85275 6.04391 3.88198 6.01792 3.91387 5.98958C3.93279 5.97276 3.95264 5.95511 3.9737 5.93626C4.01208 5.90191 4.05569 5.86237 4.09673 5.82249C4.13503 5.78525 4.18809 5.73148 4.23718 5.66873C4.79175 4.95996 5.49109 4.37759 6.28855 3.96049C7.08549 3.54365 7.96212 3.30145 8.86 3.25H9.40242L9.40984 3.25009C11.0658 3.29098 12.6389 3.98157 13.7897 5.17223Z" stroke="#233043" stroke-width="1.5" stroke-linecap="round" stroke-linejoin="round"/>
</svg>
