<svg width="24" height="24" viewBox="0 0 24 24" fill="none" xmlns="http://www.w3.org/2000/svg">
<path fill-rule="evenodd" clip-rule="evenodd" d="M22 7.75C22 5.54086 20.2091 3.75 18 3.75H6C3.79086 3.75 2 5.54086 2 7.75V13.75C2 15.9591 3.79086 17.75 6 17.75H7V20.6853C7 21.6319 8.07714 22.106 8.7071 21.4367L12.1767 17.75H18C20.2091 17.75 22 15.9591 22 13.75V7.75ZM7 10.75C7 11.3023 7.44772 11.75 8 11.75C8.55228 11.75 9 11.3023 9 10.75C9 10.1977 8.55228 9.75 8 9.75C7.44772 9.75 7 10.1977 7 10.75ZM12 11.75C11.4477 11.75 11 11.3023 11 10.75C11 10.1977 11.4477 9.75 12 9.75C12.5523 9.75 13 10.1977 13 10.75C13 11.3023 12.5523 11.75 12 11.75ZM15 10.75C15 11.3023 15.4477 11.75 16 11.75C16.5523 11.75 17 11.3023 17 10.75C17 10.1977 16.5523 9.75 16 9.75C15.4477 9.75 15 10.1977 15 10.75Z" fill="#233043"/>
</svg>
