<svg width="24" height="24" viewBox="0 0 24 24" fill="none" xmlns="http://www.w3.org/2000/svg">
<path fill-rule="evenodd" clip-rule="evenodd" d="M12.1767 16.25C11.763 16.25 11.3678 16.4208 11.0843 16.722L8.5 19.468V17.75C8.5 16.9216 7.82843 16.25 7 16.25H6C4.61929 16.25 3.5 15.1307 3.5 13.75V7.75C3.5 6.36929 4.61929 5.25 6 5.25H18C19.3807 5.25 20.5 6.36929 20.5 7.75V13.75C20.5 15.1307 19.3807 16.25 18 16.25H12.1767ZM18 17.75H12.1767L8.7071 21.4367C8.07714 22.106 7 21.6319 7 20.6853V19.25V17.75H6C3.79086 17.75 2 15.9591 2 13.75V7.75C2 5.54086 3.79086 3.75 6 3.75H18C20.2091 3.75 22 5.54086 22 7.75V13.75C22 15.9591 20.2091 17.75 18 17.75ZM8 11.75C7.44772 11.75 7 11.3023 7 10.75C7 10.1977 7.44772 9.75 8 9.75C8.55228 9.75 9 10.1977 9 10.75C9 11.3023 8.55228 11.75 8 11.75ZM11 10.75C11 11.3023 11.4477 11.75 12 11.75C12.5523 11.75 13 11.3023 13 10.75C13 10.1977 12.5523 9.75 12 9.75C11.4477 9.75 11 10.1977 11 10.75ZM16 11.75C15.4477 11.75 15 11.3023 15 10.75C15 10.1977 15.4477 9.75 16 9.75C16.5523 9.75 17 10.1977 17 10.75C17 11.3023 16.5523 11.75 16 11.75Z" fill="#233043"/>
</svg>
