<svg width="24" height="24" viewBox="0 0 24 24" fill="none" xmlns="http://www.w3.org/2000/svg">
<path fill-rule="evenodd" clip-rule="evenodd" d="M12 22C17.5228 22 22 17.5228 22 12C22 6.47715 17.5228 2 12 2C6.47715 2 2 6.47715 2 12C2 17.5228 6.47715 22 12 22ZM16 10C16.5523 10 17 9.55228 17 9C17 8.44772 16.5523 8 16 8C15.4477 8 15 8.44772 15 9C15 9.55228 15.4477 10 16 10ZM9 9C9 9.55228 8.55228 10 8 10C7.44772 10 7 9.55228 7 9C7 8.44772 7.44772 8 8 8C8.55228 8 9 8.44772 9 9ZM7.11808 12.8259C7.04954 12.4174 6.66283 12.1418 6.25432 12.2103C5.84582 12.2789 5.57022 12.6656 5.63875 13.0741C6.15063 16.1252 8.80289 18.45 11.9996 18.45C15.1963 18.45 17.8486 16.1252 18.3605 13.0741C18.429 12.6656 18.1534 12.2789 17.7449 12.2103C17.3364 12.1418 16.9497 12.4174 16.8811 12.8259C16.4885 15.1665 14.4516 16.95 11.9996 16.95C9.54763 16.95 7.51075 15.1665 7.11808 12.8259Z" fill="#233043"/>
</svg>
