<svg width="24" height="24" viewBox="0 0 24 24" fill="none" xmlns="http://www.w3.org/2000/svg">
<path fill-rule="evenodd" clip-rule="evenodd" d="M12 0.75C10.5477 0.75 9.32771 1.72502 8.93849 3.05292C8.6982 2.99563 8.44788 2.96573 8.19141 2.96573C6.42363 2.96573 5 4.41039 5 6.17765C5 7.0436 5.34142 7.82115 5.88977 8.39338C5.34142 8.96562 5 9.74316 5 10.6091C5 12.3764 6.42363 13.821 8.19141 13.821C8.44988 13.821 8.69952 13.7907 8.93832 13.7333C9.32735 15.0615 10.5475 16.0368 12 16.0368C13.4523 16.0368 14.6723 15.0617 15.0615 13.7338C15.3018 13.7911 15.5521 13.821 15.8086 13.821C17.5764 13.821 19 12.3764 19 10.6091C19 9.74316 18.6586 8.96562 18.1102 8.39338C18.6586 7.82115 19 7.0436 19 6.17765C19 4.41039 17.5764 2.96573 15.8086 2.96573C15.5501 2.96573 15.3005 2.99606 15.0617 3.0535C14.6727 1.7253 13.4525 0.75 12 0.75ZM10.3241 4.07116L10.309 3.92631C10.3277 2.99229 11.0841 2.25 12 2.25C12.9159 2.25 13.6723 2.99229 13.691 3.92631L13.6759 4.07115C13.6455 4.36226 13.7873 4.64445 14.0389 4.7939C14.2906 4.94334 14.6062 4.93273 14.8473 4.76672C15.1284 4.5731 15.4499 4.46573 15.8086 4.46573C16.7361 4.46573 17.5 5.22695 17.5 6.17765C17.5 6.85983 17.1022 7.44196 16.5289 7.71729C16.2689 7.84213 16.1035 8.10498 16.1035 8.39338C16.1035 8.68178 16.2689 8.94463 16.5289 9.06947C17.1022 9.3448 17.5 9.92693 17.5 10.6091C17.5 11.5598 16.7361 12.321 15.8086 12.321C15.4453 12.321 15.118 12.2111 14.8544 12.025C14.614 11.8553 14.2966 11.8419 14.0427 11.9907C13.7888 12.1394 13.6454 12.4229 13.6759 12.7156L13.691 12.8605C13.6723 13.7945 12.9159 14.5368 12 14.5368C11.0841 14.5368 10.3277 13.7945 10.309 12.8605L10.3241 12.7156C10.3545 12.4245 10.2127 12.1423 9.96106 11.9929C9.7094 11.8434 9.3938 11.854 9.15274 12.02C8.87159 12.2137 8.55007 12.321 8.19141 12.321C7.26387 12.321 6.5 11.5598 6.5 10.6091C6.5 9.92693 6.89777 9.3448 7.47114 9.06947C7.73112 8.94463 7.89648 8.68178 7.89648 8.39338C7.89648 8.10498 7.73112 7.84213 7.47114 7.71729C6.89777 7.44196 6.5 6.85983 6.5 6.17765C6.5 5.22696 7.26387 4.46573 8.19141 4.46573C8.55468 4.46573 8.882 4.57568 9.14561 4.76175C9.38602 4.93145 9.70344 4.94488 9.95732 4.79611C10.2112 4.64733 10.3546 4.36383 10.3241 4.07116ZM10.3086 8.39338C10.3086 7.44269 11.0725 6.68146 12 6.68146C12.9275 6.68146 13.6914 7.44269 13.6914 8.39338C13.6914 9.34408 12.9275 10.1053 12 10.1053C11.0725 10.1053 10.3086 9.34408 10.3086 8.39338ZM12 5.18146C10.2322 5.18146 8.80859 6.62612 8.80859 8.39338C8.80859 10.1606 10.2322 11.6053 12 11.6053C13.7678 11.6053 15.1914 10.1606 15.1914 8.39338C15.1914 6.62612 13.7678 5.18146 12 5.18146ZM12.3415 22.5C12.4886 22.5 12.6348 22.496 12.78 22.4881C16.8056 22.269 20 19.0519 20 15.1154C20 14.7748 19.7164 14.5 19.3632 14.5C16.6219 14.5 14.2171 15.8887 12.864 17.9763C12.4911 18.5515 12.1982 19.1798 12 19.8467C11.8018 19.1798 11.5089 18.5515 11.136 17.9763C9.78293 15.8887 7.37807 14.5 4.63682 14.5C4.28357 14.5 4 14.7748 4 15.1154C4 19.0519 7.19438 22.269 11.22 22.4881C11.3652 22.496 11.5114 22.5 11.6585 22.5C11.7729 22.5 11.8867 22.4976 11.9999 22.4928C12.1131 22.4976 12.227 22.5 12.3415 22.5ZM10.5621 20.2739L10.7595 20.9382C8.08159 20.5664 6.00845 18.5581 5.58108 16.0685C7.99446 16.4226 9.91961 18.1115 10.5621 20.2739ZM13.4379 20.2739L13.2405 20.9382C15.9184 20.5664 17.9915 18.5581 18.4189 16.0685C16.0055 16.4226 14.0804 18.1115 13.4379 20.2739Z" fill="#233043"/>
</svg>
