<svg width="24" height="24" viewBox="0 0 24 24" fill="none" xmlns="http://www.w3.org/2000/svg">
<path fill-rule="evenodd" clip-rule="evenodd" d="M8.19141 13.071C6.84375 13.071 5.75 11.9681 5.75 10.6091C5.75 9.62434 6.32617 8.78729 7.14648 8.39338C6.32617 7.99947 5.75 7.16242 5.75 6.17765C5.75 4.81867 6.84375 3.71573 8.19141 3.71573C8.70899 3.71573 9.1875 3.87329 9.57813 4.14903L9.55859 3.96192C9.55859 2.60294 10.6523 1.5 12 1.5C13.3477 1.5 14.4414 2.60294 14.4414 3.96192L14.4219 4.14903C14.8223 3.87329 15.291 3.71573 15.8086 3.71573C17.1562 3.71573 18.25 4.81867 18.25 6.17765C18.25 7.16242 17.6738 7.99947 16.8535 8.39338C17.6738 8.78729 18.25 9.62434 18.25 10.6091C18.25 11.9681 17.1562 13.071 15.8086 13.071C15.291 13.071 14.8125 12.9135 14.4219 12.6377L14.4414 12.8248C14.4414 14.1838 13.3477 15.2868 12 15.2868C10.6523 15.2868 9.55859 14.1838 9.55859 12.8248L9.57813 12.6377C9.17774 12.9135 8.70899 13.071 8.19141 13.071ZM14.4414 8.39338C14.4414 7.0344 13.3477 5.93146 12 5.93146C10.6523 5.93146 9.55859 7.0344 9.55859 8.39338C9.55859 9.75236 10.6523 10.8553 12 10.8553C13.3477 10.8553 14.4414 9.75236 14.4414 8.39338ZM4 15.1154C4 14.7748 4.28357 14.5 4.63682 14.5C8.13339 14.5 11.0827 16.7594 12 19.8467C12.9173 16.7594 15.8666 14.5 19.3632 14.5C19.7164 14.5 20 14.7748 20 15.1154C20 19.1938 16.5712 22.5 12.3415 22.5C12.227 22.5 12.1131 22.4976 11.9999 22.4928C11.8867 22.4976 11.7729 22.5 11.6585 22.5C7.42884 22.5 4 19.1938 4 15.1154Z" fill="#233043"/>
</svg>
