<svg width="24" height="24" viewBox="0 0 24 24" fill="none" xmlns="http://www.w3.org/2000/svg">
<path fill-rule="evenodd" clip-rule="evenodd" d="M7.49999 10.1332L7.4999 10.1415L7.49988 10.1531L7.49999 10.1923C7.49999 12.6776 9.51471 14.6923 12 14.6923C14.4853 14.6923 16.5 12.6776 16.5 10.1923L16.4997 10.1415L16.4996 10.1332L16.5 3.625H7.49999V10.1332ZM18 3.125L17.9999 4.64881H18L19.7501 4.6488C20.7167 4.6488 21.4998 5.43239 21.4999 6.39868L21.5 7.84325C21.5 9.9078 19.8723 11.609 17.8222 11.6481C17.2304 14.0226 15.2241 15.8374 12.75 16.1459V17.375H13.75C15.4069 17.375 16.75 18.7181 16.75 20.375C16.75 21.2034 16.0784 21.875 15.25 21.875H8.75C7.92157 21.875 7.25 21.2034 7.25 20.375C7.25 18.7181 8.59315 17.375 10.25 17.375H11.25V16.1459C8.76761 15.8364 6.75615 14.0104 6.17191 11.6242C4.12455 11.5819 2.5 9.88201 2.5 7.81945L2.5001 6.37488C2.50017 5.40859 3.28333 4.625 4.24994 4.625L5.99999 4.625V3.125C5.99999 2.57272 6.4477 2.125 6.99999 2.125H17C17.5523 2.125 18 2.57272 18 3.125ZM17.9996 10.125L17.9998 6.14881H18L19.7501 6.1488C19.888 6.1488 19.9999 6.26057 19.9999 6.39879L20 7.84325C20 9.04139 19.1148 10.0078 17.9997 10.1347L17.9996 10.125ZM4.24994 6.125L5.99999 6.125V10.1108C4.88503 9.98381 4.00003 9.01748 4 7.81945L4.0001 6.37498C4.00011 6.23676 4.11203 6.125 4.24994 6.125ZM8.75 20.375C8.75 19.5466 9.42157 18.875 10.25 18.875H13.75C14.5784 18.875 15.25 19.5466 15.25 20.375H8.75Z" fill="#233043"/>
</svg>
