<svg width="24" height="24" viewBox="0 0 24 24" fill="none" xmlns="http://www.w3.org/2000/svg">
<path d="M6 3.5C6 2.94772 6.44772 2.5 7 2.5H17C17.5523 2.5 18 2.94772 18 3.5V10.5H6V3.5Z" fill="#233043"/>
<path d="M18 10.5673C18 13.881 15.3137 16.5673 12 16.5673C8.68629 16.5673 6 13.881 6 10.5673C6 7.25361 8.68629 4.56732 12 4.56732C15.3137 4.56732 18 7.25361 18 10.5673Z" fill="#233043"/>
<path fill-rule="evenodd" clip-rule="evenodd" d="M11.25 19.875V15.375H12.75V19.875H11.25Z" fill="#233043"/>
<path fill-rule="evenodd" clip-rule="evenodd" d="M4.24937 6.5C4.11202 6.5 4.00011 6.61121 4.0001 6.74998L4 8.19445C4 8.19446 4 8.19443 4 8.19445C4.00003 9.48078 5.02029 10.5 6.25 10.5H7.5C7.91421 10.5 8.25 10.8358 8.25 11.25C8.25 11.6642 7.91421 12 7.5 12H6.25C4.16602 12 2.5 10.2832 2.5 8.19445L2.5001 6.74988C2.50017 5.78414 3.28221 5 4.24938 5L7.5 5C7.91421 5 8.25 5.33579 8.25 5.75C8.25 6.16422 7.91421 6.5 7.5 6.5L4.24937 6.5Z" fill="#233043"/>
<path fill-rule="evenodd" clip-rule="evenodd" d="M19.7506 6.5238C19.888 6.5238 19.9999 6.63501 19.9999 6.77379L20 8.21825C20 8.21827 20 8.21823 20 8.21825C20 9.50458 18.9797 10.5238 17.75 10.5238H16.5C16.0858 10.5238 15.75 10.8596 15.75 11.2738C15.75 11.688 16.0858 12.0238 16.5 12.0238H17.75C19.834 12.0238 21.5 10.307 21.5 8.21825L21.4999 6.77368C21.4998 5.80794 20.7178 5.0238 19.7506 5.0238L16.5 5.02381C16.0858 5.02381 15.75 5.35959 15.75 5.77381C15.75 6.18802 16.0858 6.52381 16.5 6.52381L19.7506 6.5238Z" fill="#233043"/>
<path d="M8.5 20.75C8.5 19.7835 9.2835 19 10.25 19H13.75C14.7165 19 15.5 19.7835 15.5 20.75C15.5 20.8881 15.3881 21 15.25 21H8.75C8.61193 21 8.5 20.8881 8.5 20.75Z" fill="#233043" stroke="#233043"/>
</svg>
