<svg width="24" height="24" viewBox="0 0 24 24" fill="none" xmlns="http://www.w3.org/2000/svg">
<path fill-rule="evenodd" clip-rule="evenodd" d="M22.4991 8.49954C22.4991 11.8506 20.1442 14.6517 16.9989 15.3381C16.9813 14.3922 16.8092 13.484 16.5067 12.6379C17.9564 12.311 19.1431 11.2938 19.6929 9.9504C19.8498 9.56704 19.6662 9.12909 19.2828 8.97221C18.8995 8.81533 18.4615 8.99892 18.3046 9.38227C17.8995 10.3723 16.9697 11.1015 15.8516 11.2295C14.4042 8.74308 11.7315 7.05787 8.66077 7.00106C9.34686 3.85537 12.1481 1.5 15.4995 1.5C19.3653 1.5 22.4991 4.6338 22.4991 8.49954ZM18.728 6.99975C19.2803 6.99975 19.728 6.55206 19.728 5.99981C19.728 5.44756 19.2803 4.99988 18.728 4.99988C18.1758 4.99988 17.7281 5.44756 17.7281 5.99981C17.7281 6.55206 18.1758 6.99975 18.728 6.99975ZM13.2468 5.99987C13.2468 6.55212 12.7991 6.99981 12.2469 6.99981C11.6946 6.99981 11.2469 6.55212 11.2469 5.99987C11.2469 5.44763 11.6946 4.99994 12.2469 4.99994C12.7991 4.99994 13.2468 5.44763 13.2468 5.99987ZM15.4991 15.4991C15.4991 19.3648 12.3653 22.4986 8.49954 22.4986C4.6338 22.4986 1.5 19.3648 1.5 15.4991C1.5 11.6333 4.6338 8.49951 8.49954 8.49951C12.3653 8.49951 15.4991 11.6333 15.4991 15.4991ZM12.728 12.9993C12.728 13.5516 12.2803 13.9993 11.728 13.9993C11.1758 13.9993 10.7281 13.5516 10.7281 12.9993C10.7281 12.4471 11.1758 11.9994 11.728 11.9994C12.2803 11.9994 12.728 12.4471 12.728 12.9993ZM5.24688 13.9993C5.79913 13.9993 6.24682 13.5516 6.24682 12.9994C6.24682 12.4471 5.79913 11.9995 5.24688 11.9995C4.69463 11.9995 4.24695 12.4471 4.24695 12.9994C4.24695 13.5516 4.69463 13.9993 5.24688 13.9993ZM4.71515 15.9717C5.09851 15.8148 5.53646 15.9984 5.69334 16.3818C6.1404 17.4742 7.22619 18.249 8.49899 18.249C9.77179 18.249 10.8576 17.4742 11.3046 16.3818C11.4615 15.9984 11.8995 15.8148 12.2828 15.9717C12.6662 16.1286 12.8498 16.5665 12.6929 16.9499C12.0202 18.5937 10.394 19.749 8.49899 19.749C6.60401 19.749 4.97779 18.5937 4.30509 16.9499C4.14821 16.5665 4.3318 16.1286 4.71515 15.9717Z" fill="#233043"/>
</svg>
