<svg width="24" height="24" viewBox="0 0 24 24" fill="none" xmlns="http://www.w3.org/2000/svg">
<path fill-rule="evenodd" clip-rule="evenodd" d="M15.5 2.25C12.2886 2.25 9.64293 4.67223 9.29035 7.78936C11.6499 8.02851 13.6966 9.32614 14.9483 11.2C15.1271 11.2325 15.3114 11.2495 15.4998 11.2495C16.7726 11.2495 17.8584 10.4746 18.3055 9.38221C18.4623 8.99886 18.9003 8.81527 19.2836 8.97215C19.667 9.12903 19.8506 9.56698 19.6937 9.95034C19.0502 11.5229 17.534 12.6484 15.7447 12.743C15.9811 13.3641 16.1399 14.0235 16.2094 14.7093C19.3269 14.3571 21.7495 11.7112 21.7495 8.49954C21.7495 5.04802 18.9515 2.25 15.5 2.25ZM23.2495 8.49954C23.2495 12.538 20.1605 15.8549 16.2163 16.2164C15.8544 20.1601 12.5376 23.2486 8.49954 23.2486C4.21959 23.2486 0.75 19.779 0.75 15.4991C0.75 11.4606 3.83906 8.14368 7.7832 7.78218C8.14518 3.83852 11.4619 0.75 15.5 0.75C19.7799 0.75 23.2495 4.21959 23.2495 8.49954ZM2.25 15.4991C2.25 12.0475 5.04802 9.24951 8.49954 9.24951C11.9511 9.24951 14.7491 12.0475 14.7491 15.4991C14.7491 18.9506 11.9511 21.7486 8.49954 21.7486C5.04802 21.7486 2.25 18.9506 2.25 15.4991ZM12.2498 6.99981C12.802 6.99981 13.2497 6.55212 13.2497 5.99987C13.2497 5.44763 12.802 4.99994 12.2498 4.99994C11.6975 4.99994 11.2498 5.44763 11.2498 5.99987C11.2498 6.55212 11.6975 6.99981 12.2498 6.99981ZM18.7254 6.99981C19.2776 6.99981 19.7253 6.55212 19.7253 5.99987C19.7253 5.44763 19.2776 4.99994 18.7254 4.99994C18.1731 4.99994 17.7255 5.44763 17.7255 5.99987C17.7255 6.55212 18.1731 6.99981 18.7254 6.99981ZM6.24682 12.9994C6.24682 13.5516 5.79913 13.9993 5.24688 13.9993C4.69463 13.9993 4.24695 13.5516 4.24695 12.9994C4.24695 12.4471 4.69463 11.9995 5.24688 11.9995C5.79913 11.9995 6.24682 12.4471 6.24682 12.9994ZM11.728 13.9993C12.2803 13.9993 12.728 13.5516 12.728 12.9993C12.728 12.4471 12.2803 11.9994 11.728 11.9994C11.1758 11.9994 10.7281 12.4471 10.7281 12.9993C10.7281 13.5516 11.1758 13.9993 11.728 13.9993ZM4.71516 15.9717C5.09851 15.8148 5.53646 15.9984 5.69335 16.3818C6.1404 17.4742 7.22619 18.249 8.49899 18.249C9.7718 18.249 10.8576 17.4742 11.3046 16.3818C11.4615 15.9984 11.8995 15.8148 12.2828 15.9717C12.6662 16.1286 12.8498 16.5666 12.6929 16.9499C12.0202 18.5937 10.394 19.749 8.49899 19.749C6.60402 19.749 4.97779 18.5937 4.3051 16.9499C4.14821 16.5666 4.3318 16.1286 4.71516 15.9717Z" fill="#233043"/>
</svg>
