<svg width="24" height="24" viewBox="0 0 24 24" fill="none" xmlns="http://www.w3.org/2000/svg">
<path fill-rule="evenodd" clip-rule="evenodd" d="M5.5 17.75C4.25736 17.75 3.25 18.7574 3.25 20C3.25 21.2426 4.25736 22.25 5.5 22.25C6.74264 22.25 7.75 21.2426 7.75 20C7.75 18.7574 6.74264 17.75 5.5 17.75ZM16.25 20C16.25 18.7574 17.2574 17.75 18.5 17.75C19.7426 17.75 20.75 18.7574 20.75 20C20.75 21.2426 19.7426 22.25 18.5 22.25C17.2574 22.25 16.25 21.2426 16.25 20ZM9.8125 20C9.8125 18.7574 10.8199 17.75 12.0625 17.75C13.3051 17.75 14.3125 18.7574 14.3125 20C14.3125 21.2426 13.3051 22.25 12.0625 22.25C10.8199 22.25 9.8125 21.2426 9.8125 20Z" fill="#233043"/>
<path fill-rule="evenodd" clip-rule="evenodd" d="M7.96875 5.78125C7.96875 3.55485 9.7736 1.75 12 1.75C14.2264 1.75 16.0312 3.55485 16.0312 5.78125C16.0312 8.00765 14.2264 9.8125 12 9.8125C9.7736 9.8125 7.96875 8.00765 7.96875 5.78125ZM5.49573 15.1875C5.49573 12.8403 7.39852 10.9375 9.74573 10.9375H14.2542C16.6014 10.9375 18.5042 12.8403 18.5042 15.1875V16.2188H5.49573V15.1875Z" fill="#233043"/>
</svg>
