<svg width="24" height="24" viewBox="0 0 24 24" fill="none" xmlns="http://www.w3.org/2000/svg">
<path fill-rule="evenodd" clip-rule="evenodd" d="M4.75 20C4.75 20.4142 5.08579 20.75 5.5 20.75C5.91421 20.75 6.25 20.4142 6.25 20C6.25 19.5858 5.91421 19.25 5.5 19.25C5.08579 19.25 4.75 19.5858 4.75 20ZM5.5 17.75C4.25736 17.75 3.25 18.7574 3.25 20C3.25 21.2426 4.25736 22.25 5.5 22.25C6.74264 22.25 7.75 21.2426 7.75 20C7.75 18.7574 6.74264 17.75 5.5 17.75Z" fill="#233043"/>
<path fill-rule="evenodd" clip-rule="evenodd" d="M17.75 20C17.75 20.4142 18.0858 20.75 18.5 20.75C18.9142 20.75 19.25 20.4142 19.25 20C19.25 19.5858 18.9142 19.25 18.5 19.25C18.0858 19.25 17.75 19.5858 17.75 20ZM18.5 17.75C17.2574 17.75 16.25 18.7574 16.25 20C16.25 21.2426 17.2574 22.25 18.5 22.25C19.7426 22.25 20.75 21.2426 20.75 20C20.75 18.7574 19.7426 17.75 18.5 17.75Z" fill="#233043"/>
<path fill-rule="evenodd" clip-rule="evenodd" d="M11.3125 20C11.3125 20.4142 11.6483 20.75 12.0625 20.75C12.4767 20.75 12.8125 20.4142 12.8125 20C12.8125 19.5858 12.4767 19.25 12.0625 19.25C11.6483 19.25 11.3125 19.5858 11.3125 20ZM12.0625 17.75C10.8199 17.75 9.8125 18.7574 9.8125 20C9.8125 21.2426 10.8199 22.25 12.0625 22.25C13.3051 22.25 14.3125 21.2426 14.3125 20C14.3125 18.7574 13.3051 17.75 12.0625 17.75Z" fill="#233043"/>
<path fill-rule="evenodd" clip-rule="evenodd" d="M12 3.25C10.602 3.25 9.46875 4.38328 9.46875 5.78125C9.46875 7.17922 10.602 8.3125 12 8.3125C13.398 8.3125 14.5312 7.17922 14.5312 5.78125C14.5312 4.38328 13.398 3.25 12 3.25ZM7.96875 5.78125C7.96875 3.55485 9.7736 1.75 12 1.75C14.2264 1.75 16.0312 3.55485 16.0312 5.78125C16.0312 8.00765 14.2264 9.8125 12 9.8125C9.7736 9.8125 7.96875 8.00765 7.96875 5.78125ZM5.49573 15.1875C5.49573 12.8403 7.39852 10.9375 9.74573 10.9375H14.2542C16.6014 10.9375 18.5042 12.8403 18.5042 15.1875V16.2188H17.0042V15.1875C17.0042 13.6687 15.773 12.4375 14.2542 12.4375H9.74573C8.22694 12.4375 6.99573 13.6687 6.99573 15.1875V16.2188H5.49573V15.1875Z" fill="#233043"/>
</svg>
