<svg width="24" height="24" viewBox="0 0 24 24" fill="none" xmlns="http://www.w3.org/2000/svg">
<path fill-rule="evenodd" clip-rule="evenodd" d="M8.375 19.75H17.4676C18.4801 19.75 19.3508 19.0305 19.5447 18.0335L20.8351 11.3104C21.0901 9.99946 20.0894 8.78077 18.758 8.78077H14.1948C13.9026 8.78077 13.6658 8.54314 13.6658 8.25V3.56154C13.6658 2.97527 13.192 2.5 12.6076 2.5H12.2828C11.8417 2.5 11.4469 2.77449 11.292 3.18881L8.375 10.75V19.75ZM4.125 10.75C3.57272 10.75 3.125 11.1977 3.125 11.75V18.75C3.125 19.3023 3.57272 19.75 4.125 19.75H6.875V10.75H4.125Z" fill="#233043"/>
</svg>
