<svg width="24" height="24" viewBox="0 0 24 24" fill="none" xmlns="http://www.w3.org/2000/svg">
<path fill-rule="evenodd" clip-rule="evenodd" d="M12.2828 1.75C11.5291 1.75 10.8561 2.21803 10.591 2.92204L7.86046 10H4.125C3.1585 10 2.375 10.7835 2.375 11.75V18.75C2.375 19.7165 3.1585 20.5 4.125 20.5H8.375H17.4676C18.8408 20.5 20.0188 19.5245 20.2809 18.1767L20.2813 18.1749L21.5713 11.4536L21.5715 11.4527C21.9153 9.68196 20.5637 8.03077 18.758 8.03077H14.4158V3.56154C14.4158 2.56331 13.6085 1.75 12.6076 1.75H12.2828ZM7.625 19V11.5H4.125C3.98693 11.5 3.875 11.6119 3.875 11.75V18.75C3.875 18.8881 3.98693 19 4.125 19H7.625ZM9.125 19H17.4676C18.1192 19 18.6824 18.5369 18.8083 17.8911L18.8085 17.8903L20.0986 11.1691L20.0989 11.1672C20.2644 10.3164 19.6148 9.53077 18.758 9.53077H14.1948C13.4862 9.53077 12.9158 8.95509 12.9158 8.25V3.56154C12.9158 3.38722 12.7755 3.25 12.6076 3.25H12.2828C12.1558 3.25 12.0402 3.32909 11.9945 3.45141L11.9918 3.45877L11.9917 3.45875L9.125 10.8897V19Z" fill="#233043"/>
</svg>
