<svg width="24" height="24" viewBox="0 0 24 24" fill="none" xmlns="http://www.w3.org/2000/svg">
<path fill-rule="evenodd" clip-rule="evenodd" d="M2.75 9C2.75 6.33421 4.83421 4.25 7.5 4.25C9.01291 4.25 10.4767 4.95795 11.429 6.07625C11.5715 6.24359 11.7802 6.34 12 6.34C12.2198 6.34 12.4285 6.24359 12.571 6.07625C13.5233 4.95795 14.9871 4.25 16.5 4.25C19.1658 4.25 21.25 6.33421 21.25 9C21.25 10.6436 20.5176 12.1936 19.0756 13.9579C17.6251 15.7324 15.5363 17.6307 12.9464 19.9842L12.9456 19.9849L12.1701 20.6855C12.0747 20.7718 11.9294 20.7715 11.8343 20.6849L11.0549 19.9754L11.0538 19.9744C8.46371 17.6257 6.37476 15.7297 4.92429 13.9564C3.48243 12.1936 2.75 10.6436 2.75 9ZM7.5 2.75C4.00579 2.75 1.25 5.50579 1.25 9C1.25 11.1364 2.21757 13.0164 3.76321 14.9061C5.28999 16.7727 7.45714 18.7379 9.995 21.0392L10.0451 21.0846L10.0462 21.0856L10.8245 21.7941C11.4904 22.4003 12.5075 22.4022 13.1757 21.7986L13.9528 21.0965L13.9544 21.0951L14.031 21.0254L14.0311 21.0254C16.5578 18.7293 18.7155 16.7686 20.2369 14.9071C21.7824 13.0164 22.75 11.1364 22.75 9C22.75 5.50579 19.9942 2.75 16.5 2.75C14.8171 2.75 13.2007 3.41756 12 4.51322C10.7993 3.41756 9.18291 2.75 7.5 2.75ZM11.25 13H9.25C9.05109 13 8.86032 12.921 8.71967 12.7803C8.57902 12.6397 8.5 12.4489 8.5 12.25C8.5 12.0511 8.57902 11.8603 8.71967 11.7197C8.86032 11.579 9.05109 11.5 9.25 11.5H11.25V9.5C11.25 9.30109 11.329 9.11032 11.4697 8.96967C11.6103 8.82902 11.8011 8.75 12 8.75C12.1989 8.75 12.3897 8.82902 12.5303 8.96967C12.671 9.11032 12.75 9.30109 12.75 9.5V11.5H14.75C14.9489 11.5 15.1397 11.579 15.2803 11.7197C15.421 11.8603 15.5 12.0511 15.5 12.25C15.5 12.4489 15.421 12.6397 15.2803 12.7803C15.1397 12.921 14.9489 13 14.75 13H12.75V15C12.75 15.1989 12.671 15.3897 12.5303 15.5303C12.3897 15.671 12.1989 15.75 12 15.75C11.8011 15.75 11.6103 15.671 11.4697 15.5303C11.329 15.3897 11.25 15.1989 11.25 15V13Z" fill="#233043"/>
</svg>
