<svg width="24" height="24" viewBox="0 0 24 24" fill="none" xmlns="http://www.w3.org/2000/svg">
<path fill-rule="evenodd" clip-rule="evenodd" d="M11.3294 21.2395C11.7099 21.5859 12.2911 21.587 12.6729 21.242L13.45 20.54L13.4895 20.5041C18.6174 15.8442 22 12.7703 22 9C22 5.92 19.58 3.5 16.5 3.5C14.76 3.5 13.09 4.31 12 5.59C10.91 4.31 9.24 3.5 7.5 3.5C4.42 3.5 2 5.92 2 9C2 12.7769 5.39442 15.8549 10.5373 20.5185L10.55 20.53L11.3294 21.2395ZM11.25 13H9.25C9.05109 13 8.86032 12.921 8.71967 12.7803C8.57902 12.6397 8.5 12.4489 8.5 12.25C8.5 12.0511 8.57902 11.8603 8.71967 11.7197C8.86032 11.579 9.05109 11.5 9.25 11.5H11.25V9.5C11.25 9.30109 11.329 9.11032 11.4697 8.96967C11.6103 8.82902 11.8011 8.75 12 8.75C12.1989 8.75 12.3897 8.82902 12.5303 8.96967C12.671 9.11032 12.75 9.30109 12.75 9.5V11.5H14.75C14.9489 11.5 15.1397 11.579 15.2803 11.7197C15.421 11.8603 15.5 12.0511 15.5 12.25C15.5 12.4489 15.421 12.6397 15.2803 12.7803C15.1397 12.921 14.9489 13 14.75 13H12.75V15C12.75 15.1989 12.671 15.3897 12.5303 15.5303C12.3897 15.671 12.1989 15.75 12 15.75C11.8011 15.75 11.6103 15.671 11.4697 15.5303C11.329 15.3897 11.25 15.1989 11.25 15V13Z" fill="#233043"/>
</svg>
