<svg width="16" height="16" viewBox="0 0 16 16" fill="none" xmlns="http://www.w3.org/2000/svg">
<path d="M11.9998 14.0001C13.1043 14.0001 13.9998 13.1046 13.9998 12.0001C13.9998 10.8955 13.1043 10.0001 11.9998 10.0001C10.8952 10.0001 9.99976 10.8955 9.99976 12.0001C9.99976 13.1046 10.8952 14.0001 11.9998 14.0001Z" fill="#FCC205"/>
<path d="M9.42857 3H3.75C3.33579 3 3 3.33579 3 3.75V12.25C3 12.6642 3.33579 13 3.75 13H8M9.42857 3L13 6.57143M9.42857 3V5.82143C9.42857 6.23564 9.76436 6.57143 10.1786 6.57143H13M13 6.57143V8.17857" stroke="#233043" stroke-width="1.5" stroke-linecap="round" stroke-linejoin="round"/>
</svg>
