<svg width="16" height="16" viewBox="0 0 16 16" fill="none" xmlns="http://www.w3.org/2000/svg">
<path d="M9.42857 13.0001H3.75C3.33579 13.0001 3 12.6643 3 12.2501V3.75006C3 3.33585 3.33579 3.00006 3.75 3.00006H8M9.42857 13.0001L13 9.42863M9.42857 13.0001V10.1786C9.42857 9.76442 9.76436 9.42863 10.1786 9.42863H13M13 9.42863V7.82149" stroke="#233043" stroke-width="1.5" stroke-linecap="round" stroke-linejoin="round"/>
<path d="M11.9999 6C13.1044 6 13.9999 5.10457 13.9999 4C13.9999 2.89543 13.1044 2 11.9999 2C10.8953 2 9.99988 2.89543 9.99988 4C9.99988 5.10457 10.8953 6 11.9999 6Z" fill="#FCC205"/>
</svg>
