<svg width="16" height="16" viewBox="0 0 16 16" fill="none" xmlns="http://www.w3.org/2000/svg">
<path fill-rule="evenodd" clip-rule="evenodd" d="M14 8C14 11.3137 11.3137 14 8 14C4.68629 14 2 11.3137 2 8C2 4.68629 4.68629 2 8 2C11.3137 2 14 4.68629 14 8ZM7.99997 4.0682C8.41419 4.0682 8.74997 4.40399 8.74997 4.8182V7.25016H11.182C11.5962 7.25016 11.932 7.58594 11.932 8.00016C11.932 8.41437 11.5962 8.75016 11.182 8.75016H8.74997V11.1822C8.74997 11.5964 8.41419 11.9322 7.99997 11.9322C7.58576 11.9322 7.24997 11.5964 7.24997 11.1822V8.75016H4.81803C4.40382 8.75016 4.06803 8.41437 4.06803 8.00016C4.06803 7.58594 4.40382 7.25016 4.81803 7.25016H7.24997V4.8182C7.24997 4.40399 7.58576 4.0682 7.99997 4.0682Z" fill="#233043"/>
</svg>
