<svg width="16" height="16" viewBox="0 0 16 16" fill="none" xmlns="http://www.w3.org/2000/svg">
<path fill-rule="evenodd" clip-rule="evenodd" d="M14.6666 8.6665C14.6666 11.9802 11.9803 14.6665 8.66663 14.6665C5.35292 14.6665 2.66663 11.9802 2.66663 8.6665C2.66663 5.3528 5.35292 2.6665 8.66663 2.6665C11.9803 2.6665 14.6666 5.3528 14.6666 8.6665ZM8.6666 4.73471C9.08081 4.73471 9.4166 5.07049 9.4166 5.48471V7.91666H11.8486C12.2628 7.91666 12.5986 8.25245 12.5986 8.66666C12.5986 9.08087 12.2628 9.41666 11.8486 9.41666H9.4166V11.8487C9.4166 12.2629 9.08081 12.5987 8.6666 12.5987C8.25239 12.5987 7.9166 12.2629 7.9166 11.8487V9.41666H5.48466C5.07044 9.41666 4.73466 9.08087 4.73466 8.66666C4.73466 8.25245 5.07044 7.91666 5.48466 7.91666H7.9166V5.48471C7.9166 5.07049 8.25239 4.73471 8.6666 4.73471Z" fill="#233043"/>
</svg>
