<svg width="16" height="16" viewBox="0 0 16 16" fill="none" xmlns="http://www.w3.org/2000/svg">
<path fill-rule="evenodd" clip-rule="evenodd" d="M2.75 8C2.75 10.8995 5.1005 13.25 8 13.25C10.8995 13.25 13.25 10.8995 13.25 8C13.25 7.58579 13.5858 7.25 14 7.25C14.4142 7.25 14.75 7.58579 14.75 8C14.75 11.7279 11.7279 14.75 8 14.75C4.27208 14.75 1.25 11.7279 1.25 8C1.25 4.27208 4.27208 1.25 8 1.25C8.41421 1.25 8.75 1.58579 8.75 2C8.75 2.41421 8.41421 2.75 8 2.75C5.1005 2.75 2.75 5.1005 2.75 8Z" fill="#233043"/>
<path d="M6 6.6875C6 7.10171 5.66421 7.4375 5.25 7.4375C4.83579 7.4375 4.5 7.10171 4.5 6.6875C4.5 6.27329 4.83579 5.9375 5.25 5.9375C5.66421 5.9375 6 6.27329 6 6.6875Z" fill="#233043"/>
<path d="M11.5 6.6875C11.5 7.10171 11.1642 7.4375 10.75 7.4375C10.3358 7.4375 10 7.10171 10 6.6875C10 6.27329 10.3358 5.9375 10.75 5.9375C11.1642 5.9375 11.5 6.27329 11.5 6.6875Z" fill="#233043"/>
<path fill-rule="evenodd" clip-rule="evenodd" d="M4.59969 8.26515C5.00548 8.18205 5.40181 8.44365 5.4849 8.84945C5.6567 9.68842 6.62394 10.4999 8.00015 10.4999C9.37636 10.4999 10.3436 9.68842 10.5154 8.84945C10.5985 8.44365 10.9948 8.18205 11.4006 8.26515C11.8064 8.34825 12.068 8.74457 11.9849 9.15036C11.6337 10.8653 9.88984 11.9999 8.00015 11.9999C6.11046 11.9999 4.36658 10.8653 4.0154 9.15036C3.9323 8.74457 4.1939 8.34825 4.59969 8.26515Z" fill="#233043"/>
<path fill-rule="evenodd" clip-rule="evenodd" d="M9.75 3.50024C9.75 3.08603 10.0858 2.75024 10.5 2.75024H14.5C14.9142 2.75024 15.25 3.08603 15.25 3.50024C15.25 3.91446 14.9142 4.25024 14.5 4.25024H10.5C10.0858 4.25024 9.75 3.91446 9.75 3.50024Z" fill="#233043"/>
<path fill-rule="evenodd" clip-rule="evenodd" d="M12.5 6.25024C12.0858 6.25024 11.75 5.91446 11.75 5.50024V1.50024C11.75 1.08603 12.0858 0.750244 12.5 0.750244C12.9142 0.750244 13.25 1.08603 13.25 1.50024V5.50024C13.25 5.91446 12.9142 6.25024 12.5 6.25024Z" fill="#233043"/>
</svg>
