<svg width="16" height="16" viewBox="0 0 16 16" fill="none" xmlns="http://www.w3.org/2000/svg">
<path fill-rule="evenodd" clip-rule="evenodd" d="M8 12C8.41421 12 8.75 12.3358 8.75 12.75L8.75 14.25C8.75 14.6642 8.41421 15 8 15C7.58579 15 7.25 14.6642 7.25 14.25L7.25 12.75C7.25 12.3358 7.58579 12 8 12Z" fill="#233043"/>
<path d="M6.14918 2.69769C6.40947 2.31632 7.14879 1.75 8.00001 1.75C9.27027 1.75 10.3 2.77975 10.3 4.05V6.51737M5.70001 5.81781V7.45C5.70001 8.72025 6.72976 9.75 8.00001 9.75C8.16785 9.75 8.68145 9.75 9.24174 9.40135" stroke="#233043" stroke-width="1.5" stroke-linecap="round" stroke-linejoin="round"/>
<rect x="1.47766" y="0.477631" width="18.4637" height="1.5" rx="0.75" transform="rotate(45 1.47766 0.477631)" fill="#233043"/>
<path d="M3.48517 7.98901C3.48517 10.1968 5.50652 11.9865 7.99999 11.9865C9.13975 11.9865 10.0396 11.7182 10.8341 11.1014M12.5148 7.98901C12.5148 8.56483 12.3305 9.1238 12.225 9.34133" stroke="#233043" stroke-width="1.5" stroke-linecap="round"/>
</svg>
