<svg width="16" height="16" viewBox="0 0 16 16" fill="none" xmlns="http://www.w3.org/2000/svg">
<path fill-rule="evenodd" clip-rule="evenodd" d="M4.25 8C4.25 7.58579 3.91421 7.25 3.5 7.25C3.08579 7.25 2.75 7.58579 2.75 8C2.75 10.4608 4.7676 12.3767 7.25155 12.7014C7.25052 12.7175 7.25 12.7337 7.25 12.75V14.25C7.25 14.6642 7.58579 15 8 15C8.41421 15 8.75 14.6642 8.75 14.25V12.75C8.75 12.7337 8.74948 12.7175 8.74845 12.7014C11.2324 12.3767 13.25 10.4608 13.25 8C13.25 7.58579 12.9142 7.25 12.5 7.25C12.0858 7.25 11.75 7.58579 11.75 8C11.75 9.71432 10.1566 11.25 8 11.25C5.84345 11.25 4.25 9.71432 4.25 8Z" fill="#233043"/>
<path fill-rule="evenodd" clip-rule="evenodd" d="M9.5 7.5V4C9.5 3.17157 8.82843 2.5 8 2.5C7.17157 2.5 6.5 3.17157 6.5 4V7.5C6.5 8.32843 7.17157 9 8 9C8.82843 9 9.5 8.32843 9.5 7.5ZM8 1C6.34315 1 5 2.34315 5 4V7.5C5 9.15685 6.34315 10.5 8 10.5C9.65685 10.5 11 9.15685 11 7.5V4C11 2.34315 9.65685 1 8 1Z" fill="#233043"/>
</svg>
