<svg width="24" height="24" viewBox="0 0 24 24" fill="none" xmlns="http://www.w3.org/2000/svg">
<g clip-path="url(#clip0)">
<path fill-rule="evenodd" clip-rule="evenodd" d="M12 24C5.37258 24 -1.90735e-06 18.6274 -1.90735e-06 12C-1.90735e-06 5.37258 5.37258 0 12 0C18.6274 0 24 5.37258 24 12C24 18.6274 18.6274 24 12 24ZM14.5302 6.53033C14.8231 6.23744 14.8231 5.76256 14.5302 5.46967C14.2373 5.17678 13.7624 5.17678 13.4695 5.46967L7.82305 11.1161C7.3349 11.6043 7.3349 12.3957 7.82305 12.8839L13.4695 18.5303C13.7624 18.8232 14.2373 18.8232 14.5302 18.5303C14.8231 18.2374 14.8231 17.7626 14.5302 17.4697L9.06049 12L14.5302 6.53033Z" fill="#233043"/>
</g>
<defs>
<clipPath id="clip0">
<rect width="24" height="24" fill="white" transform="matrix(-1 0 0 1 24 0)"/>
</clipPath>
</defs>
</svg>
