<svg width="16" height="16" viewBox="0 0 16 16" fill="none" xmlns="http://www.w3.org/2000/svg">
<path fill-rule="evenodd" clip-rule="evenodd" d="M8 16C12.4183 16 16 12.4183 16 8C16 3.58172 12.4183 0 8 0C3.58172 0 0 3.58172 0 8C0 12.4183 3.58172 16 8 16ZM6.31314 4.35355C6.11788 4.15829 6.11788 3.84171 6.31314 3.64645C6.50841 3.45118 6.82499 3.45118 7.02025 3.64645L10.7845 7.41074C11.11 7.73618 11.11 8.26382 10.7845 8.58926L7.02025 12.3536C6.82499 12.5488 6.50841 12.5488 6.31314 12.3536C6.11788 12.1583 6.11788 11.8417 6.31314 11.6464L9.95959 8L6.31314 4.35355Z" fill="#233043"/>
</svg>
