<svg width="16" height="16" viewBox="0 0 16 16" fill="none" xmlns="http://www.w3.org/2000/svg">
<path fill-rule="evenodd" clip-rule="evenodd" d="M8 14C11.3137 14 14 11.3137 14 8C14 4.68629 11.3137 2 8 2C4.68629 2 2 4.68629 2 8C2 11.3137 4.68629 14 8 14ZM6.46967 5.53033C6.17678 5.23744 6.17678 4.76256 6.46967 4.46967C6.76256 4.17678 7.23744 4.17678 7.53033 4.46967L10.2946 7.23397C10.7177 7.65704 10.7177 8.34296 10.2946 8.76603L7.53033 11.5303C7.23744 11.8232 6.76256 11.8232 6.46967 11.5303C6.17678 11.2374 6.17678 10.7626 6.46967 10.4697L8.93934 8L6.46967 5.53033Z" fill="#233043"/>
</svg>
