<svg width="16" height="16" viewBox="0 0 16 16" fill="none" xmlns="http://www.w3.org/2000/svg">
<path fill-rule="evenodd" clip-rule="evenodd" d="M8 16C12.4183 16 16 12.4183 16 8C16 3.58172 12.4183 0 8 0C3.58172 0 0 3.58172 0 8C0 12.4183 3.58172 16 8 16ZM9.68686 4.35355C9.88212 4.15829 9.88212 3.84171 9.68686 3.64645C9.49159 3.45118 9.17501 3.45118 8.97975 3.64645L5.21545 7.41074C4.89001 7.73618 4.89002 8.26382 5.21545 8.58926L8.97975 12.3536C9.17501 12.5488 9.49159 12.5488 9.68686 12.3536C9.88212 12.1583 9.88212 11.8417 9.68686 11.6464L6.04041 8L9.68686 4.35355Z" fill="#233043"/>
</svg>
