<svg width="16" height="16" viewBox="0 0 16 16" fill="none" xmlns="http://www.w3.org/2000/svg">
<path fill-rule="evenodd" clip-rule="evenodd" d="M8 14C4.68629 14 2 11.3137 2 8C2 4.68629 4.68629 2 8 2C11.3137 2 14 4.68629 14 8C14 11.3137 11.3137 14 8 14ZM9.53033 5.53033C9.82322 5.23744 9.82322 4.76256 9.53033 4.46967C9.23744 4.17678 8.76256 4.17678 8.46967 4.46967L5.70537 7.23397C5.2823 7.65704 5.2823 8.34296 5.70537 8.76603L8.46967 11.5303C8.76256 11.8232 9.23744 11.8232 9.53033 11.5303C9.82322 11.2374 9.82322 10.7626 9.53033 10.4697L7.06066 8L9.53033 5.53033Z" fill="#233043"/>
</svg>
