<svg width="16" height="16" viewBox="0 0 16 16" fill="none" xmlns="http://www.w3.org/2000/svg">
<path fill-rule="evenodd" clip-rule="evenodd" d="M8 16C12.4183 16 16 12.4183 16 8C16 3.58172 12.4183 0 8 0C3.58172 0 0 3.58172 0 8C0 12.4183 3.58172 16 8 16ZM9.68684 4.35355C9.8821 4.15829 9.8821 3.84171 9.68684 3.64645C9.49157 3.45118 9.17499 3.45118 8.97973 3.64645L5.21543 7.41074C4.88999 7.73618 4.88999 8.26382 5.21543 8.58926L8.97973 12.3536C9.17499 12.5488 9.49157 12.5488 9.68684 12.3536C9.8821 12.1583 9.8821 11.8417 9.68684 11.6464L6.04039 8L9.68684 4.35355Z" fill="#233043"/>
</svg>
