<svg width="16" height="16" viewBox="0 0 16 16" fill="none" xmlns="http://www.w3.org/2000/svg">
<g clip-path="url(#clip0_8174:14238)">
<path fill-rule="evenodd" clip-rule="evenodd" d="M8 16C12.4183 16 16 12.4183 16 8C16 3.58172 12.4183 0 8 0C3.58172 0 0 3.58172 0 8C0 12.4183 3.58172 16 8 16ZM6.31315 4.35355C6.11789 4.15829 6.11789 3.84171 6.31315 3.64645C6.50842 3.45118 6.825 3.45118 7.02026 3.64645L10.7846 7.41074C11.11 7.73618 11.11 8.26382 10.7846 8.58926L7.02026 12.3536C6.825 12.5488 6.50842 12.5488 6.31315 12.3536C6.11789 12.1583 6.11789 11.8417 6.31315 11.6464L9.9596 8L6.31315 4.35355Z" fill="#233043"/>
</g>
<defs>
<clipPath id="clip0_8174:14238">
<rect width="16" height="16" fill="white"/>
</clipPath>
</defs>
</svg>
