<svg width="16" height="16" viewBox="0 0 16 16" fill="none" xmlns="http://www.w3.org/2000/svg">
<path d="M13 13L3 3" stroke="#233043" stroke-width="1.5" stroke-linecap="round"/>
<path fill-rule="evenodd" clip-rule="evenodd" d="M6.64861 5.60575C5.81402 6.07802 5.25073 6.97384 5.25073 8.00122C5.25073 9.52027 6.48217 10.7517 8.00122 10.7517C9.0286 10.7517 9.92443 10.1884 10.3967 9.35383L9.23693 8.19407C9.1442 8.79313 8.62626 9.25171 8.00122 9.25171C7.3106 9.25171 6.75073 8.69185 6.75073 8.00122C6.75073 7.37618 7.20931 6.85824 7.80837 6.76551L6.64861 5.60575ZM10.7377 8.28062C10.747 8.18874 10.7517 8.09554 10.7517 8.00122C10.7517 6.48217 9.52027 5.25073 8.00122 5.25073C7.9069 5.25073 7.8137 5.25548 7.72182 5.26475L10.7377 8.28062Z" fill="#233043"/>
<path fill-rule="evenodd" clip-rule="evenodd" d="M5.11153 4.06863C4.59278 4.35885 4.12189 4.69878 3.7092 5.04097C2.60775 5.95427 1.82387 6.96429 1.52173 7.37932C1.25098 7.75123 1.25098 8.2517 1.52173 8.62361C1.82387 9.03864 2.60775 10.0487 3.7092 10.962C4.79807 11.8648 6.2922 12.752 8.00128 12.752C9.78758 12.752 11.2104 12.0458 12.2612 11.2183L11.1915 10.1486C10.3533 10.7734 9.29224 11.252 8.00128 11.252C6.80441 11.252 5.64591 10.6193 4.66665 9.80728C3.88306 9.15754 3.27485 8.4432 2.931 8.00146C3.27485 7.55972 3.88306 6.84539 4.66665 6.19565C5.14821 5.79635 5.67313 5.4404 6.22463 5.18173L5.11153 4.06863ZM11.95 9.49284C12.4967 8.95044 12.8839 8.40358 13.108 8.04858C12.7763 7.61768 12.1638 6.88777 11.3661 6.2208C10.3813 5.39742 9.21104 4.75098 8.00128 4.75098C7.7595 4.75098 7.51929 4.77679 7.28181 4.82469L6.07474 3.61763C6.67487 3.39151 7.32105 3.25098 8.00128 3.25098C9.72802 3.25098 11.2356 4.15651 12.3282 5.07002C13.434 5.99451 14.2142 7.01054 14.4996 7.40517C14.7414 7.7396 14.7667 8.18238 14.5609 8.54288C14.3535 8.90614 13.8392 9.73032 13.0106 10.5535L11.95 9.49284Z" fill="#233043"/>
</svg>
