<svg width="16" height="17" viewBox="0 0 16 17" fill="none" xmlns="http://www.w3.org/2000/svg">
<path fill-rule="evenodd" clip-rule="evenodd" d="M7.60899 3.49066C7.80916 3.23948 8.19085 3.23948 8.39102 3.49065L10.4285 6.04725C10.5829 6.24105 10.8561 6.29248 11.0704 6.16811L13.0032 5.04679C13.3816 4.82726 13.8395 5.1652 13.7413 5.59151L12.5848 10.6122C12.5325 10.8392 12.3305 11 12.0976 11H3.90253C3.66963 11 3.46757 10.8392 3.41529 10.6122L2.25871 5.59151C2.1605 5.1652 2.61845 4.82725 2.99686 5.04678L4.92968 6.16811C5.14405 6.29248 5.41716 6.24105 5.57161 6.04724L7.60899 3.49066Z" fill="#233043"/>
<path d="M12.5046 13.25V12.75C12.5046 12.3358 12.1688 12 11.7546 12H4.25461C3.8404 12 3.50461 12.3358 3.50461 12.75V13.25C3.50461 13.6642 3.8404 14 4.25461 14H11.7546C12.1688 14 12.5046 13.6642 12.5046 13.25Z" fill="#233043"/>
</svg>
