<svg width="16" height="16" viewBox="0 0 16 16" fill="none" xmlns="http://www.w3.org/2000/svg">
<path d="M9.42857 3H3.75C3.33579 3 3 3.33579 3 3.75V12.25C3 12.6642 3.33579 13 3.75 13H12.25C12.6642 13 13 12.6642 13 12.25V6.57143M9.42857 3L13 6.57143M9.42857 3V5.82143C9.42857 6.23564 9.76436 6.57143 10.1786 6.57143H13" stroke="#233043" stroke-width="1.5" stroke-linecap="round" stroke-linejoin="round"/>
<path d="M6.69542 9.3457C6.62458 8.75781 6.17962 8.41974 5.59049 8.41974C4.91808 8.41974 4.40476 8.89453 4.40476 9.72727C4.40476 10.5575 4.90938 11.0348 5.59049 11.0348C6.24301 11.0348 6.63701 10.601 6.69542 10.1325L6.15103 10.13C6.10008 10.4022 5.8863 10.5588 5.59919 10.5588C5.21265 10.5588 4.9504 10.2717 4.9504 9.72727C4.9504 9.1978 5.20892 8.89577 5.60292 8.89577C5.89748 8.89577 6.11002 9.06605 6.15103 9.3457H6.69542ZM8.4622 9.18661H8.97801C8.97055 8.73295 8.59768 8.41974 8.03092 8.41974C7.47286 8.41974 7.06394 8.72798 7.06643 9.19034C7.06519 9.5657 7.32992 9.78072 7.75997 9.88388L8.03713 9.95348C8.3143 10.0206 8.46842 10.1001 8.46966 10.2717C8.46842 10.4581 8.29193 10.5849 8.01849 10.5849C7.73884 10.5849 7.53749 10.4556 7.52009 10.2008H6.99931C7.01298 10.7514 7.40698 11.036 8.0247 11.036C8.64615 11.036 9.01156 10.739 9.01281 10.2729C9.01156 9.84908 8.69214 9.62411 8.24967 9.52468L8.02097 9.46999C7.79974 9.41903 7.61455 9.337 7.61828 9.1543C7.61828 8.99023 7.76369 8.86967 8.02719 8.86967C8.28447 8.86967 8.44232 8.98651 8.4622 9.18661ZM9.83467 8.45455H9.23684L10.1156 11H10.8091L11.6866 8.45455H11.09L10.4735 10.3885H10.4499L9.83467 8.45455Z" fill="#233043"/>
</svg>
