<svg width="16" height="16" viewBox="0 0 16 16" fill="none" xmlns="http://www.w3.org/2000/svg">
<path d="M9.42857 3H3.75C3.33579 3 3 3.33579 3 3.75V12.25C3 12.6642 3.33579 13 3.75 13H12.25C12.6642 13 13 12.6642 13 12.25V6.57143M9.42857 3L13 6.57143M9.42857 3V5.82143C9.42857 6.23564 9.76436 6.57143 10.1786 6.57143H13" stroke="#233043" stroke-width="1.5" stroke-linecap="round" stroke-linejoin="round"/>
<path d="M6.69545 9.3457C6.6246 8.75781 6.17964 8.41974 5.59051 8.41974C4.9181 8.41974 4.40479 8.89453 4.40479 9.72727C4.40479 10.5575 4.9094 11.0348 5.59051 11.0348C6.24303 11.0348 6.63703 10.601 6.69545 10.1325L6.15106 10.13C6.1001 10.4022 5.88632 10.5588 5.59921 10.5588C5.21267 10.5588 4.95042 10.2717 4.95042 9.72727C4.95042 9.19779 5.20894 8.89577 5.60294 8.89577C5.89751 8.89577 6.11004 9.06605 6.15106 9.3457H6.69545Z" fill="#233043"/>
<path d="M8.46222 9.18661H8.97803C8.97057 8.73295 8.5977 8.41974 8.03094 8.41974C7.47288 8.41974 7.06396 8.72798 7.06645 9.19034C7.06521 9.56569 7.32994 9.78071 7.75999 9.88387L8.03715 9.95347C8.31432 10.0206 8.46844 10.1001 8.46968 10.2717C8.46844 10.4581 8.29195 10.5849 8.01851 10.5849C7.73886 10.5849 7.53751 10.4556 7.52011 10.2008H6.99933C7.01301 10.7514 7.407 11.036 8.02472 11.036C8.64617 11.036 9.01159 10.739 9.01283 10.2729C9.01159 9.84907 8.69216 9.62411 8.24969 9.52467L8.021 9.46999C7.79976 9.41903 7.61457 9.337 7.6183 9.15429C7.6183 8.99023 7.76372 8.86967 8.02721 8.86967C8.28449 8.86967 8.44234 8.9865 8.46222 9.18661Z" fill="#233043"/>
<path d="M9.83469 8.45454H9.23686L10.1156 11H10.8091L11.6866 8.45454H11.09L10.4735 10.3885H10.4499L9.83469 8.45454Z" fill="#233043"/>
</svg>
