<svg width="24" height="24" viewBox="0 0 24 24" fill="none" xmlns="http://www.w3.org/2000/svg">
<path d="M15 5H5.5C5.22386 5 5 5.22386 5 5.5V18.5C5 18.7761 5.22386 19 5.5 19H18.5C18.7761 19 19 18.7761 19 18.5V9M15 5L19 9M15 5V8.5C15 8.77614 15.2239 9 15.5 9H19" stroke="#233043" stroke-width="1.5" stroke-linecap="round" stroke-linejoin="round"/>
<path d="M10.0431 13.5186C9.93687 12.6367 9.26943 12.1296 8.38573 12.1296C7.37712 12.1296 6.60714 12.8418 6.60714 14.0909C6.60714 15.3363 7.36407 16.0522 8.38573 16.0522C9.36451 16.0522 9.95551 15.4015 10.0431 14.6987L9.22655 14.695C9.15011 15.1032 8.82945 15.3382 8.39878 15.3382C7.81897 15.3382 7.42559 14.9075 7.42559 14.0909C7.42559 13.2967 7.81338 12.8437 8.40437 12.8437C8.84622 12.8437 9.16503 13.0991 9.22655 13.5186H10.0431ZM12.6933 13.2799H13.467C13.4558 12.5994 12.8965 12.1296 12.0464 12.1296C11.2093 12.1296 10.5959 12.592 10.5996 13.2855C10.5978 13.8485 10.9949 14.1711 11.6399 14.3258L12.0557 14.4302C12.4714 14.5309 12.7026 14.6502 12.7045 14.9075C12.7026 15.1871 12.4379 15.3773 12.0277 15.3773C11.6083 15.3773 11.3062 15.1834 11.2801 14.8012H10.499C10.5195 15.6271 11.1105 16.0541 12.0371 16.0541C12.9692 16.0541 13.5173 15.6085 13.5192 14.9094C13.5173 14.2736 13.0382 13.9362 12.3745 13.787L12.0315 13.705C11.6996 13.6286 11.4218 13.5055 11.4274 13.2314C11.4274 12.9854 11.6455 12.8045 12.0408 12.8045C12.4267 12.8045 12.6635 12.9798 12.6933 13.2799ZM14.752 12.1818H13.8553L15.1734 16H16.2137L17.5299 12.1818H16.635L15.7103 15.0827H15.6749L14.752 12.1818Z" fill="#233043"/>
</svg>
