<svg width="16" height="16" viewBox="0 0 16 16" fill="none" xmlns="http://www.w3.org/2000/svg">
<path fill-rule="evenodd" clip-rule="evenodd" d="M2.16663 9.33333C2.16663 6.11167 4.7783 3.5 7.99996 3.5C11.2216 3.5 13.8333 6.11167 13.8333 9.33333V11.9158C13.8333 12.2384 13.5717 12.5 13.2491 12.5H10.745C10.6793 11.3991 9.96583 10.4726 8.98055 10.0965L9.71148 7.90367C9.84247 7.51072 9.6301 7.08598 9.23714 6.95499C8.84418 6.82401 8.41944 7.03638 8.28846 7.42933L7.44041 9.97347C6.24262 10.2211 5.32972 11.2476 5.25493 12.5H2.75084C2.42819 12.5 2.16663 12.2384 2.16663 11.9158V9.33333ZM6.76096 12.5H9.23898C9.15816 11.8928 8.64152 11.4234 8.01388 11.4166C8.00467 11.4168 7.99544 11.4168 7.9862 11.4166C7.3585 11.4234 6.84178 11.8928 6.76096 12.5ZM8.49997 5.8335C8.49997 6.10964 8.27611 6.3335 7.99997 6.3335C7.72383 6.3335 7.49997 6.10964 7.49997 5.8335C7.49997 5.55735 7.72383 5.3335 7.99997 5.3335C8.27611 5.3335 8.49997 5.55735 8.49997 5.8335ZM5.16663 7.6665C5.44277 7.6665 5.66663 7.44265 5.66663 7.1665C5.66663 6.89036 5.44277 6.6665 5.16663 6.6665C4.89048 6.6665 4.66663 6.89036 4.66663 7.1665C4.66663 7.44265 4.89048 7.6665 5.16663 7.6665ZM4.99997 9.81299C4.99997 10.0891 4.77611 10.313 4.49997 10.313C4.22383 10.313 3.99997 10.0891 3.99997 9.81299C3.99997 9.53685 4.22383 9.31299 4.49997 9.31299C4.77611 9.31299 4.99997 9.53685 4.99997 9.81299ZM11.5 10.313C11.7761 10.313 12 10.0891 12 9.81299C12 9.53685 11.7761 9.31299 11.5 9.31299C11.2238 9.31299 11 9.53685 11 9.81299C11 10.0891 11.2238 10.313 11.5 10.313ZM11.3333 7.1665C11.3333 7.44265 11.1095 7.6665 10.8333 7.6665C10.5572 7.6665 10.3333 7.44265 10.3333 7.1665C10.3333 6.89036 10.5572 6.6665 10.8333 6.6665C11.1095 6.6665 11.3333 6.89036 11.3333 7.1665Z" fill="#233043"/>
</svg>
