<svg width="16" height="16" viewBox="0 0 16 16" fill="none" xmlns="http://www.w3.org/2000/svg">
<path d="M5.06066 12L6.33108 12C6.74529 12 7.08108 12.3358 7.08108 12.75C7.08108 13.1642 6.74529 13.5 6.33108 13.5H3.25C2.83579 13.5 2.5 13.1642 2.5 12.75V9.41217C2.5 8.99795 2.83579 8.66217 3.25 8.66217C3.66421 8.66217 4 8.99795 4 9.41217V10.9393L5.79881 9.14054L5.80075 9.13859L10.9393 4L9.66892 4C9.2547 4 8.91892 3.66421 8.91892 3.25C8.91892 2.83579 9.2547 2.5 9.66892 2.5L12.75 2.5C13.1642 2.5 13.5 2.83579 13.5 3.25V6.58784C13.5 7.00205 13.1642 7.33784 12.75 7.33784C12.3358 7.33784 12 7.00205 12 6.58784V5.06066L10.2013 6.85934L10.1992 6.86142L5.06066 12Z" fill="#233043"/>
</svg>
