<svg width="16" height="16" viewBox="0 0 16 16" fill="none" xmlns="http://www.w3.org/2000/svg">
<path d="M2 5.5H8H14V8H8H2V5.5Z" stroke="#233043" stroke-width="1.5" stroke-linecap="round" stroke-linejoin="round"/>
<path d="M8 8H3V14H8M8 8H13V14H8M8 8V14" stroke="#233043" stroke-width="1.5" stroke-linecap="round" stroke-linejoin="round"/>
<path d="M6.37488 2.64257C7.0291 2.99749 8.14885 4.96389 8.14885 4.96389C8.14885 4.96389 5.83878 5.06958 5.18457 4.71466C4.53035 4.35974 4.26646 3.60817 4.59516 3.03598C4.92385 2.46379 5.72066 2.28765 6.37488 2.64257Z" stroke="#233043" stroke-width="1.5" stroke-linecap="round" stroke-linejoin="round"/>
<path d="M9.62512 2.64257C8.9709 2.99749 7.85115 4.96389 7.85115 4.96389C7.85115 4.96389 10.1612 5.06958 10.8154 4.71466C11.4697 4.35974 11.7335 3.60817 11.4048 3.03598C11.0761 2.46379 10.2793 2.28765 9.62512 2.64257Z" stroke="#233043" stroke-width="1.5" stroke-linecap="round" stroke-linejoin="round"/>
</svg>
