<svg width="16" height="16" viewBox="0 0 16 16" fill="none" xmlns="http://www.w3.org/2000/svg">
<path fill-rule="evenodd" clip-rule="evenodd" d="M14 8C14 11.3137 11.3137 14 8 14C4.68629 14 2 11.3137 2 8C2 4.68629 4.68629 2 8 2C11.3137 2 14 4.68629 14 8ZM8 5.5C7.58579 5.5 7.25 5.83579 7.25 6.25C7.25 6.66421 6.91421 7 6.5 7C6.08579 7 5.75 6.66421 5.75 6.25C5.75 5.00736 6.75736 4 8 4C9.24264 4 10.25 5.00736 10.25 6.25C10.25 7.23078 9.62291 8.06318 8.75 8.37175V9C8.75 9.41421 8.41421 9.75 8 9.75C7.58579 9.75 7.25 9.41421 7.25 9V8.25C7.25 7.52369 7.82784 7.10371 8.24557 6.95909C8.54019 6.85709 8.75 6.57708 8.75 6.25C8.75 5.83579 8.41421 5.5 8 5.5ZM8.00003 11.75C8.41424 11.75 8.75003 11.4142 8.75003 11C8.75003 10.5858 8.41424 10.25 8.00003 10.25C7.58582 10.25 7.25003 10.5858 7.25003 11C7.25003 11.4142 7.58582 11.75 8.00003 11.75Z" fill="#233043"/>
</svg>
