<svg width="16" height="16" viewBox="0 0 16 16" fill="none" xmlns="http://www.w3.org/2000/svg">
<path d="M12.9127 6.13352L13.4009 5.56414L12.9127 6.13352ZM7.83728 2.061L7.34911 1.49162L7.83728 2.061ZM8.16272 2.061L8.65089 1.49162L8.16272 2.061ZM3.08728 6.13352L2.59911 5.56414L3.08728 6.13352ZM3.57545 6.7029L8.32545 2.63038L7.34911 1.49162L2.59911 5.56414L3.57545 6.7029ZM3.75 13.7504V6.32331H2.25V13.7504H3.75ZM6.25 13.2504H3.25V14.7504H6.25V13.2504ZM7.25 13.7504V10.293H5.75V13.7504H7.25ZM6.75 10.793H9.25V9.29297H6.75V10.793ZM8.75 10.293V13.7504H10.25V10.293H8.75ZM12.75 13.2504H9.75V14.7504H12.75V13.2504ZM12.25 6.32331V13.7504H13.75V6.32331H12.25ZM7.67455 2.63038L12.4246 6.7029L13.4009 5.56414L8.65089 1.49162L7.67455 2.63038ZM13.75 6.32331C13.75 6.03143 13.6225 5.75412 13.4009 5.56414L12.4246 6.7029C12.3138 6.60791 12.25 6.46925 12.25 6.32331H13.75ZM12.75 14.7504C13.3023 14.7504 13.75 14.3027 13.75 13.7504H12.25C12.25 13.4743 12.4739 13.2504 12.75 13.2504V14.7504ZM8.75 13.7504C8.75 14.3027 9.19772 14.7504 9.75 14.7504V13.2504C10.0261 13.2504 10.25 13.4743 10.25 13.7504H8.75ZM9.25 10.793C8.97386 10.793 8.75 10.5691 8.75 10.293H10.25C10.25 9.74068 9.80229 9.29297 9.25 9.29297V10.793ZM7.25 10.293C7.25 10.5691 7.02614 10.793 6.75 10.793V9.29297C6.19772 9.29297 5.75 9.74068 5.75 10.293H7.25ZM6.25 14.7504C6.80228 14.7504 7.25 14.3027 7.25 13.7504H5.75C5.75 13.4743 5.97386 13.2504 6.25 13.2504V14.7504ZM2.25 13.7504C2.25 14.3027 2.69772 14.7504 3.25 14.7504V13.2504C3.52614 13.2504 3.75 13.4743 3.75 13.7504H2.25ZM8.32545 2.63038C8.13818 2.79093 7.86182 2.79093 7.67455 2.63038L8.65089 1.49162C8.27637 1.17052 7.72363 1.17052 7.34911 1.49162L8.32545 2.63038ZM2.59911 5.56414C2.37752 5.75412 2.25 6.03143 2.25 6.32331H3.75C3.75 6.46925 3.68624 6.60791 3.57545 6.7029L2.59911 5.56414Z" fill="#233043"/>
</svg>
