<svg width="16" height="16" viewBox="0 0 16 16" fill="none" xmlns="http://www.w3.org/2000/svg">
<path fill-rule="evenodd" clip-rule="evenodd" d="M14 8.00018C14 11.3139 11.3137 14.0002 8 14.0002C4.68629 14.0002 2 11.3139 2 8.00018C2 4.68647 4.68629 2.00018 8 2.00018C11.3137 2.00018 14 4.68647 14 8.00018ZM8 6.50018C8.41421 6.50018 8.75 6.83597 8.75 7.25018V11.2502C8.75 11.6644 8.41421 12.0002 8 12.0002C7.58579 12.0002 7.25 11.6644 7.25 11.2502V7.25018C7.25 6.83597 7.58579 6.50018 8 6.50018ZM8 5.75018C8.41421 5.75018 8.75 5.4144 8.75 5.00018C8.75 4.58597 8.41421 4.25018 8 4.25018C7.58579 4.25018 7.25 4.58597 7.25 5.00018C7.25 5.4144 7.58579 5.75018 8 5.75018Z" fill="#233043"/>
</svg>
