<svg width="16" height="16" viewBox="0 0 16 16" fill="none" xmlns="http://www.w3.org/2000/svg">
<path fill-rule="evenodd" clip-rule="evenodd" d="M7.33576 3.26646C7.18653 3.25154 7.03849 3.30438 6.93245 3.41043L1.28243 9.06044C1.08717 9.25571 1.08717 9.57229 1.28243 9.76755L6.23218 14.7173C6.42744 14.9126 6.74403 14.9126 6.93929 14.7173L12.5893 9.06728C12.6953 8.96124 12.7482 8.8132 12.7333 8.66398L12.2833 4.1642C12.2596 3.92741 12.0723 3.74012 11.8355 3.71644L7.33576 3.26646ZM9.06062 6.93914C9.35351 7.23203 9.82839 7.23203 10.1213 6.93914C10.4142 6.64625 10.4142 6.17137 10.1213 5.87848C9.82839 5.58559 9.35351 5.58559 9.06062 5.87848C8.76773 6.17137 8.76773 6.64625 9.06062 6.93914Z" fill="#233043"/>
</svg>
