<svg width="16" height="16" viewBox="0 0 16 16" fill="none" xmlns="http://www.w3.org/2000/svg">
<path fill-rule="evenodd" clip-rule="evenodd" d="M7.33581 3.26635C7.18659 3.25143 7.03855 3.30427 6.93251 3.41032L1.28249 9.06033C1.08723 9.2556 1.08723 9.57218 1.28249 9.76744L6.23223 14.7172C6.4275 14.9125 6.74408 14.9125 6.93934 14.7172L12.5894 9.06717C12.6954 8.96113 12.7482 8.81309 12.7333 8.66387L12.2833 4.16409C12.2597 3.9273 12.0724 3.74001 11.8356 3.71633L7.33581 3.26635ZM9.06067 6.93903C9.35357 7.23192 9.82844 7.23192 10.1213 6.93903C10.4142 6.64614 10.4142 6.17126 10.1213 5.87837C9.82844 5.58548 9.35357 5.58548 9.06067 5.87837C8.76778 6.17126 8.76778 6.64614 9.06067 6.93903Z" fill="#233043"/>
</svg>
