<svg width="16" height="16" viewBox="0 0 16 16" fill="none" xmlns="http://www.w3.org/2000/svg">
<rect x="10" y="11.5" width="4" height="2.5" rx="0.333333" stroke="#233043" stroke-width="1.5" stroke-linecap="round" stroke-linejoin="round"/>
<path d="M10.75 10.75C10.75 10.0596 11.3096 9.5 12 9.5V9.5C12.6904 9.5 13.25 10.0596 13.25 10.75V11.485C13.25 11.4933 13.2433 11.5 13.235 11.5H10.765C10.7567 11.5 10.75 11.4933 10.75 11.485V10.75Z" stroke="#233043" stroke-width="1.5" stroke-linecap="round" stroke-linejoin="round"/>
<path d="M9.42857 3H3.75C3.33579 3 3 3.33579 3 3.75V12.25C3 12.6642 3.33579 13 3.75 13H8M9.42857 3L13 6.57143M9.42857 3V5.82143C9.42857 6.23564 9.76436 6.57143 10.1786 6.57143H13M13 6.57143V8" stroke="#233043" stroke-width="1.5" stroke-linecap="round" stroke-linejoin="round"/>
</svg>
