<svg width="16" height="16" viewBox="0 0 16 16" fill="none" xmlns="http://www.w3.org/2000/svg">
<path d="M12 6.02539C13.1046 6.02539 14 5.12996 14 4.02539C14 2.92082 13.1046 2.02539 12 2.02539C10.8954 2.02539 10 2.92082 10 4.02539C10 5.12996 10.8954 6.02539 12 6.02539Z" fill="#F96155"/>
<path d="M8.52847 3.60039C8.21977 3.53461 7.89953 3.5 7.57122 3.5C5.0466 3.5 3 5.5466 3 8.07122C3 10.5958 5.0466 12.6424 7.57122 12.6424C7.57752 12.6424 7.58383 12.6424 7.59013 12.6424H12.5898C12.89 12.6424 13.0311 12.2713 12.8067 12.0718L11.2928 10.7262C11.8277 9.97776 12.1424 9.06124 12.1424 8.07122C12.1424 7.85391 12.1273 7.64014 12.0979 7.43091" stroke="#233043" stroke-width="1.5" stroke-linecap="round" stroke-linejoin="round"/>
</svg>
