<svg width="16" height="16" viewBox="0 0 16 16" fill="none" xmlns="http://www.w3.org/2000/svg">
<path d="M10.6667 8.00016C10.6667 8.98162 10.1365 9.83924 9.34692 10.3022M8.00008 5.3335C6.52732 5.3335 5.33341 6.5274 5.33341 8.00016C5.33341 8.98162 5.86363 9.83924 6.65324 10.3022" stroke="#233043" stroke-width="1.5" stroke-linecap="round" stroke-linejoin="round"/>
<path d="M6.66669 10.3896V11.3331H9.33335V10.3896" stroke="#233043" stroke-width="1.5" stroke-linecap="round" stroke-linejoin="round"/>
<path d="M6.66675 13.3335H9.33341" stroke="#233043" stroke-width="1.5" stroke-linecap="round" stroke-linejoin="round"/>
<path d="M8.00008 3.3335V2.3335" stroke="#233043" stroke-width="1.5" stroke-linecap="round" stroke-linejoin="round"/>
<path d="M2.33342 8H3.33342" stroke="#233043" stroke-width="1.5" stroke-linecap="round" stroke-linejoin="round"/>
<path d="M12.6667 8H13.6667" stroke="#233043" stroke-width="1.5" stroke-linecap="round" stroke-linejoin="round"/>
<path d="M4.37385 4.70711L3.66675 4" stroke="#233043" stroke-width="1.5" stroke-linecap="round" stroke-linejoin="round"/>
<path d="M11.6667 6C12.7713 6 13.6667 5.10457 13.6667 4C13.6667 2.89543 12.7713 2 11.6667 2C10.5622 2 9.66675 2.89543 9.66675 4C9.66675 5.10457 10.5622 6 11.6667 6Z" fill="#FF5971"/>
</svg>
