<svg width="16" height="16" viewBox="0 0 16 16" fill="none" xmlns="http://www.w3.org/2000/svg">
<path d="M10.6667 8.00004C10.6667 8.9815 10.1365 9.83912 9.34688 10.3021M8.00004 5.33337C6.52728 5.33337 5.33337 6.52728 5.33337 8.00004C5.33337 8.9815 5.86359 9.83912 6.6532 10.3021" stroke="#233043" stroke-width="1.5" stroke-linecap="round" stroke-linejoin="round"/>
<path d="M6.66675 10.3898V11.3333H9.33341V10.3898" stroke="#233043" stroke-width="1.5" stroke-linecap="round" stroke-linejoin="round"/>
<path d="M6.66675 13.3334H9.33341" stroke="#233043" stroke-width="1.5" stroke-linecap="round" stroke-linejoin="round"/>
<path d="M8.00012 3.33337V2.33337" stroke="#233043" stroke-width="1.5" stroke-linecap="round" stroke-linejoin="round"/>
<path d="M2.33337 8H3.33337" stroke="#233043" stroke-width="1.5" stroke-linecap="round" stroke-linejoin="round"/>
<path d="M12.6667 8H13.6667" stroke="#233043" stroke-width="1.5" stroke-linecap="round" stroke-linejoin="round"/>
<path d="M4.37385 4.70711L3.66675 4" stroke="#233043" stroke-width="1.5" stroke-linecap="round" stroke-linejoin="round"/>
<path d="M11.6667 6C12.7713 6 13.6667 5.10457 13.6667 4C13.6667 2.89543 12.7713 2 11.6667 2C10.5622 2 9.66675 2.89543 9.66675 4C9.66675 5.10457 10.5622 6 11.6667 6Z" fill="#FF5971"/>
</svg>
