<svg width="16" height="16" viewBox="0 0 16 16" fill="none" xmlns="http://www.w3.org/2000/svg">
<path d="M2 6.28571V13.6667C2 13.8508 2.14924 14 2.33333 14H6.71429M2 6.28571V2.33333C2 2.14924 2.14924 2 2.33333 2H9M2 6.28571H6.71429M11 6.28571H6.71429M6.71429 6.28571V14M6.71429 14H13.6667C13.8508 14 14 13.8508 14 13.6667V7.07681" stroke="#233043" stroke-width="1.5" stroke-linecap="round" stroke-linejoin="round"/>
<path d="M13 5C14.1046 5 15 4.10457 15 3C15 1.89543 14.1046 1 13 1C11.8954 1 11 1.89543 11 3C11 4.10457 11.8954 5 13 5Z" fill="#FF5971"/>
</svg>
