<svg width="16" height="16" viewBox="0 0 16 16" fill="none" xmlns="http://www.w3.org/2000/svg">
<path d="M3 6.57143V12.6667C3 12.8508 3.14924 13 3.33333 13H6.92857M3 6.57143V3.33333C3 3.14924 3.14924 3 3.33333 3H8M3 6.57143H6.92857M9.50312 6.57143H6.92857M6.92857 6.57143V13M6.92857 13H12.6667C12.8508 13 13 12.8508 13 12.6667V7.23067" stroke="#233043" stroke-width="1.5" stroke-linecap="round" stroke-linejoin="round"/>
<path d="M11.6667 6C12.7713 6 13.6667 5.10457 13.6667 4C13.6667 2.89543 12.7713 2 11.6667 2C10.5622 2 9.66675 2.89543 9.66675 4C9.66675 5.10457 10.5622 6 11.6667 6Z" fill="#FF5971"/>
</svg>
