<svg width="16" height="16" viewBox="0 0 16 16" fill="none" xmlns="http://www.w3.org/2000/svg">
<path d="M3.0745 11.1253V4.77866H2.10384C2.10384 5.56266 1.85184 5.86132 0.666504 5.86132V6.75732H2.0105V11.1253H3.0745Z" fill="#233043"/>
<path d="M9.31325 11.1253V10.164H6.16792C6.27992 9.58532 6.47592 9.35199 7.17592 8.95066L8.09059 8.42799C8.87459 7.97999 9.33192 7.26132 9.33192 6.48666C9.33192 5.36666 8.53859 4.66666 7.25992 4.66666C5.90659 4.66666 5.03859 5.55332 5.03859 6.93466H6.14925C6.14925 6.07599 6.55059 5.59999 7.25992 5.59999C7.81059 5.59999 8.19325 5.98266 8.19325 6.54266C8.19325 7.05599 7.92259 7.45732 7.39992 7.74666L6.46659 8.25999C5.36525 8.86666 4.89859 9.72532 4.89859 11.1253H9.31325Z" fill="#233043"/>
<path d="M12.8524 11.2373C14.1404 11.2373 15.0457 10.444 15.0457 9.30532C15.0457 8.51199 14.5604 7.91466 13.8137 7.78399C14.5137 7.55999 14.8871 7.08399 14.8871 6.41199C14.8871 5.36666 14.0564 4.66666 12.8151 4.66666C11.4991 4.66666 10.6591 5.44132 10.6591 6.65466H11.7137C11.7137 5.96399 12.1337 5.55332 12.8151 5.55332C13.3937 5.55332 13.7951 5.90799 13.7951 6.41199C13.7951 7.03732 13.4591 7.34532 12.7777 7.34532H12.3204V8.26932H12.7684C13.5617 8.26932 13.9631 8.62399 13.9631 9.31466C13.9631 9.92132 13.5151 10.332 12.8524 10.332C12.0497 10.332 11.5924 9.85599 11.5924 9.00666H10.5004C10.5004 10.416 11.3684 11.2373 12.8524 11.2373Z" fill="#233043"/>
</svg>
