<svg width="16" height="16" viewBox="0 0 16 16" fill="none" xmlns="http://www.w3.org/2000/svg">
<path d="M3.33337 3V5" stroke="#233043" stroke-linecap="round" stroke-linejoin="round"/>
<path d="M2.66663 7.66667C2.66663 7.44444 2.79996 7 3.33329 7C3.86663 7 3.99996 7.44444 3.99996 7.66667C3.99996 8.33333 2.66663 9 2.66663 9H3.99996" stroke="#233043" stroke-linecap="round" stroke-linejoin="round"/>
<path d="M2.66663 11C2.99996 11 2.79996 11 3.33329 11C3.86663 11 3.99996 11 3.99996 11C3.66663 11.3333 3.66663 11.3333 3.33329 11.6667C3.33329 11.6667 3.99996 11.6667 3.99996 12.3333C3.99996 13 3.37649 13 3.33329 13C2.66663 13 2.66663 12.5 2.66663 12.5" stroke="#233043" stroke-linecap="round" stroke-linejoin="round"/>
<path d="M6.5 4H13.5" stroke="#233043" stroke-width="1.5" stroke-linecap="round" stroke-linejoin="round"/>
<path d="M6.5 8H13.5" stroke="#233043" stroke-width="1.5" stroke-linecap="round" stroke-linejoin="round"/>
<path d="M6.5 12H13.5" stroke="#233043" stroke-width="1.5" stroke-linecap="round" stroke-linejoin="round"/>
</svg>
