<svg width="16" height="16" viewBox="0 0 16 16" fill="none" xmlns="http://www.w3.org/2000/svg">
<path fill-rule="evenodd" clip-rule="evenodd" d="M2.97852 8.00016C2.97852 5.42283 5.06785 3.3335 7.64518 3.3335C10.2225 3.3335 12.3118 5.42283 12.3118 8.00016C12.3118 9.0258 11.981 9.97416 11.4202 10.7443L12.9106 12.0857C13.1377 12.2901 12.9931 12.6668 12.6876 12.6668H7.65686L7.64518 12.6668L7.6335 12.6668H7.33402V12.6566C4.90177 12.4965 2.97852 10.4729 2.97852 8.00016ZM10.2856 7.18436C10.5716 6.88474 10.5606 6.40999 10.2609 6.12399C9.96131 5.83798 9.48656 5.84902 9.20056 6.14865L7.1626 8.28365L6.24987 7.44697C5.94453 7.16708 5.4701 7.1877 5.19021 7.49304C4.91031 7.79838 4.93094 8.27281 5.23628 8.5527L6.45002 9.6653C6.88478 10.0638 7.55846 10.0414 7.96569 9.61473L10.2856 7.18436Z" fill="#233043"/>
</svg>
