<svg width="16" height="16" viewBox="0 0 16 16" fill="none" xmlns="http://www.w3.org/2000/svg">
<path fill-rule="evenodd" clip-rule="evenodd" d="M2.97849 8.00016C2.97849 5.42283 5.06782 3.3335 7.64515 3.3335C10.2225 3.3335 12.3118 5.42283 12.3118 8.00016C12.3118 9.0258 11.9809 9.97416 11.4201 10.7443L12.9106 12.0857C13.1376 12.2901 12.9931 12.6668 12.6876 12.6668H7.65683L7.64515 12.6668L7.63347 12.6668H7.33399V12.6566C4.90174 12.4965 2.97849 10.4729 2.97849 8.00016ZM10.2856 7.18436C10.5716 6.88474 10.5605 6.40999 10.2609 6.12399C9.96128 5.83798 9.48653 5.84902 9.20053 6.14865L7.16257 8.28365L6.24984 7.44697C5.9445 7.16708 5.47007 7.1877 5.19018 7.49304C4.91028 7.79838 4.93091 8.27281 5.23625 8.5527L6.44999 9.6653C6.88475 10.0638 7.55843 10.0414 7.96566 9.61473L10.2856 7.18436Z" fill="#233043"/>
</svg>
