<svg width="16" height="16" viewBox="0 0 16 16" fill="none" xmlns="http://www.w3.org/2000/svg">
<path d="M9.42857 3H3.75C3.33579 3 3 3.33579 3 3.75V12.25C3 12.6642 3.33579 13 3.75 13H12.25C12.6642 13 13 12.6642 13 12.25V6.57143M9.42857 3L13 6.57143M9.42857 3V5.82143C9.42857 6.23564 9.76436 6.57143 10.1786 6.57143H13" stroke="#233043" stroke-width="1.5" stroke-linecap="round" stroke-linejoin="round"/>
<path d="M4.79132 11H5.3295V10.1747H5.78191C6.36732 10.1747 6.70787 9.82545 6.70787 9.3171C6.70787 8.81124 6.37353 8.45453 5.79558 8.45453H4.79132V11ZM5.3295 9.74341V8.89451H5.69242C6.00315 8.89451 6.15354 9.06355 6.15354 9.3171C6.15354 9.56941 6.00315 9.74341 5.69491 9.74341H5.3295Z" fill="#233043"/>
<path d="M7.95978 11C8.73535 11 9.20516 10.5202 9.20516 9.72477C9.20516 8.9318 8.73535 8.45453 7.96724 8.45453H7.05743V11H7.95978ZM7.59561 10.5389V8.91564H7.93865C8.41592 8.91564 8.66823 9.15925 8.66823 9.72477C8.66823 10.2928 8.41592 10.5389 7.93741 10.5389H7.59561Z" fill="#233043"/>
<path d="M9.60382 11H10.142V9.94849H11.1773V9.50478H10.142V8.89824H11.2892V8.45453H9.60382V11Z" fill="#233043"/>
</svg>
