<svg width="24" height="24" viewBox="0 0 24 24" fill="none" xmlns="http://www.w3.org/2000/svg">
<path d="M15 4.99997H5.5C5.22386 4.99997 5 5.22383 5 5.49997V18.5C5 18.7761 5.22386 19 5.5 19H18.5C18.7761 19 19 18.7761 19 18.5V8.99997M15 4.99997L19 8.99997M15 4.99997V8.49997C15 8.77611 15.2239 8.99997 15.5 8.99997H19" stroke="#233043" stroke-width="1.5" stroke-linecap="round" stroke-linejoin="round"/>
<path d="M7.18696 16H7.99422V14.7621H8.67284C9.55095 14.7621 10.0618 14.2382 10.0618 13.4757C10.0618 12.7169 9.56027 12.1818 8.69335 12.1818H7.18696V16ZM7.99422 14.1151V12.8418H8.53861C9.00469 12.8418 9.23028 13.0953 9.23028 13.4757C9.23028 13.8541 9.00469 14.1151 8.54234 14.1151H7.99422ZM11.9396 16C13.103 16 13.8077 15.2804 13.8077 14.0872C13.8077 12.8977 13.103 12.1818 11.9508 12.1818H10.5861V16H11.9396ZM11.3934 15.3083V12.8735H11.9079C12.6239 12.8735 13.0023 13.2389 13.0023 14.0872C13.0023 14.9392 12.6239 15.3083 11.9061 15.3083H11.3934ZM14.4057 16H15.213V14.4228H16.766V13.7572H15.213V12.8474H16.9338V12.1818H14.4057V16Z" fill="#233043"/>
</svg>
