<svg width="16" height="16" viewBox="0 0 16 16" fill="none" xmlns="http://www.w3.org/2000/svg">
<path d="M9.42857 3H3.75C3.33579 3 3 3.33579 3 3.75V12.25C3 12.6642 3.33579 13 3.75 13H12.25C12.6642 13 13 12.6642 13 12.25V6.57143M9.42857 3L13 6.57143M9.42857 3V5.82143C9.42857 6.23564 9.76436 6.57143 10.1786 6.57143H13" stroke="#233043" stroke-width="1.5" stroke-linecap="round" stroke-linejoin="round"/>
<path d="M4.7913 11H5.32948V10.1747H5.78189C6.3673 10.1747 6.70785 9.82546 6.70785 9.31712C6.70785 8.81126 6.37351 8.45455 5.79557 8.45455H4.7913V11ZM5.32948 9.74343V8.89453H5.69241C6.00313 8.89453 6.15352 9.06357 6.15352 9.31712C6.15352 9.56942 6.00313 9.74343 5.69489 9.74343H5.32948ZM7.95976 11C8.73533 11 9.20514 10.5202 9.20514 9.72479C9.20514 8.93182 8.73533 8.45455 7.96722 8.45455H7.05742V11H7.95976ZM7.59559 10.5389V8.91566H7.93863C8.4159 8.91566 8.66821 9.15927 8.66821 9.72479C8.66821 10.2928 8.4159 10.5389 7.93739 10.5389H7.59559ZM9.6038 11H10.142V9.94851H11.1773V9.50479H10.142V8.89826H11.2892V8.45455H9.6038V11Z" fill="#233043"/>
</svg>
