<svg width="16" height="16" viewBox="0 0 16 16" fill="none" xmlns="http://www.w3.org/2000/svg">
<path d="M10.8907 4.42667L10.1333 4L5.09867 11.2747L5.87733 11.7013L10.8907 4.42667ZM5.89867 7.81867C7.09333 7.81867 7.79733 6.96533 7.79733 6.00533C7.79733 5.04533 7.09333 4.192 5.89867 4.192C4.704 4.192 4 5.04533 4 6.00533C4 6.96533 4.704 7.81867 5.89867 7.81867ZM5.89867 6.92267C5.32267 6.92267 5.01333 6.51733 5.01333 6.00533C5.01333 5.49333 5.32267 5.088 5.89867 5.088C6.47467 5.088 6.784 5.49333 6.784 6.00533C6.784 6.51733 6.47467 6.92267 5.89867 6.92267ZM10.1227 11.5627C11.3173 11.5627 12.0213 10.7093 12.0213 9.74933C12.0213 8.78933 11.3173 7.936 10.1227 7.936C8.928 7.936 8.224 8.78933 8.224 9.74933C8.224 10.7093 8.928 11.5627 10.1227 11.5627ZM10.1227 10.6667C9.54667 10.6667 9.23733 10.2613 9.23733 9.74933C9.23733 9.23733 9.54667 8.832 10.1227 8.832C10.6987 8.832 11.008 9.23733 11.008 9.74933C11.008 10.2613 10.6987 10.6667 10.1227 10.6667Z" fill="#233043"/>
</svg>
