<svg width="16" height="16" viewBox="0 0 16 16" fill="none" xmlns="http://www.w3.org/2000/svg">
<g id="16px/Performance" clip-path="url(#clip0_1060_190)">
<g id="Group 1045">
<path id="Union" fill-rule="evenodd" clip-rule="evenodd" d="M11.7843 8.62964C13.7199 6.69405 14.176 2.98122 13.88 2.68516C13.5839 2.3891 9.87109 2.84522 7.93551 4.7808C6.70996 6.00635 5.40178 8.20272 5.40178 8.20272L8.36242 11.1634C8.36242 11.1634 10.5588 9.85518 11.7843 8.62964Z" stroke="#233043" stroke-width="1.5" stroke-linejoin="round"/>
<circle id="Ellipse 202" cx="9.84814" cy="6.7087" r="0.99745" transform="rotate(45 9.84814 6.7087)" fill="#233043"/>
<path id="Ellipse 203" d="M5.65182 12.3015C5.56814 12.3852 5.35127 12.5359 4.99813 12.7199C4.66429 12.8938 4.26626 13.0681 3.87466 13.2132C3.59495 13.3169 3.33079 13.4012 3.10498 13.4598C3.16358 13.2339 3.24784 12.9698 3.35151 12.6901C3.49665 12.2985 3.67091 11.9005 3.84482 11.5666C4.02879 11.2135 4.17954 10.9966 4.26322 10.9129C4.64667 10.5295 5.26837 10.5295 5.65182 10.9129C6.03527 11.2964 6.03527 11.9181 5.65182 12.3015ZM2.56845 13.5478C2.56899 13.5474 2.57663 13.5476 2.58975 13.5497C2.57448 13.5493 2.56792 13.5482 2.56845 13.5478ZM3.01503 13.975C3.01715 13.9881 3.01735 13.9957 3.01692 13.9963C3.01649 13.9968 3.01543 13.9903 3.01503 13.975Z" stroke="#233043" stroke-width="1.5"/>
<path id="Vector 885" d="M11.9554 8.45833L11.6055 11.6074L9.15625 14.0566L8.45646 11.2575" stroke="#233043" stroke-width="1.5" stroke-linejoin="round"/>
<path id="Vector 886" d="M8.10661 4.60954L4.95756 4.95943L2.5083 7.40869L5.30745 8.10848" stroke="#233043" stroke-width="1.5" stroke-linejoin="round"/>
</g>
</g>
<defs>
<clipPath id="clip0_1060_190">
<rect width="16" height="16" fill="white"/>
</clipPath>
</defs>
</svg>
