<svg width="16" height="16" viewBox="0 0 16 16" fill="none" xmlns="http://www.w3.org/2000/svg">
<path fill-rule="evenodd" clip-rule="evenodd" d="M11.7853 8.62964C13.7209 6.69405 14.177 2.98122 13.881 2.68516C13.5849 2.3891 9.87207 2.84522 7.93648 4.7808C6.71094 6.00635 5.40276 8.20272 5.40276 8.20272L8.3634 11.1634C8.3634 11.1634 10.5598 9.85518 11.7853 8.62964Z" stroke="#233043" stroke-width="1.5" stroke-linejoin="round"/>
<path d="M10.5543 7.41418C10.1648 7.80371 9.53324 7.80371 9.14371 7.41418C8.75418 7.02465 8.75418 6.3931 9.14371 6.00357C9.53324 5.61404 10.1648 5.61404 10.5543 6.00357C10.9438 6.3931 10.9438 7.02465 10.5543 7.41418Z" fill="#233043"/>
<path d="M5.65251 12.3017C5.56884 12.3854 5.35196 12.5361 4.99882 12.7201C4.66498 12.894 4.26695 13.0682 3.87535 13.2134C3.59565 13.3171 3.33148 13.4013 3.10568 13.4599C3.16428 13.2341 3.24853 12.9699 3.35221 12.6902C3.49735 12.2986 3.6716 11.9006 3.84552 11.5668C4.02948 11.2136 4.18024 10.9968 4.26391 10.9131C4.64736 10.5296 5.26906 10.5296 5.65251 10.9131C6.03596 11.2965 6.03596 11.9182 5.65251 12.3017ZM2.56915 13.548C2.56968 13.5475 2.57732 13.5477 2.59045 13.5499C2.57517 13.5495 2.56861 13.5484 2.56915 13.548ZM3.01572 13.9751C3.01784 13.9883 3.01805 13.9959 3.01762 13.9964C3.01719 13.997 3.01613 13.9904 3.01572 13.9751Z" stroke="#233043" stroke-width="1.5"/>
<path d="M11.956 8.4585L11.6061 11.6075L9.15682 14.0568L8.45703 11.2576" stroke="#233043" stroke-width="1.5" stroke-linejoin="round"/>
<path d="M8.10758 4.60986L4.95854 4.95976L2.50928 7.40902L5.30843 8.10881" stroke="#233043" stroke-width="1.5" stroke-linejoin="round"/>
</svg>
