<svg width="16" height="16" viewBox="0 0 16 16" fill="none" xmlns="http://www.w3.org/2000/svg">
<path d="M12.6934 8.75H12.6969C12.3335 11.2939 10.1446 13.25 7.5 13.25C4.60051 13.25 2.25 10.8995 2.25 8C2.25 5.35539 4.20608 3.16652 6.75 2.80307V2.81055V2.81949V2.82845V2.83743V2.84645V2.85549V2.86455V2.87364V2.88276V2.8919V2.90106V2.91026V2.91947V2.92871V2.93798V2.94727V2.95659V2.96593V2.97529V2.98468V2.99409V3.00352V3.01298V3.02246V3.03197V3.0415V3.05105V3.06062V3.07022V3.07984V3.08948V3.09915V3.10883V3.11854V3.12827V3.13803V3.1478V3.1576V3.16742V3.17725V3.18711V3.19699V3.2069V3.21682V3.22676V3.23672V3.24671V3.25671V3.26674V3.27678V3.28684V3.29693V3.30703V3.31715V3.32729V3.33745V3.34763V3.35783V3.36805V3.37828V3.38853V3.39881V3.4091V3.4194V3.42973V3.44007V3.45043V3.46081V3.47121V3.48162V3.49205V3.5025V3.51296V3.52344V3.53394V3.54445V3.55498V3.56552V3.57608V3.58666V3.59725V3.60786V3.61849V3.62912V3.63978V3.65045V3.66113V3.67183V3.68254V3.69327V3.70401V3.71476V3.72553V3.73632V3.74711V3.75793V3.76875V3.77959V3.79044V3.8013V3.81218V3.82307V3.83397V3.84488V3.85581V3.86675V3.8777V3.88867V3.89964V3.91063V3.92163V3.93264V3.94366V3.95469V3.96573V3.97679V3.98785V3.99893V4.01001V4.02111V4.03221V4.04333V4.05446V4.06559V4.07674V4.08789V4.09906V4.11023V4.12141V4.1326V4.1438V4.15501V4.16623V4.17746V4.18869V4.19993V4.21118V4.22244V4.23371V4.24498V4.25626V4.26755V4.27885V4.29015V4.30146V4.31277V4.3241V4.33543V4.34676V4.3581V4.36945V4.38081V4.39216V4.40353V4.4149V4.42628V4.43766V4.44904V4.46044V4.47183V4.48323V4.49464V4.50605V4.51746V4.52888V4.5403V4.55173V4.56316V4.57459V4.58603V4.59747V4.60892V4.62036V4.63181V4.64326V4.65472V4.66618V4.67764V4.6891V4.70056V4.71203V4.7235V4.73497V4.74644V4.75791V4.76939V4.78086V4.79234V4.80381V4.81529V4.82677V4.83825V4.84973V4.86121V4.87269V4.88417V4.89565V4.90712V4.9186V4.93008V4.94156V4.95303V4.96451V4.97598V4.98745V4.99893V5.01039V5.02186V5.03333V5.04479V5.05625V5.06771V5.07917V5.09062V5.10208V5.11352V5.12497V5.13641V5.14785V5.15929V5.17072V5.18215V5.19358V5.205V5.21641V5.22783V5.23924V5.25064V5.26204V5.27343V5.28482V5.29621V5.30759V5.31896V5.33033V5.3417V5.35306V5.36441V5.37575V5.38709V5.39843V5.40975V5.42108V5.43239V5.4437V5.455V5.46629V5.47758V5.48886V5.50013V5.51139V5.52265V5.5339V5.54514V5.55637V5.56759V5.57881V5.59001V5.60121V5.6124V5.62358V5.63475V5.64591V5.65706V5.66821V5.67934V5.69046V5.70158V5.71268V5.72377V5.73486V5.74593V5.75699V5.76804V5.77908V5.79011V5.80113V5.81213V5.82313V5.83411V5.84508V5.85604V5.86699V5.87793V5.88885V5.89976V5.91066V5.92155V5.93242V5.94328V5.95413V5.96496V5.97578V5.98659V5.99738V6.00816V6.01893V6.02968V6.04041V6.05114V6.06185V6.07254V6.08322V6.09388V6.10453V6.11517V6.12579V6.13639V6.14698V6.15755V6.16811V6.17865V6.18917V6.19968V6.21017V6.22065V6.23111V6.24155V6.25197V6.26238V6.27277V6.28314V6.2935V6.30384V6.31416V6.32446V6.33475V6.34501V6.35526V6.36549V6.3757V6.38589V6.39607V6.40622V6.41636V6.42648V6.43657V6.44665V6.45671V6.46675V6.47676V6.48676V6.49674V6.5067V6.51663V6.52655V6.53645V6.54632V6.55617V6.56601V6.57582V6.58561V6.59538V6.60512V6.61485V6.62455V6.63423V6.64389V6.65353V6.66314V6.67273V6.6823V6.69184V6.70136V6.71086V6.72034V6.72979V6.73922V6.74862V6.758V6.76736V6.77669V6.786V6.79529V6.80454V6.81378V6.82299V6.83217V6.84133V6.85047V6.85957V6.86866V6.87772V6.88675V6.89575V6.90473V6.91369V6.92261V6.93151V6.94039V6.94923V6.95805V6.96685V6.97561V6.98435V6.99306V7.00175V7.0104V7.01903V7.02763V7.0362V7.04475V7.05326V7.06175V7.07021V7.07864V7.08704V7.09541V7.10375V7.11206V7.12034V7.1286V7.13682V7.14501V7.15318V7.16131V7.16941V7.17749V7.18553V7.19354V7.20152V7.20947V7.21739V7.22528V7.23313V7.24095V7.24875V7.25651V7.26424V7.27193V7.2796V7.28723V7.29483V7.30239V7.30993V7.31743V7.32489V7.33233V7.33973V7.3471V7.35443V7.36173V7.369V7.37623V7.38343V7.39059V7.39772V7.40482V7.41188V7.4189V7.42589V7.43285V7.43977V7.44665V7.4535V7.46032V7.46709V7.47384V7.48054V7.48721V7.49384V7.50044V7.507V7.51352V7.52001V7.52646V7.53287V7.53925V7.54558V7.55188V7.55814V7.56437V7.57055V7.5767V7.58281V7.58888V7.59492V7.60091V7.60687V7.61278V7.61866V7.6245V7.6303V7.63606V7.64178V7.64746V7.6531V7.65869V7.66425V7.66977V7.67525V7.68069V7.68609V7.69145V7.69676V7.70204V7.70727V7.71246V7.71761V7.72272V7.72779V7.73281V7.73779V7.74273V7.74763V7.75249C6.75 8.30716 7.19823 8.75 7.74812 8.75H7.75305H7.75803H7.76305H7.76812H7.77322H7.77838H7.78357H7.78881H7.79409H7.79941H7.80478H7.81018H7.81563H7.82112H7.82666H7.83223H7.83785H7.8435H7.8492H7.85494H7.86072H7.86654H7.87241H7.87831H7.88425H7.89024H7.89626H7.90232H7.90843H7.91457H7.92075H7.92697H7.93323H7.93953H7.94587H7.95225H7.95866H7.96512H7.97161H7.97814H7.98471H7.99132H7.99796H8.00464H8.01136H8.01812H8.02491H8.03174H8.03861H8.04551H8.05245H8.05943H8.06645H8.0735H8.08058H8.0877H8.09486H8.10205H8.10928H8.11654H8.12384H8.13118H8.13854H8.14595H8.15338H8.16086H8.16836H8.1759H8.18348H8.19108H8.19873H8.2064H8.21411H8.22185H8.22963H8.23743H8.24527H8.25315H8.26105H8.26899H8.27696H8.28496H8.293H8.30106H8.30916H8.31729H8.32545H8.33364H8.34186H8.35011H8.3584H8.36671H8.37506H8.38343H8.39184H8.40027H8.40874H8.41723H8.42576H8.43431H8.44289H8.45151H8.46015H8.46882H8.47752H8.48625H8.495H8.50379H8.5126H8.52144H8.53031H8.5392H8.54812H8.55708H8.56605H8.57506H8.58409H8.59315H8.60223H8.61135H8.62048H8.62965H8.63884H8.64806H8.6573H8.66656H8.67586H8.68518H8.69452H8.70389H8.71328H8.7227H8.73215H8.74161H8.75111H8.76062H8.77016H8.77973H8.78931H8.79893H8.80856H8.81822H8.8279H8.8376H8.84733H8.85708H8.86685H8.87665H8.88647H8.89631H8.90617H8.91605H8.92596H8.93588H8.94583H8.9558H8.96579H8.9758H8.98583H8.99589H9.00596H9.01605H9.02617H9.0363H9.04646H9.05663H9.06682H9.07704H9.08727H9.09752H9.10779H9.11808H9.12839H9.13872H9.14906H9.15943H9.16981H9.18021H9.19063H9.20106H9.21152H9.22199H9.23248H9.24298H9.25351H9.26404H9.2746H9.28517H9.29576H9.30637H9.31699H9.32763H9.33828H9.34895H9.35964H9.37034H9.38105H9.39179H9.40253H9.41329H9.42407H9.43486H9.44566H9.45648H9.46731H9.47816H9.48902H9.4999H9.51079H9.52169H9.5326H9.54353H9.55447H9.56542H9.57639H9.58737H9.59836H9.60936H9.62038H9.63141H9.64245H9.6535H9.66456H9.67563H9.68672H9.69781H9.70892H9.72004H9.73117H9.74231H9.75346H9.76462H9.77579H9.78696H9.79815H9.80935H9.82056H9.83178H9.84301H9.85424H9.86549H9.87674H9.888H9.89927H9.91055H9.92184H9.93313H9.94444H9.95575H9.96707H9.97839H9.98972H10.0011H10.0124H10.0238H10.0351H10.0465H10.0579H10.0692H10.0806H10.092H10.1034H10.1148H10.1262H10.1376H10.1491H10.1605H10.1719H10.1834H10.1948H10.2062H10.2177H10.2291H10.2406H10.2521H10.2635H10.275H10.2865H10.2979H10.3094H10.3209H10.3324H10.3439H10.3554H10.3668H10.3783H10.3898H10.4013H10.4128H10.4243H10.4358H10.4473H10.4589H10.4704H10.4819H10.4934H10.5049H10.5164H10.5279H10.5394H10.5509H10.5624H10.574H10.5855H10.597H10.6085H10.62H10.6315H10.643H10.6545H10.666H10.6775H10.689H10.7005H10.712H10.7235H10.735H10.7465H10.758H10.7695H10.781H10.7925H10.8039H10.8154H10.8269H10.8383H10.8498H10.8613H10.8727H10.8842H10.8956H10.9071H10.9185H10.9299H10.9414H10.9528H10.9642H10.9756H10.987H10.9985H11.0099H11.0212H11.0326H11.044H11.0554H11.0668H11.0781H11.0895H11.1008H11.1122H11.1235H11.1348H11.1461H11.1574H11.1687H11.18H11.1913H11.2026H11.2139H11.2251H11.2364H11.2476H11.2589H11.2701H11.2813H11.2925H11.3037H11.3149H11.3261H11.3373H11.3484H11.3596H11.3707H11.3819H11.393H11.4041H11.4152H11.4263H11.4373H11.4484H11.4595H11.4705H11.4815H11.4925H11.5035H11.5145H11.5255H11.5365H11.5474H11.5584H11.5693H11.5802H11.5911H11.602H11.6129H11.6238H11.6346H11.6454H11.6563H11.6671H11.6779H11.6886H11.6994H11.7101H11.7209H11.7316H11.7423H11.753H11.7637H11.7743H11.7849H11.7956H11.8062H11.8168H11.8273H11.8379H11.8484H11.859H11.8695H11.88H11.8904H11.9009H11.9113H11.9217H11.9321H11.9425H11.9529H11.9632H11.9736H11.9839H11.9942H12.0044H12.0147H12.0249H12.0351H12.0453H12.0555H12.0657H12.0758H12.0859H12.096H12.1061H12.1161H12.1262H12.1362H12.1462H12.1562H12.1661H12.176H12.1859H12.1958H12.2057H12.2155H12.2254H12.2351H12.2449H12.2547H12.2644H12.2741H12.2838H12.2935H12.3031H12.3127H12.3223H12.3319H12.3414H12.3509H12.3604H12.3699H12.3793H12.3888H12.3981H12.4075H12.4169H12.4262H12.4355H12.4447H12.454H12.4632H12.4724H12.4816H12.4907H12.4998H12.5089H12.518H12.527H12.536H12.545H12.5539H12.5629H12.5718H12.5806H12.5895H12.5983H12.6071H12.6158H12.6246H12.6333H12.6419H12.6506H12.6592H12.6678H12.6763H12.6849H12.6934Z" stroke="#233043" stroke-width="1.5"/>
<path d="M9.25001 1.80307C11.5487 2.13151 13.3685 3.9513 13.6969 6.25H13.6927H13.6813H13.67H13.6587H13.6474H13.6361H13.6248H13.6135H13.6022H13.591H13.5797H13.5684H13.5572H13.5459H13.5347H13.5234H13.5122H13.501H13.4898H13.4786H13.4674H13.4562H13.445H13.4338H13.4227H13.4115H13.4003H13.3892H13.378H13.3669H13.3558H13.3447H13.3335H13.3224H13.3113H13.3003H13.2892H13.2781H13.267H13.256H13.2449H13.2339H13.2228H13.2118H13.2008H13.1898H13.1788H13.1678H13.1568H13.1458H13.1348H13.1238H13.1129H13.1019H13.091H13.08H13.0691H13.0582H13.0473H13.0364H13.0255H13.0146H13.0037H12.9928H12.9819H12.9711H12.9602H12.9494H12.9385H12.9277H12.9169H12.9061H12.8953H12.8845H12.8737H12.8629H12.8522H12.8414H12.8306H12.8199H12.8092H12.7984H12.7877H12.777H12.7663H12.7556H12.7449H12.7342H12.7236H12.7129H12.7022H12.6916H12.681H12.6703H12.6597H12.6491H12.6385H12.6279H12.6173H12.6067H12.5962H12.5856H12.5751H12.5645H12.554H12.5435H12.533H12.5225H12.512H12.5015H12.491H12.4805H12.4701H12.4596H12.4492H12.4387H12.4283H12.4179H12.4075H12.3971H12.3867H12.3763H12.366H12.3556H12.3452H12.3349H12.3246H12.3142H12.3039H12.2936H12.2833H12.273H12.2628H12.2525H12.2422H12.232H12.2217H12.2115H12.2013H12.1911H12.1809H12.1707H12.1605H12.1503H12.1402H12.13H12.1199H12.1097H12.0996H12.0895H12.0794H12.0693H12.0592H12.0491H12.0391H12.029H12.019H12.0089H11.9989H11.9889H11.9789H11.9689H11.9589H11.9489H11.9389H11.929H11.919H11.9091H11.8992H11.8892H11.8793H11.8694H11.8596H11.8497H11.8398H11.83H11.8201H11.8103H11.8005H11.7906H11.7808H11.771H11.7613H11.7515H11.7417H11.732H11.7222H11.7125H11.7028H11.6931H11.6834H11.6737H11.664H11.6543H11.6447H11.635H11.6254H11.6158H11.6061H11.5965H11.5869H11.5774H11.5678H11.5582H11.5487H11.5391H11.5296H11.5201H11.5106H11.5011H11.4916H11.4821H11.4727H11.4632H11.4538H11.4443H11.4349H11.4255H11.4161H11.4067H11.3974H11.388H11.3787H11.3693H11.36H11.3507H11.3414H11.3321H11.3228H11.3135H11.3042H11.295H11.2858H11.2765H11.2673H11.2581H11.2489H11.2397H11.2306H11.2214H11.2123H11.2031H11.194H11.1849H11.1758H11.1667H11.1576H11.1486H11.1395H11.1305H11.1214H11.1124H11.1034H11.0944H11.0854H11.0765H11.0675H11.0585H11.0496H11.0407H11.0318H11.0229H11.014H11.0051H10.9963H10.9874H10.9786H10.9697H10.9609H10.9521H10.9433H10.9345H10.9258H10.917H10.9083H10.8996H10.8908H10.8821H10.8734H10.8648H10.8561H10.8474H10.8388H10.8302H10.8215H10.8129H10.8044H10.7958H10.7872H10.7786H10.7701H10.7616H10.7531H10.7446H10.7361H10.7276H10.7191H10.7107H10.7022H10.6938H10.6854H10.677H10.6686H10.6602H10.6518H10.6435H10.6351H10.6268H10.6185H10.6102H10.6019H10.5936H10.5854H10.5771H10.5689H10.5607H10.5525H10.5443H10.5361H10.5279H10.5198H10.5116H10.5035H10.4954H10.4873H10.4792H10.4711H10.4631H10.455H10.447H10.4389H10.4309H10.4229H10.415H10.407H10.399H10.3911H10.3832H10.3752H10.3673H10.3595H10.3516H10.3437H10.3359H10.328H10.3202H10.3124H10.3046H10.2968H10.2891H10.2813H10.2736H10.2659H10.2582H10.2505H10.2428H10.2351H10.2275H10.2198H10.2122H10.2046H10.197H10.1894H10.1818H10.1743H10.1667H10.1592H10.1517H10.1442H10.1367H10.1293H10.1218H10.1144H10.1069H10.0995H10.0921H10.0847H10.0774H10.07H10.0627H10.0553H10.048H10.0407H10.0334H10.0262H10.0189H10.0117H10.0045H9.99725H9.99005H9.98287H9.9757H9.96855H9.96141H9.95429H9.94718H9.94009H9.93301H9.92595H9.9189H9.91186H9.90484H9.89784H9.89085H9.88387H9.87691H9.86997H9.86304H9.85612H9.84922H9.84234H9.83547H9.82862H9.82178H9.81495H9.80814H9.80135H9.79457H9.7878H9.78106H9.77432H9.7676H9.7609H9.75421H9.74754H9.74088H9.73424H9.72762H9.72101H9.71441H9.70783H9.70127H9.69472H9.68818H9.68167H9.67516H9.66868H9.66221H9.65575H9.64931H9.64289H9.63648H9.63008H9.62371H9.61734H9.611H9.60467H9.59835H9.59206H9.58577H9.57951H9.57325H9.56702H9.5608H9.5546H9.54841H9.54224H9.53608H9.52994H9.52382H9.51771H9.51162H9.50555H9.49949H9.49344H9.48742H9.48141H9.47541H9.46944H9.46347H9.45753H9.4516H9.44569H9.43979H9.43391H9.42804H9.4222H9.41636H9.41055H9.40475H9.39897H9.3932H9.38745H9.38172H9.37601H9.37031H9.36462H9.35896H9.35331H9.34768H9.34206H9.33646H9.33088H9.32531H9.31976H9.31423H9.30871H9.30321H9.29773H9.29227H9.28682H9.28139H9.27597H9.27057H9.26519H9.25983H9.25448H9.25045C9.25015 6.24965 9.25001 6.24939 9.24998 6.24933C9.2501 6.24962 9.25011 6.2498 9.25009 6.24968C9.25007 6.24956 9.25002 6.24917 9.25002 6.24834L9.25001 1.80307Z" stroke="#233043" stroke-width="1.5"/>
</svg>
