<svg width="16" height="16" viewBox="0 0 16 16" fill="none" xmlns="http://www.w3.org/2000/svg">
<path fill-rule="evenodd" clip-rule="evenodd" d="M10.7878 2.62846C10.6576 2.49829 10.4465 2.49829 10.3164 2.62846L7.18989 5.75494C7.1165 5.82833 7.01294 5.862 6.90965 5.85181C5.90975 5.75312 4.87848 6.04615 4.0648 6.73088C3.92394 6.84941 3.92465 7.0619 4.05482 7.19207L9.00675 12.144C9.13693 12.2742 9.34941 12.2749 9.46795 12.134C10.1527 11.3203 10.4457 10.2891 10.347 9.28917C10.3368 9.18589 10.3705 9.08232 10.4439 9.00894L13.5704 5.88246C13.7005 5.75229 13.7005 5.54123 13.5704 5.41106L10.7878 2.62846Z" fill="#233043"/>
<path d="M6.53638 9.67358L3.70795 12.502" stroke="#233043" stroke-width="1.5" stroke-linecap="round" stroke-linejoin="round"/>
</svg>
