<svg width="16" height="16" viewBox="0 0 16 16" fill="none" xmlns="http://www.w3.org/2000/svg">
<path d="M7.07332 5.87151L6.96779 6.61404C7.20132 6.64723 7.43686 6.56863 7.60365 6.40184L7.07332 5.87151ZM4.0648 6.73088L4.5477 7.30473L4.0648 6.73088ZM4.05482 7.19207L3.52449 7.7224L4.05482 7.19207ZM9.00675 12.144L9.53708 11.6137L9.00675 12.144ZM9.46795 12.134L10.0418 12.6169L10.0418 12.6169L9.46795 12.134ZM10.3273 9.1255L9.79699 8.59517C9.6302 8.76196 9.55159 8.9975 9.58478 9.23103L10.3273 9.1255ZM10.8467 3.15879C10.684 3.32151 10.4202 3.32151 10.2574 3.15879L11.3181 2.09813C10.895 1.67506 10.2091 1.67507 9.78603 2.09813L10.8467 3.15879ZM7.60365 6.40184L10.8467 3.15879L9.78603 2.09813L6.54299 5.34118L7.60365 6.40184ZM4.5477 7.30473C5.23664 6.72497 6.12094 6.49369 6.96779 6.61404L7.17885 5.12897C5.92536 4.95082 4.60929 5.29245 3.58189 6.15703L4.5477 7.30473ZM4.58515 6.66174C4.7349 6.81149 4.77575 7.11282 4.5477 7.30473L3.58189 6.15703C3.07213 6.586 3.11439 7.3123 3.52449 7.7224L4.58515 6.66174ZM9.53708 11.6137L4.58515 6.66174L3.52449 7.7224L8.47642 12.6743L9.53708 11.6137ZM8.8941 11.6511C9.086 11.4231 9.38733 11.4639 9.53708 11.6137L8.47642 12.6743C8.88652 13.0844 9.61282 13.1267 10.0418 12.6169L8.8941 11.6511ZM9.58478 9.23103C9.70513 10.0779 9.47385 10.9622 8.8941 11.6511L10.0418 12.6169C10.9064 11.5895 11.248 10.2735 11.0699 9.01997L9.58478 9.23103ZM13.04 5.35213L9.79699 8.59517L10.8576 9.65583L14.1007 6.41279L13.04 5.35213ZM13.04 5.94139C12.8773 5.77867 12.8773 5.51485 13.04 5.35213L14.1007 6.41279C14.5238 5.98972 14.5238 5.3038 14.1007 4.88073L13.04 5.94139ZM10.2574 3.15879L13.04 5.94139L14.1007 4.88073L11.3181 2.09813L10.2574 3.15879Z" fill="#233043"/>
<path d="M6.53638 9.67358L3.70795 12.502" stroke="#233043" stroke-width="1.5" stroke-linecap="round" stroke-linejoin="round"/>
</svg>
