<svg width="16" height="16" viewBox="0 0 16 16" fill="none" xmlns="http://www.w3.org/2000/svg">
<circle cx="8" cy="5.50006" r="1.75" stroke="#233043" stroke-width="1.5" stroke-linecap="round" stroke-linejoin="round"/>
<path d="M5 11.6667C5 10.194 6.19391 9.00006 7.66667 9.00006H8.33333C9.80609 9.00006 11 10.194 11 11.6667V11.6667C11 11.8508 10.8508 12.0001 10.6667 12.0001H5.33333C5.14924 12.0001 5 11.8508 5 11.6667V11.6667Z" stroke="#233043" stroke-width="1.5" stroke-linecap="round" stroke-linejoin="round"/>
<path d="M14 4.99988V2.33321C14 2.14912 13.8508 1.99988 13.6667 1.99988H11M5 1.99988H2.33333C2.14924 1.99988 2 2.14912 2 2.33321V4.99988M2 10.9999V13.6665C2 13.8506 2.14924 13.9999 2.33333 13.9999H5M11 13.9999H13.6667C13.8508 13.9999 14 13.8506 14 13.6665V10.9999" stroke="#233043" stroke-width="1.5" stroke-linecap="round" stroke-linejoin="round"/>
</svg>
