<svg width="16" height="16" viewBox="0 0 16 16" fill="none" xmlns="http://www.w3.org/2000/svg">
<path d="M2 10.2888C2 10.1047 2.14924 9.95544 2.33333 9.95544H4V13.5008H2.33333C2.14924 13.5008 2 13.3515 2 13.1674V10.2888Z" stroke="#233043" stroke-width="1.5" stroke-linecap="round"/>
<path d="M6.50439 8.54413L6.13469 7.89158V7.89158L6.50439 8.54413ZM4.16902 9.86726L4.53873 10.5198L4.53873 10.5198L4.16902 9.86726ZM6.99686 8.89266L7.73522 9.0243V9.0243L6.99686 8.89266ZM6.67976 10.6713L5.9414 10.5397C5.90244 10.7582 5.96226 10.9827 6.10476 11.1528C6.24727 11.323 6.45781 11.4213 6.67976 11.4213V10.6713ZM11.9331 11.2021L11.3289 10.7578V10.7578L11.9331 11.2021ZM10.3425 13.3649L9.73834 12.9206L9.73834 12.9206L10.3425 13.3649ZM6.13469 7.89158L3.79931 9.21471L4.53873 10.5198L6.8741 9.19668L6.13469 7.89158ZM7.73522 9.0243C7.89618 8.12148 6.93258 7.43953 6.13469 7.89158L6.8741 9.19668C6.56722 9.37054 6.1966 9.10826 6.25851 8.76102L7.73522 9.0243ZM7.41811 10.8029L7.73522 9.0243L6.25851 8.76102L5.9414 10.5397L7.41811 10.8029ZM6.67976 11.4213H11.6646V9.9213H6.67976V11.4213ZM11.6646 11.4213C11.323 11.4213 11.1266 11.0329 11.3289 10.7578L12.5373 11.6465C13.0635 10.9311 12.5526 9.9213 11.6646 9.9213V11.4213ZM11.3289 10.7578L9.73834 12.9206L10.9467 13.8093L12.5373 11.6465L11.3289 10.7578ZM9.73834 12.9206C9.81686 12.8138 9.94148 12.7508 10.074 12.7508V14.2508C10.4186 14.2508 10.7426 14.0868 10.9467 13.8093L9.73834 12.9206ZM10.074 12.7508H4.33333V14.2508H10.074V12.7508ZM4.33333 12.7508C4.56345 12.7508 4.75 12.9373 4.75 13.1674H3.25C3.25 13.7657 3.73503 14.2508 4.33333 14.2508V12.7508ZM4.75 13.1674V11.7518H3.25V13.1674H4.75ZM4.75 11.7518V11.0046H3.25V11.7518H4.75ZM3.25 10.1573V11.0046H4.75V10.1573H3.25ZM3.79931 9.21471C3.45983 9.40705 3.25 9.76709 3.25 10.1573H4.75C4.75 10.3073 4.6693 10.4458 4.53873 10.5198L3.79931 9.21471Z" fill="#233043"/>
<path d="M10.5 2.5L11.3817 4.28647L13.3532 4.57295L11.9266 5.96353L12.2634 7.92705L10.5 7L8.73664 7.92705L9.07342 5.96353L7.64683 4.57295L9.61832 4.28647L10.5 2.5Z" stroke="#233043" stroke-width="1.5" stroke-linecap="round" stroke-linejoin="round"/>
</svg>
