<svg width="16" height="16" viewBox="0 0 16 16" fill="none" xmlns="http://www.w3.org/2000/svg">
<path d="M5 7.89474L7.14286 10L11 6" stroke="#233043" stroke-width="1.5" stroke-linecap="round" stroke-linejoin="round"/>
<path d="M8 2C9.5913 2 11.1174 2.63214 12.2426 3.75736C13.3679 4.88258 14 6.4087 14 8C14 9.5913 13.3679 11.1174 12.2426 12.2426C11.1174 13.3679 9.5913 14 8 14" stroke="#233043" stroke-width="1.5" stroke-linecap="round" stroke-linejoin="round"/>
<path d="M4.94198 2.78261C5.19438 3.11104 5.13273 3.5819 4.80429 3.83429C4.44032 4.11398 4.11399 4.44032 3.83429 4.80429C3.5819 5.13273 3.11105 5.19437 2.78261 4.94198C2.45417 4.68959 2.39252 4.21874 2.64491 3.8903C3.00405 3.42296 3.42296 3.00404 3.8903 2.64491C4.21874 2.39252 4.68959 2.45417 4.94198 2.78261Z" fill="#233043"/>
<path d="M2.14772 6.47264C2.55846 6.52622 2.84799 6.90262 2.79441 7.31335C2.76514 7.53775 2.75 7.76692 2.75 8C2.75 8.23308 2.76514 8.46224 2.79441 8.68664C2.84799 9.09738 2.55846 9.47377 2.14772 9.52735C1.73699 9.58093 1.36059 9.2914 1.30701 8.88066C1.26937 8.5921 1.25 8.29812 1.25 8C1.25 7.70187 1.26937 7.4079 1.30701 7.11933C1.36059 6.7086 1.73699 6.41907 2.14772 6.47264Z" fill="#233043"/>
<path d="M2.78261 11.058C3.11105 10.8056 3.5819 10.8673 3.83429 11.1957C4.11399 11.5597 4.44033 11.886 4.80429 12.1657C5.13273 12.4181 5.19438 12.889 4.94199 13.2174C4.68959 13.5458 4.21874 13.6075 3.8903 13.3551C3.42296 12.996 3.00405 12.577 2.64491 12.1097C2.39252 11.7813 2.45417 11.3104 2.78261 11.058Z" fill="#233043"/>
</svg>
