<svg width="16" height="16" viewBox="0 0 16 16" fill="none" xmlns="http://www.w3.org/2000/svg">
<path fill-rule="evenodd" clip-rule="evenodd" d="M14.6667 8.6665C14.6667 11.9802 11.9804 14.6665 8.66666 14.6665C5.35295 14.6665 2.66666 11.9802 2.66666 8.6665C2.66666 5.3528 5.35295 2.6665 8.66666 2.6665C11.9804 2.6665 14.6667 5.3528 14.6667 8.6665ZM11.447 5.88636C11.7399 6.17925 11.7399 6.65412 11.447 6.94702L9.72733 8.66669L11.447 10.3864C11.7399 10.6793 11.7399 11.1541 11.447 11.447C11.1541 11.7399 10.6792 11.7399 10.3863 11.447L8.66667 9.72735L6.947 11.447C6.6541 11.7399 6.17923 11.7399 5.88634 11.447C5.59344 11.1541 5.59344 10.6793 5.88634 10.3864L7.60601 8.66669L5.88634 6.94702C5.59344 6.65412 5.59344 6.17925 5.88634 5.88636C6.17923 5.59346 6.6541 5.59346 6.947 5.88636L8.66667 7.60603L10.3863 5.88636C10.6792 5.59346 11.1541 5.59346 11.447 5.88636Z" fill="#233043"/>
</svg>
