<svg width="16" height="16" viewBox="0 0 16 16" fill="none" xmlns="http://www.w3.org/2000/svg">
<path fill-rule="evenodd" clip-rule="evenodd" d="M14 8C14 11.3137 11.3137 14 8 14C4.68629 14 2 11.3137 2 8C2 4.68629 4.68629 2 8 2C11.3137 2 14 4.68629 14 8ZM10.7803 5.21985C11.0732 5.51275 11.0732 5.98762 10.7803 6.28051L9.06067 8.00018L10.7803 9.71985C11.0732 10.0127 11.0732 10.4876 10.7803 10.7805C10.4874 11.0734 10.0126 11.0734 9.71968 10.7805L8.00001 9.06084L6.28034 10.7805C5.98745 11.0734 5.51257 11.0734 5.21968 10.7805C4.92679 10.4876 4.92679 10.0127 5.21968 9.71985L6.93935 8.00018L5.21968 6.28051C4.92679 5.98762 4.92679 5.51275 5.21968 5.21985C5.51257 4.92696 5.98745 4.92696 6.28034 5.21985L8.00001 6.93952L9.71968 5.21985C10.0126 4.92696 10.4874 4.92696 10.7803 5.21985Z" fill="#233043"/>
</svg>
