<svg width="16" height="16" viewBox="0 0 16 16" fill="none" xmlns="http://www.w3.org/2000/svg">
<g id="16px/Reviews">
<path id="Union" fill-rule="evenodd" clip-rule="evenodd" d="M4.40189 4.59623H4.91072L4.91065 4.6079C4.90966 4.79445 4.98307 4.9737 5.11463 5.10596C5.24619 5.23822 5.42504 5.31258 5.61159 5.31258H10.3802C10.7658 5.31258 11.0791 5.00103 11.0811 4.61537L11.0812 4.59623H11.5981V12.7478H4.40189V4.59623ZM12.2991 3.19434H10.6825C10.2267 2.47664 9.42486 2 8.51118 2H7.48103C6.568 2 5.76571 2.47623 5.30975 3.19434H3.70095C3.31382 3.19434 3 3.50816 3 3.89528V13.4487C3 13.8359 3.31382 14.1497 3.70095 14.1497H12.2991C12.6862 14.1497 13 13.8359 13 13.4487V3.89528C13 3.50816 12.6862 3.19434 12.2991 3.19434ZM6.51657 3.91069H9.47563C9.26521 3.60354 8.91185 3.40189 8.51118 3.40189H7.48103C7.08064 3.40189 6.7271 3.60338 6.51657 3.91069ZM8.67256 6.42931C8.54621 6.1733 8.28549 6.01123 8.00001 6.01123C7.71452 6.01123 7.4538 6.1733 7.32745 6.42931L6.80003 7.49797L5.62069 7.66934C5.33817 7.71039 5.10346 7.90828 5.01525 8.17979C4.92703 8.45129 5.0006 8.74934 5.20503 8.94861L6.05841 9.78046L5.85696 10.955C5.8087 11.2364 5.92436 11.5208 6.15532 11.6886C6.38628 11.8564 6.69248 11.8785 6.94517 11.7457L8.00001 11.1911L9.05484 11.7457C9.30753 11.8785 9.61373 11.8564 9.84469 11.6886C10.0756 11.5208 10.1913 11.2364 10.1431 10.955L9.9416 9.78046L10.795 8.94861C10.9994 8.74934 11.073 8.45129 10.9848 8.17979C10.8965 7.90828 10.6618 7.71039 10.3793 7.66934L9.19998 7.49797L8.67256 6.42931ZM7.97064 8.5154L8.00001 8.45589L8.02938 8.5154C8.13862 8.73676 8.3498 8.89019 8.59408 8.92569L8.65975 8.93523L8.61223 8.98155C8.43547 9.15385 8.3548 9.4021 8.39653 9.6454L8.40775 9.71081L8.34901 9.67993C8.13052 9.56506 7.86949 9.56506 7.651 9.67993L7.59226 9.71081L7.60348 9.6454C7.64521 9.4021 7.56454 9.15385 7.38778 8.98155L7.34026 8.93523L7.40593 8.92569C7.65021 8.89019 7.86139 8.73676 7.97064 8.5154Z" fill="#233043"/>
</g>
</svg>
