<svg width="16" height="16" viewBox="0 0 16 16" fill="none" xmlns="http://www.w3.org/2000/svg">
<path d="M6.60558 9.50566C6.60558 9.50566 6.60558 10.5515 8 10.5515C8.09035 10.5515 9.39442 10.5515 9.39442 9.15705C9.39442 7.76262 8 7.76263 8 7.76263C8 7.76263 6.84278 7.76264 6.84278 6.60544C6.84278 5.44824 7.925 5.44824 7.99998 5.44824C8.64332 5.44824 8.929 5.71649 9.05586 5.95473" stroke="#233043" stroke-width="1.5" stroke-linecap="round" stroke-linejoin="round"/>
<path d="M2.5 14H13.5C13.7761 14 14 13.7761 14 13.5V2.5C14 2.22386 13.7761 2 13.5 2H2.5C2.22386 2 2 2.22386 2 2.5V13.5C2 13.7761 2.22386 14 2.5 14Z" stroke="#233043" stroke-width="1.5" stroke-linecap="round" stroke-linejoin="round"/>
</svg>
