<svg width="16" height="16" viewBox="0 0 16 16" fill="none" xmlns="http://www.w3.org/2000/svg">
<path d="M6.60559 9.50578C6.60559 9.50578 6.60559 10.5516 8.00001 10.5516C8.09036 10.5516 9.39444 10.5516 9.39444 9.15717C9.39444 7.76275 8.00001 7.76275 8.00001 7.76275C8.00001 7.76275 6.84279 7.76276 6.84279 6.60556C6.84279 5.44836 7.92502 5.44836 7.99999 5.44836C8.64334 5.44836 8.92902 5.71662 9.05587 5.95485" stroke="#233043" stroke-width="1.5" stroke-linecap="round" stroke-linejoin="round"/>
<path d="M2.5 14H13.5C13.7761 14 14 13.7761 14 13.5V2.5C14 2.22386 13.7761 2 13.5 2H2.5C2.22386 2 2 2.22386 2 2.5V13.5C2 13.7761 2.22386 14 2.5 14Z" stroke="#233043" stroke-width="1.5" stroke-linecap="round" stroke-linejoin="round"/>
</svg>
