<svg width="16" height="16" viewBox="0 0 16 16" fill="none" xmlns="http://www.w3.org/2000/svg">
<path fill-rule="evenodd" clip-rule="evenodd" d="M6.45688 3.59453C6.59755 3.54526 6.71486 3.4431 6.77358 3.3061L7.20346 2.30304C7.28225 2.1192 7.46302 2 7.66303 2H8.33697C8.53698 2 8.71775 2.1192 8.79654 2.30304L9.22642 3.3061C9.28514 3.4431 9.40245 3.54526 9.54312 3.59453C9.70767 3.65216 9.86801 3.71875 10.0236 3.79372C10.1579 3.85846 10.3132 3.86921 10.4516 3.81383L11.4651 3.40843C11.6508 3.33415 11.8629 3.37768 12.0044 3.51912L12.4809 3.99566C12.6223 4.13709 12.6659 4.3492 12.5916 4.53491L12.1862 5.54839C12.1308 5.68685 12.1416 5.84211 12.2063 5.97645C12.2813 6.132 12.3479 6.29234 12.4055 6.4569C12.4548 6.59757 12.5569 6.71489 12.6939 6.7736L13.697 7.20347C13.8808 7.28226 14 7.46303 14 7.66304V8.33698C14 8.53699 13.8808 8.71776 13.697 8.79655L12.6939 9.22642C12.5569 9.28513 12.4548 9.40245 12.4055 9.54312C12.3479 9.70768 12.2813 9.86803 12.2063 10.0236C12.1416 10.1579 12.1308 10.3132 12.1862 10.4516L12.5916 11.4651C12.6659 11.6508 12.6223 11.8629 12.4809 12.0044L12.0044 12.4809C11.8629 12.6223 11.6508 12.6659 11.4651 12.5916L10.4517 12.1862C10.3132 12.1308 10.1579 12.1416 10.0236 12.2063C9.86804 12.2813 9.70768 12.3479 9.5431 12.4055C9.40243 12.4548 9.28512 12.557 9.2264 12.694L8.79654 13.697C8.71775 13.8808 8.53698 14 8.33697 14H7.66303C7.46302 14 7.28225 13.8808 7.20346 13.697L6.7736 12.694C6.71488 12.557 6.59757 12.4548 6.4569 12.4055C6.29229 12.3479 6.1319 12.2813 5.9763 12.2063C5.84196 12.1415 5.68669 12.1308 5.54823 12.1862L4.53492 12.5915C4.34922 12.6658 4.13711 12.6222 3.99568 12.4808L3.51913 12.0042C3.3777 11.8628 3.33416 11.6507 3.40844 11.465L3.81379 10.4516C3.86917 10.3132 3.85843 10.1579 3.79369 10.0236C3.71872 9.86802 3.65213 9.70768 3.59449 9.54312C3.54522 9.40245 3.44306 9.28513 3.30606 9.22642L2.30304 8.79655C2.1192 8.71776 2 8.53699 2 8.33698V7.66304C2 7.46303 2.1192 7.28226 2.30304 7.20347L3.30607 6.7736C3.44307 6.71489 3.54523 6.59757 3.5945 6.4569C3.65214 6.29235 3.71873 6.13201 3.7937 5.97646C3.85844 5.84213 3.86918 5.68686 3.8138 5.54841L3.40844 4.53502C3.33416 4.34931 3.3777 4.1372 3.51913 3.99577L3.99568 3.51922C4.13711 3.37779 4.34922 3.33425 4.53492 3.40854L5.54828 3.81388C5.68674 3.86926 5.84201 3.85852 5.97635 3.79377C6.13192 3.71878 6.29229 3.65217 6.45688 3.59453ZM8 10.2667C9.25185 10.2667 10.2667 9.25185 10.2667 8.00001C10.2667 6.74816 9.25185 5.73334 8 5.73334C6.74815 5.73334 5.73333 6.74816 5.73333 8.00001C5.73333 9.25185 6.74815 10.2667 8 10.2667Z" fill="#233043"/>
</svg>
