<svg width="16" height="16" viewBox="0 0 16 16" fill="none" xmlns="http://www.w3.org/2000/svg">
<path d="M6.68089 3.52238L6.89252 4.2419C7.10701 4.17881 7.28217 4.02332 7.37024 3.81782L6.68089 3.52238ZM7.33333 2V1.25C7.03331 1.25 6.76216 1.4288 6.64397 1.70456L7.33333 2ZM5.76694 3.90129L5.48839 4.59765C5.69608 4.68072 5.93001 4.66676 6.12634 4.55957L5.76694 3.90129ZM4.22881 3.28604L4.50735 2.58968C4.22879 2.47825 3.91062 2.54356 3.69848 2.75571L4.22881 3.28604ZM3.286 4.22885L2.75567 3.69852C2.54352 3.91066 2.47822 4.22883 2.58964 4.50739L3.286 4.22885ZM3.90126 5.76699L4.55954 6.12639C4.66673 5.93006 4.68069 5.69613 4.59761 5.48845L3.90126 5.76699ZM3.52238 6.68089L3.81782 7.37024C4.02332 7.28217 4.17881 7.10701 4.2419 6.89252L3.52238 6.68089ZM2 7.33333L1.70456 6.64397C1.4288 6.76216 1.25 7.03331 1.25 7.33333H2ZM2 8.66667H1.25C1.25 8.96669 1.4288 9.23784 1.70456 9.35603L2 8.66667ZM3.52238 9.31911L4.2419 9.10748C4.17881 8.89299 4.02332 8.71783 3.81782 8.62976L3.52238 9.31911ZM3.90126 10.233L4.59761 10.5116C4.68069 10.3039 4.66673 10.0699 4.55954 9.87361L3.90126 10.233ZM3.286 11.7712L2.58964 11.4926C2.47822 11.7712 2.54352 12.0893 2.75567 12.3015L3.286 11.7712ZM4.22881 12.714L3.69848 13.2443C3.91062 13.4564 4.22879 13.5217 4.50735 13.4103L4.22881 12.714ZM5.76694 12.0987L6.12634 11.4404C5.93001 11.3332 5.69608 11.3193 5.48839 11.4024L5.76694 12.0987ZM6.68088 12.4776L7.37024 12.1822C7.28217 11.9767 7.10701 11.8212 6.89252 11.7581L6.68088 12.4776ZM7.33333 14L6.64397 14.2954C6.76216 14.5712 7.03331 14.75 7.33333 14.75V14ZM8.66667 14V14.75C8.96669 14.75 9.23784 14.5712 9.35603 14.2954L8.66667 14ZM9.31912 12.4776L9.10748 11.7581C8.89299 11.8212 8.71783 11.9767 8.62976 12.1822L9.31912 12.4776ZM10.233 12.0987L10.5116 11.4024C10.3039 11.3193 10.07 11.3333 9.87365 11.4404L10.233 12.0987ZM11.7713 12.714L11.4927 13.4104C11.7713 13.5218 12.0894 13.4565 12.3016 13.2443L11.7713 12.714ZM12.7141 11.7712L13.2444 12.3015C13.4565 12.0894 13.5218 11.7712 13.4104 11.4927L12.7141 11.7712ZM12.0988 10.233L11.4405 9.87357C11.3333 10.0699 11.3193 10.3038 11.4024 10.5115L12.0988 10.233ZM12.4776 9.31912L12.1822 8.62976C11.9767 8.71783 11.8212 8.89299 11.7581 9.10748L12.4776 9.31912ZM14 8.66667L14.2954 9.35603C14.5712 9.23784 14.75 8.96669 14.75 8.66667H14ZM14 7.33333H14.75C14.75 7.03331 14.5712 6.76216 14.2954 6.64397L14 7.33333ZM12.4776 6.68088L11.7581 6.89252C11.8212 7.10701 11.9767 7.28217 12.1822 7.37024L12.4776 6.68088ZM12.0988 5.76704L11.4024 5.4885C11.3193 5.69618 11.3333 5.9301 11.4405 6.12643L12.0988 5.76704ZM12.7141 4.22881L13.4104 4.50735C13.5218 4.22879 13.4565 3.91062 13.2444 3.69848L12.7141 4.22881ZM11.7713 3.286L12.3016 2.75567C12.0894 2.54352 11.7713 2.47822 11.4927 2.58964L11.7713 3.286ZM10.233 3.90128L9.87365 4.55956C10.07 4.66675 10.3039 4.68071 10.5116 4.59764L10.233 3.90128ZM9.31911 3.52238L8.62976 3.81782C8.71783 4.02332 8.89299 4.17881 9.10748 4.2419L9.31911 3.52238ZM8.66667 2L9.35603 1.70456C9.23784 1.4288 8.96669 1.25 8.66667 1.25V2ZM7.37024 3.81782L8.02269 2.29544L6.64397 1.70456L5.99153 3.22694L7.37024 3.81782ZM6.12634 4.55957C6.36763 4.42782 6.62414 4.32084 6.89252 4.2419L6.46925 2.80286C6.09701 2.91235 5.74152 3.06066 5.40753 3.24301L6.12634 4.55957ZM3.95026 3.98239L5.48839 4.59765L6.04548 3.20493L4.50735 2.58968L3.95026 3.98239ZM3.81633 4.75918L4.75914 3.81637L3.69848 2.75571L2.75567 3.69852L3.81633 4.75918ZM4.59761 5.48845L3.98236 3.9503L2.58964 4.50739L3.2049 6.04554L4.59761 5.48845ZM4.2419 6.89252C4.32083 6.62416 4.42781 6.36767 4.55954 6.12639L3.24297 5.4076C3.06064 5.74157 2.91234 6.09703 2.80286 6.46925L4.2419 6.89252ZM2.29544 8.02269L3.81782 7.37024L3.22694 5.99153L1.70456 6.64397L2.29544 8.02269ZM2.75 8.66667V7.33333H1.25V8.66667H2.75ZM3.81782 8.62976L2.29544 7.97731L1.70456 9.35603L3.22694 10.0085L3.81782 8.62976ZM4.55954 9.87361C4.42781 9.63233 4.32083 9.37584 4.2419 9.10748L2.80286 9.53075C2.91234 9.90297 3.06064 10.2584 3.24297 10.5924L4.55954 9.87361ZM3.98236 12.0497L4.59761 10.5116L3.2049 9.95446L2.58964 11.4926L3.98236 12.0497ZM4.75914 12.1836L3.81633 11.2408L2.75567 12.3015L3.69848 13.2443L4.75914 12.1836ZM5.48839 11.4024L3.95026 12.0176L4.50735 13.4103L6.04548 12.7951L5.48839 11.4024ZM6.89252 11.7581C6.62414 11.6792 6.36763 11.5722 6.12634 11.4404L5.40753 12.757C5.74152 12.9393 6.09701 13.0877 6.46925 13.1971L6.89252 11.7581ZM8.02269 13.7046L7.37024 12.1822L5.99153 12.7731L6.64397 14.2954L8.02269 13.7046ZM8.66667 13.25H7.33333V14.75H8.66667V13.25ZM8.62976 12.1822L7.97731 13.7046L9.35603 14.2954L10.0085 12.7731L8.62976 12.1822ZM9.87365 11.4404C9.63236 11.5722 9.37585 11.6792 9.10748 11.7581L9.53075 13.1971C9.90299 13.0877 10.2585 12.9393 10.5924 12.757L9.87365 11.4404ZM12.0498 12.0176L10.5116 11.4024L9.9545 12.7951L11.4927 13.4104L12.0498 12.0176ZM12.1837 11.2409L11.2409 12.1837L12.3016 13.2443L13.2444 12.3015L12.1837 11.2409ZM11.4024 10.5115L12.0177 12.0497L13.4104 11.4927L12.7951 9.95442L11.4024 10.5115ZM11.7581 9.10748C11.6792 9.37583 11.5722 9.6323 11.4405 9.87357L12.7571 10.5923C12.9394 10.2584 13.0877 9.90295 13.1971 9.53075L11.7581 9.10748ZM13.7046 7.97731L12.1822 8.62976L12.7731 10.0085L14.2954 9.35603L13.7046 7.97731ZM13.25 7.33333V8.66667H14.75V7.33333H13.25ZM12.1822 7.37024L13.7046 8.02269L14.2954 6.64397L12.7731 5.99153L12.1822 7.37024ZM11.4405 6.12643C11.5722 6.36769 11.6792 6.62417 11.7581 6.89252L13.1971 6.46925C13.0877 6.09705 12.9394 5.74161 12.7571 5.40765L11.4405 6.12643ZM12.0177 3.95026L11.4024 5.4885L12.7951 6.04558L13.4104 4.50735L12.0177 3.95026ZM11.2409 3.81633L12.1837 4.75914L13.2444 3.69848L12.3016 2.75567L11.2409 3.81633ZM10.5116 4.59764L12.0498 3.98236L11.4927 2.58964L9.95451 3.20492L10.5116 4.59764ZM9.10748 4.2419C9.37585 4.32084 9.63236 4.42782 9.87365 4.55956L10.5925 3.243C10.2585 3.06065 9.90299 2.91234 9.53075 2.80286L9.10748 4.2419ZM7.97731 2.29544L8.62976 3.81782L10.0085 3.22694L9.35603 1.70456L7.97731 2.29544ZM7.33333 2.75H8.66667V1.25H7.33333V2.75Z" fill="#233043"/>
<circle cx="7.875" cy="7.875" r="2" stroke="#233043" stroke-width="1.5"/>
</svg>
