<svg width="24" height="24" viewBox="0 0 24 24" fill="none" xmlns="http://www.w3.org/2000/svg">
<path d="M16.4007 19.7134H18.9505C19.6409 19.7134 20.2005 19.1538 20.2005 18.4634V17.899C20.2005 15.2757 18.0739 13.149 15.4505 13.149H14.5127C15.8518 14.2954 16.7005 15.9981 16.7005 17.899V18.4634C16.7005 18.9135 16.5924 19.3384 16.4007 19.7134Z" fill="#233043"/>
<path d="M13.2849 11.9598C13.6342 12.0619 14.0038 12.1168 14.3861 12.1168C16.5485 12.1168 18.3014 10.3639 18.3014 8.20154C18.3014 6.03922 16.5485 4.28632 14.3861 4.28632C14.0038 4.28632 13.6342 4.34112 13.2849 4.44331C14.2239 5.41717 14.8014 6.74191 14.8014 8.20154C14.8014 9.66116 14.2239 10.9859 13.2849 11.9598Z" fill="#233043"/>
<circle cx="9.38617" cy="8.20154" r="3.16522" stroke="#233043" stroke-width="1.5" stroke-linecap="round" stroke-linejoin="round"/>
<path d="M4.32178 17.899C4.32178 15.6899 6.11264 13.899 8.32178 13.899H10.4505C12.6596 13.899 14.4505 15.6899 14.4505 17.899V18.4634C14.4505 18.7395 14.2266 18.9634 13.9505 18.9634H4.82178C4.54564 18.9634 4.32178 18.7395 4.32178 18.4634V17.899Z" stroke="#233043" stroke-width="1.5" stroke-linecap="round" stroke-linejoin="round"/>
</svg>
