<svg width="16" height="16" viewBox="0 0 16 16" fill="none" xmlns="http://www.w3.org/2000/svg">
<circle cx="5.50139" cy="5.1884" r="2.1884" stroke="#233043" stroke-width="1.5" stroke-linecap="round" stroke-linejoin="round"/>
<path d="M2 12.2402C2 10.5213 3.39347 9.12781 5.11239 9.12781H5.89049C7.60942 9.12781 9.00288 10.5213 9.00288 12.2402V12.2402C9.00288 12.4551 8.8287 12.6292 8.61383 12.6292H2.38905C2.17418 12.6292 2 12.4551 2 12.2402V12.2402Z" stroke="#233043" stroke-width="1.5" stroke-linecap="round" stroke-linejoin="round"/>
<path fill-rule="evenodd" clip-rule="evenodd" d="M8.12231 7.78369C8.78229 7.11726 9.18988 6.20043 9.18988 5.1884C9.18988 4.17637 8.78229 3.25954 8.12231 2.59311C8.53357 2.37411 9.00303 2.25 9.50148 2.25C11.1243 2.25 12.4399 3.56557 12.4399 5.1884C12.4399 6.81123 11.1243 8.1268 9.50148 8.1268C9.00303 8.1268 8.53357 8.00269 8.12231 7.78369Z" fill="#233043"/>
<path fill-rule="evenodd" clip-rule="evenodd" d="M10.121 13.3792C10.3607 13.0626 10.5029 12.668 10.5029 12.2402C10.5029 10.6561 9.70433 9.25851 8.48779 8.42805C8.69111 8.39499 8.89976 8.37781 9.11242 8.37781H9.89052C12.0237 8.37781 13.7529 10.1071 13.7529 12.2402C13.7529 12.8693 13.2429 13.3792 12.6139 13.3792H10.121Z" fill="#233043"/>
</svg>
