<svg width="16" height="16" viewBox="0 0 16 16" fill="none" xmlns="http://www.w3.org/2000/svg">
<path fill-rule="evenodd" clip-rule="evenodd" d="M7.46968 13.4697C7.17678 13.7626 7.17678 14.2374 7.46968 14.5303C7.76257 14.8232 8.23744 14.8232 8.53034 14.5303L14.4125 8.64818C14.4334 8.62726 14.4531 8.60557 14.4716 8.58322C14.6414 8.44572 14.75 8.23554 14.75 8C14.75 7.76446 14.6414 7.55428 14.4716 7.41678C14.4531 7.39443 14.4334 7.37274 14.4125 7.35182L8.53034 1.46967C8.23744 1.17678 7.76257 1.17678 7.46968 1.46967C7.17678 1.76256 7.17678 2.23744 7.46968 2.53033L12.1893 7.25H2C1.58579 7.25 1.25 7.58579 1.25 8C1.25 8.41421 1.58579 8.75 2 8.75H12.1893L7.46968 13.4697Z" fill="#233043"/>
</svg>
