<svg width="16" height="16" viewBox="0 0 16 16" fill="none" xmlns="http://www.w3.org/2000/svg">
<path fill-rule="evenodd" clip-rule="evenodd" d="M8.53039 2.53033C8.82328 2.23744 8.82328 1.76256 8.53039 1.46967C8.23749 1.17678 7.76262 1.17678 7.46973 1.46967L1.58758 7.35182C1.5667 7.3727 1.54704 7.39433 1.5286 7.41663C1.35866 7.55413 1.25 7.76438 1.25 8C1.25 8.23562 1.35866 8.44587 1.5286 8.58337C1.54704 8.60567 1.5667 8.6273 1.58758 8.64818L7.46973 14.5303C7.76262 14.8232 8.23749 14.8232 8.53039 14.5303C8.82328 14.2374 8.82328 13.7626 8.53039 13.4697L3.81072 8.75H14C14.4142 8.75 14.75 8.41421 14.75 8C14.75 7.58579 14.4142 7.25 14 7.25H3.81072L8.53039 2.53033Z" fill="#233043"/>
</svg>
