<svg width="16" height="16" viewBox="0 0 16 16" fill="none" xmlns="http://www.w3.org/2000/svg">
<path d="M11.75 9.75C11.75 9.33579 11.4142 9 11 9C10.5858 9 10.25 9.33579 10.25 9.75L10.25 10.75H9.25C8.83579 10.75 8.5 11.0858 8.5 11.5C8.5 11.9142 8.83579 12.25 9.25 12.25H10.25L10.25 13.25C10.25 13.6642 10.5858 14 11 14C11.4142 14 11.75 13.6642 11.75 13.25V12.25H12.75C13.1642 12.25 13.5 11.9142 13.5 11.5C13.5 11.0858 13.1642 10.75 12.75 10.75H11.75V9.75Z" fill="#233043"/>
<path d="M13.25 2.75C13.25 2.33579 12.9142 2 12.5 2C12.0858 2 11.75 2.33579 11.75 2.75L11.75 3.75H10.75C10.3358 3.75 10 4.08579 10 4.5C10 4.91421 10.3358 5.25 10.75 5.25H11.75L11.75 6.25C11.75 6.66421 12.0858 7 12.5 7C12.9142 7 13.25 6.66421 13.25 6.25V5.25H14.25C14.6642 5.25 15 4.91421 15 4.5C15 4.08579 14.6642 3.75 14.25 3.75H13.25V2.75Z" fill="#233043"/>
<path fill-rule="evenodd" clip-rule="evenodd" d="M5.75 2C6.03677 2 6.29114 2.18373 6.38074 2.45558L7.38937 5.51583L10.0912 6.63827C10.3387 6.7411 10.5 6.98242 10.5 7.25C10.5 7.51758 10.3387 7.7589 10.0912 7.86173L7.38937 8.98417L6.38074 12.0444C6.29114 12.3163 6.03677 12.5 5.75 12.5C5.46323 12.5 5.20887 12.3163 5.11927 12.0444L4.11063 8.98417L1.4088 7.86173C1.16127 7.7589 1 7.51758 1 7.25C1 6.98242 1.16127 6.7411 1.4088 6.63827L4.11063 5.51583L5.11927 2.45558C5.20887 2.18373 5.46323 2 5.75 2ZM5.75 4.78334L5.27714 6.21803C5.21684 6.40099 5.07975 6.54871 4.90158 6.62272L3.39166 7.25L4.90158 7.87728C5.07975 7.9513 5.21684 8.09902 5.27714 8.28197L5.75 9.71666L6.22286 8.28197C6.28316 8.09902 6.42025 7.9513 6.59842 7.87728L8.10834 7.25L6.59842 6.62272C6.42025 6.54871 6.28316 6.40099 6.22286 6.21803L5.75 4.78334Z" fill="#233043"/>
</svg>
