<svg width="16" height="16" viewBox="0 0 16 16" fill="none" xmlns="http://www.w3.org/2000/svg">
<path fill-rule="evenodd" clip-rule="evenodd" d="M4.83452 2.19272C5.61631 2.39147 6.52172 2.78001 7.25124 3.49925C7.99282 4.23037 8.38059 5.13805 8.57308 5.91641C8.62717 6.13512 8.6673 6.34961 8.69555 6.55419C8.71324 6.53561 8.73114 6.51713 8.74925 6.49876C9.48037 5.75718 10.3881 5.36941 11.1664 5.17692C11.9348 4.9869 12.6512 4.96906 13.0683 5.03411C13.4675 5.09638 13.7904 5.38713 13.8924 5.78084C14.0848 6.52298 14.2077 8.5429 12.5265 10.2481C11.7999 10.9852 10.8784 11.373 10.0879 11.5673C9.60454 11.6861 9.1381 11.7402 8.75 11.7488V13.25C8.75 13.6642 8.41421 14 8 14C7.58579 14 7.25 13.6642 7.25 13.25L7.25 8.74427C6.28995 8.79213 4.80415 8.56042 3.50188 7.27651C2.76484 6.54986 2.37699 5.62843 2.18272 4.83786C1.9905 4.05567 1.96744 3.31769 2.03325 2.88443C2.10154 2.43488 2.45408 2.09555 2.89239 2.03083C3.33293 1.96578 4.06239 1.99643 4.83452 2.19272ZM3.56197 3.56345C3.57372 3.8091 3.61115 4.12318 3.6954 4.46605C3.84685 5.08234 4.12933 5.70755 4.59543 6.16708C5.53247 7.09091 6.5874 7.2232 7.19 7.18892C7.18126 6.95067 7.14662 6.63691 7.06094 6.29045C6.91385 5.69563 6.6343 5.07858 6.15769 4.60868C5.68406 4.14174 5.05834 3.85704 4.45077 3.70258C4.11246 3.61657 3.80393 3.57695 3.56197 3.56345ZM9.71605 10.0546C9.37318 10.1389 9.0591 10.1763 8.81345 10.188C8.82695 9.94607 8.86657 9.63754 8.95258 9.29923C9.10704 8.69166 9.39174 8.06594 9.85868 7.59231C10.3286 7.1157 10.9456 6.83615 11.5404 6.68906C11.8869 6.60338 12.2007 6.56874 12.4389 6.56C12.4732 7.1626 12.3409 8.21753 11.4171 9.15457C10.9575 9.62067 10.3323 9.90315 9.71605 10.0546Z" fill="#233043"/>
</svg>
