<svg width="16" height="16" viewBox="0 0 16 16" fill="none" xmlns="http://www.w3.org/2000/svg">
<path fill-rule="evenodd" clip-rule="evenodd" d="M8.67255 2.16808C8.54621 1.91207 8.28548 1.75 8 1.75C7.71452 1.75 7.45379 1.91207 7.32745 2.16808L5.7386 5.38744L2.18581 5.90369C1.9033 5.94474 1.66859 6.14263 1.58037 6.41413C1.49215 6.68564 1.56572 6.98369 1.77015 7.18296L4.34097 9.68889L3.73408 13.2273C3.68582 13.5087 3.80149 13.7931 4.03245 13.9609C4.26341 14.1287 4.56961 14.1508 4.8223 14.018L8 12.3473L11.1777 14.018C11.4304 14.1508 11.7366 14.1287 11.9676 13.9609C12.1985 13.7931 12.3142 13.5087 12.2659 13.2273L11.659 9.68889L14.2298 7.18296C14.4343 6.98369 14.5079 6.68564 14.4196 6.41413C14.3314 6.14263 14.0967 5.94474 13.8142 5.90369L10.2614 5.38744L8.67255 2.16808Z" fill="#233043"/>
</svg>
