<svg width="16" height="16" viewBox="0 0 16 16" fill="none" xmlns="http://www.w3.org/2000/svg">
<path fill-rule="evenodd" clip-rule="evenodd" d="M8 14C11.3137 14 14 11.3137 14 8C14 4.68629 11.3137 2 8 2C4.68629 2 2 4.68629 2 8C2 11.3137 4.68629 14 8 14ZM6.12436 4.43658C5.71015 4.43658 5.37436 4.77237 5.37436 5.18658H6.12436L5.37436 5.1866V5.18665V5.18673V5.18685V5.187V5.18718V5.18739V5.18764V5.18792V5.18823V5.18857V5.18894V5.18935V5.18979V5.19026V5.19076V5.1913V5.19186V5.19246V5.19309V5.19375V5.19444V5.19517V5.19592V5.1967V5.19752V5.19837V5.19924V5.20015V5.20109V5.20206V5.20306V5.20409V5.20515V5.20624V5.20736V5.20851V5.20969V5.2109V5.21213V5.2134V5.2147V5.21603V5.21738V5.21877V5.22018V5.22163V5.2231V5.2246V5.22613V5.22769V5.22928V5.2309V5.23254V5.23421V5.23591V5.23764V5.2394V5.24118V5.243V5.24484V5.24671V5.2486V5.25053V5.25248V5.25445V5.25646V5.25849V5.26055V5.26264V5.26475V5.26689V5.26906V5.27125V5.27347V5.27572V5.27799V5.28029V5.28261V5.28497V5.28734V5.28975V5.29218V5.29463V5.29711V5.29962V5.30215V5.3047V5.30728V5.30989V5.31252V5.31518V5.31786V5.32057V5.3233V5.32606V5.32884V5.33164V5.33447V5.33732V5.3402V5.3431V5.34603V5.34898V5.35195V5.35495V5.35797V5.36102V5.36408V5.36718V5.37029V5.37343V5.37659V5.37977V5.38298V5.38621V5.38946V5.39274V5.39604V5.39936V5.4027V5.40606V5.40945V5.41286V5.41629V5.41974V5.42322V5.42672V5.43024V5.43378V5.43734V5.44092V5.44452V5.44815V5.4518V5.45547V5.45915V5.46286V5.46659V5.47035V5.47412V5.47791V5.48172V5.48556V5.48941V5.49328V5.49718V5.50109V5.50502V5.50898V5.51295V5.51694V5.52095V5.52499V5.52904V5.53311V5.5372V5.5413V5.54543V5.54958V5.55374V5.55793V5.56213V5.56635V5.57059V5.57485V5.57912V5.58342V5.58773V5.59206V5.59641V5.60078V5.60516V5.60956V5.61398V5.61842V5.62287V5.62734V5.63183V5.63634V5.64086V5.6454V5.64996V5.65453V5.65912V5.66373V5.66835V5.67299V5.67764V5.68232V5.687V5.69171V5.69643V5.70116V5.70592V5.71068V5.71547V5.72026V5.72508V5.72991V5.73475V5.73961V5.74449V5.74938V5.75428V5.7592V5.76413V5.76908V5.77405V5.77902V5.78402V5.78902V5.79404V5.79908V5.80412V5.80919V5.81426V5.81935V5.82446V5.82957V5.8347V5.83985V5.84501V5.85018V5.85536V5.86056V5.86576V5.87099V5.87622V5.88147V5.88673V5.892V5.89729V5.90258V5.90789V5.91321V5.91855V5.92389V5.92925V5.93462V5.94V5.94539V5.9508V5.95621V5.96164V5.96708V5.97252V5.97798V5.98346V5.98894V5.99443V5.99993V6.00545V6.01097V6.0165V6.02205V6.02761V6.03317V6.03875V6.04433V6.04993V6.05553V6.06115V6.06677V6.0724V6.07805V6.0837V6.08936V6.09503V6.10071V6.1064V6.1121V6.11781V6.12352V6.12924V6.13498V6.14072V6.14647V6.15222V6.15799V6.16376V6.16955V6.17534V6.18113V6.18694V6.19275V6.19857V6.2044V6.21023V6.21608V6.22193V6.22778V6.23365V6.23952V6.2454V6.25128V6.25717V6.26307V6.26897V6.27488V6.2808V6.28672V6.29265V6.29859V6.30453V6.31047V6.31643V6.32238V6.32835V6.33432V6.34029V6.34627V6.35226V6.35825V6.36424V6.37024V6.37625V6.38226V6.38827V6.39429V6.40032V6.40634V6.41238V6.41841V6.42446V6.4305V6.43655V6.4426V6.44866V6.45472V6.46078V6.46685V6.47292V6.47899V6.48507V6.49115V6.49724V6.50332V6.50941V6.5155V6.5216V6.5277V6.5338V6.5399V6.54601V6.55211V6.55822V6.56433V6.57045V6.57656V6.58268V6.5888V6.59492V6.60104V6.60717V6.61329V6.61942V6.62555V6.63167V6.6378V6.64393V6.65007V6.6562V6.66233V6.66846V6.6746V6.68073V6.68687V6.693V6.69914V6.70527V6.71141V6.71754V6.72368V6.72981V6.73594V6.74208V6.74821V6.75434V6.76047V6.7666V6.77273V6.77886V6.78499V6.79111V6.79724V6.80336V6.80948V6.8156V6.82172V6.82784V6.83395V6.84007V6.84618V6.85229V6.85839V6.8645V6.8706V6.8767V6.8828V6.88889V6.89498V6.90107V6.90716V6.91324V6.91932V6.9254V6.93147V6.93754V6.94361V6.94967V6.95573V6.96178V6.96784V6.97388V6.97993V6.98597V6.992V6.99803V7.00406V7.01008V7.0161V7.02211V7.02812V7.03413V7.04013V7.04612V7.05211V7.05809V7.06407V7.07004V7.07601V7.08197V7.08793V7.09388V7.09983V7.10577V7.1117V7.11763V7.12355V7.12946V7.13537V7.14127V7.14717V7.15306V7.15894V7.16482V7.17069V7.17655V7.1824V7.18825V7.19409V7.19992V7.20575V7.21157V7.21738V7.22318V7.22898V7.23476V7.24054V7.24632V7.25208V7.25783V7.26358V7.26932V7.27505V7.28077V7.28648V7.29219V7.29788V7.30357V7.30925V7.31492V7.32057V7.32622V7.33187V7.3375V7.34312V7.34873V7.35433V7.35992V7.36551V7.37108V7.37664V7.38219V7.38774V7.39327V7.39879V7.4043V7.4098V7.41529V7.42077V7.42624V7.43169V7.43714V7.44257V7.448V7.45341V7.45881V7.4642V7.46957V7.47494V7.48029V7.48564V7.49097V7.49628V7.50159V7.50688V7.51217V7.51744V7.52269V7.52794C5.37436 7.76808 5.48936 7.99371 5.68368 8.13481C5.878 8.27592 6.12814 8.31544 6.35649 8.24111C7.20364 7.96537 8.01546 7.92695 8.56394 8.09057C8.82956 8.16981 8.99994 8.28555 9.10246 8.40918C9.19819 8.52462 9.2756 8.69504 9.2756 8.97282C9.2756 9.26485 9.20076 9.44535 9.11823 9.56477C9.03093 9.69108 8.90408 9.79274 8.74468 9.87313C8.58367 9.95432 8.40831 10.004 8.25654 10.0324C8.10621 10.0606 8.00378 10.0635 8.00011 10.0636L8.00001 10.0636C7.46235 10.0636 6.97346 9.75684 6.67994 9.43313C6.40171 9.12628 5.9274 9.10308 5.62055 9.38131C5.3137 9.65955 5.2905 10.1339 5.56873 10.4407C6.04856 10.9699 6.91232 11.5636 8.00001 11.5636C8.15564 11.5636 8.79248 11.529 9.42011 11.2125C9.74391 11.0492 10.0887 10.7989 10.3522 10.4176C10.6204 10.0295 10.7756 9.54688 10.7756 8.97282C10.7756 8.38452 10.5998 7.86497 10.2571 7.45171C9.92124 7.04665 9.46799 6.79495 8.99275 6.65317C8.34977 6.46135 7.6092 6.45165 6.87436 6.57366V6.57045V6.56433V6.55822V6.55211V6.54601V6.5399V6.5338V6.5277V6.5216V6.5155V6.50941V6.50332V6.49724V6.49115V6.48507V6.47899V6.47292V6.46685V6.46078V6.45472V6.44866V6.4426V6.43655V6.4305V6.42446V6.41841V6.41238V6.40634V6.40032V6.39429V6.38827V6.38226V6.37625V6.37024V6.36424V6.35825V6.35226V6.34627V6.34029V6.33432V6.32835V6.32238V6.31643V6.31047V6.30453V6.29859V6.29265V6.28672V6.2808V6.27488V6.26897V6.26307V6.25717V6.25128V6.2454V6.23952V6.23365V6.22778V6.22193V6.21608V6.21023V6.2044V6.19857V6.19275V6.18694V6.18113V6.17534V6.16955V6.16376V6.15799V6.15222V6.14647V6.14072V6.13498V6.12924V6.12352V6.11781V6.1121V6.1064V6.10071V6.09503V6.08936V6.0837V6.07805V6.0724V6.06677V6.06115V6.05553V6.04993V6.04433V6.03875V6.03317V6.02761V6.02205V6.0165V6.01097V6.00545V5.99993V5.99443V5.98894V5.98346V5.97798V5.97252V5.96708V5.96164V5.95621V5.9508V5.94539V5.94V5.93658H6.88146H6.89064H6.89985H6.9091H6.91839H6.92771H6.93707H6.94646H6.95589H6.96536H6.97486H6.9844H6.99397H7.00357H7.01321H7.02288H7.03258H7.04231H7.05208H7.06188H7.07171H7.08157H7.09146H7.10139H7.11134H7.12132H7.13134H7.14138H7.15145H7.16155H7.17168H7.18183H7.19201H7.20222H7.21246H7.22272H7.23301H7.24332H7.25366H7.26403H7.27442H7.28483H7.29527H7.30573H7.31622H7.32673H7.33726H7.34781H7.35839H7.36899H7.37961H7.39025H7.40091H7.41159H7.42229H7.43301H7.44375H7.45451H7.46529H7.47609H7.4869H7.49773H7.50858H7.51945H7.53033H7.54123H7.55215H7.56308H7.57403H7.58499H7.59597H7.60696H7.61796H7.62898H7.64001H7.65106H7.66212H7.67319H7.68427H7.69536H7.70647H7.71758H7.72871H7.73985H7.75099H7.76215H7.77332H7.78449H7.79568H7.80687H7.81807H7.82928H7.84049H7.85171H7.86294H7.87418H7.88542H7.89666H7.90792H7.91917H7.93043H7.9417H7.95297H7.96424H7.97552H7.9868H7.99808H8.00936H8.02065H8.03194H8.04322H8.05451H8.0658H8.0771H8.08839H8.09968H8.11097H8.12225H8.13354H8.14483H8.15611H8.16739H8.17867H8.18994H8.20121H8.21248H8.22374H8.235H8.24626H8.2575H8.26875H8.27999H8.29122H8.30244H8.31366H8.32487H8.33607H8.34727H8.35846H8.36964H8.38081H8.39197H8.40312H8.41426H8.42539H8.43651H8.44762H8.45872H8.46981H8.48089H8.49195H8.503H8.51404H8.52506H8.53608H8.54707H8.55806H8.56903H8.57998H8.59092H8.60184H8.61275H8.62364H8.63451H8.64537H8.65621H8.66704H8.67784H8.68863H8.6994H8.71015H8.72088H8.73159H8.74228H8.75295H8.7636H8.77423H8.78483H8.79542H8.80598H8.81653H8.82704H8.83754H8.84801H8.85846H8.86889H8.87929H8.88967H8.90002H8.91034H8.92064H8.93092H8.94117H8.95139H8.96159H8.97175H8.98189H8.992H9.00209H9.01214H9.02217H9.03217H9.04213H9.05207H9.06198H9.07185H9.0817H9.09151H9.10129H9.11104H9.12076H9.13045H9.1401H9.14972H9.1593H9.16885H9.17837H9.18785H9.1973H9.20671H9.21609H9.22543H9.23473H9.244H9.25323H9.26242H9.27157H9.28069H9.28977H9.29881H9.30781H9.31677H9.32569H9.33457H9.34341H9.35221H9.36097H9.36969H9.37837H9.387H9.39559H9.40414H9.41264H9.42111H9.42952H9.4379H9.44623H9.45451H9.46275H9.47095H9.4791H9.4872H9.49526H9.50327H9.51123H9.51914H9.52701H9.53483H9.5426H9.55032H9.55799H9.56562H9.57319H9.58071H9.58818H9.59561H9.60298H9.6103H9.61756H9.62478H9.63194H9.63905H9.64611H9.65311H9.66006H9.66695H9.6738H9.68058H9.68731H9.69399H9.70061H9.70717H9.71368H9.72013H9.72652H9.73285H9.73913H9.74535H9.75151H9.75761H9.76365H9.76964H9.77556H9.78142H9.78722H9.79296H9.79864H9.80426H9.80982H9.81531H9.82074H9.82611H9.83142H9.83666H9.84184H9.84695H9.852H9.85698H9.8619H9.86676H9.87154H9.87627H9.88092H9.88551H9.89003H9.89448H9.89886H9.90318H9.90743H9.91161H9.91572H9.91976H9.92373H9.92763H9.93146H9.93521H9.9389H9.94252H9.94606H9.94953H9.95293H9.95625H9.95951H9.96268H9.96579H9.96882H9.97177H9.97465H9.97746H9.98019H9.98284H9.98542H9.98792H9.99034H9.99269H9.99495H9.99714H9.99926H10.0013H10.0032H10.0051H10.0069H10.0086H10.0103H10.0118H10.0133H10.0147H10.016H10.0172H10.0184H10.0194H10.0204H10.0213H10.0221H10.0228H10.0235H10.024H10.0245H10.0249H10.0252H10.0254H10.0256L10.0256 5.18658V5.93658C10.4398 5.93658 10.7756 5.6008 10.7756 5.18658C10.7756 4.77237 10.4398 4.43658 10.0256 4.43658V5.18658L10.0256 4.43658H10.0254H10.0252H10.0249H10.0245H10.024H10.0235H10.0228H10.0221H10.0213H10.0204H10.0194H10.0184H10.0172H10.016H10.0147H10.0133H10.0118H10.0103H10.0086H10.0069H10.0051H10.0032H10.0013H9.99926H9.99714H9.99495H9.99269H9.99034H9.98792H9.98542H9.98284H9.98019H9.97746H9.97465H9.97177H9.96882H9.96579H9.96268H9.95951H9.95625H9.95293H9.94953H9.94606H9.94252H9.9389H9.93521H9.93146H9.92763H9.92373H9.91976H9.91572H9.91161H9.90743H9.90318H9.89886H9.89448H9.89003H9.88551H9.88092H9.87627H9.87154H9.86676H9.8619H9.85698H9.852H9.84695H9.84184H9.83666H9.83142H9.82611H9.82074H9.81531H9.80982H9.80426H9.79864H9.79296H9.78722H9.78142H9.77556H9.76964H9.76365H9.75761H9.75151H9.74535H9.73913H9.73285H9.72652H9.72013H9.71368H9.70717H9.70061H9.69399H9.68731H9.68058H9.6738H9.66695H9.66006H9.65311H9.64611H9.63905H9.63194H9.62478H9.61756H9.6103H9.60298H9.59561H9.58818H9.58071H9.57319H9.56562H9.55799H9.55032H9.5426H9.53483H9.52701H9.51914H9.51123H9.50327H9.49526H9.4872H9.4791H9.47095H9.46275H9.45451H9.44623H9.4379H9.42952H9.42111H9.41264H9.40414H9.39559H9.387H9.37837H9.36969H9.36097H9.35221H9.34341H9.33457H9.32569H9.31677H9.30781H9.29881H9.28977H9.28069H9.27157H9.26242H9.25323H9.244H9.23473H9.22543H9.21609H9.20671H9.1973H9.18785H9.17837H9.16885H9.1593H9.14972H9.1401H9.13045H9.12076H9.11104H9.10129H9.09151H9.0817H9.07185H9.06198H9.05207H9.04213H9.03217H9.02217H9.01214H9.00209H8.992H8.98189H8.97175H8.96159H8.95139H8.94117H8.93092H8.92064H8.91034H8.90002H8.88967H8.87929H8.86889H8.85846H8.84801H8.83754H8.82704H8.81653H8.80598H8.79542H8.78483H8.77423H8.7636H8.75295H8.74228H8.73159H8.72088H8.71015H8.6994H8.68863H8.67784H8.66704H8.65621H8.64537H8.63451H8.62364H8.61275H8.60184H8.59092H8.57998H8.56903H8.55806H8.54707H8.53608H8.52506H8.51404H8.503H8.49195H8.48089H8.46981H8.45872H8.44762H8.43651H8.42539H8.41426H8.40312H8.39197H8.38081H8.36964H8.35846H8.34727H8.33607H8.32487H8.31366H8.30244H8.29122H8.27999H8.26875H8.2575H8.24626H8.235H8.22374H8.21248H8.20121H8.18994H8.17867H8.16739H8.15611H8.14483H8.13354H8.12225H8.11097H8.09968H8.08839H8.0771H8.0658H8.05451H8.04322H8.03194H8.02065H8.00936H7.99808H7.9868H7.97552H7.96424H7.95297H7.9417H7.93043H7.91917H7.90792H7.89666H7.88542H7.87418H7.86294H7.85171H7.84049H7.82928H7.81807H7.80687H7.79568H7.78449H7.77332H7.76215H7.75099H7.73985H7.72871H7.71758H7.70647H7.69536H7.68427H7.67319H7.66212H7.65106H7.64001H7.62898H7.61796H7.60696H7.59597H7.58499H7.57403H7.56308H7.55215H7.54123H7.53033H7.51945H7.50858H7.49773H7.4869H7.47609H7.46529H7.45451H7.44375H7.43301H7.42229H7.41159H7.40091H7.39025H7.37961H7.36899H7.35839H7.34781H7.33726H7.32673H7.31622H7.30573H7.29527H7.28483H7.27442H7.26403H7.25366H7.24332H7.23301H7.22272H7.21246H7.20222H7.19201H7.18183H7.17168H7.16155H7.15145H7.14138H7.13134H7.12132H7.11134H7.10139H7.09146H7.08157H7.07171H7.06188H7.05208H7.04231H7.03258H7.02288H7.01321H7.00357H6.99397H6.9844H6.97486H6.96536H6.95589H6.94646H6.93707H6.92771H6.91839H6.9091H6.89985H6.89064H6.88146H6.87233H6.86323H6.85417H6.84514H6.83616H6.82722H6.81832H6.80945H6.80063H6.79185H6.78311H6.77441H6.76576H6.75714H6.74857H6.74004H6.73156H6.72311H6.71472H6.70636H6.69805H6.68979H6.68157H6.6734H6.66527H6.65719H6.64915H6.64117H6.63322H6.62533H6.61749H6.60969H6.60194H6.59424H6.58659H6.57899H6.57144H6.56394H6.5565H6.5491H6.54175H6.53445H6.52721H6.52002H6.51288H6.5058H6.49876H6.49179H6.48486H6.47799H6.47118H6.46442H6.45771H6.45106H6.44447H6.43793H6.43145H6.42503H6.41866H6.41235H6.4061H6.39991H6.39378H6.3877H6.38169H6.37574H6.36984H6.36401H6.35823H6.35252H6.34687H6.34128H6.33575H6.33028H6.32488H6.31954H6.31427H6.30905H6.30391H6.29882H6.2938H6.28885H6.28396H6.27914H6.27438H6.26969H6.26507H6.26051H6.25602H6.2516H6.24725H6.24296H6.23875H6.2346H6.23052H6.22651H6.22258H6.21871H6.21491H6.21119H6.20753H6.20395H6.20044H6.197H6.19364H6.19035H6.18713H6.18399H6.18092H6.17792H6.175H6.17215H6.16938H6.16669H6.16407H6.16153H6.15907H6.15668H6.15437H6.15214H6.14998H6.14791H6.14591H6.14399H6.14216H6.1404H6.13872H6.13712H6.13561H6.13417H6.13282H6.13155H6.13036H6.12925H6.12822H6.12728H6.12643H6.12565H6.12496H6.12436Z" fill="#233043"/>
</svg>
