<svg width="16" height="16" viewBox="0 0 16 16" fill="none" xmlns="http://www.w3.org/2000/svg">
<path fill-rule="evenodd" clip-rule="evenodd" d="M8 14C11.3137 14 14 11.3137 14 8C14 4.68629 11.3137 2 8 2C4.68629 2 2 4.68629 2 8C2 11.3137 4.68629 14 8 14ZM7.42376 5.48172C7.58616 5.10067 7.4089 4.66012 7.02785 4.49773C6.6468 4.33533 6.20624 4.51259 6.04385 4.89364L5.04299 7.24212C4.73844 7.95673 5.2628 8.75018 6.03959 8.75018H8.49299V10.8127C8.49299 11.2269 8.82878 11.5627 9.24299 11.5627C9.65721 11.5627 9.99299 11.2269 9.99299 10.8127V8.00018V5.18768C9.99299 4.77347 9.65721 4.43768 9.24299 4.43768C8.82878 4.43768 8.49299 4.77347 8.49299 5.18768V7.25018H6.67009L7.42376 5.48172Z" fill="#233043"/>
</svg>
