<svg width="16" height="16" viewBox="0 0 16 16" fill="none" xmlns="http://www.w3.org/2000/svg">
<path fill-rule="evenodd" clip-rule="evenodd" d="M8 14C11.3137 14 14 11.3137 14 8C14 4.68629 11.3137 2 8 2C4.68629 2 2 4.68629 2 8C2 11.3137 4.68629 14 8 14ZM8.00001 5.93659H8.06499L8.06366 5.93792L8.06033 5.94124L8.057 5.94458L8.05365 5.94793L8.05029 5.95128L8.04693 5.95465L8.04355 5.95802L8.04016 5.96141L8.03677 5.96481L8.03336 5.96822L8.02994 5.97164L8.02651 5.97506L8.02307 5.9785L8.01962 5.98195L8.01616 5.98542L8.01269 5.98889L8.0092 5.99237L8.00571 5.99587L8.0022 5.99937L7.99869 6.00289L7.99516 6.00642L7.99162 6.00996L7.98807 6.01351L7.9845 6.01707L7.98093 6.02065L7.97734 6.02424L7.97374 6.02783L7.97013 6.03145L7.96651 6.03507L7.96287 6.0387L7.95923 6.04235L7.95557 6.04601L7.95189 6.04968L7.94821 6.05337L7.94451 6.05706L7.9408 6.06077L7.93708 6.0645L7.93334 6.06823L7.9296 6.07198L7.92584 6.07574L7.92206 6.07952L7.91827 6.0833L7.91447 6.0871L7.91066 6.09092L7.90683 6.09475L7.90299 6.09859L7.89914 6.10244L7.89527 6.10631L7.89139 6.11019L7.88749 6.11409L7.88358 6.118L7.87966 6.12192L7.87572 6.12586L7.87177 6.12981L7.8678 6.13378L7.86382 6.13776L7.85982 6.14175L7.85581 6.14576L7.85179 6.14979L7.84775 6.15382L7.8437 6.15788L7.83963 6.16195L7.83555 6.16603L7.83145 6.17013L7.82733 6.17424L7.82321 6.17837L7.81906 6.18251L7.8149 6.18667L7.81073 6.19085L7.80654 6.19504L7.80233 6.19924L7.79811 6.20347L7.79387 6.2077L7.78962 6.21196L7.78535 6.21622L7.78107 6.22051L7.77677 6.22481L7.77245 6.22913L7.76812 6.23346L7.76377 6.23781L7.7594 6.24218L7.75502 6.24656L7.75062 6.25096L7.7462 6.25538L7.74177 6.25981L7.73732 6.26426L7.73285 6.26872L7.72837 6.27321L7.72387 6.27771L7.71935 6.28223L7.71481 6.28676L7.71026 6.29132L7.70569 6.29589L7.7011 6.30047L7.6965 6.30508L7.69188 6.3097L7.68723 6.31434L7.68258 6.319L7.6779 6.32368L7.67321 6.32837L7.66849 6.33308L7.66376 6.33781L7.65901 6.34256L7.65425 6.34733L7.64946 6.35212L7.64466 6.35692L7.63983 6.36174L7.63499 6.36659L7.63013 6.37145L7.62525 6.37633L7.62035 6.38122L7.61544 6.38614L7.6105 6.39108L7.60554 6.39603L7.60057 6.40101L7.59557 6.406L7.59056 6.41102L7.58553 6.41605L7.58047 6.4211L7.5754 6.42618L7.57031 6.43127L7.5652 6.43638L7.56006 6.44151L7.55491 6.44666L7.54974 6.45184L7.54455 6.45703L7.53933 6.46224L7.5341 6.46748L7.52885 6.47273L7.52357 6.478L7.51828 6.4833L7.51296 6.48861L7.50763 6.49395L7.50227 6.49931L7.49689 6.50469L7.49149 6.51009L7.48607 6.51551L7.48063 6.52095L7.47517 6.52641L7.46968 6.5319C7.25518 6.74639 7.19102 7.06898 7.3071 7.34924C7.42241 7.62761 7.69299 7.80976 7.99388 7.8122L7.99609 7.81227C8.00098 7.81243 8.01162 7.81287 8.02717 7.81398C8.05852 7.81622 8.1082 7.82106 8.16978 7.83133C8.2965 7.85245 8.454 7.89329 8.60242 7.9675C8.7479 8.04024 8.87057 8.13758 8.95855 8.26954C9.04339 8.3968 9.12565 8.60019 9.12565 8.93787C9.12565 9.2856 9.04591 9.49432 8.9653 9.62214C8.88333 9.7521 8.77125 9.84447 8.6391 9.91275C8.35188 10.0612 8.0346 10.0635 8.00001 10.0635C7.28067 10.0635 7.06122 9.81165 6.98286 9.69412C6.92909 9.61346 6.90038 9.52942 6.88582 9.46388C6.87875 9.43208 6.87579 9.40807 6.87466 9.39612L6.87421 9.39087C6.86574 8.984 6.53327 8.65678 6.12437 8.65678C5.71016 8.65678 5.37437 8.99256 5.37437 9.40678H6.12437C5.37437 9.40678 5.37437 9.40727 5.37437 9.40777L5.37437 9.4088L5.37438 9.41097L5.37442 9.41573L5.3746 9.42694C5.37478 9.43514 5.37508 9.44482 5.37557 9.45588C5.37655 9.47796 5.37831 9.50571 5.38141 9.53833C5.3876 9.60331 5.3993 9.6892 5.42154 9.78928C5.46559 9.98749 5.5541 10.2551 5.73479 10.5262C6.12535 11.112 6.84371 11.5635 8.00001 11.5635H8.00189C8.09551 11.5635 8.71177 11.5636 9.32771 11.2454C9.64928 11.0792 9.98332 10.8199 10.234 10.4223C10.4861 10.0226 10.6257 9.52795 10.6257 8.93787C10.6257 8.33772 10.4735 7.83774 10.2066 7.43749C9.98211 7.10072 9.69777 6.8663 9.41863 6.70427L9.42139 6.70151L9.42414 6.69875L9.4269 6.69599L9.42966 6.69324L9.43241 6.69048L9.43517 6.68773L9.43792 6.68498L9.44067 6.68222L9.44342 6.67947L9.44617 6.67672L9.44892 6.67397L9.45167 6.67122L9.45442 6.66847L9.45717 6.66573L9.45992 6.66298L9.46267 6.66023L9.46541 6.65748L9.46816 6.65474L9.47091 6.65199L9.47366 6.64924L9.47641 6.64649L9.47915 6.64374L9.4819 6.641L9.48465 6.63825L9.4874 6.6355L9.49015 6.63275L9.4929 6.63L9.49565 6.62725L9.4984 6.62449L9.50116 6.62174L9.50391 6.61899L9.50667 6.61623L9.50942 6.61347L9.51218 6.61072L9.51494 6.60796L9.5177 6.6052L9.52046 6.60244L9.52322 6.59967L9.52599 6.59691L9.52876 6.59414L9.53152 6.59137L9.5343 6.5886L9.53707 6.58583L9.53984 6.58305L9.54262 6.58028L9.5454 6.5775L9.54818 6.57472L9.55096 6.57193L9.55375 6.56915L9.55654 6.56636L9.55933 6.56356L9.56213 6.56077L9.56492 6.55797L9.56772 6.55517L9.57053 6.55237L9.57333 6.54956L9.57614 6.54675L9.57896 6.54394L9.58177 6.54112L9.58459 6.5383L9.58742 6.53548L9.59024 6.53265L9.59307 6.52982L9.59591 6.52699L9.59875 6.52415L9.60159 6.52131L9.60443 6.51846L9.60728 6.51561L9.61014 6.51276L9.613 6.5099L9.61586 6.50704L9.61873 6.50417L9.6216 6.5013L9.62448 6.49842L9.62736 6.49554L9.63024 6.49265L9.63314 6.48976L9.63603 6.48687L9.63893 6.48396L9.64184 6.48106L9.64475 6.47815L9.64767 6.47523L9.65059 6.47231L9.65352 6.46938L9.65645 6.46645L9.65939 6.46351L9.66233 6.46057L9.66528 6.45762L9.66824 6.45466L9.6712 6.4517L9.67417 6.44873L9.67714 6.44576L9.68012 6.44278L9.68311 6.43979L9.6861 6.4368L9.6891 6.4338L9.69211 6.43079L9.69512 6.42778L9.69814 6.42476L9.70116 6.42173L9.7042 6.4187L9.70724 6.41566L9.71028 6.41261L9.71334 6.40956L9.7164 6.4065L9.71947 6.40343L9.72254 6.40035L9.72563 6.39727L9.72872 6.39418L9.73182 6.39108L9.73492 6.38797L9.73804 6.38486L9.74116 6.38174L9.74429 6.37861L9.74743 6.37547L9.75057 6.37232L9.75373 6.36917L9.75689 6.36601L9.76006 6.36284L9.76324 6.35966L9.76643 6.35647L9.76962 6.35327L9.77283 6.35007L9.77604 6.34685L9.77927 6.34363L9.7825 6.3404L9.78574 6.33716L9.78899 6.33391L9.79225 6.33065L9.79552 6.32738L9.7988 6.3241L9.80208 6.32081L9.80538 6.31752L9.80869 6.31421L9.812 6.31089L9.81533 6.30757L9.81867 6.30423L9.82201 6.30088L9.82537 6.29753L9.82874 6.29416L9.83211 6.29078L9.8355 6.2874L9.8389 6.284L9.8423 6.28059L9.84572 6.27717L9.84915 6.27375L9.85259 6.27031L9.85604 6.26686L9.8595 6.26339L9.86298 6.25992L9.86646 6.25644L9.86995 6.25294L9.87346 6.24944L9.87698 6.24592L9.88051 6.24239L9.88405 6.23885L9.8876 6.2353L9.89116 6.23174L9.89474 6.22816L9.89832 6.22457L9.90192 6.22097L9.90553 6.21736L9.90916 6.21374L9.91279 6.21011L9.91644 6.20646L9.9201 6.2028L9.92377 6.19913L9.92745 6.19544L9.93115 6.19175L9.93486 6.18804L9.93858 6.18431L9.94232 6.18058L9.94607 6.17683L9.94983 6.17307L9.9536 6.16929L9.95739 6.16551L9.96119 6.16171L9.96501 6.15789L9.96883 6.15406L9.97267 6.15022L9.97653 6.14637L9.9804 6.1425L9.98428 6.13862L9.98817 6.13472L9.99208 6.13081L9.99601 6.12689L9.99995 6.12295L10.0039 6.119L10.0079 6.11503L10.0118 6.11105L10.0158 6.10706L10.0198 6.10305L10.0239 6.09902L10.0279 6.09499L10.032 6.09093L10.036 6.08686L10.0401 6.08278L10.0442 6.07868L10.0483 6.07457L10.0525 6.07044L10.0566 6.0663L10.0608 6.06214L10.0649 6.05796L10.0691 6.05377L10.0733 6.04957L10.0776 6.04534L10.0818 6.04111L10.086 6.03685L10.0903 6.03259L10.0946 6.0283L10.0989 6.024L10.1032 6.01968L10.1075 6.01535L10.1119 6.011L10.1163 6.00663L10.1206 6.00225L10.125 5.99785L10.1295 5.99343L10.1339 5.989L10.1383 5.98455L10.1428 5.98008L10.1473 5.9756L10.1518 5.9711L10.1563 5.96658L10.1609 5.96205L10.1654 5.95749L10.17 5.95292L10.1746 5.94834L10.1792 5.94373L10.1838 5.93911L10.1884 5.93447L10.1931 5.92981L10.1978 5.92513L10.2025 5.92044L10.2072 5.91573L10.2119 5.911L10.2167 5.90625L10.2214 5.90148L10.2262 5.89669L10.231 5.89189L10.2358 5.88707L10.2407 5.88222L10.2455 5.87736L10.2504 5.87248L10.2553 5.86759L10.2602 5.86267L10.2652 5.85773L10.2701 5.85278L10.2751 5.8478L10.2801 5.84281L10.2851 5.83779L10.2901 5.83276L10.2952 5.82771L10.3003 5.82263L10.3054 5.81754L10.3105 5.81243L10.3156 5.8073L10.3208 5.80215L10.3259 5.79697L10.3311 5.79178L10.3363 5.78657L10.3416 5.78133L10.3468 5.77608L10.3521 5.77081L10.3574 5.76551L10.3627 5.7602L10.368 5.75486L10.3734 5.7495L10.3788 5.74412L10.3842 5.73872L10.3896 5.7333L10.395 5.72786L10.4005 5.7224L10.406 5.71691C10.6205 5.50242 10.6846 5.17983 10.5686 4.89957C10.4525 4.61931 10.179 4.43658 9.87564 4.43658H9.87563H9.87558H9.87537H9.87453H9.87107H9.8566L9.79359 4.43658L9.50052 4.43659L8.00001 4.43659L6.12437 4.43658C5.71016 4.43658 5.37437 4.77237 5.37437 5.18658C5.37437 5.6008 5.71016 5.93658 6.12437 5.93658L8.00001 5.93659ZM7.99542 7.81221L7.99609 7.81227L7.9974 7.81222L7.99542 7.81221ZM7.9933 7.81219L7.99542 7.81221L7.99388 7.8122L7.9933 7.81219ZM7.9933 7.81219C7.99307 7.81218 7.99306 7.81218 7.99328 7.81219H7.9933Z" fill="#233043"/>
</svg>
