<svg width="16" height="16" viewBox="0 0 16 16" fill="none" xmlns="http://www.w3.org/2000/svg">
<path fill-rule="evenodd" clip-rule="evenodd" d="M8,2C11.311,2 14,4.689 14,8C14,11.311 11.311,14 8,14C4.689,14 2,11.311 2,8C2,4.689 4.689,2 8,2ZM6.875,7.062C6.875,6.687 7.1,5.937 8,5.937C8.9,5.937 9.125,6.687 9.125,7.062C9.125,7.299 9.013,7.529 8.861,7.757C8.656,8.065 8.37,8.358 8.061,8.628C7.052,9.512 5.789,10.142 5.789,10.142C5.478,10.298 5.315,10.647 5.395,10.985C5.475,11.324 5.777,11.563 6.125,11.563L9.875,11.563C10.289,11.563 10.625,11.227 10.625,10.813C10.625,10.399 10.289,10.063 9.875,10.063L8.677,10.063C9.011,9.8 9.336,9.512 9.616,9.208C10.23,8.544 10.625,7.793 10.625,7.062C10.625,6.187 10.1,4.437 8,4.437C5.9,4.437 5.375,6.187 5.375,7.062C5.375,7.476 5.711,7.812 6.125,7.812C6.539,7.812 6.875,7.476 6.875,7.062Z" fill="#233043"/>
</svg>
