<svg width="16" height="16" viewBox="0 0 16 16" fill="none" xmlns="http://www.w3.org/2000/svg">
<path fill-rule="evenodd" clip-rule="evenodd" d="M8 14C11.3137 14 14 11.3137 14 8C14 4.68629 11.3137 2 8 2C4.68629 2 2 4.68629 2 8C2 11.3137 4.68629 14 8 14ZM11.5549 6.62987C11.8336 6.32338 11.811 5.84904 11.5045 5.57041C11.198 5.29178 10.7237 5.31437 10.445 5.62086L7.22413 9.16385L5.53032 7.47004C5.23743 7.17714 4.76255 7.17714 4.46966 7.47004C4.17677 7.76293 4.17677 8.2378 4.46966 8.5307L6.47247 10.5335C6.90984 10.9709 7.62402 10.9539 8.0401 10.4962L11.5549 6.62987Z" fill="#233043"/>
</svg>
