<svg width="16" height="16" viewBox="0 0 16 16" fill="none" xmlns="http://www.w3.org/2000/svg">
<path d="M6.54381 10.2343L6.95392 9.60635L6.54381 10.2343ZM9.45612 10.2344L9.86618 10.8624L9.45612 10.2344ZM9.91671 7.99998C9.91671 8.67159 9.57186 9.26307 9.04606 9.60642L9.86618 10.8624C10.7982 10.2538 11.4167 9.19932 11.4167 7.99998H9.91671ZM8.00004 6.08331C9.05859 6.08331 9.91671 6.94143 9.91671 7.99998H11.4167C11.4167 6.11301 9.88701 4.58331 8.00004 4.58331V6.08331ZM6.08337 7.99998C6.08337 6.94143 6.94149 6.08331 8.00004 6.08331V4.58331C6.11307 4.58331 4.58337 6.11301 4.58337 7.99998H6.08337ZM6.95392 9.60635C6.42817 9.26299 6.08337 8.67155 6.08337 7.99998H4.58337C4.58337 9.19924 5.20184 10.2536 6.13371 10.8622L6.95392 9.60635ZM7.41663 11.0833V10.454H5.91663V11.0833H7.41663ZM9.08329 10.5833H6.91663V12.0833H9.08329V10.5833ZM8.58329 10.4541V11.0833H10.0833V10.4541H8.58329ZM5.91663 11.0833C5.91663 11.6356 6.36434 12.0833 6.91663 12.0833V10.5833C7.19277 10.5833 7.41663 10.8072 7.41663 11.0833H5.91663ZM6.13371 10.8622C6.0154 10.785 5.91663 10.64 5.91663 10.454H7.41663C7.41663 10.0896 7.22166 9.78121 6.95392 9.60635L6.13371 10.8622ZM9.08329 12.0833C9.63558 12.0833 10.0833 11.6356 10.0833 11.0833H8.58329C8.58329 10.8072 8.80715 10.5833 9.08329 10.5833V12.0833ZM9.04606 9.60642C8.77829 9.78127 8.58329 10.0897 8.58329 10.4541H10.0833C10.0833 10.6401 9.98451 10.7851 9.86618 10.8624L9.04606 9.60642Z" fill="#233043"/>
<path d="M6.66675 13.3333H9.33341" stroke="#233043" stroke-width="1.5" stroke-linecap="round" stroke-linejoin="round"/>
<path d="M8.00012 3.33331V2.33331" stroke="#233043" stroke-width="1.5" stroke-linecap="round" stroke-linejoin="round"/>
<path d="M2.33337 8H3.33337" stroke="#233043" stroke-width="1.5" stroke-linecap="round" stroke-linejoin="round"/>
<path d="M12.6667 8H13.6667" stroke="#233043" stroke-width="1.5" stroke-linecap="round" stroke-linejoin="round"/>
<path d="M4.37385 4.70711L3.66675 4" stroke="#233043" stroke-width="1.5" stroke-linecap="round" stroke-linejoin="round"/>
<path d="M11.6263 4.70711L12.3334 4" stroke="#233043" stroke-width="1.5" stroke-linecap="round" stroke-linejoin="round"/>
</svg>
