<svg width="16" height="16" viewBox="0 0 16 16" fill="none" xmlns="http://www.w3.org/2000/svg">
<circle cx="5.59077" cy="5.46769" r="2.11015" fill="#233043"/>
<path d="M2.21455 11.6163C2.21455 9.7517 3.72614 8.24011 5.59079 8.24011C7.45543 8.24011 8.96702 9.7517 8.96702 11.6163V12.153C8.96702 12.4232 8.74804 12.6421 8.47791 12.6421H2.70367C2.43353 12.6421 2.21455 12.4232 2.21455 12.153V11.6163Z" fill="#233043"/>
<path d="M7.85704 11.8021C7.85704 10.2752 9.09486 9.03735 10.6218 9.03735C12.1487 9.03735 13.3865 10.2752 13.3865 11.8021V12.2416C13.3865 12.4628 13.2072 12.6421 12.986 12.6421H8.25757C8.03636 12.6421 7.85704 12.4628 7.85704 12.2416V11.8021Z" fill="#233043"/>
<circle cx="10.6217" cy="6.68153" r="1.55873" fill="#233043"/>
</svg>
