<svg width="16" height="16" viewBox="0 0 16 16" fill="none" xmlns="http://www.w3.org/2000/svg">
<circle cx="5.50145" cy="5.1884" r="2.1884" stroke="#233043" stroke-width="1.5" stroke-linecap="round" stroke-linejoin="round"/>
<path d="M2 12.2402C2 10.5213 3.39347 9.12781 5.11239 9.12781H5.89049C7.60942 9.12781 9.00288 10.5213 9.00288 12.2402V12.2402C9.00288 12.4551 8.8287 12.6292 8.61383 12.6292H2.38905C2.17418 12.6292 2 12.4551 2 12.2402V12.2402Z" stroke="#233043" stroke-width="1.5" stroke-linecap="round" stroke-linejoin="round"/>
<path d="M7.43793 12.629H13.6657C13.8503 12.629 14 12.4793 14 12.2947V12.2947C14 10.8178 12.8027 9.62054 11.3258 9.62054H10.7189C9.16894 9.62054 8.80039 10.125 8.47693 10.4614" stroke="#233043" stroke-width="1.5" stroke-linecap="round" stroke-linejoin="round"/>
<circle cx="10.7189" cy="6.4471" r="1.61653" stroke="#233043" stroke-width="1.5" stroke-linecap="round" stroke-linejoin="round"/>
</svg>
