<svg width="16" height="16" viewBox="0 0 16 16" fill="none" xmlns="http://www.w3.org/2000/svg">
<circle cx="5.59086" cy="5.46769" r="2.11015" fill="#233043"/>
<path d="M2.2146 11.6164C2.2146 9.75173 3.72619 8.24014 5.59084 8.24014C7.45548 8.24014 8.96707 9.75173 8.96707 11.6164V12.1531C8.96707 12.4232 8.74809 12.6422 8.47796 12.6422H2.70371C2.43358 12.6422 2.2146 12.4232 2.2146 12.1531V11.6164Z" fill="#233043"/>
<path d="M7.85706 11.8021C7.85706 10.2752 9.09488 9.03738 10.6218 9.03738C12.1487 9.03738 13.3866 10.2752 13.3866 11.8021V12.2416C13.3866 12.4628 13.2072 12.6421 12.986 12.6421H8.25758C8.03638 12.6421 7.85706 12.4628 7.85706 12.2416V11.8021Z" fill="#233043"/>
<circle cx="10.6217" cy="6.6815" r="1.55873" fill="#233043"/>
</svg>
