<svg width="16" height="16" viewBox="0 0 16 16" fill="none" xmlns="http://www.w3.org/2000/svg">
<path d="M5.37641 7.46661L7.63216 3.26182C7.94343 2.6816 8.81796 2.85587 8.88303 3.51109L9.14011 6.09956C9.15704 6.27006 9.30047 6.39995 9.47181 6.39995H12.2373C12.3944 6.3982 12.55 6.43009 12.6934 6.4934C12.8367 6.55672 12.9643 6.64994 13.0674 6.76663C13.1705 6.88331 13.2466 7.02065 13.2904 7.16915C13.3342 7.31764 13.3447 7.47374 13.3211 7.62661L12.5733 12.4266C12.5341 12.6809 12.4028 12.9128 12.2036 13.0794C12.0045 13.246 11.7508 13.3361 11.4894 13.3332H5.37641M5.37641 7.46661V13.3332M5.37641 7.46661H3.75061C3.46315 7.46661 3.18747 7.57899 2.9842 7.77903C2.78094 7.97907 2.66675 8.25038 2.66675 8.53327V12.2666C2.66675 12.5495 2.78094 12.8208 2.9842 13.0208C3.18747 13.2209 3.46315 13.3332 3.75061 13.3332H5.37641" stroke="#233043" stroke-width="1.5" stroke-linecap="round" stroke-linejoin="round"/>
</svg>
