<svg width="16" height="16" viewBox="0 0 16 16" fill="none" xmlns="http://www.w3.org/2000/svg">
<path d="M5.37629 8.53345L7.63204 12.7382C7.94331 13.3185 8.81784 13.1442 8.88291 12.489L9.13998 9.9005C9.15692 9.73 9.30035 9.60011 9.47168 9.60011H12.2372C12.3943 9.60186 12.5499 9.56997 12.6932 9.50666C12.8366 9.44335 12.9642 9.35012 13.0673 9.23344C13.1704 9.11675 13.2465 8.97941 13.2903 8.83091C13.3341 8.68242 13.3446 8.52632 13.321 8.37345L12.5732 3.57348C12.534 3.31913 12.4027 3.08729 12.2035 2.92068C12.0043 2.75407 11.7507 2.66391 11.4893 2.66682H5.37629M5.37629 8.53345V2.66682M5.37629 8.53345H3.75049C3.46303 8.53345 3.18735 8.42107 2.98408 8.22103C2.78082 8.02099 2.66663 7.74968 2.66663 7.46679V3.73348C2.66663 3.45058 2.78082 3.17927 2.98408 2.97924C3.18735 2.7792 3.46303 2.66682 3.75049 2.66682H5.37629" stroke="#233043" stroke-width="1.5" stroke-linecap="round" stroke-linejoin="round"/>
</svg>
