<svg width="16" height="16" viewBox="0 0 16 16" fill="none" xmlns="http://www.w3.org/2000/svg">
<path d="M5.37629 8.53333L7.63204 12.7381C7.94331 13.3183 8.81784 13.1441 8.88291 12.4888L9.13998 9.90038C9.15692 9.72988 9.30035 9.59999 9.47168 9.59999H12.2372C12.3943 9.60174 12.5499 9.56985 12.6932 9.50654C12.8366 9.44322 12.9642 9.35 13.0673 9.23331C13.1704 9.11663 13.2465 8.97928 13.2903 8.83079C13.3341 8.68229 13.3446 8.5262 13.321 8.37333L12.5732 3.57336C12.534 3.31901 12.4027 3.08717 12.2035 2.92056C12.0043 2.75395 11.7507 2.66379 11.4893 2.6667H5.37629M5.37629 8.53333V2.6667M5.37629 8.53333H3.75049C3.46303 8.53333 3.18735 8.42095 2.98408 8.22091C2.78082 8.02087 2.66663 7.74956 2.66663 7.46667V3.73336C2.66663 3.45046 2.78082 3.17915 2.98408 2.97912C3.18735 2.77908 3.46303 2.6667 3.75049 2.6667H5.37629" stroke="#233043" stroke-width="1.5" stroke-linecap="round" stroke-linejoin="round"/>
</svg>
