<svg width="16" height="16" viewBox="0 0 16 16" fill="none" xmlns="http://www.w3.org/2000/svg">
<path fill-rule="evenodd" clip-rule="evenodd" d="M8 1.75C6.89543 1.75 6 2.64543 6 3.75C6 4.58934 6.51704 5.30793 7.25 5.60462V7.25H5C3.48122 7.25 2.25 8.48122 2.25 10V10.3954C1.51704 10.6921 1 11.4107 1 12.25C1 13.3546 1.89543 14.25 3 14.25C4.10457 14.25 5 13.3546 5 12.25C5 11.4107 4.48296 10.6921 3.75 10.3954V10C3.75 9.30964 4.30964 8.75 5 8.75H7.25V10.3954C6.51704 10.6921 6 11.4107 6 12.25C6 13.3546 6.89543 14.25 8 14.25C9.10457 14.25 10 13.3546 10 12.25C10 11.4107 9.48296 10.6921 8.75 10.3954V8.75H11C11.6904 8.75 12.25 9.30964 12.25 10V10.3954C11.517 10.6921 11 11.4107 11 12.25C11 13.3546 11.8954 14.25 13 14.25C14.1046 14.25 15 13.3546 15 12.25C15 11.4107 14.483 10.6921 13.75 10.3954V10C13.75 8.48122 12.5188 7.25 11 7.25H8.75V5.60462C9.48296 5.30793 10 4.58934 10 3.75C10 2.64543 9.10457 1.75 8 1.75Z" fill="#233043"/>
</svg>
