<svg width="16" height="16" viewBox="0 0 16 16" fill="none" xmlns="http://www.w3.org/2000/svg">
<path fill-rule="evenodd" clip-rule="evenodd" d="M2.5 11V5H10.5V11H2.5ZM1 4.5C1 3.94772 1.44772 3.5 2 3.5H11C11.5523 3.5 12 3.94772 12 4.5V5.88466L13.5861 4.96891C14.2528 4.58401 15.0861 5.06513 15.0861 5.83494V10.1651C15.0861 10.9349 14.2528 11.416 13.5861 11.0311L12 10.1153V11.5C12 12.0523 11.5523 12.5 11 12.5H2C1.44771 12.5 1 12.0523 1 11.5V4.5ZM12 8.38329L13.5861 9.29904V6.70096L12 7.61671V8.38329Z" fill="#233043"/>
</svg>
