<svg width="16" height="16" viewBox="0 0 16 16" fill="none" xmlns="http://www.w3.org/2000/svg">
<rect x="2.00793" y="0.947266" width="18.4482" height="1.5" rx="0.75" transform="rotate(45 2.00793 0.947266)" fill="#233043"/>
<path fill-rule="evenodd" clip-rule="evenodd" d="M4.47522 3.5H2C1.44772 3.5 1 3.94772 1 4.5V11.5C1 12.0523 1.44771 12.5 2 12.5H11C11.5523 12.5 12 12.0523 12 11.5V11.0248L10.5 9.52478V11H2.5V5H5.97522L4.47522 3.5ZM10.5 7.40346V5H8.09654L6.59654 3.5H11C11.5523 3.5 12 3.94772 12 4.5V5.88466L13.5861 4.96891C14.2528 4.58401 15.0861 5.06513 15.0861 5.83494V10.1651C15.0861 10.6867 14.7034 11.0758 14.2492 11.1527L10.5 7.40346ZM13.5861 9.29904L12 8.38329V7.61671L13.5861 6.70096V9.29904Z" fill="#233043"/>
</svg>
