<svg width="16" height="16" viewBox="0 0 16 16" fill="none" xmlns="http://www.w3.org/2000/svg">
<path d="M9.33325 12.6666H3.66659C3.48249 12.6666 3.33325 12.5174 3.33325 12.3333V3.66663C3.33325 3.48253 3.48249 3.33329 3.66659 3.33329H7.99992M9.33325 12.6666L12.6666 9.33329M9.33325 12.6666V9.66663C9.33325 9.48253 9.48249 9.33329 9.66658 9.33329H12.6666M12.6666 9.33329V7.83329" stroke="#233043" stroke-linecap="round" stroke-linejoin="round"/>
<path d="M11.9999 6C13.1045 6 13.9999 5.10457 13.9999 4C13.9999 2.89543 13.1045 2 11.9999 2C10.8953 2 9.99991 2.89543 9.99991 4C9.99991 5.10457 10.8953 6 11.9999 6Z" fill="#FCC205"/>
</svg>
