<svg width="16" height="16" viewBox="0 0 16 16" fill="none" xmlns="http://www.w3.org/2000/svg">
<path d="M9.42857 13H3.75C3.33579 13 3 12.6642 3 12.25V3.75C3 3.33579 3.33579 3 3.75 3H8M9.42857 13L13 9.42857M9.42857 13V10.1786C9.42857 9.76436 9.76436 9.42857 10.1786 9.42857H13M13 9.42857V7.82143" stroke="#233043" stroke-width="1.5" stroke-linecap="round" stroke-linejoin="round"/>
<path d="M11.9999 6C13.1045 6 13.9999 5.10457 13.9999 4C13.9999 2.89543 13.1045 2 11.9999 2C10.8953 2 9.99992 2.89543 9.99992 4C9.99992 5.10457 10.8953 6 11.9999 6Z" fill="#FCC205"/>
</svg>
