<svg width="16" height="16" viewBox="0 0 16 16" fill="none" xmlns="http://www.w3.org/2000/svg">
<path d="M11.9998 14C13.1043 14 13.9998 13.1046 13.9998 12C13.9998 10.8954 13.1043 10 11.9998 10C10.8952 10 9.99976 10.8954 9.99976 12C9.99976 13.1046 10.8952 14 11.9998 14Z" fill="#FCC205"/>
<path d="M10.0002 3.33325H3.66683C3.48273 3.33325 3.3335 3.48249 3.3335 3.66658V12.3333C3.3335 12.5173 3.48274 12.6666 3.66683 12.6666H8.66683M10.0002 3.33325L12.6668 5.99992M10.0002 3.33325V5.66659C10.0002 5.85068 10.1494 5.99992 10.3335 5.99992H12.6668M12.6668 5.99992V8.66658" stroke="#233043" stroke-linecap="round" stroke-linejoin="round"/>
<path d="M6 6H7.33333" stroke="#233043" stroke-linecap="round" stroke-linejoin="round"/>
<path d="M6 8H10" stroke="#233043" stroke-linecap="round" stroke-linejoin="round"/>
<path d="M6 10H8" stroke="#233043" stroke-linecap="round" stroke-linejoin="round"/>
</svg>
