<svg width="16" height="16" viewBox="0 0 16 16" fill="none" xmlns="http://www.w3.org/2000/svg">
<path fill-rule="evenodd" clip-rule="evenodd" d="M2.375 4.5833C2.375 4.05403 2.80406 3.62497 3.33333 3.62497H12.6667C13.1959 3.62497 13.625 4.05403 13.625 4.5833V12.6666C13.625 13.1959 13.1959 13.625 12.6667 13.625H3.33333C2.80406 13.625 2.375 13.1959 2.375 12.6666V4.5833ZM3.625 4.87497V12.375H12.375V4.87497H3.625Z" fill="#233043"/>
<path fill-rule="evenodd" clip-rule="evenodd" d="M5.49998 2.375C5.84516 2.375 6.12498 2.65482 6.12498 3V4.875C6.12498 5.22018 5.84516 5.5 5.49998 5.5C5.15481 5.5 4.87498 5.22018 4.87498 4.875V3C4.87498 2.65482 5.15481 2.375 5.49998 2.375Z" fill="#233043"/>
<path fill-rule="evenodd" clip-rule="evenodd" d="M7.99995 6.13513C8.34513 6.13513 8.62495 6.41495 8.62495 6.76013V10.4899C8.62495 10.835 8.34513 11.1149 7.99995 11.1149C7.65478 11.1149 7.37495 10.835 7.37495 10.4899V6.76013C7.37495 6.41495 7.65478 6.13513 7.99995 6.13513Z" fill="#233043"/>
<path fill-rule="evenodd" clip-rule="evenodd" d="M5.5101 8.625C5.5101 8.27982 5.78992 8 6.1351 8H9.86483C10.21 8 10.4898 8.27982 10.4898 8.625C10.4898 8.97018 10.21 9.25 9.86483 9.25H6.1351C5.78992 9.25 5.5101 8.97018 5.5101 8.625Z" fill="#233043"/>
<path fill-rule="evenodd" clip-rule="evenodd" d="M10.5 2.375C10.8452 2.375 11.125 2.65482 11.125 3V4.875C11.125 5.22018 10.8452 5.5 10.5 5.5C10.1548 5.5 9.875 5.22018 9.875 4.875V3C9.875 2.65482 10.1548 2.375 10.5 2.375Z" fill="#233043"/>
</svg>
