<svg width="16" height="16" viewBox="0 0 16 16" fill="none" xmlns="http://www.w3.org/2000/svg">
<path fill-rule="evenodd" clip-rule="evenodd" d="M13.3333 7.99984C13.3333 10.9454 10.9455 13.3332 7.99996 13.3332C5.05444 13.3332 2.66663 10.9454 2.66663 7.99984C2.66663 5.05432 5.05444 2.6665 7.99996 2.6665C10.9455 2.6665 13.3333 5.05432 13.3333 7.99984ZM7.99994 4.67157C8.27608 4.67157 8.49994 4.89543 8.49994 5.17157V7.5H10.8284C11.1045 7.5 11.3284 7.72385 11.3284 8C11.3284 8.27614 11.1045 8.5 10.8284 8.5H8.49994V10.8284C8.49994 11.1046 8.27608 11.3284 7.99994 11.3284C7.72379 11.3284 7.49994 11.1046 7.49994 10.8284V8.5H5.17153C4.89539 8.5 4.67153 8.27614 4.67153 8C4.67153 7.72385 4.89539 7.5 5.17153 7.5H7.49994V5.17157C7.49994 4.89543 7.72379 4.67157 7.99994 4.67157Z" fill="#233043"/>
</svg>
