<svg width="16" height="16" viewBox="0 0 16 16" fill="none" xmlns="http://www.w3.org/2000/svg">
<path fill-rule="evenodd" clip-rule="evenodd" d="M6.54057 3C6.21775 3 5.93114 3.20657 5.82906 3.51283L5.33333 5H2.75C2.33579 5 2 5.33579 2 5.75V12.25C2 12.6642 2.33579 13 2.75 13H13.25C13.6642 13 14 12.6642 14 12.25V5.75C14 5.33579 13.6642 5 13.25 5H10.6667L10.1709 3.51283C10.0689 3.20657 9.78225 3 9.45943 3H6.54057ZM10 9C10 10.1046 9.10457 11 8 11C6.89543 11 6 10.1046 6 9C6 7.89543 6.89543 7 8 7C9.10457 7 10 7.89543 10 9Z" fill="#233043"/>
</svg>
