<svg width="16" height="17" viewBox="0 0 16 17" fill="none" xmlns="http://www.w3.org/2000/svg">
<path fill-rule="evenodd" clip-rule="evenodd" d="M12.1655 12.1143C12.3477 12.1143 12.4955 12.2621 12.4955 12.4443V13.67C12.4955 13.8523 12.3477 14 12.1655 14H3.83461C3.65236 14 3.50461 13.8523 3.50461 13.67V12.4443C3.50461 12.2621 3.65236 12.1143 3.83461 12.1143H12.1655ZM7.73983 3.33359C7.87195 3.16425 8.12806 3.16425 8.26018 3.33359L10.5187 6.22826C10.6208 6.35915 10.8043 6.39379 10.9471 6.30915L13.3414 4.89028C13.5905 4.74271 13.8953 4.9644 13.8316 5.24677L12.5535 10.9141C12.5196 11.0646 12.3859 11.1715 12.2316 11.1715H3.76848C3.61419 11.1715 3.4805 11.0646 3.44656 10.9141L2.16841 5.24677C2.10473 4.9644 2.40954 4.7427 2.65856 4.89027L5.05299 6.30916C5.19581 6.39379 5.37928 6.35914 5.4814 6.22825L7.73983 3.33359Z" fill="#233043"/>
</svg>
