<svg width="16" height="16" viewBox="0 0 16 16" fill="none" xmlns="http://www.w3.org/2000/svg">
<path fill-rule="evenodd" clip-rule="evenodd" d="M3.00046 4.12596C2.85857 4.22077 2.94978 4.41728 3.0782 4.52965L7.78266 8.64612C7.90708 8.75499 8.09286 8.75499 8.21728 8.64612L12.9217 4.52965C13.0502 4.41728 13.1414 4.22079 12.9995 4.12597C12.8804 4.0464 12.7373 4 12.5833 4H3.41663C3.26266 4 3.11954 4.04639 3.00046 4.12596ZM13.3333 6.55775C13.3333 6.27423 12.9994 6.1227 12.786 6.30941L8.63104 9.94504C8.26972 10.2612 7.73021 10.2612 7.3689 9.94504L3.21393 6.30939C3.00056 6.12269 2.66663 6.27422 2.66663 6.55774V11.25C2.66663 11.6642 3.00241 12 3.41663 12H12.5833C12.9975 12 13.3333 11.6642 13.3333 11.25V6.55775Z" fill="#233043"/>
</svg>
