<svg width="16" height="16" viewBox="0 0 16 16" fill="none" xmlns="http://www.w3.org/2000/svg">
<path fill-rule="evenodd" clip-rule="evenodd" d="M2.4127 5.34155C2.25053 5.20255 2 5.31778 2 5.53136V12.25C2 12.6642 2.33579 13 2.75 13H13.25C13.6642 13 14 12.6642 14 12.25V5.53136C14 5.31778 13.7495 5.20255 13.5873 5.34155L8.77605 9.46548C8.32948 9.84825 7.67052 9.84825 7.22395 9.46548L2.4127 5.34155ZM12.3344 4.43981C12.5107 4.28876 12.4038 4 12.1717 4H3.82826C3.59616 4 3.48933 4.28876 3.66556 4.43981L7.8373 8.01559C7.93092 8.09584 8.06908 8.09584 8.1627 8.01559L12.3344 4.43981Z" fill="#233043"/>
</svg>
