<svg width="16" height="16" viewBox="0 0 16 16" fill="none" xmlns="http://www.w3.org/2000/svg">
<path fill-rule="evenodd" clip-rule="evenodd" d="M2.16666 9.33333C2.16666 6.11167 4.77833 3.5 7.99999 3.5C11.2217 3.5 13.8333 6.11167 13.8333 9.33333V11.9158C13.8333 12.2384 13.5718 12.5 13.2491 12.5H10.745C10.6793 11.3991 9.96586 10.4726 8.98058 10.0965L9.71151 7.90367C9.8425 7.51072 9.63013 7.08598 9.23717 6.95499C8.84421 6.82401 8.41947 7.03638 8.28849 7.42933L7.44044 9.97347C6.24265 10.2211 5.32975 11.2476 5.25496 12.5H2.75087C2.42822 12.5 2.16666 12.2384 2.16666 11.9158V9.33333ZM6.76099 12.5H9.23901C9.15819 11.8928 8.64155 11.4234 8.01391 11.4166C8.0047 11.4168 7.99547 11.4168 7.98623 11.4166C7.35853 11.4234 6.84181 11.8928 6.76099 12.5ZM8.5 5.8335C8.5 6.10964 8.27614 6.3335 8 6.3335C7.72386 6.3335 7.5 6.10964 7.5 5.8335C7.5 5.55735 7.72386 5.3335 8 5.3335C8.27614 5.3335 8.5 5.55735 8.5 5.8335ZM5.16666 7.6665C5.4428 7.6665 5.66666 7.44265 5.66666 7.1665C5.66666 6.89036 5.4428 6.6665 5.16666 6.6665C4.89051 6.6665 4.66666 6.89036 4.66666 7.1665C4.66666 7.44265 4.89051 7.6665 5.16666 7.6665ZM5 9.81299C5 10.0891 4.77614 10.313 4.5 10.313C4.22386 10.313 4 10.0891 4 9.81299C4 9.53685 4.22386 9.31299 4.5 9.31299C4.77614 9.31299 5 9.53685 5 9.81299ZM11.5 10.313C11.7761 10.313 12 10.0891 12 9.81299C12 9.53685 11.7761 9.31299 11.5 9.31299C11.2239 9.31299 11 9.53685 11 9.81299C11 10.0891 11.2239 10.313 11.5 10.313ZM11.3333 7.1665C11.3333 7.44265 11.1095 7.6665 10.8333 7.6665C10.5572 7.6665 10.3333 7.44265 10.3333 7.1665C10.3333 6.89036 10.5572 6.6665 10.8333 6.6665C11.1095 6.6665 11.3333 6.89036 11.3333 7.1665Z" fill="#233043"/>
</svg>
