<svg width="16" height="16" viewBox="0 0 16 16" fill="none" xmlns="http://www.w3.org/2000/svg">
<path d="M7.99999 7.33325H13.3333V5.33325H7.99999M7.99999 7.33325H2.66666V5.33325H7.99999M7.99999 7.33325V5.33325" stroke="#233043" stroke-linecap="round" stroke-linejoin="round"/>
<path d="M8.00001 7.33325H3.33334V13.3333H8.00001M8.00001 7.33325H12.6667V13.3333H8.00001M8.00001 7.33325V13.3333" stroke="#233043" stroke-linecap="round" stroke-linejoin="round"/>
<path d="M6.61171 3.20813C7.14752 3.50725 8.06462 5.16449 8.06462 5.16449C8.06462 5.16449 6.17264 5.25356 5.63683 4.95444C5.10102 4.65532 4.88489 4.02192 5.1541 3.53969C5.4233 3.05746 6.0759 2.90901 6.61171 3.20813Z" stroke="#233043" stroke-linecap="round" stroke-linejoin="round"/>
<path d="M9.27369 3.20813C8.73788 3.50725 7.82079 5.16449 7.82079 5.16449C7.82079 5.16449 9.71277 5.25356 10.2486 4.95444C10.7844 4.65532 11.0005 4.02192 10.7313 3.53969C10.4621 3.05746 9.80951 2.90901 9.27369 3.20813Z" stroke="#233043" stroke-linecap="round" stroke-linejoin="round"/>
</svg>
