<svg width="16" height="16" viewBox="0 0 16 16" fill="none" xmlns="http://www.w3.org/2000/svg">
<circle cx="7.99999" cy="8.00008" r="5.33333" stroke="#233043" stroke-linecap="round" stroke-linejoin="round"/>
<circle cx="8.00001" cy="7.99992" r="2.66667" stroke="#233043" stroke-linecap="round" stroke-linejoin="round"/>
<circle cx="7.99999" cy="8.00008" r="0.333333" fill="#233043" stroke="#233043" stroke-linecap="round" stroke-linejoin="round"/>
<path d="M7.99999 7.99992L12.6667 3.33325" stroke="#233043" stroke-linecap="round" stroke-linejoin="round"/>
<path d="M12.0774 3.60419L12.0774 2.58744C12.0774 2.49903 12.1125 2.41425 12.175 2.35174L13.0028 1.52394C13.0904 1.43633 13.2396 1.47155 13.2788 1.58909L13.5128 2.29125C13.546 2.39079 13.6241 2.46889 13.7237 2.50207L14.4258 2.73613C14.5434 2.77531 14.5786 2.92449 14.491 3.01209L13.6632 3.83989C13.6007 3.9024 13.5159 3.93752 13.4275 3.93752L12.4107 3.93752C12.2266 3.93752 12.0774 3.78829 12.0774 3.60419Z" fill="#233043"/>
</svg>
