<svg width="16" height="16" viewBox="0 0 16 16" fill="none" xmlns="http://www.w3.org/2000/svg">
<path fill-rule="evenodd" clip-rule="evenodd" d="M13.3333 7.99984C13.3333 10.9454 10.9455 13.3332 7.99999 13.3332C5.05447 13.3332 2.66666 10.9454 2.66666 7.99984C2.66666 5.05432 5.05447 2.6665 7.99999 2.6665C10.9455 2.6665 13.3333 5.05432 13.3333 7.99984ZM7.99999 5.34619C7.2315 5.34619 6.60852 5.96917 6.60852 6.73766C6.60852 7.0138 6.38466 7.23766 6.10852 7.23766C5.83238 7.23766 5.60852 7.0138 5.60852 6.73766C5.60852 5.41689 6.67922 4.34619 7.99999 4.34619C9.32076 4.34619 10.3915 5.41689 10.3915 6.73766C10.3915 7.84289 9.64216 8.77182 8.62471 9.04658C8.57516 9.05996 8.53608 9.08582 8.51462 9.10907C8.50482 9.11969 8.5012 9.12696 8.50022 9.12927L8.49999 9.12985V9.57487C8.49999 9.85101 8.27613 10.0749 7.99999 10.0749C7.72385 10.0749 7.49999 9.85101 7.49999 9.57487V9.12913C7.49999 8.55465 7.95811 8.19078 8.364 8.08117C8.9563 7.92122 9.39146 7.37962 9.39146 6.73766C9.39146 5.96917 8.76848 5.34619 7.99999 5.34619ZM8.00003 12.2212C8.41424 12.2212 8.75003 11.8854 8.75003 11.4712C8.75003 11.057 8.41424 10.7212 8.00003 10.7212C7.58582 10.7212 7.25003 11.057 7.25003 11.4712C7.25003 11.8854 7.58582 12.2212 8.00003 12.2212Z" fill="#233043"/>
</svg>
