<svg width="16" height="16" viewBox="0 0 16 16" fill="none" xmlns="http://www.w3.org/2000/svg">
<path d="M12.9127 6.13346L13.4009 5.56408L12.9127 6.13346ZM7.83728 2.06094L7.34911 1.49156L7.83728 2.06094ZM8.16272 2.06094L8.65089 1.49156L8.16272 2.06094ZM3.08728 6.13346L2.59911 5.56408L3.08728 6.13346ZM3.57545 6.70284L8.32545 2.63032L7.34911 1.49156L2.59911 5.56408L3.57545 6.70284ZM3.75 13.7503V6.32325H2.25V13.7503H3.75ZM6.25 13.2503H3.25V14.7503H6.25V13.2503ZM7.25 13.7503V10.2929H5.75V13.7503H7.25ZM6.75 10.7929H9.25V9.29291H6.75V10.7929ZM8.75 10.2929V13.7503H10.25V10.2929H8.75ZM12.75 13.2503H9.75V14.7503H12.75V13.2503ZM12.25 6.32325V13.7503H13.75V6.32325H12.25ZM7.67455 2.63032L12.4246 6.70284L13.4009 5.56408L8.65089 1.49156L7.67455 2.63032ZM13.75 6.32325C13.75 6.03137 13.6225 5.75406 13.4009 5.56408L12.4246 6.70284C12.3138 6.60784 12.25 6.46919 12.25 6.32325H13.75ZM12.75 14.7503C13.3023 14.7503 13.75 14.3026 13.75 13.7503H12.25C12.25 13.4742 12.4739 13.2503 12.75 13.2503V14.7503ZM8.75 13.7503C8.75 14.3026 9.19772 14.7503 9.75 14.7503V13.2503C10.0261 13.2503 10.25 13.4742 10.25 13.7503H8.75ZM9.25 10.7929C8.97386 10.7929 8.75 10.569 8.75 10.2929H10.25C10.25 9.74062 9.80229 9.29291 9.25 9.29291V10.7929ZM7.25 10.2929C7.25 10.569 7.02614 10.7929 6.75 10.7929V9.29291C6.19772 9.29291 5.75 9.74062 5.75 10.2929H7.25ZM6.25 14.7503C6.80228 14.7503 7.25 14.3026 7.25 13.7503H5.75C5.75 13.4742 5.97386 13.2503 6.25 13.2503V14.7503ZM2.25 13.7503C2.25 14.3026 2.69772 14.7503 3.25 14.7503V13.2503C3.52614 13.2503 3.75 13.4742 3.75 13.7503H2.25ZM8.32545 2.63032C8.13818 2.79087 7.86182 2.79087 7.67455 2.63032L8.65089 1.49156C8.27637 1.17046 7.72363 1.17046 7.34911 1.49156L8.32545 2.63032ZM2.59911 5.56408C2.37752 5.75406 2.25 6.03137 2.25 6.32325H3.75C3.75 6.46919 3.68624 6.60785 3.57545 6.70284L2.59911 5.56408Z" fill="#233043"/>
</svg>
