<svg width="16" height="16" viewBox="0 0 16 16" fill="none" xmlns="http://www.w3.org/2000/svg">
<path d="M3.33334 6.66675L3.00795 6.28712C2.89712 6.38211 2.83334 6.52079 2.83334 6.66675H3.33334ZM8.00001 2.66675L8.32541 2.28712C8.13816 2.12662 7.86186 2.12662 7.67461 2.28712L8.00001 2.66675ZM3.33334 13.3334H2.83334C2.83334 13.6096 3.0572 13.8334 3.33334 13.8334V13.3334ZM6.66676 13.3334V13.8334C6.9429 13.8334 7.16676 13.6096 7.16676 13.3334H6.66676ZM6.66676 9.33339V8.83339C6.39062 8.83339 6.16676 9.05725 6.16676 9.33339H6.66676ZM9.33343 9.33339H9.83343C9.83343 9.05725 9.60957 8.83339 9.33343 8.83339V9.33339ZM9.33343 13.3334H8.83343C8.83343 13.6096 9.05728 13.8334 9.33343 13.8334V13.3334ZM12.6667 13.3334V13.8334C12.9428 13.8334 13.1667 13.6096 13.1667 13.3334H12.6667ZM12.6667 6.66675H13.1667C13.1667 6.52079 13.1029 6.38211 12.9921 6.28712L12.6667 6.66675ZM3.65874 7.04638L8.32541 3.04638L7.67461 2.28712L3.00795 6.28712L3.65874 7.04638ZM3.83334 13.3334V6.66675H2.83334V13.3334H3.83334ZM6.66676 12.8334H3.33334V13.8334H6.66676V12.8334ZM7.16676 13.3334V9.33339H6.16676V13.3334H7.16676ZM6.66676 9.83339H9.33343V8.83339H6.66676V9.83339ZM8.83343 9.33339V13.3334H9.83343V9.33339H8.83343ZM12.6667 12.8334H9.33343V13.8334H12.6667V12.8334ZM12.1667 6.66675V13.3334H13.1667V6.66675H12.1667ZM7.67461 3.04638L12.3413 7.04638L12.9921 6.28712L8.32541 2.28712L7.67461 3.04638Z" fill="#233043"/>
</svg>
