<svg width="16" height="16" viewBox="0 0 16 16" fill="none" xmlns="http://www.w3.org/2000/svg">
<path fill-rule="evenodd" clip-rule="evenodd" d="M14 8C14 11.3137 11.3137 14 7.99999 14C4.68628 14 1.99999 11.3137 1.99999 8C1.99999 4.68629 4.68628 2 7.99999 2C11.3137 2 14 4.68629 14 8ZM7.99999 6.5C8.4142 6.5 8.74999 6.83579 8.74999 7.25V11.25C8.74999 11.6642 8.4142 12 7.99999 12C7.58578 12 7.24999 11.6642 7.24999 11.25V7.25C7.24999 6.83579 7.58578 6.5 7.99999 6.5ZM7.99999 5.75C8.4142 5.75 8.74999 5.41421 8.74999 5C8.74999 4.58579 8.4142 4.25 7.99999 4.25C7.58578 4.25 7.24999 4.58579 7.24999 5C7.24999 5.41421 7.58578 5.75 7.99999 5.75Z" fill="#233043"/>
</svg>
