<svg width="16" height="16" viewBox="0 0 16 16" fill="none" xmlns="http://www.w3.org/2000/svg">
<path fill-rule="evenodd" clip-rule="evenodd" d="M13.3334 7.99984C13.3334 10.9454 10.9456 13.3332 8.00005 13.3332C5.05453 13.3332 2.66672 10.9454 2.66672 7.99984C2.66672 5.05432 5.05453 2.6665 8.00005 2.6665C10.9456 2.6665 13.3334 5.05432 13.3334 7.99984ZM8.00001 6.91103C8.27615 6.91103 8.50001 7.13489 8.50001 7.41103V10.7619C8.50001 11.0381 8.27615 11.2619 8.00001 11.2619C7.72387 11.2619 7.50001 11.0381 7.50001 10.7619V7.41103C7.50001 7.13489 7.72387 6.91103 8.00001 6.91103ZM7.99997 6.12505C8.36816 6.12505 8.66663 5.82657 8.66663 5.45838C8.66663 5.09019 8.36816 4.79172 7.99997 4.79172C7.63178 4.79172 7.3333 5.09019 7.3333 5.45838C7.3333 5.82657 7.63178 6.12505 7.99997 6.12505Z" fill="#233043"/>
</svg>
