<svg width="16" height="16" viewBox="0 0 16 16" fill="none" xmlns="http://www.w3.org/2000/svg">
<path fill-rule="evenodd" clip-rule="evenodd" d="M7.85997 3.35522C7.76295 3.34775 7.66751 3.38306 7.5987 3.45187L2.28596 8.76461C2.15578 8.89479 2.15578 9.10584 2.28596 9.23602L6.7643 13.7144C6.89447 13.8445 7.10553 13.8445 7.2357 13.7144L12.5484 8.40161C12.6173 8.33281 12.6526 8.23737 12.6451 8.14035L12.3252 3.98189C12.3126 3.81796 12.1824 3.68771 12.0184 3.6751L7.85997 3.35522ZM9.38644 6.61389C9.64679 6.87424 10.0689 6.87424 10.3293 6.61389C10.5896 6.35354 10.5896 5.93143 10.3293 5.67108C10.0689 5.41073 9.64679 5.41073 9.38644 5.67108C9.12609 5.93143 9.12609 6.35354 9.38644 6.61389Z" fill="#233043"/>
</svg>
