<svg width="16" height="16" viewBox="0 0 16 16" fill="none" xmlns="http://www.w3.org/2000/svg">
<path d="M5.33333 5.33329C5.33333 3.86053 6.52724 2.66663 8 2.66663V2.66663C9.47276 2.66663 10.6667 3.86053 10.6667 5.33329V6.63655C10.6667 6.65316 10.6532 6.66663 10.6366 6.66663H5.36341C5.3468 6.66663 5.33333 6.65316 5.33333 6.63655V5.33329Z" stroke="#233043" stroke-linecap="round" stroke-linejoin="round"/>
<path fill-rule="evenodd" clip-rule="evenodd" d="M3.39465 6C2.98044 6 2.64465 6.33579 2.64465 6.75V13.25C2.64465 13.6642 2.98044 14 3.39465 14H12.6053C13.0196 14 13.3553 13.6642 13.3553 13.25V6.75C13.3553 6.33579 13.0196 6 12.6053 6H3.39465ZM8.66664 9.33341C8.66664 9.56479 8.54877 9.76863 8.3698 9.88818L8.98786 10.8153C9.13554 11.0368 8.97674 11.3335 8.71051 11.3335H7.28952C7.02329 11.3335 6.86449 11.0368 7.01217 10.8153L7.6302 9.88822C7.4512 9.76868 7.33331 9.56481 7.33331 9.33341C7.33331 8.96522 7.63178 8.66675 7.99997 8.66675C8.36816 8.66675 8.66664 8.96522 8.66664 9.33341Z" fill="#233043"/>
</svg>
