<svg width="16" height="16" viewBox="0 0 16 16" fill="none" xmlns="http://www.w3.org/2000/svg">
<path d="M3.33337 6.66683V12.3335C3.33337 12.5176 3.48261 12.6668 3.66671 12.6668H7.00004M3.33337 6.66683V3.66683C3.33337 3.48273 3.48261 3.3335 3.66671 3.3335H8.00004M3.33337 6.66683H7.00004M9.40295 6.66683H7.00004M7.00004 6.66683V12.6668M7.00004 12.6668H12.3334C12.5175 12.6668 12.6667 12.5176 12.6667 12.3335V7.28212" stroke="#233043" stroke-linecap="round" stroke-linejoin="round"/>
<path d="M11.6667 6C12.7713 6 13.6667 5.10457 13.6667 4C13.6667 2.89543 12.7713 2 11.6667 2C10.5622 2 9.66675 2.89543 9.66675 4C9.66675 5.10457 10.5622 6 11.6667 6Z" fill="#FF5971"/>
</svg>
