<svg width="16" height="16" viewBox="0 0 16 16" fill="none" xmlns="http://www.w3.org/2000/svg">
<path d="M3.33333 3V5" stroke="#233043" stroke-linecap="round" stroke-linejoin="round"/>
<path d="M2.66667 7.66667C2.66667 7.44444 2.8 7 3.33333 7C3.86667 7 4 7.44444 4 7.66667C4 8.33333 2.66667 9 2.66667 9H4" stroke="#233043" stroke-linecap="round" stroke-linejoin="round"/>
<path d="M2.66667 11C3 11 2.8 11 3.33333 11C3.86667 11 4 11 4 11C3.66667 11.3333 3.66667 11.3333 3.33333 11.6667C3.33333 11.6667 4 11.6667 4 12.3333C4 13 3.37653 13 3.33333 13C2.66667 13 2.66667 12.5 2.66667 12.5" stroke="#233043" stroke-linecap="round" stroke-linejoin="round"/>
<path d="M6.5 4H13.5" stroke="#233043" stroke-width="1.5" stroke-linecap="round" stroke-linejoin="round"/>
<path d="M6.5 8H13.5" stroke="#233043" stroke-width="1.5" stroke-linecap="round" stroke-linejoin="round"/>
<path d="M6.5 12H13.5" stroke="#233043" stroke-width="1.5" stroke-linecap="round" stroke-linejoin="round"/>
</svg>
