<svg width="17" height="16" viewBox="0 0 17 16" fill="none" xmlns="http://www.w3.org/2000/svg">
<path d="M12.6844 8.52882C12.8667 8.52882 13.0136 8.677 13.002 8.85888C12.8319 11.5161 10.6228 13.6187 7.92266 13.6187C5.11161 13.6187 2.83281 11.3399 2.83281 8.52882C2.83281 5.82866 4.93538 3.61957 7.5926 3.4495C7.77448 3.43785 7.92266 3.58544 7.92266 3.76769C7.92266 4.87386 7.92266 7.31638 7.92266 8.20089C7.92266 8.38315 8.06848 8.52882 8.25074 8.52882C9.15527 8.52882 11.6838 8.52882 12.6844 8.52882Z" fill="#233043"/>
<path d="M14.1565 7.13768C14.1683 7.32139 14.0176 7.47108 13.8335 7.47108C11.8063 7.47108 10.1024 7.47108 9.40962 7.47108C9.22552 7.47108 9.07736 7.32053 9.07736 7.13644C9.07736 4.79068 9.07735 4.10403 9.07736 2.71495C9.07736 2.53085 9.22705 2.38009 9.41076 2.39197C11.9562 2.55656 13.9919 4.59225 14.1565 7.13768Z" fill="#233043"/>
</svg>
