<svg width="16" height="16" viewBox="0 0 16 16" fill="none" xmlns="http://www.w3.org/2000/svg">
<path d="M13.252 8C13.6662 8 14.0049 8.33747 13.9538 8.74851C13.5854 11.709 11.0602 14 8 14C4.68629 14 2 11.3137 2 8C2 4.93977 4.29103 2.41465 7.25149 2.04623C7.66253 1.99508 8 2.33454 8 2.74876C8 4.00997 8 6.12897 8 7.25081C8 7.66503 8.33369 8 8.7479 8C9.88782 8 12.0536 8 13.252 8Z" fill="#233043"/>
<path d="M14.9538 6.25149C15.0049 6.66253 14.6636 7 14.2494 7C12.3096 7 10.6573 7 9.74915 7C9.33494 7 9.00002 6.66256 9.00002 6.24834C9.00002 3.96236 9.00001 3.096 9.00001 1.75049C9.00002 1.33628 9.33748 0.995083 9.74852 1.04623C12.4638 1.38413 14.6159 3.53625 14.9538 6.25149Z" fill="#233043"/>
</svg>
