<svg width="16" height="16" viewBox="0 0 16 16" fill="none" xmlns="http://www.w3.org/2000/svg">
<path d="M11.335 8.99992C11.5191 8.99992 11.6678 9.14966 11.6549 9.3333C11.4839 11.755 9.46515 13.6666 6.99992 13.6666C4.42259 13.6666 2.33325 11.5772 2.33325 8.99992C2.33325 6.53468 4.2448 4.51592 6.66654 4.34498C6.85018 4.33201 6.99992 4.48238 6.99992 4.66648C6.99992 5.68177 6.99992 7.84031 6.99992 8.66765C6.99992 8.85175 7.14722 8.99992 7.33131 8.99992C8.17616 8.99992 10.409 8.99992 11.335 8.99992Z" stroke="#233043" stroke-linecap="round" stroke-linejoin="round"/>
<path d="M13.6548 6.66654C13.6678 6.85018 13.5169 6.99992 13.3328 6.99992C11.5126 6.99992 9.98062 6.99992 9.33202 6.99992C9.14793 6.99992 8.99989 6.84931 8.99989 6.66522C8.99989 4.55258 8.99988 3.91665 8.99989 2.66713C8.99989 2.48304 9.14963 2.33201 9.33327 2.34498C11.6449 2.50814 13.4917 4.35492 13.6548 6.66654Z" stroke="#233043" stroke-linecap="round" stroke-linejoin="round"/>
</svg>
