<svg width="16" height="16" viewBox="0 0 16 16" fill="none" xmlns="http://www.w3.org/2000/svg">
<path d="M10.3164 2.62846L10.6699 2.98202L10.3164 2.62846ZM7.07332 5.87151L7.00297 6.36653C7.15865 6.38866 7.31568 6.33625 7.42687 6.22506L7.07332 5.87151ZM4.0648 6.73088L3.74286 6.34831L3.74286 6.34831L4.0648 6.73088ZM9.46795 12.134L9.85051 12.456L9.85051 12.456L9.46795 12.134ZM10.3273 9.1255L9.97376 8.77195C9.86257 8.88314 9.81017 9.04017 9.83229 9.19586L10.3273 9.1255ZM13.5704 5.88246L13.9239 6.23602L13.5704 5.88246ZM10.6699 2.98202C10.6048 3.0471 10.4993 3.0471 10.4342 2.98202L11.1413 2.27491C10.8159 1.94947 10.2882 1.94947 9.96281 2.27491L10.6699 2.98202ZM7.42687 6.22506L10.6699 2.98202L9.96281 2.27491L6.71977 5.51795L7.42687 6.22506ZM4.38673 7.11344C5.13208 6.48622 6.08834 6.23654 7.00297 6.36653L7.14367 5.37648C5.95796 5.20797 4.71385 5.53121 3.74286 6.34831L4.38673 7.11344ZM4.40838 6.83852C4.46482 6.89496 4.49181 7.02502 4.38673 7.11344L3.74286 6.34831C3.35607 6.67381 3.38448 7.22883 3.70127 7.54563L4.40838 6.83852ZM9.3603 11.7904L4.40838 6.83852L3.70127 7.54563L8.6532 12.4976L9.3603 11.7904ZM9.08538 11.8121C9.17381 11.707 9.30386 11.734 9.3603 11.7904L8.6532 12.4976C8.96999 12.8143 9.52502 12.8428 9.85051 12.456L9.08538 11.8121ZM9.83229 9.19586C9.96228 10.1105 9.71261 11.0667 9.08538 11.8121L9.85051 12.456C10.6676 11.485 10.9909 10.2409 10.8223 9.05515L9.83229 9.19586ZM13.2168 5.52891L9.97376 8.77195L10.6809 9.47906L13.9239 6.23602L13.2168 5.52891ZM13.2168 5.76461C13.1517 5.69952 13.1517 5.594 13.2168 5.52891L13.9239 6.23602C14.2494 5.91058 14.2493 5.38294 13.9239 5.0575L13.2168 5.76461ZM10.4342 2.98202L13.2168 5.76461L13.9239 5.0575L11.1413 2.27491L10.4342 2.98202Z" fill="#233043"/>
<path d="M6.53635 9.67383L3.70792 12.5023" stroke="#233043" stroke-linecap="round" stroke-linejoin="round"/>
</svg>
