<svg width="16" height="16" viewBox="0 0 16 16" fill="none" xmlns="http://www.w3.org/2000/svg">
<circle cx="7.99998" cy="5.99992" r="1.66667" stroke="#233043" stroke-linecap="round" stroke-linejoin="round"/>
<path d="M5.33331 11.3704C5.33331 10.0613 6.39456 9 7.70368 9H8.29628C9.60539 9 10.6666 10.0613 10.6666 11.3704V11.3704C10.6666 11.534 10.534 11.6667 10.3704 11.6667H5.62961C5.46597 11.6667 5.33331 11.534 5.33331 11.3704V11.3704Z" stroke="#233043" stroke-linecap="round" stroke-linejoin="round"/>
<path d="M13.3333 5.33341V3.00008C13.3333 2.81599 13.1841 2.66675 13 2.66675H10.6667M5.33332 2.66675H2.99999C2.81589 2.66675 2.66666 2.81599 2.66666 3.00008V5.33341M2.66666 10.6667V13.0001C2.66666 13.1842 2.8159 13.3334 2.99999 13.3334H5.33332M10.6667 13.3334H13C13.1841 13.3334 13.3333 13.1842 13.3333 13.0001V10.6667" stroke="#233043" stroke-linecap="round" stroke-linejoin="round"/>
</svg>
