<svg width="16" height="16" viewBox="0 0 16 16" fill="none" xmlns="http://www.w3.org/2000/svg">
<circle cx="8.00001" cy="5.5" r="1.75" stroke="#233043" stroke-width="1.5" stroke-linecap="round" stroke-linejoin="round"/>
<path d="M5.00001 11.6667C5.00001 10.1939 6.19392 9 7.66668 9H8.33334C9.8061 9 11 10.1939 11 11.6667V11.6667C11 11.8508 10.8508 12 10.6667 12H5.33334C5.14925 12 5.00001 11.8508 5.00001 11.6667V11.6667Z" stroke="#233043" stroke-width="1.5" stroke-linecap="round" stroke-linejoin="round"/>
<path d="M14 5V2.33333C14 2.14924 13.8508 2 13.6667 2H11M5.00001 2H2.33334C2.14925 2 2.00001 2.14924 2.00001 2.33333V5M2.00001 11V13.6667C2.00001 13.8508 2.14925 14 2.33334 14H5.00001M11 14H13.6667C13.8508 14 14 13.8508 14 13.6667V11" stroke="#233043" stroke-width="1.5" stroke-linecap="round" stroke-linejoin="round"/>
</svg>
