<svg width="16" height="16" viewBox="0 0 16 16" fill="none" xmlns="http://www.w3.org/2000/svg">
<path d="M2 10.1668C2 9.98273 2.14924 9.8335 2.33333 9.8335H4V13.1668H2.33333C2.14924 13.1668 2 13.0176 2 12.8335V10.1668Z" stroke="#233043" stroke-linecap="round" stroke-linejoin="round"/>
<path d="M6.38413 8.50908L6.62695 8.94616L6.62695 8.94616L6.38413 8.50908ZM4.17145 9.73835L3.92863 9.30127L3.92863 9.30127L4.17145 9.73835ZM6.87397 8.86009L6.38204 8.77065V8.77065L6.87397 8.86009ZM6.57576 10.5003L6.08382 10.4108C6.0573 10.5567 6.09688 10.7068 6.19188 10.8206C6.28688 10.9345 6.4275 11.0003 6.57576 11.0003V10.5003ZM11.6 11.0336L12 11.3336L12 11.3336L11.6 11.0336ZM10.1 13.0336L10.5 13.3336L10.5 13.3336L10.1 13.0336ZM6.14131 8.072L3.92863 9.30127L4.41427 10.1754L6.62695 8.94616L6.14131 8.072ZM7.36591 8.94954C7.49175 8.25739 6.75628 7.73035 6.14131 8.072L6.62695 8.94616C6.50396 9.01449 6.35687 8.90908 6.38204 8.77065L7.36591 8.94954ZM7.06769 10.5897L7.36591 8.94954L6.38204 8.77065L6.08382 10.4108L7.06769 10.5897ZM6.57576 11.0003H11.3333V10.0003H6.57576V11.0003ZM11.3333 11.0003C11.196 11.0003 11.1176 10.8435 11.2 10.7336L12 11.3336C12.412 10.7842 12.02 10.0003 11.3333 10.0003V11.0003ZM11.2 10.7336L9.7 12.7336L10.5 13.3336L12 11.3336L11.2 10.7336ZM9.7 12.7336C9.73148 12.6916 9.78087 12.6669 9.83333 12.6669V13.6669C10.0956 13.6669 10.3426 13.5434 10.5 13.3336L9.7 12.7336ZM9.83333 12.6669H4.33333V13.6669H9.83333V12.6669ZM4.33333 12.6669C4.42538 12.6669 4.5 12.7415 4.5 12.8336H3.5C3.5 13.2938 3.8731 13.6669 4.33333 13.6669V12.6669ZM4.5 12.8336V11.5003H3.5V12.8336H4.5ZM4.5 11.5003V10.8336H3.5V11.5003H4.5ZM3.5 10.0297V10.8336H4.5V10.0297H3.5ZM3.92863 9.30127C3.66408 9.44824 3.5 9.72709 3.5 10.0297H4.5C4.5 10.0903 4.46718 10.146 4.41427 10.1754L3.92863 9.30127Z" fill="#233043"/>
<path d="M10.6667 2.8335L11.6463 4.81847L13.8369 5.13677L12.2518 6.68186L12.626 8.86355L10.6667 7.8335L8.70739 8.86355L9.08158 6.68186L7.49649 5.13677L9.68703 4.81847L10.6667 2.8335Z" stroke="#233043" stroke-linecap="round" stroke-linejoin="round"/>
</svg>
