<svg width="16" height="16" viewBox="0 0 16 16" fill="none" xmlns="http://www.w3.org/2000/svg">
<path d="M6.60559 9.50566C6.60559 9.50566 6.60559 10.5515 8.00001 10.5515C8.09036 10.5515 9.39444 10.5515 9.39444 9.15705C9.39444 7.76262 8.00001 7.76263 8.00001 7.76263C8.00001 7.76263 6.84279 7.76264 6.84279 6.60544C6.84279 5.44824 7.92502 5.44824 7.99999 5.44824C8.64334 5.44824 8.92902 5.71649 9.05587 5.95473" stroke="#233043" stroke-linecap="round" stroke-linejoin="round"/>
<path d="M3.5 13H12.5C12.7761 13 13 12.7761 13 12.5V3.5C13 3.22386 12.7761 3 12.5 3H3.5C3.22386 3 3 3.22386 3 3.5V12.5C3 12.7761 3.22386 13 3.5 13Z" stroke="#233043" stroke-linecap="round" stroke-linejoin="round"/>
</svg>
