<svg width="16" height="16" viewBox="0 0 16 16" fill="none" xmlns="http://www.w3.org/2000/svg">
<path fill-rule="evenodd" clip-rule="evenodd" d="M6.47776 3.40313C6.57119 3.37235 6.64848 3.30456 6.68723 3.21414L7.2199 1.97125C7.2719 1.84991 7.39121 1.77124 7.52322 1.77124H8.47678C8.60879 1.77124 8.7281 1.84991 8.7801 1.97125L9.31277 3.21414C9.35152 3.30456 9.42881 3.37235 9.52224 3.40313C9.75233 3.47894 9.97483 3.57147 10.1883 3.67928C10.2762 3.72365 10.3788 3.73039 10.4702 3.69384L11.726 3.19152C11.8485 3.14249 11.9885 3.17122 12.0819 3.26457L12.7561 3.93884C12.8495 4.03219 12.8782 4.17218 12.8292 4.29474L12.3269 5.55056C12.2903 5.64194 12.2971 5.74457 12.3414 5.83242C12.4492 6.04588 12.5417 6.26836 12.6176 6.49845C12.6483 6.59188 12.7161 6.66916 12.8065 6.70791L14.0494 7.24058C14.1708 7.29259 14.2494 7.41189 14.2494 7.5439V8.49747C14.2494 8.62948 14.1708 8.74878 14.0494 8.80078L12.8065 9.33345C12.7161 9.37221 12.6483 9.44949 12.6176 9.54292C12.5417 9.773 12.4492 9.99549 12.3414 10.2089C12.2971 10.2968 12.2903 10.3994 12.3269 10.4908L12.8292 11.7466C12.8782 11.8692 12.8495 12.0092 12.7561 12.1025L12.0819 12.7768C11.9885 12.8701 11.8485 12.8989 11.726 12.8499L10.4702 12.3475C10.3788 12.311 10.2762 12.3177 10.1883 12.3621C9.97483 12.4699 9.75233 12.5624 9.52224 12.6382C9.42881 12.669 9.35152 12.7368 9.31277 12.8272L8.7801 14.0701C8.7281 14.1915 8.60879 14.2701 8.47678 14.2701H7.52322C7.39121 14.2701 7.2719 14.1915 7.2199 14.0701L6.68723 12.8272C6.64848 12.7368 6.57119 12.669 6.47776 12.6382C6.24765 12.5624 6.02515 12.4699 5.81167 12.3621C5.72382 12.3177 5.62119 12.311 5.5298 12.3475L4.27406 12.8498C4.15149 12.8988 4.0115 12.8701 3.91816 12.7768L3.24388 12.1025C3.15054 12.0091 3.12181 11.8692 3.17083 11.7466L3.67314 10.4908C3.70969 10.3994 3.70295 10.2968 3.65858 10.209C3.55078 9.9955 3.45826 9.77301 3.38245 9.54292C3.35166 9.44949 3.28388 9.37221 3.19346 9.33345L1.95056 8.80078C1.82923 8.74878 1.75056 8.62948 1.75056 8.49747V7.5439C1.75056 7.41189 1.82923 7.29259 1.95056 7.24058L3.19346 6.70791C3.28388 6.66916 3.35166 6.59188 3.38245 6.49844C3.45826 6.26836 3.55078 6.04587 3.65858 5.83241C3.70295 5.74456 3.70969 5.64193 3.67314 5.55055L3.17083 4.29479C3.12181 4.17222 3.15054 4.03223 3.24388 3.93888L3.91816 3.26461C4.0115 3.17127 4.15149 3.14253 4.27406 3.19156L5.5298 3.69386C5.62119 3.73041 5.72382 3.72367 5.81167 3.6793C6.02515 3.57148 6.24765 3.47895 6.47776 3.40313ZM8 10.3816C9.30389 10.3816 10.3609 9.32457 10.3609 8.02068C10.3609 6.71679 9.30389 5.65978 8 5.65978C6.69611 5.65978 5.6391 6.71679 5.6391 8.02068C5.6391 9.32457 6.69611 10.3816 8 10.3816Z" fill="#233043"/>
</svg>
