<svg width="16" height="16" viewBox="0 0 16 16" fill="none" xmlns="http://www.w3.org/2000/svg">
<path d="M7.375 2.375V1.875C7.17499 1.875 6.99422 1.9942 6.91543 2.17804L7.375 2.375ZM6.76333 3.80223L6.90442 4.28191C7.04741 4.23985 7.16419 4.13619 7.2229 3.99919L6.76333 3.80223ZM8.625 2.375L9.08457 2.17804C9.00578 1.9942 8.82501 1.875 8.625 1.875V2.375ZM9.23667 3.80223L8.7771 3.99919C8.83581 4.13619 8.95259 4.23985 9.09558 4.28191L9.23667 3.80223ZM10.0934 4.15742L9.85384 4.59628C9.98473 4.66774 10.1407 4.67704 10.2791 4.62166L10.0934 4.15742ZM11.5355 3.58058L11.8891 3.22703C11.7477 3.0856 11.5356 3.04206 11.3498 3.11634L11.5355 3.58058ZM12.4194 4.46447L12.8837 4.65016C12.9579 4.46445 12.9144 4.25234 12.773 4.11091L12.4194 4.46447ZM11.8426 5.90657L11.3783 5.72087C11.323 5.85933 11.3323 6.01528 11.4037 6.14616L11.8426 5.90657ZM12.1978 6.76333L11.7181 6.90442C11.7601 7.04741 11.8638 7.16419 12.0008 7.2229L12.1978 6.76333ZM13.625 7.375H14.125C14.125 7.17499 14.0058 6.99422 13.822 6.91543L13.625 7.375ZM13.625 8.625L13.822 9.08457C14.0058 9.00578 14.125 8.82501 14.125 8.625H13.625ZM12.1978 9.23667L12.0008 8.7771C11.8638 8.83581 11.7601 8.95259 11.7181 9.09558L12.1978 9.23667ZM11.8426 10.0934L11.4037 9.85384C11.3323 9.98472 11.323 10.1407 11.3783 10.2791L11.8426 10.0934ZM12.4194 11.5355L12.773 11.8891C12.9144 11.7477 12.9579 11.5355 12.8837 11.3498L12.4194 11.5355ZM11.5355 12.4194L11.3498 12.8837C11.5356 12.9579 11.7477 12.9144 11.8891 12.773L11.5355 12.4194ZM10.0934 11.8426L10.2791 11.3783C10.1407 11.323 9.98473 11.3323 9.85384 11.4037L10.0934 11.8426ZM9.23667 12.1978L9.09558 11.7181C8.95259 11.7601 8.83581 11.8638 8.7771 12.0008L9.23667 12.1978ZM8.625 13.625V14.125C8.82501 14.125 9.00578 14.0058 9.08457 13.822L8.625 13.625ZM7.375 13.625L6.91543 13.822C6.99422 14.0058 7.17499 14.125 7.375 14.125V13.625ZM6.76333 12.1978L7.2229 12.0008C7.16419 11.8638 7.04741 11.7601 6.90442 11.7181L6.76333 12.1978ZM5.90659 11.8426L6.14618 11.4037C6.0153 11.3323 5.85935 11.323 5.72089 11.3784L5.90659 11.8426ZM4.46451 12.4194L4.11095 12.773C4.25238 12.9144 4.46449 12.9579 4.6502 12.8837L4.46451 12.4194ZM3.58062 11.5355L3.11638 11.3498C3.0421 11.5356 3.08564 11.7477 3.22707 11.8891L3.58062 11.5355ZM4.15745 10.0935L4.62169 10.2792C4.67707 10.1407 4.66776 9.98477 4.5963 9.85388L4.15745 10.0935ZM3.80223 9.23667L4.28191 9.09558C4.23985 8.95259 4.13619 8.83581 3.99919 8.7771L3.80223 9.23667ZM2.375 8.625H1.875C1.875 8.82501 1.9942 9.00578 2.17804 9.08457L2.375 8.625ZM2.375 7.375L2.17804 6.91543C1.9942 6.99422 1.875 7.17499 1.875 7.375H2.375ZM3.80223 6.76333L3.99919 7.2229C4.13619 7.16419 4.23985 7.04741 4.28191 6.90442L3.80223 6.76333ZM4.15745 5.90652L4.5963 6.14612C4.66776 6.01523 4.67707 5.85928 4.62169 5.72083L4.15745 5.90652ZM3.58062 4.46446L3.22707 4.11091C3.08564 4.25234 3.0421 4.46445 3.11638 4.65016L3.58062 4.46446ZM4.46451 3.58058L4.6502 3.11634C4.46449 3.04206 4.25238 3.08559 4.11095 3.22702L4.46451 3.58058ZM5.90659 4.15741L5.72089 4.62165C5.85935 4.67703 6.0153 4.66772 6.14618 4.59627L5.90659 4.15741ZM6.91543 2.17804L6.30376 3.60527L7.2229 3.99919L7.83457 2.57196L6.91543 2.17804ZM8.625 1.875H7.375V2.875H8.625V1.875ZM9.69624 3.60527L9.08457 2.17804L8.16543 2.57196L8.7771 3.99919L9.69624 3.60527ZM10.333 3.71857C10.0325 3.55448 9.71265 3.42105 9.37776 3.32255L9.09558 4.28191C9.36123 4.36005 9.61509 4.46593 9.85384 4.59628L10.333 3.71857ZM11.3498 3.11634L9.90774 3.69319L10.2791 4.62166L11.7212 4.04482L11.3498 3.11634ZM12.773 4.11091L11.8891 3.22703L11.182 3.93414L12.0659 4.81802L12.773 4.11091ZM12.3068 6.09226L12.8837 4.65016L11.9552 4.27877L11.3783 5.72087L12.3068 6.09226ZM12.6775 6.62224C12.579 6.28736 12.4455 5.96752 12.2814 5.66698L11.4037 6.14616C11.5341 6.38491 11.64 6.63877 11.7181 6.90442L12.6775 6.62224ZM13.822 6.91543L12.3947 6.30376L12.0008 7.2229L13.428 7.83457L13.822 6.91543ZM14.125 8.625V7.375H13.125V8.625H14.125ZM12.3947 9.69624L13.822 9.08457L13.428 8.16543L12.0008 8.7771L12.3947 9.69624ZM12.2814 10.333C12.4455 10.0325 12.579 9.71264 12.6775 9.37776L11.7181 9.09558C11.64 9.36123 11.5341 9.61509 11.4037 9.85384L12.2814 10.333ZM12.8837 11.3498L12.3068 9.90773L11.3783 10.2791L11.9552 11.7212L12.8837 11.3498ZM11.8891 12.773L12.773 11.8891L12.0659 11.182L11.182 12.0659L11.8891 12.773ZM9.90774 12.3068L11.3498 12.8837L11.7212 11.9552L10.2791 11.3783L9.90774 12.3068ZM9.37776 12.6775C9.71265 12.5789 10.0325 12.4455 10.333 12.2814L9.85384 11.4037C9.61509 11.5341 9.36123 11.64 9.09558 11.7181L9.37776 12.6775ZM9.08457 13.822L9.69624 12.3947L8.7771 12.0008L8.16543 13.428L9.08457 13.822ZM7.375 14.125H8.625V13.125H7.375V14.125ZM6.30376 12.3947L6.91543 13.822L7.83457 13.428L7.2229 12.0008L6.30376 12.3947ZM5.66699 12.2814C5.96753 12.4455 6.28736 12.579 6.62224 12.6775L6.90442 11.7181C6.63878 11.64 6.38492 11.5341 6.14618 11.4037L5.66699 12.2814ZM4.6502 12.8837L6.09228 12.3068L5.72089 11.3784L4.27881 11.9552L4.6502 12.8837ZM3.22707 11.8891L4.11095 12.773L4.81806 12.0659L3.93418 11.182L3.22707 11.8891ZM3.69321 9.90778L3.11638 11.3498L4.04486 11.7212L4.62169 10.2792L3.69321 9.90778ZM3.32255 9.37776C3.42106 9.71266 3.5545 10.0325 3.71859 10.3331L4.5963 9.85388C4.46594 9.61512 4.36005 9.36124 4.28191 9.09558L3.32255 9.37776ZM2.17804 9.08457L3.60527 9.69624L3.99919 8.7771L2.57196 8.16543L2.17804 9.08457ZM1.875 7.375V8.625H2.875V7.375H1.875ZM3.60527 6.30376L2.17804 6.91543L2.57196 7.83457L3.99919 7.2229L3.60527 6.30376ZM3.71859 5.66692C3.5545 5.96748 3.42106 6.28734 3.32255 6.62224L4.28191 6.90442C4.36005 6.63876 4.46594 6.38488 4.5963 6.14612L3.71859 5.66692ZM3.11638 4.65016L3.69321 6.09222L4.62169 5.72083L4.04486 4.27877L3.11638 4.65016ZM4.11095 3.22702L3.22707 4.11091L3.93418 4.81801L4.81806 3.93413L4.11095 3.22702ZM6.09228 3.69317L4.6502 3.11634L4.27881 4.04482L5.72089 4.62165L6.09228 3.69317ZM6.62224 3.32255C6.28736 3.42105 5.96753 3.55448 5.667 3.71855L6.14618 4.59627C6.38492 4.46593 6.63878 4.36004 6.90442 4.28191L6.62224 3.32255ZM9.625 7.99998C9.625 8.89744 8.89746 9.62498 8 9.62498V10.625C9.44975 10.625 10.625 9.44973 10.625 7.99998H9.625ZM8 6.37498C8.89746 6.37498 9.625 7.10252 9.625 7.99998H10.625C10.625 6.55023 9.44975 5.37498 8 5.37498V6.37498ZM6.375 7.99998C6.375 7.10252 7.10254 6.37498 8 6.37498V5.37498C6.55025 5.37498 5.375 6.55023 5.375 7.99998H6.375ZM8 9.62498C7.10254 9.62498 6.375 8.89744 6.375 7.99998H5.375C5.375 9.44973 6.55025 10.625 8 10.625V9.62498Z" fill="#233043"/>
</svg>
