<svg width="16" height="16" viewBox="0 0 16 16" fill="none" xmlns="http://www.w3.org/2000/svg">
<path d="M7.70669 3.50313C7.83266 3.26986 8.16734 3.26986 8.2933 3.50313L9.54203 5.81564C9.59007 5.9046 9.67589 5.96695 9.77534 5.98515L12.3605 6.45815C12.6213 6.50587 12.7247 6.82417 12.5418 7.01605L10.7284 8.91826C10.6586 8.99144 10.6258 9.09233 10.6393 9.19254L10.9883 11.7974C11.0235 12.0601 10.7527 12.2569 10.5137 12.1422L8.14419 11.0053C8.05304 10.9616 7.94696 10.9616 7.8558 11.0053L5.4863 12.1422C5.24728 12.2569 4.97652 12.0601 5.01173 11.7974L5.36075 9.19254C5.37417 9.09233 5.34139 8.99144 5.27163 8.91826L3.45818 7.01605C3.27525 6.82417 3.37867 6.50587 3.63945 6.45815L6.22466 5.98515C6.32411 5.96695 6.40993 5.9046 6.45797 5.81564L7.70669 3.50313Z" stroke="#233043" stroke-linecap="round" stroke-linejoin="round"/>
</svg>
