<svg width="16" height="16" viewBox="0 0 16 16" fill="none" xmlns="http://www.w3.org/2000/svg">
<path fill-rule="evenodd" clip-rule="evenodd" d="M7.99999 13.3332C10.9455 13.3332 13.3333 10.9454 13.3333 7.99984C13.3333 5.05432 10.9455 2.6665 7.99999 2.6665C5.05447 2.6665 2.66666 5.05432 2.66666 7.99984C2.66666 10.9454 5.05447 13.3332 7.99999 13.3332ZM6.33275 4.99902C6.05661 4.99902 5.83275 5.22288 5.83275 5.49902H6.33275L5.83275 5.49904V5.49908V5.49916V5.49926V5.49939V5.49955V5.49974V5.49996V5.50021V5.50048V5.50079V5.50112V5.50148V5.50187V5.50229V5.50274V5.50321V5.50372V5.50425V5.50481V5.50539V5.50601V5.50665V5.50732V5.50802V5.50874V5.5095V5.51028V5.51108V5.51192V5.51278V5.51367V5.51458V5.51552V5.51649V5.51749V5.51851V5.51956V5.52063V5.52173V5.52286V5.52402V5.5252V5.5264V5.52763V5.52889V5.53017V5.53148V5.53282V5.53418V5.53556V5.53697V5.53841V5.53987V5.54136V5.54287V5.54441V5.54597V5.54756V5.54917V5.5508V5.55247V5.55415V5.55586V5.55759V5.55935V5.56114V5.56294V5.56477V5.56663V5.56851V5.57041V5.57233V5.57428V5.57626V5.57825V5.58027V5.58232V5.58438V5.58647V5.58859V5.59072V5.59288V5.59506V5.59727V5.5995V5.60174V5.60402V5.60631V5.60863V5.61097V5.61333V5.61571V5.61812V5.62055V5.623V5.62547V5.62796V5.63048V5.63301V5.63557V5.63815V5.64075V5.64337V5.64602V5.64868V5.65137V5.65407V5.6568V5.65955V5.66232V5.66511V5.66792V5.67075V5.6736V5.67647V5.67936V5.68227V5.6852V5.68815V5.69112V5.69412V5.69713V5.70016V5.70321V5.70628V5.70937V5.71247V5.7156V5.71875V5.72191V5.7251V5.7283V5.73153V5.73477V5.73803V5.74131V5.74461V5.74792V5.75126V5.75461V5.75798V5.76137V5.76478V5.7682V5.77164V5.7751V5.77858V5.78208V5.78559V5.78913V5.79267V5.79624V5.79982V5.80343V5.80704V5.81068V5.81433V5.818V5.82168V5.82539V5.82911V5.83284V5.83659V5.84036V5.84415V5.84795V5.85176V5.8556V5.85945V5.86331V5.86719V5.87109V5.875V5.87893V5.88287V5.88683V5.89081V5.8948V5.8988V5.90282V5.90686V5.91091V5.91497V5.91905V5.92315V5.92726V5.93138V5.93552V5.93967V5.94384V5.94802V5.95222V5.95643V5.96065V5.96489V5.96914V5.97341V5.97768V5.98198V5.98628V5.9906V5.99494V5.99928V6.00364V6.00802V6.0124V6.0168V6.02121V6.02564V6.03007V6.03452V6.03899V6.04346V6.04795V6.05245V6.05696V6.06148V6.06602V6.07057V6.07513V6.0797V6.08429V6.08888V6.09349V6.09811V6.10274V6.10738V6.11203V6.1167V6.12137V6.12606V6.13076V6.13547V6.14019V6.14492V6.14966V6.15441V6.15917V6.16394V6.16873V6.17352V6.17832V6.18314V6.18796V6.19279V6.19764V6.20249V6.20735V6.21223V6.21711V6.222V6.2269V6.23181V6.23673V6.24166V6.2466V6.25154V6.2565V6.26146V6.26644V6.27142V6.27641V6.28141V6.28642V6.29143V6.29646V6.30149V6.30653V6.31158V6.31664V6.3217V6.32678V6.33186V6.33694V6.34204V6.34714V6.35225V6.35737V6.3625V6.36763V6.37277V6.37791V6.38307V6.38823V6.39339V6.39857V6.40375V6.40893V6.41413V6.41933V6.42453V6.42975V6.43496V6.44019V6.44542V6.45066V6.4559V6.46115V6.4664V6.47166V6.47692V6.48219V6.48747V6.49275V6.49804V6.50333V6.50862V6.51393V6.51923V6.52454V6.52986V6.53518V6.5405V6.54583V6.55117V6.5565V6.56185V6.56719V6.57254V6.5779V6.58325V6.58862V6.59398V6.59935V6.60473V6.6101V6.61548V6.62087V6.62625V6.63164V6.63704V6.64243V6.64783V6.65323V6.65864V6.66405V6.66946V6.67487V6.68029V6.6857V6.69112V6.69655V6.70197V6.7074V6.71283V6.71826V6.72369V6.72912V6.73456V6.74V6.74544V6.75088V6.75632V6.76176V6.76721V6.77265V6.7781V6.78355V6.789V6.79445V6.7999V6.80535V6.8108V6.81625V6.8217V6.82715V6.83261V6.83806V6.84351V6.84897V6.85442V6.85987V6.86533V6.87078V6.87623V6.88168V6.88713V6.89259V6.89804V6.90348V6.90893V6.91438V6.91983V6.92527V6.93072V6.93616V6.9416V6.94704V6.95248V6.95792V6.96335V6.96879V6.97422V6.97965V6.98508V6.9905V6.99593V7.00135V7.00677V7.01219V7.0176V7.02301V7.02842V7.03383V7.03923V7.04463V7.05003V7.05543V7.06082V7.06621V7.0716V7.07698V7.08236V7.08773V7.09311V7.09847V7.10384V7.1092V7.11456V7.11991V7.12526V7.13061V7.13595V7.14128V7.14662V7.15194V7.15727V7.16259V7.1679V7.17321V7.17851V7.18381V7.18911V7.1944V7.19968V7.20496V7.21024V7.21551V7.22077V7.22603V7.23128V7.23653V7.24177V7.247V7.25223V7.25745V7.26267V7.26788V7.27308V7.27828V7.28347V7.28866V7.29384V7.29901V7.30417V7.30933V7.31448V7.31963V7.32477V7.3299V7.33502V7.34013V7.34524V7.35034V7.35544V7.36052V7.3656V7.37067V7.37573V7.38079V7.38583V7.39087V7.3959V7.40093V7.40594V7.41094V7.41594V7.42093V7.42591V7.43088V7.43584V7.4408V7.44574V7.45068V7.4556V7.46052V7.46543V7.47033V7.47521V7.48009V7.48496V7.48982V7.49467V7.49952V7.50435V7.50917V7.51398V7.51878V7.52357V7.52835V7.53312V7.53788V7.54263V7.54736V7.55209V7.55681V7.56151V7.56621V7.57089V7.57556V7.58022C5.83275 7.74032 5.90942 7.89074 6.03897 7.98481C6.16851 8.07888 6.33527 8.10522 6.48751 8.05567C7.26068 7.80401 8.01863 7.76244 8.54892 7.92064C8.80831 7.99802 8.99119 8.116 9.10825 8.25717C9.22078 8.39288 9.30052 8.58315 9.30052 8.86457C9.30052 9.15549 9.22508 9.3495 9.13107 9.48551C9.0339 9.62611 8.89693 9.73298 8.73698 9.81365C8.57595 9.89486 8.40406 9.94301 8.25875 9.97026C8.18721 9.98368 8.12515 9.99147 8.07826 9.99585C8.05488 9.99803 8.03578 9.99932 8.0217 10C8.00693 10.0008 7.99972 10.0008 8 10.0008C7.46096 10.0008 6.98475 9.69626 6.70314 9.38568C6.51765 9.18111 6.20144 9.16565 5.99687 9.35114C5.79231 9.53663 5.77684 9.85283 5.96233 10.0574C6.36814 10.505 7.09427 11.0008 8 11.0008C8.12437 11.0008 8.66146 10.9717 9.18726 10.7065C9.45682 10.5706 9.73906 10.3646 9.9537 10.0541C10.1715 9.73895 10.3005 9.3435 10.3005 8.86457C10.3005 8.37614 10.1552 7.9531 9.87803 7.61885C9.60539 7.29007 9.23393 7.08144 8.83479 6.96237C8.23701 6.78404 7.53005 6.7909 6.83275 6.93213V6.93072V6.92527V6.91983V6.91438V6.90893V6.90348V6.89804V6.89259V6.88713V6.88168V6.87623V6.87078V6.86533V6.85987V6.85442V6.84897V6.84351V6.83806V6.83261V6.82715V6.8217V6.81625V6.8108V6.80535V6.7999V6.79445V6.789V6.78355V6.7781V6.77265V6.76721V6.76176V6.75632V6.75088V6.74544V6.74V6.73456V6.72912V6.72369V6.71826V6.71283V6.7074V6.70197V6.69655V6.69112V6.6857V6.68029V6.67487V6.66946V6.66405V6.65864V6.65323V6.64783V6.64243V6.63704V6.63164V6.62625V6.62087V6.61548V6.6101V6.60473V6.59935V6.59398V6.58862V6.58325V6.5779V6.57254V6.56719V6.56185V6.5565V6.55117V6.54583V6.5405V6.53518V6.52986V6.52454V6.51923V6.51393V6.50862V6.50333V6.49804V6.49275V6.48747V6.48219V6.47692V6.47166V6.4664V6.46115V6.4559V6.45066V6.44542V6.44019V6.43496V6.42975V6.42453V6.41933V6.41413V6.40893V6.40375V6.39857V6.39339V6.38823V6.38307V6.37791V6.37277V6.36763V6.3625V6.35737V6.35225V6.34714V6.34204V6.33694V6.33186V6.32678V6.3217V6.31664V6.31158V6.30653V6.30149V6.29646V6.29143V6.28642V6.28141V6.27641V6.27142V6.26644V6.26146V6.2565V6.25154V6.2466V6.24166V6.23673V6.23181V6.2269V6.222V6.21711V6.21223V6.20735V6.20249V6.19764V6.19279V6.18796V6.18314V6.17832V6.17352V6.16873V6.16394V6.15917V6.15441V6.14966V6.14492V6.14019V6.13547V6.13076V6.12606V6.12137V6.1167V6.11203V6.10738V6.10274V6.09811V6.09349V6.08888V6.08429V6.0797V6.07513V6.07057V6.06602V6.06148V6.05696V6.05245V6.04795V6.04346V6.03899V6.03452V6.03007V6.02564V6.02121V6.0168V6.0124V6.00802V6.00364V5.99928V5.99902H6.83536H6.8427H6.85009H6.85751H6.86498H6.87248H6.88003H6.88761H6.89523H6.90288H6.91058H6.91831H6.92608H6.93389H6.94173H6.9496H6.95752H6.96547H6.97345H6.98147H6.98952H6.99761H7.00573H7.01389H7.02208H7.0303H7.03856H7.04684H7.05516H7.06351H7.0719H7.08031H7.08876H7.09723H7.10574H7.11427H7.12284H7.13143H7.14006H7.14871H7.15739H7.16611H7.17484H7.18361H7.1924H7.20122H7.21007H7.21895H7.22785H7.23677H7.24572H7.2547H7.2637H7.27273H7.28178H7.29085H7.29995H7.30907H7.31822H7.32739H7.33658H7.34579H7.35503H7.36429H7.37356H7.38286H7.39219H7.40153H7.41089H7.42027H7.42967H7.43909H7.44853H7.45799H7.46746H7.47696H7.48647H7.496H7.50555H7.51511H7.52469H7.53429H7.5439H7.55353H7.56317H7.57283H7.58251H7.5922H7.6019H7.61162H7.62135H7.63109H7.64085H7.65062H7.6604H7.6702H7.68H7.68982H7.69965H7.70949H7.71934H7.7292H7.73907H7.74895H7.75884H7.76874H7.77865H7.78857H7.79849H7.80843H7.81837H7.82832H7.83827H7.84824H7.8582H7.86818H7.87816H7.88815H7.89814H7.90813H7.91814H7.92814H7.93815H7.94817H7.95818H7.9682H7.97823H7.98825H7.99828H8.00831H8.01834H8.02838H8.03841H8.04845H8.05848H8.06852H8.07856H8.08859H8.09863H8.10866H8.11869H8.12872H8.13875H8.14878H8.1588H8.16883H8.17885H8.18886H8.19887H8.20888H8.21888H8.22888H8.23888H8.24887H8.25885H8.26883H8.2788H8.28876H8.29872H8.30867H8.31862H8.32856H8.33849H8.34841H8.35832H8.36822H8.37812H8.388H8.39788H8.40774H8.4176H8.42744H8.43728H8.4471H8.45691H8.46671H8.4765H8.48628H8.49604H8.50579H8.51553H8.52525H8.53496H8.54466H8.55434H8.564H8.57365H8.58329H8.59291H8.60252H8.6121H8.62168H8.63123H8.64077H8.65029H8.65979H8.66928H8.67874H8.68819H8.69762H8.70703H8.71642H8.72579H8.73514H8.74447H8.75378H8.76307H8.77234H8.78158H8.7908H8.80001H8.80919H8.81834H8.82747H8.83658H8.84567H8.85473H8.86377H8.87278H8.88177H8.89073H8.89967H8.90858H8.91747H8.92633H8.93516H8.94397H8.95275H8.9615H8.97022H8.97892H8.98758H8.99622H9.00483H9.01341H9.02196H9.03048H9.03897H9.04743H9.05586H9.06426H9.07262H9.08096H9.08926H9.09753H9.10576H9.11397H9.12214H9.13028H9.13838H9.14645H9.15449H9.16249H9.17045H9.17838H9.18628H9.19413H9.20196H9.20974H9.21749H9.2252H9.23288H9.24051H9.24811H9.25567H9.2632H9.27068H9.27812H9.28553H9.29289H9.30022H9.3075H9.31474H9.32195H9.32911H9.33623H9.3433H9.35034H9.35733H9.36428H9.37119H9.37805H9.38487H9.39165H9.39838H9.40507H9.41171H9.41831H9.42486H9.43136H9.43782H9.44424H9.4506H9.45692H9.4632H9.46942H9.4756H9.48173H9.48781H9.49384H9.49982H9.50576H9.51164H9.51747H9.52326H9.52899H9.53467H9.5403H9.54588H9.55141H9.55689H9.56231H9.56768H9.573H9.57826H9.58347H9.58863H9.59374H9.59878H9.60378H9.60872H9.6136H9.61843H9.6232H9.62792H9.63258H9.63718H9.64172H9.64621H9.65064H9.65501H9.65933H9.66358H9.66778H9.67192H9.676H9.68001H9.68397H9.68787H9.69171H9.69548H9.6992H9.70285H9.70644H9.70997H9.71344H9.71684H9.72018H9.72346H9.72667H9.72982H9.73291H9.73593H9.73888H9.74177H9.7446H9.74736H9.75005H9.75268H9.75524H9.75773H9.76016H9.76251H9.7648H9.76703H9.76918H9.77127H9.77328H9.77523H9.77711H9.77891H9.78065H9.78232H9.78391H9.78544H9.78689H9.78827H9.78958H9.79082H9.79198H9.79307H9.79409H9.79503H9.7959H9.7967H9.79742H9.79807H9.79864H9.79914H9.79956H9.79991H9.80017H9.80037H9.80048L9.80052 5.49902V5.99902C10.0767 5.99902 10.3005 5.77517 10.3005 5.49902C10.3005 5.22288 10.0767 4.99902 9.80052 4.99902V5.49902L9.80048 4.99902H9.80037H9.80017H9.79991H9.79956H9.79914H9.79864H9.79807H9.79742H9.7967H9.7959H9.79503H9.79409H9.79307H9.79198H9.79082H9.78958H9.78827H9.78689H9.78544H9.78391H9.78232H9.78065H9.77891H9.77711H9.77523H9.77328H9.77127H9.76918H9.76703H9.7648H9.76251H9.76016H9.75773H9.75524H9.75268H9.75005H9.74736H9.7446H9.74177H9.73888H9.73593H9.73291H9.72982H9.72667H9.72346H9.72018H9.71684H9.71344H9.70997H9.70644H9.70285H9.6992H9.69548H9.69171H9.68787H9.68397H9.68001H9.676H9.67192H9.66778H9.66358H9.65933H9.65501H9.65064H9.64621H9.64172H9.63718H9.63258H9.62792H9.6232H9.61843H9.6136H9.60872H9.60378H9.59878H9.59374H9.58863H9.58347H9.57826H9.573H9.56768H9.56231H9.55689H9.55141H9.54588H9.5403H9.53467H9.52899H9.52326H9.51747H9.51164H9.50576H9.49982H9.49384H9.48781H9.48173H9.4756H9.46942H9.4632H9.45692H9.4506H9.44424H9.43782H9.43136H9.42486H9.41831H9.41171H9.40507H9.39838H9.39165H9.38487H9.37805H9.37119H9.36428H9.35733H9.35034H9.3433H9.33623H9.32911H9.32195H9.31474H9.3075H9.30022H9.29289H9.28553H9.27812H9.27068H9.2632H9.25567H9.24811H9.24051H9.23288H9.2252H9.21749H9.20974H9.20196H9.19413H9.18628H9.17838H9.17045H9.16249H9.15449H9.14645H9.13838H9.13028H9.12214H9.11397H9.10576H9.09753H9.08926H9.08096H9.07262H9.06426H9.05586H9.04743H9.03897H9.03048H9.02196H9.01341H9.00483H8.99622H8.98758H8.97892H8.97022H8.9615H8.95275H8.94397H8.93516H8.92633H8.91747H8.90858H8.89967H8.89073H8.88177H8.87278H8.86377H8.85473H8.84567H8.83658H8.82747H8.81834H8.80919H8.80001H8.7908H8.78158H8.77234H8.76307H8.75378H8.74447H8.73514H8.72579H8.71642H8.70703H8.69762H8.68819H8.67874H8.66928H8.65979H8.65029H8.64077H8.63123H8.62168H8.6121H8.60252H8.59291H8.58329H8.57365H8.564H8.55434H8.54466H8.53496H8.52525H8.51553H8.50579H8.49604H8.48628H8.4765H8.46671H8.45691H8.4471H8.43728H8.42744H8.4176H8.40774H8.39788H8.388H8.37812H8.36822H8.35832H8.34841H8.33849H8.32856H8.31862H8.30867H8.29872H8.28876H8.2788H8.26883H8.25885H8.24887H8.23888H8.22888H8.21888H8.20888H8.19887H8.18886H8.17885H8.16883H8.1588H8.14878H8.13875H8.12872H8.11869H8.10866H8.09863H8.08859H8.07856H8.06852H8.05848H8.04845H8.03841H8.02838H8.01834H8.00831H7.99828H7.98825H7.97823H7.9682H7.95818H7.94817H7.93815H7.92814H7.91814H7.90813H7.89814H7.88815H7.87816H7.86818H7.8582H7.84824H7.83827H7.82832H7.81837H7.80843H7.79849H7.78857H7.77865H7.76874H7.75884H7.74895H7.73907H7.7292H7.71934H7.70949H7.69965H7.68982H7.68H7.6702H7.6604H7.65062H7.64085H7.63109H7.62135H7.61162H7.6019H7.5922H7.58251H7.57283H7.56317H7.55353H7.5439H7.53429H7.52469H7.51511H7.50555H7.496H7.48647H7.47696H7.46746H7.45799H7.44853H7.43909H7.42967H7.42027H7.41089H7.40153H7.39219H7.38286H7.37356H7.36429H7.35503H7.34579H7.33658H7.32739H7.31822H7.30907H7.29995H7.29085H7.28178H7.27273H7.2637H7.2547H7.24572H7.23677H7.22785H7.21895H7.21007H7.20122H7.1924H7.18361H7.17484H7.16611H7.15739H7.14871H7.14006H7.13143H7.12284H7.11427H7.10574H7.09723H7.08876H7.08031H7.0719H7.06351H7.05516H7.04684H7.03856H7.0303H7.02208H7.01389H7.00573H6.99761H6.98952H6.98147H6.97345H6.96547H6.95752H6.9496H6.94173H6.93389H6.92608H6.91831H6.91058H6.90288H6.89523H6.88761H6.88003H6.87248H6.86498H6.85751H6.85009H6.8427H6.83536H6.82805H6.82079H6.81356H6.80638H6.79924H6.79214H6.78508H6.77806H6.77109H6.76416H6.75727H6.75043H6.74363H6.73687H6.73016H6.7235H6.71687H6.7103H6.70377H6.69728H6.69084H6.68445H6.67811H6.67181H6.66556H6.65936H6.6532H6.64709H6.64104H6.63503H6.62907H6.62316H6.6173H6.61149H6.60572H6.60002H6.59436H6.58875H6.58319H6.57769H6.57224H6.56684H6.56149H6.5562H6.55096H6.54577H6.54064H6.53556H6.53054H6.52557H6.52066H6.5158H6.511H6.50625H6.50156H6.49693H6.49235H6.48783H6.48337H6.47897H6.47462H6.47033H6.46611H6.46194H6.45783H6.45378H6.44979H6.44586H6.44199H6.43818H6.43443H6.43074H6.42712H6.42356H6.42006H6.41662H6.41324H6.40993H6.40669H6.4035H6.40038H6.39733H6.39434H6.39141H6.38855H6.38576H6.38303H6.38036H6.37777H6.37524H6.37278H6.37038H6.36805H6.3658H6.3636H6.36148H6.35943H6.35744H6.35553H6.35369H6.35191H6.35021H6.34857H6.34701H6.34552H6.3441H6.34275H6.34148H6.34027H6.33914H6.33808H6.3371H6.33619H6.33535H6.33459H6.3339H6.33329H6.33275Z" fill="#233043"/>
</svg>
