<svg width="16" height="16" viewBox="0 0 16 16" fill="none" xmlns="http://www.w3.org/2000/svg">
<path fill-rule="evenodd" clip-rule="evenodd" d="M7.99999 13.3332C10.9455 13.3332 13.3333 10.9454 13.3333 7.99984C13.3333 5.05432 10.9455 2.6665 7.99999 2.6665C5.05447 2.6665 2.66666 5.05432 2.66666 7.99984C2.66666 10.9454 5.05447 13.3332 7.99999 13.3332ZM7.33446 5.69603C7.44272 5.44199 7.32455 5.14829 7.07051 5.04003C6.81648 4.93177 6.52278 5.04994 6.41451 5.30397L5.54683 7.33995C5.31257 7.88965 5.71591 8.5 6.31345 8.5H8.60487V10.5C8.60487 10.7761 8.82873 11 9.10487 11C9.38101 11 9.60487 10.7761 9.60487 10.5V8V5.5C9.60487 5.22386 9.38101 5 9.10487 5C8.82873 5 8.60487 5.22386 8.60487 5.5V7.5H6.56565L7.33446 5.69603Z" fill="#233043"/>
</svg>
