<svg width="16" height="16" viewBox="0 0 16 16" fill="none" xmlns="http://www.w3.org/2000/svg">
<path fill-rule="evenodd" clip-rule="evenodd" d="M7.99999 13.3332C10.9455 13.3332 13.3333 10.9454 13.3333 7.99984C13.3333 5.05432 10.9455 2.6665 7.99999 2.6665C5.05447 2.6665 2.66666 5.05432 2.66666 7.99984C2.66666 10.9454 5.05447 13.3332 7.99999 13.3332ZM6.83307 7.16645C6.83307 6.96864 6.89653 6.66079 7.07222 6.41676C7.22956 6.19823 7.49619 5.99951 8 5.99951C8.50382 5.99951 8.77044 6.19823 8.92778 6.41676C9.10348 6.66079 9.16694 6.96864 9.16694 7.16645C9.16694 7.41916 9.03697 7.72653 8.75559 8.07826C8.47977 8.42303 8.09962 8.75877 7.7 9.05848C7.30328 9.35602 6.90385 9.60587 6.60205 9.78192C6.45167 9.86965 6.32678 9.93832 6.24021 9.9847C6.19695 10.0079 6.16335 10.0254 6.141 10.037L6.11615 10.0497L6.11046 10.0526L6.10946 10.0531L6.10939 10.0531L6.10937 10.0532L6.10933 10.0532L6.1093 10.0532L6.10927 10.0532C5.90199 10.1569 5.79318 10.3896 5.84644 10.6152C5.89972 10.8409 6.10118 11.0003 6.33307 11.0003H9.66694C9.94308 11.0003 10.1669 10.7765 10.1669 10.5003C10.1669 10.2242 9.94308 10.0003 9.66694 10.0003H8.10635C8.1706 9.95434 8.23527 9.90703 8.3 9.85848C8.73386 9.53309 9.18717 9.13955 9.53646 8.70295C9.88018 8.2733 10.1669 7.7472 10.1669 7.16645C10.1669 6.80861 10.0637 6.28299 9.73932 5.83246C9.39658 5.35643 8.82974 4.99951 8 4.99951C7.17027 4.99951 6.60343 5.35643 6.26069 5.83246C5.93631 6.28299 5.83307 6.80861 5.83307 7.16645C5.83307 7.44259 6.05693 7.66645 6.33307 7.66645C6.60921 7.66645 6.83307 7.44259 6.83307 7.16645Z" fill="#233043"/>
</svg>
