<svg width="16" height="16" viewBox="0 0 16 16" fill="none" xmlns="http://www.w3.org/2000/svg">
<path fill-rule="evenodd" clip-rule="evenodd" d="M7.99999 13.3332C10.9455 13.3332 13.3333 10.9454 13.3333 7.99984C13.3333 5.05432 10.9455 2.6665 7.99999 2.6665C5.05447 2.6665 2.66666 5.05432 2.66666 7.99984C2.66666 10.9454 5.05447 13.3332 7.99999 13.3332ZM8 5.99902L8.46013 5.99902L7.99953 7.66626L7.9991 7.66626L7.99834 7.66626L7.99724 7.66625H7.99688L8.00207 7.66639C8.00838 7.6666 8.01995 7.6671 8.03602 7.66825C8.06831 7.67055 8.11771 7.67541 8.17831 7.68551C8.30186 7.7061 8.45896 7.74635 8.61001 7.82188C8.7591 7.89642 8.89298 8.00039 8.99071 8.14697C9.08634 8.29043 9.16724 8.50418 9.16724 8.8335C9.16724 9.16952 9.08971 9.38682 8.999 9.53065C8.9074 9.6759 8.7831 9.77656 8.64459 9.84813C8.35228 9.99918 8.03656 10.0007 8 10.0007C7.31204 10.0007 7.06153 9.75467 6.95719 9.59817C6.8953 9.50532 6.86313 9.41022 6.84691 9.33722C6.83894 9.30136 6.83534 9.27315 6.83377 9.25663C6.83309 9.24946 6.83281 9.24473 6.83271 9.24279C6.82869 8.97012 6.6064 8.75031 6.33276 8.75031C6.05662 8.75031 5.83276 8.97416 5.83276 9.25031H6.33276C5.83276 9.25031 5.83276 9.25064 5.83276 9.25097L5.83277 9.25167L5.83277 9.25316L5.8328 9.2565L5.83293 9.26464L5.83366 9.28655C5.83442 9.30356 5.83579 9.32542 5.83827 9.35144C5.84321 9.40331 5.85264 9.47278 5.87072 9.55415C5.9066 9.7156 5.97864 9.93311 6.12514 10.1529C6.43762 10.6216 7.02073 11.0007 8 11.0007H8.00124C8.07726 11.0007 8.59224 11.0008 9.10366 10.7365C9.36846 10.5997 9.64072 10.3877 9.84484 10.0641C10.0499 9.739 10.1672 9.33109 10.1672 8.8335C10.1672 8.32919 10.0397 7.91773 9.82276 7.59227C9.60787 7.26995 9.32494 7.06131 9.05722 6.92745C9.03203 6.91486 9.0069 6.90288 8.98187 6.89149L8.98275 6.89062L8.98543 6.88793L8.98811 6.88526L8.99078 6.88258L8.99345 6.87992L8.99611 6.87726L8.99876 6.8746L9.00141 6.87195L9.00406 6.86931L9.00669 6.86667L9.00933 6.86404L9.01195 6.86141L9.01458 6.85879L9.01719 6.85617L9.01981 6.85356L9.02241 6.85095L9.02501 6.84835L9.02761 6.84575L9.0302 6.84316L9.03279 6.84057L9.03538 6.83799L9.03795 6.83541L9.04053 6.83284L9.0431 6.83027L9.04566 6.8277L9.04822 6.82514L9.05078 6.82259L9.05333 6.82003L9.05588 6.81748L9.05843 6.81494L9.06097 6.8124L9.06351 6.80986L9.06604 6.80733L9.06857 6.8048L9.0711 6.80227L9.07362 6.79975L9.07614 6.79723L9.07865 6.79471L9.08117 6.7922L9.08368 6.78969L9.08618 6.78718L9.08869 6.78468L9.09119 6.78218L9.09368 6.77968L9.09618 6.77719L9.09867 6.7747L9.10116 6.77221L9.10365 6.76972L9.10613 6.76724L9.10861 6.76475L9.11109 6.76227L9.11357 6.7598L9.11604 6.75732L9.11852 6.75485L9.12099 6.75238L9.12346 6.74991L9.12592 6.74745L9.12839 6.74498L9.13085 6.74252L9.13331 6.74006L9.13577 6.7376L9.13823 6.73514L9.14068 6.73268L9.14314 6.73023L9.14559 6.72777L9.14804 6.72532L9.1505 6.72287L9.15295 6.72042L9.1554 6.71797L9.15784 6.71552L9.16029 6.71308L9.16274 6.71063L9.16518 6.70818L9.16763 6.70574L9.17007 6.70329L9.17252 6.70085L9.17496 6.69841L9.1774 6.69596L9.17984 6.69352L9.18229 6.69108L9.18473 6.68864L9.18717 6.68619L9.18961 6.68375L9.19206 6.68131L9.1945 6.67887L9.19694 6.67642L9.19938 6.67398L9.20183 6.67154L9.20427 6.6691L9.20672 6.66665L9.20916 6.66421L9.21161 6.66176L9.21405 6.65931L9.2165 6.65687L9.21895 6.65442L9.2214 6.65197L9.22385 6.64952L9.2263 6.64707L9.22875 6.64462L9.2312 6.64216L9.23366 6.63971L9.23612 6.63725L9.23857 6.63479L9.24103 6.63233L9.24349 6.62987L9.24596 6.62741L9.24842 6.62494L9.25089 6.62248L9.25336 6.62001L9.25583 6.61754L9.2583 6.61507L9.26077 6.61259L9.26325 6.61012L9.26573 6.60764L9.26821 6.60515L9.2707 6.60267L9.27318 6.60018L9.27567 6.59769L9.27816 6.5952L9.28066 6.59271L9.28316 6.59021L9.28566 6.58771L9.28816 6.58521L9.29067 6.5827L9.29318 6.58019L9.29569 6.57768L9.2982 6.57516L9.30072 6.57264L9.30325 6.57012L9.30577 6.56759L9.3083 6.56506L9.31084 6.56253L9.31337 6.55999L9.31591 6.55745L9.31846 6.55491L9.32101 6.55236L9.32356 6.54981L9.32612 6.54725L9.32868 6.54469L9.33125 6.54212L9.33381 6.53955L9.33639 6.53698L9.33897 6.5344L9.34155 6.53182L9.34414 6.52923L9.34673 6.52664L9.34933 6.52404L9.35193 6.52144L9.35454 6.51883L9.35715 6.51622L9.35977 6.5136L9.36239 6.51098L9.36502 6.50835L9.36765 6.50572L9.37029 6.50308L9.37293 6.50044L9.37558 6.49779L9.37823 6.49513L9.3809 6.49247L9.38356 6.48981L9.38623 6.48713L9.38891 6.48446L9.39159 6.48177L9.39428 6.47908L9.39698 6.47639L9.39968 6.47368L9.40239 6.47098L9.40511 6.46826L9.40783 6.46554L9.41055 6.46281L9.41329 6.46008L9.41603 6.45734L9.41878 6.45459L9.42153 6.45184L9.42429 6.44907L9.42706 6.44631L9.42983 6.44353L9.43262 6.44075L9.43541 6.43796L9.4382 6.43516L9.44101 6.43236L9.44382 6.42955L9.44664 6.42673L9.44946 6.4239L9.4523 6.42107L9.45514 6.41823L9.45799 6.41538L9.46084 6.41252L9.46371 6.40966L9.46658 6.40679L9.46946 6.4039L9.47235 6.40102L9.47525 6.39812L9.47815 6.39521L9.48107 6.3923L9.48399 6.38938L9.48692 6.38645L9.48986 6.38351L9.49281 6.38056L9.49577 6.3776L9.49873 6.37464L9.50171 6.37166L9.50469 6.36868L9.50768 6.36569L9.51068 6.36268L9.51369 6.35967L9.51671 6.35665L9.51974 6.35362L9.52278 6.35059L9.52583 6.34754L9.52889 6.34448L9.53195 6.34141L9.53503 6.33834L9.53812 6.33525L9.54121 6.33215L9.54432 6.32905L9.54744 6.32593L9.55056 6.3228L9.5537 6.31967L9.55685 6.31652L9.56 6.31336L9.56317 6.3102L9.56635 6.30702L9.56954 6.30383L9.57274 6.30063L9.57595 6.29742L9.57917 6.2942L9.5824 6.29097L9.58564 6.28773L9.58889 6.28447L9.59216 6.28121L9.59543 6.27794L9.59872 6.27465L9.60202 6.27135L9.60532 6.26804L9.60864 6.26472L9.61198 6.26139L9.61532 6.25805L9.61867 6.25469L9.62204 6.25133L9.62542 6.24795L9.62881 6.24456L9.63221 6.24115L9.63563 6.23774L9.63905 6.23431L9.64249 6.23088L9.64594 6.22742L9.6494 6.22396L9.65288 6.22049L9.65637 6.217L9.65987 6.2135L9.66338 6.20999L9.66691 6.20646L9.67044 6.20292L9.674 6.19937L9.67756 6.19581L9.68114 6.19223L9.68473 6.18864L9.68833 6.18504L9.69195 6.18142L9.69558 6.17779L9.69922 6.17415L9.70288 6.17049L9.70655 6.16682L9.71023 6.16314L9.71393 6.15944L9.71764 6.15573L9.72136 6.15201L9.7251 6.14827L9.72885 6.14451L9.73262 6.14075L9.7364 6.13697L9.74019 6.13317L9.744 6.12936L9.74783 6.12554L9.75166 6.1217L9.75552 6.11785L9.75938 6.11398L9.76326 6.1101L9.76716 6.10621L9.77107 6.1023L9.77499 6.09837L9.77893 6.09443L9.78289 6.09048L9.78686 6.08651L9.79085 6.08252L9.79485 6.07852L9.79886 6.0745L9.80289 6.07047L9.80694 6.06643L9.811 6.06236L9.81508 6.05829L9.81917 6.05419L9.82328 6.05008L9.82741 6.04596L9.83155 6.04182L9.83571 6.03766L9.83988 6.03349L9.84407 6.0293L9.84827 6.02509L9.8525 6.02087L9.85673 6.01663L9.86099 6.01238L9.86526 6.00811L9.86954 6.00382L9.87385 5.99952L9.87817 5.9952L9.88251 5.99086L9.88686 5.98651L9.89123 5.98214L9.89562 5.97775L9.90002 5.97334L9.90445 5.96892L9.90889 5.96448L9.91334 5.96002L9.91782 5.95555L9.92231 5.95106L9.92682 5.94655L9.93134 5.94202L9.93589 5.93748L9.94045 5.93292L9.94503 5.92834L9.94963 5.92374L9.95424 5.91912L9.95888 5.91449L9.96353 5.90984L9.9682 5.90517L9.97289 5.90048L9.97759 5.89577L9.98232 5.89105L9.98706 5.88631L9.99182 5.88154L9.9966 5.87676L10.0014 5.87196L10.0062 5.86714L10.0111 5.86231L10.0159 5.85745L10.0208 5.85258C10.1638 5.70958 10.2066 5.49452 10.1292 5.30768C10.0518 5.12084 9.86947 4.99902 9.66723 4.99902H9.66722H9.66717H9.66699H9.66624H9.66316H9.6503L9.59429 4.99902L9.33379 4.99902L8 4.99902L6.33276 4.99902C6.05662 4.99902 5.83276 5.22288 5.83276 5.49902C5.83276 5.77517 6.05662 5.99902 6.33276 5.99902L8 5.99902Z" fill="#233043"/>
</svg>
