<svg width="16" height="16" viewBox="0 0 16 16" fill="none" xmlns="http://www.w3.org/2000/svg">
<path fill-rule="evenodd" clip-rule="evenodd" d="M7.99996 13.3332C10.9455 13.3332 13.3333 10.9454 13.3333 7.99984C13.3333 5.05432 10.9455 2.6665 7.99996 2.6665C5.05444 2.6665 2.66663 5.05432 2.66663 7.99984C2.66663 10.9454 5.05444 13.3332 7.99996 13.3332ZM11.0366 6.66983C11.2223 6.4655 11.2073 6.14928 11.003 5.96353C10.7986 5.77777 10.4824 5.79283 10.2966 5.99716L7.31605 9.27582L5.68684 7.64661C5.49157 7.45135 5.17499 7.45135 4.97973 7.64661C4.78447 7.84187 4.78447 8.15845 4.97973 8.35372L6.73254 10.1065C7.06898 10.443 7.61835 10.4299 7.93841 10.0778L11.0366 6.66983Z" fill="#233043"/>
</svg>
