<svg width="16" height="16" viewBox="0 0 16 16" fill="none" xmlns="http://www.w3.org/2000/svg">
<path d="M9.33332 10.3099L9.08298 9.87707C8.92847 9.96644 8.83332 10.1314 8.83332 10.3099H9.33332ZM6.66666 10.3098H7.16666C7.16666 10.1313 7.07152 9.96637 6.91703 9.87699L6.66666 10.3098ZM6.66666 11.3333H6.16666C6.16666 11.6094 6.39051 11.8333 6.66666 11.8333V11.3333ZM9.33332 11.3333V11.8333C9.60947 11.8333 9.83332 11.6094 9.83332 11.3333H9.33332ZM10.1667 7.99992C10.1667 8.80129 9.73194 9.5017 9.08298 9.87707L9.58367 10.7427C10.5289 10.1959 11.1667 9.1727 11.1667 7.99992H10.1667ZM8.00007 5.83325C9.19669 5.83325 10.1667 6.8033 10.1667 7.99992H11.1667C11.1667 6.25102 9.74897 4.83325 8.00007 4.83325V5.83325ZM5.8334 7.99992C5.8334 6.8033 6.80345 5.83325 8.00007 5.83325V4.83325C6.25117 4.83325 4.8334 6.25102 4.8334 7.99992H5.8334ZM6.91703 9.87699C6.26815 9.5016 5.8334 8.80123 5.8334 7.99992H4.8334C4.8334 9.17262 5.47112 10.1958 6.41628 10.7426L6.91703 9.87699ZM7.16666 11.3333V10.3098H6.16666V11.3333H7.16666ZM9.33332 10.8333H6.66666V11.8333H9.33332V10.8333ZM8.83332 10.3099V11.3333H9.83332V10.3099H8.83332Z" fill="#233043"/>
<path d="M6.66675 13.3333H9.33341" stroke="#233043" stroke-linecap="round" stroke-linejoin="round"/>
<path d="M8.00009 3.33325V2.33325" stroke="#233043" stroke-linecap="round" stroke-linejoin="round"/>
<path d="M2.3334 8H3.3334" stroke="#233043" stroke-linecap="round" stroke-linejoin="round"/>
<path d="M12.6667 8H13.6667" stroke="#233043" stroke-linecap="round" stroke-linejoin="round"/>
<path d="M4.37385 4.70711L3.66675 4" stroke="#233043" stroke-linecap="round" stroke-linejoin="round"/>
<path d="M11.6263 4.70711L12.3334 4" stroke="#233043" stroke-linecap="round" stroke-linejoin="round"/>
</svg>
