<svg width="16" height="16" viewBox="0 0 16 16" fill="none" xmlns="http://www.w3.org/2000/svg">
<path d="M6.54385 10.2342L6.95396 9.60629L6.54385 10.2342ZM9.45616 10.2343L9.86622 10.8623L9.45616 10.2343ZM9.91675 7.99992C9.91675 8.67153 9.5719 9.26301 9.0461 9.60636L9.86622 10.8623C10.7982 10.2537 11.4167 9.19926 11.4167 7.99992H9.91675ZM8.00008 6.08325C9.05863 6.08325 9.91675 6.94137 9.91675 7.99992H11.4167C11.4167 6.11295 9.88705 4.58325 8.00008 4.58325V6.08325ZM6.08341 7.99992C6.08341 6.94137 6.94154 6.08325 8.00008 6.08325V4.58325C6.11311 4.58325 4.58341 6.11295 4.58341 7.99992H6.08341ZM6.95396 9.60629C6.42821 9.26293 6.08341 8.67149 6.08341 7.99992H4.58341C4.58341 9.19918 5.20188 10.2536 6.13375 10.8622L6.95396 9.60629ZM7.41667 11.0833V10.454H5.91667V11.0833H7.41667ZM9.08333 10.5833H6.91667V12.0833H9.08333V10.5833ZM8.58333 10.4541V11.0833H10.0833V10.4541H8.58333ZM5.91667 11.0833C5.91667 11.6356 6.36438 12.0833 6.91667 12.0833V10.5833C7.19281 10.5833 7.41667 10.8071 7.41667 11.0833H5.91667ZM6.13375 10.8622C6.01544 10.7849 5.91667 10.6399 5.91667 10.454H7.41667C7.41667 10.0895 7.2217 9.78115 6.95396 9.60629L6.13375 10.8622ZM9.08333 12.0833C9.63562 12.0833 10.0833 11.6356 10.0833 11.0833H8.58333C8.58333 10.8071 8.80719 10.5833 9.08333 10.5833V12.0833ZM9.0461 9.60636C8.77833 9.78121 8.58333 10.0896 8.58333 10.4541H10.0833C10.0833 10.6401 9.98455 10.785 9.86622 10.8623L9.0461 9.60636Z" fill="#233043"/>
<path d="M6.66675 13.3333H9.33341" stroke="#233043" stroke-width="1.5" stroke-linecap="round" stroke-linejoin="round"/>
<path d="M8.00008 3.33325V2.33325" stroke="#233043" stroke-width="1.5" stroke-linecap="round" stroke-linejoin="round"/>
<path d="M2.33342 8H3.33342" stroke="#233043" stroke-width="1.5" stroke-linecap="round" stroke-linejoin="round"/>
<path d="M12.6667 8H13.6667" stroke="#233043" stroke-width="1.5" stroke-linecap="round" stroke-linejoin="round"/>
<path d="M4.37385 4.70711L3.66675 4" stroke="#233043" stroke-width="1.5" stroke-linecap="round" stroke-linejoin="round"/>
<path d="M11.6263 4.70711L12.3334 4" stroke="#233043" stroke-width="1.5" stroke-linecap="round" stroke-linejoin="round"/>
</svg>
