<svg width="17" height="16" viewBox="0 0 17 16" fill="none" xmlns="http://www.w3.org/2000/svg">
<path d="M8.36856 12.6667V12.1667L8.36711 12.1667L8.36856 12.6667ZM13.6995 12.0842L14.0317 11.7105V11.7105L13.6995 12.0842ZM12.1541 10.7105L11.7473 10.4197C11.5986 10.6277 11.6308 10.9143 11.8219 11.0842L12.1541 10.7105ZM4.18807 8.00004C4.18807 5.69885 6.05355 3.83337 8.35474 3.83337V2.83337C5.50127 2.83337 3.18807 5.14657 3.18807 8.00004H4.18807ZM8.35474 12.1667C6.05355 12.1667 4.18807 10.3012 4.18807 8.00004H3.18807C3.18807 10.8535 5.50127 13.1667 8.35474 13.1667V12.1667ZM8.36711 12.1667C8.36298 12.1667 8.35886 12.1667 8.35474 12.1667V13.1667C8.35983 13.1667 8.36492 13.1667 8.37 13.1667L8.36711 12.1667ZM13.4781 12.1667H8.36856V13.1667H13.4781V12.1667ZM13.3674 12.4579C13.2528 12.3561 13.3248 12.1667 13.4781 12.1667V13.1667C14.2443 13.1667 14.6044 12.2196 14.0317 11.7105L13.3674 12.4579ZM11.8219 11.0842L13.3674 12.4579L14.0317 11.7105L12.4862 10.3367L11.8219 11.0842ZM12.5214 8.00004C12.5214 8.90309 12.2347 9.7377 11.7473 10.4197L12.5608 11.0012C13.1655 10.1551 13.5214 9.1184 13.5214 8.00004H12.5214ZM8.35474 3.83337C10.6559 3.83337 12.5214 5.69885 12.5214 8.00004H13.5214C13.5214 5.14657 11.2082 2.83337 8.35474 2.83337V3.83337Z" fill="#233043"/>
</svg>
