<svg width="16" height="16" viewBox="0 0 16 16" fill="none" xmlns="http://www.w3.org/2000/svg">
<path d="M7.58783 12.6424V11.8924L7.58512 11.8924L7.58783 12.6424ZM12.7933 12.0599L12.295 12.6205L12.295 12.6205L12.7933 12.0599ZM11.4608 10.8755L11.9591 10.315L11.4608 10.8755ZM3.75 8.07122C3.75 5.96082 5.46082 4.25 7.57122 4.25V2.75C4.63239 2.75 2.25 5.13239 2.25 8.07122H3.75ZM7.57122 11.8924C5.46082 11.8924 3.75 10.1816 3.75 8.07122H2.25C2.25 11.01 4.63239 13.3924 7.57122 13.3924V11.8924ZM7.58512 11.8924C7.58053 11.8924 7.5759 11.8924 7.57122 11.8924V13.3924C7.57762 13.3924 7.58406 13.3924 7.59055 13.3924L7.58512 11.8924ZM12.5718 11.8924H7.58783V13.3924H12.5718V11.8924ZM12.295 12.6205C12.0087 12.366 12.1887 11.8924 12.5718 11.8924V13.3924C13.568 13.3924 14.0361 12.1612 13.2916 11.4994L12.295 12.6205ZM10.9626 11.4361L12.295 12.6205L13.2916 11.4994L11.9591 10.315L10.9626 11.4361ZM11.3924 8.07122C11.3924 8.83259 11.1705 9.53984 10.7881 10.1346L12.0498 10.9458C12.5831 10.1164 12.8924 9.12878 12.8924 8.07122H11.3924ZM7.57122 4.25C9.68162 4.25 11.3924 5.96082 11.3924 8.07122H12.8924C12.8924 5.13239 10.51 2.75 7.57122 2.75V4.25ZM11.9591 10.315C12.1564 10.4903 12.1682 10.7617 12.0498 10.9458L10.7881 10.1346C10.5315 10.5337 10.5742 11.0909 10.9626 11.4361L11.9591 10.315Z" fill="#233043"/>
</svg>
