<svg width="16" height="16" viewBox="0 0 16 16" fill="none" xmlns="http://www.w3.org/2000/svg">
<circle cx="5.50144" cy="5.1884" r="2.1884" stroke="#233043" stroke-width="1.5" stroke-linecap="round" stroke-linejoin="round"/>
<path d="M2 12.2403C2 10.5214 3.39347 9.12793 5.11239 9.12793H5.89049C7.60942 9.12793 9.00288 10.5214 9.00288 12.2403V12.2403C9.00288 12.4552 8.8287 12.6294 8.61383 12.6294H2.38905C2.17418 12.6294 2 12.4552 2 12.2403V12.2403Z" stroke="#233043" stroke-width="1.5" stroke-linecap="round" stroke-linejoin="round"/>
<path d="M7.43795 12.6291H13.6657C13.8503 12.6291 14 12.4794 14 12.2948V12.2948C14 10.8179 12.8027 9.62061 11.3258 9.62061H10.719C9.16897 9.62061 8.80042 10.125 8.47696 10.4614" stroke="#233043" stroke-width="1.5" stroke-linecap="round" stroke-linejoin="round"/>
<circle cx="10.719" cy="6.4471" r="1.61653" stroke="#233043" stroke-width="1.5" stroke-linecap="round" stroke-linejoin="round"/>
</svg>
