<svg width="16" height="16" viewBox="0 0 16 16" fill="none" xmlns="http://www.w3.org/2000/svg">
<circle cx="5.59077" cy="5.46757" r="2.11015" stroke="#233043" stroke-linecap="round" stroke-linejoin="round"/>
<path d="M2.21454 12.2672C2.21454 10.6098 3.55818 9.26611 5.21564 9.26611H5.96591C7.62337 9.26611 8.96701 10.6098 8.96701 12.2672V12.2672C8.96701 12.4744 8.79905 12.6423 8.59187 12.6423H2.58968C2.38249 12.6423 2.21454 12.4744 2.21454 12.2672V12.2672Z" stroke="#233043" stroke-linecap="round" stroke-linejoin="round"/>
<path d="M7.45804 12.6421H13.4631C13.6411 12.6421 13.7854 12.4978 13.7854 12.3198V12.3198C13.7854 10.8957 12.631 9.74121 11.2069 9.74121H10.6217C9.12716 9.74121 8.77179 10.2276 8.45989 10.552" stroke="#233043" stroke-linecap="round" stroke-linejoin="round"/>
<circle cx="10.6217" cy="6.68128" r="1.55873" stroke="#233043" stroke-linecap="round" stroke-linejoin="round"/>
</svg>
