<svg width="17" height="16" viewBox="0 0 17 16" fill="none" xmlns="http://www.w3.org/2000/svg">
<circle cx="6.09077" cy="5.46769" r="2.11015" fill="#233043"/>
<path d="M2.71455 11.6163C2.71455 9.7517 4.22614 8.24011 6.09079 8.24011C7.95543 8.24011 9.46702 9.7517 9.46702 11.6163V12.153C9.46702 12.4232 9.24804 12.6421 8.97791 12.6421H3.20367C2.93353 12.6421 2.71455 12.4232 2.71455 12.153V11.6163Z" fill="#233043"/>
<path d="M8.35704 11.8021C8.35704 10.2752 9.59486 9.03735 11.1218 9.03735C12.6487 9.03735 13.8865 10.2752 13.8865 11.8021V12.2416C13.8865 12.4628 13.7072 12.6421 13.486 12.6421H8.75757C8.53636 12.6421 8.35704 12.4628 8.35704 12.2416V11.8021Z" fill="#233043"/>
<circle cx="11.1217" cy="6.68153" r="1.55873" fill="#233043"/>
</svg>
