<svg width="16" height="16" viewBox="0 0 16 16" fill="none" xmlns="http://www.w3.org/2000/svg">
<path d="M5.37638 7.46655L7.63213 3.26176C7.9434 2.68154 8.81793 2.85581 8.883 3.51103L9.14007 6.0995C9.15701 6.27 9.30044 6.39989 9.47178 6.39989H12.2372C12.3944 6.39814 12.55 6.43003 12.6933 6.49334C12.8367 6.55665 12.9643 6.64988 13.0674 6.76656C13.1705 6.88325 13.2466 7.02059 13.2904 7.16909C13.3342 7.31758 13.3447 7.47368 13.3211 7.62655L12.5732 12.4265C12.5341 12.6809 12.4028 12.9127 12.2036 13.0793C12.0044 13.2459 11.7508 13.3361 11.4894 13.3332H5.37638M5.37638 7.46655V13.3332M5.37638 7.46655H3.75058C3.46312 7.46655 3.18744 7.57893 2.98417 7.77897C2.78091 7.97901 2.66672 8.25032 2.66672 8.53321V12.2665C2.66672 12.5494 2.78091 12.8207 2.98417 13.0208C3.18744 13.2208 3.46312 13.3332 3.75058 13.3332H5.37638" stroke="#233043" stroke-linecap="round" stroke-linejoin="round"/>
</svg>
