<svg width="16" height="16" viewBox="0 0 16 16" fill="none" xmlns="http://www.w3.org/2000/svg">
<path d="M6 4H12.6667" stroke="#233043" stroke-linecap="round" stroke-linejoin="round"/>
<path d="M3.33334 3V5" stroke="#233043" stroke-linecap="round" stroke-linejoin="round"/>
<path d="M6 8H12.6667" stroke="#233043" stroke-linecap="round" stroke-linejoin="round"/>
<path d="M2.66666 7.66667C2.66666 7.44444 2.79999 7 3.33332 7C3.86666 7 3.99999 7.44444 3.99999 7.66667C3.99999 8.33333 2.66666 9 2.66666 9H3.99999" stroke="#233043" stroke-linecap="round" stroke-linejoin="round"/>
<path d="M6 12H12.6667" stroke="#233043" stroke-linecap="round" stroke-linejoin="round"/>
<path d="M2.66666 11C2.99999 11 2.79999 11 3.33332 11C3.86666 11 3.99999 11 3.99999 11C3.66666 11.3333 3.66666 11.3333 3.33332 11.6667C3.33332 11.6667 3.99999 11.6667 3.99999 12.3333C3.99999 13 3.37652 13 3.33332 13C2.66666 13 2.66666 12.5 2.66666 12.5" stroke="#233043" stroke-linecap="round" stroke-linejoin="round"/>
</svg>
