<svg width="24" height="24" viewBox="0 0 24 24" fill="none" xmlns="http://www.w3.org/2000/svg">
<path fill-rule="evenodd" clip-rule="evenodd" d="M8 2.25C8.41421 2.25 8.75 2.58579 8.75 3V4.25H15.25V3C15.25 2.58579 15.5858 2.25 16 2.25C16.4142 2.25 16.75 2.58579 16.75 3V4.25H19.5C20.1904 4.25 20.75 4.80964 20.75 5.5V18.5C20.75 19.1904 20.1904 19.75 19.5 19.75H4.5C3.80964 19.75 3.25 19.1904 3.25 18.5V5.5C3.25 4.80964 3.80964 4.25 4.5 4.25H7.25V3C7.25 2.58579 7.58579 2.25 8 2.25ZM15.25 5.75V6C15.25 6.41421 15.5858 6.75 16 6.75C16.4142 6.75 16.75 6.41421 16.75 6V5.75H19.25V18.25H4.75V5.75H7.25V6C7.25 6.41421 7.58579 6.75 8 6.75C8.41421 6.75 8.75 6.41421 8.75 6V5.75H15.25ZM9.44728 10C9.44728 9.7234 9.29505 9.46926 9.05118 9.33875C8.80731 9.20823 8.5114 9.22254 8.28126 9.37596L6.78126 10.376C6.43661 10.6057 6.34348 11.0714 6.57325 11.416C6.80301 11.7607 7.26866 11.8538 7.61331 11.624L7.94728 11.4014V15C7.94728 15.4142 8.28307 15.75 8.69728 15.75C9.1115 15.75 9.44728 15.4142 9.44728 15V10ZM16.5512 9.33875C16.795 9.46926 16.9473 9.7234 16.9473 10V15C16.9473 15.4142 16.6115 15.75 16.1973 15.75C15.7831 15.75 15.4473 15.4142 15.4473 15V11.4014L15.1133 11.624C14.7687 11.8538 14.303 11.7607 14.0732 11.416C13.8435 11.0714 13.9366 10.6057 14.2813 10.376L15.7813 9.37596C16.0114 9.22254 16.3073 9.20823 16.5512 9.33875ZM12.4473 10.75C12.4473 11.1642 12.1115 11.5 11.6973 11.5C11.2831 11.5 10.9473 11.1642 10.9473 10.75C10.9473 10.3358 11.2831 10 11.6973 10C12.1115 10 12.4473 10.3358 12.4473 10.75ZM11.6973 14.5C12.1115 14.5 12.4473 14.1642 12.4473 13.75C12.4473 13.3358 12.1115 13 11.6973 13C11.2831 13 10.9473 13.3358 10.9473 13.75C10.9473 14.1642 11.2831 14.5 11.6973 14.5Z" fill="#233043"/>
</svg>
