<svg width="24" height="24" viewBox="0 0 24 24" fill="none" xmlns="http://www.w3.org/2000/svg">
<path fill-rule="evenodd" clip-rule="evenodd" d="M5.75 18.25V5.75H12C12.4142 5.75 12.75 5.41421 12.75 5C12.75 4.58579 12.4142 4.25 12 4.25H5.5C4.80964 4.25 4.25 4.80964 4.25 5.5V18.5C4.25 19.1904 4.80964 19.75 5.5 19.75H14C14.1989 19.75 14.3897 19.671 14.5303 19.5303L19.5303 14.5303C19.671 14.3897 19.75 14.1989 19.75 14V11.75C19.75 11.3358 19.4142 11 19 11C18.5858 11 18.25 11.3358 18.25 11.75V13.25H14.5C13.8096 13.25 13.25 13.8096 13.25 14.5V18.25H5.75ZM14.75 17.1893L17.1893 14.75H14.75V17.1893Z" fill="#233043"/>
<path d="M18 9C19.6569 9 21 7.65685 21 6C21 4.34315 19.6569 3 18 3C16.3431 3 15 4.34315 15 6C15 7.65685 16.3431 9 18 9Z" fill="#FCC205"/>
</svg>
