<svg width="24" height="25" viewBox="0 0 24 25" fill="none" xmlns="http://www.w3.org/2000/svg">
<path d="M18 21.25C19.6569 21.25 21 19.9069 21 18.25C21 16.5931 19.6569 15.25 18 15.25C16.3431 15.25 15 16.5931 15 18.25C15 19.9069 16.3431 21.25 18 21.25Z" fill="#FCC205"/>
<path d="M15 5.25H5.5C5.22386 5.25 5 5.47386 5 5.75V18.75C5 19.0261 5.22386 19.25 5.5 19.25H13M15 5.25L19 9.25M15 5.25V8.75C15 9.02614 15.2239 9.25 15.5 9.25H19M19 9.25V13.25" stroke="#233043" stroke-width="1.5" stroke-linecap="round" stroke-linejoin="round"/>
<path d="M9 9.25H11" stroke="#233043" stroke-width="1.5" stroke-linecap="round" stroke-linejoin="round"/>
<path d="M9 12.25H15" stroke="#233043" stroke-width="1.5" stroke-linecap="round" stroke-linejoin="round"/>
<path d="M9 15.25H12" stroke="#233043" stroke-width="1.5" stroke-linecap="round" stroke-linejoin="round"/>
</svg>
