<svg width="24" height="24" viewBox="0 0 24 24" fill="none" xmlns="http://www.w3.org/2000/svg">
<path d="M18 21C19.6569 21 21 19.6569 21 18C21 16.3431 19.6569 15 18 15C16.3431 15 15 16.3431 15 18C15 19.6569 16.3431 21 18 21Z" fill="#FCC205"/>
<path fill-rule="evenodd" clip-rule="evenodd" d="M5.75 18.25V5.75H14.25V8.5C14.25 9.19036 14.8096 9.75 15.5 9.75H18.25V13C18.25 13.4142 18.5858 13.75 19 13.75C19.4142 13.75 19.75 13.4142 19.75 13V9C19.75 8.80109 19.671 8.61032 19.5303 8.46967L15.5303 4.46967C15.3897 4.32902 15.1989 4.25 15 4.25H5.5C4.80964 4.25 4.25 4.80964 4.25 5.5V18.5C4.25 19.1904 4.80964 19.75 5.5 19.75H13C13.4142 19.75 13.75 19.4142 13.75 19C13.75 18.5858 13.4142 18.25 13 18.25H5.75ZM17.1893 8.25L15.75 6.81066V8.25H17.1893ZM9 8.25C8.58579 8.25 8.25 8.58579 8.25 9C8.25 9.41421 8.58579 9.75 9 9.75H11C11.4142 9.75 11.75 9.41421 11.75 9C11.75 8.58579 11.4142 8.25 11 8.25H9ZM8.25 12C8.25 11.5858 8.58579 11.25 9 11.25H15C15.4142 11.25 15.75 11.5858 15.75 12C15.75 12.4142 15.4142 12.75 15 12.75H9C8.58579 12.75 8.25 12.4142 8.25 12ZM9 14.25C8.58579 14.25 8.25 14.5858 8.25 15C8.25 15.4142 8.58579 15.75 9 15.75H12C12.4142 15.75 12.75 15.4142 12.75 15C12.75 14.5858 12.4142 14.25 12 14.25H9Z" fill="#233043"/>
</svg>
