<svg width="24" height="24" viewBox="0 0 24 24" fill="none" xmlns="http://www.w3.org/2000/svg">
<path fill-rule="evenodd" clip-rule="evenodd" d="M8 2.25C8.41421 2.25 8.75 2.58579 8.75 3V4.25H15.25V3C15.25 2.58579 15.5858 2.25 16 2.25C16.4142 2.25 16.75 2.58579 16.75 3V4.25H19.5C20.1904 4.25 20.75 4.80964 20.75 5.5V18.5C20.75 19.1904 20.1904 19.75 19.5 19.75H4.5C3.80964 19.75 3.25 19.1904 3.25 18.5V5.5C3.25 4.80964 3.80964 4.25 4.5 4.25H7.25V3C7.25 2.58579 7.58579 2.25 8 2.25ZM15.25 5.75V6C15.25 6.41421 15.5858 6.75 16 6.75C16.4142 6.75 16.75 6.41421 16.75 6V5.75H19.25V18.25H4.75V5.75H7.25V6C7.25 6.41421 7.58579 6.75 8 6.75C8.41421 6.75 8.75 6.41421 8.75 6V5.75H15.25ZM12.75 9.01624C12.75 8.60202 12.4142 8.26624 12 8.26624C11.5858 8.26624 11.25 8.60202 11.25 9.01624V11.25H9.01624C8.60202 11.25 8.26624 11.5858 8.26624 12C8.26624 12.4142 8.60202 12.75 9.01624 12.75H11.25V14.9838C11.25 15.398 11.5858 15.7338 12 15.7338C12.4142 15.7338 12.75 15.398 12.75 14.9838V12.75H14.9838C15.398 12.75 15.7338 12.4142 15.7338 12C15.7338 11.5858 15.398 11.25 14.9838 11.25H12.75V9.01624Z" fill="#233043"/>
</svg>
