<svg width="24" height="24" viewBox="0 0 24 24" fill="none" xmlns="http://www.w3.org/2000/svg">
<path fill-rule="evenodd" clip-rule="evenodd" d="M4.75 12C4.75 16.0041 7.99594 19.25 12 19.25C16.0041 19.25 19.25 16.0041 19.25 12C19.25 11.5858 19.5858 11.25 20 11.25C20.4142 11.25 20.75 11.5858 20.75 12C20.75 16.8325 16.8325 20.75 12 20.75C7.16751 20.75 3.25 16.8325 3.25 12C3.25 7.16751 7.16751 3.25 12 3.25C12.4142 3.25 12.75 3.58579 12.75 4C12.75 4.41421 12.4142 4.75 12 4.75C7.99594 4.75 4.75 7.99594 4.75 12Z" fill="#233043"/>
<path d="M9.5 10C9.5 10.5523 9.05228 11 8.5 11C7.94772 11 7.5 10.5523 7.5 10C7.5 9.44772 7.94772 9 8.5 9C9.05228 9 9.5 9.44772 9.5 10Z" fill="#233043"/>
<path d="M16.5 10C16.5 10.5523 16.0523 11 15.5 11C14.9477 11 14.5 10.5523 14.5 10C14.5 9.44772 14.9477 9 15.5 9C16.0523 9 16.5 9.44772 16.5 10Z" fill="#233043"/>
<path d="M15 5.25C14.5858 5.25 14.25 5.58579 14.25 6C14.25 6.41421 14.5858 6.75 15 6.75H17.25V9C17.25 9.41421 17.5858 9.75 18 9.75C18.4142 9.75 18.75 9.41421 18.75 9V6.75H21C21.4142 6.75 21.75 6.41421 21.75 6C21.75 5.58579 21.4142 5.25 21 5.25H18.75V3C18.75 2.58579 18.4142 2.25 18 2.25C17.5858 2.25 17.25 2.58579 17.25 3V5.25H15Z" fill="#233043"/>
<path fill-rule="evenodd" clip-rule="evenodd" d="M6.86926 12.2614C7.27712 12.1891 7.66634 12.4612 7.73862 12.869C8.07346 14.7585 9.82829 16.2499 12.0001 16.2499C14.172 16.2499 15.9268 14.7585 16.2616 12.869C16.3339 12.4612 16.7231 12.1891 17.131 12.2614C17.5389 12.3337 17.8109 12.7229 17.7386 13.1307C17.2689 15.7816 14.8527 17.7499 12.0001 17.7499C9.1475 17.7499 6.73138 15.7816 6.26163 13.1307C6.18936 12.7229 6.4614 12.3337 6.86926 12.2614Z" fill="#233043"/>
</svg>
