<svg width="24" height="24" viewBox="0 0 24 24" fill="none" xmlns="http://www.w3.org/2000/svg">
<path fill-rule="evenodd" clip-rule="evenodd" d="M12 4.75C7.99594 4.75 4.75 7.99594 4.75 12C4.75 13.982 5.54536 15.7783 6.83432 17.0871C7.41583 15.7195 8.40257 14.5858 9.6391 13.9137C8.79163 13.2262 8.25 12.1763 8.25 11C8.25 8.92893 9.92893 7.25 12 7.25C14.0711 7.25 15.75 8.92893 15.75 11C15.75 12.0944 15.2812 13.0794 14.5334 13.7649C14.5781 13.7859 14.6225 13.8074 14.6666 13.8295C15.0369 14.0151 15.1866 14.4657 15.001 14.836C14.8154 15.2064 14.3648 15.3561 13.9945 15.1705C13.4524 14.8988 12.8583 14.75 12.235 14.75C10.3904 14.75 8.72899 16.0807 8.05797 18.0857C9.19271 18.8222 10.5464 19.25 12 19.25C12.4142 19.25 12.75 19.5858 12.75 20C12.75 20.4142 12.4142 20.75 12 20.75C7.16751 20.75 3.25 16.8325 3.25 12C3.25 7.16751 7.16751 3.25 12 3.25C16.8325 3.25 20.75 7.16751 20.75 12C20.75 12.4142 20.4142 12.75 20 12.75C19.5858 12.75 19.25 12.4142 19.25 12C19.25 7.99594 16.0041 4.75 12 4.75ZM12 8.75C10.7574 8.75 9.75 9.75736 9.75 11C9.75 12.2426 10.7574 13.25 12 13.25C13.2426 13.25 14.25 12.2426 14.25 11C14.25 9.75736 13.2426 8.75 12 8.75ZM17 13.25C17.4142 13.25 17.75 13.5858 17.75 14V16.25H20C20.4142 16.25 20.75 16.5858 20.75 17C20.75 17.4142 20.4142 17.75 20 17.75H17.75V20C17.75 20.4142 17.4142 20.75 17 20.75C16.5858 20.75 16.25 20.4142 16.25 20V17.75H14C13.5858 17.75 13.25 17.4142 13.25 17C13.25 16.5858 13.5858 16.25 14 16.25H16.25V14C16.25 13.5858 16.5858 13.25 17 13.25Z" fill="#233043"/>
</svg>
