<svg width="24" height="24" viewBox="0 0 24 24" fill="none" xmlns="http://www.w3.org/2000/svg">
<path fill-rule="evenodd" clip-rule="evenodd" d="M17 5H8C7.72386 5 7.5 5.22386 7.5 5.5V6.75H8C8.41421 6.75 8.75 7.08579 8.75 7.5C8.75 7.91421 8.41421 8.25 8 8.25H7.5V10.75H8C8.41421 10.75 8.75 11.0858 8.75 11.5C8.75 11.9142 8.41421 12.25 8 12.25H7.5V14.75H8C8.41421 14.75 8.75 15.0858 8.75 15.5C8.75 15.9142 8.41421 16.25 8 16.25H7.5V17.5C7.5 17.7761 7.72386 18 8 18H17C17.2761 18 17.5 17.7761 17.5 17.5V5.5C17.5 5.22386 17.2761 5 17 5ZM6 16.25V17.5C6 18.6046 6.89543 19.5 8 19.5H17C18.1046 19.5 19 18.6046 19 17.5V5.5C19 4.39543 18.1046 3.5 17 3.5H8C6.89543 3.5 6 4.39543 6 5.5V6.75H5C4.58579 6.75 4.25 7.08579 4.25 7.5C4.25 7.91421 4.58579 8.25 5 8.25H6V10.75H5C4.58579 10.75 4.25 11.0858 4.25 11.5C4.25 11.9142 4.58579 12.25 5 12.25H6V14.75H5C4.58579 14.75 4.25 15.0858 4.25 15.5C4.25 15.9142 4.58579 16.25 5 16.25H6ZM11 8.25C10.5858 8.25 10.25 8.58579 10.25 9C10.25 9.41421 10.5858 9.75 11 9.75H14C14.4142 9.75 14.75 9.41421 14.75 9C14.75 8.58579 14.4142 8.25 14 8.25H11Z" fill="#233043"/>
</svg>
