<svg width="25" height="24" viewBox="0 0 25 24" fill="none" xmlns="http://www.w3.org/2000/svg">
<path fill-rule="evenodd" clip-rule="evenodd" d="M11.5279 3.88992C11.9594 3.13105 13.0532 3.13136 13.4842 3.89046L22.2628 19.3508C22.6887 20.1008 22.147 21.0313 21.2845 21.0313H3.71589C2.85317 21.0313 2.31151 20.1002 2.73791 19.3503L11.5279 3.88992ZM12.5057 5.33156L4.4679 19.4688H20.533L12.5057 5.33156ZM12.5 10.5584C12.9314 10.5584 13.2812 10.9082 13.2812 11.3396V14.4726C13.2812 14.904 12.9314 15.2538 12.5 15.2538C12.0685 15.2538 11.7187 14.904 11.7187 14.4726V11.3396C11.7187 10.9082 12.0685 10.5584 12.5 10.5584ZM12.4999 18.011C13.0752 18.011 13.5416 17.5633 13.5416 17.011C13.5416 16.4587 13.0752 16.011 12.4999 16.011C11.9246 16.011 11.4583 16.4587 11.4583 17.011C11.4583 17.5633 11.9246 18.011 12.4999 18.011Z" fill="#233043"/>
</svg>
