<svg width="24" height="24" viewBox="0 0 24 24" fill="none" xmlns="http://www.w3.org/2000/svg">
<path fill-rule="evenodd" clip-rule="evenodd" d="M11.0668 3.88992C11.481 3.13105 12.5311 3.13136 12.9448 3.89046L21.3723 19.3508C21.7811 20.1008 21.2611 21.0313 20.4331 21.0313H3.56724C2.73903 21.0313 2.21904 20.1002 2.62838 19.3503L11.0668 3.88992ZM12.0054 5.33156L4.28917 19.4688H19.7117L12.0054 5.33156ZM12 10.5584C12.4142 10.5584 12.75 10.9082 12.75 11.3396V14.4726C12.75 14.904 12.4142 15.2538 12 15.2538C11.5858 15.2538 11.25 14.904 11.25 14.4726V11.3396C11.25 10.9082 11.5858 10.5584 12 10.5584ZM11.9999 18.011C12.5522 18.011 12.9999 17.5633 12.9999 17.011C12.9999 16.4587 12.5522 16.011 11.9999 16.011C11.4477 16.011 10.9999 16.4587 10.9999 17.011C10.9999 17.5633 11.4477 18.011 11.9999 18.011Z" fill="#233043"/>
</svg>
