<svg width="24" height="24" viewBox="0 0 24 24" fill="none" xmlns="http://www.w3.org/2000/svg">
<path fill-rule="evenodd" clip-rule="evenodd" d="M3.25 5.5C3.25 4.80964 3.80964 4.25 4.5 4.25H19.5C20.1904 4.25 20.75 4.80964 20.75 5.5V7.5C20.75 8.10474 20.3206 8.60918 19.75 8.725V18.5C19.75 19.1904 19.1904 19.75 18.5 19.75H5.5C4.80964 19.75 4.25 19.1904 4.25 18.5V8.725C3.67944 8.60918 3.25 8.10474 3.25 7.5V5.5ZM5 7.25H19H19.25V5.75H4.75V7.25H5ZM5.75 8.75V18.25H18.25V8.75H5.75ZM9.25 12C9.25 11.5858 9.58579 11.25 10 11.25H14C14.4142 11.25 14.75 11.5858 14.75 12C14.75 12.4142 14.4142 12.75 14 12.75H10C9.58579 12.75 9.25 12.4142 9.25 12Z" fill="#233043"/>
</svg>
