<svg width="24" height="24" viewBox="0 0 24 24" fill="none" xmlns="http://www.w3.org/2000/svg">
<path fill-rule="evenodd" clip-rule="evenodd" d="M8.35408 5.18639C8.25553 5.59669 8.57673 5.96055 8.99385 6.02435L9.02225 6.0287C9.10142 6.04081 9.18209 6.03905 9.26065 6.02351C9.58406 5.95953 9.80445 5.66766 9.91784 5.3581C10.1931 4.60664 11.0043 4 12 4C13.2426 4 14.25 5.00736 14.25 6.25V11.2044C14.25 11.6187 14.5858 11.9544 15 11.9544C15.4142 11.9544 15.75 11.6187 15.75 11.2044V6.25C15.75 4.17893 14.0711 2.5 12 2.5C10.3799 2.5 8.74089 3.57594 8.35408 5.18639ZM8.25 12.25V9.11995L3.44037 4.31032C3.14748 4.01743 3.14748 3.54255 3.44037 3.24966C3.73327 2.95677 4.20814 2.95677 4.50103 3.24966L20.4109 19.1596C20.7038 19.4525 20.7038 19.9273 20.4109 20.2202C20.118 20.5131 19.6432 20.5131 19.3503 20.2202L16.4744 17.3444C15.4518 18.2746 14.1855 18.8236 12.75 18.964V21.25H15.25C15.6642 21.25 16 21.5858 16 22C16 22.4142 15.6642 22.75 15.25 22.75H8.75C8.33579 22.75 8 22.4142 8 22C8 21.5858 8.33579 21.25 8.75 21.25H11.25V18.9588C7.87504 18.5857 5.25 15.7244 5.25 12.25C5.25 11.8358 5.58579 11.5 6 11.5C6.41421 11.5 6.75 11.8358 6.75 12.25C6.75 15.1495 9.1005 17.5 12 17.5C13.3679 17.5 14.514 17.0755 15.4122 16.2821L14.3235 15.1935C13.6851 15.698 12.8776 16 12 16C9.92893 16 8.25 14.3211 8.25 12.25ZM9.75 10.6199L13.2574 14.1274C13.2199 14.1452 13.1833 14.1647 13.1478 14.1858C12.8116 14.3856 12.4193 14.5 12 14.5C10.7574 14.5 9.75 13.4926 9.75 12.25V10.6199ZM18.75 12.25C18.75 11.8358 18.4142 11.5 18 11.5C17.5858 11.5 17.25 11.8358 17.25 12.25C17.25 12.9613 17.1977 13.4104 16.998 13.9539C16.8551 14.3427 17.0544 14.7737 17.4432 14.9166C17.832 15.0594 18.263 14.8601 18.4059 14.4713C18.689 13.701 18.75 13.0583 18.75 12.25Z" fill="#233043"/>
</svg>
