<svg width="24" height="24" viewBox="0 0 24 24" fill="none" xmlns="http://www.w3.org/2000/svg">
<path fill-rule="evenodd" clip-rule="evenodd" d="M8.25 5.25C8.25 3.17893 9.92893 1.5 12 1.5C14.0711 1.5 15.75 3.17893 15.75 5.25V11.25C15.75 13.3211 14.0711 15 12 15C9.92893 15 8.25 13.3211 8.25 11.25V5.25ZM12 3C10.7574 3 9.75 4.00736 9.75 5.25V11.25C9.75 12.4926 10.7574 13.5 12 13.5C13.2426 13.5 14.25 12.4926 14.25 11.25V5.25C14.25 4.00736 13.2426 3 12 3Z" fill="#233043"/>
<path fill-rule="evenodd" clip-rule="evenodd" d="M6 10.5C6.41421 10.5 6.75 10.8358 6.75 11.25C6.75 14.1495 9.10051 16.5 12 16.5C14.9089 16.5 17.25 14.255 17.25 11.25C17.25 10.8358 17.5858 10.5 18 10.5C18.4142 10.5 18.75 10.8358 18.75 11.25C18.75 14.8396 16.1176 17.6006 12.75 17.9602V20.25H15.25C15.6642 20.25 16 20.5858 16 21C16 21.4142 15.6642 21.75 15.25 21.75H8.75C8.33579 21.75 8 21.4142 8 21C8 20.5858 8.33579 20.25 8.75 20.25H11.25V17.9588C7.87504 17.5857 5.25 14.7244 5.25 11.25C5.25 10.8358 5.58579 10.5 6 10.5Z" fill="#233043"/>
</svg>
