<svg width="24" height="24" viewBox="0 0 24 24" fill="none" xmlns="http://www.w3.org/2000/svg">
<path fill-rule="evenodd" clip-rule="evenodd" d="M5.75 5C5.75 4.58579 5.41421 4.25 5 4.25C4.58579 4.25 4.25 4.58579 4.25 5V18.5C4.25 19.1904 4.80964 19.75 5.5 19.75H19C19.4142 19.75 19.75 19.4142 19.75 19C19.75 18.5858 19.4142 18.25 19 18.25H5.75V5ZM9.75 10C9.75 9.58579 9.41421 9.25 9 9.25C8.58579 9.25 8.25 9.58579 8.25 10V15C8.25 15.4142 8.58579 15.75 9 15.75C9.41421 15.75 9.75 15.4142 9.75 15V10ZM13 5.25C13.4142 5.25 13.75 5.58579 13.75 6V15C13.75 15.4142 13.4142 15.75 13 15.75C12.5858 15.75 12.25 15.4142 12.25 15V6C12.25 5.58579 12.5858 5.25 13 5.25ZM17.75 13C17.75 12.5858 17.4142 12.25 17 12.25C16.5858 12.25 16.25 12.5858 16.25 13V15C16.25 15.4142 16.5858 15.75 17 15.75C17.4142 15.75 17.75 15.4142 17.75 15V13Z" fill="#233043"/>
</svg>
