<svg width="24" height="24" viewBox="0 0 24 24" fill="none" xmlns="http://www.w3.org/2000/svg">
<g clip-path="url(#clip0)">
<path fill-rule="evenodd" clip-rule="evenodd" d="M12 24C18.6274 24 24 18.6274 24 12C24 5.37258 18.6274 0 12 0C5.37258 0 0 5.37258 0 12C0 18.6274 5.37258 24 12 24ZM9.46984 6.53033C9.17695 6.23744 9.17695 5.76256 9.46984 5.46967C9.76273 5.17678 10.2376 5.17678 10.5305 5.46967L16.1769 11.1161C16.6651 11.6043 16.6651 12.3957 16.1769 12.8839L10.5305 18.5303C10.2376 18.8232 9.76273 18.8232 9.46984 18.5303C9.17695 18.2374 9.17695 17.7626 9.46984 17.4697L14.9395 12L9.46984 6.53033Z" fill="#233043"/>
</g>
<defs>
<clipPath id="clip0">
<rect width="24" height="24" fill="white"/>
</clipPath>
</defs>
</svg>
