<svg width="24" height="24" viewBox="0 0 24 24" fill="none" xmlns="http://www.w3.org/2000/svg">
<path fill-rule="evenodd" clip-rule="evenodd" d="M12 24C18.6274 24 24 18.6274 24 12C24 5.37258 18.6274 0 12 0C5.37258 0 0 5.37258 0 12C0 18.6274 5.37258 24 12 24ZM9.46975 6.53033C9.17685 6.23744 9.17685 5.76256 9.46975 5.46967C9.76264 5.17678 10.2375 5.17678 10.5304 5.46967L16.1769 11.1161C16.665 11.6043 16.665 12.3957 16.1769 12.8839L10.5304 18.5303C10.2375 18.8232 9.76264 18.8232 9.46975 18.5303C9.17685 18.2374 9.17685 17.7626 9.46975 17.4697L14.9394 12L9.46975 6.53033Z" fill="#233043"/>
</svg>
