<svg width="24" height="24" viewBox="0 0 24 24" fill="none" xmlns="http://www.w3.org/2000/svg">
<path fill-rule="evenodd" clip-rule="evenodd" d="M12 24C18.6274 24 24 18.6274 24 12C24 5.37258 18.6274 0 12 0C5.37258 0 0 5.37258 0 12C0 18.6274 5.37258 24 12 24ZM14.5303 6.53033C14.8231 6.23744 14.8231 5.76256 14.5303 5.46967C14.2374 5.17678 13.7625 5.17678 13.4696 5.46967L7.82315 11.1161C7.33499 11.6043 7.33499 12.3957 7.82315 12.8839L13.4696 18.5303C13.7625 18.8232 14.2374 18.8232 14.5303 18.5303C14.8231 18.2374 14.8231 17.7626 14.5303 17.4697L9.06058 12L14.5303 6.53033Z" fill="#233043"/>
</svg>
