<svg width="24" height="24" viewBox="0 0 24 24" fill="none" xmlns="http://www.w3.org/2000/svg">
<path fill-rule="evenodd" clip-rule="evenodd" d="M6 4.25C5.58579 4.25 5.25 4.58579 5.25 5C5.25 5.41421 5.58579 5.75 6 5.75H7.25V11V18.25H6C5.58579 18.25 5.25 18.5858 5.25 19C5.25 19.4142 5.58579 19.75 6 19.75H14C16.6234 19.75 18.75 17.6234 18.75 15C18.75 12.986 17.4966 11.2648 15.7273 10.5738C16.3613 9.90222 16.75 8.9965 16.75 8C16.75 5.92893 15.0711 4.25 13 4.25H6ZM13 10.25C14.2426 10.25 15.25 9.24264 15.25 8C15.25 6.75736 14.2426 5.75 13 5.75H8.75V10.25H13ZM8.75 11.75V18.25H14C15.7949 18.25 17.25 16.7949 17.25 15C17.25 13.2051 15.7949 11.75 14 11.75H13H8.75Z" fill="#233043"/>
</svg>
