<svg width="24" height="24" viewBox="0 0 24 24" fill="none" xmlns="http://www.w3.org/2000/svg">
<path fill-rule="evenodd" clip-rule="evenodd" d="M4.06147 3.89157C4.25704 3.75061 4.50846 3.71226 4.73717 3.78849L10.6217 5.75001H13.3783L19.2628 3.78849C19.4915 3.71226 19.743 3.75061 19.9385 3.89157C20.1341 4.03254 20.25 4.25892 20.25 4.50001V17.5C20.25 17.8228 20.0434 18.1094 19.7372 18.2115L13.7372 20.2115C13.6607 20.237 13.5806 20.25 13.5 20.25H10.5C10.4194 20.25 10.3393 20.237 10.2628 20.2115L4.26283 18.2115C3.95657 18.1094 3.75 17.8228 3.75 17.5V4.50001C3.75 4.25892 3.86589 4.03254 4.06147 3.89157ZM12.75 7.25001H11.25V18.75H12.75V7.25001ZM14.25 18.4594L18.75 16.9594V5.54058L14.25 7.04058V18.4594ZM9.75 18.4594V7.04058L5.25 5.54057V16.9594L9.75 18.4594Z" fill="#233043"/>
</svg>
