<svg width="24" height="24" viewBox="0 0 24 24" fill="none" xmlns="http://www.w3.org/2000/svg">
<path fill-rule="evenodd" clip-rule="evenodd" d="M8.75 3C8.75 2.58579 8.41421 2.25 8 2.25C7.58579 2.25 7.25 2.58579 7.25 3V4.25H4.5C3.80964 4.25 3.25 4.80964 3.25 5.5V9V18.5C3.25 19.1904 3.80964 19.75 4.5 19.75H19.5C20.1904 19.75 20.75 19.1904 20.75 18.5V9V5.5C20.75 4.80964 20.1904 4.25 19.5 4.25H16.75V3C16.75 2.58579 16.4142 2.25 16 2.25C15.5858 2.25 15.25 2.58579 15.25 3V4.25H8.75V3ZM19.25 8.25V5.75H16.75V6C16.75 6.41421 16.4142 6.75 16 6.75C15.5858 6.75 15.25 6.41421 15.25 6V5.75H8.75V6C8.75 6.41421 8.41421 6.75 8 6.75C7.58579 6.75 7.25 6.41421 7.25 6V5.75H4.75V8.25H19.25ZM4.75 9.75H19.25V18.25H4.75V9.75Z" fill="#233043"/>
</svg>
