<svg width="24" height="24" viewBox="0 0 24 24" fill="none" xmlns="http://www.w3.org/2000/svg">
<path fill-rule="evenodd" clip-rule="evenodd" d="M9.54057 4.5C9.21775 4.5 8.93114 4.70657 8.82906 5.01283L8 7.5H4.71698C4.30277 7.5 3.96698 7.83579 3.96698 8.25V18.75C3.96698 19.1642 4.30277 19.5 4.71698 19.5H19.283C19.6972 19.5 20.033 19.1642 20.033 18.75V8.25C20.033 7.83579 19.6972 7.5 19.283 7.5H16L15.1709 5.01283C15.0689 4.70657 14.7823 4.5 14.4594 4.5H9.54057ZM15 13.5C15 15.1569 13.6569 16.5 12 16.5C10.3431 16.5 9 15.1569 9 13.5C9 11.8431 10.3431 10.5 12 10.5C13.6569 10.5 15 11.8431 15 13.5Z" fill="#233043"/>
</svg>
