<svg width="24" height="24" viewBox="0 0 24 24" fill="none" xmlns="http://www.w3.org/2000/svg">
<path fill-rule="evenodd" clip-rule="evenodd" d="M4.71698 7.5C4.30277 7.5 3.96698 7.83579 3.96698 8.25V18.75C3.96698 19.1642 4.30277 19.5 4.71698 19.5H19.283C19.6972 19.5 20.033 19.1642 20.033 18.75V8.25C20.033 7.83579 19.6972 7.5 19.283 7.5H4.71698ZM12 16.5C13.6569 16.5 15 15.1569 15 13.5C15 11.8431 13.6569 10.5 12 10.5C10.3431 10.5 9 11.8431 9 13.5C9 15.1569 10.3431 16.5 12 16.5Z" fill="#233043"/>
<path d="M8.82906 5.01283C8.93114 4.70657 9.21775 4.5 9.54057 4.5H14.4594C14.7823 4.5 15.0689 4.70657 15.1709 5.01283L16.1709 8.01283C16.3328 8.49848 15.9713 9 15.4594 9H8.54057C8.02865 9 7.66717 8.49848 7.82906 8.01283L8.82906 5.01283Z" fill="#233043"/>
</svg>
