<svg width="24" height="24" viewBox="0 0 24 24" fill="none" xmlns="http://www.w3.org/2000/svg">
<path fill-rule="evenodd" clip-rule="evenodd" d="M4.75 11.5C4.75 7.49594 7.99594 4.25 12 4.25C16.0041 4.25 19.25 7.49594 19.25 11.5C19.25 15.5041 16.0041 18.75 12 18.75C7.99594 18.75 4.75 15.5041 4.75 11.5ZM12 2.75C7.16751 2.75 3.25 6.66751 3.25 11.5C3.25 16.3325 7.16751 20.25 12 20.25C16.8325 20.25 20.75 16.3325 20.75 11.5C20.75 6.66751 16.8325 2.75 12 2.75ZM12.75 6.5C12.75 6.08579 12.4142 5.75 12 5.75C11.5858 5.75 11.25 6.08579 11.25 6.5V11C11.25 11.6904 11.8096 12.25 12.5 12.25H17C17.4142 12.25 17.75 11.9142 17.75 11.5C17.75 11.0858 17.4142 10.75 17 10.75H12.75V6.5Z" fill="#233043"/>
</svg>
