<svg width="24" height="24" viewBox="0 0 24 24" fill="none" xmlns="http://www.w3.org/2000/svg">
<path fill-rule="evenodd" clip-rule="evenodd" d="M3.96967 3.96967C4.26256 3.67678 4.73744 3.67678 5.03033 3.96967L20.0303 18.9697C20.3232 19.2626 20.3232 19.7374 20.0303 20.0303C19.7374 20.3232 19.2626 20.3232 18.9697 20.0303L3.96967 5.03033C3.67678 4.73744 3.67678 4.26256 3.96967 3.96967Z" fill="#233043"/>
<path fill-rule="evenodd" clip-rule="evenodd" d="M9.89798 8.89617C8.90405 9.5708 8.25104 10.7101 8.25104 12.0018C8.25104 14.0734 9.93034 15.7527 12.0019 15.7527C13.2936 15.7527 14.4329 15.0996 15.1075 14.1057L14.0524 13.0506C13.704 13.7916 12.9191 14.2525 12.0019 14.2525C10.7589 14.2525 9.75122 13.2448 9.75122 12.0018C9.75122 11.0846 10.2957 10.3833 11.0806 10.0787L9.89798 8.89617ZM15.7077 12.5846C15.7373 12.3947 15.7527 12.2 15.7527 12.0018C15.7527 9.93031 14.0734 8.25101 12.0019 8.25101C11.8037 8.25101 11.609 8.26638 11.4191 8.296L15.7077 12.5846Z" fill="#233043"/>
<path fill-rule="evenodd" clip-rule="evenodd" d="M7.58501 6.58314C6.9364 6.96846 6.33905 7.40566 5.80311 7.85005C4.18461 9.19207 3.02982 10.6796 2.58569 11.2896C2.27531 11.716 2.27531 12.2884 2.58569 12.7148C3.02982 13.3248 4.18461 14.8123 5.80311 16.1543C7.40902 17.4859 9.56632 18.753 12.0019 18.753C14.3814 18.753 16.3178 17.8844 17.8042 16.8024L16.7285 15.7267C15.4676 16.5999 13.8939 17.2528 12.0019 17.2528C10.0786 17.2528 8.25696 16.2402 6.76067 14.9995C5.4105 13.88 4.40236 12.6387 3.92455 12.0022C4.40236 11.3657 5.4105 10.1244 6.76067 9.00488C7.35534 8.51179 8.0014 8.05473 8.6848 7.68293L7.58501 6.58314ZM17.903 14.7798C19.032 13.733 19.7719 12.6253 20.1157 12.0509C19.6597 11.4385 18.6521 10.1827 17.2896 9.04358C15.7855 7.78598 13.9458 6.75156 12.0019 6.75156C11.3774 6.75156 10.7636 6.85832 10.1682 7.045L8.9975 5.87431C9.93098 5.49224 10.94 5.25137 12.0019 5.25137C14.4628 5.25137 16.6399 6.54491 18.2519 7.89266C19.877 9.25138 21.0265 10.7479 21.4456 11.3274C21.7224 11.7104 21.7512 12.216 21.5158 12.6285C21.1911 13.1972 20.3437 14.5512 18.9644 15.8412L17.903 14.7798Z" fill="#233043"/>
</svg>
