<svg width="24" height="24" viewBox="0 0 24 24" fill="none" xmlns="http://www.w3.org/2000/svg">
<path fill-rule="evenodd" clip-rule="evenodd" d="M16.2161 17.2765C16.509 17.5693 16.9838 17.5693 17.2767 17.2765C17.5696 16.9836 17.5696 16.5087 17.2767 16.2158L13.0607 11.9998L17.2767 7.7838C17.5696 7.49091 17.5696 7.01603 17.2767 6.72314C16.9838 6.43025 16.509 6.43025 16.2161 6.72314L12.0001 10.9391L7.78407 6.72315C7.49118 6.43026 7.01631 6.43026 6.72341 6.72315C6.43052 7.01604 6.43052 7.49092 6.72341 7.78381L10.9394 11.9998L6.72344 16.2158C6.43054 16.5087 6.43054 16.9836 6.72344 17.2764C7.01633 17.5693 7.4912 17.5693 7.7841 17.2764L12.0001 13.0605L16.2161 17.2765Z" fill="#233043"/>
</svg>
