<svg width="24" height="24" viewBox="0 0 24 24" fill="none" xmlns="http://www.w3.org/2000/svg">
<path fill-rule="evenodd" clip-rule="evenodd" d="M5.5 4.25C4.80964 4.25 4.25 4.80964 4.25 5.5V14.5C4.25 15.1904 4.80964 15.75 5.5 15.75H8.25V18.5C8.25 19.1904 8.80964 19.75 9.5 19.75H18.5C19.1904 19.75 19.75 19.1904 19.75 18.5V9.5C19.75 8.80964 19.1904 8.25 18.5 8.25H15.75V5.5C15.75 4.80964 15.1904 4.25 14.5 4.25H5.5ZM14.25 8.25V5.75H5.75V14.25H8.25V9.5C8.25 8.80964 8.80964 8.25 9.5 8.25H14.25ZM9.75 15V18.25H18.25V9.75H15H9.75V15Z" fill="#233043"/>
</svg>
