<svg width="24" height="24" viewBox="0 0 24 24" fill="none" xmlns="http://www.w3.org/2000/svg">
<path fill-rule="evenodd" clip-rule="evenodd" d="M18.4132 17.4214C18.5955 17.4214 18.7432 17.5692 18.7432 17.7514V19.92C18.7432 20.1023 18.5955 20.25 18.4132 20.25H5.58692C5.40466 20.25 5.25692 20.1023 5.25692 19.92V17.7514C5.25692 17.5692 5.40466 17.4214 5.58692 17.4214H18.4132ZM11.7398 4.08362C11.8719 3.91428 12.1281 3.91428 12.2602 4.08362L15.8674 8.70682C15.9695 8.83771 16.153 8.87235 16.2958 8.78771L20.3414 6.39026C20.5905 6.24269 20.8953 6.46438 20.8316 6.74675L18.8013 15.7497C18.7673 15.9003 18.6337 16.0072 18.4794 16.0072H5.52078C5.3665 16.0072 5.23281 15.9003 5.19887 15.7498L3.16841 6.74675C3.10473 6.46438 3.40954 6.24268 3.65856 6.39025L7.70438 8.78772C7.84721 8.87235 8.03067 8.8377 8.13279 8.70681L11.7398 4.08362Z" fill="#233043"/>
</svg>
