<svg width="24" height="24" viewBox="0 0 24 24" fill="none" xmlns="http://www.w3.org/2000/svg">
<path fill-rule="evenodd" clip-rule="evenodd" d="M18.4132 17.4213C18.5955 17.4213 18.7432 17.569 18.7432 17.7513V19.9198C18.7432 20.1021 18.5955 20.2498 18.4132 20.2498H5.58692C5.40466 20.2498 5.25692 20.1021 5.25692 19.9198V17.7513C5.25692 17.569 5.40466 17.4213 5.58692 17.4213H18.4132ZM11.7398 4.08347C11.8719 3.91413 12.1281 3.91413 12.2602 4.08347L15.8674 8.70666C15.9695 8.83755 16.153 8.8722 16.2958 8.78756L20.3414 6.3901C20.5905 6.24253 20.8953 6.46422 20.8316 6.7466L18.8013 15.7496C18.7673 15.9001 18.6337 16.007 18.4794 16.007H5.52078C5.3665 16.007 5.23281 15.9001 5.19887 15.7496L3.16841 6.7466C3.10473 6.46422 3.40954 6.24253 3.65856 6.3901L7.70438 8.78756C7.84721 8.8722 8.03067 8.83755 8.13279 8.70666L11.7398 4.08347Z" fill="#233043"/>
</svg>
