<svg width="24" height="24" viewBox="0 0 24 24" fill="none" xmlns="http://www.w3.org/2000/svg">
<path d="M14.9999 5H5.49988C5.22374 5 4.99988 5.22386 4.99988 5.5V18.5C4.99988 18.7761 5.22374 19 5.49988 19H18.4999C18.776 19 18.9999 18.7761 18.9999 18.5V9M14.9999 5L18.9999 9M14.9999 5V8.5C14.9999 8.77614 15.2237 9 15.4999 9H18.9999" stroke="#233043" stroke-width="1.5" stroke-linecap="round" stroke-linejoin="round"/>
<path d="M10.0431 13.5186C9.93684 12.6367 9.2694 12.1296 8.3857 12.1296C7.37709 12.1296 6.60712 12.8418 6.60712 14.0909C6.60712 15.3363 7.36404 16.0522 8.3857 16.0522C9.36449 16.0522 9.95548 15.4016 10.0431 14.6987L9.22652 14.695C9.15009 15.1033 8.82942 15.3382 8.39875 15.3382C7.81894 15.3382 7.42556 14.9075 7.42556 14.0909C7.42556 13.2967 7.81335 12.8437 8.40435 12.8437C8.8462 12.8437 9.165 13.0991 9.22652 13.5186H10.0431Z" fill="#233043"/>
<path d="M12.6933 13.2799H13.467C13.4558 12.5995 12.8965 12.1296 12.0463 12.1296C11.2093 12.1296 10.5959 12.592 10.5996 13.2855C10.5978 13.8486 10.9949 14.1711 11.6399 14.3258L12.0557 14.4302C12.4714 14.5309 12.7026 14.6502 12.7045 14.9075C12.7026 15.1872 12.4379 15.3773 12.0277 15.3773C11.6082 15.3773 11.3062 15.1834 11.2801 14.8012H10.4989C10.5194 15.6272 11.1104 16.0541 12.037 16.0541C12.9692 16.0541 13.5173 15.6085 13.5192 14.9094C13.5173 14.2736 13.0382 13.9362 12.3745 13.787L12.0314 13.705C11.6996 13.6286 11.4218 13.5055 11.4274 13.2315C11.4274 12.9854 11.6455 12.8045 12.0408 12.8045C12.4267 12.8045 12.6634 12.9798 12.6933 13.2799Z" fill="#233043"/>
<path d="M14.752 12.1818H13.8552L15.1733 16H16.2136L17.5299 12.1818H16.635L15.7103 15.0828H15.6748L14.752 12.1818Z" fill="#233043"/>
</svg>
