<svg width="24" height="24" viewBox="0 0 24 24" fill="none" xmlns="http://www.w3.org/2000/svg">
<path fill-rule="evenodd" clip-rule="evenodd" d="M9.75 4.25V5.75H14.25V4.25H9.75ZM8.25 4V5.75H5C4.58579 5.75 4.25 6.08579 4.25 6.5C4.25 6.91421 4.58579 7.25 5 7.25H5.25V19C5.25 19.6904 5.80964 20.25 6.5 20.25H17.5C18.1904 20.25 18.75 19.6904 18.75 19V7.25H19C19.4142 7.25 19.75 6.91421 19.75 6.5C19.75 6.08579 19.4142 5.75 19 5.75H15.75V4C15.75 3.30964 15.1904 2.75 14.5 2.75H9.5C8.80964 2.75 8.25 3.30964 8.25 4ZM17.25 7.25H14.5H9.5H6.75V18.75H17.25V7.25ZM10 8.75C10.4142 8.75 10.75 9.08579 10.75 9.5V15.5C10.75 15.9142 10.4142 16.25 10 16.25C9.58579 16.25 9.25 15.9142 9.25 15.5V9.5C9.25 9.08579 9.58579 8.75 10 8.75ZM14.75 9.5C14.75 9.08579 14.4142 8.75 14 8.75C13.5858 8.75 13.25 9.08579 13.25 9.5V15.5C13.25 15.9142 13.5858 16.25 14 16.25C14.4142 16.25 14.75 15.9142 14.75 15.5V9.5Z" fill="#233043"/>
</svg>
