<svg width="24" height="24" viewBox="0 0 24 24" fill="none" xmlns="http://www.w3.org/2000/svg">
<path fill-rule="evenodd" clip-rule="evenodd" d="M12 3.75C12.4142 3.75 12.75 4.08579 12.75 4.5V13.6893L14.4697 11.9697C14.7626 11.6768 15.2374 11.6768 15.5303 11.9697C15.8232 12.2626 15.8232 12.7374 15.5303 13.0303L12.8839 15.6768C12.3957 16.1649 11.6043 16.1649 11.1161 15.6768L8.46967 13.0303C8.17678 12.7374 8.17678 12.2626 8.46967 11.9697C8.76256 11.6768 9.23744 11.6768 9.53033 11.9697L11.25 13.6893V4.5C11.25 4.08579 11.5858 3.75 12 3.75ZM5.75 14.5V17.75H18.25V14.5C18.25 14.0858 18.5858 13.75 19 13.75C19.4142 13.75 19.75 14.0858 19.75 14.5V18C19.75 18.6904 19.1904 19.25 18.5 19.25H5.5C4.80964 19.25 4.25 18.6904 4.25 18V14.5C4.25 14.0858 4.58579 13.75 5 13.75C5.41421 13.75 5.75 14.0858 5.75 14.5Z" fill="#233043"/>
</svg>
