<svg width="24" height="24" viewBox="0 0 24 24" fill="none" xmlns="http://www.w3.org/2000/svg">
<path fill-rule="evenodd" clip-rule="evenodd" d="M15.5001 8.00006C16.3285 8.00006 17.0001 7.32849 17.0001 6.50006C17.0001 5.67163 16.3285 5.00006 15.5001 5.00006C14.6716 5.00006 14.0001 5.67163 14.0001 6.50006C14.0001 7.32849 14.6716 8.00006 15.5001 8.00006ZM8.50079 8.00104C9.32922 8.00104 10.0008 7.32946 10.0008 6.50104C10.0008 5.67261 9.32922 5.00104 8.50079 5.00104C7.67237 5.00104 7.00079 5.67261 7.00079 6.50104C7.00079 7.32946 7.67237 8.00104 8.50079 8.00104ZM10 12.0001C10 12.8285 9.32843 13.5001 8.5 13.5001C7.67157 13.5001 7 12.8285 7 12.0001C7 11.1717 7.67157 10.5001 8.5 10.5001C9.32843 10.5001 10 11.1717 10 12.0001ZM8.5 19.0001C9.32843 19.0001 10 18.3285 10 17.5001C10 16.6716 9.32843 16.0001 8.5 16.0001C7.67157 16.0001 7 16.6716 7 17.5001C7 18.3285 7.67157 19.0001 8.5 19.0001ZM17.0001 12.0002C17.0001 12.8286 16.3285 13.5002 15.5001 13.5002C14.6716 13.5002 14.0001 12.8286 14.0001 12.0002C14.0001 11.1718 14.6716 10.5002 15.5001 10.5002C16.3285 10.5002 17.0001 11.1718 17.0001 12.0002ZM15.5001 18.9999C16.3285 18.9999 17.0001 18.3284 17.0001 17.4999C17.0001 16.6715 16.3285 15.9999 15.5001 15.9999C14.6716 15.9999 14.0001 16.6715 14.0001 17.4999C14.0001 18.3284 14.6716 18.9999 15.5001 18.9999Z" fill="#233043"/>
</svg>
