<svg width="24" height="24" viewBox="0 0 24 24" fill="none" xmlns="http://www.w3.org/2000/svg">
<path fill-rule="evenodd" clip-rule="evenodd" d="M15.1161 3.32321C15.6043 2.83506 16.3957 2.83506 16.8839 3.32321L19.7123 6.15164C20.2005 6.6398 20.2005 7.43125 19.7123 7.91941L10.429 17.2027C10.3367 17.2951 10.2218 17.3617 10.0958 17.396L6.08049 18.4896C5.14765 18.7436 4.29189 17.8879 4.54595 16.955L5.6395 12.9398C5.67382 12.8137 5.74046 12.6989 5.83281 12.6065L15.1161 3.32321ZM16 4.56065L7.4238 13.1368L9.89868 15.6117L18.4749 7.03553L16 4.56065ZM8.45412 16.2885L6.74704 14.5814L6.1081 16.9274L8.45412 16.2885Z" fill="#233043"/>
</svg>
