<svg width="24" height="24" viewBox="0 0 24 24" fill="none" xmlns="http://www.w3.org/2000/svg">
<path fill-rule="evenodd" clip-rule="evenodd" d="M4.74994 6C4.33573 6 3.99994 6.33579 3.99994 6.75C3.99994 6.81781 4.03006 6.88212 4.08215 6.92553L11.6799 13.257C11.8653 13.4115 12.1346 13.4115 12.3201 13.257L19.9177 6.92562C19.9698 6.88219 19.9999 6.81785 19.9999 6.75C19.9999 6.33579 19.6642 6 19.2499 6H4.74994ZM19.9999 9.87716C19.9999 9.45324 19.5055 9.22166 19.1798 9.49305L12.8002 14.8094C12.3366 15.1957 11.6633 15.1957 11.1997 14.8094L4.82003 9.49299C4.49437 9.2216 3.99994 9.45318 3.99994 9.8771V17.25C3.99994 17.6642 4.33573 18 4.74994 18H19.2499C19.6642 18 19.9999 17.6642 19.9999 17.25V9.87716Z" fill="#233043"/>
</svg>
