<svg width="24" height="24" viewBox="0 0 24 24" fill="none" xmlns="http://www.w3.org/2000/svg">
<path d="M6.72968 14.4149C6.72968 15.5195 5.83424 16.4149 4.72968 16.4149C3.62511 16.4149 2.72968 15.5195 2.72968 14.4149C2.72968 13.3103 3.62511 12.4149 4.72968 12.4149C5.83424 12.4149 6.72968 13.3103 6.72968 14.4149Z" fill="#233043"/>
<path d="M11.4068 9.07208C11.4068 10.1767 10.5114 11.0721 9.4068 11.0721C8.30223 11.0721 7.4068 10.1767 7.4068 9.07208C7.4068 7.96751 8.30223 7.07208 9.4068 7.07208C10.5114 7.07208 11.4068 7.96751 11.4068 9.07208Z" fill="#233043"/>
<path d="M21.2703 7.07208C21.2703 8.17665 20.3749 9.07208 19.2703 9.07208C18.1658 9.07208 17.2703 8.17665 17.2703 7.07208C17.2703 5.96751 18.1658 5.07208 19.2703 5.07208C20.3749 5.07208 21.2703 5.96751 21.2703 7.07208Z" fill="#233043"/>
<path d="M16.3665 16.9279C16.3665 18.0325 15.4711 18.9279 14.3665 18.9279C13.2619 18.9279 12.3665 18.0325 12.3665 16.9279C12.3665 15.8233 13.2619 14.9279 14.3665 14.9279C15.4711 14.9279 16.3665 15.8233 16.3665 16.9279Z" fill="#233043"/>
<path fill-rule="evenodd" clip-rule="evenodd" d="M19.618 6.68093C19.9851 6.87293 20.1269 7.32612 19.9349 7.69314L15.5104 16.1508C15.0705 16.9918 13.8907 17.055 13.3635 16.2658L9.48556 10.4614L5.27652 14.9456C4.99304 15.2477 4.51841 15.2627 4.21639 14.9792C3.91438 14.6957 3.89935 14.2211 4.18283 13.9191L8.60723 9.20541C9.15781 8.61883 10.1111 8.69754 10.558 9.36648L14.3766 15.0822L18.6058 6.99784C18.7978 6.63081 19.251 6.48893 19.618 6.68093ZM14.6107 15.4325L14.6105 15.4322L14.6107 15.4325Z" fill="#233043"/>
</svg>
