<svg width="24" height="24" viewBox="0 0 24 24" fill="none" xmlns="http://www.w3.org/2000/svg">
<path fill-rule="evenodd" clip-rule="evenodd" d="M12 4.75C7.16751 4.75 3.25 8.66751 3.25 13.5V17.3737C3.25 17.8577 3.64234 18.25 4.12632 18.25H19.8737C20.3577 18.25 20.75 17.8577 20.75 17.3737V13.5C20.75 8.66751 16.8325 4.75 12 4.75ZM4.75 13.5C4.75 9.49594 7.99594 6.25 12 6.25C16.0041 6.25 19.25 9.49594 19.25 13.5V16.75H15.7418C15.6504 15.3609 14.8025 14.1783 13.6062 13.6104L14.2661 10.5516C14.3534 10.1467 14.096 9.74764 13.6911 9.6603C13.2862 9.57296 12.8871 9.83039 12.7998 10.2353L12.1489 13.2529C12.0995 13.251 12.0499 13.25 12 13.25C10.0129 13.25 8.38685 14.7955 8.2582 16.75H4.75V13.5ZM14.2363 16.75C14.1119 15.625 13.1581 14.75 12 14.75C10.8419 14.75 9.88809 15.625 9.76373 16.75H14.2363ZM12 9C12.4142 9 12.75 8.66421 12.75 8.25C12.75 7.83579 12.4142 7.5 12 7.5C11.5858 7.5 11.25 7.83579 11.25 8.25C11.25 8.66421 11.5858 9 12 9ZM8.5 10.25C8.5 10.6642 8.16421 11 7.75 11C7.33579 11 7 10.6642 7 10.25C7 9.83579 7.33579 9.5 7.75 9.5C8.16421 9.5 8.5 9.83579 8.5 10.25ZM6.75 14.9695C7.16421 14.9695 7.5 14.6337 7.5 14.2195C7.5 13.8053 7.16421 13.4695 6.75 13.4695C6.33579 13.4695 6 13.8053 6 14.2195C6 14.6337 6.33579 14.9695 6.75 14.9695ZM18 14.2195C18 14.6337 17.6642 14.9695 17.25 14.9695C16.8358 14.9695 16.5 14.6337 16.5 14.2195C16.5 13.8053 16.8358 13.4695 17.25 13.4695C17.6642 13.4695 18 13.8053 18 14.2195ZM16.25 11C16.6642 11 17 10.6642 17 10.25C17 9.83579 16.6642 9.5 16.25 9.5C15.8358 9.5 15.5 9.83579 15.5 10.25C15.5 10.6642 15.8358 11 16.25 11Z" fill="#233043"/>
</svg>
