<svg width="24" height="24" viewBox="0 0 24 24" fill="none" xmlns="http://www.w3.org/2000/svg">
<path fill-rule="evenodd" clip-rule="evenodd" d="M3.25 14C3.25 9.16751 7.16751 5.25 12 5.25C16.8325 5.25 20.75 9.16751 20.75 14V17.8737C20.75 18.3577 20.3577 18.75 19.8737 18.75H15.7418C15.6355 17.1347 14.5064 15.7988 12.996 15.3837L14.2115 11.7372C14.3425 11.3442 14.1302 10.9195 13.7372 10.7885C13.3442 10.6575 12.9195 10.8699 12.7885 11.2629L11.4459 15.2906C9.71827 15.5465 8.37466 16.9807 8.2582 18.75H4.12632C3.64234 18.75 3.25 18.3577 3.25 17.8737V14ZM12.0162 16.7501C12.0055 16.7503 11.9948 16.7503 11.9841 16.7501C10.8332 16.758 9.88752 17.6302 9.76373 18.75H14.2363C14.1125 17.6303 13.167 16.7582 12.0162 16.7501ZM12 9.5C12.4142 9.5 12.75 9.16421 12.75 8.75C12.75 8.33579 12.4142 8 12 8C11.5858 8 11.25 8.33579 11.25 8.75C11.25 9.16421 11.5858 9.5 12 9.5ZM8.5 10.75C8.5 11.1642 8.16421 11.5 7.75 11.5C7.33579 11.5 7 11.1642 7 10.75C7 10.3358 7.33579 10 7.75 10C8.16421 10 8.5 10.3358 8.5 10.75ZM6.75 15.4695C7.16421 15.4695 7.5 15.1337 7.5 14.7195C7.5 14.3053 7.16421 13.9695 6.75 13.9695C6.33579 13.9695 6 14.3053 6 14.7195C6 15.1337 6.33579 15.4695 6.75 15.4695ZM18 14.7195C18 15.1337 17.6642 15.4695 17.25 15.4695C16.8358 15.4695 16.5 15.1337 16.5 14.7195C16.5 14.3053 16.8358 13.9695 17.25 13.9695C17.6642 13.9695 18 14.3053 18 14.7195ZM16.25 11.5C16.6642 11.5 17 11.1642 17 10.75C17 10.3358 16.6642 10 16.25 10C15.8358 10 15.5 10.3358 15.5 10.75C15.5 11.1642 15.8358 11.5 16.25 11.5Z" fill="#233043"/>
</svg>
