<svg width="24" height="24" viewBox="0 0 24 24" fill="none" xmlns="http://www.w3.org/2000/svg">
<path fill-rule="evenodd" clip-rule="evenodd" d="M3.25 13.5C3.25 8.66751 7.16751 4.75 12 4.75C16.8325 4.75 20.75 8.66751 20.75 13.5V17.3737C20.75 17.8577 20.3577 18.25 19.8737 18.25H15.7418C15.6355 16.6347 14.5064 15.2988 12.996 14.8837L14.2115 11.2372C14.3425 10.8442 14.1302 10.4195 13.7372 10.2885C13.3442 10.1575 12.9195 10.3699 12.7885 10.7629L11.4459 14.7906C9.71827 15.0465 8.37466 16.4807 8.2582 18.25H4.12632C3.64234 18.25 3.25 17.8577 3.25 17.3737V13.5ZM12.0162 16.2501C12.0055 16.2503 11.9948 16.2503 11.9841 16.2501C10.8332 16.258 9.88752 17.1302 9.76373 18.25H14.2363C14.1125 17.1302 13.167 16.2582 12.0162 16.2501ZM12 9C12.4142 9 12.75 8.66421 12.75 8.25C12.75 7.83579 12.4142 7.5 12 7.5C11.5858 7.5 11.25 7.83579 11.25 8.25C11.25 8.66421 11.5858 9 12 9ZM8.5 10.25C8.5 10.6642 8.16421 11 7.75 11C7.33579 11 7 10.6642 7 10.25C7 9.83579 7.33579 9.5 7.75 9.5C8.16421 9.5 8.5 9.83579 8.5 10.25ZM6.75 14.9695C7.16421 14.9695 7.5 14.6337 7.5 14.2195C7.5 13.8053 7.16421 13.4695 6.75 13.4695C6.33579 13.4695 6 13.8053 6 14.2195C6 14.6337 6.33579 14.9695 6.75 14.9695ZM18 14.2195C18 14.6337 17.6642 14.9695 17.25 14.9695C16.8358 14.9695 16.5 14.6337 16.5 14.2195C16.5 13.8053 16.8358 13.4695 17.25 13.4695C17.6642 13.4695 18 13.8053 18 14.2195ZM16.25 11C16.6642 11 17 10.6642 17 10.25C17 9.83579 16.6642 9.5 16.25 9.5C15.8358 9.5 15.5 9.83579 15.5 10.25C15.5 10.6642 15.8358 11 16.25 11Z" fill="#233043"/>
</svg>
