<svg width="24" height="24" viewBox="0 0 24 24" fill="none" xmlns="http://www.w3.org/2000/svg">
    <path d="M18.5 4h-13a1 1 0 0 0-1 1v4a1 1 0 0 0 1 1h13a1 1 0 0 0 1-1V5a1 1 0 0 0-1-1ZM18 14H5.5a1 1 0 0 0-1 1v4a1 1 0 0 0 1 1H12" stroke="#233043" stroke-width="1.5" stroke-linecap="round" stroke-linejoin="round"/>
    <path fill-rule="evenodd" clip-rule="evenodd" d="M21.78 16.47a.75.75 0 0 1 0 1.06l-3.75 3.75a.75.75 0 0 1-1.035.025l-2.5-2.274a.75.75 0 1 1 1.01-1.11l1.97 1.793 3.245-3.244a.75.75 0 0 1 1.06 0Z" fill="#233043"/>
</svg>
