<svg width="24" height="24" viewBox="0 0 24 24" fill="none" xmlns="http://www.w3.org/2000/svg">
<path d="M13.2844 11.8541L7.59259 17.4479L10.4444 17.4479C10.874 17.4479 11.2222 17.7954 11.2222 18.224C11.2222 18.6526 10.874 19 10.4444 19L5.77778 19C5.34822 19 5 18.6526 5 18.224V13.5678C5 13.1392 5.34822 12.7917 5.77778 12.7917C6.20733 12.7917 6.55556 13.1392 6.55556 13.5678L6.55556 16.3505L12.7776 10.1738L16.4074 6.55206L13.5556 6.55207C13.126 6.55207 12.7778 6.20463 12.7778 5.77604C12.7778 5.34744 13.126 5 13.5556 5H18.2222C18.6518 5 19 5.34744 19 5.77604V10.4322C19 10.8608 18.6518 11.2083 18.2222 11.2083C17.7927 11.2083 17.4444 10.8608 17.4444 10.4322V7.64955L13.9439 11.196C13.9237 11.2221 13.9017 11.2471 13.8777 11.271L13.6152 11.5291L13.3592 11.7884C13.3354 11.8122 13.3104 11.8341 13.2844 11.8541Z" fill="#233043"/>
</svg>
