<svg width="24" height="24" viewBox="0 0 24 24" fill="none" xmlns="http://www.w3.org/2000/svg">
<path fill-rule="evenodd" clip-rule="evenodd" d="M6.7594 14.497C5.40939 13.3776 4.40138 12.1364 3.92362 11.5C4.40138 10.8636 5.40939 9.62244 6.7594 8.50305C8.2555 7.26251 10.0769 6.25 12 6.25C13.9436 6.25 15.7831 7.2843 17.2871 8.54174C18.6494 9.68076 19.6569 10.9363 20.1128 11.5487C19.7455 12.1624 18.926 13.385 17.6626 14.4915C16.2768 15.7053 14.3931 16.75 12 16.75C10.0769 16.75 8.2555 15.7375 6.7594 14.497ZM12 4.75C9.56471 4.75 7.40767 6.01694 5.80195 7.34836C4.18365 8.69022 3.02901 10.1775 2.58493 10.7875C2.27459 11.2138 2.27459 11.7862 2.58493 12.2125C3.02901 12.8225 4.18365 14.3098 5.80195 15.6516C7.40767 16.9831 9.56471 18.25 12 18.25C14.8621 18.25 17.083 16.9932 18.651 15.6199C20.2142 14.2507 21.1643 12.7364 21.5127 12.1262C21.7481 11.7138 21.7193 11.2082 21.4425 10.8253C21.0235 10.2458 19.8741 8.74952 18.2492 7.39096C16.6374 6.04338 14.4606 4.75 12 4.75ZM9.75 11.5C9.75 10.2574 10.7574 9.25 12 9.25C13.2426 9.25 14.25 10.2574 14.25 11.5C14.25 12.7426 13.2426 13.75 12 13.75C10.7574 13.75 9.75 12.7426 9.75 11.5ZM12 7.75C9.92893 7.75 8.25 9.42893 8.25 11.5C8.25 13.5711 9.92893 15.25 12 15.25C14.0711 15.25 15.75 13.5711 15.75 11.5C15.75 9.42893 14.0711 7.75 12 7.75Z" fill="#233043"/>
</svg>
