<svg width="24" height="24" viewBox="0 0 24 24" fill="none" xmlns="http://www.w3.org/2000/svg">
<path fill-rule="evenodd" clip-rule="evenodd" d="M11.25 9C11.25 9.41421 11.5858 9.75 12 9.75C12.4142 9.75 12.75 9.41421 12.75 9V7.75H19C19.4142 7.75 19.75 7.41421 19.75 7C19.75 6.58579 19.4142 6.25 19 6.25H12.75V5C12.75 4.58579 12.4142 4.25 12 4.25C11.5858 4.25 11.25 4.58579 11.25 5V6.25H5C4.58579 6.25 4.25 6.58579 4.25 7C4.25 7.41421 4.58579 7.75 5 7.75H11.25V9ZM16 14.75C15.5858 14.75 15.25 14.4142 15.25 14V12.75H5C4.58579 12.75 4.25 12.4142 4.25 12C4.25 11.5858 4.58579 11.25 5 11.25H15.25V10C15.25 9.58579 15.5858 9.25 16 9.25C16.4142 9.25 16.75 9.58579 16.75 10V11.25H19C19.4142 11.25 19.75 11.5858 19.75 12C19.75 12.4142 19.4142 12.75 19 12.75H16.75V14C16.75 14.4142 16.4142 14.75 16 14.75ZM7.25 19C7.25 19.4142 7.58579 19.75 8 19.75C8.41421 19.75 8.75 19.4142 8.75 19V17.75H19C19.4142 17.75 19.75 17.4142 19.75 17C19.75 16.5858 19.4142 16.25 19 16.25H8.75V15C8.75 14.5858 8.41421 14.25 8 14.25C7.58579 14.25 7.25 14.5858 7.25 15V16.25H5C4.58579 16.25 4.25 16.5858 4.25 17C4.25 17.4142 4.58579 17.75 5 17.75H7.25V19Z" fill="#233043"/>
</svg>
