<svg width="24" height="24" viewBox="0 0 24 24" fill="none" xmlns="http://www.w3.org/2000/svg">
<path fill-rule="evenodd" clip-rule="evenodd" d="M8.38603 5.17533C8.2194 5.4738 8.31219 5.99306 8.82084 6.27701C8.88753 6.31424 9.09083 6.3774 9.46251 6.42698C9.80519 6.47269 10.2064 6.49698 10.5985 6.50796C10.6599 6.50968 10.7207 6.51107 10.7807 6.51216C10.7483 6.46167 10.7152 6.41061 10.6815 6.35925C10.4664 6.03125 10.2352 5.70248 10.0164 5.43478C9.77914 5.14442 9.61869 5.00451 9.552 4.96728C9.04335 4.68332 8.55266 4.87685 8.38603 5.17533ZM11.9141 5.50354C12.1381 5.16341 12.3933 4.80003 12.6502 4.48566C12.8969 4.18373 13.2098 3.84466 13.545 3.65755C14.6437 3.04415 16.1108 3.29595 16.7518 4.44416C17.1782 5.20793 17.0751 6.07468 16.6349 6.75001H20C20.4142 6.75001 20.75 7.0858 20.75 7.50001V10.5C20.75 10.9142 20.4142 11.25 20 11.25H19.75V19.5C19.75 19.9142 19.4142 20.25 19 20.25H5C4.58579 20.25 4.25 19.9142 4.25 19.5V11.25H4C3.58579 11.25 3.25 10.9142 3.25 10.5V7.50001C3.25 7.0858 3.58579 6.75001 4 6.75001H7.1932C6.75299 6.07468 6.64992 5.20793 7.0763 4.44416C7.71729 3.29595 9.18438 3.04415 10.2832 3.65755C10.6183 3.84466 10.9312 4.18373 11.1779 4.48566C11.4348 4.80003 11.69 5.16341 11.9141 5.50354ZM18.25 11.25H12.75V18.75H18.25V11.25ZM11.25 11.25H5.75V18.75H11.25V11.25ZM19 9.75001H19.25V8.25001H12.75V9.75001H19ZM11.25 9.75001V8.25001H4.75V9.75001H5H11.25ZM15.0073 6.27701C15.5159 5.99306 15.6087 5.4738 15.4421 5.17533C15.2755 4.87685 14.7848 4.68332 14.2761 4.96728C14.2094 5.00451 14.049 5.14442 13.8117 5.43478C13.593 5.70248 13.3617 6.03125 13.1466 6.35925C13.1129 6.41061 13.0798 6.46167 13.0474 6.51216C13.1074 6.51107 13.1682 6.50968 13.2296 6.50796C13.6217 6.49698 14.0229 6.47269 14.3656 6.42698C14.7373 6.3774 14.9406 6.31424 15.0073 6.27701Z" fill="#233043"/>
</svg>
