<svg width="24" height="24" viewBox="0 0 24 24" fill="none" xmlns="http://www.w3.org/2000/svg">
<path d="M12 11H20V8H12M12 11H4V8H12M12 11V8" stroke="#233043" stroke-width="1.5" stroke-linecap="round" stroke-linejoin="round"/>
<path d="M12 11H5V20H12M12 11H19V20H12M12 11V20" stroke="#233043" stroke-width="1.5" stroke-linecap="round" stroke-linejoin="round"/>
<path d="M9.91758 4.81232C10.7213 5.261 12.0969 7.74686 12.0969 7.74686C12.0969 7.74686 9.25898 7.88046 8.45526 7.43179C7.65154 6.98311 7.32735 6.033 7.73116 5.30965C8.13497 4.58631 9.11387 4.36364 9.91758 4.81232Z" stroke="#233043" stroke-width="1.5" stroke-linecap="round" stroke-linejoin="round"/>
<path d="M13.9105 4.81232C13.1068 5.261 11.7312 7.74686 11.7312 7.74686C11.7312 7.74686 14.5691 7.88046 15.3729 7.43179C16.1766 6.98311 16.5008 6.033 16.097 5.30965C15.6932 4.58631 14.7143 4.36364 13.9105 4.81232Z" stroke="#233043" stroke-width="1.5" stroke-linecap="round" stroke-linejoin="round"/>
</svg>
