<svg width="24" height="24" viewBox="0 0 24 24" fill="none" xmlns="http://www.w3.org/2000/svg">
<path fill-rule="evenodd" clip-rule="evenodd" d="M19.1542 5.40642L18.6949 5.86577C19.9773 7.38801 20.75 9.35377 20.75 11.5C20.75 16.3325 16.8325 20.25 12 20.25C7.16751 20.25 3.25 16.3325 3.25 11.5C3.25 6.6675 7.16751 2.75 12 2.75C14.1462 2.75 16.112 3.52271 17.6342 4.80511L18.1161 4.3232V3.38129C18.1161 3.24868 18.1688 3.12151 18.2626 3.02774L19.5043 1.78604C19.6357 1.65463 19.8594 1.70745 19.9182 1.88376L20.2693 2.93701C20.3191 3.08632 20.4362 3.20347 20.5855 3.25324L21.6388 3.60433C21.8151 3.6631 21.8679 3.88686 21.7365 4.01827L20.4948 5.25997C20.401 5.35374 20.2739 5.40642 20.1413 5.40642H19.1542ZM4.75 11.5C4.75 7.49593 7.99594 4.25 12 4.25C13.7319 4.25 15.3219 4.85726 16.5689 5.87048L14.7865 7.65279C14.0038 7.08488 13.041 6.75 12 6.75C9.37665 6.75 7.25 8.87664 7.25 11.5C7.25 14.1233 9.37665 16.25 12 16.25C14.6234 16.25 16.75 14.1233 16.75 11.5C16.75 10.459 16.4151 9.49618 15.8472 8.71345L17.6295 6.93114C18.6427 8.17804 19.25 9.7681 19.25 11.5C19.25 15.5041 16.0041 18.75 12 18.75C7.99594 18.75 4.75 15.5041 4.75 11.5ZM12 8.25C12.6257 8.25 13.2102 8.42684 13.7061 8.73327L12.1769 10.2624C12.1191 10.2542 12.0601 10.25 12 10.25C11.3096 10.25 10.75 10.8096 10.75 11.5C10.75 12.1904 11.3096 12.75 12 12.75C12.6904 12.75 13.25 12.1904 13.25 11.5C13.25 11.4399 13.2458 11.3809 13.2376 11.3231L14.7667 9.79392C15.0732 10.2898 15.25 10.8743 15.25 11.5C15.25 13.2949 13.7949 14.75 12 14.75C10.2051 14.75 8.75 13.2949 8.75 11.5C8.75 9.70507 10.2051 8.25 12 8.25Z" fill="#233043"/>
</svg>
