<svg width="24" height="24" viewBox="0 0 24 24" fill="none" xmlns="http://www.w3.org/2000/svg">
<path fill-rule="evenodd" clip-rule="evenodd" d="M20 12C20 16.4183 16.4183 20 12 20C7.58172 20 4 16.4183 4 12C4 7.58172 7.58172 4 12 4C16.4183 4 20 7.58172 20 12ZM12 8.01953C10.8473 8.01953 9.91278 8.95401 9.91278 10.1067C9.91278 10.521 9.57699 10.8567 9.16278 10.8567C8.74857 10.8567 8.41278 10.521 8.41278 10.1067C8.41278 8.12558 10.0188 6.51953 12 6.51953C13.9811 6.51953 15.5872 8.12558 15.5872 10.1067C15.5872 11.8311 14.3712 13.2701 12.75 13.6153V14.3625C12.75 14.7768 12.4142 15.1125 12 15.1125C11.5858 15.1125 11.25 14.7768 11.25 14.3625V13.4439C11.25 12.7272 11.8181 12.259 12.367 12.1619C13.3446 11.9889 14.0872 11.1338 14.0872 10.1067C14.0872 8.95401 13.1527 8.01953 12 8.01953ZM12 18.332C12.6213 18.332 13.125 17.8284 13.125 17.207C13.125 16.5857 12.6213 16.082 12 16.082C11.3787 16.082 10.875 16.5857 10.875 17.207C10.875 17.8284 11.3787 18.332 12 18.332Z" fill="#233043"/>
</svg>
