<svg width="24" height="24" viewBox="0 0 24 24" fill="none" xmlns="http://www.w3.org/2000/svg">
<path fill-rule="evenodd" clip-rule="evenodd" d="M12 4.75C7.99594 4.75 4.75 7.99594 4.75 12C4.75 16.0041 7.99594 19.25 12 19.25C16.0041 19.25 19.25 16.0041 19.25 12C19.25 7.99594 16.0041 4.75 12 4.75ZM3.25 12C3.25 7.16751 7.16751 3.25 12 3.25C16.8325 3.25 20.75 7.16751 20.75 12C20.75 16.8325 16.8325 20.75 12 20.75C7.16751 20.75 3.25 16.8325 3.25 12ZM12 8.25C11.0044 8.25 10.25 9.01729 10.25 9.9C10.25 10.3142 9.91421 10.65 9.5 10.65C9.08579 10.65 8.75 10.3142 8.75 9.9C8.75 8.13174 10.2342 6.75 12 6.75C13.7658 6.75 15.25 8.13174 15.25 9.9C15.25 11.41 14.1639 12.6412 12.75 12.9655V13.5C12.75 13.9142 12.4142 14.25 12 14.25C11.5858 14.25 11.25 13.9142 11.25 13.5V12.8C11.25 12.0818 11.8188 11.62 12.3545 11.5162C13.1723 11.3579 13.75 10.6752 13.75 9.9C13.75 9.01729 12.9956 8.25 12 8.25ZM12 17C12.5523 17 13 16.5523 13 16C13 15.4477 12.5523 15 12 15C11.4477 15 11 15.4477 11 16C11 16.5523 11.4477 17 12 17Z" fill="#233043"/>
</svg>
