<svg width="24" height="25" viewBox="0 0 24 25" fill="none" xmlns="http://www.w3.org/2000/svg">
<path d="M5 10.5L4.51191 9.93056C4.34567 10.073 4.25 10.2811 4.25 10.5H5ZM12 4.5L12.4881 3.93056C12.2072 3.68981 11.7928 3.68981 11.5119 3.93056L12 4.5ZM5 20.5H4.25C4.25 20.9142 4.58579 21.25 5 21.25V20.5ZM10 20.5V21.25C10.4142 21.25 10.75 20.9142 10.75 20.5H10ZM10 14.5V13.75C9.58579 13.75 9.25 14.0858 9.25 14.5H10ZM14 14.5H14.75C14.75 14.0858 14.4142 13.75 14 13.75V14.5ZM14 20.5H13.25C13.25 20.9142 13.5858 21.25 14 21.25V20.5ZM19 20.5V21.25C19.4142 21.25 19.75 20.9142 19.75 20.5H19ZM19 10.5H19.75C19.75 10.2811 19.6543 10.073 19.4881 9.93056L19 10.5ZM5.48809 11.0694L12.4881 5.06944L11.5119 3.93056L4.51191 9.93056L5.48809 11.0694ZM5.75 20.5V10.5H4.25V20.5H5.75ZM10 19.75H5V21.25H10V19.75ZM10.75 20.5V14.5H9.25V20.5H10.75ZM10 15.25H14V13.75H10V15.25ZM13.25 14.5V20.5H14.75V14.5H13.25ZM19 19.75H14V21.25H19V19.75ZM18.25 10.5V20.5H19.75V10.5H18.25ZM11.5119 5.06944L18.5119 11.0694L19.4881 9.93056L12.4881 3.93056L11.5119 5.06944Z" fill="#233043"/>
</svg>
