<svg width="24" height="24" viewBox="0 0 24 24" fill="none" xmlns="http://www.w3.org/2000/svg">
<path d="M5 10L4.51191 9.43056C4.34567 9.57304 4.25 9.78106 4.25 10H5ZM12 4L12.4881 3.43056C12.2072 3.18981 11.7928 3.18981 11.5119 3.43056L12 4ZM5 20H4.25C4.25 20.4142 4.58579 20.75 5 20.75V20ZM10 20V20.75C10.4142 20.75 10.75 20.4142 10.75 20H10ZM10 14V13.25C9.58579 13.25 9.25 13.5858 9.25 14H10ZM14 14H14.75C14.75 13.5858 14.4142 13.25 14 13.25V14ZM14 20H13.25C13.25 20.4142 13.5858 20.75 14 20.75V20ZM19 20V20.75C19.4142 20.75 19.75 20.4142 19.75 20H19ZM19 10H19.75C19.75 9.78106 19.6543 9.57304 19.4881 9.43056L19 10ZM5.48809 10.5694L12.4881 4.56944L11.5119 3.43056L4.51191 9.43056L5.48809 10.5694ZM5.75 20V10H4.25V20H5.75ZM10 19.25H5V20.75H10V19.25ZM10.75 20V14H9.25V20H10.75ZM10 14.75H14V13.25H10V14.75ZM13.25 14V20H14.75V14H13.25ZM19 19.25H14V20.75H19V19.25ZM18.25 10V20H19.75V10H18.25ZM11.5119 4.56944L18.5119 10.5694L19.4881 9.43056L12.4881 3.43056L11.5119 4.56944Z" fill="#233043"/>
</svg>
