<svg width="24" height="24" viewBox="0 0 24 24" fill="none" xmlns="http://www.w3.org/2000/svg">
<path fill-rule="evenodd" clip-rule="evenodd" d="M12.0001 4.75C7.996 4.75 4.75006 7.99594 4.75006 12C4.75006 16.0041 7.996 19.25 12.0001 19.25C16.0041 19.25 19.2501 16.0041 19.2501 12C19.2501 7.99594 16.0041 4.75 12.0001 4.75ZM3.25006 12C3.25006 7.16751 7.16757 3.25 12.0001 3.25C16.8326 3.25 20.7501 7.16751 20.7501 12C20.7501 16.8325 16.8326 20.75 12.0001 20.75C7.16757 20.75 3.25006 16.8325 3.25006 12ZM12 10.3668C12.4142 10.3668 12.75 10.7025 12.75 11.1168V16.1431C12.75 16.5573 12.4142 16.8931 12 16.8931C11.5858 16.8931 11.25 16.5573 11.25 16.1431V11.1168C11.25 10.7025 11.5858 10.3668 12 10.3668ZM11.9999 9.1878C12.5522 9.1878 12.9999 8.74009 12.9999 8.18781C12.9999 7.63552 12.5522 7.18781 11.9999 7.18781C11.4477 7.18781 10.9999 7.63552 10.9999 8.18781C10.9999 8.74009 11.4477 9.1878 11.9999 9.1878Z" fill="#233043"/>
</svg>
