<svg width="24" height="24" viewBox="0 0 24 24" fill="none" xmlns="http://www.w3.org/2000/svg">
<path fill-rule="evenodd" clip-rule="evenodd" d="M20.0001 12C20.0001 16.4183 16.4183 20 12.0001 20C7.58178 20 4.00006 16.4183 4.00006 12C4.00006 7.58172 7.58178 4 12.0001 4C16.4183 4 20.0001 7.58172 20.0001 12ZM12 10.3668C12.4142 10.3668 12.75 10.7026 12.75 11.1168V16.1431C12.75 16.5573 12.4142 16.8931 12 16.8931C11.5858 16.8931 11.25 16.5573 11.25 16.1431V11.1168C11.25 10.7026 11.5858 10.3668 12 10.3668ZM11.9999 9.1878C12.5522 9.1878 12.9999 8.74009 12.9999 8.18781C12.9999 7.63552 12.5522 7.18781 11.9999 7.18781C11.4477 7.18781 10.9999 7.63552 10.9999 8.18781C10.9999 8.74009 11.4477 9.1878 11.9999 9.1878Z" fill="#233043"/>
</svg>
