<svg width="24" height="24" viewBox="0 0 24 24" fill="none" xmlns="http://www.w3.org/2000/svg">
<path fill-rule="evenodd" clip-rule="evenodd" d="M11.7899 5.03249C11.6444 5.0213 11.5012 5.07425 11.398 5.17746L3.42889 13.1466C3.23363 13.3418 3.23363 13.6584 3.42889 13.8537L10.1464 20.5712C10.3417 20.7665 10.6582 20.7665 10.8535 20.5712L18.8226 12.6021C18.9258 12.4989 18.9788 12.3557 18.9676 12.2102L18.4878 5.97249C18.4689 5.7266 18.2735 5.53123 18.0276 5.51231L11.7899 5.03249ZM14.0796 9.9205C14.4701 10.311 15.1033 10.311 15.4938 9.9205C15.8844 9.52998 15.8844 8.89681 15.4938 8.50629C15.1033 8.11576 14.4701 8.11576 14.0796 8.50629C13.6891 8.89681 13.6891 9.52998 14.0796 9.9205Z" fill="#233043"/>
</svg>
