<svg width="24" height="24" viewBox="0 0 24 24" fill="none" xmlns="http://www.w3.org/2000/svg">
<path fill-rule="evenodd" clip-rule="evenodd" d="M11.8528 5.80478L17.7423 6.25782L18.1954 12.1473L10.5 19.8427L4.15742 13.5002L11.8528 5.80478ZM19.2402 5.77717C19.1984 5.23365 18.7665 4.80179 18.223 4.75998L11.7753 4.264C11.4536 4.23926 11.1371 4.35631 10.909 4.58446L2.77476 12.7187C2.34315 13.1503 2.34315 13.8501 2.77476 14.2817L9.71846 21.2254C10.1501 21.657 10.8498 21.657 11.2815 21.2254L19.4157 13.0912C19.6438 12.863 19.7609 12.5466 19.7361 12.2249L19.2402 5.77717ZM14.0795 9.92053C14.47 10.311 15.1032 10.311 15.4937 9.92053C15.8842 9.53 15.8842 8.89684 15.4937 8.50631C15.1032 8.11579 14.47 8.11579 14.0795 8.50631C13.689 8.89684 13.689 9.53 14.0795 9.92053Z" fill="#233043"/>
</svg>
