<svg width="24" height="24" viewBox="0 0 24 24" fill="none" xmlns="http://www.w3.org/2000/svg">
<path fill-rule="evenodd" clip-rule="evenodd" d="M9 6.75H6.75V17.25H17.25V15C17.25 14.5858 17.5858 14.25 18 14.25C18.4142 14.25 18.75 14.5858 18.75 15V17.5C18.75 18.1904 18.1904 18.75 17.5 18.75H6.5C5.80964 18.75 5.25 18.1904 5.25 17.5V6.5C5.25 5.80964 5.80964 5.25 6.5 5.25H9C9.41421 5.25 9.75 5.58579 9.75 6C9.75 6.41421 9.41421 6.75 9 6.75ZM9.96967 12.9697C9.67678 13.2626 9.67678 13.7374 9.96967 14.0303C10.2626 14.3232 10.7374 14.3232 11.0303 14.0303L17.25 7.81066V10.5C17.25 10.9142 17.5858 11.25 18 11.25C18.4142 11.25 18.75 10.9142 18.75 10.5V6C18.75 5.58579 18.4142 5.25 18 5.25H13.5C13.0858 5.25 12.75 5.58579 12.75 6C12.75 6.41421 13.0858 6.75 13.5 6.75H16.1893L9.96967 12.9697Z" fill="#233043"/>
</svg>
