<svg width="24" height="24" viewBox="0 0 24 24" fill="none" xmlns="http://www.w3.org/2000/svg">
<path fill-rule="evenodd" clip-rule="evenodd" d="M5.75 5C5.75 4.58579 5.41421 4.25 5 4.25C4.58579 4.25 4.25 4.58579 4.25 5V18.5C4.25 19.1904 4.80964 19.75 5.5 19.75H19C19.4142 19.75 19.75 19.4142 19.75 19C19.75 18.5858 19.4142 18.25 19 18.25H5.75V5ZM18.5243 9.53626C18.8205 9.24667 18.8258 8.77183 18.5363 8.47566C18.2467 8.1795 17.7718 8.17416 17.4757 8.46375L13.8681 11.9912L12.3297 10.7141C11.833 10.3017 11.1039 10.3354 10.6474 10.7919L7.96967 13.4697C7.67678 13.7626 7.67678 14.2374 7.96967 14.5303C8.26256 14.8232 8.73744 14.8232 9.03033 14.5303L11.5469 12.0137L13.0833 13.2892C13.5759 13.6982 14.2979 13.6688 14.7556 13.2212L18.5243 9.53626Z" fill="#233043"/>
</svg>
