<svg width="24" height="24" viewBox="0 0 24 24" fill="none" xmlns="http://www.w3.org/2000/svg">
<path fill-rule="evenodd" clip-rule="evenodd" d="M18.5407 5.45927C16.881 3.79955 14.19 3.79955 12.5303 5.45927L11.4697 6.51993C11.1768 6.81283 11.1768 7.2877 11.4697 7.58059C11.7626 7.87349 12.2374 7.87349 12.5303 7.58059L13.591 6.51993C14.6649 5.44599 16.4061 5.44599 17.4801 6.51993C18.554 7.59388 18.554 9.33508 17.4801 10.409L15.2409 12.6482C14.232 13.657 12.5964 13.657 11.5875 12.6482L11.4697 12.5303C11.1768 12.2374 10.7019 12.2374 10.409 12.5303C10.1161 12.8232 10.1161 13.2981 10.409 13.591L10.5268 13.7089C12.1215 15.3035 14.7069 15.3035 16.3016 13.7089L18.5407 11.4697C20.2005 9.80995 20.2005 7.119 18.5407 5.45927ZM5.45927 18.5407C7.119 20.2005 9.80995 20.2005 11.4697 18.5407L12.5303 17.4801C12.8232 17.1872 12.8232 16.7123 12.5303 16.4194C12.2374 16.1265 11.7626 16.1265 11.4697 16.4194L10.409 17.4801C9.33508 18.554 7.59388 18.554 6.51993 17.4801C5.44599 16.4061 5.44599 14.6649 6.51993 13.591L8.75911 11.3518C9.76796 10.343 11.4036 10.3429 12.4125 11.3518L12.5303 11.4697C12.8232 11.7625 13.2981 11.7625 13.591 11.4697C13.8839 11.1768 13.8839 10.7019 13.591 10.409L13.4732 10.2911C11.8785 8.6965 9.29309 8.6965 7.69845 10.2911L5.45927 12.5303C3.79955 14.19 3.79955 16.881 5.45927 18.5407Z" fill="#233043"/>
</svg>
