<svg width="24" height="24" viewBox="0 0 24 24" fill="none" xmlns="http://www.w3.org/2000/svg">
<path fill-rule="evenodd" clip-rule="evenodd" d="M12.0001 4.75C7.996 4.75 4.75006 7.99594 4.75006 12C4.75006 16.0041 7.996 19.25 12.0001 19.25C16.0041 19.25 19.2501 16.0041 19.2501 12C19.2501 7.99594 16.0041 4.75 12.0001 4.75ZM3.25006 12C3.25006 7.16751 7.16757 3.25 12.0001 3.25C16.8326 3.25 20.7501 7.16751 20.7501 12C20.7501 16.8325 16.8326 20.75 12.0001 20.75C7.16757 20.75 3.25006 16.8325 3.25006 12Z" fill="#D5D9DE"/>
<path fill-rule="evenodd" clip-rule="evenodd" d="M11.2501 4C11.2501 3.58579 11.5858 3.25 12.0001 3.25C16.8326 3.25 20.7501 7.16751 20.7501 12C20.7501 12.4142 20.4143 12.75 20.0001 12.75C19.5858 12.75 19.2501 12.4142 19.2501 12C19.2501 7.99594 16.0041 4.75 12.0001 4.75C11.5858 4.75 11.2501 4.41421 11.2501 4Z" fill="#233043"/>
</svg>
