<svg width="24" height="24" viewBox="0 0 24 24" fill="none" xmlns="http://www.w3.org/2000/svg">
<path fill-rule="evenodd" clip-rule="evenodd" d="M12 3.25C9.37665 3.25 7.25 5.37665 7.25 8V9H4.71698C4.30277 9 3.96698 9.33579 3.96698 9.75V20.25C3.96698 20.6642 4.30277 21 4.71698 21H19.283C19.6972 21 20.033 20.6642 20.033 20.25V9.75C20.033 9.33579 19.6972 9 19.283 9H16.75V8C16.75 5.37665 14.6234 3.25 12 3.25ZM15.25 9V8C15.25 6.20507 13.7949 4.75 12 4.75C10.2051 4.75 8.75 6.20507 8.75 8V9H15.25ZM12.5547 14.8323C12.8231 14.653 12.9999 14.3472 12.9999 14.0001C12.9999 13.4478 12.5522 13.0001 11.9999 13.0001C11.4476 13.0001 10.9999 13.4478 10.9999 14.0001C10.9999 14.3472 11.1768 14.653 11.4453 14.8323L10.3455 16.482C10.1978 16.7035 10.3566 17.0002 10.6228 17.0002H13.3772C13.6434 17.0002 13.8022 16.7035 13.6545 16.482L12.5547 14.8323Z" fill="#233043"/>
</svg>
