<svg width="24" height="24" viewBox="0 0 24 24" fill="none" xmlns="http://www.w3.org/2000/svg">
<path fill-rule="evenodd" clip-rule="evenodd" d="M4.25 10.5C4.25 9.80964 4.80964 9.25 5.5 9.25H18.5C19.1904 9.25 19.75 9.80964 19.75 10.5V19.5C19.75 20.1904 19.1904 20.75 18.5 20.75H5.5C4.80964 20.75 4.25 20.1904 4.25 19.5V10.5ZM5.75 10.75V19.25H18.25V10.75H5.75Z" fill="#233043"/>
<path fill-rule="evenodd" clip-rule="evenodd" d="M7.25 8C7.25 5.37665 9.37665 3.25 12 3.25C14.6234 3.25 16.75 5.37665 16.75 8V9.95489C16.75 10.394 16.394 10.75 15.9549 10.75H8.04511C7.60598 10.75 7.25 10.394 7.25 9.95489V8ZM12 4.75C10.2051 4.75 8.75 6.20507 8.75 8V9.25H15.25V8C15.25 6.20507 13.7949 4.75 12 4.75Z" fill="#233043"/>
<path d="M13 14C13 14.5523 12.5523 15 12 15C11.4477 15 11 14.5523 11 14C11 13.4477 11.4477 13 12 13C12.5523 13 13 13.4477 13 14Z" fill="#233043"/>
<path d="M12 14L13.4818 16.2227C13.7033 16.5549 13.4651 17 13.0657 17H10.9343C10.5349 17 10.2967 16.5549 10.5182 16.2227L12 14Z" fill="#233043"/>
</svg>
