<svg width="24" height="24" viewBox="0 0 24 24" fill="none" xmlns="http://www.w3.org/2000/svg">
<path fill-rule="evenodd" clip-rule="evenodd" d="M5.75024 18.25V5.75H14.2502V8.66667C14.2502 9.26497 14.7353 9.75 15.3336 9.75H18.2502V10.7196C18.2502 11.1338 18.586 11.4696 19.0002 11.4696C19.4145 11.4696 19.7502 11.1338 19.7502 10.7196V9C19.7502 8.80109 19.6712 8.61032 19.5306 8.46967L15.5306 4.46967C15.3899 4.32902 15.1992 4.25 15.0002 4.25H5.33358C4.73527 4.25 4.25024 4.73502 4.25024 5.33333V18.6667C4.25024 19.265 4.73527 19.75 5.33358 19.75H11.7138C12.128 19.75 12.4638 19.4142 12.4638 19C12.4638 18.5858 12.128 18.25 11.7138 18.25H5.75024ZM17.1896 8.25L15.7502 6.81066V8.25H17.1896ZM9 8.25012C8.58579 8.25012 8.25 8.58591 8.25 9.00012C8.25 9.41434 8.58579 9.75012 9 9.75012H11C11.4142 9.75012 11.75 9.41434 11.75 9.00012C11.75 8.58591 11.4142 8.25012 11 8.25012H9ZM8.25 12.0001C8.25 11.5859 8.58579 11.2501 9 11.2501H15C15.4142 11.2501 15.75 11.5859 15.75 12.0001C15.75 12.4143 15.4142 12.7501 15 12.7501H9C8.58579 12.7501 8.25 12.4143 8.25 12.0001ZM9 14.2501C8.58579 14.2501 8.25 14.5859 8.25 15.0001C8.25 15.4143 8.58579 15.7501 9 15.7501H12C12.4142 15.7501 12.75 15.4143 12.75 15.0001C12.75 14.5859 12.4142 14.2501 12 14.2501H9ZM14.25 16.5946C14.25 15.9963 14.735 15.5113 15.3333 15.5113H15.6306V15.3407C15.6306 13.9099 16.7904 12.75 18.2213 12.75C19.6521 12.75 20.812 13.9099 20.812 15.3407V15.5113H21.1091C21.7074 15.5113 22.1924 15.9963 22.1924 16.5946V20.5297C22.1924 21.128 21.7074 21.613 21.1091 21.613H15.3333C14.735 21.613 14.25 21.128 14.25 20.5297V16.5946ZM15.75 17.0113V20.113H20.6924V17.0113H15.75ZM17.1306 15.3407C17.1306 14.7384 17.6189 14.25 18.2213 14.25C18.8236 14.25 19.312 14.7384 19.312 15.3407V15.5111H17.1306V15.3407Z" fill="#233043"/>
</svg>
