<svg width="24" height="24" viewBox="0 0 24 24" fill="none" xmlns="http://www.w3.org/2000/svg">
<path fill-rule="evenodd" clip-rule="evenodd" d="M12 3.25C9.37665 3.25 7.25 5.37665 7.25 8V9.25H5.5C4.80964 9.25 4.25 9.80964 4.25 10.5V19.5C4.25 20.1904 4.80964 20.75 5.5 20.75H18.5C19.1904 20.75 19.75 20.1904 19.75 19.5V10.5C19.75 9.80964 19.1904 9.25 18.5 9.25H16.75V8C16.75 5.37665 14.6234 3.25 12 3.25ZM15.25 9.25V8C15.25 6.20507 13.7949 4.75 12 4.75C10.2051 4.75 8.75 6.20507 8.75 8V9.25H15.25ZM8.04511 10.75H5.75V19.25H18.25V10.75H15.9549H8.04511ZM12.5548 14.8321C12.8232 14.6528 13 14.3471 13 14C13 13.4477 12.5523 13 12 13C11.4477 13 11 13.4477 11 14C11 14.3471 11.1768 14.6528 11.4452 14.8321L10.5182 16.2227C10.2967 16.5549 10.5349 17 10.9343 17H13.0657C13.4651 17 13.7033 16.5549 13.4818 16.2227L12.5548 14.8321Z" fill="#233043"/>
</svg>
