<svg width="24" height="24" viewBox="0 0 24 24" fill="none" xmlns="http://www.w3.org/2000/svg">
<path fill-rule="evenodd" clip-rule="evenodd" d="M5.5 4.5C4.80964 4.5 4.25 5.05964 4.25 5.75V18.75C4.25 19.4404 4.80964 20 5.5 20H15.5C16.1904 20 16.75 19.4404 16.75 18.75V16.25C16.75 15.8358 16.4142 15.5 16 15.5C15.5858 15.5 15.25 15.8358 15.25 16.25V18.5H5.75V6H15.25V8.25C15.25 8.66421 15.5858 9 16 9C16.4142 9 16.75 8.66421 16.75 8.25V5.75C16.75 5.05964 16.1904 4.5 15.5 4.5H5.5ZM18.4697 8.71967C18.1768 9.01256 18.1768 9.48744 18.4697 9.78033L20.1894 11.5H10C9.58579 11.5 9.25 11.8358 9.25 12.25C9.25 12.6642 9.58579 13 10 13H20.1894L18.4697 14.7197C18.1768 15.0126 18.1768 15.4874 18.4697 15.7803C18.7626 16.0732 19.2375 16.0732 19.5303 15.7803L22.1768 13.1339C22.6649 12.6457 22.6649 11.8543 22.1768 11.3661L19.5303 8.71967C19.2375 8.42678 18.7626 8.42678 18.4697 8.71967Z" fill="#233043"/>
</svg>
