<svg width="24" height="24" viewBox="0 0 24 24" fill="none" xmlns="http://www.w3.org/2000/svg">
<path fill-rule="evenodd" clip-rule="evenodd" d="M5.2852 11.875C5.2852 8.42309 8.03121 5.62476 11.4186 5.62476C11.866 5.62476 12.3014 5.67345 12.7203 5.76565C13.1176 5.85309 13.5091 5.5958 13.5949 5.19099C13.6807 4.78617 13.4283 4.38713 13.031 4.2997C12.5107 4.18517 11.9711 4.125 11.4186 4.125C7.2184 4.125 3.81348 7.59479 3.81348 11.875C3.81348 16.1552 7.2184 19.625 11.4186 19.625C11.4329 19.625 11.4471 19.6246 11.4613 19.6238H18.9578C20.0858 19.6238 20.6156 18.2028 19.7722 17.4395L18.0562 15.8864C18.7312 14.6895 19.0237 13.2934 19.0237 11.875C19.0237 11.509 18.9987 11.1486 18.9504 10.7954C18.8943 10.3852 18.5224 10.0991 18.1199 10.1563C17.7174 10.2136 17.4366 10.5925 17.4928 11.0026C17.5318 11.2873 17.552 11.5786 17.552 11.875C17.552 13.2907 17.2121 14.5782 16.505 15.573C16.3204 15.8327 16.3228 16.1724 16.486 16.4253C16.5236 16.4891 16.5712 16.5483 16.6287 16.6003L18.3122 18.124H11.4186C11.4051 18.124 11.3916 18.1244 11.3783 18.1251C8.00944 18.103 5.2852 15.3132 5.2852 11.875Z" fill="#233043"/>
<path d="M17.626 9.22461C19.2828 9.22461 20.626 7.88146 20.626 6.22461C20.626 4.56776 19.2828 3.22461 17.626 3.22461C15.9691 3.22461 14.626 4.56776 14.626 6.22461C14.626 7.88146 15.9691 9.22461 17.626 9.22461Z" fill="#F96155"/>
</svg>
