<svg width="24" height="24" viewBox="0 0 24 24" fill="none" xmlns="http://www.w3.org/2000/svg">
<path fill-rule="evenodd" clip-rule="evenodd" d="M12.0001 2.75C12.4143 2.75 12.7501 3.08579 12.7501 3.5V5C12.7501 5.41421 12.4143 5.75 12.0001 5.75C11.5859 5.75 11.2501 5.41421 11.2501 5V3.5C11.2501 3.08579 11.5859 2.75 12.0001 2.75ZM12.0002 8.75C10.2052 8.75 8.75015 10.2051 8.75015 12C8.75015 13.1952 9.39494 14.2407 10.3592 14.8061C10.5823 14.9369 10.7128 15.1651 10.7284 15.4051C10.7426 15.4626 10.7501 15.5228 10.7501 15.5847V16.2499H13.2501V15.5847C13.2501 15.5224 13.2576 15.4619 13.2719 15.4041C13.2878 15.1645 13.4183 14.9367 13.6411 14.8061C14.6054 14.2407 15.2502 13.1952 15.2502 12C15.2502 11.5858 15.5859 11.25 16.0002 11.25C16.4144 11.25 16.7502 11.5858 16.7502 12C16.7502 13.5994 15.9593 15.0134 14.7501 15.8734V16.9999C14.7501 17.4141 14.4143 17.7499 14.0001 17.7499H10.0001C9.58585 17.7499 9.25006 17.4141 9.25006 16.9999V15.8733C8.04092 15.0133 7.25015 13.5993 7.25015 12C7.25015 9.37665 9.3768 7.25 12.0002 7.25C12.4144 7.25 12.7502 7.58579 12.7502 8C12.7502 8.41421 12.4144 8.75 12.0002 8.75ZM10.0001 19.25C9.58591 19.25 9.25012 19.5858 9.25012 20C9.25012 20.4142 9.58591 20.75 10.0001 20.75H14.0001C14.4143 20.75 14.7501 20.4142 14.7501 20C14.7501 19.5858 14.4143 19.25 14.0001 19.25H10.0001ZM5.00015 11.25C5.41437 11.25 5.75015 11.5858 5.75015 12C5.75015 12.4142 5.41437 12.75 5.00015 12.75H3.50015C3.08594 12.75 2.75015 12.4142 2.75015 12C2.75015 11.5858 3.08594 11.25 3.50015 11.25H5.00015ZM21.2501 12C21.2501 11.5858 20.9143 11.25 20.5001 11.25H19.0001C18.5859 11.25 18.2501 11.5858 18.2501 12C18.2501 12.4142 18.5859 12.75 19.0001 12.75H20.5001C20.9143 12.75 21.2501 12.4142 21.2501 12ZM6.03044 5.46967C5.73755 5.17678 5.26268 5.17678 4.96978 5.46967C4.67689 5.76256 4.67689 6.23744 4.96978 6.53033L6.03044 7.59099C6.32334 7.88388 6.79821 7.88388 7.0911 7.59099C7.384 7.2981 7.384 6.82322 7.0911 6.53033L6.03044 5.46967Z" fill="#233043"/>
<path d="M17.5001 9C19.157 9 20.5001 7.65685 20.5001 6C20.5001 4.34315 19.157 3 17.5001 3C15.8433 3 14.5001 4.34315 14.5001 6C14.5001 7.65685 15.8433 9 17.5001 9Z" fill="#FF5971"/>
</svg>
