<svg width="24" height="24" viewBox="0 0 24 24" fill="none" xmlns="http://www.w3.org/2000/svg">
<path d="M16.0002 12C16.0002 13.4722 15.2049 14.7586 14.0204 15.4531M12.0002 8C9.79104 8 8.00018 9.79086 8.00018 12C8.00018 13.4722 8.7955 14.7586 9.97992 15.4531" stroke="#233043" stroke-width="1.5" stroke-linecap="round" stroke-linejoin="round"/>
<path d="M10.0001 15.5847V16.9999H14.0001V15.5847" stroke="#233043" stroke-width="1.5" stroke-linecap="round" stroke-linejoin="round"/>
<path d="M10.0001 20H14.0001" stroke="#233043" stroke-width="1.5" stroke-linecap="round" stroke-linejoin="round"/>
<path d="M12.0001 5V3.5" stroke="#233043" stroke-width="1.5" stroke-linecap="round" stroke-linejoin="round"/>
<path d="M3.50018 12H5.00018" stroke="#233043" stroke-width="1.5" stroke-linecap="round" stroke-linejoin="round"/>
<path d="M19.0001 12H20.5001" stroke="#233043" stroke-width="1.5" stroke-linecap="round" stroke-linejoin="round"/>
<path d="M6.56078 7.06066L5.50012 6" stroke="#233043" stroke-width="1.5" stroke-linecap="round" stroke-linejoin="round"/>
<path d="M17.5001 9C19.157 9 20.5001 7.65685 20.5001 6C20.5001 4.34315 19.157 3 17.5001 3C15.8433 3 14.5001 4.34315 14.5001 6C14.5001 7.65685 15.8433 9 17.5001 9Z" fill="#FF5971"/>
</svg>
