<svg width="24" height="24" viewBox="0 0 24 24" fill="none" xmlns="http://www.w3.org/2000/svg">
<path fill-rule="evenodd" clip-rule="evenodd" d="M5.75012 5.75006H12.0001C12.4143 5.75006 12.7501 5.41427 12.7501 5.00006C12.7501 4.58585 12.4143 4.25006 12.0001 4.25006H5.33346C4.73515 4.25006 4.25012 4.73509 4.25012 5.33339V18.6667C4.25012 19.265 4.73515 19.7501 5.33346 19.7501H18.6668C19.2651 19.7501 19.7501 19.265 19.7501 18.6667V10.923C19.7501 10.5088 19.4143 10.173 19.0001 10.173C18.5859 10.173 18.2501 10.5088 18.2501 10.923V18.2501H11.2501V10.7501H14.1045C14.5187 10.7501 14.8545 10.4143 14.8545 10.0001C14.8545 9.58585 14.5187 9.25006 14.1045 9.25006H5.75012V5.75006ZM5.75012 10.7501V18.2501H9.75012V10.7501H5.75012Z" fill="#233043"/>
<path d="M17.5001 9C19.157 9 20.5001 7.65685 20.5001 6C20.5001 4.34315 19.157 3 17.5001 3C15.8433 3 14.5001 4.34315 14.5001 6C14.5001 7.65685 15.8433 9 17.5001 9Z" fill="#FF5971"/>
</svg>
