<svg width="24" height="24" viewBox="0 0 24 24" fill="none" xmlns="http://www.w3.org/2000/svg">
<path d="M5.00012 10V18.6667C5.00012 18.8508 5.14936 19 5.33346 19H10.5001M5.00012 10V5.33333C5.00012 5.14924 5.14936 5 5.33346 5H12.0001M5.00012 10H10.5001M14.1045 10H10.5001M10.5001 10V19M10.5001 19H18.6668C18.8509 19 19.0001 18.8508 19.0001 18.6667V10.9229" stroke="#233043" stroke-width="1.5" stroke-linecap="round" stroke-linejoin="round"/>
<path d="M17.5001 9C19.157 9 20.5001 7.65685 20.5001 6C20.5001 4.34315 19.157 3 17.5001 3C15.8433 3 14.5001 4.34315 14.5001 6C14.5001 7.65685 15.8433 9 17.5001 9Z" fill="#FF5971"/>
</svg>
