<svg width="24" height="24" viewBox="0 0 24 24" fill="none" xmlns="http://www.w3.org/2000/svg">
<path fill-rule="evenodd" clip-rule="evenodd" d="M5.75 17.75V5.25H14.25V8C14.25 8.69036 14.8096 9.25 15.5 9.25H18.25V17.75H5.75ZM17.1893 7.75L15.75 6.31066V7.75H17.1893ZM5.5 3.75C4.80964 3.75 4.25 4.30964 4.25 5V18C4.25 18.6904 4.80964 19.25 5.5 19.25H18.5C19.1904 19.25 19.75 18.6904 19.75 18V8.5C19.75 8.30109 19.671 8.11032 19.5303 7.96967L15.5303 3.96967C15.3897 3.82902 15.1989 3.75 15 3.75H5.5ZM9 7.75C8.58579 7.75 8.25 8.08579 8.25 8.5C8.25 8.91421 8.58579 9.25 9 9.25H11C11.4142 9.25 11.75 8.91421 11.75 8.5C11.75 8.08579 11.4142 7.75 11 7.75H9ZM8.25 11.5C8.25 11.0858 8.58579 10.75 9 10.75H15C15.4142 10.75 15.75 11.0858 15.75 11.5C15.75 11.9142 15.4142 12.25 15 12.25H9C8.58579 12.25 8.25 11.9142 8.25 11.5ZM9 13.75C8.58579 13.75 8.25 14.0858 8.25 14.5C8.25 14.9142 8.58579 15.25 9 15.25H15C15.4142 15.25 15.75 14.9142 15.75 14.5C15.75 14.0858 15.4142 13.75 15 13.75H9Z" fill="#233043"/>
</svg>
