<svg width="24" height="24" viewBox="0 0 24 24" fill="none" xmlns="http://www.w3.org/2000/svg">
<path d="M4.61176 16.688V7.168H3.15576C3.15576 8.344 2.77776 8.792 0.999756 8.792V10.136H3.01576V16.688H4.61176Z" fill="#233043"/>
<path d="M13.9699 16.688V15.246H9.25188C9.41988 14.378 9.71388 14.028 10.7639 13.426L12.1359 12.642C13.3119 11.97 13.9979 10.892 13.9979 9.73C13.9979 8.05 12.8079 7 10.8899 7C8.85988 7 7.55788 8.33 7.55788 10.402H9.22388C9.22388 9.114 9.82588 8.4 10.8899 8.4C11.7159 8.4 12.2899 8.974 12.2899 9.814C12.2899 10.584 11.8839 11.186 11.0999 11.62L9.69988 12.39C8.04788 13.3 7.34788 14.588 7.34788 16.688H13.9699Z" fill="#233043"/>
<path d="M19.2786 16.856C21.2106 16.856 22.5686 15.666 22.5686 13.958C22.5686 12.768 21.8406 11.872 20.7206 11.676C21.7706 11.34 22.3306 10.626 22.3306 9.618C22.3306 8.05 21.0846 7 19.2226 7C17.2486 7 15.9886 8.162 15.9886 9.982H17.5706C17.5706 8.946 18.2006 8.33 19.2226 8.33C20.0906 8.33 20.6926 8.862 20.6926 9.618C20.6926 10.556 20.1886 11.018 19.1666 11.018H18.4806V12.404H19.1526C20.3426 12.404 20.9446 12.936 20.9446 13.972C20.9446 14.882 20.2726 15.498 19.2786 15.498C18.0746 15.498 17.3886 14.784 17.3886 13.51H15.7506C15.7506 15.624 17.0526 16.856 19.2786 16.856Z" fill="#233043"/>
</svg>
