<svg width="24" height="24" viewBox="0 0 24 24" fill="none" xmlns="http://www.w3.org/2000/svg">
<path d="M9 6H19" stroke="#233043" stroke-width="1.5" stroke-linecap="round" stroke-linejoin="round"/>
<path d="M5 4.5V7.5" stroke="#233043" stroke-linecap="round" stroke-linejoin="round"/>
<path d="M9 12H19" stroke="#233043" stroke-width="1.5" stroke-linecap="round" stroke-linejoin="round"/>
<path d="M4 11.5C4 11.1667 4.2 10.5 5 10.5C5.8 10.5 6 11.1667 6 11.5C6 12.5 4 13.5 4 13.5H6" stroke="#233043" stroke-linecap="round" stroke-linejoin="round"/>
<path d="M9 18H19" stroke="#233043" stroke-width="1.5" stroke-linecap="round" stroke-linejoin="round"/>
<path d="M4 16.5C4.5 16.5 4.2 16.5 5 16.5C5.8 16.5 6 16.5 6 16.5C5.5 17 5.5 17 5 17.5C5 17.5 6 17.5 6 18.5C6 19.5 5.06479 19.5 5 19.5C4 19.5 4 18.75 4 18.75" stroke="#233043" stroke-linecap="round" stroke-linejoin="round"/>
</svg>
