<svg width="24" height="24" viewBox="0 0 24 24" fill="none" xmlns="http://www.w3.org/2000/svg">
<path fill-rule="evenodd" clip-rule="evenodd" d="M8.25 6C8.25 5.58579 8.58579 5.25 9 5.25H19C19.4142 5.25 19.75 5.58579 19.75 6C19.75 6.41421 19.4142 6.75 19 6.75H9C8.58579 6.75 8.25 6.41421 8.25 6Z" fill="#233043"/>
<path fill-rule="evenodd" clip-rule="evenodd" d="M5 4C5.27614 4 5.5 4.22386 5.5 4.5V7.5C5.5 7.77614 5.27614 8 5 8C4.72386 8 4.5 7.77614 4.5 7.5V4.5C4.5 4.22386 4.72386 4 5 4Z" fill="#233043"/>
<path fill-rule="evenodd" clip-rule="evenodd" d="M8.25 12C8.25 11.5858 8.58579 11.25 9 11.25H19C19.4142 11.25 19.75 11.5858 19.75 12C19.75 12.4142 19.4142 12.75 19 12.75H9C8.58579 12.75 8.25 12.4142 8.25 12Z" fill="#233043"/>
<path fill-rule="evenodd" clip-rule="evenodd" d="M4.60575 11.1672C4.5301 11.2722 4.49999 11.4133 4.49999 11.5C4.49999 11.7761 4.27613 12 3.99999 12C3.72385 12 3.49999 11.7761 3.49999 11.5C3.49999 11.2533 3.56988 10.8944 3.79422 10.5828C4.03692 10.2458 4.43703 10 4.99999 10C5.56295 10 5.96306 10.2458 6.20575 10.5828C6.4301 10.8944 6.49999 11.2533 6.49999 11.5C6.49999 11.914 6.29659 12.2734 6.07792 12.5467C5.94743 12.7098 5.79583 12.8619 5.63924 13H5.99999C6.27613 13 6.49999 13.2239 6.49999 13.5C6.49999 13.7761 6.27613 14 5.99999 14H3.99999C3.7681 14 3.56664 13.8406 3.51336 13.6149C3.46011 13.3893 3.56886 13.1567 3.77605 13.053C3.77607 13.0529 3.77609 13.0529 3.7761 13.0529C3.77611 13.0529 3.77612 13.0529 3.77612 13.0529L3.77623 13.0529C3.77628 13.0528 3.77633 13.0528 3.77638 13.0528L3.77641 13.0528L3.77925 13.0513L3.79294 13.0443C3.80552 13.0378 3.82479 13.0277 3.84981 13.0143C3.89991 12.9875 3.9727 12.9475 4.06055 12.8962C4.2373 12.7931 4.47 12.6475 4.69999 12.475C4.93287 12.3003 5.14628 12.1105 5.29705 11.922C5.45338 11.7266 5.49999 11.586 5.49999 11.5C5.49999 11.4133 5.46988 11.2722 5.39422 11.1672C5.33692 11.0876 5.23703 11 4.99999 11C4.76295 11 4.66306 11.0876 4.60575 11.1672Z" fill="#233043"/>
<path fill-rule="evenodd" clip-rule="evenodd" d="M8.25 18C8.25 17.5858 8.58579 17.25 9 17.25H19C19.4142 17.25 19.75 17.5858 19.75 18C19.75 18.4142 19.4142 18.75 19 18.75H9C8.58579 18.75 8.25 18.4142 8.25 18Z" fill="#233043"/>
<path fill-rule="evenodd" clip-rule="evenodd" d="M5.91506 17.2921L6.35355 16.8536C6.49655 16.7106 6.53933 16.4955 6.46194 16.3087C6.38455 16.1218 6.20223 16 6 16L4 16C3.72386 16 3.5 16.2239 3.5 16.5C3.5 16.7761 3.72386 17 4 17L4.79289 17L4.64645 17.1464C4.50345 17.2894 4.46067 17.5045 4.53806 17.6913C4.61478 17.8766 4.79462 17.9979 4.99475 18L4.99676 18L4.99821 18L4.99952 18C4.99936 18 4.99968 18 4.99952 18L5 17.5L5.35355 17.8536L5.91506 17.2921ZM4 18.75H4.5C4.5 18.7453 4.49993 18.7405 4.4998 18.7358C4.50018 18.7394 4.50124 18.7475 4.50372 18.7587C4.50952 18.7848 4.52083 18.8174 4.54103 18.8477C4.56196 18.879 4.64565 19 5 19C5.01495 19 5.16386 18.9984 5.29476 18.9308C5.35257 18.9009 5.39751 18.8628 5.42994 18.8114C5.46147 18.7614 5.5 18.6692 5.5 18.5C5.5 18.3375 5.46081 18.2489 5.42772 18.1992C5.39255 18.1465 5.34208 18.1051 5.27639 18.0722C5.20875 18.0384 5.13505 18.019 5.07405 18.0088C5.04473 18.0039 5.0214 18.0017 5.00735 18.0007C5.00067 18.0002 4.99634 18 4.99475 18C4.99634 18 4.99793 18 4.99952 18M4 18.75C4.5 18.75 4.5 18.7503 4.5 18.75L4.5 18.7487L4.49999 18.7475L4.49998 18.7453L4.49991 18.7414L4.4998 18.7358C4.49975 18.7347 4.49966 18.7344 4.49964 18.7341C4.49962 18.7339 4.49958 18.7335 4.49964 18.7341C4.49966 18.7344 4.49975 18.7347 4.4998 18.7358C4.4923 18.4662 4.2714 18.25 4 18.25C3.72386 18.25 3.5 18.4739 3.5 18.75H4ZM5.91506 17.2921C6.03855 17.3792 6.15941 17.494 6.25977 17.6445C6.41419 17.8761 6.5 18.1625 6.5 18.5C6.5 18.8308 6.42163 19.1136 6.27578 19.3448C6.13083 19.5747 5.93793 19.7241 5.75383 19.8192C5.40376 20.0001 5.05547 20 5.00126 20H5C4.35435 20 3.93804 19.746 3.70897 19.4024C3.60417 19.2451 3.55298 19.0902 3.52753 18.9757C3.51466 18.9177 3.50784 18.8678 3.50421 18.8296C3.50238 18.8105 3.50133 18.794 3.50074 18.7806L3.50015 18.7629L3.50003 18.7558L3.50001 18.7528L3.5 18.7513C3.5 18.751 3.5 18.75 4 18.75M5.00049 17C5.00024 17.0001 5 17.0053 5 17.5L5.00049 17Z" fill="#233043"/>
</svg>
