<svg width="24" height="24" viewBox="0 0 24 24" fill="none" xmlns="http://www.w3.org/2000/svg">
<rect x="2.75" y="4.25" width="11.5" height="16" rx="1" stroke="#233043" stroke-width="1.5"/>
<path d="M14.25 8.3017H20.25C20.8023 8.3017 21.25 8.74941 21.25 9.3017V19.25C21.25 19.8023 20.8023 20.25 20.25 20.25H14.25V8.3017Z" stroke="#233043" stroke-width="1.5"/>
<rect x="6" y="7" width="1.5" height="2.5" rx="0.75" fill="#233043"/>
<rect x="9.5" y="7" width="1.5" height="2.5" rx="0.75" fill="#233043"/>
<rect x="6" y="15" width="1.5" height="2.5" rx="0.75" fill="#233043"/>
<rect x="9.5" y="15" width="1.5" height="2.5" rx="0.75" fill="#233043"/>
<rect x="17" y="15" width="1.5" height="2.5" rx="0.75" fill="#233043"/>
<rect x="6" y="11" width="1.5" height="2.5" rx="0.75" fill="#233043"/>
<rect x="9.5" y="11" width="1.5" height="2.5" rx="0.75" fill="#233043"/>
<rect x="17" y="11" width="1.5" height="2.5" rx="0.75" fill="#233043"/>
</svg>
