<svg width="24" height="24" viewBox="0 0 24 24" fill="none" xmlns="http://www.w3.org/2000/svg">
<path fill-rule="evenodd" clip-rule="evenodd" d="M4.46765 12C4.46765 8.13401 7.60166 5 11.4677 5C15.3336 5 18.4677 8.13401 18.4677 12C18.4677 13.5384 17.9714 14.961 17.1301 16.1162L19.3658 18.1284C19.7064 18.4349 19.4896 19 19.0313 19H11.001V18.9847C7.35257 18.7446 4.46765 15.7092 4.46765 12ZM15.157 10.5179C15.443 10.2182 15.432 9.74349 15.1324 9.45748C14.8327 9.17148 14.358 9.18252 14.072 9.48214L10.7613 12.9505L9.1213 11.4471C8.81596 11.1672 8.34153 11.1879 8.06164 11.4932C7.78174 11.7985 7.80237 12.273 8.10771 12.5529L9.92832 14.2218C10.43 14.6816 11.2073 14.6557 11.6772 14.1634L15.157 10.5179Z" fill="#233043"/>
</svg>
