<svg width="24" height="24" viewBox="0 0 24 24" fill="none" xmlns="http://www.w3.org/2000/svg">
<path d="M14.9999 5H5.49988C5.22374 5 4.99988 5.22386 4.99988 5.5V18.5C4.99988 18.7761 5.22374 19 5.49988 19H18.4999C18.776 19 18.9999 18.7761 18.9999 18.5V9M14.9999 5L18.9999 9M14.9999 5V8.5C14.9999 8.77614 15.2237 9 15.4999 9H18.9999" stroke="#233043" stroke-width="1.5" stroke-linecap="round" stroke-linejoin="round"/>
<path d="M7.18696 16H7.99422V14.7621H8.67284C9.55095 14.7621 10.0618 14.2382 10.0618 13.4757C10.0618 12.7169 9.56027 12.1818 8.69335 12.1818H7.18696V16ZM7.99422 14.1151V12.8418H8.53861C9.00469 12.8418 9.23028 13.0953 9.23028 13.4757C9.23028 13.8541 9.00469 14.1151 8.54234 14.1151H7.99422ZM11.9396 16C13.103 16 13.8077 15.2804 13.8077 14.0872C13.8077 12.8977 13.103 12.1818 11.9508 12.1818H10.5861V16H11.9396ZM11.3934 15.3083V12.8735H11.9079C12.6239 12.8735 13.0023 13.2389 13.0023 14.0872C13.0023 14.9392 12.6239 15.3083 11.9061 15.3083H11.3934ZM14.4057 16H15.213V14.4228H16.766V13.7572H15.213V12.8474H16.9338V12.1818H14.4057V16Z" fill="#233043"/>
</svg>
