<svg width="24" height="24" viewBox="0 0 24 24" fill="none" xmlns="http://www.w3.org/2000/svg">
<path d="M16.3361 6.64L15.2001 6L7.64806 16.912L8.81606 17.552L16.3361 6.64ZM8.84806 11.728C10.6401 11.728 11.6961 10.448 11.6961 9.008C11.6961 7.568 10.6401 6.288 8.84806 6.288C7.05606 6.288 6.00006 7.568 6.00006 9.008C6.00006 10.448 7.05606 11.728 8.84806 11.728ZM8.84806 10.384C7.98406 10.384 7.52006 9.776 7.52006 9.008C7.52006 8.24 7.98406 7.632 8.84806 7.632C9.71206 7.632 10.1761 8.24 10.1761 9.008C10.1761 9.776 9.71206 10.384 8.84806 10.384ZM15.1841 17.344C16.9761 17.344 18.0321 16.064 18.0321 14.624C18.0321 13.184 16.9761 11.904 15.1841 11.904C13.3921 11.904 12.3361 13.184 12.3361 14.624C12.3361 16.064 13.3921 17.344 15.1841 17.344ZM15.1841 16C14.3201 16 13.8561 15.392 13.8561 14.624C13.8561 13.856 14.3201 13.248 15.1841 13.248C16.0481 13.248 16.5121 13.856 16.5121 14.624C16.5121 15.392 16.0481 16 15.1841 16Z" fill="#233043"/>
</svg>
