<svg width="24" height="24" viewBox="0 0 24 24" fill="none" xmlns="http://www.w3.org/2000/svg">
<path fill-rule="evenodd" clip-rule="evenodd" d="M16.7021 5.5153C15.0727 5.94585 13.2413 6.73721 12.0199 7.95859C11.213 8.76549 10.358 9.91596 9.69207 10.8898C9.36365 11.3701 9.08723 11.7984 8.89271 12.1071L12.1981 15.4125C12.5067 15.218 12.9351 14.9415 13.4154 14.6131C14.3892 13.9472 15.5397 13.0922 16.3466 12.2853C17.568 11.0639 18.3593 9.23253 18.7899 7.60308C19.0029 6.79681 19.1198 6.06929 19.1599 5.53298C19.1716 5.37529 19.1763 5.24049 19.1758 5.12943C19.0647 5.1289 18.9299 5.13355 18.7722 5.14533C18.2359 5.18539 17.5084 5.30226 16.7021 5.5153ZM12.0871 16.3622C12.4709 17.0066 12.4711 17.0065 12.4711 17.0065L12.474 17.0047L12.4815 17.0002L12.5093 16.9835C12.5335 16.9689 12.5686 16.9476 12.6137 16.9201C12.7037 16.8651 12.8334 16.7851 12.9941 16.6838C13.3152 16.4815 13.7612 16.1938 14.2621 15.8513C15.2543 15.1728 16.4987 14.2545 17.4073 13.346C18.8952 11.858 19.7777 9.73626 20.2401 7.98628C20.4735 7.10283 20.6079 6.28406 20.6557 5.64472C20.6794 5.32739 20.6832 5.03538 20.6613 4.79276C20.6504 4.67248 20.6315 4.54425 20.597 4.42237C20.5682 4.3209 20.503 4.127 20.3406 3.96457C20.1782 3.80215 19.9843 3.73697 19.8828 3.70821C19.7609 3.67367 19.6327 3.65476 19.5124 3.64389C19.2698 3.62195 18.9778 3.62579 18.6605 3.6495C18.0211 3.69726 17.2024 3.83163 16.3189 4.06507C14.5689 4.52747 12.4472 5.40999 10.9592 6.89793C10.0507 7.80648 9.13237 9.0509 8.45388 10.0431C8.11136 10.544 7.82364 10.99 7.62134 11.3111C7.52012 11.4718 7.44008 11.6015 7.38506 11.6915C7.35754 11.7366 7.33626 11.7717 7.3217 11.7958L7.30495 11.8237L7.30046 11.8312L7.29921 11.8333C7.29921 11.8333 7.29862 11.8343 7.94299 12.2181L7.29862 11.8343C7.12298 12.1292 7.16995 12.5057 7.41266 12.7484L11.5568 16.8925C11.7995 17.1352 12.1761 17.1821 12.4711 17.0065L12.0871 16.3622Z" fill="#233043"/>
<path fill-rule="evenodd" clip-rule="evenodd" d="M13.8648 10.4405C14.0378 10.6135 14.3184 10.6135 14.4914 10.4405C14.6645 10.2674 14.6645 9.98689 14.4914 9.81385C14.3184 9.64082 14.0378 9.64082 13.8648 9.81385C13.6918 9.98689 13.6918 10.2674 13.8648 10.4405ZM12.8041 11.5011C13.563 12.2599 14.7933 12.2599 15.5521 11.5011C16.3109 10.7423 16.3109 9.51201 15.5521 8.75319C14.7933 7.99437 13.563 7.99437 12.8041 8.75319C12.0453 9.51201 12.0453 10.7423 12.8041 11.5011Z" fill="#233043"/>
<path fill-rule="evenodd" clip-rule="evenodd" d="M7.17003 18.142C7.65709 17.8883 7.90883 17.7032 7.97469 17.6373C8.33561 17.2764 8.33561 16.6912 7.97469 16.3303C7.61377 15.9694 7.0286 15.9694 6.66768 16.3303C6.60182 16.3962 6.4167 16.6479 6.16296 17.135C5.92933 17.5835 5.69284 18.1231 5.49532 18.656C5.46514 18.7374 5.43628 18.8176 5.40881 18.8962C5.48741 18.8687 5.56757 18.8399 5.649 18.8097C6.1819 18.6122 6.72155 18.3757 7.17003 18.142ZM3.64797 20.657C4.13773 21.1468 8.08864 19.6447 9.03535 18.698C9.98205 17.7513 9.98205 16.2164 9.03535 15.2697C8.08864 14.323 6.55373 14.323 5.60702 15.2697C4.66031 16.2164 3.15821 20.1673 3.64797 20.657Z" fill="#233043"/>
<path fill-rule="evenodd" clip-rule="evenodd" d="M17.3724 17.0666L17.8621 12.6587L16.3713 12.4931L15.9106 16.6394L13.605 18.9451L12.9467 16.3121L11.4915 16.6759L12.471 20.594C12.5366 20.8561 12.738 21.0627 12.9984 21.1348C13.2588 21.207 13.5379 21.1335 13.729 20.9424L17.1573 17.5141C17.2777 17.3936 17.3536 17.2358 17.3724 17.0666Z" fill="#233043"/>
<path fill-rule="evenodd" clip-rule="evenodd" d="M7.23908 6.93302L11.6469 6.44325L11.8126 7.93408L7.6662 8.39479L5.36057 10.7004L7.99356 11.3587L7.62976 12.8139L3.71167 11.8344C3.44953 11.7688 3.24291 11.5674 3.17079 11.307C3.09866 11.0466 3.17218 10.7675 3.36324 10.5764L6.79157 7.1481C6.91199 7.02768 7.06981 6.95182 7.23908 6.93302Z" fill="#233043"/>
</svg>
