<svg width="24" height="24" viewBox="0 0 24 24" fill="none" xmlns="http://www.w3.org/2000/svg">
<g id="24px/Performance" clip-path="url(#clip0_1060_123)">
<g id="Group 1045">
<path id="Union" fill-rule="evenodd" clip-rule="evenodd" d="M16.7022 5.51546C15.0728 5.94601 13.2414 6.73738 12.02 7.95876C11.2131 8.76565 10.3581 9.91613 9.69218 10.89C9.36375 11.3702 9.08734 11.7986 8.89281 12.1073L12.1982 15.4126C12.5069 15.2181 12.9352 14.9417 13.4155 14.6133C14.3893 13.9473 15.5398 13.0924 16.3467 12.2855C17.5681 11.0641 18.3594 9.2327 18.79 7.60325C19.003 6.79698 19.1199 6.06946 19.16 5.53315C19.1717 5.37546 19.1764 5.24066 19.1759 5.1296C19.0648 5.12907 18.93 5.13371 18.7723 5.14549C18.236 5.18556 17.5085 5.30242 16.7022 5.51546ZM12.0872 16.3624L12.1727 16.5058L12.1727 16.5058L12.0872 16.3624ZM7.42772 12.7635L11.5421 16.8779L12.4711 20.5941C12.5367 20.8563 12.7381 21.0629 12.9985 21.135C13.2589 21.2071 13.538 21.1336 13.7291 20.9426L17.1574 17.5142C17.2778 17.3938 17.3537 17.236 17.3725 17.0667L17.8377 12.8794C19.0684 11.4356 19.8243 9.56059 20.2402 7.98644C20.4737 7.10299 20.608 6.28423 20.6558 5.64489C20.6795 5.32756 20.6833 5.03554 20.6614 4.79293C20.6505 4.67265 20.6316 4.54442 20.5971 4.42254C20.5683 4.32107 20.5031 4.12716 20.3407 3.96474C20.1783 3.80231 19.9844 3.73713 19.8829 3.70837C19.761 3.67383 19.6328 3.65493 19.5125 3.64405C19.2699 3.62212 18.9779 3.62596 18.6606 3.64966C18.0212 3.69742 17.2025 3.8318 16.319 4.06524C14.7447 4.48121 12.8696 5.23717 11.4257 6.46802L7.23918 6.93318C7.06992 6.95199 6.9121 7.02784 6.79168 7.14826L3.36335 10.5766C3.17228 10.7677 3.09877 11.0467 3.17089 11.3071C3.24302 11.5675 3.44964 11.769 3.71178 11.8345L7.42772 12.7635ZM7.80011 12.1331L7.94309 12.2182C7.8914 12.1874 7.84385 12.1591 7.80012 12.133L7.80011 12.1331ZM7.64623 11.272C7.84695 10.9543 8.12522 10.5241 8.45399 10.0433C8.8526 9.46035 9.33399 8.79037 9.84754 8.1526L7.66631 8.39495L5.36067 10.7006L7.64623 11.272ZM14.2622 15.8515C14.8452 15.4528 15.5153 14.9713 16.1531 14.4577L15.9107 16.6396L13.6051 18.9452L13.0336 16.6592C13.3513 16.4585 13.7814 16.1802 14.2622 15.8515ZM13.8649 10.4406C14.038 10.6137 14.3185 10.6137 14.4915 10.4406C14.6646 10.2676 14.6646 9.98706 14.4915 9.81402C14.3185 9.64099 14.038 9.64099 13.8649 9.81402C13.6919 9.98705 13.6919 10.2676 13.8649 10.4406ZM12.8043 11.5013C13.5631 12.2601 14.7934 12.2601 15.5522 11.5013C16.311 10.7425 16.311 9.51218 15.5522 8.75336C14.7934 7.99454 13.5631 7.99454 12.8043 8.75336C12.0454 9.51218 12.0454 10.7425 12.8043 11.5013ZM7.97479 17.6375C7.90894 17.7034 7.6572 17.8885 7.17013 18.1422C6.72166 18.3758 6.18201 18.6123 5.64911 18.8099C5.56767 18.84 5.48751 18.8689 5.40892 18.8964C5.43639 18.8178 5.46524 18.7376 5.49543 18.6562C5.69294 18.1233 5.92943 17.5836 6.16307 17.1351C6.4168 16.6481 6.60193 16.3963 6.66778 16.3305C7.0287 15.9696 7.61387 15.9696 7.97479 16.3305C8.33571 16.6914 8.33571 17.2766 7.97479 17.6375ZM9.03545 18.6982C8.08875 19.6449 4.13784 21.147 3.64808 20.6572C3.15832 20.1674 4.66042 16.2165 5.60712 15.2698C6.55383 14.3231 8.08875 14.3231 9.03545 15.2698C9.98216 16.2165 9.98216 17.7514 9.03545 18.6982Z" fill="#233043"/>
</g>
</g>
<defs>
<clipPath id="clip0_1060_123">
<rect width="24" height="24" fill="white"/>
</clipPath>
</defs>
</svg>
