<svg width="24" height="24" viewBox="0 0 24 24" fill="none" xmlns="http://www.w3.org/2000/svg">
<path d="M18.4421 12.793C18.6244 12.793 18.7695 12.9411 18.7618 13.1232C18.5888 17.1866 15.2399 20.4278 11.134 20.4278C6.91741 20.4278 3.49921 17.0096 3.49921 12.793C3.49921 8.68705 6.74038 5.33814 10.8038 5.16522C10.9858 5.15747 11.134 5.30549 11.134 5.48774C11.134 7.12494 11.134 11.2718 11.134 12.4663C11.134 12.6486 11.2788 12.793 11.461 12.793C12.6878 12.793 17.0184 12.793 18.4421 12.793Z" fill="#233043"/>
<path d="M20.4937 10.873C20.5016 11.0569 20.3512 11.2066 20.1672 11.2066C16.8752 11.2066 14.1234 11.2066 13.1986 11.2066C13.0145 11.2066 12.8661 11.0562 12.8661 10.8721C12.8661 7.12366 12.866 6.13727 12.8661 3.90615C12.8661 3.72205 13.0157 3.57103 13.1996 3.57893C17.1508 3.74878 20.3238 6.92178 20.4937 10.873Z" fill="#233043"/>
</svg>
