<svg width="24" height="24" viewBox="0 0 24 24" fill="none" xmlns="http://www.w3.org/2000/svg">
<path fill-rule="evenodd" clip-rule="evenodd" d="M14.25 9.24996L14.25 3.79443C17.1019 4.13525 19.3647 6.39806 19.7055 9.24996H14.25ZM14.0529 2.26941C13.3076 2.2168 12.75 2.82649 12.75 3.50078L12.75 9.49791C12.75 10.1807 13.3003 10.75 13.9982 10.75H19.9994C20.6742 10.75 21.2831 10.1919 21.2305 9.44708C20.9595 5.60707 17.8929 2.54045 14.0529 2.26941ZM4.25 13C4.25 9.80206 6.65217 7.16461 9.75 6.79443V12.5016C9.75 13.1893 10.3042 13.75 10.9971 13.75H16.7055C16.3354 16.8478 13.6979 19.25 10.5 19.25C7.04822 19.25 4.25 16.4517 4.25 13ZM11.25 6.4998C11.25 5.82343 10.6904 5.21694 9.94712 5.26941C5.92457 5.55334 2.75 8.90559 2.75 13C2.75 17.2802 6.21979 20.75 10.5 20.75C14.5944 20.75 17.9466 17.5754 18.2306 13.5528C18.2827 12.8147 17.6844 12.25 17.0027 12.25H11.25V6.4998Z" fill="#233043"/>
</svg>
