<svg width="24" height="24" viewBox="0 0 24 24" fill="none" xmlns="http://www.w3.org/2000/svg">
<path fill-rule="evenodd" clip-rule="evenodd" d="M20.1671 11.2067C20.3512 11.2067 20.5015 11.057 20.4936 10.8731C20.3237 6.92188 17.1507 3.74888 13.1995 3.57903C13.0156 3.57113 12.866 3.72215 12.866 3.90625L12.866 10.8722C12.866 11.0563 13.0145 11.2067 13.1986 11.2067H20.1671ZM18.7618 13.1235C18.7695 12.9414 18.6244 12.7933 18.4421 12.7933H11.461C11.2788 12.7933 11.134 12.6489 11.134 12.4666V5.48804C11.134 5.30578 10.9858 5.15776 10.8038 5.16551C6.74038 5.33844 3.49921 8.68735 3.49921 12.7933C3.49921 17.0099 6.91741 20.4281 11.134 20.4281C15.2399 20.4281 18.5888 17.1869 18.7618 13.1235Z" fill="#233043"/>
</svg>
