<svg width="24" height="24" viewBox="0 0 24 24" fill="none" xmlns="http://www.w3.org/2000/svg">
<path d="M17.0027 13.5C17.2788 13.5 17.5019 13.7246 17.4824 14.0001C17.226 17.6327 14.1979 20.5 10.5 20.5C6.63401 20.5 3.5 17.366 3.5 13.5C3.5 9.80215 6.36733 6.77399 9.99993 6.51759C10.2754 6.49814 10.5 6.7237 10.5 6.99984C10.5 8.52278 10.5 11.7606 10.5 13.0016C10.5 13.2777 10.7209 13.5 10.9971 13.5C12.2644 13.5 15.6136 13.5 17.0027 13.5Z" stroke="#233043" stroke-width="1.5" stroke-linecap="round" stroke-linejoin="round"/>
<path d="M20.4824 9.99993C20.5019 10.2754 20.2756 10.5 19.9994 10.5C17.2691 10.5 14.9711 10.5 13.9982 10.5C13.7221 10.5 13.5 10.2741 13.5 9.99795C13.5 6.82899 13.5 5.8751 13.5 4.00082C13.5 3.72468 13.7246 3.49814 14.0001 3.51759C17.4675 3.76233 20.2377 6.5325 20.4824 9.99993Z" stroke="#233043" stroke-width="1.5" stroke-linecap="round" stroke-linejoin="round"/>
</svg>
