<svg width="24" height="24" viewBox="0 0 24 24" fill="none" xmlns="http://www.w3.org/2000/svg">
<path fill-rule="evenodd" clip-rule="evenodd" d="M15.4746 3.94271C15.6699 3.74745 15.9865 3.74745 16.1817 3.94271L20.3556 8.1166C20.5509 8.31187 20.5509 8.62845 20.3556 8.82371L15.6076 13.5717C15.5342 13.6451 15.5002 13.7487 15.5119 13.8518C15.6903 15.4292 15.2172 17.0663 14.0927 18.3271C13.9702 18.4645 13.7582 18.464 13.628 18.3339L10.3349 15.0407L6.09222 19.2834C5.79933 19.5763 5.32445 19.5763 5.03156 19.2834C4.73867 18.9905 4.73867 18.5156 5.03156 18.2227L9.2742 13.9801L5.9644 10.6703C5.83423 10.5401 5.83375 10.3281 5.97114 10.2056C7.23198 9.08102 8.8691 8.60797 10.4465 8.78641C10.5496 8.79807 10.6532 8.76409 10.7266 8.69071L15.4746 3.94271Z" fill="#233043"/>
</svg>
