<svg width="24" height="24" viewBox="0 0 24 24" fill="none" xmlns="http://www.w3.org/2000/svg">
<path fill-rule="evenodd" clip-rule="evenodd" d="M16.1817 3.94249C15.9864 3.74723 15.6698 3.74723 15.4746 3.94249L10.7266 8.69048C10.6532 8.76387 10.5496 8.79785 10.4465 8.78619C8.86908 8.60775 7.23196 9.0808 5.97111 10.2053C5.83372 10.3279 5.83421 10.5399 5.96438 10.67L13.628 18.3336C13.7581 18.4638 13.9701 18.4643 14.0927 18.3269C15.2172 17.0661 15.6903 15.429 15.5118 13.8516C15.5002 13.7485 15.5342 13.6449 15.6075 13.5715L20.3556 8.82349C20.5508 8.62823 20.5508 8.31164 20.3556 8.11638L16.1817 3.94249Z" fill="#233043"/>
<path d="M9.80457 14.5103L5.56193 18.7529" stroke="#233043" stroke-width="1.5" stroke-linecap="round" stroke-linejoin="round"/>
</svg>
