<svg width="24" height="24" viewBox="0 0 24 24" fill="none" xmlns="http://www.w3.org/2000/svg">
<path d="M15.5923 3.82461L16.1227 4.35494L16.1227 4.35494L15.5923 3.82461ZM10.6099 8.80701L10.5044 9.54955C10.7379 9.58274 10.9735 9.50414 11.1403 9.33735L10.6099 8.80701ZM5.97108 10.2053L6.47029 10.765L5.97108 10.2053ZM14.0926 18.3269L14.6524 18.8261L14.0926 18.3269ZM15.4909 13.688L14.9606 13.1577C14.7938 13.3245 14.7152 13.56 14.7484 13.7935L15.4909 13.688ZM16.1227 4.35494C15.96 4.51766 15.6961 4.51766 15.5334 4.35494L16.5941 3.29428C16.171 2.87121 15.4851 2.87121 15.062 3.29428L16.1227 4.35494ZM11.1403 9.33735L16.1227 4.35494L15.062 3.29428L10.0796 8.27668L11.1403 9.33735ZM6.47029 10.765C7.60354 9.75429 9.08729 9.34815 10.5044 9.54955L10.7155 8.06448C8.87824 7.80337 6.94755 8.32944 5.47187 9.64559L6.47029 10.765ZM6.49468 10.1397C6.64923 10.2942 6.67537 10.5821 6.47029 10.765L5.47187 9.64559C4.99201 10.0736 5.01912 10.7854 5.43402 11.2003L6.49468 10.1397ZM14.1583 17.8033L6.49468 10.1397L5.43402 11.2003L13.0976 18.8639L14.1583 17.8033ZM13.5329 17.8277C13.7158 17.6226 14.0037 17.6487 14.1583 17.8033L13.0976 18.8639C13.5125 19.2788 14.2244 19.3059 14.6524 18.8261L13.5329 17.8277ZM14.7484 13.7935C14.9498 15.2107 14.5437 16.6944 13.5329 17.8277L14.6524 18.8261C15.9685 17.3504 16.4946 15.4197 16.2335 13.5825L14.7484 13.7935ZM19.943 8.17528L14.9606 13.1577L16.0213 14.2183L21.0037 9.23594L19.943 8.17528ZM19.943 8.76453C19.7803 8.60181 19.7803 8.338 19.943 8.17528L21.0037 9.23594C21.4267 8.81287 21.4267 8.12694 21.0037 7.70387L19.943 8.76453ZM15.5334 4.35494L19.943 8.76453L21.0037 7.70387L16.5941 3.29428L15.5334 4.35494Z" fill="#233043"/>
<path d="M9.80438 14.5103L5.56174 18.7529" stroke="#233043" stroke-width="1.5" stroke-linecap="round" stroke-linejoin="round"/>
</svg>
