<svg width="24" height="24" viewBox="0 0 24 24" fill="none" xmlns="http://www.w3.org/2000/svg">
<path fill-rule="evenodd" clip-rule="evenodd" d="M11.1403 9.3376L15.8281 4.64982L19.6484 8.47016L14.9606 13.1579C14.7938 13.3247 14.7152 13.5603 14.7484 13.7938C14.9292 15.0659 14.6205 16.3917 13.8242 17.4695L6.82876 10.474C7.90652 9.67779 9.23232 9.36902 10.5044 9.54981C10.738 9.583 10.9735 9.50439 11.1403 9.3376ZM16.5941 3.29453C16.171 2.87147 15.4851 2.87147 15.062 3.29453L10.3346 8.02198C8.61438 7.87987 6.8459 8.42038 5.47189 9.64585C4.99203 10.0738 5.01914 10.7857 5.43404 11.2006L8.7438 14.5104L5.03144 18.2227C4.73854 18.5156 4.73854 18.9905 5.03144 19.2834C5.32433 19.5763 5.7992 19.5763 6.0921 19.2834L9.80446 15.571L13.0976 18.8642C13.5125 19.2791 14.2244 19.3062 14.6524 18.8263C15.8779 17.4523 16.4184 15.6838 16.2763 13.9636L21.0037 9.23619C21.4268 8.81313 21.4268 8.1272 21.0037 7.70413L16.5941 3.29453Z" fill="#233043"/>
</svg>
