<svg width="24" height="24" viewBox="0 0 24 24" fill="none" xmlns="http://www.w3.org/2000/svg">
<path fill-rule="evenodd" clip-rule="evenodd" d="M4.5 3.25C3.80964 3.25 3.25 3.80964 3.25 4.5V8C3.25 8.41421 3.58579 8.75 4 8.75C4.41421 8.75 4.75 8.41421 4.75 8V4.75H8C8.41421 4.75 8.75 4.41421 8.75 4C8.75 3.58579 8.41421 3.25 8 3.25H4.5ZM16 3.25C15.5858 3.25 15.25 3.58579 15.25 4C15.25 4.41421 15.5858 4.75 16 4.75H19.25V8C19.25 8.41421 19.5858 8.75 20 8.75C20.4142 8.75 20.75 8.41421 20.75 8V4.5C20.75 3.80964 20.1904 3.25 19.5 3.25H16ZM4.75 16C4.75 15.5858 4.41421 15.25 4 15.25C3.58579 15.25 3.25 15.5858 3.25 16V19.5C3.25 20.1904 3.80964 20.75 4.5 20.75H8C8.41421 20.75 8.75 20.4142 8.75 20C8.75 19.5858 8.41421 19.25 8 19.25H4.75V16ZM20.75 16C20.75 15.5858 20.4142 15.25 20 15.25C19.5858 15.25 19.25 15.5858 19.25 16V19.25H16C15.5858 19.25 15.25 19.5858 15.25 20C15.25 20.4142 15.5858 20.75 16 20.75H19.5C20.1904 20.75 20.75 20.1904 20.75 19.5V16ZM12 7.25C11.0335 7.25 10.25 8.0335 10.25 9C10.25 9.9665 11.0335 10.75 12 10.75C12.9665 10.75 13.75 9.9665 13.75 9C13.75 8.0335 12.9665 7.25 12 7.25ZM8.75 9C8.75 7.20507 10.2051 5.75 12 5.75C13.7949 5.75 15.25 7.20507 15.25 9C15.25 10.7949 13.7949 12.25 12 12.25C10.2051 12.25 8.75 10.7949 8.75 9ZM7.25 17.0556C7.25 14.6777 9.17766 12.75 11.5556 12.75H12.4444C14.8223 12.75 16.75 14.6777 16.75 17.0556C16.75 17.7152 16.2152 18.25 15.5556 18.25H8.44444C7.78477 18.25 7.25 17.7152 7.25 17.0556ZM15.2336 16.75C15.0813 15.3443 13.8907 14.25 12.4444 14.25H11.5556C10.1093 14.25 8.9187 15.3443 8.76645 16.75H15.2336Z" fill="#233043"/>
</svg>
