<svg width="24" height="24" viewBox="0 0 24 24" fill="none" xmlns="http://www.w3.org/2000/svg">
<circle cx="12" cy="9" r="2.5" stroke="#233043" stroke-width="1.5" stroke-linecap="round" stroke-linejoin="round"/>
<path d="M8 17.0556C8 15.0919 9.59188 13.5 11.5556 13.5H12.4444C14.4081 13.5 16 15.0919 16 17.0556V17.0556C16 17.301 15.801 17.5 15.5556 17.5H8.44444C8.19898 17.5 8 17.301 8 17.0556V17.0556Z" stroke="#233043" stroke-width="1.5" stroke-linecap="round" stroke-linejoin="round"/>
<path d="M20 8V4.5C20 4.22386 19.7761 4 19.5 4H16M8 4H4.5C4.22386 4 4 4.22386 4 4.5V8M4 16V19.5C4 19.7761 4.22386 20 4.5 20H8M16 20H19.5C19.7761 20 20 19.7761 20 19.5V16" stroke="#233043" stroke-width="1.5" stroke-linecap="round" stroke-linejoin="round"/>
</svg>
