<svg width="24" height="24" viewBox="0 0 24 24" fill="none" xmlns="http://www.w3.org/2000/svg">
<path fill-rule="evenodd" clip-rule="evenodd" d="M16.6725 3.91808C16.5462 3.66207 16.2855 3.5 16 3.5C15.7145 3.5 15.4538 3.66207 15.3274 3.91808L14.0325 6.54195L11.1369 6.96271C10.8543 7.00376 10.6196 7.20164 10.5314 7.47315C10.4432 7.74466 10.5168 8.04271 10.7212 8.24198L12.8165 10.2844L12.3219 13.1683C12.2736 13.4497 12.3893 13.734 12.6202 13.9018C12.8512 14.0696 13.1574 14.0918 13.4101 13.9589L16 12.5973L18.5899 13.9589C18.8426 14.0918 19.1488 14.0696 19.3798 13.9018C19.6107 13.734 19.7264 13.4497 19.6781 13.1683L19.1835 10.2844L21.2788 8.24198C21.4832 8.04271 21.5568 7.74466 21.4686 7.47315C21.3804 7.20164 21.1456 7.00376 20.8631 6.96271L17.9675 6.54195L16.6725 3.91808ZM15.2031 7.55938L16 5.94466L16.7969 7.55938C16.9062 7.78074 17.1173 7.93417 17.3616 7.96966L19.1436 8.22859L17.8541 9.48548C17.6774 9.65778 17.5967 9.90603 17.6384 10.1493L17.9428 11.9241L16.349 11.0862C16.1305 10.9713 15.8695 10.9713 15.651 11.0862L14.0572 11.9241L14.3616 10.1493C14.4033 9.90603 14.3226 9.65778 14.1459 9.48548L12.8564 8.22859L14.6384 7.96966C14.8827 7.93417 15.0938 7.78074 15.2031 7.55938ZM9.21197 12.1076C10.1344 11.5951 11.2376 12.3857 11.0489 13.4239L10.7623 15H17C18.0301 15 18.618 16.176 18 17L15.75 20C15.5139 20.3148 15.1434 20.5 14.75 20.5H6.5C6.40287 20.5 6.30832 20.4889 6.21756 20.468C6.1487 20.4888 6.07566 20.5 6 20.5H3.5C2.80964 20.5 2.25 19.9404 2.25 19.25V15.25C2.25 14.5596 2.80964 14 3.5 14H5.81285C5.83881 13.9829 5.86552 13.9667 5.89295 13.9515L9.21197 12.1076ZM5.25 15.5V19H3.75V15.5H5.25ZM14.625 19H6.75V15.1913L9.47853 13.6755L9.12573 15.6158C9.08595 15.8346 9.14533 16.0598 9.28782 16.2306C9.43032 16.4013 9.64124 16.5 9.86364 16.5H16.5L14.625 19Z" fill="#233043"/>
</svg>
