<svg width="24" height="24" viewBox="0 0 24 24" fill="none" xmlns="http://www.w3.org/2000/svg">
<path d="M3 15.25C3 14.9739 3.22386 14.75 3.5 14.75H6V19.75H3.5C3.22386 19.75 3 19.5261 3 19.25V15.25Z" stroke="#233043" stroke-width="1.5" stroke-linecap="round" stroke-linejoin="round"/>
<path d="M9.5762 12.7634L9.94043 13.419V13.419L9.5762 12.7634ZM6.25718 14.6073L6.62141 15.2629L6.62141 15.2629L6.25718 14.6073ZM10.311 13.2899L9.57305 13.1557V13.1557L10.311 13.2899ZM9.86364 15.7501L9.12573 15.616C9.08595 15.8348 9.14533 16.0599 9.28782 16.2307C9.43032 16.4014 9.64124 16.5001 9.86364 16.5001V15.7501ZM17.4 16.5501L16.8 16.1001L16.8 16.1001L17.4 16.5501ZM15.15 19.5501L15.75 20.0001L15.75 20.0001L15.15 19.5501ZM9.21197 12.1077L5.89295 13.9516L6.62141 15.2629L9.94043 13.419L9.21197 12.1077ZM11.0489 13.424C11.2376 12.3858 10.1344 11.5953 9.21197 12.1077L9.94043 13.419C9.75594 13.5215 9.5353 13.3634 9.57305 13.1557L11.0489 13.424ZM10.6015 15.8843L11.0489 13.424L9.57305 13.1557L9.12573 15.616L10.6015 15.8843ZM9.86364 16.5001H17V15.0001H9.86364V16.5001ZM17 16.5001C16.794 16.5001 16.6764 16.2649 16.8 16.1001L18 17.0001C18.618 16.1761 18.0301 15.0001 17 15.0001V16.5001ZM16.8 16.1001L14.55 19.1001L15.75 20.0001L18 17.0001L16.8 16.1001ZM14.55 19.1001C14.5972 19.0372 14.6713 19.0001 14.75 19.0001V20.5001C15.1434 20.5001 15.5139 20.3149 15.75 20.0001L14.55 19.1001ZM14.75 19.0001H6.5V20.5001H14.75V19.0001ZM6.5 19.0001C6.63807 19.0001 6.75 19.1121 6.75 19.2501H5.25C5.25 19.9405 5.80964 20.5001 6.5 20.5001V19.0001ZM6.75 19.2501V17.2501H5.25V19.2501H6.75ZM6.75 17.2501V16.2501H5.25V17.2501H6.75ZM5.25 15.0443V16.2501H6.75V15.0443H5.25ZM5.89295 13.9516C5.49611 14.1721 5.25 14.5904 5.25 15.0443H6.75C6.75 15.1351 6.70078 15.2188 6.62141 15.2629L5.89295 13.9516Z" fill="#233043"/>
<path d="M16 4.25L17.4695 7.22746L20.7553 7.70492L18.3776 10.0225L18.9389 13.2951L16 11.75L13.0611 13.2951L13.6224 10.0225L11.2447 7.70492L14.5305 7.22746L16 4.25Z" stroke="#233043" stroke-width="1.5" stroke-linecap="round" stroke-linejoin="round"/>
</svg>
