<svg width="24" height="24" viewBox="0 0 24 24" fill="none" xmlns="http://www.w3.org/2000/svg">
<path fill-rule="evenodd" clip-rule="evenodd" d="M11.25 4C11.25 3.58579 11.5858 3.25 12 3.25C14.3206 3.25 16.5462 4.17187 18.1872 5.81282C19.8281 7.45376 20.75 9.67936 20.75 12C20.75 14.3206 19.8281 16.5462 18.1872 18.1872C16.5462 19.8281 14.3206 20.75 12 20.75C11.5858 20.75 11.25 20.4142 11.25 20C11.25 19.5858 11.5858 19.25 12 19.25C13.9228 19.25 15.7669 18.4862 17.1265 17.1265C18.4862 15.7669 19.25 13.9228 19.25 12C19.25 10.0772 18.4862 8.23311 17.1265 6.87348C15.7669 5.51384 13.9228 4.75 12 4.75C11.5858 4.75 11.25 4.41421 11.25 4ZM16.4368 9.34754C16.7375 9.63242 16.7503 10.1071 16.4655 10.4078L11.4235 15.7298C11.2843 15.8768 11.0915 15.9612 10.8891 15.9639C10.6867 15.9667 10.4918 15.8875 10.3487 15.7443L7.54868 12.9443C7.25579 12.6514 7.25579 12.1766 7.54868 11.8837C7.84157 11.5908 8.31645 11.5908 8.60934 11.8837L10.8645 14.1388L15.3766 9.37619C15.6614 9.07549 16.1361 9.06266 16.4368 9.34754ZM8.96661 5.41563C9.3428 5.24228 9.50724 4.79678 9.33389 4.42059C9.16054 4.04439 8.71505 3.87995 8.33885 4.0533C8.0902 4.16788 7.8462 4.29446 7.60774 4.43289C7.36929 4.57132 7.13836 4.72042 6.91556 4.87953C6.57847 5.12025 6.50034 5.58865 6.74106 5.92574C6.98177 6.26283 7.45018 6.34095 7.78727 6.10024C7.97186 5.96842 8.1632 5.84487 8.36081 5.73015C8.55842 5.61544 8.76059 5.51056 8.96661 5.41563ZM5.46726 8.85736C5.64682 8.48409 5.48978 8.03593 5.11651 7.85638C4.74323 7.67682 4.29508 7.83386 4.11552 8.20713C3.99684 8.45385 3.8894 8.70686 3.79377 8.96547C3.69814 9.22408 3.61512 9.48612 3.54473 9.7507C3.43823 10.151 3.6764 10.5618 4.07669 10.6683C4.47698 10.7748 4.88781 10.5367 4.9943 10.1364C5.05262 9.91715 5.12141 9.70003 5.20066 9.48572C5.2799 9.27142 5.36893 9.06177 5.46726 8.85736ZM4.0543 13.1914C4.45642 13.092 4.86296 13.3375 4.96234 13.7396C5.01676 13.9598 5.08168 14.1781 5.15712 14.3938C5.23255 14.6094 5.31785 14.8206 5.41253 15.0268C5.58544 15.4032 5.42048 15.8485 5.04408 16.0214C4.66768 16.1943 4.22238 16.0293 4.04947 15.6529C3.93519 15.4041 3.83225 15.1492 3.74122 14.889C3.65019 14.6287 3.57184 14.3652 3.50615 14.0995C3.40677 13.6973 3.65219 13.2908 4.0543 13.1914ZM7.68326 17.8246C7.35049 17.578 6.88078 17.6478 6.63412 17.9805C6.38746 18.3133 6.45727 18.783 6.79003 19.0297C7.00998 19.1927 7.23822 19.3459 7.47419 19.4885C7.71015 19.6311 7.95187 19.762 8.19845 19.881C8.57151 20.061 9.01985 19.9045 9.19985 19.5314C9.37984 19.1584 9.22333 18.71 8.85027 18.53C8.64597 18.4315 8.44569 18.323 8.25015 18.2048C8.05461 18.0866 7.86549 17.9597 7.68326 17.8246Z" fill="#233043"/>
</svg>
