<svg width="24" height="24" viewBox="0 0 24 24" fill="none" xmlns="http://www.w3.org/2000/svg">
<g clip-path="url(#clip0_8262:14460)">
<path d="M12 4C14.1217 4 16.1566 4.84285 17.6569 6.34315C19.1571 7.84344 20 9.87827 20 12C20 14.1217 19.1571 16.1566 17.6569 17.6569C16.1566 19.1571 14.1217 20 12 20" stroke="#233043" stroke-width="1.5" stroke-linecap="round" stroke-linejoin="round"/>
<path d="M8.07901 12.414L10.879 15.214L15.921 9.892" stroke="#233043" stroke-width="1.5" stroke-linecap="round" stroke-linejoin="round"/>
<path d="M9.33389 4.42059C9.50724 4.79678 9.3428 5.24228 8.96661 5.41563C8.76059 5.51056 8.55842 5.61544 8.36081 5.73015C8.1632 5.84487 7.97186 5.96842 7.78727 6.10024C7.45018 6.34095 6.98177 6.26283 6.74106 5.92574C6.50034 5.58865 6.57847 5.12025 6.91556 4.87953C7.13836 4.72042 7.36929 4.57132 7.60774 4.43289C7.8462 4.29446 8.0902 4.16788 8.33885 4.0533C8.71505 3.87995 9.16054 4.04439 9.33389 4.42059Z" fill="#233043"/>
<path d="M5.11651 7.85638C5.48978 8.03593 5.64682 8.48409 5.46726 8.85736C5.36893 9.06177 5.2799 9.27142 5.20066 9.48572C5.12141 9.70003 5.05262 9.91715 4.9943 10.1364C4.88781 10.5367 4.47698 10.7748 4.07669 10.6683C3.6764 10.5618 3.43823 10.151 3.54473 9.7507C3.61512 9.48612 3.69814 9.22408 3.79377 8.96547C3.8894 8.70686 3.99684 8.45385 4.11552 8.20713C4.29508 7.83386 4.74323 7.67682 5.11651 7.85638Z" fill="#233043"/>
<path d="M4.0543 13.1914C4.45642 13.092 4.86296 13.3375 4.96234 13.7396C5.01676 13.9598 5.08168 14.1781 5.15712 14.3938C5.23255 14.6094 5.31785 14.8206 5.41253 15.0268C5.58544 15.4032 5.42048 15.8485 5.04408 16.0214C4.66768 16.1943 4.22238 16.0293 4.04947 15.6529C3.93519 15.4041 3.83225 15.1492 3.74122 14.889C3.65019 14.6287 3.57184 14.3652 3.50615 14.0995C3.40677 13.6973 3.65219 13.2908 4.0543 13.1914Z" fill="#233043"/>
<path d="M6.63412 17.9805C6.88078 17.6478 7.35049 17.578 7.68326 17.8246C7.86549 17.9597 8.05461 18.0866 8.25015 18.2048C8.44569 18.323 8.64597 18.4315 8.85027 18.53C9.22333 18.71 9.37984 19.1584 9.19985 19.5314C9.01985 19.9045 8.57151 20.061 8.19845 19.881C7.95187 19.762 7.71015 19.6311 7.47419 19.4885C7.23822 19.3459 7.00998 19.1927 6.79003 19.0297C6.45727 18.783 6.38746 18.3133 6.63412 17.9805Z" fill="#233043"/>
</g>
<defs>
<clipPath id="clip0_8262:14460">
<rect width="17.5" height="17.5" fill="white" transform="translate(3.25 3.25)"/>
</clipPath>
</defs>
</svg>
