<svg width="24" height="24" viewBox="0 0 24 24" fill="none" xmlns="http://www.w3.org/2000/svg">
<path fill-rule="evenodd" clip-rule="evenodd" d="M17.4697 5.53033C17.1768 5.23744 17.1768 4.76256 17.4697 4.46967C17.7626 4.17678 18.2375 4.17678 18.5303 4.46967L20.1768 6.11612C20.6649 6.60427 20.6649 7.39573 20.1768 7.88388L18.5303 9.53033C18.2375 9.82322 17.7626 9.82322 17.4697 9.53033C17.1768 9.23744 17.1768 8.76256 17.4697 8.46967L18.1894 7.75H10C8.20507 7.75 6.75 9.20507 6.75 11V12C6.75 12.4142 6.41421 12.75 6 12.75C5.58579 12.75 5.25 12.4142 5.25 12V11C5.25 8.37665 7.37665 6.25 10 6.25H18.1894L17.4697 5.53033ZM19.75 13C19.75 15.6234 17.6234 17.75 15 17.75H6.81065L7.53032 18.4697C7.82321 18.7626 7.82321 19.2374 7.53032 19.5303C7.23742 19.8232 6.76255 19.8232 6.46966 19.5303L4.82321 17.8839C4.33505 17.3957 4.33505 16.6043 4.82321 16.1161L6.46966 14.4697C6.76255 14.1768 7.23742 14.1768 7.53032 14.4697C7.82321 14.7626 7.82321 15.2374 7.53032 15.5303L6.81065 16.25H15C16.7949 16.25 18.25 14.7949 18.25 13V12C18.25 11.5858 18.5858 11.25 19 11.25C19.4142 11.25 19.75 11.5858 19.75 12V13Z" fill="#233043"/>
</svg>
