<svg width="24" height="24" viewBox="0 0 24 24" fill="none" xmlns="http://www.w3.org/2000/svg">
<path fill-rule="evenodd" clip-rule="evenodd" d="M6.4664 10.8691C6.98621 8.26182 9.28865 6.29712 12.0483 6.29712C13.9212 6.29712 15.5837 7.20152 16.6216 8.59956H14.9711C14.5569 8.59956 14.2211 8.93535 14.2211 9.34956C14.2211 9.76378 14.5569 10.0996 14.9711 10.0996H18.0432C18.6415 10.0996 19.1266 9.61454 19.1266 9.01623V5.94409C19.1266 5.52987 18.7908 5.19409 18.3766 5.19409C17.9623 5.19409 17.6266 5.52987 17.6266 5.94409V7.44939C16.3084 5.83165 14.2996 4.79712 12.0483 4.79712C8.55945 4.79712 5.65231 7.28064 4.99535 10.5759C4.91437 10.9821 5.17802 11.377 5.58424 11.458C5.99046 11.539 6.38542 11.2754 6.4664 10.8691ZM11.9518 17.7028C14.7115 17.7028 17.0139 15.7381 17.5337 13.1307C17.6147 12.7245 18.0096 12.4609 18.4159 12.5418C18.8221 12.6228 19.0857 13.0178 19.0048 13.424C18.3478 16.7192 15.4407 19.2028 11.9518 19.2028C9.70054 19.2028 7.69173 18.1682 6.3736 16.5505L6.3736 18.0622C6.3736 18.4764 6.03781 18.8122 5.6236 18.8122C5.20938 18.8122 4.8736 18.4764 4.8736 18.0622V14.9837C4.8736 14.3854 5.35862 13.9004 5.95693 13.9004H9.03539C9.4496 13.9004 9.78539 14.2362 9.78539 14.6504C9.78539 15.0646 9.4496 15.4004 9.03539 15.4004H7.37861C8.41649 16.7984 10.079 17.7028 11.9518 17.7028Z" fill="#233043"/>
</svg>
