<svg width="24" height="24" viewBox="0 0 24 24" fill="none" xmlns="http://www.w3.org/2000/svg">
<path fill-rule="evenodd" clip-rule="evenodd" d="M13 5.25C9.54822 5.25 6.75 8.04822 6.75 11.5V11.6893L7.46967 10.9697C7.76256 10.6768 8.23744 10.6768 8.53033 10.9697C8.82322 11.2626 8.82322 11.7374 8.53033 12.0303L6.88388 13.6768C6.39573 14.1649 5.60427 14.1649 5.11612 13.6768L3.46967 12.0303C3.17678 11.7374 3.17678 11.2626 3.46967 10.9697C3.76256 10.6768 4.23744 10.6768 4.53033 10.9697L5.25 11.6893V11.5C5.25 7.21979 8.71979 3.75 13 3.75C17.2802 3.75 20.75 7.21979 20.75 11.5C20.75 15.7802 17.2802 19.25 13 19.25C12.5858 19.25 12.25 18.9142 12.25 18.5C12.25 18.0858 12.5858 17.75 13 17.75C16.4518 17.75 19.25 14.9518 19.25 11.5C19.25 8.04822 16.4518 5.25 13 5.25ZM12.5 6.75C12.9142 6.75 13.25 7.08579 13.25 7.5V10.75H16.5C16.9142 10.75 17.25 11.0858 17.25 11.5C17.25 11.9142 16.9142 12.25 16.5 12.25H13C12.3096 12.25 11.75 11.6904 11.75 11V7.5C11.75 7.08579 12.0858 6.75 12.5 6.75Z" fill="#233043"/>
</svg>
