<svg width="24" height="24" viewBox="0 0 24 24" fill="none" xmlns="http://www.w3.org/2000/svg">
<path fill-rule="evenodd" clip-rule="evenodd" d="M8 2.25C8.41421 2.25 8.75 2.58579 8.75 3V4.25H15.25V3C15.25 2.58579 15.5858 2.25 16 2.25C16.4142 2.25 16.75 2.58579 16.75 3V4.25H19.5C20.1904 4.25 20.75 4.80964 20.75 5.5V18.5C20.75 19.1904 20.1904 19.75 19.5 19.75H4.5C3.80964 19.75 3.25 19.1904 3.25 18.5V5.5C3.25 4.80964 3.80964 4.25 4.5 4.25H7.25V3C7.25 2.58579 7.58579 2.25 8 2.25ZM15.25 5.75V6C15.25 6.41421 15.5858 6.75 16 6.75C16.4142 6.75 16.75 6.41421 16.75 6V5.75H19.25V18.25H4.75V5.75H7.25V6C7.25 6.41421 7.58579 6.75 8 6.75C8.41421 6.75 8.75 6.41421 8.75 6V5.75H15.25ZM9.3598 9.35981C9.65269 9.06691 10.1276 9.06691 10.4205 9.35981L12 10.9393L13.5795 9.35984C13.8724 9.06695 14.3473 9.06695 14.6402 9.35984C14.9331 9.65273 14.9331 10.1276 14.6402 10.4205L13.0607 12L14.6402 13.5795C14.9331 13.8724 14.9331 14.3473 14.6402 14.6402C14.3473 14.9331 13.8724 14.9331 13.5795 14.6402L12 13.0607L10.4205 14.6402C10.1276 14.9331 9.6527 14.9331 9.35981 14.6402C9.06691 14.3473 9.06691 13.8724 9.35981 13.5795L10.9393 12L9.3598 10.4205C9.0669 10.1276 9.0669 9.6527 9.3598 9.35981Z" fill="#233043"/>
</svg>
