<svg width="24" height="24" viewBox="0 0 24 24" fill="none" xmlns="http://www.w3.org/2000/svg">
<path fill-rule="evenodd" clip-rule="evenodd" d="M11 3.75C6.99591 3.75 3.74998 6.99594 3.74998 11C3.74998 12.982 4.54534 14.7783 5.8343 16.0871C6.41581 14.7195 7.40255 13.5858 8.63908 12.9137C7.79161 12.2262 7.24998 11.1763 7.24998 10C7.24998 7.92893 8.92891 6.25 11 6.25C13.071 6.25 14.75 7.92893 14.75 10C14.75 11.0944 14.2811 12.0794 13.5333 12.7649C13.578 12.7859 13.6224 12.8074 13.6666 12.8295C14.0369 13.0151 14.1866 13.4657 14.001 13.836C13.8154 14.2064 13.3648 14.3561 12.9945 14.1705C12.4524 13.8988 11.8583 13.75 11.235 13.75C9.39041 13.75 7.72897 15.0807 7.05795 17.0857C8.19269 17.8222 9.54638 18.25 11 18.25C11.4142 18.25 11.75 18.5858 11.75 19C11.75 19.4142 11.4142 19.75 11 19.75C6.16749 19.75 2.24998 15.8325 2.24998 11C2.24998 6.16751 6.16749 2.25 11 2.25C15.8325 2.25 19.75 6.16751 19.75 11C19.75 11.4142 19.4142 11.75 19 11.75C18.5858 11.75 18.25 11.4142 18.25 11C18.25 6.99594 15.004 3.75 11 3.75ZM11 7.75C9.75734 7.75 8.74998 8.75736 8.74998 10C8.74998 11.2426 9.75734 12.25 11 12.25C12.2426 12.25 13.25 11.2426 13.25 10C13.25 8.75736 12.2426 7.75 11 7.75ZM14.3484 14.3484C14.6413 14.0555 15.1161 14.0555 15.409 14.3484L17 15.9393L18.591 14.3483C18.8839 14.0555 19.3588 14.0555 19.6517 14.3483C19.9446 14.6412 19.9446 15.1161 19.6517 15.409L18.0607 17L19.6517 18.591C19.9446 18.8839 19.9446 19.3588 19.6517 19.6517C19.3588 19.9446 18.8839 19.9446 18.591 19.6517L17 18.0607L15.409 19.6516C15.1161 19.9445 14.6413 19.9445 14.3484 19.6516C14.0555 19.3588 14.0555 18.8839 14.3484 18.591L15.9393 17L14.3484 15.409C14.0555 15.1161 14.0555 14.6413 14.3484 14.3484Z" fill="#233043"/>
</svg>
