<svg width="24" height="24" viewBox="0 0 24 24" fill="none" xmlns="http://www.w3.org/2000/svg">
<path fill-rule="evenodd" clip-rule="evenodd" d="M12 6.75H6.75V14.25H17.6893L15.9697 12.5303C15.6768 12.2374 15.6768 11.7626 15.9697 11.4697C16.2626 11.1768 16.7374 11.1768 17.0303 11.4697L19.7946 14.234C20.2177 14.657 20.2177 15.343 19.7946 15.766L17.0303 18.5303C16.7374 18.8232 16.2626 18.8232 15.9697 18.5303C15.6768 18.2374 15.6768 17.7626 15.9697 17.4697L17.6893 15.75H6.5C5.80964 15.75 5.25 15.1904 5.25 14.5V6.5C5.25 5.80964 5.80964 5.25 6.5 5.25H12C12.4142 5.25 12.75 5.58579 12.75 6C12.75 6.41421 12.4142 6.75 12 6.75Z" fill="#233043"/>
</svg>
