<svg width="24" height="24" viewBox="0 0 24 24" fill="none" xmlns="http://www.w3.org/2000/svg">
<g id="24px/Reviews">
<g id="Group 1062">
<g id="Group 1056">
<path id="Subtract" fill-rule="evenodd" clip-rule="evenodd" d="M8.96042 4.5835C8.8201 4.8551 8.74017 5.16303 8.73843 5.48958L8.73526 6.0835H6.55029V19.2497H18.2499V6.0835H16.0559L16.0589 5.51091C16.0607 5.17662 15.9804 4.86113 15.8369 4.5835H18.9999C19.4141 4.5835 19.7499 4.91928 19.7499 5.3335V19.9997C19.7499 20.4139 19.4141 20.7497 18.9999 20.7497H5.80029C5.38608 20.7497 5.05029 20.4139 5.05029 19.9997V5.3335C5.05029 4.91928 5.38608 4.5835 5.80029 4.5835H8.96042Z" fill="#233043"/>
<path id="Union (Stroke)" fill-rule="evenodd" clip-rule="evenodd" d="M7.98844 5.48558C7.99651 3.97254 9.22534 2.75024 10.7384 2.75024H14.059C15.5835 2.75024 16.817 3.99042 16.8089 5.5149L16.804 6.43749C16.8018 6.85014 16.4667 7.18349 16.054 7.18349H8.7334C8.53379 7.18349 8.34242 7.10392 8.20166 6.9624C8.06089 6.82089 7.98234 6.62909 7.98341 6.42949L7.98844 5.48558ZM10.7384 4.25024C10.0506 4.25024 9.49209 4.80583 9.48842 5.49358L9.48741 5.68349H15.308L15.3089 5.50691C15.3126 4.81396 14.7519 4.25024 14.059 4.25024H10.7384Z" fill="#233043"/>
</g>
<path id="Star 5 (Stroke)" fill-rule="evenodd" clip-rule="evenodd" d="M12.3997 8.98364C12.6852 8.98364 12.9459 9.14572 13.0723 9.40172L13.9753 11.2315L15.9947 11.525C16.2772 11.566 16.5119 11.7639 16.6001 12.0354C16.6883 12.3069 16.6148 12.605 16.4103 12.8042L14.9491 14.2286L15.2941 16.2397C15.3423 16.5211 15.2267 16.8055 14.9957 16.9733C14.7647 17.1411 14.4586 17.1632 14.2059 17.0304L12.3997 16.0808L10.5936 17.0304C10.3409 17.1632 10.0347 17.1411 9.80374 16.9733C9.57278 16.8055 9.45711 16.5211 9.50537 16.2397L9.85031 14.2286L8.38911 12.8042C8.18468 12.605 8.11111 12.3069 8.19933 12.0354C8.28755 11.7639 8.52226 11.566 8.80477 11.525L10.8241 11.2315L11.7272 9.40172C11.8535 9.14572 12.1142 8.98364 12.3997 8.98364ZM12.3997 11.4283L11.9947 12.249C11.8855 12.4703 11.6743 12.6238 11.43 12.6593L10.5243 12.7909L11.1797 13.4296C11.3564 13.602 11.4371 13.8502 11.3954 14.0935L11.2407 14.9955L12.0507 14.5696C12.2692 14.4548 12.5302 14.4548 12.7487 14.5696L13.5588 14.9955L13.4041 14.0935C13.3623 13.8502 13.443 13.602 13.6198 13.4296L14.2751 12.7909L13.3694 12.6593C13.1252 12.6238 12.914 12.4703 12.8047 12.249L12.3997 11.4283Z" fill="#233043"/>
</g>
</g>
</svg>
