<svg width="24" height="24" viewBox="0 0 24 24" fill="none" xmlns="http://www.w3.org/2000/svg">
<path fill-rule="evenodd" clip-rule="evenodd" d="M6.75 11.5C6.75 8.04822 9.54822 5.25 13 5.25C16.4518 5.25 19.25 8.04822 19.25 11.5C19.25 14.9518 16.4518 17.75 13 17.75C12.5858 17.75 12.25 18.0858 12.25 18.5C12.25 18.9142 12.5858 19.25 13 19.25C17.2802 19.25 20.75 15.7802 20.75 11.5C20.75 7.21979 17.2802 3.75 13 3.75C8.71979 3.75 5.25 7.21979 5.25 11.5V11.6893L4.53033 10.9697C4.23744 10.6768 3.76256 10.6768 3.46967 10.9697C3.17678 11.2626 3.17678 11.7374 3.46967 12.0303L5.11612 13.6768C5.60427 14.1649 6.39573 14.1649 6.88388 13.6768L8.53033 12.0303C8.82322 11.7374 8.82322 11.2626 8.53033 10.9697C8.23744 10.6768 7.76256 10.6768 7.46967 10.9697L6.75 11.6893V11.5Z" fill="#233043"/>
</svg>
