<svg width="24" height="24" viewBox="0 0 24 24" fill="none" xmlns="http://www.w3.org/2000/svg">
<path fill-rule="evenodd" clip-rule="evenodd" d="M11.414 1.96537C11.7786 1.75389 12.2214 1.75389 12.586 1.96537C13.4841 2.48629 16.75 4.69186 16.75 9.25861V11.1611C16.885 11.1891 17.0192 11.2407 17.1479 11.3187L19.1479 12.5308C19.5217 12.7574 19.75 13.1627 19.75 13.5998V16C19.75 16.6904 19.1904 17.25 18.5 17.25H16L15.996 17.25H12.7073C12.735 17.3282 12.75 17.4123 12.75 17.5V19.5C12.75 19.9142 12.4142 20.25 12 20.25C11.5858 20.25 11.25 19.9142 11.25 19.5V17.5C11.25 17.4123 11.265 17.3282 11.2927 17.25H8.00401L8 17.25H5.5C4.80964 17.25 4.25 16.6904 4.25 16V13.5998C4.25 13.1627 4.47832 12.7574 4.85212 12.5308L6.85212 11.3187C6.98081 11.2407 7.11503 11.1891 7.25 11.1611V9.25861C7.25 4.69186 10.5158 2.48629 11.414 1.96537ZM7.25 12.8315V15.75H5.75V13.7406L7.25 12.8315ZM15.25 15.75H8.75V12.3877V9.25861C8.75 5.75056 11.0865 3.93774 12 3.36365C12.9135 3.93774 15.25 5.75056 15.25 9.25861V15.75ZM18.25 13.7406L16.75 12.8315V15.75H18.25V13.7406ZM13.5 9C13.5 9.82843 12.8284 10.5 12 10.5C11.1716 10.5 10.5 9.82843 10.5 9C10.5 8.17157 11.1716 7.5 12 7.5C12.8284 7.5 13.5 8.17157 13.5 9ZM9 17.75C9.41421 17.75 9.75 18.0858 9.75 18.5V20.5C9.75 20.9142 9.41421 21.25 9 21.25C8.58579 21.25 8.25 20.9142 8.25 20.5V18.5C8.25 18.0858 8.58579 17.75 9 17.75ZM15.75 18.5C15.75 18.0858 15.4142 17.75 15 17.75C14.5858 17.75 14.25 18.0858 14.25 18.5V20.5C14.25 20.9142 14.5858 21.25 15 21.25C15.4142 21.25 15.75 20.9142 15.75 20.5V18.5Z" fill="#233043"/>
</svg>
