<svg width="24" height="24" viewBox="0 0 24 24" fill="none" xmlns="http://www.w3.org/2000/svg">
<path fill-rule="evenodd" clip-rule="evenodd" d="M5.75 10.8348C5.75 8.02652 8.02652 5.75 10.8348 5.75C13.643 5.75 15.9195 8.02652 15.9195 10.8348C15.9195 13.643 13.643 15.9195 10.8348 15.9195C8.02652 15.9195 5.75 13.643 5.75 10.8348ZM10.8348 4.25C7.1981 4.25 4.25 7.1981 4.25 10.8348C4.25 14.4714 7.1981 17.4195 10.8348 17.4195C12.3829 17.4195 13.8062 16.8853 14.9304 15.9911L18.4697 19.5303C18.7626 19.8232 19.2375 19.8232 19.5303 19.5303C19.8232 19.2374 19.8232 18.7626 19.5303 18.4697L15.9911 14.9304C16.8853 13.8062 17.4195 12.3829 17.4195 10.8348C17.4195 7.1981 14.4714 4.25 10.8348 4.25Z" fill="#233043"/>
</svg>
