<svg width="24" height="24" viewBox="0 0 24 24" fill="none" xmlns="http://www.w3.org/2000/svg">
<path d="M9.90833 14.2587C9.90833 14.2587 9.90833 15.8275 12 15.8275C12.1355 15.8275 14.0916 15.8275 14.0916 13.7358C14.0916 11.6442 12 11.6442 12 11.6442C12 11.6442 10.2641 11.6442 10.2641 9.90841C10.2641 8.17261 11.8875 8.17261 11.9999 8.17261C12.9649 8.17261 13.3935 8.57498 13.5837 8.93233" stroke="#233043" stroke-width="1.5" stroke-linecap="round" stroke-linejoin="round"/>
<path d="M5 19.5H19C19.2761 19.5 19.5 19.2761 19.5 19V5C19.5 4.72386 19.2761 4.5 19 4.5H5C4.72386 4.5 4.5 4.72386 4.5 5V19C4.5 19.2761 4.72386 19.5 5 19.5Z" stroke="#233043" stroke-width="1.5" stroke-linecap="round" stroke-linejoin="round"/>
</svg>
