<svg width="24" height="24" viewBox="0 0 24 24" fill="none" xmlns="http://www.w3.org/2000/svg">
<path fill-rule="evenodd" clip-rule="evenodd" d="M5.25 18.75V5.25H18.75V18.75H5.25ZM5 3.75C4.30964 3.75 3.75 4.30965 3.75 5V19C3.75 19.6904 4.30965 20.25 5 20.25H19C19.6904 20.25 20.25 19.6904 20.25 19V5C20.25 4.30964 19.6904 3.75 19 3.75H5ZM11.0141 9.90835C11.0141 9.59557 11.0857 9.41307 11.1539 9.30492C11.2235 9.19463 11.3189 9.11537 11.4342 9.05582C11.6876 8.92488 11.9699 8.92255 11.9999 8.92255C12.377 8.92255 12.5906 9.00048 12.7073 9.06788C12.8217 9.13395 12.8836 9.21307 12.9217 9.28478C13.1164 9.65039 13.5706 9.78895 13.9362 9.59427C14.3019 9.39959 14.4404 8.94538 14.2457 8.57977C14.0936 8.29412 13.8461 7.99339 13.4574 7.76892C13.0711 7.54581 12.5878 7.42255 11.9999 7.42255L11.9981 7.42255C11.909 7.42253 11.3277 7.42241 10.7456 7.72322C10.4409 7.88065 10.1235 8.12686 9.88516 8.50475C9.64547 8.8848 9.51413 9.35322 9.51413 9.90835C9.51413 10.4735 9.65759 10.9473 9.91132 11.3279C10.1619 11.7038 10.4907 11.945 10.7966 12.098C10.8215 12.1104 10.8462 12.1223 10.8709 12.1336C11.1473 12.261 11.4109 12.3244 11.6055 12.3568C11.7132 12.3747 11.8045 12.384 11.872 12.3888C11.9058 12.3912 11.9339 12.3926 11.9555 12.3933L11.9829 12.394L11.9928 12.3941L11.9945 12.3941L11.9985 12.3942C12.0049 12.3944 12.0179 12.395 12.0364 12.3963C12.0737 12.399 12.1318 12.4046 12.2035 12.4166C12.3505 12.4411 12.535 12.4887 12.7104 12.5764C12.8829 12.6626 13.0325 12.7802 13.1407 12.9426C13.2458 13.1002 13.3416 13.3441 13.3416 13.7358C13.3416 14.1375 13.2492 14.3867 13.1495 14.5449C13.0483 14.7052 12.9106 14.8179 12.7523 14.8996C12.4128 15.0751 12.0415 15.0774 12 15.0774C11.1726 15.0774 10.8992 14.785 10.7938 14.627C10.7265 14.5261 10.6911 14.4218 10.6731 14.3411C10.6644 14.3017 10.6606 14.2714 10.659 14.255L10.6588 14.2526L10.6582 14.2448C10.6508 13.837 10.3179 13.5087 9.90833 13.5087C9.49411 13.5087 9.15833 13.8445 9.15833 14.2587H9.90833C9.15833 14.2587 9.15833 14.2592 9.15833 14.2597L9.15833 14.2607L9.15834 14.2629L9.15838 14.2677L9.15856 14.2793C9.15875 14.2878 9.15906 14.2979 9.15958 14.3096C9.16061 14.3329 9.16247 14.3623 9.16579 14.3972C9.1724 14.4666 9.18494 14.5588 9.20887 14.6665C9.25629 14.8799 9.35156 15.1678 9.54574 15.4591C9.9633 16.0854 10.7357 16.5774 12 16.5774H12.0018C12.1025 16.5774 12.7727 16.5775 13.4409 16.2322C13.7886 16.0526 14.1483 15.773 14.4182 15.3451C14.6895 14.915 14.8416 14.3798 14.8416 13.7358C14.8416 13.0816 14.6759 12.5411 14.3888 12.1105C14.1049 11.6846 13.7316 11.41 13.3812 11.2348C13.0337 11.061 12.6953 10.9779 12.4501 10.937C12.3257 10.9163 12.2204 10.9056 12.1433 10.9001C12.1046 10.8973 12.0726 10.8959 12.0484 10.895L12.0181 10.8943L12.0074 10.8942L12.0054 10.8941C12.0016 10.894 11.9924 10.8936 11.9788 10.8926C11.9513 10.8907 11.9071 10.8864 11.852 10.8772C11.7384 10.8583 11.5984 10.8218 11.4674 10.7563C11.3394 10.6923 11.2343 10.6081 11.1594 10.4958C11.1225 10.4405 11.0852 10.3669 11.0576 10.2673C11.0315 10.173 11.0141 10.0555 11.0141 9.90835ZM10.6582 14.2448L10.6581 14.243L10.6582 14.247L10.6582 14.2448ZM10.6583 14.2568L10.6582 14.2479L10.6583 14.2519L10.6583 14.255L10.6583 14.2568ZM12 11.583C12 10.8941 12.0003 10.8941 12.0007 10.8941H12.0007C12.0003 10.8941 12 10.8976 12 11.6441V11.583ZM11.9992 12.3941C11.9994 12.3941 11.9996 12.3933 11.9998 12.2817C11.9996 12.3941 11.9994 12.3941 11.9993 12.3941H11.9992Z" fill="#233043"/>
</svg>
