<svg width="24" height="24" viewBox="0 0 24 24" fill="none" xmlns="http://www.w3.org/2000/svg">
<path d="M11.0625 3.0625V2.3125C10.7625 2.3125 10.4913 2.4913 10.3731 2.76706L11.0625 3.0625ZM10.145 5.20335L10.3566 5.92287C10.5711 5.85978 10.7463 5.70428 10.8344 5.49878L10.145 5.20335ZM12.9375 3.0625L13.6269 2.76706C13.5087 2.4913 13.2375 2.3125 12.9375 2.3125V3.0625ZM13.855 5.20335L13.1656 5.49878C13.2537 5.70428 13.4289 5.85978 13.6434 5.92287L13.855 5.20335ZM15.1402 5.73616L14.7808 6.39444C14.9771 6.50163 15.2111 6.51559 15.4187 6.43252L15.1402 5.73616ZM17.3034 4.87089L17.8337 4.34056C17.6216 4.12841 17.3034 4.06311 17.0248 4.17453L17.3034 4.87089ZM18.6292 6.19671L19.3256 6.47526C19.437 6.19669 19.3717 5.87853 19.1595 5.66638L18.6292 6.19671ZM17.7639 8.35993L17.0676 8.08138C16.9845 8.28906 16.9984 8.52298 17.1056 8.71931L17.7639 8.35993ZM18.2967 9.64499L17.5771 9.85663C17.6402 10.0711 17.7957 10.2463 18.0012 10.3344L18.2967 9.64499ZM20.4375 10.5625H21.1875C21.1875 10.2625 21.0087 9.99133 20.7329 9.87314L20.4375 10.5625ZM20.4375 12.4375L20.7329 13.1269C21.0087 13.0087 21.1875 12.7375 21.1875 12.4375H20.4375ZM18.2967 13.355L18.0012 12.6656C17.7957 12.7537 17.6402 12.9289 17.5771 13.1434L18.2967 13.355ZM17.7639 14.6401L17.1056 14.2807C16.9984 14.477 16.9845 14.7109 17.0675 14.9186L17.7639 14.6401ZM18.6292 16.8033L19.1595 17.3336C19.3717 17.1215 19.437 16.8033 19.3256 16.5248L18.6292 16.8033ZM17.3034 18.1291L17.0248 18.8255C17.3034 18.9369 17.6216 18.8716 17.8337 18.6595L17.3034 18.1291ZM15.1402 17.2639L15.4187 16.5675C15.211 16.4844 14.9771 16.4984 14.7808 16.6056L15.1402 17.2639ZM13.855 17.7967L13.6434 17.0771C13.4289 17.1402 13.2537 17.2957 13.1656 17.5012L13.855 17.7967ZM12.9375 19.9375V20.6875C13.2375 20.6875 13.5087 20.5087 13.6269 20.2329L12.9375 19.9375ZM11.0625 19.9375L10.3731 20.2329C10.4913 20.5087 10.7625 20.6875 11.0625 20.6875V19.9375ZM10.145 17.7967L10.8344 17.5012C10.7463 17.2957 10.5711 17.1402 10.3566 17.0771L10.145 17.7967ZM8.85987 17.2639L9.21926 16.6056C9.02294 16.4984 8.78901 16.4844 8.58133 16.5675L8.85987 17.2639ZM6.69676 18.1291L6.16643 18.6595C6.37858 18.8716 6.69674 18.9369 6.9753 18.8255L6.69676 18.1291ZM5.37093 16.8033L4.67458 16.5248C4.56315 16.8033 4.62846 17.1215 4.8406 17.3336L5.37093 16.8033ZM6.23617 14.6402L6.93253 14.9188C7.0156 14.7111 7.00164 14.4771 6.89445 14.2808L6.23617 14.6402ZM5.70335 13.355L6.42287 13.1434C6.35978 12.9289 6.20428 12.7537 5.99878 12.6656L5.70335 13.355ZM3.5625 12.4375H2.8125C2.8125 12.7375 2.9913 13.0087 3.26706 13.1269L3.5625 12.4375ZM3.5625 10.5625L3.26706 9.87314C2.9913 9.99133 2.8125 10.2625 2.8125 10.5625H3.5625ZM5.70335 9.64499L5.99878 10.3344C6.20428 10.2463 6.35978 10.0711 6.42287 9.85663L5.70335 9.64499ZM6.23617 8.35979L6.89445 8.71919C7.00164 8.52286 7.0156 8.28893 6.93253 8.08124L6.23617 8.35979ZM5.37093 6.1967L4.8406 5.66637C4.62846 5.87852 4.56315 6.19668 4.67458 6.47524L5.37093 6.1967ZM6.69676 4.87087L6.9753 4.17452C6.69674 4.06309 6.37858 4.1284 6.16643 4.34054L6.69676 4.87087ZM8.85987 5.73612L8.58133 6.43248C8.78901 6.51555 9.02294 6.50159 9.21926 6.3944L8.85987 5.73612ZM10.3731 2.76706L9.45564 4.90791L10.8344 5.49878L11.7519 3.35794L10.3731 2.76706ZM12.9375 2.3125H11.0625V3.8125H12.9375V2.3125ZM14.5444 4.90791L13.6269 2.76706L12.2481 3.35794L13.1656 5.49878L14.5444 4.90791ZM15.4996 5.07788C15.0488 4.83174 14.569 4.63158 14.0666 4.48382L13.6434 5.92287C14.0419 6.04007 14.4227 6.19891 14.7808 6.39444L15.4996 5.07788ZM17.0248 4.17453L14.8617 5.0398L15.4187 6.43252L17.5819 5.56725L17.0248 4.17453ZM19.1595 5.66638L17.8337 4.34056L16.773 5.40122L18.0989 6.72704L19.1595 5.66638ZM18.4603 8.63847L19.3256 6.47526L17.9328 5.91817L17.0676 8.08138L18.4603 8.63847ZM19.0162 9.43336C18.8684 8.93106 18.6683 8.45133 18.4222 8.00054L17.1056 8.71931C17.3011 9.07742 17.4599 9.45818 17.5771 9.85663L19.0162 9.43336ZM20.7329 9.87314L18.5921 8.95564L18.0012 10.3344L20.1421 11.2519L20.7329 9.87314ZM21.1875 12.4375V10.5625H19.6875V12.4375H21.1875ZM18.5921 14.0444L20.7329 13.1269L20.1421 11.7481L18.0012 12.6656L18.5921 14.0444ZM18.4222 14.9995C18.6683 14.5487 18.8684 14.0689 19.0162 13.5666L17.5771 13.1434C17.4599 13.5418 17.3011 13.9226 17.1056 14.2807L18.4222 14.9995ZM19.3256 16.5248L18.4603 14.3615L17.0675 14.9186L17.9328 17.0819L19.3256 16.5248ZM17.8337 18.6595L19.1595 17.3336L18.0989 16.273L16.773 17.5988L17.8337 18.6595ZM14.8616 17.9602L17.0248 18.8255L17.5819 17.4328L15.4187 16.5675L14.8616 17.9602ZM14.0666 18.5162C14.569 18.3684 15.0487 18.1683 15.4996 17.9221L14.7808 16.6056C14.4226 16.8011 14.0419 16.9599 13.6434 17.0771L14.0666 18.5162ZM13.6269 20.2329L14.5444 18.0921L13.1656 17.5012L12.2481 19.6421L13.6269 20.2329ZM11.0625 20.6875H12.9375V19.1875H11.0625V20.6875ZM9.45564 18.0921L10.3731 20.2329L11.7519 19.6421L10.8344 17.5012L9.45564 18.0921ZM8.50048 17.9222C8.95129 18.1683 9.43104 18.3684 9.93336 18.5162L10.3566 17.0771C9.95817 16.9599 9.57738 16.8011 9.21926 16.6056L8.50048 17.9222ZM6.9753 18.8255L9.13842 17.9602L8.58133 16.5675L6.41822 17.4328L6.9753 18.8255ZM4.8406 17.3336L6.16643 18.6595L7.22709 17.5988L5.90126 16.273L4.8406 17.3336ZM5.53981 14.3617L4.67458 16.5248L6.06729 17.0818L6.93253 14.9188L5.53981 14.3617ZM4.98382 13.5666C5.13158 14.069 5.33175 14.5488 5.57789 14.9996L6.89445 14.2808C6.69891 13.9227 6.54008 13.5419 6.42287 13.1434L4.98382 13.5666ZM3.26706 13.1269L5.40791 14.0444L5.99878 12.6656L3.85794 11.7481L3.26706 13.1269ZM2.8125 10.5625V12.4375H4.3125V10.5625H2.8125ZM5.40791 8.95564L3.26706 9.87314L3.85794 11.2519L5.99878 10.3344L5.40791 8.95564ZM5.57789 8.00038C5.33175 8.45122 5.13158 8.931 4.98382 9.43336L6.42287 9.85663C6.54008 9.45814 6.69891 9.07733 6.89445 8.71919L5.57789 8.00038ZM4.67458 6.47524L5.53981 8.63833L6.93253 8.08124L6.06729 5.91816L4.67458 6.47524ZM6.16643 4.34054L4.8406 5.66637L5.90126 6.72703L7.22709 5.40121L6.16643 4.34054ZM9.13842 5.03976L6.9753 4.17452L6.41822 5.56723L8.58133 6.43248L9.13842 5.03976ZM9.93336 4.48382C9.43104 4.63157 8.95129 4.83172 8.50048 5.07784L9.21926 6.3944C9.57738 6.19889 9.95817 6.04007 10.3566 5.92287L9.93336 4.48382ZM14.4375 11.5C14.4375 12.8462 13.3462 13.9375 12 13.9375V15.4375C14.1746 15.4375 15.9375 13.6746 15.9375 11.5H14.4375ZM12 9.0625C13.3462 9.0625 14.4375 10.1538 14.4375 11.5H15.9375C15.9375 9.32538 14.1746 7.5625 12 7.5625V9.0625ZM9.5625 11.5C9.5625 10.1538 10.6538 9.0625 12 9.0625V7.5625C9.82538 7.5625 8.0625 9.32538 8.0625 11.5H9.5625ZM12 13.9375C10.6538 13.9375 9.5625 12.8462 9.5625 11.5H8.0625C8.0625 13.6746 9.82538 15.4375 12 15.4375V13.9375Z" fill="#233043"/>
</svg>
