<svg width="24" height="24" viewBox="0 0 24 24" fill="none" xmlns="http://www.w3.org/2000/svg">
<path fill-rule="evenodd" clip-rule="evenodd" d="M9.79055 5.08067C9.88431 5.0509 9.96152 4.9829 10.0003 4.89248L10.8727 2.85674C10.9247 2.73541 11.044 2.65674 11.176 2.65674H12.824C12.956 2.65674 13.0753 2.73541 13.1273 2.85674L13.9998 4.89247C14.0385 4.98289 14.1157 5.05089 14.2095 5.08066C14.606 5.20659 14.9878 5.36551 15.3516 5.5542C15.439 5.5995 15.5417 5.60604 15.6331 5.56949L17.69 4.74674C17.8126 4.69771 17.9526 4.72645 18.0459 4.81979L19.2112 5.98507C19.3045 6.07841 19.3333 6.2184 19.2842 6.34097L18.4615 8.39786C18.4249 8.48924 18.4315 8.59196 18.4768 8.67933C18.6654 9.04319 18.8243 9.42497 18.9503 9.82145C18.9801 9.91521 19.048 9.99242 19.1385 10.0312L21.1742 10.9036C21.2955 10.9556 21.3742 11.0749 21.3742 11.2069V12.8549C21.3742 12.9869 21.2955 13.1062 21.1742 13.1582L19.1385 14.0307C19.048 14.0694 18.98 14.1466 18.9503 14.2404C18.8243 14.6368 18.6654 15.0186 18.4768 15.3825C18.4315 15.4698 18.4249 15.5726 18.4615 15.6639L19.2842 17.7208C19.3333 17.8434 19.3045 17.9834 19.2112 18.0767L18.0459 19.242C17.9526 19.3354 17.8126 19.3641 17.69 19.3151L15.6331 18.4923C15.5417 18.4558 15.439 18.4623 15.3517 18.5076C14.9878 18.6963 14.606 18.8552 14.2095 18.9811C14.1157 19.0109 14.0385 19.0789 13.9998 19.1693L13.1273 21.2051C13.0753 21.3264 12.956 21.4051 12.824 21.4051H11.176C11.044 21.4051 10.9247 21.3264 10.8727 21.2051L10.0003 19.1693C9.96152 19.0789 9.88431 19.0109 9.79055 18.9811C9.39405 18.8552 9.01224 18.6963 8.64835 18.5076C8.56098 18.4623 8.45826 18.4557 8.36687 18.4923L6.31009 19.315C6.18752 19.364 6.04753 19.3353 5.95418 19.2419L4.78891 18.0767C4.69556 17.9833 4.66683 17.8433 4.71586 17.7208L5.53859 15.6639C5.57514 15.5726 5.5686 15.4698 5.5233 15.3825C5.33463 15.0186 5.17573 14.6368 5.04981 14.2404C5.02003 14.1466 4.95203 14.0694 4.86161 14.0307L2.82586 13.1582C2.70453 13.1062 2.62585 12.9869 2.62585 12.8549V11.2069C2.62585 11.0749 2.70453 10.9556 2.82586 10.9036L4.86161 10.0312C4.95203 9.99241 5.02002 9.9152 5.0498 9.82144C5.17572 9.42497 5.33463 9.0432 5.5233 8.67935C5.56861 8.59197 5.57514 8.48925 5.53859 8.39787L4.71586 6.34103C4.66683 6.21847 4.69556 6.07847 4.78891 5.98513L5.95418 4.81986C6.04753 4.72651 6.18752 4.69778 6.31009 4.7468L8.36688 5.56952C8.45826 5.60607 8.56099 5.59954 8.64836 5.55423C9.01225 5.36554 9.39405 5.20661 9.79055 5.08067ZM12 15.5723C13.9559 15.5723 15.5414 13.9867 15.5414 12.0309C15.5414 10.0751 13.9559 8.48956 12 8.48956C10.0442 8.48956 8.45867 10.0751 8.45867 12.0309C8.45867 13.9867 10.0442 15.5723 12 15.5723Z" fill="#233043"/>
</svg>
