<svg width="24" height="25" viewBox="0 0 24 25" fill="none" xmlns="http://www.w3.org/2000/svg">
<path d="M11.0625 4.0625V3.3125C10.7625 3.3125 10.4913 3.4913 10.3731 3.76706L11.0625 4.0625ZM10.145 6.20335L10.3566 6.92287C10.5711 6.85978 10.7463 6.70428 10.8344 6.49878L10.145 6.20335ZM12.9375 4.0625L13.6269 3.76706C13.5087 3.4913 13.2375 3.3125 12.9375 3.3125V4.0625ZM13.855 6.20335L13.1656 6.49878C13.2537 6.70428 13.4289 6.85978 13.6434 6.92287L13.855 6.20335ZM15.1402 6.73616L14.7808 7.39444C14.9771 7.50163 15.2111 7.51559 15.4187 7.43252L15.1402 6.73616ZM17.3034 5.87089L17.8337 5.34056C17.6216 5.12841 17.3034 5.06311 17.0248 5.17453L17.3034 5.87089ZM18.6292 7.19671L19.3256 7.47526C19.437 7.19669 19.3717 6.87853 19.1595 6.66638L18.6292 7.19671ZM17.7639 9.35993L17.0676 9.08138C16.9845 9.28906 16.9984 9.52298 17.1056 9.71931L17.7639 9.35993ZM18.2967 10.645L17.5771 10.8566C17.6402 11.0711 17.7957 11.2463 18.0012 11.3344L18.2967 10.645ZM20.4375 11.5625H21.1875C21.1875 11.2625 21.0087 10.9913 20.7329 10.8731L20.4375 11.5625ZM20.4375 13.4375L20.7329 14.1269C21.0087 14.0087 21.1875 13.7375 21.1875 13.4375H20.4375ZM18.2967 14.355L18.0012 13.6656C17.7957 13.7537 17.6402 13.9289 17.5771 14.1434L18.2967 14.355ZM17.7639 15.6401L17.1056 15.2807C16.9984 15.477 16.9845 15.7109 17.0675 15.9186L17.7639 15.6401ZM18.6292 17.8033L19.1595 18.3336C19.3717 18.1215 19.437 17.8033 19.3256 17.5248L18.6292 17.8033ZM17.3034 19.1291L17.0248 19.8255C17.3034 19.9369 17.6216 19.8716 17.8337 19.6595L17.3034 19.1291ZM15.1402 18.2639L15.4187 17.5675C15.211 17.4844 14.9771 17.4984 14.7808 17.6056L15.1402 18.2639ZM13.855 18.7967L13.6434 18.0771C13.4289 18.1402 13.2537 18.2957 13.1656 18.5012L13.855 18.7967ZM12.9375 20.9375V21.6875C13.2375 21.6875 13.5087 21.5087 13.6269 21.2329L12.9375 20.9375ZM11.0625 20.9375L10.3731 21.2329C10.4913 21.5087 10.7625 21.6875 11.0625 21.6875V20.9375ZM10.145 18.7967L10.8344 18.5012C10.7463 18.2957 10.5711 18.1402 10.3566 18.0771L10.145 18.7967ZM8.85987 18.2639L9.21926 17.6056C9.02294 17.4984 8.78901 17.4844 8.58133 17.5675L8.85987 18.2639ZM6.69676 19.1291L6.16643 19.6595C6.37858 19.8716 6.69674 19.9369 6.9753 19.8255L6.69676 19.1291ZM5.37093 17.8033L4.67458 17.5248C4.56315 17.8033 4.62846 18.1215 4.8406 18.3336L5.37093 17.8033ZM6.23617 15.6402L6.93253 15.9188C7.0156 15.7111 7.00164 15.4771 6.89445 15.2808L6.23617 15.6402ZM5.70335 14.355L6.42287 14.1434C6.35978 13.9289 6.20428 13.7537 5.99878 13.6656L5.70335 14.355ZM3.5625 13.4375H2.8125C2.8125 13.7375 2.9913 14.0087 3.26706 14.1269L3.5625 13.4375ZM3.5625 11.5625L3.26706 10.8731C2.9913 10.9913 2.8125 11.2625 2.8125 11.5625H3.5625ZM5.70335 10.645L5.99878 11.3344C6.20428 11.2463 6.35978 11.0711 6.42287 10.8566L5.70335 10.645ZM6.23617 9.35979L6.89445 9.71919C7.00164 9.52286 7.0156 9.28893 6.93253 9.08124L6.23617 9.35979ZM5.37093 7.1967L4.8406 6.66637C4.62846 6.87852 4.56315 7.19668 4.67458 7.47524L5.37093 7.1967ZM6.69676 5.87087L6.9753 5.17452C6.69674 5.06309 6.37858 5.1284 6.16643 5.34054L6.69676 5.87087ZM8.85987 6.73612L8.58133 7.43248C8.78901 7.51555 9.02294 7.50159 9.21926 7.3944L8.85987 6.73612ZM10.3731 3.76706L9.45564 5.90791L10.8344 6.49878L11.7519 4.35794L10.3731 3.76706ZM12.9375 3.3125H11.0625V4.8125H12.9375V3.3125ZM14.5444 5.90791L13.6269 3.76706L12.2481 4.35794L13.1656 6.49878L14.5444 5.90791ZM15.4996 6.07788C15.0488 5.83174 14.569 5.63158 14.0666 5.48382L13.6434 6.92287C14.0419 7.04007 14.4227 7.19891 14.7808 7.39444L15.4996 6.07788ZM17.0248 5.17453L14.8617 6.0398L15.4187 7.43252L17.5819 6.56725L17.0248 5.17453ZM19.1595 6.66638L17.8337 5.34056L16.773 6.40122L18.0989 7.72704L19.1595 6.66638ZM18.4603 9.63847L19.3256 7.47526L17.9328 6.91817L17.0676 9.08138L18.4603 9.63847ZM19.0162 10.4334C18.8684 9.93106 18.6683 9.45133 18.4222 9.00054L17.1056 9.71931C17.3011 10.0774 17.4599 10.4582 17.5771 10.8566L19.0162 10.4334ZM20.7329 10.8731L18.5921 9.95564L18.0012 11.3344L20.1421 12.2519L20.7329 10.8731ZM21.1875 13.4375V11.5625H19.6875V13.4375H21.1875ZM18.5921 15.0444L20.7329 14.1269L20.1421 12.7481L18.0012 13.6656L18.5921 15.0444ZM18.4222 15.9995C18.6683 15.5487 18.8684 15.0689 19.0162 14.5666L17.5771 14.1434C17.4599 14.5418 17.3011 14.9226 17.1056 15.2807L18.4222 15.9995ZM19.3256 17.5248L18.4603 15.3615L17.0675 15.9186L17.9328 18.0819L19.3256 17.5248ZM17.8337 19.6595L19.1595 18.3336L18.0989 17.273L16.773 18.5988L17.8337 19.6595ZM14.8616 18.9602L17.0248 19.8255L17.5819 18.4328L15.4187 17.5675L14.8616 18.9602ZM14.0666 19.5162C14.569 19.3684 15.0487 19.1683 15.4996 18.9221L14.7808 17.6056C14.4226 17.8011 14.0419 17.9599 13.6434 18.0771L14.0666 19.5162ZM13.6269 21.2329L14.5444 19.0921L13.1656 18.5012L12.2481 20.6421L13.6269 21.2329ZM11.0625 21.6875H12.9375V20.1875H11.0625V21.6875ZM9.45564 19.0921L10.3731 21.2329L11.7519 20.6421L10.8344 18.5012L9.45564 19.0921ZM8.50048 18.9222C8.95129 19.1683 9.43104 19.3684 9.93336 19.5162L10.3566 18.0771C9.95817 17.9599 9.57738 17.8011 9.21926 17.6056L8.50048 18.9222ZM6.9753 19.8255L9.13842 18.9602L8.58133 17.5675L6.41822 18.4328L6.9753 19.8255ZM4.8406 18.3336L6.16643 19.6595L7.22709 18.5988L5.90126 17.273L4.8406 18.3336ZM5.53981 15.3617L4.67458 17.5248L6.06729 18.0818L6.93253 15.9188L5.53981 15.3617ZM4.98382 14.5666C5.13158 15.069 5.33175 15.5488 5.57789 15.9996L6.89445 15.2808C6.69891 14.9227 6.54008 14.5419 6.42287 14.1434L4.98382 14.5666ZM3.26706 14.1269L5.40791 15.0444L5.99878 13.6656L3.85794 12.7481L3.26706 14.1269ZM2.8125 11.5625V13.4375H4.3125V11.5625H2.8125ZM5.40791 9.95564L3.26706 10.8731L3.85794 12.2519L5.99878 11.3344L5.40791 9.95564ZM5.57789 9.00038C5.33175 9.45122 5.13158 9.931 4.98382 10.4334L6.42287 10.8566C6.54008 10.4581 6.69891 10.0773 6.89445 9.71919L5.57789 9.00038ZM4.67458 7.47524L5.53981 9.63833L6.93253 9.08124L6.06729 6.91816L4.67458 7.47524ZM6.16643 5.34054L4.8406 6.66637L5.90126 7.72703L7.22709 6.40121L6.16643 5.34054ZM9.13842 6.03976L6.9753 5.17452L6.41822 6.56723L8.58133 7.43248L9.13842 6.03976ZM9.93336 5.48382C9.43104 5.63157 8.95129 5.83172 8.50048 6.07784L9.21926 7.3944C9.57738 7.19889 9.95817 7.04007 10.3566 6.92287L9.93336 5.48382ZM14.4375 12.5C14.4375 13.8462 13.3462 14.9375 12 14.9375V16.4375C14.1746 16.4375 15.9375 14.6746 15.9375 12.5H14.4375ZM12 10.0625C13.3462 10.0625 14.4375 11.1538 14.4375 12.5H15.9375C15.9375 10.3254 14.1746 8.5625 12 8.5625V10.0625ZM9.5625 12.5C9.5625 11.1538 10.6538 10.0625 12 10.0625V8.5625C9.82538 8.5625 8.0625 10.3254 8.0625 12.5H9.5625ZM12 14.9375C10.6538 14.9375 9.5625 13.8462 9.5625 12.5H8.0625C8.0625 14.6746 9.82538 16.4375 12 16.4375V14.9375Z" fill="#233043"/>
</svg>
