<svg width="24" height="24" viewBox="0 0 24 24" fill="none" xmlns="http://www.w3.org/2000/svg">
<path fill-rule="evenodd" clip-rule="evenodd" d="M9.79055 5.0808C9.88431 5.05102 9.96152 4.98302 10.0003 4.8926L10.8727 2.85687C10.9247 2.73553 11.044 2.65686 11.176 2.65686H12.824C12.956 2.65686 13.0753 2.73553 13.1273 2.85687L13.9998 4.89259C14.0385 4.98301 14.1157 5.05101 14.2095 5.08079C14.606 5.20672 14.9878 5.36564 15.3516 5.55432C15.439 5.59963 15.5417 5.60616 15.6331 5.56961L17.69 4.74686C17.8126 4.69783 17.9526 4.72657 18.0459 4.81991L19.2112 5.98519C19.3045 6.07853 19.3333 6.21852 19.2842 6.34109L18.4615 8.39798C18.4249 8.48936 18.4315 8.59208 18.4768 8.67945C18.6654 9.04332 18.8243 9.4251 18.9503 9.82157C18.9801 9.91533 19.048 9.99254 19.1385 10.0313L21.1742 10.9037C21.2955 10.9557 21.3742 11.0751 21.3742 11.2071V12.855C21.3742 12.987 21.2955 13.1063 21.1742 13.1583L19.1385 14.0308C19.048 14.0695 18.98 14.1467 18.9503 14.2405C18.8243 14.637 18.6654 15.0187 18.4768 15.3826C18.4315 15.47 18.4249 15.5727 18.4615 15.6641L19.2842 17.721C19.3333 17.8435 19.3045 17.9835 19.2112 18.0769L18.0459 19.2421C17.9526 19.3355 17.8126 19.3642 17.69 19.3152L15.6331 18.4924C15.5417 18.4559 15.439 18.4624 15.3517 18.5077C14.9878 18.6964 14.606 18.8553 14.2095 18.9813C14.1157 19.011 14.0385 19.079 13.9998 19.1695L13.1273 21.2052C13.0753 21.3265 12.956 21.4052 12.824 21.4052H11.176C11.044 21.4052 10.9247 21.3265 10.8727 21.2052L10.0003 19.1694C9.96152 19.079 9.88431 19.011 9.79055 18.9813C9.39405 18.8553 9.01224 18.6964 8.64835 18.5077C8.56098 18.4624 8.45826 18.4559 8.36687 18.4924L6.31009 19.3151C6.18752 19.3641 6.04753 19.3354 5.95418 19.2421L4.78891 18.0768C4.69556 17.9834 4.66683 17.8435 4.71586 17.7209L5.53859 15.6641C5.57514 15.5727 5.5686 15.47 5.5233 15.3826C5.33463 15.0187 5.17573 14.637 5.04981 14.2405C5.02003 14.1468 4.95203 14.0695 4.86161 14.0308L2.82586 13.1583C2.70453 13.1063 2.62585 12.987 2.62585 12.855V11.2071C2.62585 11.0751 2.70453 10.9557 2.82586 10.9037L4.86161 10.0313C4.95203 9.99253 5.02002 9.91532 5.0498 9.82156C5.17572 9.4251 5.33463 9.04332 5.5233 8.67947C5.56861 8.5921 5.57514 8.48937 5.53859 8.39799L4.71586 6.34116C4.66683 6.21859 4.69556 6.0786 4.78891 5.98525L5.95418 4.81998C6.04753 4.72663 6.18752 4.6979 6.31009 4.74693L8.36688 5.56964C8.45826 5.6062 8.56099 5.59966 8.64836 5.55435C9.01225 5.36566 9.39405 5.20673 9.79055 5.0808ZM12 15.5724C13.9559 15.5724 15.5414 13.9869 15.5414 12.031C15.5414 10.0752 13.9559 8.48968 12 8.48968C10.0442 8.48968 8.45867 10.0752 8.45867 12.031C8.45867 13.9869 10.0442 15.5724 12 15.5724Z" fill="#233043"/>
</svg>
