<svg width="24" height="24" viewBox="0 0 24 24" fill="none" xmlns="http://www.w3.org/2000/svg">
<path fill-rule="evenodd" clip-rule="evenodd" d="M9.38617 5.78632C8.05228 5.78632 6.97095 6.86765 6.97095 8.20154C6.97095 9.53543 8.05228 10.6168 9.38617 10.6168C10.7201 10.6168 11.8014 9.53543 11.8014 8.20154C11.8014 6.86765 10.7201 5.78632 9.38617 5.78632ZM5.47095 8.20154C5.47095 6.03922 7.22385 4.28632 9.38617 4.28632C11.5485 4.28632 13.3014 6.03922 13.3014 8.20154C13.3014 10.3639 11.5485 12.1168 9.38617 12.1168C7.22385 12.1168 5.47095 10.3639 5.47095 8.20154ZM13.2849 11.9598C13.6342 12.0619 14.0038 12.1168 14.3861 12.1168C16.5485 12.1168 18.3014 10.3639 18.3014 8.20154C18.3014 6.03922 16.5485 4.28632 14.3861 4.28632C14.0038 4.28632 13.6342 4.34112 13.2849 4.44331C14.2239 5.41717 14.8014 6.74191 14.8014 8.20154C14.8014 9.66116 14.2239 10.9859 13.2849 11.9598ZM16.4007 19.7134H18.9505C19.6409 19.7134 20.2005 19.1538 20.2005 18.4634V17.899C20.2005 15.2757 18.0739 13.149 15.4505 13.149H14.5127C15.8518 14.2954 16.7005 15.9981 16.7005 17.899V18.4634C16.7005 18.9135 16.5924 19.3384 16.4007 19.7134ZM8.32184 13.149C5.69849 13.149 3.57184 15.2757 3.57184 17.899V18.4634C3.57184 19.1538 4.13148 19.7134 4.82184 19.7134H13.9505C14.6409 19.7134 15.2005 19.1538 15.2005 18.4634V17.899C15.2005 15.2757 13.0739 13.149 10.4505 13.149H8.32184ZM5.07184 17.899C5.07184 16.1041 6.52691 14.649 8.32184 14.649H10.4505C12.2455 14.649 13.7005 16.1041 13.7005 17.899V18.2134H5.07184V17.899Z" fill="#233043"/>
</svg>
