<svg width="24" height="24" viewBox="0 0 24 24" fill="none" xmlns="http://www.w3.org/2000/svg">
<path fill-rule="evenodd" clip-rule="evenodd" d="M16 9C17.1046 9 18 8.10457 18 7C18 5.89543 17.1046 5 16 5C14.8954 5 14 5.89543 14 7C14 7.08291 14.005 7.16464 14.0148 7.2449L8.25656 10.4439C7.91316 10.1663 7.476 10 7 10C5.89543 10 5 10.8954 5 12C5 13.1046 5.89543 14 7 14C7.47599 14 7.91315 13.8337 8.25654 13.5561L14.0148 16.7551C14.005 16.8354 14 16.9171 14 17C14 18.1046 14.8954 19 16 19C17.1046 19 18 18.1046 18 17C18 15.8954 17.1046 15 16 15C15.524 15 15.0868 15.1663 14.7434 15.444L8.98515 12.2449C8.99495 12.1647 9 12.0829 9 12C9 11.9171 8.99496 11.8354 8.98516 11.7551L14.7434 8.55606C15.0868 8.83371 15.524 9 16 9Z" fill="#233043"/>
</svg>
