<svg width="24" height="24" viewBox="0 0 24 24" fill="none" xmlns="http://www.w3.org/2000/svg">
<path fill-rule="evenodd" clip-rule="evenodd" d="M11.6875 3.0682C11.8859 2.97727 12.114 2.97727 12.3124 3.0682L19.3839 6.30927C19.6505 6.43146 19.8214 6.69781 19.8214 6.99107V11.25C19.8214 15.7523 16.5726 19.9543 12.1702 20.9804C12.0582 21.0065 11.9417 21.0065 11.8297 20.9804C7.42734 19.9543 4.17853 15.7523 4.17853 11.25V6.99107C4.17853 6.69781 4.34945 6.43146 4.61604 6.30927L11.6875 3.0682ZM5.67853 7.47234V10.5H11.25V4.91877L5.67853 7.47234ZM12.75 4.91877V10.5H18.3214V7.47235L12.75 4.91877ZM18.2858 12H12.75V19.2433C15.755 18.1333 17.9815 15.212 18.2858 12ZM11.25 19.2433C8.24487 18.1333 6.01837 15.212 5.7141 12H11.25V19.2433Z" fill="#233043"/>
</svg>
