<svg width="24" height="24" viewBox="0 0 24 24" fill="none" xmlns="http://www.w3.org/2000/svg">
<path fill-rule="evenodd" clip-rule="evenodd" d="M2.55789 11.3941C2.37124 11.5305 2.25 11.7511 2.25 12C2.25 12.2489 2.37125 12.4695 2.5579 12.6059C2.58477 12.6411 2.61429 12.6749 2.64647 12.7071L11.4697 21.5303C11.7626 21.8232 12.2375 21.8232 12.5304 21.5303C12.8232 21.2374 12.8232 20.7626 12.5304 20.4697L4.81068 12.75L21 12.75C21.4142 12.75 21.75 12.4142 21.75 12C21.75 11.5858 21.4142 11.25 21 11.25L4.81068 11.25L12.5304 3.53033C12.8232 3.23744 12.8232 2.76256 12.5304 2.46967C12.2375 2.17678 11.7626 2.17678 11.4697 2.46967L2.64647 11.2929C2.61429 11.3251 2.58477 11.3589 2.55789 11.3941Z" fill="#233043"/>
</svg>
