<svg width="24" height="24" viewBox="0 0 24 24" fill="none" xmlns="http://www.w3.org/2000/svg">
<path fill-rule="evenodd" clip-rule="evenodd" d="M21.4421 12.6059C21.6288 12.4695 21.75 12.2489 21.75 12C21.75 11.7511 21.6288 11.5305 21.4421 11.3941C21.4152 11.3589 21.3857 11.3251 21.3535 11.2929L12.5303 2.46967C12.2374 2.17678 11.7625 2.17678 11.4696 2.46967C11.1768 2.76256 11.1768 3.23744 11.4696 3.53033L19.1893 11.25L3 11.25C2.58578 11.25 2.25 11.5858 2.25 12C2.25 12.4142 2.58578 12.75 3 12.75L19.1893 12.75L11.4696 20.4697C11.1768 20.7626 11.1768 21.2374 11.4696 21.5303C11.7625 21.8232 12.2374 21.8232 12.5303 21.5303L21.3535 12.7071C21.3857 12.6749 21.4152 12.6411 21.4421 12.6059Z" fill="#233043"/>
</svg>
