<svg width="24" height="24" viewBox="0 0 24 24" fill="none" xmlns="http://www.w3.org/2000/svg">
<path d="M15.3372 19.1042L15.3373 19.1041C17.2641 18.3195 18.8105 16.348 19.2302 13.9545H20.9088C22.0883 13.9545 23.0445 12.9984 23.0445 11.8189C23.0445 10.6394 22.0883 9.68329 20.9088 9.68329H18.7613C18.7159 9.56952 18.6677 9.45568 18.6165 9.34168L17.9531 9.63944L18.6165 9.34167C17.7238 7.35285 16.821 6.05995 15.5725 5.30446C14.3359 4.55615 12.8799 4.41108 11.0936 4.41004C10.1366 4.36301 8.79761 4.63299 7.58168 5.51906C6.4497 6.34395 5.46351 7.67416 4.97626 9.68329H3.23646C2.05698 9.68329 1.10083 10.6394 1.10083 11.8189C1.10083 12.9984 2.05698 13.9545 3.23646 13.9545H4.78724C5.29405 16.7932 7.19504 18.3673 9.27763 19.085C11.462 19.8379 13.9162 19.6826 15.3372 19.1042Z" fill="white" stroke="#233043" stroke-width="1.5"/>
<path d="M4.84659 10.3009L4.83823 10.3475L4.8358 10.3948L4.78265 11.4279L4.78117 11.4568C4.7233 12.581 4.65462 13.9155 5.11059 15.1602C5.99225 17.567 8.00047 18.7956 9.99799 19.299C11.9717 19.7965 14.0619 19.6234 15.3374 19.1042L15.3375 19.1041C17.0345 18.4131 18.4304 16.8027 19.0275 14.8123C19.3471 13.7469 19.2594 12.6501 19.1451 11.7057L19.0814 11.1786C19.0105 10.5931 18.8911 9.95297 18.6167 9.34168L18.6167 9.34167C17.724 7.35285 16.8211 6.05995 15.5726 5.30446C14.336 4.55615 12.8801 4.41108 11.0937 4.41004C10.1368 4.36301 8.79776 4.63299 7.58183 5.51906C6.33766 6.42571 5.26961 7.94281 4.84659 10.3009Z" stroke="#233043" stroke-width="1.5"/>
<path d="M12 9V15" stroke="#233043" stroke-width="1.5" stroke-linecap="round" stroke-linejoin="round"/>
<path d="M15 10.5V13.5" stroke="#233043" stroke-width="1.5" stroke-linecap="round" stroke-linejoin="round"/>
<path d="M9 10.5V13.5" stroke="#233043" stroke-width="1.5" stroke-linecap="round" stroke-linejoin="round"/>
</svg>
