<svg width="24" height="24" viewBox="0 0 24 24" fill="none" xmlns="http://www.w3.org/2000/svg">
<path fill-rule="evenodd" clip-rule="evenodd" d="M4.75 12C4.75 7.99594 7.99594 4.75 12 4.75C16.0041 4.75 19.25 7.99594 19.25 12C19.25 16.0041 16.0041 19.25 12 19.25C7.99594 19.25 4.75 16.0041 4.75 12ZM12 3.25C7.16751 3.25 3.25 7.16751 3.25 12C3.25 16.8325 7.16751 20.75 12 20.75C16.8325 20.75 20.75 16.8325 20.75 12C20.75 7.16751 16.8325 3.25 12 3.25ZM12 16.25C9.90885 16.25 8.16974 14.7392 7.81585 12.75H16.1841C15.8302 14.7392 14.0911 16.25 12 16.25ZM7.49999 11.25C6.83184 11.25 6.20235 11.8076 6.27827 12.5733C6.56647 15.4801 9.01769 17.75 12 17.75C14.9823 17.75 17.4335 15.4801 17.7217 12.5733C17.7976 11.8076 17.1681 11.25 16.5 11.25H7.49999Z" fill="#233043"/>
</svg>
