<svg width="24" height="24" viewBox="0 0 24 24" fill="none" xmlns="http://www.w3.org/2000/svg">
<path fill-rule="evenodd" clip-rule="evenodd" d="M8.25 3C8.57392 3 8.86124 3.20796 8.96245 3.51566L10.4757 8.11643L14.5382 9.8076C14.8178 9.924 15 10.1971 15 10.5C15 10.8029 14.8178 11.076 14.5382 11.1924L10.4757 12.8836L8.96245 17.4843C8.86124 17.792 8.57392 18 8.25 18C7.92608 18 7.63876 17.792 7.53755 17.4843L6.02427 12.8836L1.96176 11.1924C1.68216 11.076 1.5 10.8029 1.5 10.5C1.5 10.1971 1.68216 9.924 1.96176 9.8076L6.02427 8.11643L7.53755 3.51566C7.63876 3.20796 7.92608 3 8.25 3ZM8.25 6.15038L7.34191 8.91123C7.27379 9.11831 7.11895 9.28551 6.91769 9.36929L4.20151 10.5L6.91769 11.6307C7.11895 11.7145 7.27379 11.8817 7.34191 12.0888L8.25 14.8496L9.15809 12.0888C9.22621 11.8817 9.38105 11.7145 9.58231 11.6307L12.2985 10.5L9.58231 9.36929C9.38105 9.28551 9.22621 9.11831 9.15809 8.91123L8.25 6.15038Z" fill="#233043"/>
<path d="M12 17.25C12 16.8358 12.3358 16.5 12.75 16.5H14.25C14.6642 16.5 15 16.8358 15 17.25C15 17.6642 14.6642 18 14.25 18H12.75C12.3358 18 12 17.6642 12 17.25Z" fill="#233043"/>
<path d="M16.5 17.25C16.5 16.8358 16.8358 16.5 17.25 16.5H18.75C19.1642 16.5 19.5 16.8358 19.5 17.25C19.5 17.6642 19.1642 18 18.75 18H17.25C16.8358 18 16.5 17.6642 16.5 17.25Z" fill="#233043"/>
<path d="M15.75 13.5C16.1642 13.5 16.5 13.8358 16.5 14.25V15.75C16.5 16.1642 16.1642 16.5 15.75 16.5C15.3358 16.5 15 16.1642 15 15.75V14.25C15 13.8358 15.3358 13.5 15.75 13.5Z" fill="#233043"/>
<path d="M15.75 18C16.1642 18 16.5 18.3358 16.5 18.75V20.25C16.5 20.6642 16.1642 21 15.75 21C15.3358 21 15 20.6642 15 20.25V18.75C15 18.3358 15.3358 18 15.75 18Z" fill="#233043"/>
<path d="M18.75 3C19.1642 3 19.5 3.33579 19.5 3.75V5.25C19.5 5.66421 19.1642 6 18.75 6C18.3358 6 18 5.66421 18 5.25V3.75C18 3.33579 18.3358 3 18.75 3Z" fill="#233043"/>
<path d="M15.75 6C15.3358 6 15 6.33579 15 6.75C15 7.16421 15.3358 7.5 15.75 7.5H17.25C17.6642 7.5 18 7.16421 18 6.75C18 6.33579 17.6642 6 17.25 6H15.75Z" fill="#233043"/>
<path d="M20.25 6C19.8358 6 19.5 6.33579 19.5 6.75C19.5 7.16421 19.8358 7.5 20.25 7.5H21.75C22.1642 7.5 22.5 7.16421 22.5 6.75C22.5 6.33579 22.1642 6 21.75 6H20.25Z" fill="#233043"/>
<path d="M19.5 8.25C19.5 7.83579 19.1642 7.5 18.75 7.5C18.3358 7.5 18 7.83579 18 8.25V9.75C18 10.1642 18.3358 10.5 18.75 10.5C19.1642 10.5 19.5 10.1642 19.5 9.75V8.25Z" fill="#233043"/>
</svg>
