<svg width="24" height="24" viewBox="0 0 24 24" fill="none" xmlns="http://www.w3.org/2000/svg">
<path fill-rule="evenodd" clip-rule="evenodd" d="M6.89306 3.29139C8.08161 3.59354 9.43335 4.17873 10.5128 5.24291C11.6085 6.32316 12.1911 7.67498 12.483 8.85507C12.6179 9.40063 12.6945 9.92495 12.7285 10.3888C12.9489 10.0769 13.2005 9.77561 13.4872 9.49294C14.5667 8.42876 15.9184 7.84357 17.1069 7.54142C18.2863 7.24161 19.3798 7.20179 20.0029 7.29378C20.4892 7.36559 20.8773 7.74041 20.9527 8.23648C21.0459 8.84974 21.0171 9.95753 20.7236 11.152C20.4281 12.3545 19.8444 13.7264 18.7578 14.7976C16.9476 16.5823 14.905 17.0042 13.4888 17H12.75V20.25C12.75 20.6642 12.4142 21 12 21C11.5858 21 11.25 20.6642 11.25 20.25L11.25 12.75H10.75V12.7452C9.33163 12.7984 7.1569 12.4353 5.24218 10.5476C4.15556 9.47636 3.57194 8.10443 3.27643 6.90196C2.98289 5.7075 2.95414 4.59971 3.0473 3.98645C3.12266 3.49038 3.51084 3.11555 3.99714 3.04375C4.62022 2.95176 5.71372 2.99158 6.89306 3.29139ZM4.49317 4.49213C4.47182 4.95423 4.51527 5.70652 4.72175 6.54673C4.97633 7.58269 5.45928 8.67158 6.28703 9.48763C8.16261 11.3367 10.3224 11.358 11.2555 11.2049C11.279 10.7681 11.2423 10.0377 11.0382 9.21244C10.7897 8.20771 10.3105 7.13356 9.46793 6.30289C8.633 5.47976 7.5485 4.99378 6.52639 4.73395C5.69404 4.52235 4.95272 4.47308 4.49317 4.49213ZM12.75 15.4559C13.686 15.6079 15.841 15.5831 17.713 13.7377C18.5407 12.9216 19.0237 11.8327 19.2783 10.7968C19.4847 9.95655 19.5282 9.20426 19.5068 8.74216C19.0473 8.72311 18.306 8.77238 17.4736 8.98398C16.4515 9.24381 15.367 9.72979 14.5321 10.5529C13.6895 11.3836 13.2103 12.4577 12.9618 13.4625C12.8358 13.9718 12.7736 14.445 12.75 14.8354V15.4559Z" fill="#233043"/>
</svg>
