<svg width="24" height="24" viewBox="0 0 24 24" fill="none" xmlns="http://www.w3.org/2000/svg">
<path fill-rule="evenodd" clip-rule="evenodd" d="M12 4.13855C12.2855 4.13855 12.5462 4.30062 12.6726 4.55663L14.8275 8.92299L19.6461 9.62317C19.9286 9.66422 20.1633 9.8621 20.2515 10.1336C20.3397 10.4051 20.2662 10.7032 20.0617 10.9024L16.575 14.3012L17.3981 19.1003C17.4463 19.3816 17.3307 19.666 17.0997 19.8338C16.8688 20.0016 16.5626 20.0238 16.3099 19.8909L12 17.6251L7.69016 19.8909C7.43747 20.0238 7.13127 20.0016 6.90031 19.8338C6.66935 19.666 6.55368 19.3816 6.60194 19.1003L7.42505 14.3012L3.93831 10.9024C3.73388 10.7032 3.6603 10.4051 3.74852 10.1336C3.83674 9.8621 4.07145 9.66422 4.35397 9.62317L9.17253 8.92299L11.3275 4.55663C11.4538 4.30062 11.7145 4.13855 12 4.13855ZM12 6.58321L10.3431 9.94042C10.2339 10.1618 10.0227 10.3152 9.77843 10.3507L6.07353 10.8891L8.75442 13.5023C8.93119 13.6746 9.01185 13.9228 8.97012 14.1661L8.33725 17.856L11.651 16.1139C11.8695 15.999 12.1305 15.999 12.349 16.1139L15.6628 17.856L15.0299 14.1661C14.9882 13.9228 15.0688 13.6746 15.2456 13.5023L17.9265 10.8891L14.2216 10.3507C13.9773 10.3152 13.7661 10.1618 13.6569 9.94042L12 6.58321Z" fill="#233043"/>
</svg>
