<svg width="24" height="24" viewBox="0 0 24 24" fill="none" xmlns="http://www.w3.org/2000/svg">
<path fill-rule="evenodd" clip-rule="evenodd" d="M13.3619 17.25H18.6119V9.75H7.67259L9.39226 11.4697C9.68515 11.7626 9.68515 12.2374 9.39226 12.5303C9.09937 12.8232 8.62449 12.8232 8.3316 12.5303L5.5673 9.76603C5.14423 9.34296 5.14423 8.65704 5.5673 8.23397L8.3316 5.46967C8.62449 5.17678 9.09937 5.17678 9.39226 5.46967C9.68515 5.76256 9.68515 6.23744 9.39226 6.53033L7.67259 8.25H18.8619C19.5523 8.25 20.1119 8.80964 20.1119 9.5V17.5C20.1119 18.1904 19.5523 18.75 18.8619 18.75H13.3619C12.9477 18.75 12.6119 18.4142 12.6119 18C12.6119 17.5858 12.9477 17.25 13.3619 17.25Z" fill="#233043"/>
</svg>
