<svg width="24" height="24" viewBox="0 0 24 24" fill="none" xmlns="http://www.w3.org/2000/svg">
<path fill-rule="evenodd" clip-rule="evenodd" d="M12.6726 4.55666C12.5462 4.30065 12.2855 4.13858 12 4.13858C11.7145 4.13858 11.4538 4.30065 11.3275 4.55666L9.17253 8.92302L4.35397 9.6232C4.07145 9.66425 3.83674 9.86213 3.74852 10.1336C3.6603 10.4051 3.73388 10.7032 3.93831 10.9025L7.42505 14.3012L6.60194 19.1003C6.55368 19.3817 6.66935 19.666 6.90031 19.8338C7.13127 20.0017 7.43747 20.0238 7.69016 19.8909L12 17.6251L16.3099 19.8909C16.5626 20.0238 16.8688 20.0017 17.0997 19.8338C17.3307 19.666 17.4463 19.3817 17.3981 19.1003L16.575 14.3012L20.0617 10.9025C20.2662 10.7032 20.3397 10.4051 20.2515 10.1336C20.1633 9.86213 19.9286 9.66425 19.6461 9.6232L14.8275 8.92302L12.6726 4.55666Z" fill="#233043"/>
</svg>
