<svg width="24" height="24" viewBox="0 0 24 24" fill="none" xmlns="http://www.w3.org/2000/svg">
<path fill-rule="evenodd" clip-rule="evenodd" d="M12 20C16.4183 20 20 16.4183 20 12C20 7.58172 16.4183 4 12 4C7.58172 4 4 7.58172 4 12C4 16.4183 7.58172 20 12 20ZM9.49912 7.49841C9.08491 7.49841 8.74912 7.8342 8.74912 8.24841V11.3702C8.74912 11.6104 8.86412 11.836 9.05844 11.9771C9.25276 12.1182 9.5029 12.1577 9.73125 12.0834C10.891 11.7059 12.0279 11.6435 12.8234 11.8808C13.2125 11.9969 13.4868 12.1739 13.6624 12.3856C13.8312 12.5892 13.9508 12.8746 13.9508 13.2967C13.9508 13.7331 13.8376 14.0241 13.6966 14.2281C13.5508 14.439 13.3454 14.5994 13.1055 14.7204C12.8639 14.8422 12.6061 14.9144 12.3881 14.9553C12.2808 14.9754 12.1877 14.9871 12.1174 14.9936C12.0823 14.9969 12.0537 14.9989 12.0325 14.9999C12.0119 15.001 12.0011 15.0011 12.0001 15.0011L12 15.0011C11.1914 15.0011 10.4771 14.5443 10.0547 14.0784C9.77646 13.7715 9.30215 13.7484 8.9953 14.0266C8.68845 14.3048 8.66525 14.7791 8.94349 15.086C9.5522 15.7573 10.6414 16.5011 12 16.5011C12.1865 16.5011 12.9922 16.4574 13.7809 16.0597C14.1852 15.8558 14.6086 15.5468 14.9305 15.081C15.2573 14.6083 15.4508 14.0151 15.4508 13.2967C15.4508 12.5641 15.2328 11.9295 14.817 11.4282C14.4081 10.935 13.8509 10.622 13.2522 10.4434C12.3555 10.1759 11.2951 10.1862 10.2491 10.3981V8.99841H14.7007C15.1149 8.99841 15.4508 8.66263 15.4508 8.24841C15.4508 7.8342 15.1148 7.49841 14.7005 7.49841H9.49912Z" fill="#233043"/>
</svg>
