<svg width="24" height="24" viewBox="0 0 24 24" fill="none" xmlns="http://www.w3.org/2000/svg">
<path fill-rule="evenodd" clip-rule="evenodd" d="M12 20C16.4183 20 20 16.4183 20 12C20 7.58172 16.4183 4 12 4C7.58172 4 4 7.58172 4 12C4 16.4183 7.58172 20 12 20ZM11.0017 8.54399C11.1641 8.16294 10.9868 7.72239 10.6058 7.55999C10.2247 7.3976 9.78416 7.57486 9.62177 7.95591L8.22137 11.2419C7.91682 11.9565 8.44118 12.7499 9.21798 12.7499H12.9073V15.7499C12.9073 16.1642 13.2431 16.4999 13.6573 16.4999C14.0715 16.4999 14.4073 16.1642 14.4073 15.7499V8.24995C14.4073 7.83574 14.0715 7.49995 13.6573 7.49995C13.2431 7.49995 12.9073 7.83574 12.9073 8.24995V11.2499H9.84848L11.0017 8.54399Z" fill="#233043"/>
</svg>
