<svg width="24" height="24" viewBox="0 0 24 24" fill="none" xmlns="http://www.w3.org/2000/svg">
<path fill-rule="evenodd" clip-rule="evenodd" d="M12 20C16.4183 20 20 16.4183 20 12C20 7.58172 16.4183 4 12 4C7.58172 4 4 7.58172 4 12C4 16.4183 7.58172 20 12 20ZM9.49915 8.99878L12.6902 8.99878L11.4697 10.2193C11.2552 10.4338 11.191 10.7564 11.3071 11.0366C11.4226 11.3155 11.6939 11.4978 11.9953 11.4996L12.0031 11.4998C12.0126 11.5001 12.0299 11.5009 12.054 11.5026C12.1025 11.5061 12.1766 11.5134 12.2675 11.5285C12.4528 11.5594 12.6884 11.6198 12.915 11.7331C13.1387 11.8449 13.3395 12.0008 13.4861 12.2207C13.6295 12.4359 13.7509 12.7565 13.7509 13.2505C13.7509 13.7545 13.6346 14.0805 13.4985 14.2962C13.3611 14.5141 13.1747 14.6651 12.9669 14.7724C12.5284 14.999 12.0548 15.0013 12 15.0013C10.9681 15.0013 10.5923 14.6323 10.4358 14.3975C10.3429 14.2582 10.2947 14.1156 10.2704 14.0061C10.2584 13.9523 10.253 13.91 10.2507 13.8852C10.2496 13.8744 10.2492 13.8673 10.2491 13.8644C10.243 13.4554 9.9096 13.1257 9.49915 13.1257C9.08493 13.1257 8.74915 13.4625 8.74915 13.8767L8.74915 13.8778L8.74916 13.88L8.7492 13.885L8.7494 13.8972C8.74959 13.9063 8.74993 13.9173 8.7505 13.9301C8.75163 13.9556 8.75369 13.9884 8.75741 14.0274C8.76482 14.1052 8.77896 14.2094 8.80608 14.3315C8.8599 14.5736 8.96795 14.8999 9.18771 15.2295C9.65642 15.9326 10.5311 16.5013 12 16.5013H12.0019C12.1159 16.5014 12.8884 16.5014 13.6555 16.105C14.0527 15.8998 14.4611 15.5819 14.7673 15.0964C15.0748 14.6087 15.2509 13.9969 15.2509 13.2505C15.2509 12.494 15.0596 11.8768 14.7341 11.3887C14.4118 10.9052 13.9874 10.5922 13.5858 10.3914C13.5481 10.3725 13.5104 10.3546 13.4728 10.3375L15.0312 8.77911C15.2457 8.56461 15.3099 8.24202 15.1938 7.96177C15.0777 7.68151 14.8038 7.49878 14.5005 7.49878L9.49915 7.49878C9.08493 7.49878 8.74915 7.83457 8.74915 8.24878C8.74915 8.66299 9.08493 8.99878 9.49915 8.99878ZM9.49915 13.8757L8.74915 13.8767C8.74915 13.8762 8.74915 13.8757 9.49915 13.8757Z" fill="#233043"/>
</svg>
