<svg width="24" height="24" viewBox="0 0 24 24" fill="none" xmlns="http://www.w3.org/2000/svg">
<path fill-rule="evenodd" clip-rule="evenodd" d="M12 20C16.4183 20 20 16.4183 20 12C20 7.58172 16.4183 4 12 4C7.58172 4 4 7.58172 4 12C4 16.4183 7.58172 20 12 20ZM10.2496 10.7498C10.2496 10.4531 10.3448 9.99131 10.6084 9.62527C10.8444 9.29747 11.2443 8.99939 12 8.99939C12.7558 8.99939 13.1557 9.29747 13.3917 9.62527C13.6553 9.99131 13.7504 10.4531 13.7504 10.7498C13.7504 11.1289 13.5555 11.5899 13.1334 12.1175C12.7197 12.6347 12.1495 13.1383 11.55 13.5878C10.955 14.0342 10.3558 14.4089 9.90311 14.673C9.67754 14.8046 9.4902 14.9076 9.36035 14.9772C9.29546 15.0119 9.24505 15.0383 9.21153 15.0556L9.17426 15.0747L9.16572 15.079L9.16422 15.0798L9.16408 15.0799L9.16402 15.0799L9.16394 15.0799C8.85301 15.2355 8.68981 15.5845 8.7697 15.9229C8.84961 16.2614 9.1518 16.5006 9.49963 16.5006H14.5004C14.9147 16.5006 15.2504 16.1648 15.2504 15.7506C15.2504 15.3364 14.9147 15.0006 14.5004 15.0006H12.1595C12.2559 14.9316 12.3529 14.8607 12.45 14.7878C13.1008 14.2998 13.7808 13.7095 14.3047 13.0545C14.8203 12.4101 15.2504 11.6209 15.2504 10.7498C15.2504 10.213 15.0956 9.42461 14.609 8.74881C14.0949 8.03477 13.2446 7.49939 12 7.49939C10.7554 7.49939 9.90517 8.03477 9.39106 8.74881C8.90449 9.42461 8.74963 10.213 8.74963 10.7498C8.74963 11.164 9.08542 11.4998 9.49963 11.4998C9.91385 11.4998 10.2496 11.164 10.2496 10.7498Z" fill="#233043"/>
</svg>
