<svg width="24" height="24" viewBox="0 0 24 24" fill="none" xmlns="http://www.w3.org/2000/svg">
<path fill-rule="evenodd" clip-rule="evenodd" d="M5.75 18.25V5.75H18.25V13.25H14.5C13.8096 13.25 13.25 13.8096 13.25 14.5V18.25H5.75ZM14.75 17.1893L17.1893 14.75H14.75V17.1893ZM4.25 18.5C4.25 19.1904 4.80964 19.75 5.5 19.75H14C14.1989 19.75 14.3897 19.671 14.5303 19.5303L19.5303 14.5303C19.671 14.3897 19.75 14.1989 19.75 14V5.5C19.75 4.80964 19.1904 4.25 18.5 4.25H5.5C4.80964 4.25 4.25 4.80964 4.25 5.5V18.5Z" fill="#233043"/>
</svg>
