<svg width="24" height="24" viewBox="0 0 24 24" fill="none" xmlns="http://www.w3.org/2000/svg">
<path fill-rule="evenodd" clip-rule="evenodd" d="M12.1171 5.75C10.1387 5.75 8.75 7.0908 8.75 8.5C8.75 9.9092 10.1387 11.25 12.1171 11.25H19C19.4142 11.25 19.75 11.5858 19.75 12C19.75 12.4142 19.4142 12.75 19 12.75H15.5991C16.3097 13.4764 16.75 14.4246 16.75 15.5C16.75 17.9568 14.4521 19.75 11.8829 19.75C10.71 19.75 9.60839 19.3843 8.75001 18.7555V19C8.75001 19.4142 8.41422 19.75 8.00001 19.75C7.58579 19.75 7.25001 19.4142 7.25 19L7.25 16.6667C7.25 16.309 7.5025 16.0012 7.8532 15.9312C8.2039 15.8612 8.55524 16.0485 8.69253 16.3787C9.12372 17.4158 10.3443 18.25 11.8829 18.25C13.8613 18.25 15.25 16.9092 15.25 15.5C15.25 14.0908 13.8613 12.75 11.8829 12.75H5C4.58579 12.75 4.25 12.4142 4.25 12C4.25 11.5858 4.58579 11.25 5 11.25H8.40087C7.69028 10.5236 7.25 9.57539 7.25 8.5C7.25 6.0432 9.54791 4.25 12.1171 4.25C13.29 4.25 14.3916 4.61575 15.25 5.24454V5C15.25 4.58579 15.5858 4.25 16 4.25C16.4142 4.25 16.75 4.58579 16.75 5V7.33333C16.75 7.69095 16.4975 7.99882 16.1468 8.06882C15.7961 8.13883 15.4448 7.95148 15.3075 7.62127C14.8763 6.58418 13.6557 5.75 12.1171 5.75Z" fill="#233043"/>
</svg>
