<svg width="24" height="24" viewBox="0 0 24 24" fill="none" xmlns="http://www.w3.org/2000/svg">
<path fill-rule="evenodd" clip-rule="evenodd" d="M4.75 12C4.75 7.99594 7.99594 4.75 12 4.75C16.0041 4.75 19.25 7.99594 19.25 12C19.25 16.0041 16.0041 19.25 12 19.25C7.99594 19.25 4.75 16.0041 4.75 12ZM12 3.25C7.16751 3.25 3.25 7.16751 3.25 12C3.25 16.8325 7.16751 20.75 12 20.75C16.8325 20.75 20.75 16.8325 20.75 12C20.75 7.16751 16.8325 3.25 12 3.25ZM16.2426 13.0533C16.6569 13.0533 16.9926 12.7175 16.9926 12.3033C16.9926 11.8891 16.6569 11.5533 16.2426 11.5533H7.75736C7.34315 11.5533 7.00736 11.8891 7.00736 12.3033C7.00736 12.7175 7.34315 13.0533 7.75736 13.0533H16.2426Z" fill="#233043"/>
</svg>
