<svg width="24" height="24" viewBox="0 0 24 24" fill="none" xmlns="http://www.w3.org/2000/svg">
<path fill-rule="evenodd" clip-rule="evenodd" d="M12 20C16.4183 20 20 16.4183 20 12C20 7.58172 16.4183 4 12 4C7.58172 4 4 7.58172 4 12C4 16.4183 7.58172 20 12 20ZM16.555 10.0045C16.8336 9.69801 16.811 9.22368 16.5045 8.94504C16.198 8.66641 15.7237 8.689 15.445 8.9955L10.9741 13.9135L8.53033 11.4697C8.23744 11.1768 7.76256 11.1768 7.46967 11.4697C7.17678 11.7626 7.17678 12.2374 7.46967 12.5303L10.0989 15.1595C10.6035 15.6642 11.4276 15.6446 11.9077 15.1165L16.555 10.0045Z" fill="#233043"/>
</svg>
