<svg width="24" height="24" viewBox="0 0 24 24" fill="none" xmlns="http://www.w3.org/2000/svg">
<path fill-rule="evenodd" clip-rule="evenodd" d="M4.75006 12C4.75006 7.99594 7.996 4.75 12.0001 4.75C16.0041 4.75 19.2501 7.99594 19.2501 12C19.2501 16.0041 16.0041 19.25 12.0001 19.25C7.996 19.25 4.75006 16.0041 4.75006 12ZM12.0001 3.25C7.16757 3.25 3.25006 7.16751 3.25006 12C3.25006 16.8325 7.16757 20.75 12.0001 20.75C16.8326 20.75 20.7501 16.8325 20.7501 12C20.7501 7.16751 16.8326 3.25 12.0001 3.25ZM16.4658 10.4086C16.7507 10.1079 16.7378 9.63323 16.4371 9.34836C16.1364 9.06349 15.6617 9.07632 15.3769 9.37702L10.865 14.1395L8.60888 11.8834C8.31599 11.5905 7.84112 11.5905 7.54822 11.8834C7.25533 12.1763 7.25533 12.6512 7.54822 12.944L10.3492 15.745C10.4924 15.8882 10.6873 15.9674 10.8897 15.9646C11.0921 15.9619 11.2848 15.8775 11.424 15.7305L16.4658 10.4086Z" fill="#233043"/>
</svg>
