<svg width="24" height="24" viewBox="0 0 24 24" fill="none" xmlns="http://www.w3.org/2000/svg">
<path fill-rule="evenodd" clip-rule="evenodd" d="M12.75 3.5C12.75 3.08579 12.4142 2.75 12 2.75C11.5858 2.75 11.25 3.08579 11.25 3.5V5C11.25 5.41421 11.5858 5.75 12 5.75C12.4142 5.75 12.75 5.41421 12.75 5V3.5ZM12 8.75C10.2051 8.75 8.75 10.2051 8.75 12C8.75 13.202 9.40216 14.2526 10.3755 14.8157C10.6073 14.9497 10.75 15.1971 10.75 15.4649V16.25H13.25V15.4649C13.25 15.1971 13.3927 14.9497 13.6245 14.8157C14.5978 14.2526 15.25 13.202 15.25 12C15.25 10.2051 13.7949 8.75 12 8.75ZM7.25 12C7.25 9.37665 9.37665 7.25 12 7.25C14.6234 7.25 16.75 9.37665 16.75 12C16.75 13.5994 15.9592 15.0133 14.75 15.8733V17C14.75 17.4142 14.4142 17.75 14 17.75H10C9.58579 17.75 9.25 17.4142 9.25 17V15.8733C8.04079 15.0133 7.25 13.5994 7.25 12ZM9.25 20C9.25 19.5858 9.58579 19.25 10 19.25H14C14.4142 19.25 14.75 19.5858 14.75 20C14.75 20.4142 14.4142 20.75 14 20.75H10C9.58579 20.75 9.25 20.4142 9.25 20ZM5.75 12C5.75 11.5858 5.41421 11.25 5 11.25H3.5C3.08579 11.25 2.75 11.5858 2.75 12C2.75 12.4142 3.08579 12.75 3.5 12.75H5C5.41421 12.75 5.75 12.4142 5.75 12ZM20.5 11.25C20.9142 11.25 21.25 11.5858 21.25 12C21.25 12.4142 20.9142 12.75 20.5 12.75H19C18.5858 12.75 18.25 12.4142 18.25 12C18.25 11.5858 18.5858 11.25 19 11.25H20.5ZM4.96966 5.46967C5.26255 5.17678 5.73743 5.17678 6.03032 5.46967L7.09098 6.53033C7.38387 6.82322 7.38387 7.2981 7.09098 7.59099C6.79809 7.88388 6.32321 7.88388 6.03032 7.59099L4.96966 6.53033C4.67677 6.23744 4.67677 5.76256 4.96966 5.46967ZM17.9697 5.46967C18.2626 5.17678 18.7374 5.17678 19.0303 5.46967C19.3232 5.76256 19.3232 6.23744 19.0303 6.53033L17.9697 7.59099C17.6768 7.88388 17.2019 7.88388 16.909 7.59099C16.6161 7.2981 16.6161 6.82322 16.909 6.53033L17.9697 5.46967Z" fill="#233043"/>
</svg>
