<svg width="24" height="24" viewBox="0 0 24 24" fill="none" xmlns="http://www.w3.org/2000/svg">
<path fill-rule="evenodd" clip-rule="evenodd" d="M5.75024 5.75V18.25H12.3138C12.728 18.25 13.0638 18.5858 13.0638 19C13.0638 19.4142 12.728 19.75 12.3138 19.75H5.33358C4.73527 19.75 4.25024 19.265 4.25024 18.6667V5.33333C4.25024 4.73502 4.73527 4.25 5.33358 4.25H15.0002C15.1992 4.25 15.3899 4.32902 15.5306 4.46967L19.5306 8.46967C19.6712 8.61032 19.7502 8.80109 19.7502 9V12.5671C19.7502 12.9813 19.4145 13.3171 19.0002 13.3171C18.586 13.3171 18.2502 12.9813 18.2502 12.5671V9.75H15.3336C14.7353 9.75 14.2502 9.26497 14.2502 8.66667V5.75H5.75024ZM15.7502 6.81066L17.1896 8.25H15.7502V6.81066ZM8.25 9.00012C8.25 8.58591 8.58579 8.25012 9 8.25012H11C11.4142 8.25012 11.75 8.58591 11.75 9.00012C11.75 9.41434 11.4142 9.75012 11 9.75012H9C8.58579 9.75012 8.25 9.41434 8.25 9.00012ZM9 11.2501C8.58579 11.2501 8.25 11.5859 8.25 12.0001C8.25 12.4143 8.58579 12.7501 9 12.7501H15C15.4142 12.7501 15.75 12.4143 15.75 12.0001C15.75 11.5859 15.4142 11.2501 15 11.2501H9ZM8.25 15.0001C8.25 14.5859 8.58579 14.2501 9 14.2501H12C12.4142 14.2501 12.75 14.5859 12.75 15.0001C12.75 15.4143 12.4142 15.7501 12 15.7501H9C8.58579 15.7501 8.25 15.4143 8.25 15.0001ZM21.7803 15.5304C22.0732 15.2375 22.0732 14.7626 21.7803 14.4697C21.4874 14.1768 21.0126 14.1768 20.7197 14.4697L17.4755 17.7139L15.5047 15.921C15.1983 15.6423 14.724 15.6647 14.4452 15.9711C14.1665 16.2775 14.1889 16.7518 14.4953 17.0306L16.9953 19.3048C17.2915 19.5743 17.7472 19.5635 18.0303 19.2804L21.7803 15.5304Z" fill="#233043"/>
</svg>
