<svg width="24" height="24" viewBox="0 0 24 24" fill="none" xmlns="http://www.w3.org/2000/svg">
<path fill-rule="evenodd" clip-rule="evenodd" d="M11.407 5.75C7.95526 5.75 5.15704 8.54822 5.15704 12C5.15704 15.4518 7.95526 18.25 11.407 18.25L18.4344 18.25L16.6077 16.6263C16.3211 16.3715 16.2728 15.9416 16.4958 15.6296C17.227 14.6065 17.657 13.3546 17.657 12C17.657 8.54822 14.8588 5.75 11.407 5.75ZM3.65704 12C3.65704 7.71979 7.12684 4.25 11.407 4.25C15.6872 4.25 19.157 7.71979 19.157 12C19.157 13.4348 18.7665 14.78 18.086 15.9334L19.9224 17.5657C20.7815 18.3294 20.2413 19.75 19.0919 19.75L11.407 19.75C7.12684 19.75 3.65704 16.2802 3.65704 12Z" fill="#233043"/>
</svg>
