<svg width="24" height="24" viewBox="0 0 24 24" fill="none" xmlns="http://www.w3.org/2000/svg">
<ellipse cx="8.38617" cy="8.20135" rx="3.16522" ry="3.16522" fill="#233043"/>
<path d="M3.32184 17.4242C3.32184 14.6273 5.58923 12.3599 8.38619 12.3599C11.1832 12.3599 13.4505 14.6273 13.4505 17.4242V18.5745C13.4505 18.789 13.2766 18.9629 13.0621 18.9629H3.71025C3.49574 18.9629 3.32184 18.789 3.32184 18.5745V17.4242Z" fill="#233043"/>
<path d="M11.7855 17.7028C11.7855 15.4124 13.6423 13.5557 15.9326 13.5557C18.223 13.5557 20.0798 15.4124 20.0798 17.7028V18.6447C20.0798 18.8204 19.9374 18.9628 19.7617 18.9628H12.1036C11.9279 18.9628 11.7855 18.8204 11.7855 18.6447V17.7028Z" fill="#233043"/>
<ellipse cx="15.9326" cy="10.0222" rx="2.33809" ry="2.33809" fill="#233043"/>
</svg>
