<svg width="24" height="24" viewBox="0 0 24 24" fill="none" xmlns="http://www.w3.org/2000/svg">
<path fill-rule="evenodd" clip-rule="evenodd" d="M5.97095 8.20154C5.97095 6.86765 7.05228 5.78632 8.38617 5.78632C9.72006 5.78632 10.8014 6.86765 10.8014 8.20154C10.8014 9.53543 9.72006 10.6168 8.38617 10.6168C7.05228 10.6168 5.97095 9.53543 5.97095 8.20154ZM8.38617 4.28632C6.22385 4.28632 4.47095 6.03922 4.47095 8.20154C4.47095 10.3639 6.22385 12.1168 8.38617 12.1168C10.5485 12.1168 12.3014 10.3639 12.3014 8.20154C12.3014 6.03922 10.5485 4.28632 8.38617 4.28632ZM7.32184 13.149C4.69849 13.149 2.57184 15.2757 2.57184 17.899V18.4634C2.57184 19.1538 3.13148 19.7134 3.82184 19.7134H11.166L11.1871 19.7137H20.1947C20.8759 19.7137 21.4282 19.1614 21.4282 18.4802C21.4282 15.9298 19.3607 13.8624 16.8103 13.8624H15.9326C14.7327 13.8624 13.9116 14.0574 13.3024 14.3713C13.1488 14.4505 13.012 14.5361 12.8902 14.6232C12.025 13.715 10.8039 13.149 9.45054 13.149H7.32184ZM19.9169 18.2137H14.2005V17.899C14.2005 17.1684 14.0356 16.4763 13.7409 15.858C13.8138 15.8043 13.8945 15.7536 13.9895 15.7047C14.3243 15.5322 14.8906 15.3624 15.9326 15.3624H16.8103C18.4425 15.3624 19.7817 16.6165 19.9169 18.2137ZM12.17 16.3692C12.0121 16.2173 11.9351 16.0128 11.9401 15.8097C11.3439 15.1001 10.4499 14.649 9.45054 14.649H7.32184C5.52691 14.649 4.07184 16.1041 4.07184 17.899V18.2134H12.7005V17.899C12.7005 17.4051 12.5903 16.9368 12.3932 16.5176C12.3127 16.4829 12.2369 16.4335 12.17 16.3692ZM14.3445 10.0222C14.3445 9.14515 15.0556 8.43414 15.9326 8.43414C16.8097 8.43414 17.5207 9.14515 17.5207 10.0222C17.5207 10.8993 16.8097 11.6103 15.9326 11.6103C15.0556 11.6103 14.3445 10.8993 14.3445 10.0222ZM15.9326 6.93414C14.2271 6.93414 12.8445 8.31673 12.8445 10.0222C12.8445 11.7277 14.2271 13.1103 15.9326 13.1103C17.6381 13.1103 19.0207 11.7277 19.0207 10.0222C19.0207 8.31673 17.6381 6.93414 15.9326 6.93414Z" fill="#233043"/>
</svg>
