<svg width="24" height="24" viewBox="0 0 24 24" fill="none" xmlns="http://www.w3.org/2000/svg">
<path fill-rule="evenodd" clip-rule="evenodd" d="M8.3862 11.3668C10.1343 11.3668 11.5514 9.94964 11.5514 8.20154C11.5514 6.45343 10.1343 5.03632 8.3862 5.03632C6.6381 5.03632 5.22098 6.45343 5.22098 8.20154C5.22098 9.94964 6.6381 11.3668 8.3862 11.3668ZM8.38619 12.3602C5.58923 12.3602 3.32184 14.6276 3.32184 17.4246V18.5748C3.32184 18.7893 3.49574 18.9632 3.71025 18.9632H13.0621L13.067 18.9632H19.7618C19.9374 18.9632 20.0798 18.8208 20.0798 18.6451V17.7032C20.0798 15.4128 18.2231 13.5561 15.9327 13.5561C14.6904 13.5561 13.5758 14.1023 12.8157 14.9676C11.9513 13.4125 10.2916 12.3602 8.38619 12.3602ZM15.9326 12.3603C17.2239 12.3603 18.2707 11.3135 18.2707 10.0222C18.2707 8.73094 17.2239 7.68414 15.9326 7.68414C14.6413 7.68414 13.5945 8.73094 13.5945 10.0222C13.5945 11.3135 14.6413 12.3603 15.9326 12.3603Z" fill="#233043"/>
</svg>
