<svg width="24" height="24" viewBox="0 0 24 24" fill="none" xmlns="http://www.w3.org/2000/svg">
<circle cx="8.38617" cy="8.2016" r="3.16522" stroke="#233043" stroke-width="1.5" stroke-linecap="round" stroke-linejoin="round"/>
<path d="M3.32184 17.8992C3.32184 15.69 5.1127 13.8992 7.32184 13.8992H9.45054C11.6597 13.8992 13.4505 15.69 13.4505 17.8992V18.4635C13.4505 18.7397 13.2267 18.9635 12.9505 18.9635H3.82184C3.5457 18.9635 3.32184 18.7397 3.32184 18.4635V17.8992Z" stroke="#233043" stroke-width="1.5" stroke-linecap="round" stroke-linejoin="round"/>
<path d="M11.1871 18.9636H20.1947C20.4617 18.9636 20.6782 18.7472 20.6782 18.4801V18.4801C20.6782 16.344 18.9465 14.6123 16.8103 14.6123H15.9326C13.6908 14.6123 13.1577 15.3419 12.6899 15.8285" stroke="#233043" stroke-width="1.5" stroke-linecap="round" stroke-linejoin="round"/>
<ellipse cx="15.9326" cy="10.0222" rx="2.33809" ry="2.33809" stroke="#233043" stroke-width="1.5" stroke-linecap="round" stroke-linejoin="round"/>
</svg>
