<svg width="24" height="24" viewBox="0 0 24 24" fill="none" xmlns="http://www.w3.org/2000/svg">
<path fill-rule="evenodd" clip-rule="evenodd" d="M10.7872 4.53821C11.6043 3.01513 13.8999 3.47261 14.0708 5.19255L14.434 8.84997H18.352C18.693 8.84682 19.031 8.91631 19.3429 9.05408C19.6563 9.19248 19.9363 9.39671 20.1631 9.65337C20.3899 9.91006 20.558 10.213 20.6549 10.5415C20.7518 10.8701 20.775 11.2157 20.7228 11.5543L19.601 18.7541C19.601 18.7544 19.6011 18.7539 19.601 18.7541C19.5141 19.3173 19.2235 19.8288 18.7865 20.1944C18.3508 20.5589 17.7981 20.7552 17.2301 20.7499H5.6258C4.99954 20.7499 4.39655 20.5052 3.95011 20.0658C3.50327 19.6261 3.25 19.0271 3.25 18.3999V12.7999C3.25 12.1728 3.50327 11.5738 3.95011 11.134C4.39655 10.6947 4.99954 10.45 5.6258 10.45H7.61574L10.7872 4.53821ZM7.31449 11.95H5.6258C5.38968 11.95 5.16561 12.0424 5.00226 12.2031C4.83931 12.3635 4.75 12.5784 4.75 12.7999V18.3999C4.75 18.6214 4.83931 18.8364 5.00226 18.9967C5.16561 19.1575 5.38968 19.2499 5.6258 19.2499H7.31449V11.95ZM8.81449 19.2499H17.2423C17.4569 19.2523 17.6635 19.1782 17.8241 19.0438C17.9844 18.9097 18.0878 18.7252 18.1185 18.5257L19.2404 11.3256C19.2404 11.3254 19.2403 11.3258 19.2404 11.3256C19.2588 11.2057 19.2506 11.0827 19.2162 10.966C19.1817 10.849 19.1215 10.7399 19.039 10.6466C18.9565 10.5532 18.8536 10.4777 18.7369 10.4262C18.6202 10.3746 18.4929 10.3485 18.3642 10.3499L18.3558 10.35L14.2076 10.35C13.5651 10.35 13.0272 9.86287 12.9637 9.2235L12.5781 5.3408C12.5704 5.26367 12.5434 5.22034 12.5162 5.19222C12.4848 5.15964 12.437 5.13205 12.3782 5.12032C12.3193 5.10859 12.2647 5.11578 12.2231 5.13381C12.1873 5.14937 12.1457 5.17902 12.109 5.24732L8.81449 11.3884V19.2499Z" fill="#233043"/>
</svg>
