<svg width="24" height="24" viewBox="0 0 24 24" fill="none" xmlns="http://www.w3.org/2000/svg">
<path fill-rule="evenodd" clip-rule="evenodd" d="M10.7872 19.4618C11.6043 20.9849 13.8999 20.5274 14.0708 18.8074L14.434 15.15H18.352C18.693 15.1532 19.031 15.0837 19.3429 14.9459C19.6563 14.8075 19.9363 14.6033 20.1631 14.3466C20.3899 14.0899 20.558 13.787 20.6549 13.4585C20.7518 13.1299 20.775 12.7843 20.7228 12.4457L19.601 5.24587C19.601 5.24561 19.6011 5.24613 19.601 5.24587C19.5141 4.68269 19.2235 4.17118 18.7865 3.80563C18.3508 3.44111 17.7981 3.24485 17.2301 3.2501H5.6258C4.99954 3.2501 4.39655 3.49482 3.95011 3.93417C3.50327 4.37392 3.25 4.97293 3.25 5.60009V11.2001C3.25 11.8272 3.50327 12.4262 3.95011 12.866C4.39655 13.3053 4.99954 13.55 5.6258 13.55H7.61574L10.7872 19.4618ZM7.31449 12.05H5.6258C5.38968 12.05 5.16561 11.9576 5.00226 11.7969C4.83931 11.6365 4.75 11.4216 4.75 11.2001V5.60009C4.75 5.37857 4.83931 5.16365 5.00226 5.00328C5.16561 4.84252 5.38968 4.7501 5.6258 4.7501H7.31449V12.05ZM8.81449 4.7501H17.2423C17.4569 4.74771 17.6635 4.82181 17.8241 4.95616C17.9844 5.09027 18.0878 5.27476 18.1185 5.47432L19.2404 12.6744C19.2404 12.6746 19.2403 12.6742 19.2404 12.6744C19.2588 12.7943 19.2506 12.9173 19.2162 13.034C19.1817 13.151 19.1215 13.2601 19.039 13.3534C18.9565 13.4468 18.8536 13.5223 18.7369 13.5738C18.6202 13.6254 18.4929 13.6515 18.3642 13.6501L18.3558 13.65L14.2076 13.65C13.5651 13.65 13.0272 14.1371 12.9637 14.7765L12.5781 18.6592C12.5704 18.7363 12.5434 18.7797 12.5162 18.8078C12.4848 18.8404 12.437 18.8679 12.3782 18.8797C12.3193 18.8914 12.2647 18.8842 12.2231 18.8662C12.1873 18.8506 12.1457 18.821 12.109 18.7527L8.81449 12.6116V4.7501Z" fill="#233043"/>
</svg>
