<svg width="24" height="24" viewBox="0 0 24 24" fill="none" xmlns="http://www.w3.org/2000/svg">
<path fill-rule="evenodd" clip-rule="evenodd" d="M12 2C10.4812 2 9.25 3.23122 9.25 4.75C9.25 6.00878 10.0957 7.07002 11.25 7.39648V11.25H6.75C5.23122 11.25 4 12.4812 4 14V16.6035C2.84575 16.93 2 17.9912 2 19.25C2 20.7688 3.23122 22 4.75 22C6.26878 22 7.5 20.7688 7.5 19.25C7.5 17.9912 6.65425 16.93 5.5 16.6035V14C5.5 13.3096 6.05964 12.75 6.75 12.75H11.25V16.6035C10.0957 16.93 9.25 17.9912 9.25 19.25C9.25 20.7688 10.4812 22 12 22C13.5188 22 14.75 20.7688 14.75 19.25C14.75 17.9912 13.9043 16.93 12.75 16.6035V12.75H17.25C17.9404 12.75 18.5 13.3096 18.5 14V16.6035C17.3457 16.93 16.5 17.9912 16.5 19.25C16.5 20.7688 17.7312 22 19.25 22C20.7688 22 22 20.7688 22 19.25C22 17.9912 21.1543 16.93 20 16.6035V14C20 12.4812 18.7688 11.25 17.25 11.25H12.75V7.39648C13.9043 7.07002 14.75 6.00878 14.75 4.75C14.75 3.23122 13.5188 2 12 2Z" fill="#233043"/>
</svg>
