<svg width="24" height="24" viewBox="0 0 24 24" fill="none" xmlns="http://www.w3.org/2000/svg">
<path fill-rule="evenodd" clip-rule="evenodd" d="M9.25 4.75C9.25 3.23122 10.4812 2 12 2C13.5188 2 14.75 3.23122 14.75 4.75C14.75 6.00878 13.9043 7.07002 12.75 7.39648V11.25H17.25C18.7688 11.25 20 12.4812 20 14V16.6035C21.1543 16.93 22 17.9912 22 19.25C22 20.7688 20.7688 22 19.25 22C17.7312 22 16.5 20.7688 16.5 19.25C16.5 17.9912 17.3457 16.93 18.5 16.6035V14C18.5 13.3096 17.9404 12.75 17.25 12.75H12.75V16.6035C13.9043 16.93 14.75 17.9912 14.75 19.25C14.75 20.7688 13.5188 22 12 22C10.4812 22 9.25 20.7688 9.25 19.25C9.25 17.9912 10.0957 16.93 11.25 16.6035V12.75H6.75C6.05964 12.75 5.5 13.3096 5.5 14V16.6035C6.65425 16.93 7.5 17.9912 7.5 19.25C7.5 20.7688 6.26878 22 4.75 22C3.23122 22 2 20.7688 2 19.25C2 17.9912 2.84575 16.93 4 16.6035V14C4 12.4812 5.23122 11.25 6.75 11.25H11.25V7.39648C10.0957 7.07002 9.25 6.00878 9.25 4.75ZM12 6C11.3096 6 10.75 5.44036 10.75 4.75C10.75 4.05964 11.3096 3.5 12 3.5C12.6904 3.5 13.25 4.05964 13.25 4.75C13.25 5.44036 12.6904 6 12 6ZM4.75 20.5C4.05964 20.5 3.5 19.9404 3.5 19.25C3.5 18.5596 4.05964 18 4.75 18C5.44036 18 6 18.5596 6 19.25C6 19.9404 5.44036 20.5 4.75 20.5ZM12 20.5C11.3096 20.5 10.75 19.9404 10.75 19.25C10.75 18.5596 11.3096 18 12 18C12.6904 18 13.25 18.5596 13.25 19.25C13.25 19.9404 12.6904 20.5 12 20.5ZM18 19.25C18 19.9404 18.5596 20.5 19.25 20.5C19.9404 20.5 20.5 19.9404 20.5 19.25C20.5 18.5596 19.9404 18 19.25 18C18.5596 18 18 18.5596 18 19.25Z" fill="#233043"/>
</svg>
