<svg width="24" height="24" viewBox="0 0 24 24" fill="none" xmlns="http://www.w3.org/2000/svg">
<path fill-rule="evenodd" clip-rule="evenodd" d="M3.25 5.5C3.25 4.80964 3.80964 4.25 4.5 4.25H19.5C20.1904 4.25 20.75 4.80964 20.75 5.5V7.5C20.75 8.10474 20.3206 8.60918 19.75 8.725V18.5C19.75 19.1904 19.1904 19.75 18.5 19.75H5.5C4.80964 19.75 4.25 19.1904 4.25 18.5V8.725C3.67944 8.60918 3.25 8.10474 3.25 7.5V5.5ZM5.75 8.75H18.25V18.25H5.75V8.75ZM19.25 7.25H19H5H4.75V5.75H19.25V7.25ZM13.9697 13.5303C14.2626 13.8232 14.7374 13.8232 15.0303 13.5303C15.3232 13.2374 15.3232 12.7626 15.0303 12.4697L12.5303 9.96967C12.2374 9.67678 11.7626 9.67678 11.4697 9.96967L8.96967 12.4697C8.67678 12.7626 8.67678 13.2374 8.96967 13.5303C9.26256 13.8232 9.73744 13.8232 10.0303 13.5303L11.25 12.3107V16.5C11.25 16.9142 11.5858 17.25 12 17.25C12.4142 17.25 12.75 16.9142 12.75 16.5V12.3107L13.9697 13.5303Z" fill="#233043"/>
</svg>
