<svg width="24" height="24" viewBox="0 0 24 24" fill="none" xmlns="http://www.w3.org/2000/svg">
<path fill-rule="evenodd" clip-rule="evenodd" d="M7.25 12V5.75H6.5C6.08579 5.75 5.75 5.41421 5.75 5C5.75 4.58579 6.08579 4.25 6.5 4.25H8H9.5C9.91421 4.25 10.25 4.58579 10.25 5C10.25 5.41421 9.91421 5.75 9.5 5.75H8.75V12C8.75 13.7949 10.2051 15.25 12 15.25C13.7949 15.25 15.25 13.7949 15.25 12V5.75H14.5C14.0858 5.75 13.75 5.41421 13.75 5C13.75 4.58579 14.0858 4.25 14.5 4.25H16H17.5C17.9142 4.25 18.25 4.58579 18.25 5C18.25 5.41421 17.9142 5.75 17.5 5.75H16.75V12C16.75 14.6234 14.6234 16.75 12 16.75C9.37665 16.75 7.25 14.6234 7.25 12ZM5 18.25C4.58579 18.25 4.25 18.5858 4.25 19C4.25 19.4142 4.58579 19.75 5 19.75H19C19.4142 19.75 19.75 19.4142 19.75 19C19.75 18.5858 19.4142 18.25 19 18.25H5Z" fill="#233043"/>
</svg>
