<svg width="24" height="24" viewBox="0 0 24 24" fill="none" xmlns="http://www.w3.org/2000/svg">
<path fill-rule="evenodd" clip-rule="evenodd" d="M5.25 6.75C5.94036 6.75 6.5 6.19036 6.5 5.5C6.5 4.80964 5.94036 4.25 5.25 4.25C4.55964 4.25 4 4.80964 4 5.5C4 6.19036 4.55964 6.75 5.25 6.75ZM9 4.75C8.58579 4.75 8.25 5.08579 8.25 5.5C8.25 5.91421 8.58579 6.25 9 6.25H19C19.4142 6.25 19.75 5.91421 19.75 5.5C19.75 5.08579 19.4142 4.75 19 4.75H9ZM9 10.75C8.58579 10.75 8.25 11.0858 8.25 11.5C8.25 11.9142 8.58579 12.25 9 12.25H19C19.4142 12.25 19.75 11.9142 19.75 11.5C19.75 11.0858 19.4142 10.75 19 10.75H9ZM8.25 17.5C8.25 17.0858 8.58579 16.75 9 16.75H19C19.4142 16.75 19.75 17.0858 19.75 17.5C19.75 17.9142 19.4142 18.25 19 18.25H9C8.58579 18.25 8.25 17.9142 8.25 17.5ZM6.5 11.5C6.5 12.1904 5.94036 12.75 5.25 12.75C4.55964 12.75 4 12.1904 4 11.5C4 10.8096 4.55964 10.25 5.25 10.25C5.94036 10.25 6.5 10.8096 6.5 11.5ZM5.25 18.75C5.94036 18.75 6.5 18.1904 6.5 17.5C6.5 16.8096 5.94036 16.25 5.25 16.25C4.55964 16.25 4 16.8096 4 17.5C4 18.1904 4.55964 18.75 5.25 18.75Z" fill="#233043"/>
</svg>
