<svg width="24" height="24" viewBox="0 0 24 24" fill="none" xmlns="http://www.w3.org/2000/svg">
<path fill-rule="evenodd" clip-rule="evenodd" d="M9.46875 8.0625C9.46875 6.66453 10.602 5.53125 12 5.53125C13.398 5.53125 14.5312 6.66453 14.5312 8.0625C14.5312 9.46047 13.398 10.5937 12 10.5937C10.602 10.5937 9.46875 9.46047 9.46875 8.0625ZM12 4.03125C9.7736 4.03125 7.96875 5.8361 7.96875 8.0625C7.96875 10.2889 9.7736 12.0937 12 12.0937C14.2264 12.0937 16.0312 10.2889 16.0312 8.0625C16.0312 5.8361 14.2264 4.03125 12 4.03125ZM9.74573 13.2188C7.39852 13.2188 5.49573 15.1215 5.49573 17.4687V18.7812C5.49573 19.4371 6.02739 19.9688 6.68323 19.9688H17.3167C17.9725 19.9688 18.5042 19.4371 18.5042 18.7812V17.4687C18.5042 15.1215 16.6014 13.2188 14.2542 13.2188H9.74573ZM6.99573 17.4687C6.99573 15.95 8.22694 14.7188 9.74573 14.7188H14.2542C15.773 14.7188 17.0042 15.95 17.0042 17.4687V18.4688H6.99573V17.4687Z" fill="#233043"/>
</svg>
