<svg width="24" height="24" viewBox="0 0 24 24" fill="none" xmlns="http://www.w3.org/2000/svg">
<path fill-rule="evenodd" clip-rule="evenodd" d="M4.5 3.75C3.80964 3.75 3.25 4.30964 3.25 5V18C3.25 18.6904 3.80964 19.25 4.5 19.25H19.5C20.1904 19.25 20.75 18.6904 20.75 18V5C20.75 4.30964 20.1904 3.75 19.5 3.75H4.5ZM4.75 17.75V5.25H19.25V17.75H4.75ZM10.3975 8.364C10.1663 8.2195 9.87489 8.21185 9.63642 8.34402C9.39796 8.47619 9.25 8.72736 9.25 9V14C9.25 14.2726 9.39796 14.5238 9.63642 14.656C9.87489 14.7882 10.1663 14.7805 10.3975 14.636L14.3975 12.136C14.6168 11.9989 14.75 11.7586 14.75 11.5C14.75 11.2414 14.6168 11.0011 14.3975 10.864L10.3975 8.364ZM12.5849 11.5L10.75 12.6468V10.3532L12.5849 11.5Z" fill="#233043"/>
</svg>
