<svg width="24" height="24" viewBox="0 0 24 24" fill="none" xmlns="http://www.w3.org/2000/svg">
<path fill-rule="evenodd" clip-rule="evenodd" d="M4 17.0947V6.90527H16.75V17.0947H4ZM2.5 6.40527C2.5 5.85299 2.94772 5.40527 3.5 5.40527H17.25C17.8023 5.40527 18.25 5.85299 18.25 6.40527V9.10577L21 7.51804C21.6667 7.13314 22.5 7.61427 22.5 8.38407V15.6159C22.5 16.3857 21.6667 16.8668 21 16.4819L18.25 14.8942V17.5947C18.25 18.147 17.8023 18.5947 17.25 18.5947H3.5C2.94772 18.5947 2.5 18.147 2.5 17.5947V6.40527ZM18.25 13.1622L21 14.7499V9.25009L18.25 10.8378V13.1622Z" fill="#233043"/>
</svg>
