<svg width="24" height="24" viewBox="0 0 24 24" fill="none" xmlns="http://www.w3.org/2000/svg">
<path fill-rule="evenodd" clip-rule="evenodd" d="M5.00103 3.24967C4.70814 2.95678 4.23327 2.95678 3.94037 3.24967C3.64748 3.54256 3.64748 4.01744 3.94037 4.31033L5.03533 5.40528H3.5C2.94772 5.40528 2.5 5.853 2.5 6.40528V17.5947C2.5 18.147 2.94772 18.5947 3.5 18.5947H17.25C17.5197 18.5947 17.7645 18.488 17.9444 18.3143L19.8503 20.2202C20.1432 20.5131 20.618 20.5131 20.9109 20.2202C21.2038 19.9273 21.2038 19.4525 20.9109 19.1596L5.00103 3.24967ZM16.7248 17.0947L6.53533 6.90528H4V17.0947H16.7248ZM16.75 6.90528V13.2793L18.5219 15.0512L21 16.482C21.6667 16.8669 22.5 16.3857 22.5 15.6159V8.38408C22.5 7.61428 21.6667 7.13315 21 7.51805L18.25 9.10578V6.40528C18.25 5.853 17.8023 5.40528 17.25 5.40528H8.87598L10.376 6.90528H16.75ZM18.25 13.1622L21 14.7499V9.2501L18.25 10.8378V13.1622Z" fill="#233043"/>
</svg>
