<svg width="24" height="24" viewBox="0 0 24 24" fill="none" xmlns="http://www.w3.org/2000/svg">
<path fill-rule="evenodd" clip-rule="evenodd" d="M3.25 6.5C3.25 5.80964 3.80964 5.25 4.5 5.25H19.5C20.1904 5.25 20.75 5.80964 20.75 6.5V19.5C20.75 20.1904 20.1904 20.75 19.5 20.75H4.5C3.80964 20.75 3.25 20.1904 3.25 19.5V6.5ZM4.75 6.75V19.25H19.25V6.75H4.75Z" fill="#233043"/>
<path fill-rule="evenodd" clip-rule="evenodd" d="M8 3.25C8.41421 3.25 8.75 3.58579 8.75 4V7C8.75 7.41421 8.41421 7.75 8 7.75C7.58579 7.75 7.25 7.41421 7.25 7V4C7.25 3.58579 7.58579 3.25 8 3.25Z" fill="#233043"/>
<path fill-rule="evenodd" clip-rule="evenodd" d="M12 9.26624C12.4142 9.26624 12.75 9.60202 12.75 10.0162V15.9838C12.75 16.398 12.4142 16.7338 12 16.7338C11.5858 16.7338 11.25 16.398 11.25 15.9838V10.0162C11.25 9.60202 11.5858 9.26624 12 9.26624Z" fill="#233043"/>
<path fill-rule="evenodd" clip-rule="evenodd" d="M8.2662 13C8.2662 12.5858 8.60199 12.25 9.0162 12.25H14.9838C15.398 12.25 15.7338 12.5858 15.7338 13C15.7338 13.4142 15.398 13.75 14.9838 13.75H9.0162C8.60199 13.75 8.2662 13.4142 8.2662 13Z" fill="#233043"/>
<path fill-rule="evenodd" clip-rule="evenodd" d="M16 3.25C16.4142 3.25 16.75 3.58579 16.75 4V7C16.75 7.41421 16.4142 7.75 16 7.75C15.5858 7.75 15.25 7.41421 15.25 7V4C15.25 3.58579 15.5858 3.25 16 3.25Z" fill="#233043"/>
</svg>
