<svg width="24" height="25" viewBox="0 0 24 25" fill="none" xmlns="http://www.w3.org/2000/svg">
<g clip-path="url(#clip0)">
<path d="M5 7.5H19" stroke="#233043" stroke-width="1.5" stroke-linecap="round" stroke-linejoin="round"/>
<path d="M10 10.5V16.5" stroke="#233043" stroke-width="1.5" stroke-linecap="round" stroke-linejoin="round"/>
<path d="M14 10.5V16.5" stroke="#233043" stroke-width="1.5" stroke-linecap="round" stroke-linejoin="round"/>
<path d="M14.5 7.5H9.5C9.22386 7.5 9 7.27614 9 7V5C9 4.72386 9.22386 4.5 9.5 4.5H14.5C14.7761 4.5 15 4.72386 15 5V7C15 7.27614 14.7761 7.5 14.5 7.5Z" stroke="#233043" stroke-width="1.5" stroke-linecap="round" stroke-linejoin="round"/>
<path d="M6 7.5V20C6 20.2761 6.22386 20.5 6.5 20.5H17.5C17.7761 20.5 18 20.2761 18 20V7.5" stroke="#233043" stroke-width="1.5"/>
</g>
<defs>
<clipPath id="clip0">
<rect width="24" height="24" fill="white" transform="translate(0 0.5)"/>
</clipPath>
</defs>
</svg>
