<svg width="25" height="25" viewBox="0 0 25 25" fill="none" xmlns="http://www.w3.org/2000/svg">
<g clip-path="url(#clip0)">
<path d="M5.5 7.5H19.5" stroke="#233043" stroke-width="1.5" stroke-linecap="round" stroke-linejoin="round"/>
<path d="M10.5 10.5V16.5" stroke="#233043" stroke-width="1.5" stroke-linecap="round" stroke-linejoin="round"/>
<path d="M14.5 10.5V16.5" stroke="#233043" stroke-width="1.5" stroke-linecap="round" stroke-linejoin="round"/>
<path d="M15 7.5H10C9.72386 7.5 9.5 7.27614 9.5 7V5C9.5 4.72386 9.72386 4.5 10 4.5H15C15.2761 4.5 15.5 4.72386 15.5 5V7C15.5 7.27614 15.2761 7.5 15 7.5Z" stroke="#233043" stroke-width="1.5" stroke-linecap="round" stroke-linejoin="round"/>
<path d="M6.5 7.5V20C6.5 20.2761 6.72386 20.5 7 20.5H18C18.2761 20.5 18.5 20.2761 18.5 20V7.5" stroke="#233043" stroke-width="1.5"/>
</g>
<defs>
<clipPath id="clip0">
<rect width="24" height="24" fill="white" transform="translate(0.5 0.5)"/>
</clipPath>
</defs>
</svg>
