<svg width="25" height="25" viewBox="0 0 25 25" fill="none" xmlns="http://www.w3.org/2000/svg">
<path d="M5.5 10.5L5.01191 9.93056C4.84567 10.073 4.75 10.2811 4.75 10.5H5.5ZM12.5 4.5L12.9881 3.93056C12.7072 3.68981 12.2928 3.68981 12.0119 3.93056L12.5 4.5ZM5.5 20.5H4.75C4.75 20.9142 5.08579 21.25 5.5 21.25V20.5ZM10.5 20.5V21.25C10.9142 21.25 11.25 20.9142 11.25 20.5H10.5ZM10.5 14.5V13.75C10.0858 13.75 9.75 14.0858 9.75 14.5H10.5ZM14.5 14.5H15.25C15.25 14.0858 14.9142 13.75 14.5 13.75V14.5ZM14.5 20.5H13.75C13.75 20.9142 14.0858 21.25 14.5 21.25V20.5ZM19.5 20.5V21.25C19.9142 21.25 20.25 20.9142 20.25 20.5H19.5ZM19.5 10.5H20.25C20.25 10.2811 20.1543 10.073 19.9881 9.93056L19.5 10.5ZM5.98809 11.0694L12.9881 5.06944L12.0119 3.93056L5.01191 9.93056L5.98809 11.0694ZM6.25 20.5V10.5H4.75V20.5H6.25ZM10.5 19.75H5.5V21.25H10.5V19.75ZM11.25 20.5V14.5H9.75V20.5H11.25ZM10.5 15.25H14.5V13.75H10.5V15.25ZM13.75 14.5V20.5H15.25V14.5H13.75ZM19.5 19.75H14.5V21.25H19.5V19.75ZM18.75 10.5V20.5H20.25V10.5H18.75ZM12.0119 5.06944L19.0119 11.0694L19.9881 9.93056L12.9881 3.93056L12.0119 5.06944Z" fill="#233043"/>
</svg>
