<svg width="24" height="24" viewBox="0 0 24 24" fill="none" xmlns="http://www.w3.org/2000/svg">
<path fill-rule="evenodd" clip-rule="evenodd" d="M11.7899 5.03234C11.6444 5.02114 11.5012 5.0741 11.398 5.17731L3.42889 13.1464C3.23363 13.3417 3.23363 13.6583 3.42889 13.8535L10.1464 20.571C10.3417 20.7663 10.6582 20.7663 10.8535 20.571L18.8226 12.6019C18.9258 12.4987 18.9788 12.3556 18.9676 12.21L18.4878 5.97234C18.4689 5.72645 18.2735 5.53108 18.0276 5.51216L11.7899 5.03234ZM14.0796 9.92035C14.4701 10.3109 15.1033 10.3109 15.4938 9.92035C15.8844 9.52983 15.8844 8.89666 15.4938 8.50614C15.1033 8.11561 14.4701 8.11561 14.0796 8.50614C13.6891 8.89666 13.6891 9.52983 14.0796 9.92035Z" fill="#233043"/>
</svg>
