<svg width="24" height="24" viewBox="0 0 24 24" fill="none" xmlns="http://www.w3.org/2000/svg">
<path d="M8.00003 8C8.00003 5.79086 9.79089 4 12 4V4C14.2092 4 16 5.79086 16 8V9.95489C16 9.9798 15.9798 10 15.9549 10H8.04514C8.02023 10 8.00003 9.9798 8.00003 9.95489V8Z" stroke="#233043" stroke-width="1.5" stroke-linecap="round" stroke-linejoin="round"/>
<path fill-rule="evenodd" clip-rule="evenodd" d="M4.71698 9C4.30277 9 3.96698 9.33579 3.96698 9.75V20.25C3.96698 20.6642 4.30277 21 4.71698 21H19.283C19.6972 21 20.033 20.6642 20.033 20.25V9.75C20.033 9.33579 19.6972 9 19.283 9H4.71698ZM12.9999 14.0001C12.9999 14.3472 12.8231 14.653 12.5547 14.8323L13.6545 16.482C13.8022 16.7035 13.6434 17.0002 13.3772 17.0002H10.6228C10.3566 17.0002 10.1978 16.7035 10.3455 16.482L11.4453 14.8323C11.1768 14.653 10.9999 14.3472 10.9999 14.0001C10.9999 13.4478 11.4476 13.0001 11.9999 13.0001C12.5522 13.0001 12.9999 13.4478 12.9999 14.0001Z" fill="#233043"/>
</svg>
