<svg width="25" height="24" viewBox="0 0 25 24" fill="none" xmlns="http://www.w3.org/2000/svg">
<path d="M17.5027 13.5C17.7788 13.5 18.0019 13.7246 17.9824 14.0001C17.726 17.6327 14.6979 20.5 11 20.5C7.13401 20.5 4 17.366 4 13.5C4 9.80215 6.86733 6.77399 10.4999 6.51759C10.7754 6.49814 11 6.7237 11 6.99984C11 8.52278 11 11.7606 11 13.0016C11 13.2777 11.2209 13.5 11.4971 13.5C12.7644 13.5 16.1136 13.5 17.5027 13.5Z" stroke="#233043" stroke-width="1.5" stroke-linecap="round" stroke-linejoin="round"/>
<path d="M20.9824 9.99993C21.0019 10.2754 20.7756 10.5 20.4994 10.5C17.7691 10.5 15.4711 10.5 14.4982 10.5C14.2221 10.5 14 10.2741 14 9.99795C14 6.82899 14 5.8751 14 4.00082C14 3.72468 14.2246 3.49814 14.5001 3.51759C17.9675 3.76233 20.7377 6.5325 20.9824 9.99993Z" stroke="#233043" stroke-width="1.5" stroke-linecap="round" stroke-linejoin="round"/>
</svg>
