<svg width="24" height="24" viewBox="0 0 24 24" fill="none" xmlns="http://www.w3.org/2000/svg">
<path d="M15.0002 5H5.33358C5.14948 5 5.00024 5.14924 5.00024 5.33333V18.6667C5.00024 18.8508 5.14948 19 5.33358 19H11.7138M15.0002 5L19.0002 9M15.0002 5V8.66667C15.0002 8.85076 15.1495 9 15.3336 9H19.0002M19.0002 9V10.7196" stroke="#233043" stroke-width="1.5" stroke-linecap="round" stroke-linejoin="round"/>
<path d="M9 9H11" stroke="#233043" stroke-width="1.5" stroke-linecap="round" stroke-linejoin="round"/>
<path d="M9 12H15" stroke="#233043" stroke-width="1.5" stroke-linecap="round" stroke-linejoin="round"/>
<path d="M9 15H12" stroke="#233043" stroke-width="1.5" stroke-linecap="round" stroke-linejoin="round"/>
<rect x="15" y="16.2612" width="6.44245" height="4.60175" rx="0.333333" stroke="#233043" stroke-width="1.5" stroke-linecap="round" stroke-linejoin="round"/>
<path d="M16.3806 15.3407C16.3806 14.3241 17.2047 13.5 18.2213 13.5V13.5C19.2378 13.5 20.062 14.3241 20.062 15.3407V16.2403C20.062 16.2518 20.0527 16.261 20.0412 16.261H16.4013C16.3898 16.261 16.3806 16.2518 16.3806 16.2403V15.3407Z" stroke="#233043" stroke-width="1.5" stroke-linecap="round" stroke-linejoin="round"/>
</svg>
