<svg width="25" height="25" viewBox="0 0 25 25" fill="none" xmlns="http://www.w3.org/2000/svg">
<path d="M11.5625 4.0625V3.3125C11.2625 3.3125 10.9913 3.4913 10.8731 3.76706L11.5625 4.0625ZM10.645 6.20335L10.8566 6.92287C11.0711 6.85978 11.2463 6.70428 11.3344 6.49878L10.645 6.20335ZM13.4375 4.0625L14.1269 3.76706C14.0087 3.4913 13.7375 3.3125 13.4375 3.3125V4.0625ZM14.355 6.20335L13.6656 6.49878C13.7537 6.70428 13.9289 6.85978 14.1434 6.92287L14.355 6.20335ZM15.6402 6.73616L15.2808 7.39444C15.4771 7.50163 15.7111 7.51559 15.9187 7.43252L15.6402 6.73616ZM17.8034 5.87089L18.3337 5.34056C18.1216 5.12841 17.8034 5.06311 17.5248 5.17453L17.8034 5.87089ZM19.1292 7.19671L19.8256 7.47526C19.937 7.19669 19.8717 6.87853 19.6595 6.66638L19.1292 7.19671ZM18.2639 9.35993L17.5676 9.08138C17.4845 9.28906 17.4984 9.52298 17.6056 9.71931L18.2639 9.35993ZM18.7967 10.645L18.0771 10.8566C18.1402 11.0711 18.2957 11.2463 18.5012 11.3344L18.7967 10.645ZM20.9375 11.5625H21.6875C21.6875 11.2625 21.5087 10.9913 21.2329 10.8731L20.9375 11.5625ZM20.9375 13.4375L21.2329 14.1269C21.5087 14.0087 21.6875 13.7375 21.6875 13.4375H20.9375ZM18.7967 14.355L18.5012 13.6656C18.2957 13.7537 18.1402 13.9289 18.0771 14.1434L18.7967 14.355ZM18.2639 15.6401L17.6056 15.2807C17.4984 15.477 17.4845 15.7109 17.5675 15.9186L18.2639 15.6401ZM19.1292 17.8033L19.6595 18.3336C19.8717 18.1215 19.937 17.8033 19.8256 17.5248L19.1292 17.8033ZM17.8034 19.1291L17.5248 19.8255C17.8034 19.9369 18.1216 19.8716 18.3337 19.6595L17.8034 19.1291ZM15.6402 18.2639L15.9187 17.5675C15.711 17.4844 15.4771 17.4984 15.2808 17.6056L15.6402 18.2639ZM14.355 18.7967L14.1434 18.0771C13.9289 18.1402 13.7537 18.2957 13.6656 18.5012L14.355 18.7967ZM13.4375 20.9375V21.6875C13.7375 21.6875 14.0087 21.5087 14.1269 21.2329L13.4375 20.9375ZM11.5625 20.9375L10.8731 21.2329C10.9913 21.5087 11.2625 21.6875 11.5625 21.6875V20.9375ZM10.645 18.7967L11.3344 18.5012C11.2463 18.2957 11.0711 18.1402 10.8566 18.0771L10.645 18.7967ZM9.35987 18.2639L9.71926 17.6056C9.52294 17.4984 9.28901 17.4844 9.08133 17.5675L9.35987 18.2639ZM7.19676 19.1291L6.66643 19.6595C6.87858 19.8716 7.19674 19.9369 7.4753 19.8255L7.19676 19.1291ZM5.87093 17.8033L5.17458 17.5248C5.06315 17.8033 5.12846 18.1215 5.3406 18.3336L5.87093 17.8033ZM6.73617 15.6402L7.43253 15.9188C7.5156 15.7111 7.50164 15.4771 7.39445 15.2808L6.73617 15.6402ZM6.20335 14.355L6.92287 14.1434C6.85978 13.9289 6.70428 13.7537 6.49878 13.6656L6.20335 14.355ZM4.0625 13.4375H3.3125C3.3125 13.7375 3.4913 14.0087 3.76706 14.1269L4.0625 13.4375ZM4.0625 11.5625L3.76706 10.8731C3.4913 10.9913 3.3125 11.2625 3.3125 11.5625H4.0625ZM6.20335 10.645L6.49878 11.3344C6.70428 11.2463 6.85978 11.0711 6.92287 10.8566L6.20335 10.645ZM6.73617 9.35979L7.39445 9.71919C7.50164 9.52286 7.5156 9.28893 7.43253 9.08124L6.73617 9.35979ZM5.87093 7.1967L5.3406 6.66637C5.12846 6.87852 5.06315 7.19668 5.17458 7.47524L5.87093 7.1967ZM7.19676 5.87087L7.4753 5.17452C7.19674 5.06309 6.87858 5.1284 6.66643 5.34054L7.19676 5.87087ZM9.35987 6.73612L9.08133 7.43248C9.28901 7.51555 9.52294 7.50159 9.71926 7.3944L9.35987 6.73612ZM10.8731 3.76706L9.95564 5.90791L11.3344 6.49878L12.2519 4.35794L10.8731 3.76706ZM13.4375 3.3125H11.5625V4.8125H13.4375V3.3125ZM15.0444 5.90791L14.1269 3.76706L12.7481 4.35794L13.6656 6.49878L15.0444 5.90791ZM15.9996 6.07788C15.5488 5.83174 15.069 5.63158 14.5666 5.48382L14.1434 6.92287C14.5419 7.04007 14.9227 7.19891 15.2808 7.39444L15.9996 6.07788ZM17.5248 5.17453L15.3617 6.0398L15.9187 7.43252L18.0819 6.56725L17.5248 5.17453ZM19.6595 6.66638L18.3337 5.34056L17.273 6.40122L18.5989 7.72704L19.6595 6.66638ZM18.9603 9.63847L19.8256 7.47526L18.4328 6.91817L17.5676 9.08138L18.9603 9.63847ZM19.5162 10.4334C19.3684 9.93106 19.1683 9.45133 18.9222 9.00054L17.6056 9.71931C17.8011 10.0774 17.9599 10.4582 18.0771 10.8566L19.5162 10.4334ZM21.2329 10.8731L19.0921 9.95564L18.5012 11.3344L20.6421 12.2519L21.2329 10.8731ZM21.6875 13.4375V11.5625H20.1875V13.4375H21.6875ZM19.0921 15.0444L21.2329 14.1269L20.6421 12.7481L18.5012 13.6656L19.0921 15.0444ZM18.9222 15.9995C19.1683 15.5487 19.3684 15.0689 19.5162 14.5666L18.0771 14.1434C17.9599 14.5418 17.8011 14.9226 17.6056 15.2807L18.9222 15.9995ZM19.8256 17.5248L18.9603 15.3615L17.5675 15.9186L18.4328 18.0819L19.8256 17.5248ZM18.3337 19.6595L19.6595 18.3336L18.5989 17.273L17.273 18.5988L18.3337 19.6595ZM15.3616 18.9602L17.5248 19.8255L18.0819 18.4328L15.9187 17.5675L15.3616 18.9602ZM14.5666 19.5162C15.069 19.3684 15.5487 19.1683 15.9996 18.9221L15.2808 17.6056C14.9226 17.8011 14.5419 17.9599 14.1434 18.0771L14.5666 19.5162ZM14.1269 21.2329L15.0444 19.0921L13.6656 18.5012L12.7481 20.6421L14.1269 21.2329ZM11.5625 21.6875H13.4375V20.1875H11.5625V21.6875ZM9.95564 19.0921L10.8731 21.2329L12.2519 20.6421L11.3344 18.5012L9.95564 19.0921ZM9.00048 18.9222C9.45129 19.1683 9.93104 19.3684 10.4334 19.5162L10.8566 18.0771C10.4582 17.9599 10.0774 17.8011 9.71926 17.6056L9.00048 18.9222ZM7.4753 19.8255L9.63842 18.9602L9.08133 17.5675L6.91822 18.4328L7.4753 19.8255ZM5.3406 18.3336L6.66643 19.6595L7.72709 18.5988L6.40126 17.273L5.3406 18.3336ZM6.03981 15.3617L5.17458 17.5248L6.56729 18.0818L7.43253 15.9188L6.03981 15.3617ZM5.48382 14.5666C5.63158 15.069 5.83175 15.5488 6.07789 15.9996L7.39445 15.2808C7.19891 14.9227 7.04008 14.5419 6.92287 14.1434L5.48382 14.5666ZM3.76706 14.1269L5.90791 15.0444L6.49878 13.6656L4.35794 12.7481L3.76706 14.1269ZM3.3125 11.5625V13.4375H4.8125V11.5625H3.3125ZM5.90791 9.95564L3.76706 10.8731L4.35794 12.2519L6.49878 11.3344L5.90791 9.95564ZM6.07789 9.00038C5.83175 9.45122 5.63158 9.931 5.48382 10.4334L6.92287 10.8566C7.04008 10.4581 7.19891 10.0773 7.39445 9.71919L6.07789 9.00038ZM5.17458 7.47524L6.03981 9.63833L7.43253 9.08124L6.56729 6.91816L5.17458 7.47524ZM6.66643 5.34054L5.3406 6.66637L6.40126 7.72703L7.72709 6.40121L6.66643 5.34054ZM9.63842 6.03976L7.4753 5.17452L6.91822 6.56723L9.08133 7.43248L9.63842 6.03976ZM10.4334 5.48382C9.93104 5.63157 9.45129 5.83172 9.00048 6.07784L9.71926 7.3944C10.0774 7.19889 10.4582 7.04007 10.8566 6.92287L10.4334 5.48382ZM14.9375 12.5C14.9375 13.8462 13.8462 14.9375 12.5 14.9375V16.4375C14.6746 16.4375 16.4375 14.6746 16.4375 12.5H14.9375ZM12.5 10.0625C13.8462 10.0625 14.9375 11.1538 14.9375 12.5H16.4375C16.4375 10.3254 14.6746 8.5625 12.5 8.5625V10.0625ZM10.0625 12.5C10.0625 11.1538 11.1538 10.0625 12.5 10.0625V8.5625C10.3254 8.5625 8.5625 10.3254 8.5625 12.5H10.0625ZM12.5 14.9375C11.1538 14.9375 10.0625 13.8462 10.0625 12.5H8.5625C8.5625 14.6746 10.3254 16.4375 12.5 16.4375V14.9375Z" fill="#233043"/>
</svg>
