<svg width="24" height="24" viewBox="0 0 24 24" fill="none" xmlns="http://www.w3.org/2000/svg">
<path d="M16.4007 19.7132H18.9505C19.6409 19.7132 20.2005 19.1536 20.2005 18.4632V17.8989C20.2005 15.2755 18.0739 13.1489 15.4505 13.1489H14.5127C15.8518 14.2952 16.7005 15.9979 16.7005 17.8989V18.4632C16.7005 18.9133 16.5924 19.3382 16.4007 19.7132Z" fill="#233043"/>
<path d="M13.2849 11.9596C13.6342 12.0618 14.0038 12.1166 14.3861 12.1166C16.5485 12.1166 18.3014 10.3637 18.3014 8.20135C18.3014 6.03904 16.5485 4.28613 14.3861 4.28613C14.0038 4.28613 13.6342 4.34094 13.2849 4.44313C14.2239 5.41698 14.8014 6.74173 14.8014 8.20135C14.8014 9.66098 14.2239 10.9857 13.2849 11.9596Z" fill="#233043"/>
<circle cx="9.38617" cy="8.20135" r="3.16522" stroke="#233043" stroke-width="1.5" stroke-linecap="round" stroke-linejoin="round"/>
<path d="M4.32184 17.8989C4.32184 15.6898 6.1127 13.8989 8.32184 13.8989H10.4505C12.6597 13.8989 14.4505 15.6898 14.4505 17.8989V18.4633C14.4505 18.7394 14.2267 18.9633 13.9505 18.9633H4.82184C4.5457 18.9633 4.32184 18.7394 4.32184 18.4633V17.8989Z" stroke="#233043" stroke-width="1.5" stroke-linecap="round" stroke-linejoin="round"/>
</svg>
