<svg width="24" height="24" viewBox="0 0 24 24" fill="none" xmlns="http://www.w3.org/2000/svg">
<path d="M14 15.4649L13.6245 14.8157C13.3927 14.9497 13.25 15.1971 13.25 15.4649H14ZM10 15.4649H10.75C10.75 15.1971 10.6073 14.9497 10.3755 14.8157L10 15.4649ZM10 17H9.25C9.25 17.4142 9.58579 17.75 10 17.75V17ZM14 17V17.75C14.4142 17.75 14.75 17.4142 14.75 17H14ZM15.25 12C15.25 13.202 14.5978 14.2526 13.6245 14.8157L14.3755 16.1141C15.7934 15.2939 16.75 13.7591 16.75 12H15.25ZM12 8.75C13.7949 8.75 15.25 10.2051 15.25 12H16.75C16.75 9.37665 14.6234 7.25 12 7.25V8.75ZM8.75 12C8.75 10.2051 10.2051 8.75 12 8.75V7.25C9.37665 7.25 7.25 9.37665 7.25 12H8.75ZM10.3755 14.8157C9.40216 14.2526 8.75 13.202 8.75 12H7.25C7.25 13.7591 8.20663 15.2939 9.62446 16.1141L10.3755 14.8157ZM10.75 17V15.4649H9.25V17H10.75ZM14 16.25H10V17.75H14V16.25ZM13.25 15.4649V17H14.75V15.4649H13.25Z" fill="#233043"/>
<path d="M10 20H14" stroke="#233043" stroke-width="1.5" stroke-linecap="round" stroke-linejoin="round"/>
<path d="M12 5V3.5" stroke="#233043" stroke-width="1.5" stroke-linecap="round" stroke-linejoin="round"/>
<path d="M3.5 12H5" stroke="#233043" stroke-width="1.5" stroke-linecap="round" stroke-linejoin="round"/>
<path d="M19 12H20.5" stroke="#233043" stroke-width="1.5" stroke-linecap="round" stroke-linejoin="round"/>
<path d="M6.56066 7.06066L5.5 6" stroke="#233043" stroke-width="1.5" stroke-linecap="round" stroke-linejoin="round"/>
<path d="M17.4393 7.06066L18.5 6" stroke="#233043" stroke-width="1.5" stroke-linecap="round" stroke-linejoin="round"/>
</svg>
