<svg width="24" height="24" viewBox="0 0 24 24" fill="none" xmlns="http://www.w3.org/2000/svg">
<path d="M11.407 19V18.25V19ZM19.0919 19V19.75V19ZM19.4241 18.1263L18.9259 18.6869L19.4241 18.1263ZM17.106 16.0657L16.4958 15.6296C16.2728 15.9416 16.3211 16.3715 16.6077 16.6263L17.106 16.0657ZM5.15704 12C5.15704 8.54822 7.95526 5.75 11.407 5.75V4.25C7.12684 4.25 3.65704 7.71979 3.65704 12H5.15704ZM11.407 18.25C7.95526 18.25 5.15704 15.4518 5.15704 12H3.65704C3.65704 16.2802 7.12684 19.75 11.407 19.75V18.25ZM19.0919 18.25L11.407 18.25V19.75L19.0919 19.75V18.25ZM18.9259 18.6869C18.754 18.5341 18.8621 18.25 19.0919 18.25V19.75C20.2413 19.75 20.7815 18.3294 19.9224 17.5657L18.9259 18.6869ZM16.6077 16.6263L18.9259 18.6869L19.9224 17.5657L17.6042 15.5051L16.6077 16.6263ZM17.657 12C17.657 13.3546 17.227 14.6065 16.4958 15.6296L17.7161 16.5018C18.6232 15.2327 19.157 13.6776 19.157 12H17.657ZM11.407 5.75C14.8588 5.75 17.657 8.54822 17.657 12H19.157C19.157 7.71979 15.6872 4.25 11.407 4.25V5.75Z" fill="#233043"/>
</svg>
