<svg width="24" height="24" viewBox="0 0 24 24" fill="none" xmlns="http://www.w3.org/2000/svg">
<ellipse cx="8.38623" cy="8.20135" rx="3.16522" ry="3.16522" fill="#233043"/>
<path d="M3.32187 17.4242C3.32187 14.6273 5.58926 12.3599 8.38622 12.3599C11.1832 12.3599 13.4506 14.6273 13.4506 17.4242V18.5745C13.4506 18.789 13.2767 18.9629 13.0622 18.9629H3.71028C3.49577 18.9629 3.32187 18.789 3.32187 18.5745V17.4242Z" fill="#233043"/>
<path d="M11.7856 17.7028C11.7856 15.4124 13.6423 13.5557 15.9327 13.5557C18.2231 13.5557 20.0798 15.4124 20.0798 17.7028V18.6447C20.0798 18.8204 19.9374 18.9628 19.7618 18.9628H12.1037C11.928 18.9628 11.7856 18.8204 11.7856 18.6447V17.7028Z" fill="#233043"/>
<ellipse cx="15.9326" cy="10.0222" rx="2.33809" ry="2.33809" fill="#233043"/>
</svg>
