<svg width="24" height="24" viewBox="0 0 24 24" fill="none" xmlns="http://www.w3.org/2000/svg">
<path d="M8.06449 11.2L11.4481 4.89276C11.915 4.02243 13.2268 4.28384 13.3244 5.26667L13.71 9.14937C13.7354 9.40512 13.9506 9.59996 14.2076 9.59996H18.3558C18.5915 9.59733 18.8249 9.64516 19.0399 9.74013C19.2549 9.8351 19.4464 9.97495 19.601 10.15C19.7557 10.325 19.8698 10.531 19.9355 10.7538C20.0012 10.9765 20.017 11.2106 19.9816 11.4399L18.8598 18.6399C18.801 19.0214 18.6041 19.3692 18.3053 19.6191C18.0066 19.869 17.6261 20.0043 17.234 19.9999H8.06449M8.06449 11.2V19.9999M8.06449 11.2H5.6258C5.19461 11.2 4.78108 11.3685 4.47618 11.6686C4.17129 11.9686 4 12.3756 4 12.7999V18.3999C4 18.8242 4.17129 19.2312 4.47618 19.5313C4.78108 19.8313 5.19461 19.9999 5.6258 19.9999H8.06449" stroke="#233043" stroke-width="1.5" stroke-linecap="round" stroke-linejoin="round"/>
</svg>
