<svg width="24" height="24" viewBox="0 0 24 24" fill="none" xmlns="http://www.w3.org/2000/svg">
<path d="M8.06449 12.8L11.4481 19.1072C11.915 19.9776 13.2268 19.7162 13.3244 18.7333L13.71 14.8506C13.7354 14.5949 13.9506 14.4 14.2076 14.4H18.3558C18.5915 14.4027 18.8249 14.3548 19.0399 14.2599C19.2549 14.1649 19.4464 14.0251 19.601 13.85C19.7557 13.675 19.8698 13.469 19.9355 13.2462C20.0012 13.0235 20.017 12.7894 19.9816 12.5601L18.8598 5.3601C18.801 4.97858 18.6041 4.63082 18.3053 4.3809C18.0066 4.13098 17.6261 3.99574 17.234 4.00011H8.06449M8.06449 12.8V4.00011M8.06449 12.8H5.6258C5.19461 12.8 4.78108 12.6315 4.47618 12.3314C4.17129 12.0314 4 11.6244 4 11.2001V5.6001C4 5.17575 4.17129 4.76879 4.47618 4.46873C4.78108 4.16868 5.19461 4.00011 5.6258 4.00011H8.06449" stroke="#233043" stroke-width="1.5" stroke-linecap="round" stroke-linejoin="round"/>
</svg>
