<svg width="32" height="32" viewBox="0 0 32 32" fill="none" xmlns="http://www.w3.org/2000/svg">
<path d="M24.0001 28C26.2093 28 28.0001 26.2091 28.0001 24C28.0001 21.7909 26.2093 20 24.0001 20C21.791 20 20.0001 21.7909 20.0001 24C20.0001 26.2091 21.791 28 24.0001 28Z" fill="#FCC205"/>
<path d="M20.0001 6.66675H7.33341C6.96522 6.66675 6.66675 6.96522 6.66675 7.33341V24.6667C6.66675 25.0349 6.96523 25.3334 7.33342 25.3334H17.3334M20.0001 6.66675L25.3334 12.0001M20.0001 6.66675V11.3334C20.0001 11.7016 20.2986 12.0001 20.6667 12.0001H25.3334M25.3334 12.0001V17.3334" stroke="#233043" stroke-width="2" stroke-linecap="round" stroke-linejoin="round"/>
<path d="M12.0001 12H14.6668" stroke="#233043" stroke-width="2" stroke-linecap="round" stroke-linejoin="round"/>
<path d="M12.0001 16H20.0001" stroke="#233043" stroke-width="2" stroke-linecap="round" stroke-linejoin="round"/>
<path d="M12.0001 20H16.0001" stroke="#233043" stroke-width="2" stroke-linecap="round" stroke-linejoin="round"/>
</svg>
