<svg width="32" height="33" viewBox="0 0 32 33" fill="none" xmlns="http://www.w3.org/2000/svg">
<path fill-rule="evenodd" clip-rule="evenodd" d="M6.08325 8.00391C5.91612 8.00391 5.76176 8.05857 5.63708 8.151C5.32641 8.38129 5.67011 8.73892 5.99748 8.94478C6.05265 8.97947 6.10581 9.01893 6.15641 9.06321L15.539 17.2731C15.8029 17.504 16.197 17.504 16.4609 17.2731L25.8435 9.06321C25.8941 9.01894 25.9472 8.97948 26.0024 8.94479C26.3297 8.73893 26.6734 8.3813 26.3628 8.15101C26.2381 8.05858 26.0837 8.00391 25.9166 8.00391H6.08325ZM26.6666 13.2076C26.6666 12.6062 25.9582 12.2847 25.5056 12.6808L17.2621 19.894C16.5394 20.5263 15.4604 20.5263 14.7378 19.894L6.49421 12.6807C6.0416 12.2847 5.33325 12.6061 5.33325 13.2075V23.2539C5.33325 23.6681 5.66904 24.0039 6.08325 24.0039H25.9166C26.3308 24.0039 26.6666 23.6681 26.6666 23.2539V13.2076Z" fill="#233043"/>
</svg>
