<svg width="32" height="32" viewBox="0 0 32 32" fill="none" xmlns="http://www.w3.org/2000/svg">
<path fill-rule="evenodd" clip-rule="evenodd" d="M26.6666 16C26.6666 21.891 21.891 26.6666 15.9999 26.6666C10.1089 26.6666 5.33325 21.891 5.33325 16C5.33325 10.1089 10.1089 5.33331 15.9999 5.33331C21.891 5.33331 26.6666 10.1089 26.6666 16ZM16 10.6926C14.463 10.6926 13.217 11.9386 13.217 13.4756C13.217 14.0279 12.7693 14.4756 12.217 14.4756C11.6648 14.4756 11.217 14.0279 11.217 13.4756C11.217 10.834 13.3584 8.69263 16 8.69263C18.6415 8.69263 20.7829 10.834 20.7829 13.4756C20.7829 15.7745 19.1618 17.6934 17 18.1536V19.15C17 19.7023 16.5523 20.15 16 20.15C15.4477 20.15 15 19.7023 15 19.15V17.7585C15 16.9015 15.6795 16.3252 16.3682 16.2345C17.7308 16.055 18.7829 14.8873 18.7829 13.4756C18.7829 11.9386 17.537 10.6926 16 10.6926ZM16 24.4426C16.8284 24.4426 17.5 23.771 17.5 22.9426C17.5 22.1141 16.8284 21.4426 16 21.4426C15.1716 21.4426 14.5 22.1141 14.5 22.9426C14.5 23.771 15.1716 24.4426 16 24.4426Z" fill="#233043"/>
</svg>
