<svg width="32" height="33" viewBox="0 0 32 33" fill="none" xmlns="http://www.w3.org/2000/svg">
<path d="M10.6667 10.6707C10.6667 7.72522 13.0546 5.3374 16.0001 5.3374V5.3374C18.9456 5.3374 21.3334 7.72522 21.3334 10.6707V13.2773C21.3334 13.3105 21.3065 13.3374 21.2733 13.3374H10.7269C10.6937 13.3374 10.6667 13.3105 10.6667 13.2773V10.6707Z" stroke="#233043" stroke-width="2" stroke-linecap="round" stroke-linejoin="round"/>
<path fill-rule="evenodd" clip-rule="evenodd" d="M6.03931 12.0039C5.62509 12.0039 5.28931 12.3397 5.28931 12.7539V27.2539C5.28931 27.6681 5.62509 28.0039 6.03931 28.0039H25.9607C26.3749 28.0039 26.7107 27.6681 26.7107 27.2539V12.7539C26.7107 12.3397 26.3749 12.0039 25.9607 12.0039H6.03931ZM17.3332 18.6707C17.3332 19.1335 17.0975 19.5412 16.7396 19.7803L18.3212 22.1527C18.4689 22.3742 18.3101 22.6709 18.0438 22.6709H13.9562C13.69 22.6709 13.5312 22.3742 13.6788 22.1527L15.2604 19.7803C14.9024 19.5413 14.6666 19.1335 14.6666 18.6707C14.6666 17.9344 15.2635 17.3374 15.9999 17.3374C16.7363 17.3374 17.3332 17.9344 17.3332 18.6707Z" fill="#233043"/>
</svg>
