<svg width="32" height="33" viewBox="0 0 32 33" fill="none" xmlns="http://www.w3.org/2000/svg">
<path d="M6.66675 13.3371V25.0037C6.66675 25.1878 6.81599 25.3371 7.00008 25.3371H14.0001M6.66675 13.3371V7.00374C6.66675 6.81965 6.81599 6.67041 7.00008 6.67041H16.0001M6.66675 13.3371H14.0001M18.8059 13.3371H14.0001M14.0001 13.3371V25.3371M14.0001 25.3371H25.0001C25.1842 25.3371 25.3334 25.1878 25.3334 25.0037V14.5677" stroke="#233043" stroke-width="2" stroke-linecap="round" stroke-linejoin="round"/>
<path d="M23.3335 12.0039C25.5426 12.0039 27.3335 10.213 27.3335 8.00391C27.3335 5.79477 25.5426 4.00391 23.3335 4.00391C21.1244 4.00391 19.3335 5.79477 19.3335 8.00391C19.3335 10.213 21.1244 12.0039 23.3335 12.0039Z" fill="#FF5971"/>
</svg>
