<svg width="32" height="32" viewBox="0 0 32 32" fill="none" xmlns="http://www.w3.org/2000/svg">
<path d="M12.0002 8H25.3336" stroke="#233043" stroke-width="2" stroke-linecap="round" stroke-linejoin="round"/>
<path d="M6.66675 6V10" stroke="#233043" stroke-width="1.33333" stroke-linecap="round" stroke-linejoin="round"/>
<path d="M12.0002 16H25.3336" stroke="#233043" stroke-width="2" stroke-linecap="round" stroke-linejoin="round"/>
<path d="M5.3335 15.3333C5.3335 14.8889 5.60016 14 6.66683 14C7.7335 14 8.00016 14.8889 8.00016 15.3333C8.00016 16.6667 5.3335 18 5.3335 18H8.00016" stroke="#233043" stroke-width="1.33333" stroke-linecap="round" stroke-linejoin="round"/>
<path d="M12.0002 24H25.3336" stroke="#233043" stroke-width="2" stroke-linecap="round" stroke-linejoin="round"/>
<path d="M5.3335 22C6.00016 22 5.60016 22 6.66683 22C7.7335 22 8.00016 22 8.00016 22C7.3335 22.6667 7.3335 22.6667 6.66683 23.3333C6.66683 23.3333 8.00016 23.3333 8.00016 24.6667C8.00016 26 6.75322 26 6.66683 26C5.3335 26 5.3335 25 5.3335 25" stroke="#233043" stroke-width="1.33333" stroke-linecap="round" stroke-linejoin="round"/>
</svg>
