<svg width="32" height="32" viewBox="0 0 32 32" fill="none" xmlns="http://www.w3.org/2000/svg">
<path d="M20 6.66663H7.33329C6.9651 6.66663 6.66663 6.9651 6.66663 7.33329V24.6666C6.66663 25.0348 6.9651 25.3333 7.33329 25.3333H24.6666C25.0348 25.3333 25.3333 25.0348 25.3333 24.6666V12M20 6.66663L25.3333 12M20 6.66663V11.3333C20 11.7015 20.2984 12 20.6666 12H25.3333" stroke="#233043" stroke-width="2" stroke-linecap="round" stroke-linejoin="round"/>
<path d="M9.58261 21H10.659V19.3494H11.5638C12.7346 19.3494 13.4157 18.6509 13.4157 17.6342C13.4157 16.6225 12.747 15.9091 11.5911 15.9091H9.58261V21ZM10.659 18.4869V16.7891H11.3848C12.0063 16.7891 12.307 17.1271 12.307 17.6342C12.307 18.1388 12.0063 18.4869 11.3898 18.4869H10.659ZM15.9195 21C17.4707 21 18.4103 20.0405 18.4103 18.4496C18.4103 16.8636 17.4707 15.9091 15.9344 15.9091H14.1148V21H15.9195ZM15.1912 20.0778V16.8313H15.8773C16.8318 16.8313 17.3364 17.3185 17.3364 18.4496C17.3364 19.5856 16.8318 20.0778 15.8748 20.0778H15.1912ZM19.2076 21H20.284V18.897H22.3546V18.0096H20.284V16.7965H22.5783V15.9091H19.2076V21Z" fill="#233043"/>
</svg>
