<svg width="32" height="32" viewBox="0 0 32 32" fill="none" xmlns="http://www.w3.org/2000/svg">
<path d="M22.6702 18.0001C23.0384 18.0001 23.3358 18.2996 23.3098 18.6668C22.968 23.5103 18.9304 27.3334 14 27.3334C8.8453 27.3334 4.66663 23.1547 4.66663 18.0001C4.66663 13.0696 8.48973 9.03207 13.3332 8.6902C13.7005 8.66427 14 8.96501 14 9.3332C14 11.3638 14 15.6809 14 17.3355C14 17.7037 14.2946 18.0001 14.6627 18.0001C16.3524 18.0001 20.8181 18.0001 22.6702 18.0001Z" stroke="#233043" stroke-width="2" stroke-linecap="round" stroke-linejoin="round"/>
<path d="M27.3099 13.3333C27.3358 13.7006 27.0341 14.0001 26.6659 14.0001C23.0254 14.0001 19.9615 14.0001 18.6643 14.0001C18.2961 14.0001 18 13.6989 18 13.3307C18 9.1054 18 7.83355 18 5.33451C18 4.96632 18.2995 4.66427 18.6668 4.6902C23.29 5.01653 26.9836 8.71008 27.3099 13.3333Z" stroke="#233043" stroke-width="2" stroke-linecap="round" stroke-linejoin="round"/>
</svg>
