<svg width="32" height="33" viewBox="0 0 32 33" fill="none" xmlns="http://www.w3.org/2000/svg">
<path fill-rule="evenodd" clip-rule="evenodd" d="M21.3398 5.02524C21.2096 4.89507 20.9986 4.89507 20.8684 5.02524L14.2632 11.6305C14.1898 11.7039 14.0862 11.738 13.9832 11.7256C11.8287 11.4663 9.58528 12.1197 7.87906 13.6859C7.74344 13.8104 7.74369 14.0223 7.87387 14.1525L18.2491 24.5277C18.3793 24.6579 18.5912 24.6581 18.7157 24.5225C20.2818 22.8163 20.9353 20.573 20.676 18.4185C20.6636 18.3155 20.6977 18.2119 20.7711 18.1385L27.3764 11.5332C27.5066 11.4031 27.5066 11.192 27.3764 11.0618L21.3398 5.02524Z" fill="#233043"/>
<path d="M13.0726 19.3511L7.41578 25.0079" stroke="#233043" stroke-width="2" stroke-linecap="round" stroke-linejoin="round"/>
</svg>
