<svg width="32" height="33" viewBox="0 0 32 33" fill="none" xmlns="http://www.w3.org/2000/svg">
<circle cx="16" cy="12.004" r="3.33333" stroke="#233043" stroke-width="2" stroke-linecap="round" stroke-linejoin="round"/>
<path d="M10.6665 22.7446C10.6665 20.1264 12.789 18.0039 15.4072 18.0039H16.5924C19.2107 18.0039 21.3332 20.1264 21.3332 22.7446V22.7446C21.3332 23.0719 21.0679 23.3372 20.7406 23.3372H11.2591C10.9318 23.3372 10.6665 23.0719 10.6665 22.7446V22.7446Z" stroke="#233043" stroke-width="2" stroke-linecap="round" stroke-linejoin="round"/>
<path d="M26.6666 10.6705V6.00382C26.6666 5.63563 26.3681 5.33716 25.9999 5.33716H21.3333M10.6666 5.33716H5.99992C5.63173 5.33716 5.33325 5.63564 5.33325 6.00383V10.6705M5.33325 21.3372V26.0038C5.33325 26.372 5.63173 26.6705 5.99992 26.6705H10.6666M21.3333 26.6705H25.9999C26.3681 26.6705 26.6666 26.372 26.6666 26.0038V21.3372" stroke="#233043" stroke-width="2" stroke-linecap="round" stroke-linejoin="round"/>
</svg>
