<svg width="32" height="33" viewBox="0 0 32 33" fill="none" xmlns="http://www.w3.org/2000/svg">
<path d="M4.00012 20.3371C4.00012 19.9689 4.2986 19.6704 4.66679 19.6704H8.00012V26.3371H4.66679C4.2986 26.3371 4.00012 26.0386 4.00012 25.6704V20.3371Z" stroke="#233043" stroke-width="2" stroke-linecap="round" stroke-linejoin="round"/>
<path d="M12.7683 17.0211L13.2539 17.8952V17.8952L12.7683 17.0211ZM8.3429 19.4796L8.82855 20.3538L8.82855 20.3538L8.3429 19.4796ZM13.7479 17.7231L12.7641 17.5442V17.5442L13.7479 17.7231ZM13.1515 21.0034L12.1676 20.8245C12.1146 21.1163 12.1938 21.4165 12.3838 21.6442C12.5738 21.8718 12.855 22.0034 13.1515 22.0034V21.0034ZM23.2 22.0701L24 22.6701V22.6701L23.2 22.0701ZM20.2 26.0701L21 26.6701L21 26.6701L20.2 26.0701ZM12.2826 16.1469L7.85726 18.6054L8.82855 20.3538L13.2539 17.8952L12.2826 16.1469ZM14.7318 17.902C14.9835 16.5177 13.5126 15.4636 12.2826 16.1469L13.2539 17.8952C13.0079 18.0319 12.7137 17.8211 12.7641 17.5442L14.7318 17.902ZM14.1354 21.1823L14.7318 17.902L12.7641 17.5442L12.1676 20.8245L14.1354 21.1823ZM13.1515 22.0034H22.6667V20.0034H13.1515V22.0034ZM22.6667 22.0034C22.392 22.0034 22.2352 21.6898 22.4 21.4701L24 22.6701C24.824 21.5713 24.0401 20.0034 22.6667 20.0034V22.0034ZM22.4 21.4701L19.4 25.4701L21 26.6701L24 22.6701L22.4 21.4701ZM19.4 25.4701C19.463 25.3861 19.5617 25.3367 19.6667 25.3367V27.3367C20.1913 27.3367 20.6852 27.0898 21 26.6701L19.4 25.4701ZM19.6667 25.3367H8.66667V27.3367H19.6667V25.3367ZM8.66667 25.3367C8.85076 25.3367 9 25.486 9 25.6701H7C7 26.5905 7.74619 27.3367 8.66667 27.3367V25.3367ZM9 25.6701V23.0034H7V25.6701H9ZM9 23.0034V21.6701H7V23.0034H9ZM7 20.0624V21.6701H9V20.0624H7ZM7.85726 18.6054C7.32815 18.8994 7 19.4571 7 20.0624H9C9 20.1834 8.93437 20.295 8.82855 20.3538L7.85726 18.6054Z" fill="#233043"/>
<path d="M21.3332 5.67041L23.2925 9.64035L27.6735 10.277L24.5034 13.3671L25.2517 17.7305L21.3332 15.6704L17.4146 17.7305L18.163 13.3671L14.9928 10.277L19.3739 9.64035L21.3332 5.67041Z" stroke="#233043" stroke-width="2" stroke-linecap="round" stroke-linejoin="round"/>
</svg>
