<svg width="32" height="32" viewBox="0 0 32 32" fill="none" xmlns="http://www.w3.org/2000/svg">
<path fill-rule="evenodd" clip-rule="evenodd" d="M26.6667 16C26.6667 21.891 21.8911 26.6667 16 26.6667C10.109 26.6667 5.33337 21.891 5.33337 16C5.33337 10.109 10.109 5.33334 16 5.33334C21.8911 5.33334 26.6667 10.109 26.6667 16ZM20.7071 11.2929C21.0976 11.6834 21.0976 12.3166 20.7071 12.7071L17.4142 16L20.7071 19.2929C21.0976 19.6834 21.0976 20.3166 20.7071 20.7071C20.3166 21.0976 19.6834 21.0976 19.2929 20.7071L16 17.4142L12.7071 20.7071C12.3166 21.0976 11.6834 21.0976 11.2929 20.7071C10.9024 20.3166 10.9024 19.6834 11.2929 19.2929L14.5858 16L11.2929 12.7071C10.9024 12.3166 10.9024 11.6834 11.2929 11.2929C11.6834 10.9024 12.3166 10.9024 12.7071 11.2929L16 14.5858L19.2929 11.2929C19.6834 10.9024 20.3166 10.9024 20.7071 11.2929Z" fill="#233043"/>
</svg>
