<svg width="32" height="33" viewBox="0 0 32 33" fill="none" xmlns="http://www.w3.org/2000/svg">
<path d="M13.2111 19.0157C13.2111 19.0157 13.2111 21.1073 15.9999 21.1073C16.1806 21.1073 18.7888 21.1073 18.7888 18.3185C18.7888 15.5296 15.9999 15.5296 15.9999 15.5296C15.9999 15.5296 13.6855 15.5297 13.6855 13.2153C13.6855 10.9009 15.8499 10.9009 15.9999 10.9009C17.2866 10.9009 17.8579 11.4374 18.1116 11.9138" stroke="#233043" stroke-width="2" stroke-linecap="round" stroke-linejoin="round"/>
<path d="M6.5 26.0039H25.5C25.7761 26.0039 26 25.7801 26 25.5039V6.50391C26 6.22776 25.7761 6.00391 25.5 6.00391H6.5C6.22386 6.00391 6 6.22776 6 6.50391V25.5039C6 25.7801 6.22386 26.0039 6.5 26.0039Z" stroke="#233043" stroke-width="2" stroke-linecap="round" stroke-linejoin="round"/>
</svg>
