<svg width="33" height="32" viewBox="0 0 33 32" fill="none" xmlns="http://www.w3.org/2000/svg">
<path d="M7.48304 17.606H2.54504V13.911H7.67904C8.75704 8.08401 13.027 6.76401 15.227 6.88001C20.124 6.88001 22.257 7.68001 24.657 12.865C24.819 13.215 24.957 13.563 25.074 13.911H30.655V17.606H25.535C25.262 20.87 23.202 23.558 20.7 24.546C17.285 25.894 8.23504 25.392 7.48304 17.606Z" fill="white"/>
<path d="M17.13 13.058C17.13 12.8591 17.051 12.6683 16.9103 12.5277C16.7697 12.387 16.5789 12.308 16.38 12.308C16.1811 12.308 15.9903 12.387 15.8497 12.5277C15.709 12.6683 15.63 12.8591 15.63 13.058V18.942C15.63 19.1409 15.709 19.3317 15.8497 19.4723C15.9903 19.613 16.1811 19.692 16.38 19.692C16.5789 19.692 16.7697 19.613 16.9103 19.4723C17.051 19.3317 17.13 19.1409 17.13 18.942V13.058ZM13.235 14.052C13.235 13.8531 13.156 13.6623 13.0153 13.5217C12.8747 13.381 12.6839 13.302 12.485 13.302C12.2861 13.302 12.0953 13.381 11.9547 13.5217C11.814 13.6623 11.735 13.8531 11.735 14.052V17.948C11.735 18.1469 11.814 18.3377 11.9547 18.4783C12.0953 18.619 12.2861 18.698 12.485 18.698C12.6839 18.698 12.8747 18.619 13.0153 18.4783C13.156 18.3377 13.235 18.1469 13.235 17.948V14.052ZM20.515 13.421C20.7139 13.421 20.9047 13.5 21.0453 13.6407C21.186 13.7813 21.265 13.9721 21.265 14.171V17.829C21.265 18.0279 21.186 18.2187 21.0453 18.3593C20.9047 18.5 20.7139 18.579 20.515 18.579C20.3161 18.579 20.1253 18.5 19.9847 18.3593C19.844 18.2187 19.765 18.0279 19.765 17.829V14.17C19.765 13.9711 19.844 13.7803 19.9847 13.6397C20.1253 13.499 20.3161 13.42 20.515 13.42V13.421Z" fill="#233043"/>
<path fill-rule="evenodd" clip-rule="evenodd" d="M10.09 7.94605C11.836 6.48605 13.865 6.06205 15.246 6.13005C17.699 6.13005 19.63 6.32605 21.258 7.28205C22.901 8.24605 24.115 9.91105 25.338 12.55C25.432 12.754 25.518 12.957 25.598 13.16H28.32C29.472 13.16 30.26 13.594 30.72 14.281C31.142 14.913 31.205 15.644 31.205 16.111C31.205 16.684 31.015 17.361 30.542 17.905C30.052 18.471 29.305 18.839 28.32 18.839H26.111C25.477 21.845 23.441 24.27 20.975 25.244C18.97 26.035 15.34 26.224 12.249 24.991C10.685 24.366 9.22304 23.363 8.18604 21.851C7.56896 20.9402 7.13741 19.9167 6.91604 18.839H4.68004C3.69504 18.839 2.94904 18.472 2.45804 17.905C2.03143 17.4049 1.79645 16.7694 1.79504 16.112C1.79504 15.644 1.85804 14.912 2.28004 14.282C2.74004 13.594 3.52804 13.161 4.68004 13.161H7.07004C7.63504 10.737 8.76004 9.05805 10.09 7.94605ZM26.305 17.339H28.32C28.902 17.339 29.224 17.136 29.409 16.923C29.612 16.688 29.705 16.375 29.705 16.112C29.705 15.743 29.646 15.374 29.472 15.114C29.336 14.91 29.057 14.661 28.32 14.661H26.064C26.274 15.575 26.347 16.473 26.304 17.339H26.305ZM6.70004 15.867C6.67404 16.379 6.67804 16.87 6.70904 17.339H4.68004C4.09704 17.339 3.77604 17.136 3.59104 16.923C3.40085 16.6955 3.29615 16.4086 3.29504 16.112C3.29504 15.743 3.35404 15.374 3.52804 15.114C3.66404 14.91 3.94304 14.661 4.68004 14.661H6.80504C6.75661 15.0617 6.72192 15.464 6.70104 15.867H6.70004ZM8.19804 15.943C8.38104 12.353 9.64404 10.273 11.051 9.09705C12.481 7.90205 14.136 7.57405 15.187 7.62905H15.227C17.661 7.62905 19.239 7.83705 20.497 8.57505C21.745 9.30705 22.797 10.635 23.975 13.18C26.195 17.976 23.669 22.568 20.424 23.849C18.781 24.497 15.546 24.692 12.804 23.598C11.452 23.058 10.256 22.218 9.42304 21.003C8.59304 19.793 8.08504 18.155 8.19804 15.943Z" fill="#233043"/>
</svg>
