<svg width="32" height="33" viewBox="0 0 32 33" fill="none" xmlns="http://www.w3.org/2000/svg">
<path d="M18.6668 20.6238L18.166 19.7582C17.857 19.9369 17.6668 20.2668 17.6668 20.6238H18.6668ZM13.3334 20.6238H14.3334C14.3334 20.2669 14.1431 19.937 13.8341 19.7582L13.3334 20.6238ZM13.3334 22.6707H12.3334C12.3334 23.223 12.7811 23.6707 13.3334 23.6707V22.6707ZM18.6668 22.6707V23.6707C19.219 23.6707 19.6668 23.223 19.6668 22.6707H18.6668ZM20.3334 16.004C20.3334 17.6067 19.4639 19.0074 18.166 19.7582L19.1675 21.4894C21.0579 20.3959 22.3334 18.3495 22.3334 16.004H20.3334ZM16.0001 11.6707C18.3933 11.6707 20.3334 13.6108 20.3334 16.004H22.3334C22.3334 12.5062 19.4979 9.67065 16.0001 9.67065V11.6707ZM11.6667 16.004C11.6667 13.6108 13.6068 11.6707 16.0001 11.6707V9.67065C12.5023 9.67065 9.66675 12.5062 9.66675 16.004H11.6667ZM13.8341 19.7582C12.5363 19.0075 11.6667 17.6067 11.6667 16.004H9.66675C9.66675 18.3495 10.9423 20.3959 12.8327 21.4894L13.8341 19.7582ZM14.3334 22.6707V20.6238H12.3334V22.6707H14.3334ZM18.6668 21.6707H13.3334V23.6707H18.6668V21.6707ZM17.6668 20.6238V22.6707H19.6668V20.6238H17.6668Z" fill="#233043"/>
<path d="M13.3334 26.6707H18.6667" stroke="#233043" stroke-width="2" stroke-linecap="round" stroke-linejoin="round"/>
<path d="M16 6.67065V4.67065" stroke="#233043" stroke-width="2" stroke-linecap="round" stroke-linejoin="round"/>
<path d="M4.66675 16.0039H6.66675" stroke="#233043" stroke-width="2" stroke-linecap="round" stroke-linejoin="round"/>
<path d="M25.3333 16.0039H27.3333" stroke="#233043" stroke-width="2" stroke-linecap="round" stroke-linejoin="round"/>
<path d="M8.74747 9.41812L7.33325 8.00391" stroke="#233043" stroke-width="2" stroke-linecap="round" stroke-linejoin="round"/>
<path d="M23.2524 9.41812L24.6666 8.00391" stroke="#233043" stroke-width="2" stroke-linecap="round" stroke-linejoin="round"/>
</svg>
