<svg width="32" height="32" viewBox="0 0 32 32" fill="none" xmlns="http://www.w3.org/2000/svg">
<path fill-rule="evenodd" clip-rule="evenodd" d="M16 27.3333C22.2592 27.3333 27.3333 22.2592 27.3333 16C27.3333 9.74077 22.2592 4.66666 16 4.66666C9.74076 4.66666 4.66666 9.74077 4.66666 16C4.66666 22.2592 9.74076 27.3333 16 27.3333ZM16 29.3333C23.3638 29.3333 29.3333 23.3638 29.3333 16C29.3333 8.6362 23.3638 2.66666 16 2.66666C8.63619 2.66666 2.66666 8.6362 2.66666 16C2.66666 23.3638 8.63619 29.3333 16 29.3333ZM21.2107 8.74251C22.4548 8.4032 23.5965 9.54481 23.2571 10.789L20.8359 19.6668C20.6806 20.2361 20.2359 20.6809 19.6666 20.8362L10.7892 23.2578C9.54504 23.5972 8.40336 22.4556 8.74262 21.2115L11.1635 12.3332C11.3187 11.7638 11.7635 11.319 12.3329 11.1637L21.2107 8.74251ZM21.1741 10.8255L13.0429 13.0431L10.8256 21.1748L18.9565 18.9568L21.1741 10.8255ZM16 17.3333C16.7364 17.3333 17.3333 16.7364 17.3333 16C17.3333 15.2636 16.7364 14.6667 16 14.6667C15.2636 14.6667 14.6667 15.2636 14.6667 16C14.6667 16.7364 15.2636 17.3333 16 17.3333Z" fill="#233043"/>
</svg>
