<svg width="32" height="32" viewBox="0 0 32 32" fill="none" xmlns="http://www.w3.org/2000/svg">
<path d="M3.99119 5.01872C4.51013 4.82975 5.08402 5.09724 5.27299 5.61619L13.6636 28.6579C13.8526 29.1768 13.5851 29.7507 13.0662 29.9397C12.5472 30.1286 11.9733 29.8611 11.7843 29.3422L3.39372 6.30053C3.20474 5.78158 3.47224 5.2077 3.99119 5.01872Z" fill="#233043"/>
<path d="M18.3863 6.89631C18.4007 6.91118 18.4155 6.9256 18.4308 6.93955C18.4761 6.98096 18.5169 7.02421 18.5584 7.06862L18.5585 7.06869L18.5666 7.07742L18.567 7.07783L18.5677 7.07856C18.6172 7.1315 18.6734 7.19156 18.7404 7.25137C19.6069 8.14278 20.6546 8.83785 21.8127 9.28963C22.9712 9.74151 24.2131 9.93945 25.4546 9.87009L25.4589 9.86982C26.6844 9.79601 27.8804 9.46751 28.9708 8.906C28.6126 10.7322 27.6661 12.3928 26.2739 13.6323C24.8407 14.9082 23.019 15.6633 21.1035 15.7755L20.3745 15.7755C19.8313 15.7742 19.2901 15.7091 18.7622 15.5814C18.7481 15.578 18.7339 15.5749 18.7196 15.5721C17.9793 15.427 17.2238 15.3748 16.4706 15.4169L16.4706 15.4169L16.4654 15.4172C15.1046 15.5004 13.7825 15.9026 12.606 16.5914C11.4288 17.2807 10.4304 18.2374 9.69172 19.3843C9.61889 19.4974 9.56545 19.6109 9.52695 19.7041C9.51172 19.7067 9.49694 19.7093 9.48268 19.7119C9.45099 19.7176 9.41874 19.7238 9.38725 19.7299L5.0998 8.09241C5.13699 8.05854 5.17596 8.0239 5.21847 7.98611C5.2437 7.96368 5.27017 7.94015 5.29826 7.91502C5.34944 7.86921 5.40758 7.8165 5.4623 7.76332C5.51337 7.71367 5.58411 7.64197 5.64957 7.55831C6.389 6.61327 7.32145 5.83679 8.38473 5.28065C9.44732 4.72487 10.6162 4.40193 11.8133 4.33333H12.5366L12.5464 4.33345C14.7544 4.38797 16.8519 5.30876 18.3863 6.89631ZM19.4228 6.58445L18.7965 7.19283L18.7965 7.19277L19.4228 6.58445ZM18.7965 7.19285L18.7964 7.19291L18.7965 7.19285Z" stroke="#233043" stroke-width="2" stroke-linecap="round" stroke-linejoin="round"/>
</svg>
