<svg width="32" height="32" viewBox="0 0 32 32" fill="none" xmlns="http://www.w3.org/2000/svg">
<path fill-rule="evenodd" clip-rule="evenodd" d="M16.2356 21.6667C15.6841 21.6667 15.1571 21.8944 14.7791 22.296L11.3333 25.9574V23.6667C11.3333 22.5621 10.4379 21.6667 9.33334 21.6667H8.00001C6.15906 21.6667 4.66667 20.1743 4.66667 18.3333V10.3333C4.66667 8.49238 6.15906 7 8 7H24C25.841 7 27.3333 8.49238 27.3333 10.3333V18.3333C27.3333 20.1743 25.841 21.6667 24 21.6667H16.2356ZM24 23.6667H16.2356L11.6095 28.5822C10.7695 29.4747 9.33334 28.8426 9.33334 27.5804V25.6667V23.6667H8.00001C5.05449 23.6667 2.66667 21.2789 2.66667 18.3333V10.3333C2.66667 7.38781 5.05449 5 8 5H24C26.9455 5 29.3333 7.38781 29.3333 10.3333V18.3333C29.3333 21.2789 26.9455 23.6667 24 23.6667ZM10.6667 15.6667C9.93029 15.6667 9.33334 15.0697 9.33334 14.3333C9.33334 13.597 9.93029 13 10.6667 13C11.4031 13 12 13.597 12 14.3333C12 15.0697 11.4031 15.6667 10.6667 15.6667ZM14.6667 14.3333C14.6667 15.0697 15.2636 15.6667 16 15.6667C16.7364 15.6667 17.3333 15.0697 17.3333 14.3333C17.3333 13.597 16.7364 13 16 13C15.2636 13 14.6667 13.597 14.6667 14.3333ZM21.3333 15.6667C20.597 15.6667 20 15.0697 20 14.3333C20 13.597 20.597 13 21.3333 13C22.0697 13 22.6667 13.597 22.6667 14.3333C22.6667 15.0697 22.0697 15.6667 21.3333 15.6667Z" fill="#233043"/>
</svg>
