<svg width="32" height="32" viewBox="0 0 32 32" fill="none" xmlns="http://www.w3.org/2000/svg">
<path fill-rule="evenodd" clip-rule="evenodd" d="M27.3333 16C27.3333 22.2592 22.2592 27.3333 16 27.3333C9.74078 27.3333 4.66667 22.2592 4.66667 16C4.66667 9.74077 9.74078 4.66666 16 4.66666C22.2592 4.66666 27.3333 9.74077 27.3333 16ZM29.3333 16C29.3333 23.3638 23.3638 29.3333 16 29.3333C8.63621 29.3333 2.66667 23.3638 2.66667 16C2.66667 8.6362 8.63621 2.66666 16 2.66666C23.3638 2.66666 29.3333 8.6362 29.3333 16ZM10.6667 13.3333C11.403 13.3333 12 12.7364 12 12C12 11.2636 11.403 10.6667 10.6667 10.6667C9.93029 10.6667 9.33333 11.2636 9.33333 12C9.33333 12.7364 9.93029 13.3333 10.6667 13.3333ZM22.6667 12C22.6667 12.7364 22.0697 13.3333 21.3333 13.3333C20.597 13.3333 20 12.7364 20 12C20 11.2636 20.597 10.6667 21.3333 10.6667C22.0697 10.6667 22.6667 11.2636 22.6667 12ZM9.49077 17.1012C9.3994 16.5566 8.88377 16.1891 8.3391 16.2805C7.79443 16.3718 7.42696 16.8875 7.51834 17.4321C8.20085 21.5003 11.7372 24.6 15.9995 24.6C20.2618 24.6 23.7981 21.5003 24.4806 17.4321C24.572 16.8875 24.2045 16.3718 23.6599 16.2805C23.1152 16.1891 22.5996 16.5566 22.5082 17.1012C21.9846 20.222 19.2688 22.6 15.9995 22.6C12.7302 22.6 10.0143 20.222 9.49077 17.1012Z" fill="#233043"/>
</svg>
