<svg width="32" height="32" viewBox="0 0 32 32" fill="none" xmlns="http://www.w3.org/2000/svg">
<path fill-rule="evenodd" clip-rule="evenodd" d="M16 1C14.0636 1 12.437 2.30002 11.918 4.07056C11.5976 3.99417 11.2638 3.95431 10.9219 3.95431C8.56485 3.95431 6.66668 5.88052 6.66668 8.23687C6.66668 9.39147 7.1219 10.4282 7.85303 11.1912C7.1219 11.9542 6.66668 12.9909 6.66668 14.1455C6.66668 16.5018 8.56485 18.428 10.9219 18.428C11.2665 18.428 11.5994 18.3876 11.9178 18.311C12.4365 20.082 14.0634 21.3824 16 21.3824C17.9364 21.3824 19.5631 20.0823 20.082 18.3118C20.4024 18.3882 20.7362 18.428 21.0781 18.428C23.4352 18.428 25.3333 16.5018 25.3333 14.1455C25.3333 12.9909 24.8781 11.9542 24.147 11.1912C24.8781 10.4282 25.3333 9.39147 25.3333 8.23687C25.3333 5.88052 23.4352 3.95431 21.0781 3.95431C20.7335 3.95431 20.4007 3.99475 20.0823 4.07133C19.5635 2.3004 17.9367 1 16 1ZM13.7654 5.42821L13.7453 5.23508C13.7703 3.98971 14.7788 3 16 3C17.2212 3 18.2297 3.98972 18.2547 5.23508L18.2346 5.42821C18.1941 5.81635 18.383 6.19261 18.7186 6.39186C19.0541 6.59112 19.4749 6.57698 19.7964 6.35563C20.1712 6.09747 20.5999 5.95431 21.0781 5.95431C22.3149 5.95431 23.3333 6.96927 23.3333 8.23687C23.3333 9.14644 22.803 9.92262 22.0385 10.2897C21.6919 10.4562 21.4714 10.8066 21.4714 11.1912C21.4714 11.5757 21.6919 11.9262 22.0385 12.0926C22.803 12.4597 23.3333 13.2359 23.3333 14.1455C23.3333 15.4131 22.3149 16.428 21.0781 16.428C20.5938 16.428 20.1573 16.2815 19.8059 16.0333C19.4853 15.8071 19.0621 15.7892 18.7236 15.9875C18.3851 16.1859 18.1938 16.5639 18.2346 16.9541L18.2547 17.1473C18.2297 18.3926 17.2212 19.3824 16 19.3824C14.7788 19.3824 13.7703 18.3926 13.7453 17.1473L13.7654 16.9541C13.806 16.566 13.617 16.1897 13.2814 15.9905C12.9459 15.7912 12.5251 15.8054 12.2037 16.0267C11.8288 16.2849 11.4001 16.428 10.9219 16.428C9.68517 16.428 8.66668 15.4131 8.66668 14.1455C8.66668 13.2359 9.19703 12.4597 9.96153 12.0926C10.3082 11.9262 10.5287 11.5757 10.5287 11.1912C10.5287 10.8066 10.3082 10.4562 9.96153 10.2897C9.19703 9.92262 8.66668 9.14644 8.66668 8.23687C8.66668 6.96927 9.68517 5.95431 10.9219 5.95431C11.4063 5.95431 11.8427 6.1009 12.1942 6.34901C12.5147 6.57527 12.9379 6.59318 13.2764 6.39481C13.6149 6.19644 13.8062 5.81844 13.7654 5.42821ZM13.7448 11.1912C13.7448 9.92358 14.7633 8.90861 16 8.90861C17.2367 8.90861 18.2552 9.92358 18.2552 11.1912C18.2552 12.4588 17.2367 13.4737 16 13.4737C14.7633 13.4737 13.7448 12.4588 13.7448 11.1912ZM16 6.90861C13.643 6.90861 11.7448 8.83482 11.7448 11.1912C11.7448 13.5475 13.643 15.4737 16 15.4737C18.357 15.4737 20.2552 13.5475 20.2552 11.1912C20.2552 8.83482 18.357 6.90861 16 6.90861ZM16.4553 30C16.6515 30 16.8465 29.9947 17.04 29.9841C22.4075 29.692 26.6667 25.4025 26.6667 20.1539C26.6667 19.6997 26.2886 19.3333 25.8176 19.3333C22.1626 19.3333 18.9561 21.1849 17.152 23.9684C16.6549 24.7353 16.2642 25.573 16 26.4623C15.7358 25.573 15.3452 24.7353 14.848 23.9684C13.0439 21.1849 9.83743 19.3333 6.18244 19.3333C5.71144 19.3333 5.33334 19.6997 5.33334 20.1538C5.33334 25.4025 9.59252 29.692 14.9601 29.9841C15.1536 29.9947 15.3485 30 15.5447 30C15.6972 30 15.849 29.9968 15.9999 29.9904C16.1509 29.9968 16.3027 30 16.4553 30ZM14.0829 27.0319L14.346 27.9177C10.7755 27.4219 8.01128 24.7441 7.44146 21.4247C10.6593 21.8967 13.2262 24.1487 14.0829 27.0319ZM17.9172 27.0319L17.654 27.9177C21.2246 27.4219 23.9887 24.7442 24.5586 21.4247C21.3407 21.8968 18.7739 24.1487 17.9172 27.0319Z" fill="#233043"/>
</svg>
