<svg width="32" height="32" viewBox="0 0 32 32" fill="none" xmlns="http://www.w3.org/2000/svg">
<path fill-rule="evenodd" clip-rule="evenodd" d="M9.99999 13.511L9.99987 13.522L9.99985 13.5374L9.99999 13.5898C9.99999 16.9035 12.6863 19.5898 16 19.5898C19.3137 19.5898 22 16.9035 22 13.5898L21.9996 13.522L21.9995 13.5109L22 4.83333H9.99999V13.511ZM24 4.16667L23.9999 6.19841H24L26.3334 6.19841C27.6222 6.19841 28.6665 7.24319 28.6665 8.53158L28.6667 10.4577C28.6667 13.2104 26.4964 15.4787 23.7629 15.5308C22.9738 18.6967 20.2988 21.1165 17 21.5279V23.1667H18.3333C20.5425 23.1667 22.3333 24.9575 22.3333 27.1667C22.3333 28.2712 21.4379 29.1667 20.3333 29.1667H11.6667C10.5621 29.1667 9.66668 28.2712 9.66668 27.1667C9.66668 24.9575 11.4575 23.1667 13.6667 23.1667H15V21.5279C11.6902 21.1151 9.00821 18.6805 8.22922 15.4989C5.49941 15.4426 3.33334 13.176 3.33334 10.4259L3.33348 8.49984C3.33357 7.21145 4.37778 6.16667 5.6666 6.16667L7.99999 6.16667V4.16667C7.99999 3.43029 8.59695 2.83333 9.33333 2.83333H22.6667C23.403 2.83333 24 3.43029 24 4.16667ZM23.9995 13.5L23.9998 8.19841H24L26.3334 8.19841C26.5173 8.19841 26.6665 8.34742 26.6665 8.53172L26.6667 10.4577C26.6666 12.0552 25.4864 13.3437 23.9996 13.5129L23.9995 13.5ZM5.66659 8.16667L7.99999 8.16667V13.4811C6.51338 13.3118 5.33338 12.0233 5.33334 10.4259L5.33348 8.49998C5.33349 8.31568 5.48272 8.16667 5.66659 8.16667ZM11.6667 27.1667C11.6667 26.0621 12.5621 25.1667 13.6667 25.1667H18.3333C19.4379 25.1667 20.3333 26.0621 20.3333 27.1667H11.6667Z" fill="#233043"/>
</svg>
