<svg width="32" height="32" viewBox="0 0 32 32" fill="none" xmlns="http://www.w3.org/2000/svg">
<path fill-rule="evenodd" clip-rule="evenodd" d="M20.6666 3C16.3848 3 12.8572 6.22964 12.3871 10.3858C15.5331 10.7047 18.2621 12.4349 19.931 14.9333C20.1694 14.9766 20.4152 14.9993 20.6664 14.9993C22.3635 14.9993 23.8112 13.9662 24.4073 12.5096C24.6165 11.9985 25.2004 11.7537 25.7115 11.9629C26.2227 12.172 26.4675 12.756 26.2583 13.2671C25.4002 15.3638 23.3787 16.8645 20.9929 16.9907C21.3081 17.8188 21.5199 18.698 21.6125 19.6124C25.7692 19.1427 28.9994 15.615 28.9994 11.3327C28.9994 6.73069 25.2687 3 20.6666 3ZM30.9994 11.3327C30.9994 16.7173 26.8806 21.1399 21.6218 21.6219C21.1392 26.8801 16.7168 30.9981 11.3327 30.9981C5.62612 30.9981 1 26.372 1 20.6654C1 15.2808 5.11874 10.8582 10.3776 10.3762C10.8602 5.11803 15.2825 1 20.6666 1C26.3733 1 30.9994 5.62612 30.9994 11.3327ZM3 20.6654C3 16.0634 6.73069 12.3327 11.3327 12.3327C15.9348 12.3327 19.6655 16.0634 19.6655 20.6654C19.6655 25.2674 15.9348 28.9981 11.3327 28.9981C6.73069 28.9981 3 25.2674 3 20.6654ZM16.333 9.33308C17.0693 9.33308 17.6662 8.73616 17.6662 7.99983C17.6662 7.2635 17.0693 6.66659 16.333 6.66659C15.5967 6.66659 14.9998 7.2635 14.9998 7.99983C14.9998 8.73616 15.5967 9.33308 16.333 9.33308ZM24.9672 9.33308C25.7035 9.33308 26.3004 8.73616 26.3004 7.99983C26.3004 7.2635 25.7035 6.66659 24.9672 6.66659C24.2309 6.66659 23.634 7.2635 23.634 7.99983C23.634 8.73616 24.2309 9.33308 24.9672 9.33308ZM8.32909 17.3325C8.32909 18.0688 7.73218 18.6658 6.99584 18.6658C6.25951 18.6658 5.6626 18.0688 5.6626 17.3325C5.6626 16.5962 6.25951 15.9993 6.99584 15.9993C7.73218 15.9993 8.32909 16.5962 8.32909 17.3325ZM15.6374 18.6657C16.3737 18.6657 16.9706 18.0688 16.9706 17.3324C16.9706 16.5961 16.3737 15.9992 15.6374 15.9992C14.901 15.9992 14.3041 16.5961 14.3041 17.3324C14.3041 18.0688 14.901 18.6657 15.6374 18.6657ZM6.28688 21.2956C6.79802 21.0865 7.38195 21.3312 7.59113 21.8424C8.1872 23.2989 9.63492 24.332 11.332 24.332C13.0291 24.332 14.4768 23.2989 15.0729 21.8424C15.282 21.3312 15.866 21.0865 16.3771 21.2956C16.8882 21.5048 17.133 22.0887 16.9239 22.5999C16.0269 24.7916 13.8586 26.332 11.332 26.332C8.80536 26.332 6.63706 24.7916 5.74013 22.5999C5.53095 22.0887 5.77574 21.5048 6.28688 21.2956Z" fill="#233043"/>
</svg>
