<svg width="32" height="32" viewBox="0 0 32 32" fill="none" xmlns="http://www.w3.org/2000/svg">
<path fill-rule="evenodd" clip-rule="evenodd" d="M6.33333 26.6667C6.33333 27.219 6.78104 27.6667 7.33333 27.6667C7.88561 27.6667 8.33333 27.219 8.33333 26.6667C8.33333 26.1144 7.88561 25.6667 7.33333 25.6667C6.78104 25.6667 6.33333 26.1144 6.33333 26.6667ZM7.33333 23.6667C5.67647 23.6667 4.33333 25.0098 4.33333 26.6667C4.33333 28.3235 5.67647 29.6667 7.33333 29.6667C8.99018 29.6667 10.3333 28.3235 10.3333 26.6667C10.3333 25.0098 8.99018 23.6667 7.33333 23.6667Z" fill="#233043"/>
<path fill-rule="evenodd" clip-rule="evenodd" d="M23.6667 26.6667C23.6667 27.219 24.1144 27.6667 24.6667 27.6667C25.219 27.6667 25.6667 27.219 25.6667 26.6667C25.6667 26.1144 25.219 25.6667 24.6667 25.6667C24.1144 25.6667 23.6667 26.1144 23.6667 26.6667ZM24.6667 23.6667C23.0098 23.6667 21.6667 25.0098 21.6667 26.6667C21.6667 28.3235 23.0098 29.6667 24.6667 29.6667C26.3235 29.6667 27.6667 28.3235 27.6667 26.6667C27.6667 25.0098 26.3235 23.6667 24.6667 23.6667Z" fill="#233043"/>
<path fill-rule="evenodd" clip-rule="evenodd" d="M15.0833 26.6667C15.0833 27.219 15.531 27.6667 16.0833 27.6667C16.6356 27.6667 17.0833 27.219 17.0833 26.6667C17.0833 26.1144 16.6356 25.6667 16.0833 25.6667C15.531 25.6667 15.0833 26.1144 15.0833 26.6667ZM16.0833 23.6667C14.4265 23.6667 13.0833 25.0098 13.0833 26.6667C13.0833 28.3235 14.4265 29.6667 16.0833 29.6667C17.7402 29.6667 19.0833 28.3235 19.0833 26.6667C19.0833 25.0098 17.7402 23.6667 16.0833 23.6667Z" fill="#233043"/>
<path fill-rule="evenodd" clip-rule="evenodd" d="M16 4.33333C14.136 4.33333 12.625 5.84437 12.625 7.70833C12.625 9.57229 14.136 11.0833 16 11.0833C17.864 11.0833 19.375 9.57229 19.375 7.70833C19.375 5.84437 17.864 4.33333 16 4.33333ZM10.625 7.70833C10.625 4.7398 13.0315 2.33333 16 2.33333C18.9685 2.33333 21.375 4.7398 21.375 7.70833C21.375 10.6769 18.9685 13.0833 16 13.0833C13.0315 13.0833 10.625 10.6769 10.625 7.70833ZM7.32764 20.25C7.32764 17.1204 9.86469 14.5833 12.9943 14.5833H19.0056C22.1352 14.5833 24.6722 17.1204 24.6722 20.25V21.625H22.6722V20.25C22.6722 18.225 21.0306 16.5833 19.0056 16.5833H12.9943C10.9693 16.5833 9.32764 18.225 9.32764 20.25V21.625H7.32764V20.25Z" fill="#233043"/>
</svg>
