<svg width="32" height="32" viewBox="0 0 32 32" fill="none" xmlns="http://www.w3.org/2000/svg">
<path fill-rule="evenodd" clip-rule="evenodd" d="M16.377 2.33334C15.3721 2.33334 14.4749 2.95737 14.1214 3.89605L10.4806 13.3333H5.50001C4.21134 13.3333 3.16667 14.378 3.16667 15.6667V25C3.16667 26.2887 4.21134 27.3333 5.50001 27.3333H11.1667H23.2901C25.121 27.3333 26.6917 26.0326 27.0412 24.2356L27.0417 24.2332L28.7618 15.2715L28.762 15.2705C29.2206 12.9095 27.4184 10.7077 25.0107 10.7077H19.221V4.74872C19.221 3.41775 18.1447 2.33334 16.8102 2.33334H16.377ZM10.1667 25.3333V15.3333H5.50001C5.31591 15.3333 5.16667 15.4826 5.16667 15.6667V25C5.16667 25.1841 5.31591 25.3333 5.50001 25.3333H10.1667ZM12.1667 25.3333H23.2901C24.1589 25.3333 24.9098 24.7159 25.0778 23.8549L25.078 23.8538L26.7981 14.8921L26.7986 14.8897C27.0192 13.7552 26.1531 12.7077 25.0107 12.7077H18.9265C17.9816 12.7077 17.221 11.9401 17.221 11V4.74872C17.221 4.5163 17.0341 4.33334 16.8102 4.33334H16.377C16.2077 4.33334 16.0536 4.4388 15.9927 4.60189L15.989 4.61169L15.989 4.61167L12.1667 14.5195V25.3333Z" fill="#233043"/>
</svg>
