<svg width="32" height="32" viewBox="0 0 32 32" fill="none" xmlns="http://www.w3.org/2000/svg">
<path fill-rule="evenodd" clip-rule="evenodd" d="M3.66666 12C3.66666 8.44562 6.44561 5.66667 9.99999 5.66667C12.0172 5.66667 13.9689 6.6106 15.2386 8.10167C15.4286 8.32479 15.7069 8.45333 16 8.45333C16.293 8.45333 16.5713 8.32479 16.7613 8.10167C18.0311 6.6106 19.9828 5.66667 22 5.66667C25.5544 5.66667 28.3333 8.44562 28.3333 12C28.3333 14.1915 27.3567 16.2582 25.4341 18.6105C23.5 20.9766 20.715 23.5077 17.2617 26.6458L17.2608 26.6466L16.2269 27.5807C16.0996 27.6957 15.9058 27.6953 15.779 27.5799L14.7398 26.6339L14.7384 26.6325C11.2849 23.501 8.49967 20.973 6.56571 18.6085C4.64323 16.2581 3.66666 14.1915 3.66666 12ZM9.99999 3.66667C5.34104 3.66667 1.66666 7.34105 1.66666 12C1.66666 14.8485 2.95675 17.3552 5.0176 19.8748C7.0533 22.3636 9.94284 24.9838 13.3267 28.0522L13.3267 28.0522L13.3935 28.1128L13.3949 28.1141L14.4326 29.0588C15.3205 29.867 16.6767 29.8696 17.5676 29.0647L18.6037 28.1287L18.6059 28.1267L18.708 28.0339L18.7081 28.0338C22.077 24.9724 24.9539 22.3581 26.9826 19.8762C29.0432 17.3551 30.3333 14.8485 30.3333 12C30.3333 7.34105 26.6589 3.66667 22 3.66667C19.7561 3.66667 17.6009 4.55675 16 6.01763C14.3991 4.55675 12.2439 3.66667 9.99999 3.66667ZM15 17.3333H12.3333C12.0681 17.3333 11.8138 17.228 11.6262 17.0404C11.4387 16.8529 11.3333 16.5985 11.3333 16.3333C11.3333 16.0681 11.4387 15.8138 11.6262 15.6262C11.8138 15.4387 12.0681 15.3333 12.3333 15.3333H15V12.6667C15 12.4015 15.1053 12.1471 15.2929 11.9596C15.4804 11.772 15.7348 11.6667 16 11.6667C16.2652 11.6667 16.5196 11.772 16.7071 11.9596C16.8946 12.1471 17 12.4015 17 12.6667V15.3333H19.6667C19.9319 15.3333 20.1862 15.4387 20.3738 15.6262C20.5613 15.8138 20.6667 16.0681 20.6667 16.3333C20.6667 16.5985 20.5613 16.8529 20.3738 17.0404C20.1862 17.228 19.9319 17.3333 19.6667 17.3333H17V20C17 20.2652 16.8946 20.5196 16.7071 20.7071C16.5196 20.8946 16.2652 21 16 21C15.7348 21 15.4804 20.8946 15.2929 20.7071C15.1053 20.5196 15 20.2652 15 20V17.3333Z" fill="#233043"/>
</svg>
