<svg width="32" height="32" viewBox="0 0 32 32" fill="none" xmlns="http://www.w3.org/2000/svg">
<path fill-rule="evenodd" clip-rule="evenodd" d="M10.6665 3C11.2188 3 11.6665 3.44772 11.6665 4V5.66669H20.3334V4C20.3334 3.44772 20.7811 3 21.3334 3C21.8856 3 22.3334 3.44772 22.3334 4V5.66669H25.9999C26.9204 5.66669 27.6666 6.41288 27.6666 7.33335V24.6667C27.6666 25.5872 26.9204 26.3334 25.9999 26.3334H5.99989C5.07941 26.3334 4.33322 25.5872 4.33322 24.6667V7.33335C4.33322 6.41287 5.07942 5.66669 5.99989 5.66669H9.66652V4C9.66652 3.44772 10.1142 3 10.6665 3ZM20.3334 7.66669V8C20.3334 8.55228 20.7811 9 21.3334 9C21.8856 9 22.3334 8.55228 22.3334 8V7.66669H25.6666V24.3334H6.33322V7.66669H9.66652V8C9.66652 8.55228 10.1142 9 10.6665 9C11.2188 9 11.6665 8.55228 11.6665 8V7.66669H20.3334ZM12.5962 13.3334C12.5962 12.9646 12.3932 12.6257 12.068 12.4517C11.7429 12.2777 11.3483 12.2968 11.0415 12.5013L9.04149 13.8347C8.58196 14.141 8.45779 14.7619 8.76414 15.2214C9.07049 15.6809 9.69136 15.8051 10.1509 15.4988L10.5962 15.2019V20C10.5962 20.5523 11.0439 21 11.5962 21C12.1485 21 12.5962 20.5523 12.5962 20V13.3334ZM22.068 12.4517C22.3932 12.6257 22.5962 12.9646 22.5962 13.3334V20C22.5962 20.5523 22.1485 21 21.5962 21C21.0439 21 20.5962 20.5523 20.5962 20V15.2019L20.1509 15.4988C19.6914 15.8051 19.0705 15.6809 18.7641 15.2214C18.4578 14.7619 18.582 14.141 19.0415 13.8347L21.0415 12.5013C21.3483 12.2968 21.7429 12.2777 22.068 12.4517ZM16.5963 14.3334C16.5963 14.8857 16.1486 15.3334 15.5963 15.3334C15.044 15.3334 14.5963 14.8857 14.5963 14.3334C14.5963 13.7811 15.044 13.3334 15.5963 13.3334C16.1486 13.3334 16.5963 13.7811 16.5963 14.3334ZM15.5963 19.3333C16.1486 19.3333 16.5963 18.8856 16.5963 18.3333C16.5963 17.781 16.1486 17.3333 15.5963 17.3333C15.044 17.3333 14.5963 17.781 14.5963 18.3333C14.5963 18.8856 15.044 19.3333 15.5963 19.3333Z" fill="#233043"/>
</svg>
