<svg width="32" height="32" viewBox="0 0 32 32" fill="none" xmlns="http://www.w3.org/2000/svg">
<path d="M24.0001 28C26.2092 28 28.0001 26.2091 28.0001 24C28.0001 21.7909 26.2092 20 24.0001 20C21.791 20 20.0001 21.7909 20.0001 24C20.0001 26.2091 21.791 28 24.0001 28Z" fill="#FCC205"/>
<path fill-rule="evenodd" clip-rule="evenodd" d="M7.66673 24.3334V7.66669H19.0001V11.3334C19.0001 12.2538 19.7463 13 20.6667 13H24.3334V17.3334C24.3334 17.8856 24.7811 18.3334 25.3334 18.3334C25.8857 18.3334 26.3334 17.8856 26.3334 17.3334V12C26.3334 11.7348 26.228 11.4804 26.0405 11.2929L20.7072 5.95958C20.5196 5.77204 20.2653 5.66669 20.0001 5.66669H7.3334C6.41293 5.66669 5.66673 6.41287 5.66673 7.33335V24.6667C5.66673 25.5872 6.41293 26.3334 7.3334 26.3334H17.3334C17.8857 26.3334 18.3334 25.8856 18.3334 25.3334C18.3334 24.7811 17.8857 24.3334 17.3334 24.3334H7.66673ZM22.9192 11L21.0001 9.0809V11H22.9192ZM12.0001 11.0001C11.4478 11.0001 11.0001 11.4478 11.0001 12.0001C11.0001 12.5523 11.4478 13.0001 12.0001 13.0001H14.6668C15.2191 13.0001 15.6668 12.5523 15.6668 12.0001C15.6668 11.4478 15.2191 11.0001 14.6668 11.0001H12.0001ZM11.0001 16.0001C11.0001 15.4478 11.4478 15.0001 12.0001 15.0001H20.0001C20.5524 15.0001 21.0001 15.4478 21.0001 16.0001C21.0001 16.5523 20.5524 17.0001 20.0001 17.0001H12.0001C11.4478 17.0001 11.0001 16.5523 11.0001 16.0001ZM12.0001 19C11.4478 19 11.0001 19.4477 11.0001 20C11.0001 20.5523 11.4478 21 12.0001 21H16.0001C16.5524 21 17.0001 20.5523 17.0001 20C17.0001 19.4477 16.5524 19 16.0001 19H12.0001Z" fill="#233043"/>
</svg>
