<svg width="32" height="32" viewBox="0 0 32 32" fill="none" xmlns="http://www.w3.org/2000/svg">
<path fill-rule="evenodd" clip-rule="evenodd" d="M7.66666 24.3333V7.66659H16C16.5523 7.66659 17 7.21887 17 6.66659C17 6.1143 16.5523 5.66659 16 5.66659H7.33333C6.41286 5.66659 5.66666 6.41278 5.66666 7.33325V24.6666C5.66666 25.5871 6.41286 26.3333 7.33333 26.3333H18.6667C18.9319 26.3333 19.1862 26.2279 19.3738 26.0404L26.0404 19.3737C26.228 19.1862 26.3333 18.9318 26.3333 18.6666V15.6666C26.3333 15.1143 25.8856 14.6666 25.3333 14.6666C24.781 14.6666 24.3333 15.1143 24.3333 15.6666V17.6666H19.3333C18.4129 17.6666 17.6667 18.4128 17.6667 19.3333V24.3333H7.66666ZM19.6667 22.919L22.9191 19.6666H19.6667V22.919Z" fill="#233043"/>
<path d="M24.0001 12C26.2092 12 28.0001 10.2091 28.0001 8C28.0001 5.79086 26.2092 4 24.0001 4C21.7909 4 20.0001 5.79086 20.0001 8C20.0001 10.2091 21.7909 12 24.0001 12Z" fill="#FCC205"/>
</svg>
