<svg width="32" height="32" viewBox="0 0 32 32" fill="none" xmlns="http://www.w3.org/2000/svg">
<path d="M18.6666 25.3333H7.33329C6.9651 25.3333 6.66663 25.0348 6.66663 24.6666V7.33325C6.66663 6.96506 6.9651 6.66659 7.33329 6.66659H16M18.6666 25.3333L25.3333 18.6666M18.6666 25.3333V19.3333C18.6666 18.9651 18.9651 18.6666 19.3333 18.6666H25.3333M25.3333 18.6666V15.6666" stroke="#233043" stroke-width="2" stroke-linecap="round" stroke-linejoin="round"/>
<path d="M24.0001 12C26.2093 12 28.0001 10.2091 28.0001 8C28.0001 5.79086 26.2093 4 24.0001 4C21.791 4 20.0001 5.79086 20.0001 8C20.0001 10.2091 21.791 12 24.0001 12Z" fill="#FCC205"/>
</svg>
