<svg width="32" height="32" viewBox="0 0 32 32" fill="none" xmlns="http://www.w3.org/2000/svg">
<path fill-rule="evenodd" clip-rule="evenodd" d="M26.6667 16C26.6667 21.891 21.8911 26.6667 16 26.6667C10.109 26.6667 5.33337 21.891 5.33337 16C5.33337 10.109 10.109 5.33334 16 5.33334C21.8911 5.33334 26.6667 10.109 26.6667 16ZM16 9.34315C16.5523 9.34315 17 9.79086 17 10.3431V15H21.6569C22.2092 15 22.6569 15.4478 22.6569 16C22.6569 16.5523 22.2092 17 21.6569 17H17V21.6569C17 22.2091 16.5523 22.6569 16 22.6569C15.4477 22.6569 15 22.2091 15 21.6569V17H10.3432C9.7909 17 9.34319 16.5523 9.34319 16C9.34319 15.4478 9.7909 15 10.3432 15H15V10.3431C15 9.79086 15.4477 9.34315 16 9.34315Z" fill="#233043"/>
</svg>
