<svg width="32" height="32" viewBox="0 0 32 32" fill="none" xmlns="http://www.w3.org/2000/svg">
<path fill-rule="evenodd" clip-rule="evenodd" d="M10.6668 3C11.2191 3 11.6668 3.44772 11.6668 4V5.66669H20.3333V4C20.3333 3.44772 20.781 3 21.3333 3C21.8856 3 22.3333 3.44772 22.3333 4V5.66669H26.0001C26.9206 5.66669 27.6668 6.41288 27.6668 7.33335V24.6667C27.6668 25.5872 26.9206 26.3334 26.0001 26.3334H6.00009C5.07961 26.3334 4.33342 25.5872 4.33342 24.6667V7.33335C4.33342 6.41287 5.07961 5.66669 6.00009 5.66669H9.66685V4C9.66685 3.44772 10.1146 3 10.6668 3ZM20.3333 7.66669V8C20.3333 8.55228 20.781 9 21.3333 9C21.8856 9 22.3333 8.55228 22.3333 8V7.66669H25.6668V24.3334H6.33342V7.66669H9.66685V8C9.66685 8.55228 10.1146 9 10.6668 9C11.2191 9 11.6668 8.55228 11.6668 8V7.66669H20.3333ZM16.9999 12.0217C16.9999 11.4694 16.5521 11.0217 15.9999 11.0217C15.4476 11.0217 14.9999 11.4694 14.9999 12.0217V15H12.0217C11.4694 15 11.0217 15.4477 11.0217 16C11.0217 16.5523 11.4694 17 12.0217 17H14.9999V19.9784C14.9999 20.5307 15.4476 20.9784 15.9999 20.9784C16.5521 20.9784 16.9999 20.5307 16.9999 19.9784V17H19.9785C20.5308 17 20.9785 16.5523 20.9785 16C20.9785 15.4477 20.5308 15 19.9785 15H16.9999V12.0217Z" fill="#233043"/>
</svg>
