<svg width="32" height="32" viewBox="0 0 32 32" fill="none" xmlns="http://www.w3.org/2000/svg">
<path fill-rule="evenodd" clip-rule="evenodd" d="M6.3335 16.0001C6.3335 21.3388 10.6614 25.6667 16.0002 25.6667C21.3389 25.6667 25.6668 21.3388 25.6668 16.0001C25.6668 15.4478 26.1145 15.0001 26.6668 15.0001C27.2191 15.0001 27.6668 15.4478 27.6668 16.0001C27.6668 22.4434 22.4435 27.6667 16.0002 27.6667C9.55684 27.6667 4.3335 22.4434 4.3335 16.0001C4.3335 9.55676 9.55684 4.33341 16.0002 4.33341C16.5524 4.33341 17.0002 4.78113 17.0002 5.33341C17.0002 5.8857 16.5524 6.33341 16.0002 6.33341C10.6614 6.33341 6.3335 10.6613 6.3335 16.0001Z" fill="#233043"/>
<path d="M12.6667 13.3333C12.6667 14.0697 12.0697 14.6667 11.3333 14.6667C10.597 14.6667 10 14.0697 10 13.3333C10 12.597 10.597 12 11.3333 12C12.0697 12 12.6667 12.597 12.6667 13.3333Z" fill="#233043"/>
<path d="M22.0002 13.3333C22.0002 14.0697 21.4032 14.6667 20.6668 14.6667C19.9304 14.6667 19.3335 14.0697 19.3335 13.3333C19.3335 12.597 19.9304 12 20.6668 12C21.4032 12 22.0002 12.597 22.0002 13.3333Z" fill="#233043"/>
<path d="M20 7C19.4477 7 19 7.44772 19 8C19 8.55228 19.4477 9 20 9H23V12C23 12.5523 23.4477 13 24 13C24.5523 13 25 12.5523 25 12V9H28C28.5523 9 29 8.55228 29 8C29 7.44772 28.5523 7 28 7H25V4C25 3.44771 24.5523 3 24 3C23.4477 3 23 3.44771 23 4V7H20Z" fill="#233043"/>
<path fill-rule="evenodd" clip-rule="evenodd" d="M9.15869 16.3488C9.7025 16.2524 10.2215 16.6151 10.3178 17.1589C10.7643 19.6783 13.1041 21.6668 15.9998 21.6668C18.8956 21.6668 21.2354 19.6783 21.6818 17.1589C21.7782 16.6151 22.2972 16.2524 22.841 16.3488C23.3848 16.4451 23.7475 16.9641 23.6512 17.5079C23.0248 21.0423 19.8033 23.6668 15.9998 23.6668C12.1963 23.6668 8.97485 21.0423 8.34852 17.5079C8.25215 16.9641 8.61487 16.4451 9.15869 16.3488Z" fill="#233043"/>
</svg>
