<svg width="32" height="32" viewBox="0 0 32 32" fill="none" xmlns="http://www.w3.org/2000/svg">
<path fill-rule="evenodd" clip-rule="evenodd" d="M15.9998 6.33344C10.6611 6.33344 6.33316 10.6613 6.33316 16.0001C6.33316 18.6429 7.39367 21.0379 9.11234 22.7829C9.88768 20.9594 11.2034 19.4477 12.8522 18.5516C11.7222 17.6349 11 16.2351 11 14.6666C11 11.9052 13.2386 9.66663 16 9.66663C18.7614 9.66663 21 11.9052 21 14.6666C21 16.1259 20.3749 17.4392 19.3778 18.3532C19.4374 18.3812 19.4966 18.4099 19.5554 18.4394C20.0492 18.6868 20.2488 19.2877 20.0014 19.7814C19.7539 20.2752 19.153 20.4748 18.6593 20.2274C17.9366 19.8651 17.1444 19.6667 16.3134 19.6667C13.8539 19.6667 11.6386 21.4411 10.7439 24.1144C12.2569 25.0964 14.0617 25.6668 15.9998 25.6668C16.5521 25.6668 16.9998 26.1145 16.9998 26.6668C16.9998 27.2191 16.5521 27.6668 15.9998 27.6668C9.5565 27.6668 4.33316 22.4434 4.33316 16.0001C4.33316 9.55678 9.5565 4.33344 15.9998 4.33344C22.4431 4.33344 27.6665 9.55678 27.6665 16.0001C27.6665 16.5524 27.2188 17.0001 26.6665 17.0001C26.1142 17.0001 25.6665 16.5524 25.6665 16.0001C25.6665 10.6613 21.3386 6.33344 15.9998 6.33344ZM16 11.6666C14.3431 11.6666 13 13.0098 13 14.6666C13 16.3235 14.3431 17.6666 16 17.6666C17.6569 17.6666 19 16.3235 19 14.6666C19 13.0098 17.6569 11.6666 16 11.6666ZM22.6664 17.6667C23.2187 17.6667 23.6664 18.1144 23.6664 18.6667V21.6666H26.6666C27.2189 21.6666 27.6666 22.1143 27.6666 22.6666C27.6666 23.2189 27.2189 23.6666 26.6666 23.6666H23.6664V26.6667C23.6664 27.219 23.2187 27.6667 22.6664 27.6667C22.1142 27.6667 21.6664 27.219 21.6664 26.6667V23.6666H18.6666C18.1143 23.6666 17.6666 23.2189 17.6666 22.6666C17.6666 22.1143 18.1143 21.6666 18.6666 21.6666H21.6664V18.6667C21.6664 18.1144 22.1142 17.6667 22.6664 17.6667Z" fill="#233043"/>
</svg>
