<svg width="32" height="32" viewBox="0 0 32 32" fill="none" xmlns="http://www.w3.org/2000/svg">
<path fill-rule="evenodd" clip-rule="evenodd" d="M15.1922 28.5896C15.3741 28.8384 15.6682 29 16 29C16.3318 29 16.6259 28.8384 16.8078 28.5896C16.8548 28.5537 16.8999 28.5143 16.9428 28.4714L24.7071 20.7071C25.0976 20.3166 25.0976 19.6834 24.7071 19.2929C24.3166 18.9024 23.6834 18.9024 23.2929 19.2929L17 25.5858V4C17 3.44771 16.5523 3 16 3C15.4477 3 15 3.44771 15 4V25.5858L8.70711 19.2929C8.31658 18.9024 7.68342 18.9024 7.29289 19.2929C6.90237 19.6834 6.90237 20.3166 7.29289 20.7071L15.0572 28.4714C15.1001 28.5143 15.1452 28.5537 15.1922 28.5896Z" fill="#233043"/>
</svg>
