<svg width="32" height="32" viewBox="0 0 32 32" fill="none" xmlns="http://www.w3.org/2000/svg">
<path fill-rule="evenodd" clip-rule="evenodd" d="M15 28C15 28.5523 15.4477 29 16 29C16.5523 29 17 28.5523 17 28V6.4142L23.2929 12.7071C23.6834 13.0976 24.3166 13.0976 24.7071 12.7071C25.0976 12.3166 25.0976 11.6834 24.7071 11.2929L16.9428 3.52859C16.8999 3.48566 16.8548 3.44627 16.8078 3.41043C16.6259 3.16162 16.3318 3 16 3C15.6682 3 15.3741 3.16162 15.1922 3.41043C15.1452 3.44627 15.1001 3.48566 15.0572 3.52859L7.29289 11.2929C6.90237 11.6834 6.90237 12.3166 7.29289 12.7071C7.68342 13.0976 8.31658 13.0976 8.70711 12.7071L15 6.4142V28Z" fill="#233043"/>
</svg>
