<svg width="32" height="32" viewBox="0 0 32 32" fill="none" xmlns="http://www.w3.org/2000/svg">
<path d="M12.2278 6.9414C12.506 5.11888 13.9167 3.80191 16 3.80191C18.0833 3.80191 19.7722 5.49078 19.7722 7.57411V14.2978M12.2278 11.3928V15.1185C12.2278 17.2018 13.9167 18.8907 16 18.8907C17.0992 18.8907 18.0886 18.4206 18.778 17.6704" stroke="#233043" stroke-width="2" stroke-linecap="round" stroke-linejoin="round"/>
<path d="M24.1707 14.8054C24.1707 16.1378 23.99 17.2819 23.6874 17.8534M7.82932 14.8054C7.82932 19.3179 11.4875 22.976 16 22.976C18.2897 22.976 20.3594 22.0745 21.8428 20.5764" stroke="#233043" stroke-width="2" stroke-linecap="round" stroke-linejoin="round"/>
<line x1="15.9315" y1="22.8513" x2="15.9315" y2="27.1255" stroke="#233043" stroke-width="2"/>
<line x1="12.1915" y1="28.0779" x2="19.8085" y2="28.0779" stroke="#233043" stroke-width="2" stroke-linecap="round"/>
<line x1="6.10051" y1="4.68628" x2="27.3137" y2="25.8995" stroke="#233043" stroke-width="2" stroke-linecap="round"/>
</svg>
