<svg width="32" height="32" viewBox="0 0 32 32" fill="none" xmlns="http://www.w3.org/2000/svg">
<path fill-rule="evenodd" clip-rule="evenodd" d="M7.66669 6.66656C7.66669 6.11428 7.21897 5.66656 6.66669 5.66656C6.1144 5.66656 5.66669 6.11428 5.66669 6.66656V24.6666C5.66669 25.587 6.41288 26.3332 7.33335 26.3332H25.3334C25.8856 26.3332 26.3334 25.8855 26.3334 25.3332C26.3334 24.7809 25.8856 24.3332 25.3334 24.3332H7.66669V6.66656ZM12.9999 13.3333C12.9999 12.781 12.5522 12.3333 11.9999 12.3333C11.4476 12.3333 10.9999 12.781 10.9999 13.3333V20C10.9999 20.5523 11.4476 21 11.9999 21C12.5522 21 12.9999 20.5523 12.9999 20V13.3333ZM17.3333 7C17.8856 7 18.3333 7.44772 18.3333 8V20C18.3333 20.5523 17.8856 21 17.3333 21C16.7811 21 16.3333 20.5523 16.3333 20V8C16.3333 7.44772 16.7811 7 17.3333 7ZM23.6666 17.3333C23.6666 16.781 23.2189 16.3333 22.6666 16.3333C22.1143 16.3333 21.6666 16.781 21.6666 17.3333V20C21.6666 20.5523 22.1143 21 22.6666 21C23.2189 21 23.6666 20.5523 23.6666 20V17.3333Z" fill="#233043"/>
</svg>
