<svg width="32" height="32" viewBox="0 0 32 32" fill="none" xmlns="http://www.w3.org/2000/svg">
<path fill-rule="evenodd" clip-rule="evenodd" d="M16 32C24.8366 32 32 24.8366 32 16C32 7.16344 24.8366 0 16 0C7.16344 0 0 7.16344 0 16C0 24.8366 7.16344 32 16 32ZM12.6264 8.70711C12.2359 8.31658 12.2359 7.68342 12.6264 7.29289C13.0169 6.90237 13.6501 6.90237 14.0406 7.29289L21.5692 14.8215C22.2201 15.4724 22.2201 16.5276 21.5692 17.1785L14.0406 24.7071C13.6501 25.0976 13.0169 25.0976 12.6264 24.7071C12.2359 24.3166 12.2359 23.6834 12.6264 23.2929L19.9193 16L12.6264 8.70711Z" fill="#233043"/>
</svg>
