<svg width="32" height="32" viewBox="0 0 32 32" fill="none" xmlns="http://www.w3.org/2000/svg">
<path fill-rule="evenodd" clip-rule="evenodd" d="M16 32C24.8366 32 32 24.8366 32 16C32 7.16344 24.8366 0 16 0C7.16344 0 0 7.16344 0 16C0 24.8366 7.16344 32 16 32ZM19.3737 8.70711C19.7642 8.31658 19.7642 7.68342 19.3737 7.29289C18.9832 6.90237 18.35 6.90237 17.9595 7.29289L10.4309 14.8215C9.78 15.4724 9.78001 16.5276 10.4309 17.1785L17.9595 24.7071C18.35 25.0976 18.9832 25.0976 19.3737 24.7071C19.7642 24.3166 19.7642 23.6834 19.3737 23.2929L12.0808 16L19.3737 8.70711Z" fill="#233043"/>
</svg>
