<svg width="32" height="32" viewBox="0 0 32 32" fill="none" xmlns="http://www.w3.org/2000/svg">
<g clip-path="url(#clip0)">
<path fill-rule="evenodd" clip-rule="evenodd" d="M16 32C7.16344 32 0 24.8366 0 16C0 7.16344 7.16344 0 16 0C24.8366 0 32 7.16344 32 16C32 24.8366 24.8366 32 16 32ZM19.3736 8.70711C19.7641 8.31658 19.7641 7.68342 19.3736 7.29289C18.9831 6.90237 18.3499 6.90237 17.9594 7.29289L10.4308 14.8215C9.77993 15.4724 9.77993 16.5276 10.4308 17.1785L17.9594 24.7071C18.3499 25.0976 18.9831 25.0976 19.3736 24.7071C19.7641 24.3166 19.7641 23.6834 19.3736 23.2929L12.0807 16L19.3736 8.70711Z" fill="#233043"/>
</g>
<defs>
<clipPath id="clip0">
<rect width="32" height="32" fill="white" transform="matrix(-1 0 0 1 32 0)"/>
</clipPath>
</defs>
</svg>
