<svg width="32" height="32" viewBox="0 0 32 32" fill="none" xmlns="http://www.w3.org/2000/svg">
<path fill-rule="evenodd" clip-rule="evenodd" d="M8.00003 5.66669C7.44775 5.66669 7.00003 6.1144 7.00003 6.66669C7.00003 7.21897 7.44775 7.66669 8.00003 7.66669H9.6667V14.6666V14.6667V24.3333H8.00003C7.44775 24.3333 7.00003 24.781 7.00003 25.3333C7.00003 25.8856 7.44775 26.3333 8.00003 26.3333H18.6667C22.1645 26.3333 25 23.4978 25 20C25 17.3147 23.3288 15.0197 20.9698 14.0984C21.8151 13.2029 22.3334 11.9953 22.3334 10.6667C22.3334 7.90526 20.0948 5.66669 17.3334 5.66669H8.00003ZM11.6667 15.6667H17.3334C17.3416 15.6667 17.3499 15.6667 17.3581 15.6666H18.6667C21.0599 15.6666 23 17.6067 23 20C23 22.3932 21.0599 24.3333 18.6667 24.3333H11.6667V15.6667ZM17.3526 13.6666C19.0006 13.6563 20.3334 12.3171 20.3334 10.6667C20.3334 9.00983 18.9902 7.66669 17.3334 7.66669H11.6667V13.6666H17.3526Z" fill="#233043"/>
</svg>
