<svg width="32" height="32" viewBox="0 0 32 32" fill="none" xmlns="http://www.w3.org/2000/svg">
<path d="M5.28928 10.75C5.28928 10.3358 5.62507 10 6.03928 10H25.9607C26.3749 10 26.7107 10.3358 26.7107 10.75V25.25C26.7107 25.6642 26.3749 26 25.9607 26H6.03928C5.62507 26 5.28928 25.6642 5.28928 25.25V10.75Z" fill="#233043"/>
<circle cx="16" cy="18" r="4" fill="white"/>
<path d="M11.8291 6.51283C11.9311 6.20657 12.2177 6 12.5406 6H19.4594C19.7823 6 20.0689 6.20657 20.1709 6.51283L21.6709 11.0128C21.8328 11.4985 21.4713 12 20.9594 12H11.0406C10.5287 12 10.1672 11.4985 10.3291 11.0128L11.8291 6.51283Z" fill="#233043"/>
</svg>
