<svg width="32" height="33" viewBox="0 0 32 33" fill="none" xmlns="http://www.w3.org/2000/svg">
<path d="M5.28931 10.7539C5.28931 10.3397 5.62509 10.0039 6.03931 10.0039H25.9607C26.3749 10.0039 26.7107 10.3397 26.7107 10.7539V25.2539C26.7107 25.6681 26.3749 26.0039 25.9607 26.0039H6.03931C5.62509 26.0039 5.28931 25.6681 5.28931 25.2539V10.7539Z" fill="#233043"/>
<circle cx="16" cy="18.0039" r="4" fill="white"/>
<path d="M11.8291 6.51674C11.9311 6.21048 12.2177 6.00391 12.5406 6.00391H19.4594C19.7823 6.00391 20.0689 6.21048 20.1709 6.51674L21.6709 11.0167C21.8328 11.5024 21.4713 12.0039 20.9594 12.0039H11.0406C10.5287 12.0039 10.1672 11.5024 10.3291 11.0167L11.8291 6.51674Z" fill="#233043"/>
</svg>
