<svg width="32" height="32" viewBox="0 0 32 32" fill="none" xmlns="http://www.w3.org/2000/svg">
<path fill-rule="evenodd" clip-rule="evenodd" d="M12.5406 6C12.2177 6 11.9311 6.20657 11.8291 6.51283L10.6667 10H6.03928C5.62507 10 5.28928 10.3358 5.28928 10.75V25.25C5.28928 25.6642 5.62507 26 6.03928 26H25.9607C26.3749 26 26.7107 25.6642 26.7107 25.25V10.75C26.7107 10.3358 26.3749 10 25.9607 10H21.3333L20.1709 6.51283C20.0689 6.20657 19.7823 6 19.4594 6H12.5406ZM20 18C20 20.2091 18.2091 22 16 22C13.7909 22 12 20.2091 12 18C12 15.7909 13.7909 14 16 14C18.2091 14 20 15.7909 20 18Z" fill="#233043"/>
</svg>
