<svg width="32" height="32" viewBox="0 0 32 32" fill="none" xmlns="http://www.w3.org/2000/svg">
<path fill-rule="evenodd" clip-rule="evenodd" d="M8.96452 21.621C8.574 22.0115 8.574 22.6447 8.96452 23.0352C9.35505 23.4258 9.98821 23.4258 10.3787 23.0352L16 17.4139L21.6214 23.0353C22.0119 23.4258 22.6451 23.4258 23.0356 23.0353C23.4261 22.6447 23.4261 22.0116 23.0356 21.6211L17.4143 15.9997L23.0356 10.3784C23.4261 9.98785 23.4261 9.35468 23.0356 8.96416C22.6451 8.57363 22.0119 8.57363 21.6214 8.96416L16 14.5855L10.3787 8.96419C9.9882 8.57367 9.35503 8.57367 8.96451 8.96419C8.57398 9.35471 8.57398 9.98788 8.96451 10.3784L14.5858 15.9997L8.96452 21.621Z" fill="#233043"/>
</svg>
