<svg width="32" height="32" viewBox="0 0 32 32" fill="none" xmlns="http://www.w3.org/2000/svg">
<path fill-rule="evenodd" clip-rule="evenodd" d="M5.29289 5.29289C5.68342 4.90237 6.31658 4.90237 6.70711 5.29289L26.7071 25.2929C27.0976 25.6834 27.0976 26.3166 26.7071 26.7071C26.3166 27.0976 25.6834 27.0976 25.2929 26.7071L5.29289 6.70711C4.90237 6.31658 4.90237 5.68342 5.29289 5.29289Z" fill="#233043"/>
<path fill-rule="evenodd" clip-rule="evenodd" d="M13.1973 11.8616C11.8721 12.7611 11.0014 14.2801 11.0014 16.0024C11.0014 18.7645 13.2405 21.0035 16.0025 21.0035C17.7249 21.0035 19.2439 20.1329 20.1434 18.8076L18.7366 17.4008C18.272 18.3888 17.2254 19.0033 16.0025 19.0033C14.3452 19.0033 13.0016 17.6598 13.0016 16.0024C13.0016 14.7795 13.7277 13.8445 14.7741 13.4383L13.1973 11.8616ZM20.9436 16.7794C20.9831 16.5262 21.0036 16.2667 21.0036 16.0024C21.0036 13.2404 18.7645 11.0013 16.0025 11.0013C15.7382 11.0013 15.4787 11.0218 15.2255 11.0613L20.9436 16.7794Z" fill="#233043"/>
<path fill-rule="evenodd" clip-rule="evenodd" d="M10.1133 8.77752C9.24851 9.29128 8.45204 9.87422 7.73746 10.4667C5.57946 12.2561 4.03975 14.2394 3.44758 15.0528C3.03373 15.6213 3.03373 16.3845 3.44758 16.953C4.03975 17.7664 5.57946 19.7498 7.73746 21.5391C9.87868 23.3146 12.7551 25.004 16.0025 25.004C19.1752 25.004 21.757 23.8459 23.7389 22.4031L22.3047 20.9689C20.6234 22.1332 18.5252 23.0038 16.0025 23.0038C13.4381 23.0038 11.0093 21.6536 9.01421 19.9994C7.21398 18.5066 5.8698 16.8516 5.23271 16.0029C5.8698 15.1543 7.21398 13.4992 9.01421 12.0065C9.8071 11.3491 10.6685 10.7396 11.5797 10.2439L10.1133 8.77752ZM23.8706 19.7064C25.376 18.3107 26.3625 16.8337 26.8209 16.0679C26.2129 15.2513 24.8695 13.577 23.0528 12.0581C21.0473 10.3813 18.5944 9.00208 16.0025 9.00208C15.1698 9.00208 14.3515 9.14443 13.5576 9.39333L11.9966 7.83241C13.2413 7.32299 14.5866 7.00183 16.0025 7.00183C19.2837 7.00183 22.1865 8.72655 24.3358 10.5235C26.5027 12.3352 28.0353 14.3305 28.5941 15.1032C28.9632 15.6138 29.0016 16.288 28.6877 16.8379C28.2548 17.5963 27.1249 19.4016 25.2859 21.1217L23.8706 19.7064Z" fill="#233043"/>
</svg>
