<svg width="32" height="32" viewBox="0 0 32 32" fill="none" xmlns="http://www.w3.org/2000/svg">
<path fill-rule="evenodd" clip-rule="evenodd" d="M7.3333 5.66656C6.41282 5.66656 5.66663 6.41275 5.66663 7.33323V19.3332C5.66663 20.2537 6.41282 20.9999 7.3333 20.9999H10.9998V24.6667C10.9998 25.5871 11.746 26.3333 12.6664 26.3333H24.6664C25.5869 26.3333 26.3331 25.5871 26.3331 24.6667V12.6667C26.3331 11.7462 25.5869 11 24.6664 11H21V7.33323C21 6.41276 20.2538 5.66656 19.3333 5.66656H7.3333ZM19 11V7.66656H7.66663V18.9999H10.9998V12.6667C10.9998 11.7462 11.746 11 12.6664 11H19ZM12.9998 20.0191C12.9999 20.0127 13 20.0063 13 19.9999C13 19.9935 12.9999 19.9871 12.9998 19.9807V13H24.3331V24.3333H12.9998V20.0191Z" fill="#233043"/>
</svg>
