<svg width="32" height="33" viewBox="0 0 32 33" fill="none" xmlns="http://www.w3.org/2000/svg">
<path fill-rule="evenodd" clip-rule="evenodd" d="M24.291 23.2323C24.6776 23.2323 24.991 23.5457 24.991 23.9323V26.3037C24.991 26.6903 24.6776 27.0037 24.291 27.0037H7.70922C7.32262 27.0037 7.00922 26.6903 7.00922 26.3037V23.9323C7.00922 23.5457 7.32262 23.2323 7.70922 23.2323H24.291ZM15.4481 5.71127C15.7284 5.35206 16.2716 5.35206 16.5519 5.71126L21.0158 11.4324C21.2324 11.7101 21.6215 11.7836 21.9245 11.604L26.6031 8.83152C27.1313 8.51849 27.7779 8.98875 27.6428 9.58772L25.1141 20.8006C25.0421 21.1198 24.7585 21.3466 24.4313 21.3466H7.56893C7.24167 21.3466 6.95808 21.1198 6.88608 20.8006L4.35724 9.58771C4.22216 8.98874 4.86871 8.51848 5.39695 8.8315L10.0757 11.604C10.3787 11.7836 10.7678 11.7101 10.9844 11.4324L15.4481 5.71127Z" fill="#233043"/>
</svg>
