<svg width="32" height="32" viewBox="0 0 32 32" fill="none" xmlns="http://www.w3.org/2000/svg">
<path fill-rule="evenodd" clip-rule="evenodd" d="M24.291 23.2286C24.6776 23.2286 24.991 23.542 24.991 23.9286V26.3C24.991 26.6866 24.6776 27 24.291 27H7.70922C7.32262 27 7.00922 26.6866 7.00922 26.3V23.9286C7.00922 23.542 7.32262 23.2286 7.70922 23.2286H24.291ZM15.4481 5.70756C15.7284 5.34835 16.2716 5.34835 16.5519 5.70755L21.0158 11.4287C21.2324 11.7064 21.6215 11.7799 21.9245 11.6003L26.6031 8.82781C27.1313 8.51479 27.7779 8.98504 27.6428 9.58401L25.1141 20.7969C25.0421 21.1161 24.7585 21.3429 24.4313 21.3429H7.56893C7.24167 21.3429 6.95808 21.1161 6.88608 20.7969L4.35724 9.58401C4.22216 8.98503 4.86871 8.51477 5.39695 8.8278L10.0757 11.6003C10.3787 11.7799 10.7678 11.7064 10.9844 11.4287L15.4481 5.70756Z" fill="#233043"/>
</svg>
