<svg width="32" height="32" viewBox="0 0 32 32" fill="none" xmlns="http://www.w3.org/2000/svg">
<path d="M20 6.66663H7.33329C6.9651 6.66663 6.66663 6.9651 6.66663 7.33329V24.6666C6.66663 25.0348 6.9651 25.3333 7.33329 25.3333H24.6666C25.0348 25.3333 25.3333 25.0348 25.3333 24.6666V12M20 6.66663L25.3333 12M20 6.66663V11.3333C20 11.7015 20.2984 12 20.6666 12H25.3333" stroke="#233043" stroke-width="2" stroke-linecap="round" stroke-linejoin="round"/>
<path d="M13.3908 17.6914C13.2492 16.5156 12.3592 15.8395 11.181 15.8395C9.83616 15.8395 8.80953 16.7891 8.80953 18.4545C8.80953 20.1151 9.81876 21.0696 11.181 21.0696C12.486 21.0696 13.274 20.2021 13.3908 19.2649L12.3021 19.2599C12.2002 19.8043 11.7726 20.1175 11.1984 20.1175C10.4253 20.1175 9.90079 19.5433 9.90079 18.4545C9.90079 17.3956 10.4178 16.7915 11.2058 16.7915C11.795 16.7915 12.22 17.1321 12.3021 17.6914H13.3908ZM16.9244 17.3732H17.956C17.9411 16.4659 17.1954 15.8395 16.0618 15.8395C14.9457 15.8395 14.1279 16.456 14.1329 17.3807C14.1304 18.1314 14.6598 18.5614 15.5199 18.7678L16.0743 18.907C16.6286 19.0412 16.9368 19.2003 16.9393 19.5433C16.9368 19.9162 16.5839 20.1697 16.037 20.1697C15.4777 20.1697 15.075 19.9112 15.0402 19.4016H13.9986C14.026 20.5028 14.814 21.0721 16.0494 21.0721C17.2923 21.0721 18.0231 20.478 18.0256 19.5458C18.0231 18.6982 17.3843 18.2482 16.4993 18.0494L16.0419 17.94C15.5995 17.8381 15.2291 17.674 15.2366 17.3086C15.2366 16.9805 15.5274 16.7393 16.0544 16.7393C16.5689 16.7393 16.8846 16.973 16.9244 17.3732ZM19.6693 15.9091H18.4737L20.2311 21H21.6182L23.3732 15.9091H22.18L20.947 19.777H20.8998L19.6693 15.9091Z" fill="#233043"/>
</svg>
