<svg width="32" height="32" viewBox="0 0 32 32" fill="none" xmlns="http://www.w3.org/2000/svg">
<path fill-rule="evenodd" clip-rule="evenodd" d="M7.66661 24.3334V7.66669H18.9999V11.3334C18.9999 12.2538 19.7461 13 20.6666 13H24.3333V24.3334H7.66661ZM22.9191 11L20.9999 9.0809V11H22.9191ZM7.33328 5.66669C6.41281 5.66669 5.66661 6.41287 5.66661 7.33335V24.6667C5.66661 25.5872 6.4128 26.3334 7.33328 26.3334H24.6666C25.5871 26.3334 26.3333 25.5872 26.3333 24.6667V12C26.3333 11.7348 26.2279 11.4804 26.0404 11.2929L20.7071 5.95958C20.5195 5.77204 20.2652 5.66669 19.9999 5.66669H7.33328ZM13.3908 17.6914C13.2492 16.5156 12.3592 15.8395 11.181 15.8395C9.83615 15.8395 8.80952 16.7891 8.80952 18.4545C8.80952 20.115 9.81875 21.0696 11.181 21.0696C12.486 21.0696 13.274 20.202 13.3908 19.2649L12.3021 19.2599C12.2001 19.8043 11.7726 20.1175 11.1984 20.1175C10.4253 20.1175 9.90078 19.5433 9.90078 18.4545C9.90078 17.3956 10.4178 16.7915 11.2058 16.7915C11.795 16.7915 12.22 17.1321 12.3021 17.6914H13.3908ZM16.9244 17.3732H17.956C17.9411 16.4659 17.1954 15.8395 16.0618 15.8395C14.9457 15.8395 14.1279 16.456 14.1329 17.3807C14.1304 18.1314 14.6598 18.5614 15.5199 18.7677L16.0743 18.9069C16.6286 19.0412 16.9368 19.2003 16.9393 19.5433C16.9368 19.9162 16.5838 20.1697 16.037 20.1697C15.4777 20.1697 15.075 19.9112 15.0402 19.4016H13.9986C14.026 20.5028 14.814 21.0721 16.0494 21.0721C17.2923 21.0721 18.0231 20.478 18.0256 19.5458C18.0231 18.6981 17.3843 18.2482 16.4993 18.0493L16.0419 17.94C15.5995 17.8381 15.2291 17.674 15.2365 17.3086C15.2365 16.9805 15.5274 16.7393 16.0544 16.7393C16.5689 16.7393 16.8846 16.973 16.9244 17.3732ZM18.4737 15.9091H19.6693L20.8998 19.777H20.947L22.18 15.9091H23.3732L21.6182 21H20.2311L18.4737 15.9091Z" fill="#233043"/>
</svg>
