<svg width="32" height="32" viewBox="0 0 32 32" fill="none" xmlns="http://www.w3.org/2000/svg">
<path fill-rule="evenodd" clip-rule="evenodd" d="M13 6.33325V8.33325H19V6.33325H13ZM11 5.99992C11 5.07944 11.7462 4.33325 12.6666 4.33325H19.3333C20.2538 4.33325 21 5.07944 21 5.99992V8.33331H25.3332C25.8855 8.33331 26.3332 8.78103 26.3332 9.33331C26.3332 9.8856 25.8855 10.3333 25.3332 10.3333H25V26C25 26.9205 24.2538 27.6666 23.3333 27.6666H8.66664C7.74617 27.6666 6.99998 26.9205 6.99998 26V10.3333H6.66655C6.11427 10.3333 5.66655 9.8856 5.66655 9.33331C5.66655 8.78103 6.11427 8.33331 6.66655 8.33331H11V5.99992ZM8.99998 10.3333V25.6666H23V10.3333H8.99998ZM13.3334 12.3333C13.8857 12.3333 14.3334 12.781 14.3334 13.3333V21.3333C14.3334 21.8855 13.8857 22.3333 13.3334 22.3333C12.7811 22.3333 12.3334 21.8855 12.3334 21.3333V13.3333C12.3334 12.781 12.7811 12.3333 13.3334 12.3333ZM19.6667 13.3333C19.6667 12.781 19.219 12.3333 18.6667 12.3333C18.1144 12.3333 17.6667 12.781 17.6667 13.3333V21.3333C17.6667 21.8855 18.1144 22.3333 18.6667 22.3333C19.219 22.3333 19.6667 21.8855 19.6667 21.3333V13.3333Z" fill="#233043"/>
</svg>
