<svg width="32" height="32" viewBox="0 0 32 32" fill="none" xmlns="http://www.w3.org/2000/svg">
<path fill-rule="evenodd" clip-rule="evenodd" d="M15.9999 5.66669C16.5521 5.66669 16.9999 6.1144 16.9999 6.66669V18.9192L19.2929 16.6262C19.6834 16.2357 20.3166 16.2357 20.7071 16.6262C21.0976 17.0168 21.0976 17.6499 20.7071 18.0404L17.1785 21.569C16.5276 22.2199 15.4723 22.2199 14.8215 21.569L11.2929 18.0404C10.9024 17.6499 10.9024 17.0168 11.2929 16.6262C11.6834 16.2357 12.3166 16.2357 12.7071 16.6262L14.9999 18.919V6.66669C14.9999 6.1144 15.4476 5.66669 15.9999 5.66669ZM7.66656 20V24.3333H24.3332V20C24.3332 19.4477 24.7809 19 25.3332 19C25.8855 19 26.3332 19.4477 26.3332 20V24.6666C26.3332 25.5871 25.587 26.3333 24.6666 26.3333H7.33323C6.41275 26.3333 5.66656 25.5871 5.66656 24.6666V20C5.66656 19.4477 6.11428 19 6.66656 19C7.21885 19 7.66656 19.4477 7.66656 20Z" fill="#233043"/>
</svg>
