<svg width="32" height="32" viewBox="0 0 32 32" fill="none" xmlns="http://www.w3.org/2000/svg">
<path fill-rule="evenodd" clip-rule="evenodd" d="M20.1549 5.09758C20.8057 4.4467 21.861 4.44671 22.5119 5.09758L26.2831 8.86882C26.934 9.51969 26.934 10.575 26.2831 11.2258L13.9054 23.6036C13.7823 23.7267 13.6291 23.8156 13.4611 23.8613L8.10736 25.3194C6.86358 25.6581 5.72256 24.5171 6.06131 23.2733L7.51938 17.9196C7.56514 17.7516 7.65399 17.5985 7.77713 17.4753L20.1549 5.09758ZM21.3334 6.74749L9.89845 18.1824L13.1983 21.4823L24.6332 10.0473L21.3334 6.74749ZM11.2722 22.3846L8.9961 20.1085L8.14418 23.2365L11.2722 22.3846Z" fill="#233043"/>
</svg>
