<svg width="32" height="32" viewBox="0 0 32 32" fill="none" xmlns="http://www.w3.org/2000/svg">
<path fill-rule="evenodd" clip-rule="evenodd" d="M6.08327 8C5.91614 8 5.76178 8.05467 5.63709 8.14709C5.32642 8.37738 5.67013 8.73502 5.9975 8.94087C6.05266 8.97556 6.10582 9.01503 6.15642 9.0593L15.539 17.2692C15.8029 17.5001 16.197 17.5001 16.4609 17.2692L25.8435 9.0593C25.8941 9.01503 25.9472 8.97557 26.0024 8.94088C26.3298 8.73502 26.6734 8.3774 26.3628 8.1471C26.2381 8.05467 26.0837 8 25.9166 8H6.08327ZM26.6666 13.2037C26.6666 12.6022 25.9582 12.2808 25.5056 12.6769L17.2621 19.8901C16.5395 20.5224 15.4604 20.5224 14.7378 19.8901L6.49422 12.6768C6.04162 12.2808 5.33327 12.6022 5.33327 13.2036V23.25C5.33327 23.6642 5.66905 24 6.08327 24H25.9166C26.3308 24 26.6666 23.6642 26.6666 23.25V13.2037Z" fill="#233043"/>
</svg>
