<svg width="32" height="32" viewBox="0 0 32 32" fill="none" xmlns="http://www.w3.org/2000/svg">
<path fill-rule="evenodd" clip-rule="evenodd" d="M16.0001 7C9.55683 7 4.33348 12.2233 4.33348 18.6667V23.8316C4.33348 24.4769 4.8566 25 5.5019 25H26.4984C27.1437 25 27.6668 24.4769 27.6668 23.8316V18.6667C27.6668 12.2233 22.4435 7 16.0001 7ZM6.33348 18.6667C6.33348 13.3279 10.6614 9 16.0001 9C21.3389 9 25.6668 13.3279 25.6668 18.6667V23H20.9892C20.8673 21.1478 19.7368 19.5711 18.1418 18.8139L19.0216 14.7354C19.138 14.1955 18.7948 13.6634 18.2549 13.547C17.7151 13.4305 17.183 13.7738 17.0665 14.3136L16.1986 18.3372C16.1328 18.3347 16.0666 18.3334 16.0002 18.3334C13.3508 18.3334 11.1827 20.394 11.0111 23H6.33348V18.6667ZM18.9819 23C18.816 21.5 17.5444 20.3334 16.0002 20.3334C14.456 20.3334 13.1843 21.5 13.0185 23H18.9819ZM16.0001 12.6666C16.5523 12.6666 17.0001 12.2189 17.0001 11.6666C17.0001 11.1143 16.5523 10.6666 16.0001 10.6666C15.4478 10.6666 15.0001 11.1143 15.0001 11.6666C15.0001 12.2189 15.4478 12.6666 16.0001 12.6666ZM11.3333 14.3333C11.3333 14.8856 10.8856 15.3333 10.3333 15.3333C9.78106 15.3333 9.33334 14.8856 9.33334 14.3333C9.33334 13.781 9.78106 13.3333 10.3333 13.3333C10.8856 13.3333 11.3333 13.781 11.3333 14.3333ZM9.00006 20.6259C9.55235 20.6259 10.0001 20.1782 10.0001 19.6259C10.0001 19.0736 9.55235 18.6259 9.00006 18.6259C8.44778 18.6259 8.00006 19.0736 8.00006 19.6259C8.00006 20.1782 8.44778 20.6259 9.00006 20.6259ZM24 19.6259C24 20.1782 23.5523 20.6259 23 20.6259C22.4478 20.6259 22 20.1782 22 19.6259C22 19.0736 22.4478 18.6259 23 18.6259C23.5523 18.6259 24 19.0736 24 19.6259ZM21.6668 15.3333C22.219 15.3333 22.6668 14.8856 22.6668 14.3333C22.6668 13.781 22.219 13.3333 21.6668 13.3333C21.1145 13.3333 20.6668 13.781 20.6668 14.3333C20.6668 14.8856 21.1145 15.3333 21.6668 15.3333Z" fill="#233043"/>
</svg>
