<svg width="32" height="32" viewBox="0 0 32 32" fill="none" xmlns="http://www.w3.org/2000/svg">
<path fill-rule="evenodd" clip-rule="evenodd" d="M16 7C9.55667 7 4.33333 12.2233 4.33333 18.6667V23.8316C4.33333 24.4769 4.85645 25 5.50175 25H26.4982C27.1435 25 27.6667 24.4769 27.6667 23.8316V18.6667C27.6667 12.2233 22.4433 7 16 7Z" fill="#233043"/>
<path d="M20 25.3333C20 23.1242 18.2091 21.3333 16 21.3333C13.7909 21.3333 12 23.1242 12 25.3333" stroke="white" stroke-width="2" stroke-linecap="round" stroke-linejoin="round"/>
<path d="M16 21.3333L18 15.3333" stroke="white" stroke-width="2" stroke-linecap="round" stroke-linejoin="round"/>
<circle cx="16" cy="11.6667" r="1" fill="white"/>
<circle cx="10.3333" cy="14.3333" r="1" fill="white"/>
<circle cx="9" cy="19.626" r="1" fill="white"/>
<circle cx="23" cy="19.626" r="1" fill="white"/>
<circle cx="21.6667" cy="14.3333" r="1" fill="white"/>
</svg>
