<svg width="32" height="32" viewBox="0 0 32 32" fill="none" xmlns="http://www.w3.org/2000/svg">
<path fill-rule="evenodd" clip-rule="evenodd" d="M4.33333 18.6667C4.33333 12.2233 9.55667 7 16 7C22.4433 7 27.6667 12.2233 27.6667 18.6667V23.8316C27.6667 24.4769 27.1435 25 26.4982 25H20.9891C20.8473 22.8463 19.3418 21.065 17.328 20.5116L18.9487 15.6496C19.1233 15.1256 18.8402 14.5593 18.3162 14.3846C17.7923 14.21 17.226 14.4932 17.0513 15.0171L15.2612 20.3875C12.9577 20.7287 11.1662 22.6409 11.0109 25H5.50175C4.85645 25 4.33333 24.4769 4.33333 23.8316V18.6667ZM15.9799 22.3334C14.4448 22.3435 13.1834 23.5065 13.0183 25H18.9817C18.8166 23.5066 17.5553 22.3436 16.0203 22.3334C16.0069 22.3337 15.9934 22.3337 15.9799 22.3334ZM16 12.6667C16.5523 12.6667 17 12.219 17 11.6667C17 11.1144 16.5523 10.6667 16 10.6667C15.4477 10.6667 15 11.1144 15 11.6667C15 12.219 15.4477 12.6667 16 12.6667ZM11.3333 14.3333C11.3333 14.8856 10.8856 15.3333 10.3333 15.3333C9.78105 15.3333 9.33333 14.8856 9.33333 14.3333C9.33333 13.781 9.78105 13.3333 10.3333 13.3333C10.8856 13.3333 11.3333 13.781 11.3333 14.3333ZM9 20.626C9.55228 20.626 10 20.1783 10 19.626C10 19.0737 9.55228 18.626 9 18.626C8.44772 18.626 8 19.0737 8 19.626C8 20.1783 8.44772 20.626 9 20.626ZM24 19.626C24 20.1783 23.5523 20.626 23 20.626C22.4477 20.626 22 20.1783 22 19.626C22 19.0737 22.4477 18.626 23 18.626C23.5523 18.626 24 19.0737 24 19.626ZM21.6667 15.3333C22.2189 15.3333 22.6667 14.8856 22.6667 14.3333C22.6667 13.781 22.2189 13.3333 21.6667 13.3333C21.1144 13.3333 20.6667 13.781 20.6667 14.3333C20.6667 14.8856 21.1144 15.3333 21.6667 15.3333Z" fill="#233043"/>
</svg>
