<svg width="32" height="32" viewBox="0 0 32 32" fill="none" xmlns="http://www.w3.org/2000/svg">
<path d="M9.80161 23.5294L13.1765 23.5294C13.6963 23.5294 14.1176 23.9508 14.1176 24.4706C14.1176 24.9904 13.6963 25.4118 13.1765 25.4118L7.52941 25.4118C7.00961 25.4118 6.58823 24.9904 6.58823 24.4706V18.8235C6.58823 18.3037 7.00961 17.8823 7.52941 17.8823C8.04921 17.8823 8.47059 18.3037 8.47059 18.8235L8.47059 22.1984L22.1984 8.47058H18.8235C18.3037 8.47058 17.8824 8.0492 17.8824 7.5294C17.8824 7.0096 18.3037 6.58823 18.8235 6.58823H24.4706C24.9904 6.58823 25.4118 7.0096 25.4118 7.5294V13.1765C25.4118 13.6963 24.9904 14.1176 24.4706 14.1176C23.9508 14.1176 23.5294 13.6963 23.5294 13.1765V9.8016L9.80161 23.5294Z" fill="#233043"/>
</svg>
