<svg width="32" height="32" viewBox="0 0 32 32" fill="none" xmlns="http://www.w3.org/2000/svg">
<path fill-rule="evenodd" clip-rule="evenodd" d="M9.5 9C8.67157 9 8 9.67157 8 10.5V21.5C8 22.3284 8.67157 23 9.5 23H22.5C23.3284 23 24 22.3284 24 21.5V13.5C24 12.6716 23.3284 12 22.5 12H16.6694C16.2864 12 15.9179 11.8535 15.6394 11.5905L12.8965 9H9.5ZM6 10.5C6 8.567 7.567 7 9.5 7H13.0953C13.4783 7 13.8468 7.1465 14.1253 7.40948L16.8682 10H22.5C24.433 10 26 11.567 26 13.5V21.5C26 23.433 24.433 25 22.5 25H9.5C7.567 25 6 23.433 6 21.5V10.5Z" fill="#233043"/>
</svg>
