<svg width="32" height="33" viewBox="0 0 32 33" fill="none" xmlns="http://www.w3.org/2000/svg">
<path d="M16.0002 14.6704H26.6668V10.6704H16.0002M16.0002 14.6704H5.3335V10.6704H16.0002M16.0002 14.6704V10.6704" stroke="#233043" stroke-width="2" stroke-linecap="round" stroke-linejoin="round"/>
<path d="M16.0001 14.6704H6.66675V26.6704H16.0001M16.0001 14.6704H25.3334V26.6704H16.0001M16.0001 14.6704V26.6704" stroke="#233043" stroke-width="2" stroke-linecap="round" stroke-linejoin="round"/>
<path d="M13.2235 6.42066C14.2951 7.01889 16.1293 10.3334 16.1293 10.3334C16.1293 10.3334 12.3453 10.5115 11.2737 9.91328C10.2021 9.31504 9.76984 8.04823 10.3083 7.08377C10.8467 6.11931 12.1519 5.82242 13.2235 6.42066Z" stroke="#233043" stroke-width="2" stroke-linecap="round" stroke-linejoin="round"/>
<path d="M18.5474 6.42066C17.4758 7.01889 15.6416 10.3334 15.6416 10.3334C15.6416 10.3334 19.4255 10.5115 20.4972 9.91328C21.5688 9.31504 22.001 8.04823 21.4626 7.08377C20.9242 6.11931 19.619 5.82242 18.5474 6.42066Z" stroke="#233043" stroke-width="2" stroke-linecap="round" stroke-linejoin="round"/>
</svg>
