<svg width="32" height="32" viewBox="0 0 32 32" fill="none" xmlns="http://www.w3.org/2000/svg">
<path d="M16.0001 14.6666H26.6668V10.6666H16.0001M16.0001 14.6666H5.33347V10.6666H16.0001M16.0001 14.6666V10.6666" stroke="#233043" stroke-width="2" stroke-linecap="round" stroke-linejoin="round"/>
<path d="M16.0001 14.6666H6.66676V26.6666H16.0001M16.0001 14.6666H25.3334V26.6666H16.0001M16.0001 14.6666V26.6666" stroke="#233043" stroke-width="2" stroke-linecap="round" stroke-linejoin="round"/>
<path d="M13.2234 6.41651C14.2951 7.01474 16.1293 10.3292 16.1293 10.3292C16.1293 10.3292 12.3453 10.5074 11.2737 9.90913C10.2021 9.31089 9.76981 8.04408 10.3082 7.07962C10.8466 6.11515 12.1518 5.81827 13.2234 6.41651Z" stroke="#233043" stroke-width="2" stroke-linecap="round" stroke-linejoin="round"/>
<path d="M18.5474 6.41651C17.4758 7.01474 15.6416 10.3292 15.6416 10.3292C15.6416 10.3292 19.4256 10.5074 20.4972 9.90913C21.5688 9.31089 22.0011 8.04408 21.4627 7.07962C20.9243 6.11515 19.6191 5.81827 18.5474 6.41651Z" stroke="#233043" stroke-width="2" stroke-linecap="round" stroke-linejoin="round"/>
</svg>
