<svg width="32" height="32" viewBox="0 0 32 32" fill="none" xmlns="http://www.w3.org/2000/svg">
<path fill-rule="evenodd" clip-rule="evenodd" d="M25.539 7.87526L24.9266 8.48768C26.6365 10.5173 27.6668 13.1384 27.6668 16C27.6668 22.4433 22.4434 27.6667 16.0001 27.6667C9.55679 27.6667 4.33345 22.4433 4.33345 16C4.33345 9.5567 9.55679 4.33336 16.0001 4.33336C18.8617 4.33336 21.4827 5.36363 23.5124 7.07347L24.1549 6.43089V5.17509C24.1549 4.99828 24.2252 4.82871 24.3502 4.70369L26.0058 3.04809C26.181 2.87288 26.4794 2.94331 26.5577 3.17839L27.0258 4.58273C27.0922 4.7818 27.2484 4.93801 27.4475 5.00436L28.8518 5.47248C29.0869 5.55083 29.1573 5.84919 28.9821 6.0244L27.3265 7.68C27.2015 7.80503 27.0319 7.87526 26.8551 7.87526H25.539ZM6.33345 16C6.33345 10.6613 10.6614 6.33336 16.0001 6.33336C18.3093 6.33336 20.4293 7.14303 22.0919 8.49396L19.7153 10.8705C18.6717 10.1133 17.388 9.66673 15.9999 9.66673C12.5021 9.66673 9.6666 12.5023 9.6666 16.0001C9.6666 19.4979 12.5021 22.3334 15.9999 22.3334C19.4977 22.3334 22.3333 19.4979 22.3333 16.0001C22.3333 14.6121 21.8868 13.3283 21.1295 12.2847L23.5061 9.90816C24.8571 11.5707 25.6668 13.6908 25.6668 16C25.6668 21.3388 21.3389 25.6667 16.0001 25.6667C10.6614 25.6667 6.33345 21.3388 6.33345 16ZM15.9999 11.6667C16.8343 11.6667 17.6135 11.9025 18.2747 12.3111L16.2358 14.35C16.1588 14.3391 16.08 14.3334 16 14.3334C15.0795 14.3334 14.3333 15.0796 14.3333 16.0001C14.3333 16.9206 15.0795 17.6668 16 17.6668C16.9205 17.6668 17.6666 16.9206 17.6666 16.0001C17.6666 15.92 17.661 15.8412 17.6501 15.7642L19.6889 13.7253C20.0975 14.3865 20.3333 15.1658 20.3333 16.0001C20.3333 18.3933 18.3932 20.3334 15.9999 20.3334C13.6067 20.3334 11.6666 18.3933 11.6666 16.0001C11.6666 13.6068 13.6067 11.6667 15.9999 11.6667Z" fill="#233043"/>
</svg>
