<svg width="32" height="32" viewBox="0 0 32 32" fill="none" xmlns="http://www.w3.org/2000/svg">
<path fill-rule="evenodd" clip-rule="evenodd" d="M15.9999 6.33337C10.6612 6.33337 6.33325 10.6613 6.33325 16C6.33325 21.3388 10.6612 25.6667 15.9999 25.6667C21.3387 25.6667 25.6666 21.3388 25.6666 16C25.6666 10.6613 21.3387 6.33337 15.9999 6.33337ZM4.33325 16C4.33325 9.55672 9.5566 4.33337 15.9999 4.33337C22.4432 4.33337 27.6666 9.55672 27.6666 16C27.6666 22.4434 22.4432 27.6667 15.9999 27.6667C9.5566 27.6667 4.33325 22.4434 4.33325 16ZM16 11.0001C14.6725 11.0001 13.6667 12.0232 13.6667 13.2001C13.6667 13.7524 13.219 14.2001 12.6667 14.2001C12.1144 14.2001 11.6667 13.7524 11.6667 13.2001C11.6667 10.8424 13.6456 9.00012 16 9.00012C18.3544 9.00012 20.3333 10.8424 20.3333 13.2001C20.3333 15.2134 18.8852 16.8551 17 17.2875V18.0001C17 18.5524 16.5523 19.0001 16 19.0001C15.4477 19.0001 15 18.5524 15 18.0001V17.0668C15 16.1092 15.7585 15.4934 16.4726 15.3551C17.5631 15.1439 18.3333 14.2337 18.3333 13.2001C18.3333 12.0232 17.3275 11.0001 16 11.0001ZM15.9999 22.6666C16.7362 22.6666 17.3332 22.0697 17.3332 21.3333C17.3332 20.5969 16.7362 19.9999 15.9999 19.9999C15.2635 19.9999 14.6665 20.5969 14.6665 21.3333C14.6665 22.0697 15.2635 22.6666 15.9999 22.6666Z" fill="#233043"/>
</svg>
