<svg width="32" height="32" viewBox="0 0 32 32" fill="none" xmlns="http://www.w3.org/2000/svg">
<path fill-rule="evenodd" clip-rule="evenodd" d="M15.3493 4.57412C15.7238 4.25313 16.2764 4.25313 16.6509 4.57412L25.9842 12.5741C26.2058 12.7641 26.3334 13.0414 26.3334 13.3334V26.6667C26.3334 27.219 25.8857 27.6667 25.3334 27.6667H18.6668C18.1145 27.6667 17.6668 27.219 17.6668 26.6667V19.6667H14.3334V26.6667C14.3334 27.219 13.8857 27.6667 13.3334 27.6667H6.66673C6.11445 27.6667 5.66673 27.219 5.66673 26.6667V13.3334C5.66673 13.0414 5.7943 12.7641 6.01594 12.5741L15.3493 4.57412ZM7.66673 13.7933V25.6667H12.3334V18.6667C12.3334 18.1145 12.7811 17.6667 13.3334 17.6667H18.6668C19.219 17.6667 19.6668 18.1145 19.6668 18.6667V25.6667H24.3334V13.7933L16.0001 6.65045L7.66673 13.7933Z" fill="#233043"/>
</svg>
