<svg width="32" height="32" viewBox="0 0 32 32" fill="none" xmlns="http://www.w3.org/2000/svg">
<path d="M6.66675 13.3334L6.01596 12.5741C5.79431 12.7641 5.66675 13.0414 5.66675 13.3334H6.66675ZM16.0001 5.33337L16.6509 4.57412C16.2764 4.25313 15.7238 4.25313 15.3493 4.57412L16.0001 5.33337ZM6.66675 26.6667H5.66675C5.66675 27.219 6.11446 27.6667 6.66675 27.6667V26.6667ZM13.3334 26.6667V27.6667C13.8857 27.6667 14.3334 27.219 14.3334 26.6667H13.3334ZM13.3334 18.6667V17.6667C12.7812 17.6667 12.3334 18.1145 12.3334 18.6667H13.3334ZM18.6668 18.6667H19.6668C19.6668 18.1145 19.2191 17.6667 18.6668 17.6667V18.6667ZM18.6668 26.6667H17.6668C17.6668 27.219 18.1145 27.6667 18.6668 27.6667V26.6667ZM25.3334 26.6667V27.6667C25.8857 27.6667 26.3334 27.219 26.3334 26.6667H25.3334ZM25.3334 13.3334H26.3334C26.3334 13.0414 26.2058 12.7641 25.9842 12.5741L25.3334 13.3334ZM7.31754 14.0926L16.6509 6.09263L15.3493 4.57412L6.01596 12.5741L7.31754 14.0926ZM7.66675 26.6667V13.3334H5.66675V26.6667H7.66675ZM13.3334 25.6667H6.66675V27.6667H13.3334V25.6667ZM14.3334 26.6667V18.6667H12.3334V26.6667H14.3334ZM13.3334 19.6667H18.6668V17.6667H13.3334V19.6667ZM17.6668 18.6667V26.6667H19.6668V18.6667H17.6668ZM25.3334 25.6667H18.6668V27.6667H25.3334V25.6667ZM24.3334 13.3334V26.6667H26.3334V13.3334H24.3334ZM15.3493 6.09263L24.6826 14.0926L25.9842 12.5741L16.6509 4.57412L15.3493 6.09263Z" fill="#233043"/>
</svg>
