<svg width="32" height="32" viewBox="0 0 32 32" fill="none" xmlns="http://www.w3.org/2000/svg">
<path fill-rule="evenodd" clip-rule="evenodd" d="M26.6667 16C26.6667 21.891 21.891 26.6667 16 26.6667C10.109 26.6667 5.33333 21.891 5.33333 16C5.33333 10.109 10.109 5.33333 16 5.33333C21.891 5.33333 26.6667 10.109 26.6667 16ZM16 13.8224C16.5522 13.8224 17 14.2701 17 14.8224V21.5242C17 22.0764 16.5522 22.5242 16 22.5242C15.4477 22.5242 15 22.0764 15 21.5242V14.8224C15 14.2701 15.4477 13.8224 16 13.8224ZM15.9998 12.2504C16.7362 12.2504 17.3331 11.6535 17.3331 10.9171C17.3331 10.1807 16.7362 9.58374 15.9998 9.58374C15.2634 9.58374 14.6665 10.1807 14.6665 10.9171C14.6665 11.6535 15.2634 12.2504 15.9998 12.2504Z" fill="#233043"/>
</svg>
