<svg width="32" height="32" viewBox="0 0 32 32" fill="none" xmlns="http://www.w3.org/2000/svg">
<path fill-rule="evenodd" clip-rule="evenodd" d="M26.6667 16.0002C26.6667 21.8912 21.8911 26.6668 16 26.6668C10.109 26.6668 5.33337 21.8912 5.33337 16.0002C5.33337 10.1091 10.109 5.3335 16 5.3335C21.8911 5.3335 26.6667 10.1091 26.6667 16.0002ZM16 13.8225C16.5523 13.8225 17 14.2703 17 14.8225V21.5243C17 22.0766 16.5523 22.5243 16 22.5243C15.4477 22.5243 15 22.0766 15 21.5243V14.8225C15 14.2703 15.4477 13.8225 16 13.8225ZM15.9998 12.2506C16.7362 12.2506 17.3332 11.6536 17.3332 10.9172C17.3332 10.1809 16.7362 9.58391 15.9998 9.58391C15.2635 9.58391 14.6665 10.1809 14.6665 10.9172C14.6665 11.6536 15.2635 12.2506 15.9998 12.2506Z" fill="#233043"/>
</svg>
