<svg width="32" height="32" viewBox="0 0 32 32" fill="none" xmlns="http://www.w3.org/2000/svg">
<path fill-rule="evenodd" clip-rule="evenodd" d="M22.6666 5.66669H19.3578C19.3414 5.66628 19.325 5.66628 19.3086 5.66669H15.9999C15.4476 5.66669 14.9999 6.1144 14.9999 6.66669C14.9999 7.21897 15.4476 7.66669 15.9999 7.66669H17.9142L11.9618 24.3333H9.33322C8.78094 24.3333 8.33322 24.781 8.33322 25.3333C8.33322 25.8856 8.78094 26.3333 9.33322 26.3333H12.643C12.6587 26.3337 12.6743 26.3337 12.69 26.3333H15.9999C16.5522 26.3333 16.9999 25.8856 16.9999 25.3333C16.9999 24.781 16.5522 24.3333 15.9999 24.3333H14.0855L20.0379 7.66669H22.6666C23.2189 7.66669 23.6666 7.21897 23.6666 6.66669C23.6666 6.1144 23.2189 5.66669 22.6666 5.66669Z" fill="#233043"/>
</svg>
