<svg width="32" height="32" viewBox="0 0 32 32" fill="none" xmlns="http://www.w3.org/2000/svg">
<path fill-rule="evenodd" clip-rule="evenodd" d="M18.3332 7.33321C18.3332 8.62188 17.2886 9.66654 15.9999 9.66654C14.7112 9.66654 13.6666 8.62188 13.6666 7.33321C13.6666 6.04455 14.7112 4.99988 15.9999 4.99988C17.2886 4.99988 18.3332 6.04455 18.3332 7.33321ZM18.3332 15.9999C18.3332 17.2886 17.2885 18.3333 15.9999 18.3333C14.7112 18.3333 13.6665 17.2886 13.6665 15.9999C13.6665 14.7113 14.7112 13.6666 15.9999 13.6666C17.2885 13.6666 18.3332 14.7113 18.3332 15.9999ZM15.9999 27C17.2885 27 18.3332 25.9553 18.3332 24.6666C18.3332 23.378 17.2885 22.3333 15.9999 22.3333C14.7112 22.3333 13.6665 23.378 13.6665 24.6666C13.6665 25.9553 14.7112 27 15.9999 27Z" fill="#233043"/>
</svg>
