<svg width="32" height="32" viewBox="0 0 32 32" fill="none" xmlns="http://www.w3.org/2000/svg">
<path fill-rule="evenodd" clip-rule="evenodd" d="M15.567 6.69825C15.47 6.69079 15.3746 6.72609 15.3057 6.7949L4.33615 17.7645C4.20598 17.8947 4.20598 18.1057 4.33615 18.2359L13.7642 27.664C13.8944 27.7942 14.1055 27.7942 14.2356 27.664L25.2052 16.6944C25.2741 16.6256 25.3094 16.5301 25.3019 16.4331L24.6285 7.67847C24.6158 7.51454 24.4856 7.38429 24.3217 7.37168L15.567 6.69825ZM18.7728 13.2274C19.2935 13.7481 20.1378 13.7481 20.6585 13.2274C21.1792 12.7067 21.1792 11.8624 20.6585 11.3417C20.1378 10.821 19.2935 10.821 18.7728 11.3417C18.2521 11.8624 18.2521 12.7067 18.7728 13.2274Z" fill="#233043"/>
</svg>
