<svg width="32" height="33" viewBox="0 0 32 33" fill="none" xmlns="http://www.w3.org/2000/svg">
<path fill-rule="evenodd" clip-rule="evenodd" d="M15.567 6.70212C15.47 6.69466 15.3745 6.72997 15.3057 6.79877L4.33612 17.7684C4.20595 17.8985 4.20594 18.1096 4.33612 18.2398L13.7642 27.6679C13.8944 27.798 14.1054 27.798 14.2356 27.6679L25.2052 16.6983C25.274 16.6295 25.3093 16.534 25.3019 16.437L24.6284 7.68235C24.6158 7.51842 24.4856 7.38817 24.3216 7.37556L15.567 6.70212ZM18.7728 13.2312C19.2935 13.7519 20.1377 13.7519 20.6584 13.2312C21.1791 12.7105 21.1791 11.8663 20.6584 11.3456C20.1377 10.8249 19.2935 10.8249 18.7728 11.3456C18.2521 11.8663 18.2521 12.7105 18.7728 13.2312Z" fill="#233043"/>
</svg>
