<svg width="32" height="32" viewBox="0 0 32 32" fill="none" xmlns="http://www.w3.org/2000/svg">
<path fill-rule="evenodd" clip-rule="evenodd" d="M7.66672 6.66656C7.66672 6.11428 7.219 5.66656 6.66672 5.66656C6.11443 5.66656 5.66672 6.11428 5.66672 6.66656V24.6666C5.66672 25.587 6.41291 26.3332 7.33338 26.3332H25.3334C25.8857 26.3332 26.3334 25.8855 26.3334 25.3332C26.3334 24.7809 25.8857 24.3332 25.3334 24.3332H7.66672V6.66656ZM24.6989 12.715C25.0938 12.3289 25.1009 11.6958 24.7148 11.3009C24.3287 10.906 23.6956 10.8989 23.3007 11.285L18.4906 15.9882L16.4395 14.2854C15.7771 13.7356 14.8051 13.7806 14.1964 14.3893L10.6261 17.9596C10.2355 18.3501 10.2355 18.9832 10.6261 19.3738C11.0166 19.7643 11.6497 19.7643 12.0403 19.3738L15.3957 16.0183L17.4442 17.7189C18.101 18.2642 19.0637 18.2251 19.674 17.6283L24.6989 12.715Z" fill="#233043"/>
</svg>
