<svg width="32" height="32" viewBox="0 0 32 32" fill="none" xmlns="http://www.w3.org/2000/svg">
<path fill-rule="evenodd" clip-rule="evenodd" d="M16.0001 6.33334C10.6613 6.33334 6.33341 10.6613 6.33341 16C6.33341 21.3388 10.6613 25.6667 16.0001 25.6667C21.3388 25.6667 25.6667 21.3388 25.6667 16C25.6667 10.6613 21.3388 6.33334 16.0001 6.33334ZM4.33341 16C4.33341 9.55669 9.55676 4.33334 16.0001 4.33334C22.4434 4.33334 27.6667 9.55669 27.6667 16C27.6667 22.4433 22.4434 27.6667 16.0001 27.6667C9.55676 27.6667 4.33341 22.4433 4.33341 16Z" fill="#D5D9DE"/>
<path fill-rule="evenodd" clip-rule="evenodd" d="M15.0001 5.33334C15.0001 4.78106 15.4478 4.33334 16.0001 4.33334C22.4434 4.33334 27.6667 9.55669 27.6667 16C27.6667 16.5523 27.219 17 26.6667 17C26.1145 17 25.6667 16.5523 25.6667 16C25.6667 10.6613 21.3388 6.33334 16.0001 6.33334C15.4478 6.33334 15.0001 5.88563 15.0001 5.33334Z" fill="#233043"/>
</svg>
