<svg width="32" height="32" viewBox="0 0 32 32" fill="none" xmlns="http://www.w3.org/2000/svg">
<path d="M10.6667 10.6667C10.6667 7.72114 13.0545 5.33333 16 5.33333V5.33333C18.9455 5.33333 21.3334 7.72114 21.3334 10.6667V13.2732C21.3334 13.3064 21.3064 13.3333 21.2732 13.3333H10.7268C10.6936 13.3333 10.6667 13.3064 10.6667 13.2732V10.6667Z" stroke="#233043" stroke-width="2" stroke-linecap="round" stroke-linejoin="round"/>
<path fill-rule="evenodd" clip-rule="evenodd" d="M6.03933 12C5.62511 12 5.28933 12.3358 5.28933 12.75V27.25C5.28933 27.6642 5.62511 28 6.03933 28H25.9607C26.3749 28 26.7107 27.6642 26.7107 27.25V12.75C26.7107 12.3358 26.3749 12 25.9607 12H6.03933ZM17.3333 18.6668C17.3333 19.1296 17.0975 19.5373 16.7396 19.7764L18.3212 22.1488C18.4689 22.3703 18.3101 22.667 18.0439 22.667H13.9562C13.69 22.667 13.5312 22.3703 13.6789 22.1488L15.2604 19.7764C14.9024 19.5374 14.6666 19.1296 14.6666 18.6668C14.6666 17.9304 15.2636 17.3335 15.9999 17.3335C16.7363 17.3335 17.3333 17.9304 17.3333 18.6668Z" fill="#233043"/>
</svg>
