<svg width="32" height="32" viewBox="0 0 32 32" fill="none" xmlns="http://www.w3.org/2000/svg">
<path d="M6.6665 14.0002C6.6665 13.632 6.96498 13.3336 7.33317 13.3336H24.6665C25.0347 13.3336 25.3332 13.632 25.3332 14.0002V26.0002C25.3332 26.3684 25.0347 26.6669 24.6665 26.6669H7.33317C6.96498 26.6669 6.6665 26.3684 6.6665 26.0002V14.0002Z" stroke="#233043" stroke-width="2" stroke-linecap="round" stroke-linejoin="round"/>
<path d="M10.6664 10.6668C10.6664 7.72131 13.0542 5.3335 15.9997 5.3335C18.9452 5.3335 21.333 7.72131 21.333 10.6668V13.2733C21.333 13.3066 21.3061 13.3335 21.2729 13.3335H10.7265C10.6933 13.3335 10.6664 13.3066 10.6664 13.2733V10.6668Z" stroke="#233043" stroke-width="2" stroke-linecap="round" stroke-linejoin="round"/>
<path d="M17.3331 18.6668C17.3331 19.4032 16.7361 20.0002 15.9997 20.0002C15.2633 20.0002 14.6664 19.4032 14.6664 18.6668C14.6664 17.9304 15.2633 17.3335 15.9997 17.3335C16.7361 17.3335 17.3331 17.9304 17.3331 18.6668Z" fill="#233043"/>
<path d="M15.4452 19.4988C15.7091 19.103 16.2907 19.103 16.5546 19.4988L17.9756 21.6303C18.271 22.0734 17.9534 22.6668 17.4209 22.6668H14.5789C14.0465 22.6668 13.7289 22.0734 14.0242 21.6303L15.4452 19.4988Z" fill="#233043"/>
</svg>
