<svg width="32" height="33" viewBox="0 0 32 33" fill="none" xmlns="http://www.w3.org/2000/svg">
<path d="M20.0003 6.67041H7.00033C6.81623 6.67041 6.66699 6.81965 6.66699 7.00374V25.0037C6.66699 25.1878 6.81623 25.3371 7.00032 25.3371H15.6183M20.0003 6.67041L25.3337 12.0037M20.0003 6.67041V11.6704C20.0003 11.8545 20.1496 12.0037 20.3337 12.0037H25.3337M25.3337 12.0037V14.2965" stroke="#233043" stroke-width="2" stroke-linecap="round" stroke-linejoin="round"/>
<path d="M12 12.0039H14.6667" stroke="#233043" stroke-width="2" stroke-linecap="round" stroke-linejoin="round"/>
<path d="M12 16.0039H20" stroke="#233043" stroke-width="2" stroke-linecap="round" stroke-linejoin="round"/>
<path d="M12 20.0039H16" stroke="#233043" stroke-width="2" stroke-linecap="round" stroke-linejoin="round"/>
<rect x="20" y="21.6855" width="8.58993" height="6.13566" rx="0.333333" stroke="#233043" stroke-width="2" stroke-linecap="round" stroke-linejoin="round"/>
<path d="M21.8408 20.4582C21.8408 19.1027 22.9396 18.0039 24.2951 18.0039V18.0039C25.6505 18.0039 26.7493 19.1027 26.7493 20.4582V21.6576C26.7493 21.6729 26.737 21.6853 26.7217 21.6853H21.8685C21.8532 21.6853 21.8408 21.6729 21.8408 21.6576V20.4582Z" stroke="#233043" stroke-width="2" stroke-linecap="round" stroke-linejoin="round"/>
</svg>
