<svg width="32" height="32" viewBox="0 0 32 32" fill="none" xmlns="http://www.w3.org/2000/svg">
<path d="M17.1638 6.87172C16.5335 6.73742 15.8797 6.66675 15.2093 6.66675C10.0547 6.66675 5.87598 10.8454 5.87598 16.0001C5.87598 21.1547 10.0547 25.3334 15.2093 25.3334C15.2222 25.3334 15.2351 25.3334 15.2479 25.3333H25.456C26.069 25.3333 26.3571 24.5757 25.8989 24.1684L22.808 21.4209C23.9 19.8928 24.5426 18.0215 24.5426 16.0001C24.5426 15.5564 24.5117 15.1199 24.4518 14.6927" stroke="#233043" stroke-width="2" stroke-linecap="round" stroke-linejoin="round"/>
<path d="M24 12C26.2091 12 28 10.2091 28 8C28 5.79086 26.2091 4 24 4C21.7909 4 20 5.79086 20 8C20 10.2091 21.7909 12 24 12Z" fill="#F96155"/>
</svg>
