<svg width="32" height="32" viewBox="0 0 32 32" fill="none" xmlns="http://www.w3.org/2000/svg">
<path d="M6.66679 13.3334V25.0001C6.66679 25.1842 6.81603 25.3334 7.00013 25.3334H14.0001M6.66679 13.3334V7.00008C6.66679 6.81599 6.81603 6.66675 7.00013 6.66675H16.0001M6.66679 13.3334H14.0001M18.8059 13.3334H14.0001M14.0001 13.3334V25.3334M14.0001 25.3334H25.0001C25.1842 25.3334 25.3335 25.1842 25.3335 25.0001V14.564" stroke="#233043" stroke-width="2" stroke-linecap="round" stroke-linejoin="round"/>
<path d="M23.3335 12C25.5426 12 27.3335 10.2091 27.3335 8C27.3335 5.79086 25.5426 4 23.3335 4C21.1243 4 19.3335 5.79086 19.3335 8C19.3335 10.2091 21.1243 12 23.3335 12Z" fill="#FF5971"/>
</svg>
