<svg width="32" height="32" viewBox="0 0 32 32" fill="none" xmlns="http://www.w3.org/2000/svg">
<path fill-rule="evenodd" clip-rule="evenodd" d="M7.6666 24.3334V7.66669H18.9999V11.3334C18.9999 12.2538 19.7461 13 20.6666 13H24.3333V24.3334H7.6666ZM22.9191 11L20.9999 9.0809V11H22.9191ZM7.33327 5.66669C6.4128 5.66669 5.6666 6.41287 5.6666 7.33335V24.6667C5.6666 25.5872 6.41279 26.3334 7.33327 26.3334H24.6666C25.5871 26.3334 26.3333 25.5872 26.3333 24.6667V12C26.3333 11.7348 26.2279 11.4804 26.0404 11.2929L20.707 5.95958C20.5195 5.77204 20.2652 5.66669 19.9999 5.66669H7.33327ZM12 11C11.4477 11 11 11.4477 11 12C11 12.5523 11.4477 13 12 13H14.6666C15.2189 13 15.6666 12.5523 15.6666 12C15.6666 11.4477 15.2189 11 14.6666 11H12ZM11 16C11 15.4477 11.4477 15 12 15H20C20.5523 15 21 15.4477 21 16C21 16.5523 20.5523 17 20 17H12C11.4477 17 11 16.5523 11 16ZM12 19C11.4477 19 11 19.4477 11 20C11 20.5523 11.4477 21 12 21H20C20.5523 21 21 20.5523 21 20C21 19.4477 20.5523 19 20 19H12Z" fill="#233043"/>
</svg>
