<svg width="32" height="32" viewBox="0 0 32 32" fill="none" xmlns="http://www.w3.org/2000/svg">
<path d="M6.14902 22.2507V9.55734H4.20769C4.20769 11.1253 3.70369 11.7227 1.33302 11.7227V13.5147H4.02102V22.2507H6.14902Z" fill="#233043"/>
<path d="M18.6265 22.2507V20.328H12.3359C12.5599 19.1707 12.9519 18.704 14.3519 17.9013L16.1812 16.856C17.7492 15.96 18.6639 14.5227 18.6639 12.9733C18.6639 10.7333 17.0772 9.33334 14.5199 9.33334C11.8132 9.33334 10.0772 11.1067 10.0772 13.8693H12.2985C12.2985 12.152 13.1012 11.2 14.5199 11.2C15.6212 11.2 16.3865 11.9653 16.3865 13.0853C16.3865 14.112 15.8452 14.9147 14.7999 15.4933L12.9332 16.52C10.7305 17.7333 9.79719 19.4507 9.79719 22.2507H18.6265Z" fill="#233043"/>
<path d="M25.7048 22.4747C28.2808 22.4747 30.0915 20.888 30.0915 18.6107C30.0915 17.024 29.1208 15.8293 27.6275 15.568C29.0275 15.12 29.7742 14.168 29.7742 12.824C29.7742 10.7333 28.1128 9.33334 25.6302 9.33334C22.9982 9.33334 21.3182 10.8827 21.3182 13.3093H23.4275C23.4275 11.928 24.2675 11.1067 25.6302 11.1067C26.7875 11.1067 27.5902 11.816 27.5902 12.824C27.5902 14.0747 26.9182 14.6907 25.5555 14.6907H24.6408V16.5387H25.5368C27.1235 16.5387 27.9262 17.248 27.9262 18.6293C27.9262 19.8427 27.0302 20.664 25.7048 20.664C24.0995 20.664 23.1848 19.712 23.1848 18.0133H21.0008C21.0008 20.832 22.7368 22.4747 25.7048 22.4747Z" fill="#233043"/>
</svg>
