<svg width="32" height="32" viewBox="0 0 32 32" fill="none" xmlns="http://www.w3.org/2000/svg">
<path fill-rule="evenodd" clip-rule="evenodd" d="M11.0002 8C11.0002 7.44772 11.4479 7 12.0002 7H25.3335C25.8858 7 26.3335 7.44772 26.3335 8C26.3335 8.55228 25.8858 9 25.3335 9H12.0002C11.4479 9 11.0002 8.55228 11.0002 8Z" fill="#233043"/>
<path fill-rule="evenodd" clip-rule="evenodd" d="M6.66677 5.33325C7.03496 5.33325 7.33344 5.63173 7.33344 5.99992V9.99992C7.33344 10.3681 7.03496 10.6666 6.66677 10.6666C6.29858 10.6666 6.00011 10.3681 6.00011 9.99992V5.99992C6.00011 5.63173 6.29858 5.33325 6.66677 5.33325Z" fill="#233043"/>
<path fill-rule="evenodd" clip-rule="evenodd" d="M11.0002 15.9999C11.0002 15.4476 11.4479 14.9999 12.0002 14.9999H25.3335C25.8858 14.9999 26.3335 15.4476 26.3335 15.9999C26.3335 16.5522 25.8858 16.9999 25.3335 16.9999H12.0002C11.4479 16.9999 11.0002 16.5522 11.0002 15.9999Z" fill="#233043"/>
<path fill-rule="evenodd" clip-rule="evenodd" d="M6.14117 14.8895C6.04029 15.0296 6.00015 15.2177 6.00015 15.3333C6.00015 15.7014 5.70167 15.9999 5.33348 15.9999C4.96529 15.9999 4.66681 15.7014 4.66681 15.3333C4.66681 15.0043 4.76 14.5258 5.05912 14.1104C5.38272 13.6609 5.9162 13.3333 6.66681 13.3333C7.41743 13.3333 7.9509 13.6609 8.2745 14.1104C8.57363 14.5258 8.66681 15.0043 8.66681 15.3333C8.66681 15.8853 8.39562 16.3644 8.10406 16.7289C7.93008 16.9464 7.72794 17.1491 7.51914 17.3333H8.00015C8.36834 17.3333 8.66681 17.6317 8.66681 17.9999C8.66681 18.3681 8.36834 18.6666 8.00015 18.6666H5.33348C5.02429 18.6666 4.75568 18.454 4.68465 18.1531C4.61363 17.8522 4.75872 17.5421 5.03514 17.4037C5.0352 17.4037 5.03527 17.4037 5.03534 17.4036L5.03538 17.4036L5.03916 17.4017L5.05741 17.3923C5.07418 17.3837 5.09989 17.3702 5.13325 17.3524C5.20004 17.3166 5.29709 17.2632 5.41423 17.1949C5.6499 17.0574 5.96016 16.8632 6.26681 16.6333C6.57732 16.4004 6.86188 16.1472 7.0629 15.896C7.27134 15.6354 7.33348 15.4479 7.33348 15.3333C7.33348 15.2177 7.29333 15.0296 7.19246 14.8895C7.11606 14.7833 6.98287 14.6666 6.66681 14.6666C6.35076 14.6666 6.21757 14.7833 6.14117 14.8895ZM5.03514 17.4037C5.03524 17.4037 5.03701 17.407 5.33348 17.9999L5.03514 17.4037Z" fill="#233043"/>
<path fill-rule="evenodd" clip-rule="evenodd" d="M11.0002 23.9999C11.0002 23.4477 11.4479 22.9999 12.0002 22.9999H25.3335C25.8858 22.9999 26.3335 23.4477 26.3335 23.9999C26.3335 24.5522 25.8858 24.9999 25.3335 24.9999H12.0002C11.4479 24.9999 11.0002 24.5522 11.0002 23.9999Z" fill="#233043"/>
<path fill-rule="evenodd" clip-rule="evenodd" d="M7.88688 23.056L8.47155 22.4714C8.66221 22.2807 8.71925 21.994 8.61606 21.7449C8.51287 21.4957 8.26978 21.3333 8.00014 21.3333L5.33348 21.3333C4.96529 21.3333 4.66681 21.6318 4.66681 22C4.66681 22.3682 4.96529 22.6666 5.33348 22.6666L6.39067 22.6666L6.1954 22.8619C6.00474 23.0526 5.9477 23.3393 6.05089 23.5884C6.15318 23.8354 6.39297 23.9972 6.65981 23.9999C6.65973 23.9999 6.65988 23.9999 6.65981 23.9999C6.65887 23.9999 6.65864 23.9999 6.65981 23.9999L6.66248 24L6.66443 24L6.66556 24C6.66578 24 6.6666 24 6.66681 24L6.66681 23.3333L7.13821 23.8047L7.88688 23.056ZM5.33348 25H6.00014C6.00014 25.0003 6.00014 24.9997 6.00014 25C6.00014 25.0004 5.99897 25 5.33348 25ZM5.33348 25H4.66681C4.66681 24.6318 4.96529 24.3333 5.33348 24.3333C5.69535 24.3333 5.98988 24.6216 5.99988 24.9811C5.99982 24.9806 5.99978 24.9801 5.99974 24.9797C5.99968 24.979 5.99965 24.9787 5.99965 24.9787C5.99966 24.9788 5.99979 24.9792 5.99988 24.9811L6.00003 24.9885L6.00011 24.9937L6.00013 24.9967L6.00014 24.9983M6.00014 25C6.00013 24.994 6.00005 24.9871 5.99988 24.9811C6.00039 24.9859 6.00179 24.9967 6.0051 25.0116C6.01283 25.0464 6.02792 25.0898 6.05484 25.1302C6.08275 25.172 6.19435 25.3333 6.66681 25.3333C6.68674 25.3333 6.88529 25.3312 7.05982 25.241C7.1369 25.2012 7.19683 25.1504 7.24007 25.0819C7.28211 25.0152 7.33348 24.8923 7.33348 24.6666C7.33348 24.45 7.28122 24.3318 7.23711 24.2656C7.19021 24.1953 7.12291 24.1401 7.03533 24.0963C6.94514 24.0512 6.84688 24.0253 6.76554 24.0117C6.72645 24.0052 6.69534 24.0022 6.6766 24.0009C6.66771 24.0003 6.66193 24 6.65981 23.9999C6.66193 24 6.66344 24 6.66556 24M6.00014 25C6.00014 25.0003 6.00014 24.9997 6.00014 25V25ZM7.88688 23.056C8.05154 23.1722 8.21269 23.3253 8.34651 23.526C8.5524 23.8348 8.66681 24.2167 8.66681 24.6666C8.66681 25.1077 8.56231 25.4848 8.36785 25.7931C8.17459 26.0995 7.91738 26.2987 7.67192 26.4256C7.20515 26.6668 6.74077 26.6667 6.66848 26.6666H6.66681C5.80594 26.6666 5.25087 26.3279 4.94544 25.8698C4.8057 25.6602 4.73745 25.4536 4.70352 25.3009C4.68636 25.2236 4.67726 25.1571 4.67242 25.1062C4.66998 25.0806 4.66858 25.0586 4.66779 25.0408L4.667 25.0172L4.66685 25.0078L4.66682 25.0037L4.66681 25.0018C4.66681 25.0013 4.66681 25 5.33348 25" fill="#233043"/>
</svg>
