<svg width="32" height="33" viewBox="0 0 32 33" fill="none" xmlns="http://www.w3.org/2000/svg">
<path fill-rule="evenodd" clip-rule="evenodd" d="M15.2901 6.67041C10.1355 6.67041 5.95679 10.8491 5.95679 16.0037C5.95679 20.9493 9.80336 24.9965 14.6679 25.3167V25.337H15.26C15.27 25.3371 15.2801 25.3371 15.2901 25.3371C15.3002 25.3371 15.3102 25.3371 15.3203 25.337H25.3751C25.9861 25.337 26.2752 24.5836 25.821 24.1748L22.8401 21.492C23.9617 19.9517 24.6235 18.055 24.6235 16.0037C24.6235 10.8491 20.4448 6.67041 15.2901 6.67041Z" fill="#233043"/>
<path d="M11.486 16.0041L13.9134 18.2293C14.181 18.4745 14.5956 18.4607 14.8462 18.1981L19.486 13.3374" stroke="white" stroke-width="2" stroke-linecap="round" stroke-linejoin="round"/>
</svg>
