<svg width="32" height="32" viewBox="0 0 32 32" fill="none" xmlns="http://www.w3.org/2000/svg">
<path fill-rule="evenodd" clip-rule="evenodd" d="M5.95683 16C5.95683 10.8453 10.1355 6.66667 15.2902 6.66667C20.4448 6.66667 24.6235 10.8453 24.6235 16C24.6235 18.0512 23.9618 19.9479 22.8402 21.4883L25.8211 24.1711C26.2752 24.5798 25.9861 25.3333 25.3751 25.3333H15.3203L15.2902 25.3333L15.26 25.3333H14.668V25.3129C9.8034 24.9928 5.95683 20.9456 5.95683 16ZM20.2093 14.0238C20.5907 13.6243 20.5759 12.9913 20.1764 12.61C19.7769 12.2286 19.1439 12.2434 18.7626 12.6429L14.3484 17.2673L12.1617 15.2628C11.7546 14.8896 11.122 14.9172 10.7488 15.3243C10.3756 15.7314 10.4031 16.364 10.8102 16.7371L13.2377 18.9623C13.9066 19.5755 14.943 19.5409 15.5695 18.8845L20.2093 14.0238Z" fill="#233043"/>
</svg>
