<svg width="32" height="32" viewBox="0 0 32 32" fill="none" xmlns="http://www.w3.org/2000/svg">
<path fill-rule="evenodd" clip-rule="evenodd" d="M15.2902 6.66667C10.1355 6.66667 5.95683 10.8453 5.95683 16C5.95683 20.9456 9.8034 24.9928 14.668 25.3129V25.3333H15.26C15.2701 25.3333 15.2801 25.3333 15.2902 25.3333C15.3002 25.3333 15.3103 25.3333 15.3203 25.3333H25.3751C25.9861 25.3333 26.2752 24.5798 25.8211 24.1711L22.8402 21.4883C23.9618 19.9479 24.6235 18.0512 24.6235 16C24.6235 10.8453 20.4448 6.66667 15.2902 6.66667Z" fill="#233043"/>
<path d="M11.486 16L13.9134 18.2252C14.181 18.4704 14.5956 18.4566 14.8462 18.1941L19.486 13.3333" stroke="white" stroke-width="2" stroke-linecap="round" stroke-linejoin="round"/>
</svg>
