<svg width="32" height="32" viewBox="0 0 32 32" fill="none" xmlns="http://www.w3.org/2000/svg">
<path fill-rule="evenodd" clip-rule="evenodd" d="M7.6666 24.3334V7.66669H18.9999V11.3334C18.9999 12.2538 19.7461 13 20.6666 13H24.3333V24.3334H7.6666ZM22.919 11L20.9999 9.0809V11H22.919ZM7.33326 5.66669C6.41279 5.66669 5.6666 6.41287 5.6666 7.33335V24.6667C5.6666 25.5872 6.41278 26.3334 7.33326 26.3334H24.6666C25.5871 26.3334 26.3333 25.5872 26.3333 24.6667V12C26.3333 11.7348 26.2279 11.4804 26.0404 11.2929L20.707 5.95958C20.5195 5.77204 20.2651 5.66669 19.9999 5.66669H7.33326ZM9.58259 21H10.6589V19.3495H11.5638C12.7346 19.3495 13.4157 18.651 13.4157 17.6343C13.4157 16.6225 12.747 15.9091 11.5911 15.9091H9.58259V21ZM10.6589 18.4869V16.7891H11.3848C12.0062 16.7891 12.307 17.1272 12.307 17.6343C12.307 18.1389 12.0062 18.4869 11.3898 18.4869H10.6589ZM15.9195 21C17.4706 21 18.4103 20.0405 18.4103 18.4496C18.4103 16.8637 17.4706 15.9091 15.9344 15.9091H14.1148V21H15.9195ZM15.1912 20.0778V16.8313H15.8772C16.8318 16.8313 17.3364 17.3186 17.3364 18.4496C17.3364 19.5856 16.8318 20.0778 15.8748 20.0778H15.1912ZM20.2839 21H19.2076V15.9091H22.5783V16.7965H20.2839V18.0096H22.3546V18.897H20.2839V21Z" fill="#233043"/>
</svg>
