<svg width="32" height="32" viewBox="0 0 32 32" fill="none" xmlns="http://www.w3.org/2000/svg">
<path d="M19.9998 6.66669H7.33317C6.96498 6.66669 6.6665 6.96516 6.6665 7.33335V24.6667C6.6665 25.0349 6.96498 25.3334 7.33317 25.3334H24.6665C25.0347 25.3334 25.3332 25.0349 25.3332 24.6667V12M19.9998 6.66669L25.3332 12M19.9998 6.66669V11.3334C19.9998 11.7015 20.2983 12 20.6665 12H25.3332" stroke="#233043" stroke-width="2" stroke-linecap="round" stroke-linejoin="round"/>
<path d="M9.58261 21H10.659V19.3494H11.5638C12.7346 19.3494 13.4157 18.6509 13.4157 17.6342C13.4157 16.6225 12.747 15.9091 11.5911 15.9091H9.58261V21ZM10.659 18.4869V16.7891H11.3848C12.0063 16.7891 12.307 17.1271 12.307 17.6342C12.307 18.1388 12.0063 18.4869 11.3898 18.4869H10.659ZM15.9195 21C17.4707 21 18.4103 20.0405 18.4103 18.4496C18.4103 16.8636 17.4707 15.9091 15.9344 15.9091H14.1148V21H15.9195ZM15.1912 20.0778V16.8313H15.8773C16.8318 16.8313 17.3364 17.3185 17.3364 18.4496C17.3364 19.5856 16.8318 20.0778 15.8748 20.0778H15.1912ZM19.2076 21H20.284V18.897H22.3546V18.0096H20.284V16.7965H22.5783V15.9091H19.2076V21Z" fill="#233043"/>
</svg>
