<svg width="32" height="32" viewBox="0 0 32 32" fill="none" xmlns="http://www.w3.org/2000/svg">
<path d="M21.7814 8.85333L20.2667 8L10.1974 22.5493L11.7547 23.4027L21.7814 8.85333ZM11.7974 15.6373C14.1867 15.6373 15.5947 13.9307 15.5947 12.0107C15.5947 10.0907 14.1867 8.384 11.7974 8.384C9.40808 8.384 8.00008 10.0907 8.00008 12.0107C8.00008 13.9307 9.40808 15.6373 11.7974 15.6373ZM11.7974 13.8453C10.6454 13.8453 10.0267 13.0347 10.0267 12.0107C10.0267 10.9867 10.6454 10.176 11.7974 10.176C12.9494 10.176 13.5681 10.9867 13.5681 12.0107C13.5681 13.0347 12.9494 13.8453 11.7974 13.8453ZM20.2454 23.1253C22.6347 23.1253 24.0427 21.4187 24.0427 19.4987C24.0427 17.5787 22.6347 15.872 20.2454 15.872C17.8561 15.872 16.4481 17.5787 16.4481 19.4987C16.4481 21.4187 17.8561 23.1253 20.2454 23.1253ZM20.2454 21.3333C19.0934 21.3333 18.4747 20.5227 18.4747 19.4987C18.4747 18.4747 19.0934 17.664 20.2454 17.664C21.3974 17.664 22.0161 18.4747 22.0161 19.4987C22.0161 20.5227 21.3974 21.3333 20.2454 21.3333Z" fill="#233043"/>
</svg>
