<svg width="32" height="32" viewBox="0 0 32 32" fill="none" xmlns="http://www.w3.org/2000/svg">
<g id="32px/Performance" clip-path="url(#clip0_1060_74)">
<g id="Group 1045">
<path id="Union" fill-rule="evenodd" clip-rule="evenodd" d="M22.914 5.95283C20.4837 6.595 17.7403 7.77781 15.9052 9.61294C14.6985 10.8196 13.4233 12.5362 12.4328 13.9846C11.942 14.7024 11.5292 15.3423 11.2394 15.8023L11.1941 15.8743L16.2345 20.9147L16.3065 20.8694C16.7665 20.5796 17.4064 20.1668 18.1242 19.6759C19.5726 18.6855 21.2892 17.4103 22.4959 16.2036C24.331 14.3685 25.5138 11.6251 26.156 9.19481C26.4741 7.99093 26.649 6.90297 26.7092 6.09823C26.7309 5.80707 26.7366 5.56585 26.7313 5.3775C26.5429 5.37217 26.3017 5.37788 26.0106 5.39963C25.2058 5.45975 24.1179 5.63473 22.914 5.95283ZM27.0928 5.41263C27.1033 5.41562 27.1007 5.41582 27.0884 5.41147L27.0928 5.41263ZM26.6973 5.02044C26.693 5.00808 26.6932 5.00547 26.6962 5.01604L26.6973 5.02044ZM16.086 22.1804L16.2129 22.3935L16.213 22.3935L16.086 22.1804ZM15.3789 22.8875L15.3795 22.8881L16.7676 28.4405C16.8549 28.79 17.1236 29.0655 17.4708 29.1616C17.818 29.2578 18.1901 29.1598 18.4448 28.905L23.5388 23.811C23.6994 23.6505 23.8005 23.44 23.8256 23.2143L24.5208 16.9574C26.347 14.827 27.4712 12.0463 28.0896 9.70574C28.4349 8.39895 28.6332 7.18934 28.7036 6.24722C28.7386 5.77928 28.7439 5.35216 28.7121 5.00015C28.6963 4.82551 28.6691 4.64258 28.6204 4.4707C28.5794 4.32602 28.4891 4.06068 28.2686 3.84016C28.0481 3.61965 27.7828 3.52941 27.6381 3.48841C27.4662 3.4397 27.2833 3.4125 27.1086 3.39671C26.7566 3.36488 26.3295 3.37024 25.8616 3.40519C24.9195 3.47557 23.7098 3.6739 22.4031 4.0192C20.0624 4.63768 17.2814 5.76191 15.1509 7.58834L8.89429 8.28352C8.66861 8.3086 8.45818 8.40974 8.29762 8.5703L3.2036 13.6643C2.94885 13.9191 2.85083 14.2912 2.94699 14.6384C3.04316 14.9856 3.31866 15.2542 3.66817 15.3416L9.22118 16.7298C9.22121 16.7299 9.22125 16.7299 9.22128 16.7299L15.3789 22.8875ZM9.7152 15.8958C9.77962 15.9342 9.85047 15.9764 9.92838 16.0228L9.71524 15.8957L9.7152 15.8958ZM9.53984 14.7479C9.5423 14.744 9.54477 14.7401 9.54725 14.7362C9.84726 14.26 10.274 13.5985 10.7819 12.8557C11.4191 11.9239 12.1974 10.8443 13.0231 9.83707L9.46379 10.2326L5.8667 13.8296L9.53984 14.7479ZM19.2531 21.3269C20.185 20.6896 21.2647 19.9112 22.2721 19.0854L21.8766 22.6448L18.2795 26.2419L17.3612 22.5688L17.3726 22.5615C17.8488 22.2615 18.5103 21.8348 19.2531 21.3269ZM18.5656 13.5434C18.912 13.8898 19.4737 13.8898 19.8202 13.5434C20.1666 13.1969 20.1666 12.6352 19.8202 12.2887C19.4737 11.9423 18.912 11.9423 18.5656 12.2887C18.2191 12.6352 18.2191 13.1969 18.5656 13.5434ZM17.1513 14.9576C18.2789 16.0851 20.1069 16.0851 21.2344 14.9576C22.3619 13.8301 22.3619 12.002 21.2344 10.8745C20.1069 9.74703 18.2789 9.74703 17.1513 10.8745C16.0238 12.002 16.0238 13.8301 17.1513 14.9576ZM10.1377 24.2368C10.0138 24.3607 9.61338 24.649 8.88599 25.0279C8.21006 25.38 7.39933 25.7352 6.59976 26.0315C6.32243 26.1343 6.05411 26.2272 5.80001 26.3089C5.88172 26.0548 5.97458 25.7865 6.07738 25.5091C6.37373 24.7096 6.72889 23.8989 7.08102 23.2229C7.45995 22.4955 7.74818 22.0951 7.87209 21.9712C8.49771 21.3456 9.51205 21.3456 10.1377 21.9712C10.7633 22.5969 10.7633 23.6112 10.1377 24.2368ZM4.11082 26.704C4.05695 26.6979 4.04463 26.7029 4.09258 26.7041L4.10196 26.7041L4.11082 26.704ZM5.40482 28.0163C5.40603 28.0643 5.41103 28.052 5.40495 27.9981L5.40476 28.0128L5.40482 28.0163ZM11.5519 25.651C10.1452 27.0577 4.27472 29.2896 3.54701 28.5619C2.81929 27.8342 5.0512 21.9637 6.45787 20.557C7.86455 19.1503 10.1452 19.1503 11.5519 20.557C12.9586 21.9637 12.9586 24.2444 11.5519 25.651Z" fill="#233043"/>
</g>
</g>
<defs>
<clipPath id="clip0_1060_74">
<rect width="32" height="32" fill="white" transform="matrix(0 -1 1 0 0 32)"/>
</clipPath>
</defs>
</svg>
