<svg width="32" height="32" viewBox="0 0 32 32" fill="none" xmlns="http://www.w3.org/2000/svg">
<path fill-rule="evenodd" clip-rule="evenodd" d="M17.1506 14.9569C18.2781 16.0844 20.1061 16.0844 21.2336 14.9569C22.3611 13.8294 22.3611 12.0014 21.2336 10.8739C20.1061 9.74639 18.2781 9.74639 17.1506 10.8739C16.0231 12.0014 16.0231 13.8294 17.1506 14.9569ZM18.5648 13.5427C18.9112 13.8892 19.473 13.8892 19.8194 13.5427C20.1659 13.1963 20.1659 12.6346 19.8194 12.2881C19.473 11.9417 18.9112 11.9417 18.5648 12.2881C18.2183 12.6346 18.2183 13.1963 18.5648 13.5427Z" fill="#233043"/>
<path fill-rule="evenodd" clip-rule="evenodd" d="M15.3784 22.8871L9.22051 16.7293L3.66716 15.341C3.31764 15.2536 3.04215 14.9849 2.94598 14.6377C2.84981 14.2905 2.94783 13.9185 3.20259 13.6637L8.2966 8.56969C8.45717 8.40912 8.66759 8.30799 8.89328 8.28291L15.1502 7.5877C17.2807 5.76127 20.0616 4.63704 22.4023 4.01856C23.7091 3.67326 24.9187 3.47493 25.8608 3.40455C26.3287 3.3696 26.7559 3.36424 27.1079 3.39607C27.2825 3.41186 27.4654 3.43906 27.6373 3.48777C27.782 3.52877 28.0473 3.61901 28.2679 3.83952C28.4884 4.06004 28.5786 4.32538 28.6196 4.47005C28.6683 4.64194 28.6955 4.82487 28.7113 4.99951C28.7431 5.35152 28.7378 5.77864 28.7028 6.24658C28.6325 7.1887 28.4341 8.3983 28.0888 9.7051C27.4704 12.0458 26.3461 14.8266 24.5198 16.9571L23.8246 23.2137C23.7995 23.4394 23.6984 23.6498 23.5378 23.8104L18.4438 28.9044C18.189 29.1592 17.817 29.2572 17.4698 29.161C17.1226 29.0649 16.8539 28.7894 16.7665 28.4399L15.3784 22.8871ZM22.9132 5.95219C20.4829 6.59436 17.7395 7.77717 15.9044 9.6123C14.6977 10.819 13.4225 12.5356 12.4321 13.984C11.9412 14.7018 11.5284 15.3417 11.2386 15.8016L11.1933 15.8737L16.2337 20.914L16.3058 20.8687C16.7657 20.5789 17.4056 20.1662 18.1234 19.6753C19.5718 18.6849 21.2884 17.4097 22.4951 16.203C24.3302 14.3678 25.513 11.6245 26.1552 9.19417C26.4733 7.99029 26.6483 6.90233 26.7084 6.09759C26.7301 5.80643 26.7359 5.56521 26.7305 5.37686C26.5422 5.37153 26.3009 5.37724 26.0098 5.39899C25.205 5.45911 24.1171 5.63409 22.9132 5.95219ZM27.092 5.41199C27.1026 5.41498 27.0999 5.41518 27.0876 5.41083L27.092 5.41199ZM26.6966 5.0198C26.6922 5.00744 26.6924 5.00483 26.6954 5.01539L26.6966 5.0198ZM16.0852 22.1798C16.1316 22.2576 16.1738 22.3285 16.2121 22.3929L16.0852 22.1798ZM22.271 19.085C21.2638 19.9107 20.1842 20.689 19.2523 21.3262C18.5095 21.8342 17.848 22.2609 17.3718 22.5609C17.368 22.5634 17.3641 22.5658 17.3602 22.5682L18.2785 26.2413L21.8756 22.6442L22.271 19.085ZM13.0223 9.83643L9.46278 10.2319L5.86568 13.829L9.53902 14.7474C9.5415 14.7434 9.54398 14.7395 9.54648 14.7355C9.84649 14.2593 10.2732 13.5979 10.7812 12.8551C11.4184 11.9232 12.1966 10.8437 13.0223 9.83643ZM9.92761 16.0222L9.71426 15.8949C9.77873 15.9333 9.84961 15.9757 9.92761 16.0222Z" fill="#233043"/>
<path fill-rule="evenodd" clip-rule="evenodd" d="M3.54599 28.5613C4.27371 29.289 10.1442 27.0571 11.5509 25.6504C12.9575 24.2437 12.9575 21.9631 11.5509 20.5564C10.1442 19.1497 7.86353 19.1497 6.45686 20.5564C5.05018 21.9631 2.81827 27.8336 3.54599 28.5613ZM8.88497 25.0273C9.61236 24.6483 10.0127 24.3601 10.1367 24.2362C10.7623 23.6106 10.7623 22.5962 10.1367 21.9706C9.51103 21.345 8.4967 21.345 7.87107 21.9706C7.74716 22.0945 7.45893 22.4949 7.08 23.2223C6.72787 23.8982 6.37271 24.709 6.07636 25.5085C5.97357 25.7859 5.8807 26.0542 5.79899 26.3083C6.05309 26.2266 6.32141 26.1337 6.59875 26.0309C7.39831 25.7346 8.20904 25.3794 8.88497 25.0273ZM4.09157 26.7035C4.04362 26.7023 4.05593 26.6973 4.1098 26.7033L4.1009 26.7035L4.09157 26.7035ZM5.40394 27.9975C5.41001 28.0514 5.40501 28.0637 5.4038 28.0157C5.4037 28.0116 5.40371 28.0055 5.40394 27.9975Z" fill="#233043"/>
</svg>
