<svg width="32" height="33" viewBox="0 0 32 33" fill="none" xmlns="http://www.w3.org/2000/svg">
<path d="M24.3291 17.062C24.7157 17.062 25.0274 17.3764 25.0012 17.7622C24.6415 23.0577 20.232 27.2417 14.8452 27.2417C9.22314 27.2417 4.66553 22.6841 4.66553 17.062C4.66553 11.6753 8.84958 7.26573 14.1451 6.90602C14.5308 6.87982 14.8452 7.19465 14.8452 7.58125C14.8452 9.7956 14.8452 14.5746 14.8452 16.3655C14.8452 16.7521 15.1542 17.062 15.5408 17.062C17.3707 17.062 22.3161 17.062 24.3291 17.062Z" fill="#233043"/>
<path d="M27.3105 14.2462C27.3367 14.6319 27.02 14.9463 26.6334 14.9463C22.6252 14.9463 19.2539 14.9463 17.8519 14.9463C17.4653 14.9463 17.1546 14.63 17.1546 14.2434C17.1546 9.59784 17.1545 8.21676 17.1546 5.46766C17.1546 5.08107 17.469 4.7641 17.8547 4.7903C22.9189 5.13429 26.9666 9.18199 27.3105 14.2462Z" fill="#233043"/>
</svg>
