<svg width="32" height="32" viewBox="0 0 32 32" fill="none" xmlns="http://www.w3.org/2000/svg">
<path d="M24.3291 17.0577C24.7157 17.0577 25.0275 17.3721 25.0013 17.7579C24.6416 23.0534 20.232 27.2374 14.8453 27.2374C9.22318 27.2374 4.66557 22.6798 4.66557 17.0577C4.66557 11.671 8.84963 7.26143 14.1452 6.90172C14.5309 6.87552 14.8453 7.19035 14.8453 7.57695C14.8453 9.7913 14.8453 14.5703 14.8453 16.3612C14.8453 16.7478 15.1543 17.0577 15.5409 17.0577C17.3708 17.0577 22.3161 17.0577 24.3291 17.0577Z" fill="#233043"/>
<path d="M27.3106 14.242C27.3368 14.6278 27.0201 14.9422 26.6335 14.9422C22.6253 14.9422 19.254 14.9422 17.8519 14.9422C17.4654 14.9422 17.1547 14.6259 17.1547 14.2393C17.1547 9.5937 17.1546 8.21262 17.1547 5.46353C17.1547 5.07693 17.4691 4.75997 17.8548 4.78617C22.919 5.13015 26.9666 9.17786 27.3106 14.242Z" fill="#233043"/>
</svg>
