<svg width="32" height="32" viewBox="0 0 32 32" fill="none" xmlns="http://www.w3.org/2000/svg">
<path fill-rule="evenodd" clip-rule="evenodd" d="M19.0001 13L19.0001 5.72595C22.8026 6.18037 25.8197 9.19746 26.2741 13H19.0001ZM18.7372 3.69258C17.7435 3.62244 17.0001 4.43536 17.0001 5.33441L17.0001 13.3306C17.0001 14.241 17.7338 15 18.6643 15H26.6659C27.5656 15 28.3775 14.2559 28.3074 13.2628C27.946 8.1428 23.8572 4.05398 18.7372 3.69258ZM5.6667 18C5.6667 13.7361 8.86959 10.2195 13 9.72595V17.3355C13 18.2525 13.7389 19 14.6628 19H22.2741C21.7805 23.1304 18.2639 26.3333 14 26.3333C9.39766 26.3333 5.6667 22.6024 5.6667 18ZM15 9.33311C15 8.43127 14.254 7.62263 13.2629 7.69258C7.89946 8.07116 3.6667 12.5408 3.6667 18C3.6667 23.7069 8.29309 28.3333 14 28.3333C19.4592 28.3333 23.9289 24.1006 24.3074 18.7372C24.3769 17.7529 23.5793 17 22.6703 17H15V9.33311Z" fill="#233043"/>
</svg>
