<svg width="32" height="32" viewBox="0 0 32 32" fill="none" xmlns="http://www.w3.org/2000/svg">
<path fill-rule="evenodd" clip-rule="evenodd" d="M21.3399 5.02123C21.2097 4.89105 20.9986 4.89106 20.8685 5.02123L14.2632 11.6265C14.1898 11.6998 14.0862 11.734 13.9832 11.7216C11.8287 11.4623 9.58533 12.1157 7.87911 13.6819C7.74349 13.8064 7.74374 14.0183 7.87391 14.1484L18.2492 24.5237C18.3793 24.6539 18.5912 24.6541 18.7157 24.5185C20.2819 22.8123 20.9353 20.569 20.6761 18.4145C20.6637 18.3115 20.6978 18.2079 20.7712 18.1345L27.3765 11.5292C27.5066 11.3991 27.5066 11.188 27.3765 11.0578L21.3399 5.02123Z" fill="#233043"/>
<path d="M13.0727 19.3472L7.41582 25.0041" stroke="#233043" stroke-width="2" stroke-linecap="round" stroke-linejoin="round"/>
</svg>
