<svg width="32" height="32" viewBox="0 0 32 32" fill="none" xmlns="http://www.w3.org/2000/svg">
<path d="M20.8684 5.02127L21.5755 5.72838L21.5755 5.72838L20.8684 5.02127ZM14.1466 11.743L14.0059 12.7331C14.3173 12.7773 14.6313 12.6725 14.8537 12.4501L14.1466 11.743ZM7.87918 13.682L7.20295 12.9453L7.87918 13.682ZM7.87399 14.1485L7.16688 14.8556L7.16688 14.8556L7.87399 14.1485ZM18.2492 24.5237L18.9564 23.8166L18.2492 24.5237ZM18.7158 24.5185L17.9791 23.8423L17.9791 23.8423L18.7158 24.5185ZM20.6547 18.251L19.9476 17.5439C19.7252 17.7663 19.6204 18.0803 19.6646 18.3917L20.6547 18.251ZM27.3764 11.5293L28.0835 12.2364L28.0835 12.2364L27.3764 11.5293ZM21.5755 5.72838C21.3152 5.98872 20.893 5.98873 20.6327 5.72838L22.0469 4.31416C21.5262 3.79346 20.682 3.79347 20.1613 4.31416L21.5755 5.72838ZM14.8537 12.4501L21.5755 5.72838L20.1613 4.31416L13.4395 11.0359L14.8537 12.4501ZM8.55541 14.4186C10.0754 13.0234 12.0865 12.4603 14.0059 12.7331L14.2873 10.753C11.7988 10.3993 9.18173 11.1289 7.20295 12.9453L8.55541 14.4186ZM8.5811 13.4414C8.83397 13.6942 8.85889 14.1401 8.55541 14.4186L7.20295 12.9453C6.62823 13.4728 6.65366 14.3424 7.16688 14.8556L8.5811 13.4414ZM18.9564 23.8166L8.5811 13.4414L7.16688 14.8556L17.5421 25.2308L18.9564 23.8166ZM17.9791 23.8423C18.2577 23.5388 18.7035 23.5638 18.9564 23.8166L17.5421 25.2308C18.0554 25.7441 18.9249 25.7695 19.4525 25.1948L17.9791 23.8423ZM19.6646 18.3917C19.9374 20.3111 19.3744 22.3223 17.9791 23.8423L19.4525 25.1948C21.2689 23.216 21.9984 20.5988 21.6447 18.1103L19.6646 18.3917ZM26.6693 10.8222L19.9476 17.5439L21.3618 18.9581L28.0835 12.2364L26.6693 10.8222ZM26.6693 11.765C26.4089 11.5046 26.4089 11.0825 26.6693 10.8222L28.0835 12.2364C28.6042 11.7157 28.6042 10.8715 28.0835 10.3508L26.6693 11.765ZM20.6327 5.72838L26.6693 11.765L28.0835 10.3508L22.0469 4.31416L20.6327 5.72838Z" fill="#233043"/>
<path d="M13.0726 19.3472L7.4157 25.0041" stroke="#233043" stroke-width="2" stroke-linecap="round" stroke-linejoin="round"/>
</svg>
