<svg width="32" height="33" viewBox="0 0 32 33" fill="none" xmlns="http://www.w3.org/2000/svg">
<path d="M20.8683 5.02518L21.5755 5.73228L21.5755 5.73228L20.8683 5.02518ZM14.1466 11.7469L14.0059 12.737C14.3173 12.7812 14.6313 12.6764 14.8537 12.454L14.1466 11.7469ZM7.87914 13.6859L7.20291 12.9492L7.87914 13.6859ZM7.87394 14.1524L7.16684 14.8595L7.16684 14.8595L7.87394 14.1524ZM18.2492 24.5276L18.9563 23.8205L18.2492 24.5276ZM18.7157 24.5224L17.979 23.8462L17.979 23.8462L18.7157 24.5224ZM20.6546 18.2549L19.9475 17.5478C19.7251 17.7702 19.6203 18.0842 19.6646 18.3956L20.6546 18.2549ZM27.3763 11.5332L28.0835 12.2403L28.0835 12.2403L27.3763 11.5332ZM21.5755 5.73228C21.3151 5.99263 20.893 5.99264 20.6326 5.73228L22.0469 4.31807C21.5262 3.79737 20.6819 3.79738 20.1612 4.31807L21.5755 5.73228ZM14.8537 12.454L21.5755 5.73228L20.1612 4.31807L13.4395 11.0398L14.8537 12.454ZM8.55537 14.4225C10.0754 13.0273 12.0865 12.4642 14.0059 12.737L14.2873 10.7569C11.7988 10.4032 9.18168 11.1328 7.20291 12.9492L8.55537 14.4225ZM8.58105 13.4453C8.83392 13.6981 8.85885 14.144 8.55537 14.4225L7.20291 12.9492C6.62818 13.4767 6.65362 14.3463 7.16684 14.8595L8.58105 13.4453ZM18.9563 23.8205L8.58105 13.4453L7.16684 14.8595L17.5421 25.2347L18.9563 23.8205ZM17.979 23.8462C18.2576 23.5427 18.7034 23.5677 18.9563 23.8205L17.5421 25.2347C18.0553 25.748 18.9249 25.7734 19.4524 25.1987L17.979 23.8462ZM19.6646 18.3956C19.9374 20.315 19.3743 22.3262 17.979 23.8462L19.4524 25.1987C21.2688 23.2199 21.9984 20.6027 21.6447 18.1142L19.6646 18.3956ZM26.6692 10.8261L19.9475 17.5478L21.3617 18.962L28.0835 12.2403L26.6692 10.8261ZM26.6692 11.7689C26.4089 11.5085 26.4089 11.0864 26.6692 10.8261L28.0835 12.2403C28.6042 11.7196 28.6042 10.8754 28.0835 10.3547L26.6692 11.7689ZM20.6326 5.73228L26.6692 11.7689L28.0835 10.3547L22.0469 4.31807L20.6326 5.73228Z" fill="#233043"/>
<path d="M13.0725 19.3511L7.41566 25.0079" stroke="#233043" stroke-width="2" stroke-linecap="round" stroke-linejoin="round"/>
</svg>
