<svg width="32" height="32" viewBox="0 0 32 32" fill="none" xmlns="http://www.w3.org/2000/svg">
<circle cx="16" cy="12" r="3.33333" stroke="#233043" stroke-width="2" stroke-linecap="round" stroke-linejoin="round"/>
<path d="M10.6666 22.7407C10.6666 20.1225 12.7891 18 15.4073 18H16.5925C19.2107 18 21.3332 20.1225 21.3332 22.7407V22.7407C21.3332 23.068 21.0679 23.3333 20.7406 23.3333H11.2592C10.9319 23.3333 10.6666 23.068 10.6666 22.7407V22.7407Z" stroke="#233043" stroke-width="2" stroke-linecap="round" stroke-linejoin="round"/>
<path d="M26.6666 10.6667V6.00004C26.6666 5.63185 26.3681 5.33337 25.9999 5.33337H21.3333M10.6666 5.33337H5.99992C5.63173 5.33337 5.33325 5.63185 5.33325 6.00004V10.6667M5.33325 21.3334V26C5.33325 26.3682 5.63173 26.6667 5.99992 26.6667H10.6666M21.3333 26.6667H25.9999C26.3681 26.6667 26.6666 26.3682 26.6666 26V21.3334" stroke="#233043" stroke-width="2" stroke-linecap="round" stroke-linejoin="round"/>
</svg>
