<svg width="32" height="32" viewBox="0 0 32 32" fill="none" xmlns="http://www.w3.org/2000/svg">
<path d="M4.00007 20.3334C4.00007 19.9652 4.29855 19.6667 4.66674 19.6667H8.00007V26.3334H4.66674C4.29855 26.3334 4.00007 26.0349 4.00007 25.6667V20.3334Z" stroke="#233043" stroke-width="2" stroke-linecap="round" stroke-linejoin="round"/>
<path d="M12.7682 17.0176L13.2539 17.8918V17.8918L12.7682 17.0176ZM8.34288 19.4761L8.82852 20.3503L8.82852 20.3503L8.34288 19.4761ZM13.7479 17.7196L12.764 17.5408V17.5408L13.7479 17.7196ZM13.1515 21L12.1676 20.8211C12.1146 21.1128 12.1937 21.413 12.3837 21.6407C12.5737 21.8684 12.855 22 13.1515 22V21ZM23.2 22.0666L24 22.6666V22.6666L23.2 22.0666ZM20.2 26.0666L21 26.6666L21 26.6666L20.2 26.0666ZM12.2826 16.1435L7.85723 18.602L8.82852 20.3503L13.2539 17.8918L12.2826 16.1435ZM14.7318 17.8985C14.9835 16.5142 13.5125 15.4602 12.2826 16.1435L13.2539 17.8918C13.0079 18.0284 12.7137 17.8176 12.764 17.5408L14.7318 17.8985ZM14.1354 21.1788L14.7318 17.8985L12.764 17.5408L12.1676 20.8211L14.1354 21.1788ZM13.1515 22H22.6666V20H13.1515V22ZM22.6666 22C22.392 22 22.2352 21.6864 22.4 21.4666L24 22.6666C24.824 21.5679 24.04 20 22.6666 20V22ZM22.4 21.4666L19.4 25.4666L21 26.6666L24 22.6666L22.4 21.4666ZM19.4 25.4666C19.4629 25.3827 19.5617 25.3333 19.6666 25.3333V27.3333C20.1912 27.3333 20.6852 27.0863 21 26.6666L19.4 25.4666ZM19.6666 25.3333H8.66664V27.3333H19.6666V25.3333ZM8.66664 25.3333C8.85073 25.3333 8.99997 25.4825 8.99997 25.6666H6.99997C6.99997 26.5871 7.74617 27.3333 8.66664 27.3333V25.3333ZM8.99997 25.6666V23H6.99997V25.6666H8.99997ZM8.99997 23V21.6666H6.99997V23H8.99997ZM6.99997 20.0589V21.6666H8.99997V20.0589H6.99997ZM7.85723 18.602C7.32812 18.8959 6.99997 19.4536 6.99997 20.0589H8.99997C8.99997 20.18 8.93434 20.2915 8.82852 20.3503L7.85723 18.602Z" fill="#233043"/>
<path d="M21.3332 5.66675L23.2925 9.63669L27.6736 10.2733L24.5034 13.3635L25.2517 17.7269L21.3332 15.6667L17.4146 17.7269L18.163 13.3635L14.9928 10.2733L19.3739 9.63669L21.3332 5.66675Z" stroke="#233043" stroke-width="2" stroke-linecap="round" stroke-linejoin="round"/>
</svg>
