<svg width="32" height="32" viewBox="0 0 32 32" fill="none" xmlns="http://www.w3.org/2000/svg">
<path d="M9.93525 5.59499C10.2524 6.04713 10.143 6.67077 9.69087 6.98793C8.64055 7.72472 7.72472 8.64055 6.98793 9.69087C6.67076 10.143 6.04712 10.2524 5.59499 9.93525C5.14286 9.61808 5.03345 8.99444 5.35061 8.54231C6.22072 7.30194 7.30194 6.22073 8.54231 5.35062C8.99444 5.03345 9.61808 5.14286 9.93525 5.59499Z" fill="#233043"/>
<path d="M4.35302 12.9301C4.89702 13.0254 5.26077 13.5437 5.16547 14.0877C5.05679 14.7081 5 15.347 5 16C5 16.653 5.05679 17.2919 5.16547 17.9123C5.26077 18.4563 4.89702 18.9746 4.35302 19.0699C3.80902 19.1652 3.29077 18.8014 3.19547 18.2574C3.06691 17.5236 3 16.7692 3 16C3 15.2308 3.06691 14.4764 3.19547 13.7426C3.29077 13.1986 3.80902 12.8348 4.35302 12.9301Z" fill="#233043"/>
<path d="M5.59499 22.0648C6.04712 21.7476 6.67076 21.857 6.98793 22.3091C7.72472 23.3595 8.64055 24.2753 9.69087 25.0121C10.143 25.3292 10.2524 25.9529 9.93525 26.405C9.61808 26.8571 8.99444 26.9666 8.54231 26.6494C7.30194 25.7793 6.22072 24.6981 5.35061 23.4577C5.03345 23.0056 5.14286 22.3819 5.59499 22.0648Z" fill="#233043"/>
<path d="M16 4C19.1826 4 22.2348 5.26428 24.4853 7.51472C26.7357 9.76516 28 12.8174 28 16C28 19.1826 26.7357 22.2348 24.4853 24.4853C22.2348 26.7357 19.1826 28 16 28" stroke="#233043" stroke-width="2" stroke-linecap="round" stroke-linejoin="round"/>
<path d="M9 16.2649L13.8202 21L22.5 12" stroke="#233043" stroke-width="2" stroke-linecap="round" stroke-linejoin="round"/>
</svg>
