<svg width="32" height="32" viewBox="0 0 32 32" fill="none" xmlns="http://www.w3.org/2000/svg">
<path fill-rule="evenodd" clip-rule="evenodd" d="M6.33345 16C6.33345 10.6613 10.6614 6.33337 16.0001 6.33337C21.3389 6.33337 25.6668 10.6613 25.6668 16C25.6668 21.3388 21.3389 25.6667 16.0001 25.6667C10.6614 25.6667 6.33345 21.3388 6.33345 16ZM16.0001 4.33337C9.55679 4.33337 4.33345 9.55672 4.33345 16C4.33345 22.4434 9.55679 27.6667 16.0001 27.6667C22.4434 27.6667 27.6668 22.4434 27.6668 16C27.6668 9.55672 22.4434 4.33337 16.0001 4.33337ZM14.6855 13.2111C14.6855 12.7941 14.7809 12.5508 14.8718 12.4066L14.7431 13.6885C14.7085 13.5631 14.6855 13.4068 14.6855 13.2111ZM15.4134 14.3967C15.372 14.3804 15.3306 14.3621 15.2899 14.3418C15.1192 14.2564 14.979 14.1441 14.8791 13.9944C14.8299 13.9205 14.7799 13.8219 14.7431 13.6885L14.4932 16.1776C14.4607 16.1626 14.4282 16.147 14.3955 16.1306C13.9876 15.9267 13.5492 15.605 13.2151 15.1038C12.8767 14.5964 12.6855 13.9647 12.6855 13.2111C12.6855 12.471 12.8606 11.8464 13.1802 11.3397C13.4979 10.8358 13.9211 10.5075 14.3274 10.2976C14.5574 10.1788 14.7872 10.0952 15 10.0363V9C15 8.44772 15.4477 8 16 8C16.5523 8 17 8.44772 17 9V9.99934C17.3527 10.0775 17.6666 10.1988 17.9432 10.3586C18.4614 10.6578 18.7915 11.0588 18.9943 11.4397C19.2539 11.9272 19.0691 12.5328 18.5816 12.7924C18.0941 13.0519 17.4885 12.8672 17.229 12.3797C17.178 12.2841 17.0955 12.1786 16.943 12.0905C16.7874 12.0006 16.5027 11.8967 15.9999 11.8967C15.9598 11.8967 15.5834 11.8998 15.2455 12.0744C15.0919 12.1538 14.9646 12.2595 14.8718 12.4066L15.4134 14.3967ZM14.2108 18.9899C14.1993 18.4476 13.7561 18.0116 13.2111 18.0116C12.6588 18.0116 12.2111 18.4593 12.2111 19.0116H13.2111C12.2111 19.0116 12.2111 19.0122 12.2111 19.0129L12.2111 19.0143L12.2111 19.0172L12.2111 19.0237L12.2114 19.0391C12.2116 19.0504 12.212 19.0639 12.2127 19.0794C12.2141 19.1105 12.2166 19.1498 12.221 19.1962C12.2298 19.2888 12.2465 19.4117 12.2784 19.5553C12.3417 19.8398 12.4687 20.2237 12.7276 20.6121C13.1644 21.2673 13.8925 21.8123 15 22.0166V23C15 23.5523 15.4477 24 16 24C16.5523 24 17 23.5523 17 23V21.9811C17.2842 21.9132 17.6029 21.8075 17.9212 21.643C18.3848 21.4034 18.8644 21.0307 19.2242 20.4601C19.5859 19.8866 19.7888 19.1731 19.7888 18.3143C19.7888 17.4421 19.5678 16.7215 19.185 16.1473C18.8064 15.5794 18.3088 15.2133 17.8415 14.9797C17.3782 14.748 16.927 14.6372 16.6001 14.5827C16.4342 14.555 16.2938 14.5408 16.191 14.5335C16.1394 14.5298 16.0968 14.5278 16.0645 14.5267C16.0484 14.5262 16.0349 14.5259 16.024 14.5257L16.0099 14.5255L16.0086 14.5255L16.0072 14.5255C16.0021 14.5253 15.9899 14.5248 15.9717 14.5235C15.935 14.5209 15.876 14.5152 15.8027 14.5029C15.6865 14.4836 15.5496 14.4505 15.4134 14.3967L15.9927 16.5255L15.9903 16.5255L15.9772 16.5253C15.9672 16.5251 15.955 16.5249 15.9406 16.5244C15.9119 16.5234 15.8743 16.5217 15.8292 16.5184C15.7394 16.512 15.6175 16.4997 15.4739 16.4757C15.2143 16.4325 14.8622 16.3479 14.4932 16.1776L14.2108 18.9899ZM14.2109 18.993L15.9927 16.5255L15.9979 16.5256C16.0065 16.5259 16.0238 16.5266 16.0485 16.5284C16.0982 16.5319 16.1757 16.5395 16.2713 16.5555C16.4672 16.5881 16.7132 16.6516 16.9471 16.7685C17.1771 16.8835 17.3766 17.0403 17.5209 17.2567C17.6611 17.4669 17.7888 17.7921 17.7888 18.3143C17.7888 18.85 17.6656 19.1823 17.5326 19.3932C17.3977 19.607 17.214 19.7571 17.003 19.8662C16.5504 20.1001 16.0554 20.1032 15.9999 20.1032C14.8968 20.1032 14.5322 19.7134 14.3917 19.5027C14.302 19.3681 14.2547 19.2291 14.2308 19.1214C14.2191 19.0689 14.2141 19.0285 14.212 19.0066L14.2109 18.993ZM14.2109 18.993L14.2108 18.9899L14.2108 18.9906L14.2109 18.993ZM15.9999 15.4445C15.9999 14.5255 16.0004 14.5255 16.0008 14.5255L16.0009 14.5255C16.0004 14.5255 15.9999 14.5255 15.9999 15.5255V15.4445ZM15.9989 16.5255C15.9992 16.5255 15.9995 16.5244 15.9997 16.3619C15.9995 16.5255 15.9992 16.5255 15.999 16.5255H15.9989Z" fill="#233043"/>
</svg>
