<svg width="32" height="32" viewBox="0 0 32 32" fill="none" xmlns="http://www.w3.org/2000/svg">
<path fill-rule="evenodd" clip-rule="evenodd" d="M10.6667 3C11.219 3 11.6667 3.44772 11.6667 4V5.66669H20.3333V4C20.3333 3.44772 20.781 3 21.3333 3C21.8856 3 22.3333 3.44772 22.3333 4V5.66669H26.0001C26.9206 5.66669 27.6668 6.41288 27.6668 7.33335V24.6667C27.6668 25.5872 26.9206 26.3334 26.0001 26.3334H6.00011C5.07964 26.3334 4.33344 25.5872 4.33344 24.6667V7.33335C4.33344 6.41287 5.07964 5.66669 6.00011 5.66669H9.66673V4C9.66673 3.44772 10.1144 3 10.6667 3ZM20.3333 7.66669V8C20.3333 8.55228 20.781 9 21.3333 9C21.8856 9 22.3333 8.55228 22.3333 8V7.66669H25.6668V24.3334H6.33344V7.66669H9.66673V8C9.66673 8.55228 10.1144 9 10.6667 9C11.219 9 11.6667 8.55228 11.6667 8V7.66669H20.3333ZM12.4798 12.4797C12.8703 12.0891 13.5034 12.0891 13.894 12.4797L16 14.5857L18.106 12.4797C18.4965 12.0892 19.1297 12.0892 19.5202 12.4797C19.9108 12.8702 19.9108 13.5034 19.5202 13.8939L17.4142 15.9999L19.5202 18.1059C19.9108 18.4965 19.9108 19.1296 19.5202 19.5201C19.1297 19.9107 18.4965 19.9107 18.106 19.5201L16 17.4141L13.894 19.5202C13.5034 19.9107 12.8703 19.9107 12.4798 19.5202C12.0892 19.1297 12.0892 18.4965 12.4798 18.106L14.5858 15.9999L12.4798 13.8939C12.0892 13.5034 12.0892 12.8702 12.4798 12.4797Z" fill="#233043"/>
</svg>
