<svg width="32" height="32" viewBox="0 0 32 32" fill="none" xmlns="http://www.w3.org/2000/svg">
<path fill-rule="evenodd" clip-rule="evenodd" d="M16 6.33344C10.6612 6.33344 6.33332 10.6613 6.33332 16.0001C6.33332 18.6428 7.39379 21.0378 9.11241 22.7829C9.88776 20.9594 11.2034 19.4477 12.8522 18.5516C11.7222 17.6349 11 16.2351 11 14.6666C11 11.9052 13.2386 9.66663 16 9.66663C18.7615 9.66663 21 11.9052 21 14.6666C21 16.1259 20.3749 17.4392 19.3778 18.3532C19.4374 18.3812 19.4966 18.4099 19.5555 18.4394C20.0492 18.6868 20.2489 19.2877 20.0014 19.7814C19.7539 20.2752 19.1531 20.4748 18.6593 20.2274C17.9366 19.8651 17.1444 19.6667 16.3134 19.6667C13.8539 19.6667 11.6386 21.441 10.744 24.1143C12.2569 25.0964 14.0619 25.6668 16 25.6668C16.5523 25.6668 17 26.1145 17 26.6668C17 27.2191 16.5523 27.6668 16 27.6668C9.55666 27.6668 4.33332 22.4434 4.33332 16.0001C4.33332 9.55678 9.55666 4.33344 16 4.33344C22.4433 4.33344 27.6667 9.55678 27.6667 16.0001C27.6667 16.5524 27.2189 17.0001 26.6667 17.0001C26.1144 17.0001 25.6667 16.5524 25.6667 16.0001C25.6667 10.6613 21.3387 6.33344 16 6.33344ZM16 11.6666C14.3432 11.6666 13 13.0098 13 14.6666C13 16.3235 14.3432 17.6666 16 17.6666C17.6569 17.6666 19 16.3235 19 14.6666C19 13.0098 17.6569 11.6666 16 11.6666ZM20.4647 20.4645C20.8552 20.0739 21.4884 20.0739 21.8789 20.4645L24.0002 22.5858L26.1215 20.4644C26.512 20.0739 27.1452 20.0739 27.5357 20.4644C27.9263 20.855 27.9263 21.4881 27.5357 21.8787L25.4144 24L27.5357 26.1213C27.9263 26.5118 27.9263 27.145 27.5357 27.5355C27.1452 27.9261 26.5121 27.9261 26.1215 27.5355L24.0002 25.4142L21.8789 27.5355C21.4884 27.926 20.8552 27.926 20.4647 27.5355C20.0741 27.145 20.0741 26.5118 20.4647 26.1213L22.586 24L20.4647 21.8787C20.0741 21.4882 20.0741 20.855 20.4647 20.4645Z" fill="#233043"/>
</svg>
