<svg width="32" height="32" viewBox="0 0 32 32" fill="none" xmlns="http://www.w3.org/2000/svg">
<path fill-rule="evenodd" clip-rule="evenodd" d="M7.66675 24.3332H24.3334V14.3332H19.3334C18.4129 14.3332 17.6667 13.587 17.6667 12.6666V7.66656H7.66675V24.3332ZM19.6667 9.08078L22.9192 12.3332H19.6667V9.08078ZM26.3334 24.6666C26.3334 25.587 25.5872 26.3332 24.6667 26.3332H7.33341C6.41294 26.3332 5.66675 25.587 5.66675 24.6666V7.33323C5.66675 6.41276 6.41294 5.66656 7.33342 5.66656H18.6667C18.932 5.66656 19.1863 5.77192 19.3739 5.95946L26.0405 12.6261C26.2281 12.8137 26.3334 13.068 26.3334 13.3332V24.6666ZM21.6973 17.7168C22.0932 17.3317 22.1019 16.6986 21.7168 16.3027C21.3317 15.9068 20.6986 15.8981 20.3027 16.2832L16.4923 19.9897L13.9719 17.8972C13.5745 17.5673 12.9912 17.5943 12.626 17.9596L9.29287 21.2929C8.90236 21.6834 8.90238 22.3166 9.29291 22.7071C9.68345 23.0976 10.3166 23.0976 10.7071 22.7071L13.3957 20.0183L15.9065 22.1027C16.2998 22.4293 16.8761 22.4066 17.2425 22.0501L21.6973 17.7168Z" fill="#233043"/>
</svg>
