<svg width="32" height="32" viewBox="0 0 32 32" fill="none" xmlns="http://www.w3.org/2000/svg">
<g id="32px/Reviews">
<g id="Union">
<path fill-rule="evenodd" clip-rule="evenodd" d="M17.1462 13.0853C16.9777 12.7439 16.6301 12.5278 16.2494 12.5278C15.8688 12.5278 15.5211 12.7439 15.3527 13.0853L14.0506 15.7236L11.1389 16.1467C10.7623 16.2015 10.4493 16.4653 10.3317 16.8273C10.2141 17.1893 10.3122 17.5867 10.5847 17.8524L12.6916 19.9061L12.1942 22.806C12.1299 23.1811 12.2841 23.5603 12.5921 23.784C12.9 24.0078 13.3083 24.0373 13.6452 23.8601L16.2494 22.491L18.8537 23.8601C19.1906 24.0373 19.5988 24.0078 19.9068 23.784C20.2147 23.5603 20.369 23.1811 20.3046 22.806L19.8072 19.9061L21.9141 17.8524C22.1867 17.5867 22.2848 17.1893 22.1672 16.8273C22.0495 16.4653 21.7366 16.2015 21.3599 16.1467L18.4483 15.7236L17.1462 13.0853ZM15.6114 17.0802L16.2494 15.7874L16.8875 17.0802C17.0331 17.3754 17.3147 17.5799 17.6404 17.6273L19.0671 17.8346L18.0348 18.8409C17.7991 19.0706 17.6915 19.4016 17.7472 19.726L17.9909 21.147L16.7148 20.4761C16.4234 20.323 16.0754 20.323 15.7841 20.4761L14.508 21.147L14.7517 19.726C14.8073 19.4016 14.6998 19.0706 14.4641 18.8409L13.4317 17.8346L14.8584 17.6273C15.1841 17.5799 15.4657 17.3754 15.6114 17.0802Z" fill="#233043"/>
<path fill-rule="evenodd" clip-rule="evenodd" d="M25.6498 6.26099H22.4407C22.2502 4.78868 20.9915 3.6499 19.4657 3.6499H13.039C11.5147 3.6499 10.2548 4.78704 10.064 6.26099H6.84961C6.29732 6.26099 5.84961 6.7087 5.84961 7.26099V28.1501C5.84961 28.7024 6.29732 29.1501 6.84961 29.1501H25.6498C26.2021 29.1501 26.6498 28.7024 26.6498 28.1501V7.26099C26.6498 6.7087 26.2021 6.26099 25.6498 6.26099ZM7.84961 8.26099H10.0304L10.0274 8.82239C10.0259 9.08853 10.1307 9.34425 10.3184 9.53294C10.506 9.72163 10.7612 9.82772 11.0273 9.82772H21.4541C22.0043 9.82772 22.4511 9.38325 22.4541 8.83305L22.4571 8.26099H24.6498V27.1501H7.84961V8.26099ZM13.039 5.6499C12.4888 5.6499 12.0419 6.09437 12.039 6.64457L12.0327 7.82772H20.4594L20.4657 6.65523C20.4686 6.10087 20.02 5.6499 19.4657 5.6499H13.039Z" fill="#233043"/>
</g>
</g>
</svg>
