<svg width="32" height="32" viewBox="0 0 32 32" fill="none" xmlns="http://www.w3.org/2000/svg">
<path d="M10.6667 13.0114C10.6667 7.46796 14.6224 4.78897 15.7204 4.15215C15.8963 4.05013 16.1038 4.05013 16.2797 4.15215C17.3777 4.78897 21.3334 7.46796 21.3334 13.0114C21.3334 17.5172 21.3334 22.6666 21.3334 22.6666H10.6667C10.6667 22.6666 10.6667 17.5172 10.6667 13.0114Z" stroke="#233043" stroke-width="2" stroke-linecap="round" stroke-linejoin="round"/>
<path d="M6.66658 18.7997C6.66658 18.5666 6.78835 18.3504 6.98771 18.2296L9.65438 16.6134C10.0987 16.3441 10.6666 16.664 10.6666 17.1835V22.6666H7.33325C6.96506 22.6666 6.66658 22.3681 6.66658 21.9999V18.7997Z" stroke="#233043" stroke-width="2" stroke-linecap="round" stroke-linejoin="round"/>
<path d="M25.3334 18.7997C25.3334 18.5666 25.2117 18.3504 25.0123 18.2296L22.3456 16.6134C21.9013 16.3441 21.3334 16.664 21.3334 17.1835V22.6666H24.6668C25.035 22.6666 25.3334 22.3681 25.3334 21.9999V18.7997Z" stroke="#233043" stroke-width="2" stroke-linecap="round" stroke-linejoin="round"/>
<circle cx="16" cy="12.6667" r="2" fill="#233043"/>
<path d="M16.0001 26.6667V24" stroke="#233043" stroke-width="2" stroke-linecap="round" stroke-linejoin="round"/>
<path d="M12 27.9999V25.3333" stroke="#233043" stroke-width="2" stroke-linecap="round" stroke-linejoin="round"/>
<path d="M20 27.9999V25.3333" stroke="#233043" stroke-width="2" stroke-linecap="round" stroke-linejoin="round"/>
</svg>
