<svg width="32" height="33" viewBox="0 0 32 33" fill="none" xmlns="http://www.w3.org/2000/svg">
<path d="M10.6668 13.0154C10.6668 7.47192 14.6225 4.79293 15.7204 4.15612C15.8963 4.0541 16.1038 4.0541 16.2797 4.15612C17.3777 4.79294 21.3334 7.47192 21.3334 13.0154C21.3334 17.5211 21.3334 22.6706 21.3334 22.6706H10.6668C10.6668 22.6706 10.6668 17.5211 10.6668 13.0154Z" stroke="#233043" stroke-width="2" stroke-linecap="round" stroke-linejoin="round"/>
<path d="M6.66663 18.8037C6.66663 18.5705 6.78839 18.3543 6.98776 18.2335L9.65442 16.6174C10.0987 16.3481 10.6666 16.668 10.6666 17.1875V22.6706H7.33329C6.9651 22.6706 6.66663 22.3721 6.66663 22.0039V18.8037Z" stroke="#233043" stroke-width="2" stroke-linecap="round" stroke-linejoin="round"/>
<path d="M25.3335 18.8037C25.3335 18.5705 25.2117 18.3543 25.0124 18.2335L22.3457 16.6174C21.9014 16.3481 21.3335 16.668 21.3335 17.1875V22.6706H24.6668C25.035 22.6706 25.3335 22.3721 25.3335 22.0039V18.8037Z" stroke="#233043" stroke-width="2" stroke-linecap="round" stroke-linejoin="round"/>
<circle cx="16" cy="12.6704" r="2" fill="#233043"/>
<path d="M16.0001 26.6706V24.0039" stroke="#233043" stroke-width="2" stroke-linecap="round" stroke-linejoin="round"/>
<path d="M12 28.0041V25.3374" stroke="#233043" stroke-width="2" stroke-linecap="round" stroke-linejoin="round"/>
<path d="M20 28.0041V25.3374" stroke="#233043" stroke-width="2" stroke-linecap="round" stroke-linejoin="round"/>
</svg>
