<svg width="32" height="32" viewBox="0 0 32 32" fill="none" xmlns="http://www.w3.org/2000/svg">
<path fill-rule="evenodd" clip-rule="evenodd" d="M5 9.5C5 8.67157 5.67157 8 6.5 8H25.5C26.3284 8 27 8.67157 27 9.5V12.5C27 13.3284 26.3284 14 25.5 14H6.5C5.67157 14 5 13.3284 5 12.5V9.5ZM7 10V12H25V10H7ZM5 18C5 17.4477 5.44772 17 6 17H26C26.5523 17 27 17.4477 27 18C27 18.5523 26.5523 19 26 19H6C5.44772 19 5 18.5523 5 18ZM6 22C5.44772 22 5 22.4477 5 23C5 23.5523 5.44772 24 6 24H26C26.5523 24 27 23.5523 27 23C27 22.4477 26.5523 22 26 22H6Z" fill="#233043"/>
</svg>
