<svg width="32" height="32" viewBox="0 0 32 32" fill="none" xmlns="http://www.w3.org/2000/svg">
<path d="M13.211 19.0116C13.211 19.0116 13.211 21.1032 15.9999 21.1032C16.1806 21.1032 18.7887 21.1032 18.7887 18.3143C18.7887 15.5255 15.9999 15.5255 15.9999 15.5255C15.9999 15.5255 13.6855 15.5255 13.6855 13.2111C13.6855 10.8967 15.8499 10.8967 15.9998 10.8967C17.2865 10.8967 17.8579 11.4332 18.1116 11.9097" stroke="#233043" stroke-width="2" stroke-linecap="round" stroke-linejoin="round"/>
<path d="M6.5 26H25.5C25.7761 26 26 25.7761 26 25.5V6.5C26 6.22386 25.7761 6 25.5 6H6.5C6.22386 6 6 6.22386 6 6.5V25.5C6 25.7761 6.22386 26 6.5 26Z" stroke="#233043" stroke-width="2" stroke-linecap="round" stroke-linejoin="round"/>
</svg>
