<svg width="32" height="32" viewBox="0 0 32 32" fill="none" xmlns="http://www.w3.org/2000/svg">
<path d="M14.75 4.75V3.75C14.35 3.75 13.9885 3.9884 13.8309 4.35608L14.75 4.75ZM13.5267 7.60438L13.8089 8.56375C14.0949 8.47963 14.3284 8.2723 14.4459 7.9983L13.5267 7.60438ZM17.25 4.75L18.1692 4.35608C18.0116 3.9884 17.6501 3.75 17.25 3.75V4.75ZM18.4733 7.60438L17.5542 7.9983C17.6716 8.2723 17.9052 8.47963 18.1912 8.56375L18.4733 7.60438ZM20.187 8.31485L19.7078 9.19255C19.9696 9.33547 20.2815 9.35409 20.5584 9.24332L20.187 8.31485ZM23.0711 7.16123L23.7782 6.45412C23.4953 6.17126 23.0711 6.08418 22.6997 6.23275L23.0711 7.16123ZM24.8388 8.92899L25.7673 9.30038C25.9159 8.92897 25.8288 8.50475 25.546 8.22189L24.8388 8.92899ZM23.6852 11.8131L22.7567 11.4417C22.646 11.7186 22.6646 12.0305 22.8075 12.2923L23.6852 11.8131ZM24.3956 13.5266L23.4362 13.8088C23.5203 14.0948 23.7276 14.3283 24.0016 14.4457L24.3956 13.5266ZM27.25 14.7499H28.25C28.25 14.3499 28.0116 13.9884 27.6439 13.8308L27.25 14.7499ZM27.25 17.2499L27.6439 18.1691C28.0116 18.0115 28.25 17.65 28.25 17.2499H27.25ZM24.3956 18.4733L24.0016 17.5541C23.7276 17.6716 23.5203 17.9051 23.4362 18.1911L24.3956 18.4733ZM23.6852 20.1868L22.8074 19.7076C22.6645 19.9694 22.6459 20.2813 22.7567 20.5582L23.6852 20.1868ZM24.8388 23.0711L25.546 23.7782C25.8288 23.4953 25.9159 23.0711 25.7673 22.6997L24.8388 23.0711ZM23.0711 24.8388L22.6997 25.7673C23.0711 25.9159 23.4953 25.8288 23.7782 25.5459L23.0711 24.8388ZM20.1868 23.6851L20.5582 22.7567C20.2813 22.6459 19.9694 22.6645 19.7076 22.8074L20.1868 23.6851ZM18.4734 24.3955L18.1912 23.4361C17.9052 23.5202 17.6717 23.7275 17.5543 24.0015L18.4734 24.3955ZM17.25 27.25V28.25C17.6501 28.25 18.0116 28.0116 18.1692 27.6439L17.25 27.25ZM14.75 27.25L13.8309 27.6439C13.9885 28.0116 14.35 28.25 14.75 28.25V27.25ZM13.5267 24.3955L14.4458 24.0015C14.3284 23.7275 14.0948 23.5202 13.8088 23.4361L13.5267 24.3955ZM11.8133 23.6852L12.2925 22.8074C12.0307 22.6645 11.7188 22.6459 11.4419 22.7567L11.8133 23.6852ZM8.92902 24.8389L8.22192 25.546C8.50478 25.8289 8.929 25.9159 9.30041 25.7674L8.92902 24.8389ZM7.16125 23.0711L6.23278 22.6997C6.08421 23.0711 6.17129 23.4954 6.45415 23.7782L7.16125 23.0711ZM8.31494 20.1869L9.24341 20.5583C9.35418 20.2814 9.33556 19.9695 9.19264 19.7077L8.31494 20.1869ZM7.60451 18.4733L8.56387 18.1911C8.47975 17.9052 8.27242 17.6716 7.99843 17.5542L7.60451 18.4733ZM4.74989 17.2499H3.74989C3.74989 17.65 3.98829 18.0115 4.35597 18.1691L4.74989 17.2499ZM4.74989 14.7499L4.35597 13.8308C3.98829 13.9884 3.74989 14.3499 3.74989 14.7499H4.74989ZM7.60451 13.5265L7.99843 14.4457C8.27242 14.3282 8.47975 14.0947 8.56387 13.8087L7.60451 13.5265ZM8.31489 11.813L9.1926 12.2922C9.33552 12.0305 9.35413 11.7186 9.24337 11.4416L8.31489 11.813ZM7.16125 8.92895L6.45415 8.22184C6.17129 8.5047 6.08421 8.92892 6.23278 9.30034L7.16125 8.92895ZM8.92902 7.16118L9.30041 6.2327C8.929 6.08413 8.50478 6.17121 8.22192 6.45407L8.92902 7.16118ZM11.8131 8.31481L11.4417 9.24329C11.7186 9.35405 12.0305 9.33543 12.2923 9.19252L11.8131 8.31481ZM13.8309 4.35608L12.6076 7.21046L14.4459 7.9983L15.6692 5.14392L13.8309 4.35608ZM17.25 3.75H14.75V5.75H17.25V3.75ZM19.3925 7.21046L18.1692 4.35608L16.3309 5.14392L17.5542 7.9983L19.3925 7.21046ZM20.6662 7.43715C20.0651 7.10894 19.4253 6.84204 18.7555 6.64502L18.1912 8.56375C18.7225 8.72003 19.2303 8.93182 19.7078 9.19255L20.6662 7.43715ZM22.6997 6.23275L19.8156 7.38637L20.5584 9.24332L23.4425 8.0897L22.6997 6.23275ZM25.546 8.22189L23.7782 6.45412L22.364 7.86833L24.1317 9.6361L25.546 8.22189ZM24.6137 12.1845L25.7673 9.30038L23.9104 8.5576L22.7567 11.4417L24.6137 12.1845ZM25.3549 13.2444C25.1579 12.5747 24.8911 11.935 24.5629 11.3339L22.8075 12.2923C23.0682 12.7698 23.2799 13.2775 23.4362 13.8088L25.3549 13.2444ZM27.6439 13.8308L24.7895 12.6074L24.0016 14.4457L26.8561 15.6691L27.6439 13.8308ZM28.25 17.2499V14.7499H26.25V17.2499H28.25ZM24.7895 19.3924L27.6439 18.1691L26.8561 16.3308L24.0016 17.5541L24.7895 19.3924ZM24.5629 20.666C24.891 20.0649 25.1579 19.4252 25.3549 18.7554L23.4362 18.1911C23.2799 18.7224 23.0682 19.2301 22.8074 19.7076L24.5629 20.666ZM25.7673 22.6997L24.6136 19.8155L22.7567 20.5582L23.9104 23.4425L25.7673 22.6997ZM23.7782 25.5459L25.546 23.7782L24.1317 22.364L22.364 24.1317L23.7782 25.5459ZM19.8154 24.6136L22.6997 25.7673L23.4425 23.9104L20.5582 22.7567L19.8154 24.6136ZM18.7556 25.3548C19.4253 25.1578 20.0649 24.891 20.666 24.5628L19.7076 22.8074C19.2302 23.0681 18.7225 23.2798 18.1912 23.4361L18.7556 25.3548ZM18.1692 27.6439L19.3925 24.7894L17.5543 24.0015L16.3309 26.8561L18.1692 27.6439ZM14.75 28.25H17.25V26.25H14.75V28.25ZM12.6075 24.7894L13.8309 27.6439L15.6692 26.8561L14.4458 24.0015L12.6075 24.7894ZM11.3341 24.5629C11.9352 24.891 12.5748 25.1578 13.2445 25.3548L13.8088 23.4361C13.2776 23.2798 12.7699 23.0681 12.2925 22.8074L11.3341 24.5629ZM9.30041 25.7674L12.1847 24.6136L11.4419 22.7567L8.55763 23.9104L9.30041 25.7674ZM6.45415 23.7782L8.22192 25.546L9.63613 24.1318L7.86836 22.364L6.45415 23.7782ZM7.38646 19.8155L6.23278 22.6997L8.08973 23.4425L9.24341 20.5583L7.38646 19.8155ZM6.64515 18.7555C6.84216 19.4253 7.10905 20.065 7.43723 20.6661L9.19264 19.7077C8.93193 19.2302 8.72015 18.7225 8.56387 18.1911L6.64515 18.7555ZM4.35597 18.1691L7.21059 19.3925L7.99843 17.5542L5.14381 16.3308L4.35597 18.1691ZM3.74989 14.7499V17.2499H5.74989V14.7499H3.74989ZM7.21059 12.6074L4.35597 13.8308L5.14381 15.6691L7.99843 14.4457L7.21059 12.6074ZM7.43718 11.3338C7.10902 11.9349 6.84215 12.5746 6.64515 13.2443L8.56387 13.8087C8.72014 13.2774 8.93191 12.7697 9.1926 12.2922L7.43718 11.3338ZM6.23278 9.30034L7.38641 12.1844L9.24337 11.4416L8.08973 8.55755L6.23278 9.30034ZM8.22192 6.45407L6.45415 8.22184L7.86836 9.63605L9.63613 7.86828L8.22192 6.45407ZM12.1845 7.38633L9.30041 6.2327L8.55763 8.08965L11.4417 9.24329L12.1845 7.38633ZM13.2445 6.64502C12.5747 6.84203 11.935 7.10891 11.3339 7.4371L12.2923 9.19252C12.7698 8.9318 13.2776 8.72002 13.8089 8.56375L13.2445 6.64502ZM19.25 16C19.25 17.7949 17.795 19.25 16 19.25V21.25C18.8995 21.25 21.25 18.8995 21.25 16H19.25ZM16 12.75C17.795 12.75 19.25 14.205 19.25 16H21.25C21.25 13.1005 18.8995 10.75 16 10.75V12.75ZM12.75 16C12.75 14.205 14.2051 12.75 16 12.75V10.75C13.1005 10.75 10.75 13.1005 10.75 16H12.75ZM16 19.25C14.2051 19.25 12.75 17.7949 12.75 16H10.75C10.75 18.8995 13.1005 21.25 16 21.25V19.25Z" fill="#233043"/>
</svg>
