<svg width="32" height="33" viewBox="0 0 32 33" fill="none" xmlns="http://www.w3.org/2000/svg">
<path fill-rule="evenodd" clip-rule="evenodd" d="M12.9377 6.81608C13.1357 6.75039 13.2997 6.60669 13.3819 6.41489L14.4294 3.97064C14.5397 3.71326 14.7928 3.54639 15.0728 3.54639H16.9272C17.2072 3.54639 17.4603 3.71326 17.5706 3.97064L18.6181 6.4149C18.7003 6.6067 18.8643 6.7504 19.0624 6.81609C19.5102 6.9646 19.9435 7.14478 20.3597 7.35399C20.5463 7.44774 20.7639 7.46211 20.9578 7.38458L23.4274 6.39672C23.6874 6.29273 23.9844 6.35368 24.1824 6.55168L25.4936 7.86292C25.6916 8.06093 25.7526 8.35788 25.6486 8.61787L24.6607 11.0875C24.5832 11.2814 24.5975 11.499 24.6913 11.6856C24.9005 12.1018 25.0807 12.5352 25.2292 12.9829C25.2949 13.181 25.4386 13.345 25.6304 13.4272L28.0746 14.4747C28.332 14.585 28.4989 14.8381 28.4989 15.1181V16.9725C28.4989 17.2525 28.332 17.5056 28.0746 17.6159L25.6304 18.6634C25.4386 18.7456 25.2949 18.9096 25.2292 19.1076C25.0807 19.5554 24.9005 19.9888 24.6913 20.405C24.5976 20.5915 24.5832 20.8092 24.6607 21.003L25.6486 23.4727C25.7526 23.7327 25.6916 24.0296 25.4936 24.2276L24.1824 25.5389C23.9844 25.7369 23.6874 25.7978 23.4274 25.6938L20.9578 24.706C20.764 24.6284 20.5463 24.6428 20.3598 24.7366C19.9435 24.9458 19.5102 25.126 19.0624 25.2745C18.8643 25.3402 18.7003 25.4839 18.6181 25.6757L17.5706 28.1199C17.4603 28.3773 17.2072 28.5442 16.9272 28.5442H15.0728C14.7928 28.5442 14.5397 28.3773 14.4294 28.1199L13.3819 25.6757C13.2997 25.4839 13.1357 25.3402 12.9377 25.2745C12.4898 25.126 12.0564 24.9458 11.6401 24.7365C11.4536 24.6428 11.2359 24.6284 11.0421 24.7059L8.57258 25.6937C8.31259 25.7977 8.01564 25.7368 7.81764 25.5388L6.50639 24.2275C6.30839 24.0295 6.24744 23.7326 6.35143 23.4726L7.33926 21.003C7.4168 20.8092 7.40243 20.5915 7.30868 20.405C7.09948 19.9887 6.91931 19.5554 6.77081 19.1076C6.70512 18.9096 6.56141 18.7456 6.36961 18.6634L3.92536 17.6159C3.66798 17.5056 3.5011 17.2525 3.5011 16.9725V15.1181C3.5011 14.8381 3.66798 14.585 3.92536 14.4747L6.36961 13.4272C6.56141 13.345 6.70511 13.181 6.7708 12.9829C6.9193 12.5352 7.09948 12.1018 7.30868 11.6856C7.40243 11.499 7.4168 11.2814 7.33927 11.0875L6.35143 8.61796C6.24744 8.35797 6.30839 8.06102 6.50639 7.86301L7.81764 6.55177C8.01564 6.35377 8.31259 6.29281 8.57258 6.39681L11.0421 7.38462C11.236 7.46216 11.4536 7.44779 11.6402 7.35403C12.0564 7.1448 12.4898 6.9646 12.9377 6.81608ZM16 20.7671C18.6078 20.7671 20.7218 18.6531 20.7218 16.0453C20.7218 13.4375 18.6078 11.3235 16 11.3235C13.3922 11.3235 11.2782 13.4375 11.2782 16.0453C11.2782 18.6531 13.3922 20.7671 16 20.7671Z" fill="#233043"/>
</svg>
