<svg width="32" height="32" viewBox="0 0 32 32" fill="none" xmlns="http://www.w3.org/2000/svg">
<path fill-rule="evenodd" clip-rule="evenodd" d="M12.9377 6.81217C13.1358 6.74649 13.2997 6.60278 13.3819 6.41098L14.4295 3.96674C14.5398 3.70936 14.7928 3.54248 15.0729 3.54248H16.9272C17.2073 3.54248 17.4603 3.70936 17.5706 3.96674L18.6182 6.41099C18.7004 6.60279 18.8643 6.7465 19.0624 6.81218C19.5102 6.96069 19.9435 7.14087 20.3598 7.35008C20.5463 7.44384 20.764 7.45821 20.9578 7.38067L23.4275 6.39282C23.6875 6.28882 23.9844 6.34977 24.1824 6.54777L25.4937 7.85902C25.6917 8.05702 25.7526 8.35397 25.6486 8.61397L24.6608 11.0836C24.5832 11.2775 24.5976 11.4951 24.6913 11.6817C24.9006 12.0979 25.0807 12.5312 25.2292 12.979C25.2949 13.1771 25.4386 13.3411 25.6304 13.4233L28.0747 14.4708C28.332 14.5811 28.4989 14.8342 28.4989 15.1142V16.9686C28.4989 17.2486 28.332 17.5017 28.0747 17.612L25.6304 18.6595C25.4386 18.7417 25.2949 18.9057 25.2292 19.1037C25.0807 19.5515 24.9006 19.9848 24.6913 20.4011C24.5976 20.5876 24.5832 20.8053 24.6608 20.9991L25.6486 23.4688C25.7526 23.7288 25.6917 24.0257 25.4937 24.2237L24.1824 25.535C23.9844 25.733 23.6875 25.7939 23.4275 25.6899L20.9578 24.7021C20.764 24.6245 20.5463 24.6389 20.3598 24.7327C19.9436 24.9419 19.5102 25.1221 19.0624 25.2706C18.8643 25.3362 18.7004 25.48 18.6182 25.6718L17.5706 28.116C17.4603 28.3734 17.2073 28.5403 16.9272 28.5403H15.0729C14.7928 28.5403 14.5398 28.3734 14.4295 28.116L13.3819 25.6718C13.2997 25.48 13.1358 25.3363 12.9377 25.2706C12.4899 25.122 12.0565 24.9418 11.6402 24.7326C11.4536 24.6389 11.236 24.6245 11.0421 24.702L8.57263 25.6898C8.31264 25.7938 8.01568 25.7329 7.81768 25.5349L6.50644 24.2236C6.30843 24.0256 6.24748 23.7287 6.35148 23.4687L7.33931 20.9991C7.41684 20.8053 7.40247 20.5876 7.30872 20.4011C7.09953 19.9848 6.91935 19.5515 6.77085 19.1037C6.70516 18.9057 6.56146 18.7417 6.36966 18.6595L3.9254 17.612C3.66802 17.5017 3.50114 17.2486 3.50114 16.9686V15.1142C3.50114 14.8342 3.66802 14.5811 3.9254 14.4708L6.36965 13.4233C6.56145 13.3411 6.70516 13.1771 6.77084 12.979C6.91935 12.5312 7.09953 12.0979 7.30873 11.6817C7.40248 11.4951 7.41685 11.2775 7.33931 11.0836L6.35148 8.61405C6.24748 8.35406 6.30843 8.05711 6.50644 7.85911L7.81768 6.54786C8.01568 6.34986 8.31264 6.28891 8.57263 6.39291L11.0422 7.38072C11.236 7.45825 11.4537 7.44388 11.6402 7.35012C12.0565 7.14089 12.4899 6.96069 12.9377 6.81217ZM16 20.7632C18.6078 20.7632 20.7218 18.6492 20.7218 16.0414C20.7218 13.4336 18.6078 11.3196 16 11.3196C13.3922 11.3196 11.2782 13.4336 11.2782 16.0414C11.2782 18.6492 13.3922 20.7632 16 20.7632Z" fill="#233043"/>
</svg>
