<svg width="32" height="32" viewBox="0 0 32 32" fill="none" xmlns="http://www.w3.org/2000/svg">
<path d="M21.8675 26.2845H25.2673C26.1878 26.2845 26.9339 25.5383 26.9339 24.6179V23.8654C26.9339 20.3676 24.0984 17.5321 20.6006 17.5321H19.3502C21.1357 19.0605 22.2673 21.3308 22.2673 23.8654V24.6179C22.2673 25.218 22.1231 25.7845 21.8675 26.2845Z" fill="#233043"/>
<path d="M17.7131 15.9463C18.1789 16.0826 18.6716 16.1557 19.1814 16.1557C22.0645 16.1557 24.4017 13.8185 24.4017 10.9354C24.4017 8.05229 22.0645 5.71509 19.1814 5.71509C18.6716 5.71509 18.1789 5.78817 17.7131 5.92442C18.9651 7.22289 19.7351 8.98922 19.7351 10.9354C19.7351 12.8815 18.9651 14.6479 17.7131 15.9463Z" fill="#233043"/>
<circle cx="12.515" cy="10.9354" r="4.22029" stroke="#233043" stroke-width="2" stroke-linecap="round" stroke-linejoin="round"/>
<path d="M5.76245 23.8654C5.76245 20.9199 8.15027 18.5321 11.0958 18.5321H13.9341C16.8796 18.5321 19.2674 20.9199 19.2674 23.8654V24.6179C19.2674 24.9861 18.9689 25.2845 18.6007 25.2845H6.42912C6.06093 25.2845 5.76245 24.9861 5.76245 24.6179V23.8654Z" stroke="#233043" stroke-width="2" stroke-linecap="round" stroke-linejoin="round"/>
</svg>
