<svg width="32" height="32" viewBox="0 0 32 32" fill="none" xmlns="http://www.w3.org/2000/svg">
<path fill-rule="evenodd" clip-rule="evenodd" d="M21.3333 12C22.8061 12 24 10.8061 24 9.33335C24 7.86059 22.8061 6.66669 21.3333 6.66669C19.8606 6.66669 18.6667 7.86059 18.6667 9.33335C18.6667 9.44391 18.6734 9.5529 18.6865 9.65992L11.0088 13.9253C10.5509 13.555 9.96803 13.3333 9.33334 13.3333C7.86058 13.3333 6.66667 14.5272 6.66667 16C6.66667 17.4727 7.86058 18.6666 9.33334 18.6666C9.96799 18.6666 10.5509 18.4449 11.0087 18.0747L18.6865 22.3402C18.6734 22.4472 18.6667 22.5561 18.6667 22.6667C18.6667 24.1394 19.8606 25.3333 21.3333 25.3333C22.8061 25.3333 24 24.1394 24 22.6667C24 21.1939 22.8061 20 21.3333 20C20.6987 20 20.1158 20.2217 19.6579 20.5919L11.9802 16.3265C11.9933 16.2195 12 16.1105 12 16C12 15.8895 11.9933 15.7805 11.9802 15.6735L19.658 11.4081C20.1158 11.7783 20.6987 12 21.3333 12Z" fill="#233043"/>
</svg>
