<svg width="32" height="32" viewBox="0 0 32 32" fill="none" xmlns="http://www.w3.org/2000/svg">
<path d="M21.8675 26.2845H25.2673C26.1878 26.2845 26.934 25.5383 26.934 24.6179V23.8654C26.934 20.3676 24.0985 17.5321 20.6007 17.5321H19.3503C21.1358 19.0605 22.2673 21.3308 22.2673 23.8654V24.6179C22.2673 25.218 22.1232 25.7845 21.8675 26.2845Z" fill="#233043"/>
<path d="M17.7132 15.9463C18.179 16.0826 18.6717 16.1557 19.1815 16.1557C22.0646 16.1557 24.4018 13.8185 24.4018 10.9354C24.4018 8.05229 22.0646 5.71509 19.1815 5.71509C18.6717 5.71509 18.179 5.78817 17.7132 5.92442C18.9652 7.22289 19.7351 8.98922 19.7351 10.9354C19.7351 12.8815 18.9652 14.6479 17.7132 15.9463Z" fill="#233043"/>
<circle cx="12.5149" cy="10.9354" r="4.22029" stroke="#233043" stroke-width="2" stroke-linecap="round" stroke-linejoin="round"/>
<path d="M5.76237 23.8654C5.76237 20.9199 8.15019 18.5321 11.0957 18.5321H13.934C16.8795 18.5321 19.2673 20.9199 19.2673 23.8654V24.6179C19.2673 24.9861 18.9688 25.2845 18.6006 25.2845H6.42904C6.06085 25.2845 5.76237 24.9861 5.76237 24.6179V23.8654Z" stroke="#233043" stroke-width="2" stroke-linecap="round" stroke-linejoin="round"/>
</svg>
