<svg width="32" height="32" viewBox="0 0 32 32" fill="none" xmlns="http://www.w3.org/2000/svg">
<path fill-rule="evenodd" clip-rule="evenodd" d="M3.41052 15.1921C3.16166 15.374 3 15.6681 3 16C3 16.3319 3.16165 16.626 3.41051 16.8079C3.44635 16.8548 3.48572 16.8999 3.52863 16.9428L15.2929 28.7071C15.6834 29.0976 16.3166 29.0976 16.7071 28.7071C17.0977 28.3166 17.0977 27.6834 16.7071 27.2929L6.41424 17H28C28.5523 17 29 16.5523 29 16C29 15.4477 28.5523 15 28 15L6.41424 15L16.7071 4.70711C17.0977 4.31658 17.0977 3.68342 16.7071 3.29289C16.3166 2.90237 15.6834 2.90237 15.2929 3.29289L3.52863 15.0572C3.48572 15.1001 3.44635 15.1452 3.41052 15.1921Z" fill="#233043"/>
</svg>
