<svg width="32" height="32" viewBox="0 0 32 32" fill="none" xmlns="http://www.w3.org/2000/svg">
<path fill-rule="evenodd" clip-rule="evenodd" d="M28.5895 16.8079C28.8383 16.626 29 16.3319 29 16C29 15.6681 28.8383 15.374 28.5895 15.1921C28.5536 15.1452 28.5143 15.1001 28.4714 15.0572L16.7071 3.29289C16.3166 2.90237 15.6834 2.90237 15.2929 3.29289C14.9023 3.68342 14.9023 4.31658 15.2929 4.70711L25.5858 15L4 15C3.44771 15 3 15.4477 3 16C3 16.5523 3.44771 17 4 17H25.5858L15.2929 27.2929C14.9023 27.6834 14.9023 28.3166 15.2929 28.7071C15.6834 29.0976 16.3166 29.0976 16.7071 28.7071L28.4714 16.9428C28.5143 16.8999 28.5536 16.8548 28.5895 16.8079Z" fill="#233043"/>
</svg>
