<svg width="32" height="32" viewBox="0 0 32 32" fill="none" xmlns="http://www.w3.org/2000/svg">
<path d="M6.98347 17.6064H2.04452V13.9106H7.17853C8.25662 8.08379 12.5267 6.76405 14.7273 6.87987C19.6239 6.87987 21.7564 7.68064 24.1567 12.8653C24.3184 13.2147 24.457 13.5635 24.5736 13.9106H30.1555V17.6064H25.0355C24.7621 20.8704 22.702 23.5585 20.2 24.5462C16.7851 25.8941 7.7346 25.3916 6.98347 17.6064Z" fill="white"/>
<path d="M16.6307 13.0583C16.6307 12.6441 16.2949 12.3083 15.8807 12.3083C15.4665 12.3083 15.1307 12.6441 15.1307 13.0583V18.9417C15.1307 19.3559 15.4665 19.6917 15.8807 19.6917C16.2949 19.6917 16.6307 19.3559 16.6307 18.9417V13.0583Z" fill="#233043"/>
<path d="M12.735 14.0522C12.735 13.638 12.3993 13.3022 11.985 13.3022C11.5708 13.3022 11.235 13.638 11.235 14.0522V17.9479C11.235 18.3621 11.5708 18.6979 11.985 18.6979C12.3993 18.6979 12.735 18.3621 12.735 17.9479V14.0522Z" fill="#233043"/>
<path d="M20.0149 13.4214C20.4291 13.4214 20.7649 13.7572 20.7649 14.1714V17.8286C20.7649 18.2428 20.4291 18.5786 20.0149 18.5786C19.6007 18.5786 19.2649 18.2428 19.2649 17.8286V14.1714C19.2649 13.7572 19.6007 13.4214 20.0149 13.4214Z" fill="#233043"/>
<path fill-rule="evenodd" clip-rule="evenodd" d="M9.58958 7.94636C11.3357 6.48632 13.3649 6.06236 14.7464 6.1299C17.1988 6.1309 19.1297 6.32599 20.7578 7.28156C22.4009 8.24598 23.6153 9.91064 24.8373 12.5503C24.9316 12.7538 25.0185 12.9574 25.0984 13.1606H27.8201C28.9722 13.1606 29.7607 13.5938 30.2198 14.2812C30.6416 14.9126 30.7054 15.6444 30.7054 16.1116C30.7054 16.6838 30.5143 17.3602 30.0421 17.905C29.5513 18.4714 28.8046 18.8393 27.8201 18.8393H25.6111C24.9768 21.8451 22.9411 24.2705 20.4754 25.2438C18.47 26.0354 14.8396 26.2244 11.7489 24.9907C10.1848 24.3663 8.72257 23.3632 7.68633 21.8513C7.1001 20.9959 6.66257 19.9957 6.4151 18.8393H4.17987C3.19531 18.8393 2.44866 18.4715 1.95781 17.9051C1.48563 17.3603 1.29452 16.6839 1.29452 16.1117C1.29452 15.6444 1.3584 14.9127 1.78013 14.2812C2.23924 13.5938 3.02772 13.1607 4.17987 13.1607H6.56934C7.13524 10.7366 8.2596 9.05847 9.58958 7.94636ZM25.8048 17.3393H27.8201C28.4025 17.3393 28.7235 17.1362 28.9086 16.9226C29.1124 16.6876 29.2054 16.3751 29.2054 16.1116C29.2054 15.7431 29.1461 15.3744 28.9724 15.1143C28.8361 14.9101 28.5569 14.6606 27.8201 14.6606H25.5639C25.7737 15.5745 25.8474 16.4733 25.8048 17.3393ZM6.20126 15.8668C6.17511 16.3794 6.17853 16.8701 6.2095 17.3393H4.17987C3.59744 17.3393 3.27642 17.1363 3.09134 16.9227C2.88759 16.6876 2.79452 16.3752 2.79452 16.1117C2.79452 15.7432 2.85381 15.3744 3.02752 15.1143C3.16384 14.9102 3.44304 14.6607 4.17987 14.6607H6.30516C6.25757 15.0469 6.2226 15.4487 6.20126 15.8668ZM7.69932 15.9433C7.88248 12.3533 9.14471 10.2737 10.5518 9.09708C11.9815 7.90155 13.6374 7.57358 14.6879 7.62886L14.7076 7.6299H14.7273C17.1624 7.6299 18.7402 7.83667 19.9985 8.57519C21.2458 9.30732 22.2978 10.6354 23.4761 13.1804C25.6963 17.976 23.1698 22.5676 19.9246 23.8486C18.2815 24.4972 15.047 24.6922 12.305 23.5976C10.9528 23.0578 9.75661 22.2187 8.92362 21.0033C8.0946 19.7937 7.58646 18.1552 7.69932 15.9433Z" fill="#233043"/>
</svg>
