<svg width="32" height="32" viewBox="0 0 32 32" fill="none" xmlns="http://www.w3.org/2000/svg">
<path d="M24.822 12.4555L23.9097 12.865L24.822 12.4555C23.6318 9.80376 22.4279 8.07989 20.7633 7.07258C19.1145 6.07483 17.1733 5.8814 14.7914 5.88001C13.5155 5.81731 11.7301 6.17728 10.1089 7.3587C8.59959 8.45856 7.28468 10.2322 6.63502 12.911H4.31527C2.74264 12.911 1.46777 14.1859 1.46777 15.7585C1.46777 17.3311 2.74264 18.606 4.31527 18.606H6.38299C7.05873 22.391 9.59339 24.4896 12.3702 25.4467C15.2826 26.4505 18.555 26.2435 20.4496 25.4722L20.4498 25.4722C23.0188 24.426 25.0807 21.7974 25.6403 18.606H27.8785C29.4511 18.606 30.726 17.3311 30.726 15.7585C30.726 14.1859 29.4511 12.911 27.8785 12.911H25.015C24.9545 12.7593 24.8903 12.6075 24.822 12.4555Z" fill="white" stroke="#233043" stroke-width="2"/>
<path d="M6.46212 13.7344L6.45097 13.7966L6.44773 13.8596L6.37687 15.2372L6.37489 15.2757C6.29774 16.7746 6.20615 18.5539 6.81412 20.2136C7.98967 23.4226 10.6673 25.0608 13.3307 25.732C15.9623 26.3953 18.7492 26.1645 20.4499 25.4722L20.45 25.4722C22.7126 24.5508 24.5739 22.4036 25.37 19.7496C25.7961 18.3292 25.6792 16.8667 25.5268 15.6076L25.4418 14.9048C25.3474 14.124 25.1881 13.2706 24.8222 12.4555L23.9387 12.8521L24.8222 12.4555C23.632 9.80376 22.4282 8.07989 20.7635 7.07258C19.1147 6.07483 17.1735 5.8814 14.7916 5.88001C13.5157 5.81731 11.7304 6.17728 10.1091 7.3587C8.45021 8.56757 7.02615 10.5904 6.46212 13.7344Z" stroke="#233043" stroke-width="2"/>
<path d="M16 12V20" stroke="#233043" stroke-width="2" stroke-linecap="round" stroke-linejoin="round"/>
<path d="M20 14V18" stroke="#233043" stroke-width="2" stroke-linecap="round" stroke-linejoin="round"/>
<path d="M12 14V18" stroke="#233043" stroke-width="2" stroke-linecap="round" stroke-linejoin="round"/>
</svg>
