<svg width="32" height="32" viewBox="0 0 32 32" fill="none" xmlns="http://www.w3.org/2000/svg">
<path d="M7.25626 17.606H2.4679V13.911H7.44632C8.49165 8.08401 12.6323 6.76401 14.7656 6.88001C19.5142 6.88001 21.5826 7.68001 23.9098 12.865C24.0669 13.215 24.2007 13.563 24.3142 13.911H29.7261V17.606H24.7612C24.4965 20.87 22.4989 23.558 20.0727 24.546C16.7612 25.894 7.98547 25.392 7.25626 17.606V17.606Z" fill="white"/>
<path d="M16.6109 13.058C16.6109 12.8591 16.5343 12.6683 16.3979 12.5277C16.2615 12.387 16.0765 12.308 15.8836 12.308C15.6908 12.308 15.5058 12.387 15.3694 12.5277C15.233 12.6683 15.1564 12.8591 15.1564 13.058V18.942C15.1564 19.1409 15.233 19.3317 15.3694 19.4723C15.5058 19.613 15.6908 19.692 15.8836 19.692C16.0765 19.692 16.2615 19.613 16.3979 19.4723C16.5343 19.3317 16.6109 19.1409 16.6109 18.942V13.058ZM12.8339 14.052C12.8339 13.8531 12.7573 13.6623 12.6209 13.5217C12.4845 13.381 12.2996 13.302 12.1067 13.302C11.9138 13.302 11.7288 13.381 11.5924 13.5217C11.456 13.6623 11.3794 13.8531 11.3794 14.052V17.948C11.3794 18.1469 11.456 18.3377 11.5924 18.4783C11.7288 18.619 11.9138 18.698 12.1067 18.698C12.2996 18.698 12.4845 18.619 12.6209 18.4783C12.7573 18.3377 12.8339 18.1469 12.8339 17.948V14.052ZM19.8933 13.421C20.0862 13.421 20.2712 13.5 20.4076 13.6407C20.544 13.7813 20.6206 13.9721 20.6206 14.171V17.829C20.6206 18.0279 20.544 18.2187 20.4076 18.3593C20.2712 18.5 20.0862 18.579 19.8933 18.579C19.7004 18.579 19.5155 18.5 19.3791 18.3593C19.2427 18.2187 19.1661 18.0279 19.1661 17.829V14.17C19.1661 13.9711 19.2427 13.7803 19.3791 13.6397C19.5155 13.499 19.7004 13.42 19.8933 13.42V13.421Z" fill="#233043"/>
<path fill-rule="evenodd" clip-rule="evenodd" d="M9.78424 7.94605C11.4773 6.48605 13.4448 6.06205 14.784 6.13005C17.1627 6.13005 19.0351 6.32605 20.6138 7.28205C22.207 8.24605 23.3842 9.91105 24.5702 12.55C24.6613 12.754 24.7447 12.957 24.8223 13.16H27.4618C28.5789 13.16 29.343 13.594 29.7891 14.281C30.1983 14.913 30.2594 15.644 30.2594 16.111C30.2594 16.684 30.0751 17.361 29.6165 17.905C29.1413 18.471 28.417 18.839 27.4618 18.839H25.3198C24.705 21.845 22.7307 24.27 20.3394 25.244C18.3951 26.035 14.8751 26.224 11.8778 24.991C10.3612 24.366 8.94351 23.363 7.93793 21.851C7.33955 20.9402 6.92107 19.9167 6.70642 18.839H4.53818C3.58302 18.839 2.85963 18.472 2.38351 17.905C1.96982 17.4049 1.74196 16.7694 1.7406 16.112C1.7406 15.644 1.80169 14.912 2.2109 14.282C2.65696 13.594 3.42109 13.161 4.53818 13.161H6.85575C7.40363 10.737 8.49454 9.05805 9.78424 7.94605V7.94605ZM25.5079 17.339H27.4618C28.0262 17.339 28.3384 17.136 28.5178 16.923C28.7147 16.688 28.8048 16.375 28.8048 16.112C28.8048 15.743 28.7476 15.374 28.5789 15.114C28.447 14.91 28.1765 14.661 27.4618 14.661H25.2742C25.4778 15.575 25.5486 16.473 25.5069 17.339H25.5079ZM6.49696 15.867C6.47175 16.379 6.47563 16.87 6.50569 17.339H4.53818C3.97284 17.339 3.66157 17.136 3.48218 16.923C3.29775 16.6955 3.19622 16.4086 3.19515 16.112C3.19515 15.743 3.25236 15.374 3.42109 15.114C3.55296 14.91 3.82351 14.661 4.53818 14.661H6.59878C6.55181 15.0617 6.51818 15.464 6.49793 15.867H6.49696ZM7.94957 15.943C8.12702 12.353 9.35175 10.273 10.7161 9.09705C12.1028 7.90205 13.7076 7.57405 14.7268 7.62905H14.7656C17.1258 7.62905 18.656 7.83705 19.8759 8.57505C21.0861 9.30705 22.1062 10.635 23.2485 13.18C25.4012 17.976 22.9518 22.568 19.8051 23.849C18.2119 24.497 15.0749 24.692 12.416 23.598C11.105 23.058 9.94521 22.218 9.13745 21.003C8.3326 19.793 7.83999 18.155 7.94957 15.943V15.943Z" fill="#233043"/>
</svg>
