<svg width="32" height="32" viewBox="0 0 32 32" fill="none" xmlns="http://www.w3.org/2000/svg">
<path fill-rule="evenodd" clip-rule="evenodd" d="M5.6667 9.33337C5.6667 8.78109 6.11442 8.33337 6.6667 8.33337H25.3334C25.8857 8.33337 26.3334 8.78109 26.3334 9.33337C26.3334 9.88566 25.8857 10.3334 25.3334 10.3334H6.6667C6.11442 10.3334 5.6667 9.88566 5.6667 9.33337ZM5.6667 16C5.6667 15.4477 6.11442 15 6.6667 15H18.6667C19.219 15 19.6667 15.4477 19.6667 16C19.6667 16.5523 19.219 17 18.6667 17H6.6667C6.11442 17 5.6667 16.5523 5.6667 16ZM6.6667 21.6667C6.11442 21.6667 5.6667 22.1144 5.6667 22.6667C5.6667 23.219 6.11442 23.6667 6.6667 23.6667H14.6667C15.219 23.6667 15.6667 23.219 15.6667 22.6667C15.6667 22.1144 15.219 21.6667 14.6667 21.6667H6.6667Z" fill="#233043"/>
</svg>
