<svg width="32" height="32" viewBox="0 0 32 32" fill="none" xmlns="http://www.w3.org/2000/svg">
<path fill-rule="evenodd" clip-rule="evenodd" d="M11 4C11.4319 4 11.815 4.27728 11.9499 4.68755L13.9676 10.8219L19.3843 13.0768C19.7571 13.232 20 13.5962 20 14C20 14.4038 19.7571 14.768 19.3843 14.9232L13.9676 17.1781L11.9499 23.3125C11.815 23.7227 11.4319 24 11 24C10.5681 24 10.185 23.7227 10.0501 23.3125L8.03236 17.1781L2.61568 14.9232C2.24288 14.768 2 14.4038 2 14C2 13.5962 2.24288 13.232 2.61568 13.0768L8.03236 10.8219L10.0501 4.68755C10.185 4.27728 10.5681 4 11 4ZM11 8.2005L9.78921 11.8816C9.69839 12.1577 9.49193 12.3807 9.22359 12.4924L5.60202 14L9.22359 15.5076C9.49193 15.6193 9.69839 15.8423 9.78921 16.1184L11 19.7995L12.2108 16.1184C12.3016 15.8423 12.5081 15.6193 12.7764 15.5076L16.398 14L12.7764 12.4924C12.5081 12.3807 12.3016 12.1577 12.2108 11.8816L11 8.2005Z" fill="#233043"/>
<path d="M22 18C22.5523 18 23 18.4477 23 19V21C23 21.5523 22.5523 22 22 22C21.4477 22 21 21.5523 21 21V19C21 18.4477 21.4477 18 22 18Z" fill="#233043"/>
<path d="M18 22C17.4477 22 17 22.4477 17 23C17 23.5523 17.4477 24 18 24H20C20.5523 24 21 23.5523 21 23C21 22.4477 20.5523 22 20 22H18Z" fill="#233043"/>
<path d="M24 22C23.4477 22 23 22.4477 23 23C23 23.5523 23.4477 24 24 24H26C26.5523 24 27 23.5523 27 23C27 22.4477 26.5523 22 26 22H24Z" fill="#233043"/>
<path d="M23 25C23 24.4477 22.5523 24 22 24C21.4477 24 21 24.4477 21 25L21 27C21 27.5523 21.4477 28 22 28C22.5523 28 23 27.5523 23 27V25Z" fill="#233043"/>
<path d="M26 4C26.5523 4 27 4.44772 27 5V7C27 7.55228 26.5523 8 26 8C25.4477 8 25 7.55228 25 7V5C25 4.44772 25.4477 4 26 4Z" fill="#233043"/>
<path d="M22 8C21.4477 8 21 8.44772 21 9C21 9.55228 21.4477 10 22 10H24C24.5523 10 25 9.55228 25 9C25 8.44772 24.5523 8 24 8H22Z" fill="#233043"/>
<path d="M28 8C27.4477 8 27 8.44772 27 9C27 9.55228 27.4477 10 28 10H30C30.5523 10 31 9.55228 31 9C31 8.44772 30.5523 8 30 8H28Z" fill="#233043"/>
<path d="M27 11C27 10.4477 26.5523 10 26 10C25.4477 10 25 10.4477 25 11L25 13C25 13.5523 25.4477 14 26 14C26.5523 14 27 13.5523 27 13V11Z" fill="#233043"/>
</svg>
