<svg width="32" height="32" viewBox="0 0 32 32" fill="none" xmlns="http://www.w3.org/2000/svg">
<path fill-rule="evenodd" clip-rule="evenodd" d="M9.83591 5.35576C11.2856 5.72428 12.9396 6.43916 14.2625 7.74322C15.6056 9.06731 16.3177 10.722 16.6739 12.1619C16.8031 12.6843 16.8885 13.1912 16.9395 13.6596C17.1769 13.342 17.4419 13.0346 17.7375 12.7432C19.0604 11.4391 20.7143 10.7242 22.1641 10.3557C23.6014 9.99036 24.9384 9.94037 25.7082 10.054C26.3392 10.1472 26.8437 10.6339 26.9416 11.2783C27.0566 12.0358 27.0202 13.3898 26.6625 14.8456C26.3021 16.312 25.5889 17.9914 24.2564 19.3049C22.123 21.408 19.7248 21.9646 18 21.9974V22H17V26.0833C17 26.5896 16.5523 27 16 27C15.4477 27 15 26.5896 15 26.0833V17H14V16.9974C12.2752 16.9646 9.87696 16.4081 7.74355 14.305C6.41104 12.9914 5.6979 11.312 5.33749 9.84558C4.97972 8.38987 4.94333 7.03578 5.05841 6.2783C5.1563 5.63395 5.66079 5.1472 6.29173 5.05405C7.06153 4.9404 8.39857 4.99039 9.83591 5.35576ZM7.00237 7.00146C6.98656 7.55485 7.0449 8.41289 7.27969 9.36825C7.58512 10.611 8.16297 11.91 9.14761 12.8807C11.3379 15.0399 13.8508 15.1112 14.9963 14.9442C15.0157 14.42 14.9653 13.5839 14.7324 12.6421C14.4345 11.4378 13.8614 10.1562 12.8584 9.16752C11.8641 8.18735 10.5693 7.60578 9.34319 7.29411C8.39701 7.0536 7.55167 6.98872 7.00237 7.00146ZM17 19.7612C17.0003 19.8257 17.0016 19.8868 17.0037 19.9442C18.1491 20.1111 20.662 20.0399 22.8524 17.8806C23.837 16.91 24.4149 15.611 24.7203 14.3682C24.9551 13.4129 25.0134 12.5548 24.9976 12.0014C24.4483 11.9887 23.603 12.0536 22.6568 12.2941C21.4307 12.6057 20.1359 13.1873 19.1416 14.1675C18.1386 15.1562 17.5655 16.4377 17.2676 17.6421C17.068 18.4493 17.0024 19.1788 17 19.7009V19.7612Z" fill="#233043"/>
</svg>
