<svg width="32" height="32" viewBox="0 0 32 32" fill="none" xmlns="http://www.w3.org/2000/svg">
<path fill-rule="evenodd" clip-rule="evenodd" d="M16.8967 6.0755C16.7282 5.73417 16.3806 5.51807 15.9999 5.51807C15.6193 5.51807 15.2717 5.73417 15.1032 6.0755L12.23 11.8973L5.80521 12.8309C5.42852 12.8856 5.11557 13.1495 4.99795 13.5115C4.88032 13.8735 4.97842 14.2709 5.25099 14.5366L9.89999 19.0682L8.80251 25.467C8.73817 25.8422 8.89239 26.2214 9.20034 26.4451C9.50828 26.6688 9.91654 26.6983 10.2535 26.5212L15.9999 23.5001L21.7464 26.5212C22.0833 26.6983 22.4916 26.6688 22.7995 26.4451C23.1075 26.2214 23.2617 25.8422 23.1974 25.467L22.0999 19.0682L26.7489 14.5366C27.0215 14.2709 27.1196 13.8735 27.0019 13.5115C26.8843 13.1495 26.5714 12.8856 26.1947 12.8309L19.7699 11.8973L16.8967 6.0755Z" fill="#233043"/>
</svg>
