<svg width="32" height="32" viewBox="0 0 32 32" fill="none" xmlns="http://www.w3.org/2000/svg">
<path fill-rule="evenodd" clip-rule="evenodd" d="M16 26.6666C21.891 26.6666 26.6666 21.891 26.6666 16C26.6666 10.1089 21.891 5.3333 16 5.3333C10.1089 5.3333 5.33331 10.1089 5.33331 16C5.33331 21.891 10.1089 26.6666 16 26.6666ZM14.6689 11.3921C14.8855 10.884 14.6491 10.2966 14.1411 10.0801C13.633 9.86353 13.0456 10.0999 12.8291 10.6079L10.8959 15.1439C10.5211 16.0234 11.1665 17 12.1225 17H17.2098V21C17.2098 21.5523 17.6575 22 18.2098 22C18.7621 22 19.2098 21.5523 19.2098 21V16V11C19.2098 10.4477 18.7621 10 18.2098 10C17.6575 10 17.2098 10.4477 17.2098 11V15H13.1313L14.6689 11.3921Z" fill="#233043"/>
</svg>
