<svg width="32" height="32" viewBox="0 0 32 32" fill="none" xmlns="http://www.w3.org/2000/svg">
<path fill-rule="evenodd" clip-rule="evenodd" d="M16 26.6666C21.891 26.6666 26.6667 21.891 26.6667 16C26.6667 10.1089 21.891 5.3333 16 5.3333C10.1089 5.3333 5.33332 10.1089 5.33332 16C5.33332 21.891 10.1089 26.6666 16 26.6666ZM12.6655 9.99784C12.1133 9.99784 11.6655 10.4456 11.6655 10.9978H12.6655L11.6655 10.9979V10.998V10.9981V10.9983V10.9986V10.9989V10.9993V10.9997V11.0002V11.0008V11.0014V11.002V11.0028V11.0035V11.0044V11.0053V11.0062V11.0072V11.0083V11.0094V11.0106V11.0118V11.0131V11.0144V11.0158V11.0173V11.0188V11.0204V11.022V11.0236V11.0254V11.0271V11.029V11.0308V11.0328V11.0348V11.0368V11.0389V11.0411V11.0433V11.0455V11.0478V11.0502V11.0526V11.0551V11.0576V11.0601V11.0628V11.0654V11.0682V11.0709V11.0737V11.0766V11.0795V11.0825V11.0855V11.0886V11.0917V11.0949V11.0981V11.1014V11.1047V11.1081V11.1115V11.115V11.1185V11.1221V11.1257V11.1293V11.1331V11.1368V11.1406V11.1445V11.1484V11.1523V11.1563V11.1603V11.1644V11.1686V11.1727V11.177V11.1812V11.1856V11.1899V11.1943V11.1988V11.2033V11.2078V11.2124V11.2171V11.2217V11.2265V11.2312V11.236V11.2409V11.2458V11.2507V11.2557V11.2608V11.2658V11.2709V11.2761V11.2813V11.2865V11.2918V11.2972V11.3025V11.3079V11.3134V11.3189V11.3244V11.33V11.3356V11.3413V11.347V11.3527V11.3585V11.3643V11.3702V11.3761V11.382V11.388V11.3941V11.4001V11.4062V11.4124V11.4185V11.4247V11.431V11.4373V11.4436V11.45V11.4564V11.4629V11.4693V11.4759V11.4824V11.489V11.4956V11.5023V11.509V11.5158V11.5225V11.5293V11.5362V11.5431V11.55V11.557V11.564V11.571V11.578V11.5851V11.5923V11.5994V11.6066V11.6139V11.6212V11.6285V11.6358V11.6432V11.6506V11.658V11.6655V11.673V11.6805V11.6881V11.6957V11.7033V11.711V11.7187V11.7264V11.7342V11.742V11.7498V11.7577V11.7655V11.7735V11.7814V11.7894V11.7974V11.8054V11.8135V11.8216V11.8297V11.8379V11.8461V11.8543V11.8626V11.8708V11.8791V11.8875V11.8958V11.9042V11.9127V11.9211V11.9296V11.9381V11.9466V11.9552V11.9638V11.9724V11.981V11.9897V11.9984V12.0071V12.0158V12.0246V12.0334V12.0422V12.0511V12.0599V12.0688V12.0778V12.0867V12.0957V12.1047V12.1137V12.1228V12.1318V12.1409V12.1501V12.1592V12.1684V12.1776V12.1868V12.196V12.2053V12.2146V12.2239V12.2332V12.2425V12.2519V12.2613V12.2707V12.2802V12.2896V12.2991V12.3086V12.3181V12.3277V12.3373V12.3468V12.3564V12.3661V12.3757V12.3854V12.3951V12.4048V12.4145V12.4242V12.434V12.4438V12.4536V12.4634V12.4733V12.4831V12.493V12.5029V12.5128V12.5227V12.5327V12.5426V12.5526V12.5626V12.5726V12.5827V12.5927V12.6028V12.6129V12.623V12.6331V12.6432V12.6533V12.6635V12.6737V12.6839V12.6941V12.7043V12.7145V12.7248V12.7351V12.7453V12.7556V12.7659V12.7763V12.7866V12.7969V12.8073V12.8177V12.8281V12.8385V12.8489V12.8593V12.8697V12.8802V12.8906V12.9011V12.9116V12.9221V12.9326V12.9431V12.9536V12.9642V12.9747V12.9853V12.9959V13.0065V13.017V13.0276V13.0383V13.0489V13.0595V13.0702V13.0808V13.0915V13.1021V13.1128V13.1235V13.1342V13.1449V13.1556V13.1663V13.177V13.1878V13.1985V13.2093V13.22V13.2308V13.2415V13.2523V13.2631V13.2739V13.2847V13.2955V13.3063V13.3171V13.3279V13.3387V13.3495V13.3604V13.3712V13.382V13.3929V13.4037V13.4146V13.4255V13.4363V13.4472V13.458V13.4689V13.4798V13.4907V13.5016V13.5124V13.5233V13.5342V13.5451V13.556V13.5669V13.5778V13.5887V13.5996V13.6105V13.6214V13.6323V13.6432V13.6541V13.665V13.6759V13.6868V13.6977V13.7086V13.7195V13.7305V13.7414V13.7523V13.7632V13.7741V13.785V13.7959V13.8068V13.8177V13.8286V13.8395V13.8503V13.8612V13.8721V13.883V13.8939V13.9048V13.9156V13.9265V13.9374V13.9482V13.9591V13.97V13.9808V13.9917V14.0025V14.0133V14.0242V14.035V14.0458V14.0566V14.0675V14.0783V14.0891V14.0999V14.1107V14.1214V14.1322V14.143V14.1538V14.1645V14.1753V14.186V14.1967V14.2075V14.2182V14.2289V14.2396V14.2503V14.261V14.2717V14.2824V14.293V14.3037V14.3143V14.325V14.3356V14.3462V14.3568V14.3674V14.378V14.3886V14.3992V14.4097V14.4203V14.4308V14.4413V14.4519V14.4624V14.4728V14.4833V14.4938V14.5043V14.5147V14.5251V14.5356V14.546V14.5564V14.5667V14.5771V14.5875V14.5978V14.6081V14.6185V14.6288V14.6391V14.6493V14.6596V14.6698V14.6801V14.6903V14.7005V14.7107V14.7208V14.731V14.7411V14.7513V14.7614V14.7715V14.7815V14.7916V14.8017V14.8117V14.8217V14.8317V14.8417V14.8516V14.8616V14.8715V14.8814V14.8913V14.9012V14.911V14.9208V14.9307V14.9404V14.9502V14.96V14.9697V14.9794V14.9891V14.9988V15.0085V15.0181V15.0278V15.0374V15.0469V15.0565V15.066V15.0756V15.085V15.0945V15.104V15.1134V15.1228V15.1322V15.1416V15.1509V15.1602C11.6655 15.4804 11.8189 15.7813 12.078 15.9694C12.3371 16.1576 12.6706 16.2102 12.975 16.1111C14.5214 15.6078 16.0373 15.5247 17.0979 15.8411C17.6167 15.9958 17.9824 16.2318 18.2165 16.5141C18.4416 16.7855 18.6011 17.1661 18.6011 17.7289C18.6011 18.3108 18.4502 18.6988 18.2622 18.9708C18.0678 19.252 17.7939 19.4658 17.474 19.6271C17.1519 19.7895 16.8082 19.8858 16.5175 19.9403C16.3744 19.9672 16.2503 19.9827 16.1566 19.9915C16.1098 19.9959 16.0716 19.9984 16.0434 19.9999C16.0162 20.0013 16.0018 20.0015 16.0002 20.0015H16.0001L16 20.0015C14.922 20.0015 13.9695 19.3923 13.4063 18.7712C13.0353 18.362 12.4029 18.3311 11.9938 18.7021C11.5846 19.0731 11.5537 19.7055 11.9247 20.1146C12.7363 21.0097 14.1886 22.0015 16 22.0015C16.2488 22.0015 17.323 21.9432 18.3746 21.4129C18.9137 21.141 19.4781 20.7291 19.9074 20.108C20.3431 19.4777 20.6011 18.6868 20.6011 17.7289C20.6011 16.7521 20.3104 15.906 19.7561 15.2375C19.2108 14.5799 18.4679 14.1627 17.6696 13.9245C16.4741 13.5679 15.0601 13.5816 13.6655 13.8641V13.8612V13.8503V13.8395V13.8286V13.8177V13.8068V13.7959V13.785V13.7741V13.7632V13.7523V13.7414V13.7305V13.7195V13.7086V13.6977V13.6868V13.6759V13.665V13.6541V13.6432V13.6323V13.6214V13.6105V13.5996V13.5887V13.5778V13.5669V13.556V13.5451V13.5342V13.5233V13.5124V13.5016V13.4907V13.4798V13.4689V13.458V13.4472V13.4363V13.4255V13.4146V13.4037V13.3929V13.382V13.3712V13.3604V13.3495V13.3387V13.3279V13.3171V13.3063V13.2955V13.2847V13.2739V13.2631V13.2523V13.2415V13.2308V13.22V13.2093V13.1985V13.1878V13.177V13.1663V13.1556V13.1449V13.1342V13.1235V13.1128V13.1021V13.0915V13.0808V13.0702V13.0595V13.0489V13.0383V13.0276V13.017V13.0065V12.9959V12.9853V12.9747V12.9642V12.9536V12.9431V12.9326V12.9221V12.9116V12.9011V12.8906V12.8802V12.8697V12.8593V12.8489V12.8385V12.8281V12.8177V12.8073V12.7969V12.7866V12.7763V12.7659V12.7556V12.7453V12.7351V12.7248V12.7145V12.7043V12.6941V12.6839V12.6737V12.6635V12.6533V12.6432V12.6331V12.623V12.6129V12.6028V12.5927V12.5827V12.5726V12.5626V12.5526V12.5426V12.5327V12.5227V12.5128V12.5029V12.493V12.4831V12.4733V12.4634V12.4536V12.4438V12.434V12.4242V12.4145V12.4048V12.3951V12.3854V12.3757V12.3661V12.3564V12.3468V12.3373V12.3277V12.3181V12.3086V12.2991V12.2896V12.2802V12.2707V12.2613V12.2519V12.2425V12.2332V12.2239V12.2146V12.2053V12.196V12.1868V12.1776V12.1684V12.1592V12.1501V12.1409V12.1318V12.1228V12.1137V12.1047V12.0957V12.0867V12.0778V12.0688V12.0599V12.0511V12.0422V12.0334V12.0246V12.0158V12.0071V11.9984V11.9978H13.6707H13.6854H13.7002H13.7151H13.73H13.745H13.7601H13.7752H13.7905H13.8058H13.8212H13.8367H13.8522H13.8678H13.8835H13.8992H13.9151H13.931H13.9469H13.963H13.9791H13.9953H14.0115H14.0278H14.0442H14.0606H14.0771H14.0937H14.1104H14.1271H14.1438H14.1607H14.1775H14.1945H14.2115H14.2286H14.2457H14.2629H14.2801H14.2975H14.3148H14.3322H14.3497H14.3673H14.3848H14.4025H14.4202H14.4379H14.4557H14.4736H14.4915H14.5094H14.5274H14.5455H14.5636H14.5817H14.5999H14.6182H14.6365H14.6548H14.6732H14.6916H14.7101H14.7286H14.7472H14.7658H14.7844H14.8031H14.8218H14.8406H14.8594H14.8782H14.8971H14.916H14.935H14.9539H14.973H14.992H15.0111H15.0303H15.0494H15.0686H15.0878H15.1071H15.1264H15.1457H15.165H15.1844H15.2038H15.2233H15.2427H15.2622H15.2817H15.3013H15.3208H15.3404H15.36H15.3797H15.3993H15.419H15.4387H15.4584H15.4782H15.4979H15.5177H15.5375H15.5573H15.5772H15.597H15.6169H15.6368H15.6567H15.6766H15.6965H15.7164H15.7364H15.7564H15.7763H15.7963H15.8163H15.8363H15.8563H15.8763H15.8964H15.9164H15.9364H15.9565H15.9765H15.9966H16.0167H16.0367H16.0568H16.0769H16.0969H16.117H16.1371H16.1571H16.1772H16.1973H16.2174H16.2374H16.2575H16.2775H16.2976H16.3176H16.3377H16.3577H16.3778H16.3978H16.4178H16.4378H16.4578H16.4778H16.4978H16.5177H16.5377H16.5576H16.5776H16.5975H16.6174H16.6373H16.6571H16.677H16.6968H16.7167H16.7365H16.7563H16.776H16.7958H16.8155H16.8352H16.8549H16.8746H16.8942H16.9139H16.9335H16.953H16.9726H16.9921H17.0116H17.0311H17.0505H17.07H17.0893H17.1087H17.128H17.1473H17.1666H17.1859H17.2051H17.2242H17.2434H17.2625H17.2816H17.3006H17.3196H17.3386H17.3575H17.3764H17.3953H17.4141H17.4329H17.4516H17.4703H17.489H17.5076H17.5262H17.5447H17.5632H17.5816H17.6H17.6184H17.6367H17.655H17.6732H17.6914H17.7095H17.7276H17.7456H17.7636H17.7815H17.7994H17.8172H17.835H17.8527H17.8704H17.888H17.9055H17.923H17.9405H17.9579H17.9752H17.9925H18.0097H18.0269H18.044H18.061H18.078H18.0949H18.1117H18.1285H18.1453H18.1619H18.1785H18.1951H18.2116H18.228H18.2443H18.2606H18.2768H18.2929H18.309H18.325H18.3409H18.3568H18.3726H18.3883H18.4039H18.4195H18.435H18.4504H18.4658H18.4811H18.4963H18.5114H18.5264H18.5414H18.5563H18.5711H18.5858H18.6005H18.615H18.6295H18.6439H18.6582H18.6725H18.6866H18.7007H18.7147H18.7286H18.7424H18.7561H18.7698H18.7833H18.7968H18.8102H18.8235H18.8366H18.8497H18.8628H18.8757H18.8885H18.9012H18.9139H18.9264H18.9389H18.9512H18.9635H18.9756H18.9877H18.9997H19.0115H19.0233H19.035H19.0465H19.058H19.0694H19.0806H19.0918H19.1029H19.1138H19.1247H19.1354H19.146H19.1566H19.167H19.1773H19.1875H19.1976H19.2076H19.2175H19.2272H19.2369H19.2464H19.2559H19.2652H19.2744H19.2835H19.2925H19.3013H19.3101H19.3187H19.3272H19.3356H19.3439H19.352H19.3601H19.368H19.3758H19.3834H19.391H19.3984H19.4057H19.4129H19.42H19.4269H19.4337H19.4404H19.4469H19.4534H19.4597H19.4658H19.4719H19.4778H19.4836H19.4892H19.4947H19.5001H19.5054H19.5105H19.5155H19.5203H19.5251H19.5296H19.5341H19.5384H19.5426H19.5466H19.5505H19.5542H19.5579H19.5613H19.5647H19.5679H19.5709H19.5738H19.5766H19.5792H19.5817H19.584H19.5862H19.5882H19.5901H19.5918H19.5934H19.5949H19.5962H19.5973H19.5983H19.5992H19.5998H19.6004H19.6008H19.601L19.6011 10.9978V11.9978C20.1534 11.9978 20.6011 11.5501 20.6011 10.9978C20.6011 10.4456 20.1534 9.99784 19.6011 9.99784V10.9978L19.601 9.99784H19.6008H19.6004H19.5998H19.5992H19.5983H19.5973H19.5962H19.5949H19.5934H19.5918H19.5901H19.5882H19.5862H19.584H19.5817H19.5792H19.5766H19.5738H19.5709H19.5679H19.5647H19.5613H19.5579H19.5542H19.5505H19.5466H19.5426H19.5384H19.5341H19.5296H19.5251H19.5203H19.5155H19.5105H19.5054H19.5001H19.4947H19.4892H19.4836H19.4778H19.4719H19.4658H19.4597H19.4534H19.4469H19.4404H19.4337H19.4269H19.42H19.4129H19.4057H19.3984H19.391H19.3834H19.3758H19.368H19.3601H19.352H19.3439H19.3356H19.3272H19.3187H19.3101H19.3013H19.2925H19.2835H19.2744H19.2652H19.2559H19.2464H19.2369H19.2272H19.2175H19.2076H19.1976H19.1875H19.1773H19.167H19.1566H19.146H19.1354H19.1247H19.1138H19.1029H19.0918H19.0806H19.0694H19.058H19.0465H19.035H19.0233H19.0115H18.9997H18.9877H18.9756H18.9635H18.9512H18.9389H18.9264H18.9139H18.9012H18.8885H18.8757H18.8628H18.8497H18.8366H18.8235H18.8102H18.7968H18.7833H18.7698H18.7561H18.7424H18.7286H18.7147H18.7007H18.6866H18.6725H18.6582H18.6439H18.6295H18.615H18.6005H18.5858H18.5711H18.5563H18.5414H18.5264H18.5114H18.4963H18.4811H18.4658H18.4504H18.435H18.4195H18.4039H18.3883H18.3726H18.3568H18.3409H18.325H18.309H18.2929H18.2768H18.2606H18.2443H18.228H18.2116H18.1951H18.1785H18.1619H18.1453H18.1285H18.1117H18.0949H18.078H18.061H18.044H18.0269H18.0097H17.9925H17.9752H17.9579H17.9405H17.923H17.9055H17.888H17.8704H17.8527H17.835H17.8172H17.7994H17.7815H17.7636H17.7456H17.7276H17.7095H17.6914H17.6732H17.655H17.6367H17.6184H17.6H17.5816H17.5632H17.5447H17.5262H17.5076H17.489H17.4703H17.4516H17.4329H17.4141H17.3953H17.3764H17.3575H17.3386H17.3196H17.3006H17.2816H17.2625H17.2434H17.2242H17.2051H17.1859H17.1666H17.1473H17.128H17.1087H17.0893H17.07H17.0505H17.0311H17.0116H16.9921H16.9726H16.953H16.9335H16.9139H16.8942H16.8746H16.8549H16.8352H16.8155H16.7958H16.776H16.7563H16.7365H16.7167H16.6968H16.677H16.6571H16.6373H16.6174H16.5975H16.5776H16.5576H16.5377H16.5177H16.4978H16.4778H16.4578H16.4378H16.4178H16.3978H16.3778H16.3577H16.3377H16.3176H16.2976H16.2775H16.2575H16.2374H16.2174H16.1973H16.1772H16.1571H16.1371H16.117H16.0969H16.0769H16.0568H16.0367H16.0167H15.9966H15.9765H15.9565H15.9364H15.9164H15.8964H15.8763H15.8563H15.8363H15.8163H15.7963H15.7763H15.7564H15.7364H15.7164H15.6965H15.6766H15.6567H15.6368H15.6169H15.597H15.5772H15.5573H15.5375H15.5177H15.4979H15.4782H15.4584H15.4387H15.419H15.3993H15.3797H15.36H15.3404H15.3208H15.3013H15.2817H15.2622H15.2427H15.2233H15.2038H15.1844H15.165H15.1457H15.1264H15.1071H15.0878H15.0686H15.0494H15.0303H15.0111H14.992H14.973H14.9539H14.935H14.916H14.8971H14.8782H14.8594H14.8406H14.8218H14.8031H14.7844H14.7658H14.7472H14.7286H14.7101H14.6916H14.6732H14.6548H14.6365H14.6182H14.5999H14.5817H14.5636H14.5455H14.5274H14.5094H14.4915H14.4736H14.4557H14.4379H14.4202H14.4025H14.3848H14.3673H14.3497H14.3322H14.3148H14.2975H14.2801H14.2629H14.2457H14.2286H14.2115H14.1945H14.1775H14.1607H14.1438H14.1271H14.1104H14.0937H14.0771H14.0606H14.0442H14.0278H14.0115H13.9953H13.9791H13.963H13.9469H13.931H13.9151H13.8992H13.8835H13.8678H13.8522H13.8367H13.8212H13.8058H13.7905H13.7752H13.7601H13.745H13.73H13.7151H13.7002H13.6854H13.6707H13.6561H13.6416H13.6272H13.6128H13.5985H13.5843H13.5702H13.5562H13.5422H13.5283H13.5146H13.5009H13.4873H13.4738H13.4604H13.447H13.4338H13.4206H13.4076H13.3946H13.3817H13.3689H13.3562H13.3436H13.3311H13.3187H13.3064H13.2942H13.2821H13.2701H13.2582H13.2463H13.2346H13.223H13.2115H13.2001H13.1887H13.1775H13.1664H13.1554H13.1445H13.1337H13.123H13.1124H13.1019H13.0916H13.0813H13.0712H13.0611H13.0512H13.0413H13.0316H13.022H13.0125H13.0032H12.9939H12.9847H12.9757H12.9668H12.958H12.9493H12.9407H12.9322H12.9239H12.9157H12.9076H12.8996H12.8917H12.884H12.8764H12.8689H12.8615H12.8543H12.8471H12.8401H12.8333H12.8265H12.8199H12.8134H12.807H12.8008H12.7947H12.7887H12.7829H12.7771H12.7715H12.7661H12.7608H12.7556H12.7505H12.7456H12.7408H12.7361H12.7316H12.7272H12.723H12.7189H12.7149H12.7111H12.7074H12.7039H12.7004H12.6972H12.6941H12.6911H12.6882H12.6855H12.683H12.6806H12.6783H12.6762H12.6742H12.6724H12.6707H12.6692H12.6678H12.6666H12.6655Z" fill="#233043"/>
</svg>
