<svg width="32" height="32" viewBox="0 0 32 32" fill="none" xmlns="http://www.w3.org/2000/svg">
<path fill-rule="evenodd" clip-rule="evenodd" d="M16 26.6666C21.891 26.6666 26.6666 21.891 26.6666 16C26.6666 10.1089 21.891 5.3333 16 5.3333C10.1089 5.3333 5.33331 10.1089 5.33331 16C5.33331 21.891 10.1089 26.6666 16 26.6666ZM16 11.9983L16.9203 11.9983L16.9162 12.0024L16.9113 12.0073L16.9064 12.0122L16.9015 12.0171L16.8966 12.022L16.8917 12.0269L16.8868 12.0318L16.8819 12.0367L16.877 12.0416L16.8721 12.0465L16.8672 12.0514L16.8622 12.0563L16.8573 12.0612L16.8524 12.0661L16.8475 12.0711L16.8426 12.076L16.8376 12.0809L16.8327 12.0859L16.8278 12.0908L16.8228 12.0957L16.8179 12.1007L16.8129 12.1056L16.808 12.1106L16.803 12.1155L16.798 12.1205L16.7931 12.1255L16.7881 12.1304L16.7831 12.1354L16.7781 12.1404L16.7732 12.1454L16.7682 12.1504L16.7632 12.1554L16.7582 12.1604L16.7531 12.1654L16.7481 12.1704L16.7431 12.1755L16.7381 12.1805L16.733 12.1855L16.728 12.1906L16.7229 12.1956L16.7179 12.2007L16.7128 12.2057L16.7077 12.2108L16.7026 12.2159L16.6976 12.221L16.6925 12.2261L16.6873 12.2312L16.6822 12.2363L16.6771 12.2414L16.672 12.2466L16.6668 12.2517L16.6617 12.2569L16.6565 12.262L16.6514 12.2672L16.6462 12.2724L16.641 12.2775L16.6358 12.2827L16.6306 12.2879L16.6254 12.2932L16.6202 12.2984L16.6149 12.3036L16.6097 12.3089L16.6044 12.3141L16.5992 12.3194L16.5939 12.3247L16.5886 12.3299L16.5833 12.3352L16.578 12.3405L16.5727 12.3459L16.5674 12.3512L16.562 12.3565L16.5567 12.3619L16.5513 12.3673L16.5459 12.3726L16.5405 12.378L16.5351 12.3834L16.5297 12.3889L16.5243 12.3943L16.5188 12.3997L16.5134 12.4052L16.5079 12.4107L16.5024 12.4161L16.4969 12.4216L16.4914 12.4271L16.4859 12.4327L16.4804 12.4382L16.4748 12.4437L16.4692 12.4493L16.4637 12.4549L16.4581 12.4605L16.4525 12.4661L16.4468 12.4717L16.4412 12.4773L16.4355 12.483L16.4299 12.4887L16.4242 12.4944L16.4185 12.5001L16.4128 12.5058L16.4071 12.5115L16.4013 12.5172L16.3955 12.523L16.3898 12.5288L16.384 12.5346L16.3782 12.5404L16.3723 12.5462L16.3665 12.5521L16.3606 12.5579L16.3548 12.5638L16.3489 12.5697L16.3429 12.5756L16.337 12.5815L16.3311 12.5875L16.3251 12.5935L16.3191 12.5994L16.3131 12.6054L16.3071 12.6115L16.301 12.6175L16.295 12.6236L16.2889 12.6296L16.2828 12.6357L16.2767 12.6419L16.2706 12.648L16.2644 12.6541L16.2582 12.6603L16.252 12.6665L16.2458 12.6727L16.2396 12.679L16.2333 12.6852L16.2271 12.6915L16.2208 12.6978L16.2145 12.7041L16.2081 12.7104L16.2018 12.7168L16.1954 12.7232L16.189 12.7295L16.1826 12.736L16.1761 12.7424L16.1697 12.7489L16.1632 12.7554L16.1567 12.7619L16.1502 12.7684L16.1436 12.7749L16.137 12.7815L16.1304 12.7881L16.1238 12.7947L16.1172 12.8014L16.1105 12.808L16.1038 12.8147L16.0971 12.8214L16.0904 12.8282L16.0836 12.8349L16.0769 12.8417L16.07 12.8485L16.0632 12.8553L16.0564 12.8622L16.0495 12.8691L16.0426 12.876L16.0357 12.8829L16.0287 12.8898L16.0217 12.8968L16.0147 12.9038L16.0077 12.9108L16.0007 12.9179L15.9936 12.925L15.9865 12.9321L15.9794 12.9392L15.9722 12.9464L15.965 12.9535L15.9578 12.9607L15.9506 12.968L15.9433 12.9752L15.936 12.9825L15.9287 12.9898L15.9214 12.9972L15.914 13.0045L15.9066 13.0119L15.8992 13.0194L15.8918 13.0268L15.8843 13.0343L15.8768 13.0418L15.8692 13.0493L15.8617 13.0569L15.8541 13.0645L15.8465 13.0721L15.8388 13.0797L15.8311 13.0874L15.8234 13.0951L15.8157 13.1028L15.8079 13.1106L15.8002 13.1184L15.7923 13.1262L15.7845 13.1341L15.7766 13.1419L15.7687 13.1499L15.7608 13.1578L15.7528 13.1658L15.7448 13.1738L15.7367 13.1818L15.7287 13.1899L15.7206 13.198L15.7125 13.2061L15.7043 13.2142L15.6961 13.2224L15.6879 13.2306L15.6797 13.2389L15.6714 13.2472L15.6631 13.2555L15.6547 13.2638L15.6463 13.2722L15.6379 13.2806L15.6295 13.2891L15.621 13.2975L15.6125 13.3061L15.604 13.3146L15.5954 13.3232L15.5868 13.3318L15.5781 13.3404L15.5695 13.3491L15.5608 13.3578L15.552 13.3665L15.5432 13.3753L15.5344 13.3841L15.5256 13.393L15.5167 13.4018L15.5078 13.4108L15.4988 13.4197L15.4899 13.4287L15.4808 13.4377L15.4718 13.4468L15.4627 13.4559L15.4536 13.465L15.4444 13.4741L15.4352 13.4833L15.426 13.4926L15.4167 13.5018L15.4074 13.5111L15.3981 13.5205L15.3887 13.5299L15.3793 13.5393L15.3698 13.5487L15.3603 13.5582L15.3508 13.5677L15.3413 13.5773L15.3317 13.5869L15.322 13.5965L15.3124 13.6062L15.3026 13.6159L15.2929 13.6257C15.0069 13.9117 14.9213 14.3418 15.0761 14.7154C15.2301 15.0872 15.5918 15.3303 15.9938 15.3327L16.0041 15.333C16.0168 15.3334 16.0399 15.3344 16.072 15.3367C16.1366 15.3413 16.2354 15.3511 16.3566 15.3713C16.6037 15.4124 16.9179 15.493 17.22 15.644C17.5182 15.7931 17.786 16.001 17.9814 16.2942C18.1727 16.5811 18.3345 17.0086 18.3345 17.6672C18.3345 18.3393 18.1794 18.7739 17.998 19.0615C17.8148 19.352 17.5662 19.5534 17.2892 19.6965C16.7046 19.9986 16.0731 20.0017 16 20.0017C14.6241 20.0017 14.1231 19.5096 13.9144 19.1966C13.7906 19.0109 13.7263 18.8207 13.6938 18.6747C13.6779 18.603 13.6707 18.5465 13.6675 18.5135C13.6662 18.4992 13.6656 18.4897 13.6654 18.4858C13.6574 17.9405 13.2128 17.5009 12.6655 17.5009C12.1132 17.5009 11.6655 17.9486 11.6655 18.5009H12.6655C11.6655 18.5009 11.6655 18.5015 11.6655 18.5022L11.6655 18.5036L11.6655 18.5066L11.6656 18.5133L11.6659 18.5295C11.6661 18.5417 11.6666 18.5563 11.6673 18.5733C11.6688 18.6074 11.6716 18.6511 11.6765 18.7031C11.6864 18.8069 11.7053 18.9458 11.7414 19.1085C11.8132 19.4314 11.9573 19.8665 12.2503 20.306C12.8752 21.2434 14.0415 22.0017 16 22.0017H16.0025C16.1545 22.0017 17.1845 22.0019 18.2073 21.4733C18.7369 21.1996 19.2814 20.7757 19.6897 20.1284C20.0997 19.4782 20.3345 18.6624 20.3345 17.6672C20.3345 16.6586 20.0794 15.8357 19.6455 15.1848C19.2157 14.5401 18.6499 14.1229 18.1144 13.8551C18.0641 13.83 18.0138 13.806 17.9637 13.7832L17.9655 13.7815L17.9709 13.7761L17.9762 13.7708L17.9816 13.7654L17.9869 13.7601L17.9922 13.7548L17.9975 13.7495L18.0028 13.7442L18.0081 13.7389L18.0134 13.7336L18.0187 13.7283L18.0239 13.7231L18.0292 13.7178L18.0344 13.7126L18.0396 13.7074L18.0448 13.7022L18.05 13.6969L18.0552 13.6918L18.0604 13.6866L18.0656 13.6814L18.0708 13.6762L18.0759 13.6711L18.0811 13.6659L18.0862 13.6608L18.0913 13.6557L18.0964 13.6505L18.1016 13.6454L18.1067 13.6403L18.1118 13.6352L18.1169 13.6301L18.1219 13.625L18.127 13.62L18.1321 13.6149L18.1371 13.6098L18.1422 13.6048L18.1472 13.5997L18.1523 13.5947L18.1573 13.5897L18.1623 13.5846L18.1674 13.5796L18.1724 13.5746L18.1774 13.5696L18.1824 13.5646L18.1874 13.5596L18.1924 13.5546L18.1973 13.5496L18.2023 13.5447L18.2073 13.5397L18.2123 13.5347L18.2172 13.5298L18.2222 13.5248L18.2271 13.5198L18.2321 13.5149L18.237 13.5099L18.242 13.505L18.2469 13.5001L18.2518 13.4951L18.2568 13.4902L18.2617 13.4853L18.2666 13.4804L18.2715 13.4754L18.2765 13.4705L18.2814 13.4656L18.2863 13.4607L18.2912 13.4558L18.2961 13.4509L18.301 13.446L18.3059 13.4411L18.3108 13.4362L18.3157 13.4313L18.3206 13.4264L18.3255 13.4215L18.3304 13.4166L18.3353 13.4117L18.3401 13.4068L18.345 13.4019L18.3499 13.3971L18.3548 13.3922L18.3597 13.3873L18.3646 13.3824L18.3695 13.3775L18.3743 13.3726L18.3792 13.3677L18.3841 13.3629L18.389 13.358L18.3939 13.3531L18.3988 13.3482L18.4037 13.3433L18.4085 13.3384L18.4134 13.3335L18.4183 13.3287L18.4232 13.3238L18.4281 13.3189L18.433 13.314L18.4379 13.3091L18.4428 13.3042L18.4477 13.2993L18.4526 13.2944L18.4575 13.2895L18.4624 13.2846L18.4673 13.2797L18.4722 13.2747L18.4771 13.2698L18.4821 13.2649L18.487 13.26L18.4919 13.2551L18.4968 13.2501L18.5018 13.2452L18.5067 13.2403L18.5117 13.2353L18.5166 13.2304L18.5215 13.2254L18.5265 13.2205L18.5315 13.2155L18.5364 13.2106L18.5414 13.2056L18.5464 13.2006L18.5513 13.1956L18.5563 13.1906L18.5613 13.1857L18.5663 13.1807L18.5713 13.1757L18.5763 13.1707L18.5813 13.1656L18.5864 13.1606L18.5914 13.1556L18.5964 13.1506L18.6014 13.1455L18.6065 13.1405L18.6115 13.1354L18.6166 13.1304L18.6217 13.1253L18.6267 13.1202L18.6318 13.1151L18.6369 13.1101L18.642 13.105L18.6471 13.0999L18.6522 13.0947L18.6574 13.0896L18.6625 13.0845L18.6676 13.0793L18.6728 13.0742L18.6779 13.069L18.6831 13.0639L18.6883 13.0587L18.6935 13.0535L18.6987 13.0483L18.7039 13.0431L18.7091 13.0379L18.7143 13.0327L18.7195 13.0274L18.7248 13.0222L18.73 13.0169L18.7353 13.0117L18.7406 13.0064L18.7459 13.0011L18.7512 12.9958L18.7565 12.9905L18.7618 12.9852L18.7671 12.9799L18.7725 12.9745L18.7778 12.9692L18.7832 12.9638L18.7886 12.9584L18.794 12.953L18.7994 12.9476L18.8048 12.9422L18.8102 12.9368L18.8157 12.9313L18.8211 12.9259L18.8266 12.9204L18.8321 12.9149L18.8376 12.9094L18.8431 12.9039L18.8486 12.8984L18.8541 12.8929L18.8597 12.8873L18.8652 12.8817L18.8708 12.8762L18.8764 12.8706L18.882 12.865L18.8876 12.8593L18.8933 12.8537L18.8989 12.8481L18.9046 12.8424L18.9103 12.8367L18.916 12.831L18.9217 12.8253L18.9274 12.8196L18.9332 12.8138L18.9389 12.8081L18.9447 12.8023L18.9505 12.7965L18.9563 12.7907L18.9621 12.7848L18.968 12.779L18.9738 12.7731L18.9797 12.7673L18.9856 12.7614L18.9915 12.7554L18.9975 12.7495L19.0034 12.7436L19.0094 12.7376L19.0154 12.7316L19.0214 12.7256L19.0274 12.7196L19.0334 12.7136L19.0395 12.7075L19.0456 12.7014L19.0517 12.6953L19.0578 12.6892L19.0639 12.6831L19.0701 12.6769L19.0762 12.6707L19.0824 12.6645L19.0886 12.6583L19.0949 12.6521L19.1011 12.6459L19.1074 12.6396L19.1137 12.6333L19.12 12.627L19.1263 12.6206L19.1327 12.6143L19.1391 12.6079L19.1455 12.6015L19.1519 12.5951L19.1583 12.5886L19.1648 12.5822L19.1713 12.5757L19.1778 12.5692L19.1843 12.5627L19.1909 12.5561L19.1974 12.5495L19.204 12.5429L19.2106 12.5363L19.2173 12.5297L19.224 12.523L19.2306 12.5163L19.2373 12.5096L19.2441 12.5029L19.2508 12.4961L19.2576 12.4894L19.2644 12.4826L19.2713 12.4757L19.2781 12.4689L19.285 12.462L19.2919 12.4551L19.2988 12.4482L19.3058 12.4412L19.3127 12.4342L19.3197 12.4272L19.3268 12.4202L19.3338 12.4132L19.3409 12.4061L19.348 12.399L19.3551 12.3919L19.3623 12.3847L19.3695 12.3775L19.3767 12.3703L19.3839 12.3631L19.3912 12.3558L19.3984 12.3485L19.4058 12.3412L19.4131 12.3339L19.4205 12.3265L19.4279 12.3191L19.4353 12.3117L19.4427 12.3043L19.4502 12.2968L19.4577 12.2893L19.4652 12.2817L19.4728 12.2742L19.4804 12.2666L19.488 12.259L19.4957 12.2513L19.5033 12.2437L19.511 12.2359L19.5188 12.2282L19.5265 12.2205L19.5343 12.2127L19.5421 12.2048L19.55 12.197L19.5579 12.1891L19.5658 12.1812L19.5737 12.1733L19.5817 12.1653L19.5897 12.1573L19.5977 12.1493L19.6058 12.1412L19.6139 12.1331L19.622 12.125L19.6302 12.1168L19.6383 12.1086L19.6466 12.1004L19.6548 12.0922L19.6631 12.0839L19.6714 12.0756L19.6798 12.0672L19.6881 12.0588L19.6965 12.0504L19.705 12.042L19.7135 12.0335L19.722 12.025L19.7305 12.0165L19.7391 12.0079L19.7477 11.9993L19.7563 11.9906L19.765 11.982L19.7737 11.9733L19.7825 11.9645L19.7912 11.9557L19.8 11.9469L19.8089 11.9381L19.8178 11.9292L19.8267 11.9203L19.8356 11.9113L19.8446 11.9024L19.8536 11.8933L19.8627 11.8843L19.8718 11.8752L19.8809 11.8661L19.8901 11.8569L19.8993 11.8477L19.9085 11.8385L19.9178 11.8292L19.9271 11.8199L19.9364 11.8106L19.9458 11.8012L19.9552 11.7918L19.9646 11.7823L19.9741 11.7729L19.9836 11.7633L19.9932 11.7538L20.0028 11.7442L20.0124 11.7345L20.0221 11.7249L20.0318 11.7151L20.0416 11.7054C20.3276 11.4194 20.4131 10.9893 20.2584 10.6156C20.1036 10.2419 19.7389 9.99829 19.3345 9.99829H19.3344H19.3343H19.334H19.3325H19.3263H19.3006L19.1886 9.99829L18.6676 9.99829L16 9.99829L12.6655 9.99829C12.1132 9.99829 11.6655 10.446 11.6655 10.9983C11.6655 11.5506 12.1132 11.9983 12.6655 11.9983L16 11.9983Z" fill="#233043"/>
</svg>
