<svg width="32" height="32" viewBox="0 0 32 32" fill="none" xmlns="http://www.w3.org/2000/svg">
<path fill-rule="evenodd" clip-rule="evenodd" d="M7.66676 24.3333V7.66659H24.3334V17.6666H19.3334C18.413 17.6666 17.6668 18.4128 17.6668 19.3333V24.3333H7.66676ZM19.6668 22.919L22.9192 19.6666H19.6668V22.919ZM5.66676 24.6666C5.66676 25.5871 6.41296 26.3333 7.33343 26.3333H18.6668C18.932 26.3333 19.1863 26.2279 19.3739 26.0404L26.0405 19.3737C26.2281 19.1862 26.3334 18.9318 26.3334 18.6666V7.33326C26.3334 6.41278 25.5872 5.66659 24.6668 5.66659H7.33343C6.41295 5.66659 5.66676 6.41278 5.66676 7.33325V24.6666Z" fill="#233043"/>
</svg>
