<svg width="32" height="32" viewBox="0 0 32 32" fill="none" xmlns="http://www.w3.org/2000/svg">
<path fill-rule="evenodd" clip-rule="evenodd" d="M16.156 7.66669C13.5181 7.66669 11.6665 9.45442 11.6665 11.3334C11.6665 13.2026 13.4992 14.9817 16.1155 14.9999H25.3333C25.8856 14.9999 26.3333 15.4476 26.3333 15.9999C26.3333 16.5522 25.8856 16.9999 25.3333 16.9999H20.7988C21.7463 17.9684 22.3334 19.2327 22.3334 20.6666C22.3334 23.9424 19.2695 26.3333 15.8439 26.3333C14.28 26.3333 12.8113 25.8456 11.6668 25.0073V25.3333C11.6668 25.8856 11.219 26.3333 10.6668 26.3333C10.1145 26.3333 9.66676 25.8856 9.66676 25.3333L9.66675 22.2222C9.66675 21.7454 10.0034 21.3349 10.471 21.2415C10.9386 21.1482 11.4071 21.398 11.5901 21.8383C12.165 23.2211 13.7925 24.3333 15.8439 24.3333C18.4818 24.3333 20.3334 22.5456 20.3334 20.6666C20.3334 18.7877 18.4818 17 15.8439 17C15.8391 17 15.8342 16.9999 15.8294 16.9999H6.66667C6.11439 16.9999 5.66667 16.5522 5.66667 15.9999C5.66667 15.4476 6.11439 14.9999 6.66667 14.9999H11.2009C10.2535 14.0314 9.66653 12.7671 9.66653 11.3334C9.66653 8.05763 12.7304 5.66669 16.156 5.66669C17.7199 5.66669 19.1887 6.15435 20.3332 6.99274V6.66669C20.3332 6.1144 20.7809 5.66669 21.3332 5.66669C21.8855 5.66669 22.3332 6.1144 22.3332 6.66669V9.7778C22.3332 10.2546 21.9965 10.6651 21.5289 10.7585C21.0613 10.8518 20.5929 10.602 20.4098 10.1617C19.8349 8.77893 18.2074 7.66669 16.156 7.66669Z" fill="#233043"/>
</svg>
