<svg width="32" height="32" viewBox="0 0 32 32" fill="none" xmlns="http://www.w3.org/2000/svg">
<path fill-rule="evenodd" clip-rule="evenodd" d="M16 26.6667C21.8911 26.6667 26.6667 21.891 26.6667 16C26.6667 10.109 21.8911 5.33334 16 5.33334C10.109 5.33334 5.33337 10.109 5.33337 16C5.33337 21.891 10.109 26.6667 16 26.6667ZM22.0734 13.3393C22.4449 12.9307 22.4147 12.2982 22.0061 11.9267C21.5974 11.5552 20.965 11.5853 20.5935 11.994L14.6323 18.5513L11.3739 15.2929C10.9833 14.9024 10.3502 14.9024 9.95964 15.2929C9.56912 15.6834 9.56912 16.3166 9.95964 16.7071L13.4653 20.2127C14.1381 20.8856 15.2369 20.8594 15.877 20.1553L22.0734 13.3393Z" fill="#233043"/>
</svg>
