<svg width="32" height="32" viewBox="0 0 32 32" fill="none" xmlns="http://www.w3.org/2000/svg">
<path d="M18.6667 20.6198L18.166 19.7542C17.857 19.933 17.6667 20.2629 17.6667 20.6198H18.6667ZM13.3334 20.6199H14.3334C14.3334 20.2629 14.1431 19.933 13.8341 19.7542L13.3334 20.6199ZM13.3334 22.6667H12.3334C12.3334 23.219 12.7811 23.6667 13.3334 23.6667V22.6667ZM18.6667 22.6667V23.6667C19.219 23.6667 19.6667 23.219 19.6667 22.6667H18.6667ZM20.3334 16C20.3334 17.6027 19.4638 19.0035 18.166 19.7542L19.1674 21.4855C21.0579 20.3919 22.3334 18.3455 22.3334 16H20.3334ZM16 11.6667C18.3933 11.6667 20.3334 13.6068 20.3334 16H22.3334C22.3334 12.5022 19.4978 9.66669 16 9.66669V11.6667ZM11.6667 16C11.6667 13.6068 13.6068 11.6667 16 11.6667V9.66669C12.5022 9.66669 9.6667 12.5022 9.6667 16H11.6667ZM13.8341 19.7542C12.5363 19.0035 11.6667 17.6027 11.6667 16H9.6667C9.6667 18.3455 10.9422 20.3919 12.8326 21.4855L13.8341 19.7542ZM14.3334 22.6667V20.6199H12.3334V22.6667H14.3334ZM18.6667 21.6667H13.3334V23.6667H18.6667V21.6667ZM17.6667 20.6198V22.6667H19.6667V20.6198H17.6667Z" fill="#233043"/>
<path d="M13.3334 26.6667H18.6668" stroke="#233043" stroke-width="2" stroke-linecap="round" stroke-linejoin="round"/>
<path d="M16 6.66669V4.66669" stroke="#233043" stroke-width="2" stroke-linecap="round" stroke-linejoin="round"/>
<path d="M4.6667 16H6.6667" stroke="#233043" stroke-width="2" stroke-linecap="round" stroke-linejoin="round"/>
<path d="M25.3333 16H27.3333" stroke="#233043" stroke-width="2" stroke-linecap="round" stroke-linejoin="round"/>
<path d="M8.7475 9.41421L7.33328 8" stroke="#233043" stroke-width="2" stroke-linecap="round" stroke-linejoin="round"/>
<path d="M23.2524 9.41421L24.6666 8" stroke="#233043" stroke-width="2" stroke-linecap="round" stroke-linejoin="round"/>
</svg>
