<svg width="32" height="32" viewBox="0 0 32 32" fill="none" xmlns="http://www.w3.org/2000/svg">
<path d="M15.2479 25.3333V24.3333L15.2439 24.3333L15.2479 25.3333ZM25.8989 24.1684L25.2345 24.9158H25.2345L25.8989 24.1684ZM22.8079 21.4209L21.9944 20.8394C21.6971 21.2554 21.7614 21.8286 22.1436 22.1683L22.8079 21.4209ZM6.87595 16.0001C6.87595 11.3977 10.6069 7.66675 15.2093 7.66675V5.66675C9.50234 5.66675 4.87595 10.2931 4.87595 16.0001H6.87595ZM15.2093 24.3334C10.6069 24.3334 6.87595 20.6025 6.87595 16.0001H4.87595C4.87595 21.707 9.50234 26.3334 15.2093 26.3334V24.3334ZM15.2439 24.3333C15.2323 24.3334 15.2208 24.3334 15.2093 24.3334V26.3334C15.2235 26.3334 15.2377 26.3334 15.2519 26.3333L15.2439 24.3333ZM25.456 24.3333H15.2479V26.3333H25.456V24.3333ZM25.2345 24.9158C25.0055 24.7122 25.1495 24.3333 25.456 24.3333V26.3333C26.9885 26.3333 27.7087 24.4391 26.5633 23.421L25.2345 24.9158ZM22.1436 22.1683L25.2345 24.9158L26.5633 23.421L23.4723 20.6735L22.1436 22.1683ZM23.5426 16.0001C23.5426 17.8062 22.9692 19.4754 21.9944 20.8394L23.6215 22.0023C24.8308 20.3102 25.5426 18.2368 25.5426 16.0001H23.5426ZM15.2093 7.66675C19.8116 7.66675 23.5426 11.3977 23.5426 16.0001H25.5426C25.5426 10.2931 20.9162 5.66675 15.2093 5.66675V7.66675Z" fill="#233043"/>
</svg>
