<svg width="32" height="32" viewBox="0 0 32 32" fill="none" xmlns="http://www.w3.org/2000/svg">
<circle cx="11.1816" cy="10.9354" r="4.22029" fill="#233043"/>
<path d="M4.42915 23.2327C4.42915 19.5035 7.45234 16.4803 11.1816 16.4803C14.9109 16.4803 17.9341 19.5035 17.9341 23.2327V24.7843C17.9341 25.0605 17.7102 25.2843 17.4341 25.2843H4.92915C4.65301 25.2843 4.42915 25.0605 4.42915 24.7843V23.2327Z" fill="#233043"/>
<path d="M15.7141 23.6043C15.7141 20.5504 18.1898 18.0748 21.2436 18.0748C24.2975 18.0748 26.7731 20.5504 26.7731 23.6043V24.8602C26.7731 25.0944 26.5832 25.2843 26.349 25.2843H16.1382C15.904 25.2843 15.7141 25.0944 15.7141 24.8602V23.6043Z" fill="#233043"/>
<ellipse cx="21.2435" cy="13.363" rx="3.11745" ry="3.11745" fill="#233043"/>
</svg>
