<svg width="32" height="33" viewBox="0 0 32 33" fill="none" xmlns="http://www.w3.org/2000/svg">
<circle cx="11.1817" cy="10.9395" r="4.22029" fill="#233043"/>
<path d="M4.4292 23.2368C4.4292 19.5076 7.45238 16.4844 11.1817 16.4844C14.911 16.4844 17.9341 19.5076 17.9341 23.2368V24.7884C17.9341 25.0646 17.7103 25.2884 17.4341 25.2884H4.9292C4.65306 25.2884 4.4292 25.0646 4.4292 24.7884V23.2368Z" fill="#233043"/>
<path d="M15.7141 23.6086C15.7141 20.5547 18.1898 18.0791 21.2436 18.0791C24.2975 18.0791 26.7731 20.5547 26.7731 23.6086V24.8645C26.7731 25.0987 26.5832 25.2886 26.349 25.2886H16.1382C15.904 25.2886 15.7141 25.0987 15.7141 24.8645V23.6086Z" fill="#233043"/>
<ellipse cx="21.2434" cy="13.367" rx="3.11745" ry="3.11745" fill="#233043"/>
</svg>
