<svg width="32" height="32" viewBox="0 0 32 32" fill="none" xmlns="http://www.w3.org/2000/svg">
<path d="M10.7528 14.9332L15.2643 6.52363C15.8868 5.3632 17.6359 5.71175 17.766 7.02218L18.2802 12.1991C18.314 12.5401 18.6009 12.7999 18.9436 12.7999H24.4745C24.7887 12.7964 25.1 12.8602 25.3866 12.9868C25.6733 13.1134 25.9286 13.2999 26.1348 13.5332C26.341 13.7666 26.4932 14.0413 26.5808 14.3383C26.6684 14.6353 26.6894 14.9475 26.6422 15.2532L25.1465 24.8532C25.0681 25.3619 24.8055 25.8255 24.4072 26.1588C24.0088 26.492 23.5015 26.6723 22.9788 26.6665H10.7528M10.7528 14.9332V26.6665M10.7528 14.9332H7.50117C6.92625 14.9332 6.37488 15.158 5.96835 15.5581C5.56182 15.9581 5.33344 16.5008 5.33344 17.0665V24.5332C5.33344 25.099 5.56182 25.6416 5.96835 26.0416C6.37488 26.4417 6.92625 26.6665 7.50117 26.6665H10.7528" stroke="#233043" stroke-width="2" stroke-linecap="round" stroke-linejoin="round"/>
</svg>
