<svg width="32" height="33" viewBox="0 0 32 33" fill="none" xmlns="http://www.w3.org/2000/svg">
<path d="M10.7528 14.937L15.2643 6.52742C15.8869 5.36698 17.6359 5.71553 17.7661 7.02596L18.2802 12.2029C18.3141 12.5439 18.6009 12.8037 18.9436 12.8037H24.4746C24.7888 12.8002 25.1 12.864 25.3867 12.9906C25.6734 13.1172 25.9287 13.3037 26.1349 13.537C26.3411 13.7704 26.4933 14.0451 26.5809 14.3421C26.6685 14.6391 26.6894 14.9513 26.6423 15.257L25.1465 24.8569C25.0682 25.3656 24.8056 25.8293 24.4072 26.1625C24.0089 26.4958 23.5016 26.6761 22.9788 26.6703H10.7528M10.7528 14.937V26.6703M10.7528 14.937H7.50123C6.92631 14.937 6.37494 15.1618 5.96841 15.5618C5.56188 15.9619 5.3335 16.5045 5.3335 17.0703V24.5369C5.3335 25.1027 5.56188 25.6454 5.96841 26.0454C6.37494 26.4455 6.92631 26.6703 7.50123 26.6703H10.7528" stroke="#233043" stroke-width="2" stroke-linecap="round" stroke-linejoin="round"/>
</svg>
