<svg width="32" height="32" viewBox="0 0 32 32" fill="none" xmlns="http://www.w3.org/2000/svg">
<path d="M10.7526 17.0668L15.2641 25.4764C15.8866 26.6368 17.6357 26.2883 17.7658 24.9778L18.28 19.8009C18.3138 19.4599 18.6007 19.2001 18.9434 19.2001H24.4743C24.7885 19.2036 25.0998 19.1398 25.3864 19.0132C25.6731 18.8866 25.9284 18.7001 26.1346 18.4668C26.3408 18.2334 26.493 17.9587 26.5806 17.6617C26.6682 17.3647 26.6892 17.0525 26.642 16.7468L25.1463 7.14684C25.0679 6.63814 24.8053 6.17446 24.407 5.84124C24.0086 5.50802 23.5013 5.3277 22.9786 5.33352H10.7526M10.7526 17.0668V5.33352M10.7526 17.0668H7.50097C6.92605 17.0668 6.37468 16.842 5.96815 16.4419C5.56162 16.0419 5.33324 15.4992 5.33324 14.9335V7.46684C5.33324 6.90105 5.56162 6.35843 5.96815 5.95835C6.37468 5.55828 6.92605 5.33352 7.50097 5.33352H10.7526" stroke="#233043" stroke-width="2" stroke-linecap="round" stroke-linejoin="round"/>
</svg>
