<svg width="32" height="33" viewBox="0 0 32 33" fill="none" xmlns="http://www.w3.org/2000/svg">
<path d="M10.7526 17.0708L15.2641 25.4804C15.8866 26.6408 17.6357 26.2923 17.7658 24.9818L18.28 19.8049C18.3138 19.4639 18.6007 19.2041 18.9434 19.2041H24.4743C24.7885 19.2076 25.0998 19.1439 25.3865 19.0172C25.6731 18.8906 25.9284 18.7041 26.1346 18.4708C26.3408 18.2374 26.493 17.9627 26.5806 17.6657C26.6682 17.3687 26.6892 17.0566 26.642 16.7508L25.1463 7.15087C25.0679 6.64217 24.8054 6.17849 24.407 5.84527C24.0087 5.51205 23.5014 5.33173 22.9786 5.33755H10.7526M10.7526 17.0708V5.33755M10.7526 17.0708H7.50098C6.92606 17.0708 6.37469 16.846 5.96817 16.446C5.56164 16.0459 5.33325 15.5033 5.33325 14.9375V7.47087C5.33325 6.90508 5.56164 6.36246 5.96817 5.96238C6.37469 5.56231 6.92606 5.33755 7.50098 5.33755H10.7526" stroke="#233043" stroke-width="2" stroke-linecap="round" stroke-linejoin="round"/>
</svg>
