<svg width="32" height="32" viewBox="0 0 32 32" fill="none" xmlns="http://www.w3.org/2000/svg">
<path fill-rule="evenodd" clip-rule="evenodd" d="M12.3333 6.33332C12.3333 4.30828 13.975 2.66666 16 2.66666C18.0251 2.66666 19.6667 4.30828 19.6667 6.33332C19.6667 8.01169 18.539 9.42668 17 9.86197V15H23C25.0251 15 26.6667 16.6416 26.6667 18.6667V22.138C28.2057 22.5733 29.3333 23.9883 29.3333 25.6667C29.3333 27.6917 27.6917 29.3333 25.6667 29.3333C23.6416 29.3333 22 27.6917 22 25.6667C22 23.9883 23.1277 22.5733 24.6667 22.138V18.6667C24.6667 17.7462 23.9205 17 23 17H17V22.138C18.539 22.5733 19.6667 23.9883 19.6667 25.6667C19.6667 27.6917 18.0251 29.3333 16 29.3333C13.975 29.3333 12.3333 27.6917 12.3333 25.6667C12.3333 23.9883 13.461 22.5733 15 22.138V17H9.00001C8.07953 17 7.33334 17.7462 7.33334 18.6667V22.138C8.87234 22.5733 10 23.9883 10 25.6667C10 27.6917 8.35838 29.3333 6.33334 29.3333C4.30829 29.3333 2.66667 27.6917 2.66667 25.6667C2.66667 23.9883 3.79434 22.5733 5.33334 22.138V18.6667C5.33334 16.6416 6.97496 15 9.00001 15H15V9.86197C13.461 9.42668 12.3333 8.01169 12.3333 6.33332ZM16 7.99999C15.0795 7.99999 14.3333 7.2538 14.3333 6.33332C14.3333 5.41285 15.0795 4.66666 16 4.66666C16.9205 4.66666 17.6667 5.41285 17.6667 6.33332C17.6667 7.2538 16.9205 7.99999 16 7.99999ZM6.33334 27.3333C5.41286 27.3333 4.66667 26.5871 4.66667 25.6667C4.66667 24.7462 5.41286 24 6.33334 24C7.25381 24 8.00001 24.7462 8.00001 25.6667C8.00001 26.5871 7.25381 27.3333 6.33334 27.3333ZM16 27.3333C15.0795 27.3333 14.3333 26.5871 14.3333 25.6667C14.3333 24.7462 15.0795 24 16 24C16.9205 24 17.6667 24.7462 17.6667 25.6667C17.6667 26.5871 16.9205 27.3333 16 27.3333ZM24 25.6667C24 26.5871 24.7462 27.3333 25.6667 27.3333C26.5871 27.3333 27.3333 26.5871 27.3333 25.6667C27.3333 24.7462 26.5871 24 25.6667 24C24.7462 24 24 24.7462 24 25.6667Z" fill="#233043"/>
</svg>
