<svg width="32" height="32" viewBox="0 0 32 32" fill="none" xmlns="http://www.w3.org/2000/svg">
<path fill-rule="evenodd" clip-rule="evenodd" d="M9.66658 16V7.66669H8.66672C8.11443 7.66669 7.66672 7.21897 7.66672 6.66669C7.66672 6.1144 8.11443 5.66669 8.66672 5.66669H10.6666H12.6667C13.219 5.66669 13.6667 6.1144 13.6667 6.66669C13.6667 7.21897 13.219 7.66669 12.6667 7.66669H11.6666V16C11.6666 18.3933 13.6067 20.3334 15.9999 20.3334C18.3931 20.3334 20.3332 18.3932 20.3332 16V7.66669H19.3333C18.781 7.66669 18.3333 7.21897 18.3333 6.66669C18.3333 6.1144 18.781 5.66669 19.3333 5.66669H21.3332H23.3333C23.8856 5.66669 24.3333 6.1144 24.3333 6.66669C24.3333 7.21897 23.8856 7.66669 23.3333 7.66669H22.3332V16C22.3332 19.4978 19.4977 22.3334 15.9999 22.3334C12.5021 22.3334 9.66658 19.4978 9.66658 16ZM6.66658 24.3333C6.1143 24.3333 5.66658 24.781 5.66658 25.3333C5.66658 25.8856 6.1143 26.3333 6.66658 26.3333H25.3332C25.8855 26.3333 26.3332 25.8856 26.3332 25.3333C26.3332 24.781 25.8855 24.3333 25.3332 24.3333H6.66658Z" fill="#233043"/>
</svg>
