<svg width="32" height="32" viewBox="0 0 32 32" fill="none" xmlns="http://www.w3.org/2000/svg">
<path fill-rule="evenodd" clip-rule="evenodd" d="M6.99999 9.66658C7.92046 9.66658 8.66665 8.92039 8.66665 7.99992C8.66665 7.07944 7.92046 6.33325 6.99999 6.33325C6.07951 6.33325 5.33332 7.07944 5.33332 7.99992C5.33332 8.92039 6.07951 9.66658 6.99999 9.66658ZM12 7C11.4477 7 11 7.44772 11 8C11 8.55228 11.4477 9 12 9H25.3333C25.8856 9 26.3333 8.55228 26.3333 8C26.3333 7.44772 25.8856 7 25.3333 7H12ZM12 14.9999C11.4477 14.9999 11 15.4476 11 15.9999C11 16.5522 11.4477 16.9999 12 16.9999H25.3333C25.8856 16.9999 26.3333 16.5522 26.3333 15.9999C26.3333 15.4476 25.8856 14.9999 25.3333 14.9999H12ZM11 24C11 23.4477 11.4477 23 12 23H25.3333C25.8856 23 26.3333 23.4477 26.3333 24C26.3333 24.5523 25.8856 25 25.3333 25H12C11.4477 25 11 24.5523 11 24ZM8.6666 16C8.6666 16.9205 7.92041 17.6666 6.99993 17.6666C6.07946 17.6666 5.33327 16.9205 5.33327 16C5.33327 15.0795 6.07946 14.3333 6.99993 14.3333C7.92041 14.3333 8.6666 15.0795 8.6666 16ZM6.99993 25.6666C7.92041 25.6666 8.6666 24.9205 8.6666 24C8.6666 23.0795 7.92041 22.3333 6.99993 22.3333C6.07946 22.3333 5.33327 23.0795 5.33327 24C5.33327 24.9205 6.07946 25.6666 6.99993 25.6666Z" fill="#233043"/>
</svg>
