<svg width="32" height="32" viewBox="0 0 32 32" fill="none" xmlns="http://www.w3.org/2000/svg">
<line x1="6.10049" y1="4.68628" x2="27.3137" y2="25.8995" stroke="#233043" stroke-width="2" stroke-linecap="round"/>
<path fill-rule="evenodd" clip-rule="evenodd" d="M9.72777 7.20703H4.33334C3.78106 7.20703 3.33334 7.65475 3.33334 8.20703V23.793C3.33334 24.3453 3.78106 24.793 4.33334 24.793H23.3333C23.8856 24.793 24.3333 24.3453 24.3333 23.793V21.8126L22.3333 19.8126V22.793H5.33334V9.20703H11.7278L9.72777 7.20703ZM22.3333 16.9842V9.20703H14.5562L12.5562 7.20703H23.3333C23.8856 7.20703 24.3333 7.65475 24.3333 8.20703V12.141L28.0001 10.0241C28.8889 9.51086 30.0001 10.1524 30.0001 11.1788V20.8212C30.0001 21.8476 28.8889 22.4891 28.0001 21.9759L26.4031 21.0539L22.3333 16.9842ZM28.0001 19.6665L24.3333 17.5496V14.4504L28.0001 12.3335V19.6665Z" fill="#233043"/>
</svg>
