<svg width="32" height="32" viewBox="0 0 32 32" fill="none" xmlns="http://www.w3.org/2000/svg">
<path fill-rule="evenodd" clip-rule="evenodd" d="M5.33334 22.793V9.20703H22.3333V22.793H5.33334ZM3.33334 8.20703C3.33334 7.65475 3.78106 7.20703 4.33334 7.20703H23.3333C23.8856 7.20703 24.3333 7.65475 24.3333 8.20703V12.141L28.0001 10.0241C28.8889 9.51086 30.0001 10.1524 30.0001 11.1788V20.8212C30.0001 21.8476 28.8889 22.4891 28.0001 21.9759L24.3333 19.859V23.793C24.3333 24.3453 23.8856 24.793 23.3333 24.793H4.33334C3.78106 24.793 3.33334 24.3453 3.33334 23.793V8.20703ZM24.3333 17.5496L28.0001 19.6665V12.3335L24.3333 14.4504V17.5496Z" fill="#233043"/>
</svg>
