<svg width="24" height="24" viewBox="0 0 24 24" fill="none" xmlns="http://www.w3.org/2000/svg">
<path fill-rule="evenodd" clip-rule="evenodd" d="M12 18.5C15.5899 18.5 18.5 15.5899 18.5 12C18.5 8.41015 15.5899 5.5 12 5.5C8.41015 5.5 5.5 8.41015 5.5 12C5.5 15.5899 8.41015 18.5 12 18.5ZM12 20C16.4183 20 20 16.4183 20 12C20 7.58172 16.4183 4 12 4C7.58172 4 4 7.58172 4 12C4 16.4183 7.58172 20 12 20ZM14.5114 8.01753C15.3861 7.8426 16.1572 8.61375 15.9823 9.4884L15.0634 14.083C14.9644 14.5778 14.5776 14.9646 14.0828 15.0635L9.48853 15.9827C8.61389 16.1577 7.8427 15.3866 8.01758 14.5119L8.93627 9.91709C9.03521 9.42223 9.42201 9.03541 9.91687 8.93644L14.5114 8.01753ZM14.4379 9.56195L10.3745 10.3746L9.56199 14.4383L13.6252 13.6254L14.4379 9.56195ZM12 13C12.5523 13 13 12.5523 13 12C13 11.4477 12.5523 11 12 11C11.4477 11 11 11.4477 11 12C11 12.5523 11.4477 13 12 13Z" fill="#233043"/>
</svg>
