<svg width="16" height="16" viewBox="0 0 16 16" fill="none" xmlns="http://www.w3.org/2000/svg">
<path fill-rule="evenodd" clip-rule="evenodd" d="M14 8C14 11.3137 11.3137 14 8 14C4.68629 14 2 11.3137 2 8C2 4.68629 4.68629 2 8 2C11.3137 2 14 4.68629 14 8ZM9.45188 9.74609C9.60032 9.71639 9.71635 9.60036 9.74604 9.45192L10.4352 6.00599C10.4877 5.74359 10.2564 5.51225 9.99396 5.56473L6.54806 6.25391C6.3996 6.2836 6.28356 6.39964 6.25388 6.5481L5.56486 9.9942C5.5124 10.2566 5.74375 10.4879 6.00615 10.4354L9.45188 9.74609ZM8 8.75C8.41421 8.75 8.75 8.41421 8.75 8C8.75 7.58579 8.41421 7.25 8 7.25C7.58579 7.25 7.25 7.58579 7.25 8C7.25 8.41421 7.58579 8.75 8 8.75Z" fill="#233043"/>
</svg>
