<svg width="24" height="24" viewBox="0 0 24 24" fill="none" xmlns="http://www.w3.org/2000/svg">
<path fill-rule="evenodd" clip-rule="evenodd" d="M20 12C20 16.4183 16.4183 20 12 20C7.58172 20 4 16.4183 4 12C4 7.58172 7.58172 4 12 4C16.4183 4 20 7.58172 20 12ZM13.9358 14.3281C14.1338 14.2885 14.2885 14.1338 14.328 13.9359L15.247 9.34132C15.3169 8.99146 15.0085 8.683 14.6586 8.75297L10.0641 9.67188C9.86613 9.71146 9.71141 9.86619 9.67184 10.0641L8.75315 14.6589C8.68319 15.0088 8.99167 15.3172 9.34153 15.2473L13.9358 14.3281ZM12 13C12.5523 13 13 12.5523 13 12C13 11.4477 12.5523 11 12 11C11.4477 11 11 11.4477 11 12C11 12.5523 11.4477 13 12 13Z" fill="#233043"/>
</svg>
