<svg width="16" height="16" viewBox="0 0 16 16" fill="none" xmlns="http://www.w3.org/2000/svg">
<path fill-rule="evenodd" clip-rule="evenodd" d="M8 13.5C11.0376 13.5 13.5 11.0376 13.5 8C13.5 4.96243 11.0376 2.5 8 2.5C4.96243 2.5 2.5 4.96243 2.5 8C2.5 11.0376 4.96243 13.5 8 13.5ZM8 15C11.866 15 15 11.866 15 8C15 4.13401 11.866 1 8 1C4.13401 1 1 4.13401 1 8C1 11.866 4.13401 15 8 15ZM10.1791 4.42342C11.01 4.25724 11.7426 4.98983 11.5765 5.82075L10.7724 9.84101C10.6784 10.3111 10.311 10.6785 9.84092 10.7725L5.8209 11.5768C4.98999 11.743 4.25736 11.0105 4.42349 10.1795L5.22735 6.15909C5.32134 5.68897 5.6888 5.32149 6.15891 5.22747L10.1791 4.42342ZM10.0137 5.98622L6.65739 6.65748L5.98628 10.014L9.34239 9.34256L10.0137 5.98622ZM8 8.875C8.48325 8.875 8.875 8.48325 8.875 8C8.875 7.51675 8.48325 7.125 8 7.125C7.51675 7.125 7.125 7.51675 7.125 8C7.125 8.48325 7.51675 8.875 8 8.875Z" fill="#233043"/>
</svg>
