<svg width="24" height="24" viewBox="0 0 24 24" fill="none" xmlns="http://www.w3.org/2000/svg">
<path fill-rule="evenodd" clip-rule="evenodd" d="M9.04406 4.00002C9.03354 4.00002 9.02303 4.00031 9.01254 4.00091C8.20529 4.04695 7.41714 4.2646 6.70066 4.63934C6.26206 4.86875 5.85649 5.1538 5.49357 5.48649L5.4521 5.37262C5.31064 4.98418 4.88108 4.78395 4.49263 4.9254C4.10416 5.06685 3.90392 5.49644 4.04539 5.88491L9.0081 19.5121C9.14956 19.9005 9.57912 20.1008 9.96756 19.9593C10.356 19.8179 10.5563 19.3883 10.4148 18.9998L8.48363 13.697C8.84897 13.2175 9.30517 12.813 9.82738 12.5073C10.4546 12.1401 11.1594 11.9256 11.8848 11.8813C12.2885 11.8587 12.6935 11.8867 13.0902 11.9645C13.4542 12.0525 13.8272 12.0974 14.2017 12.0983L14.203 12.0983H14.6438C14.6545 12.0983 14.6652 12.098 14.676 12.0973C15.9659 12.0221 17.1927 11.5138 18.1578 10.6546C19.1229 9.79538 19.7698 8.63561 19.9937 7.36303C20.0305 7.15402 19.9445 6.94238 19.7725 6.81817C19.6004 6.69397 19.3724 6.67906 19.1856 6.77979C18.582 7.10533 17.9146 7.29533 17.23 7.33657C16.5682 7.37356 15.9061 7.26803 15.2885 7.02713C14.6706 6.7861 14.1117 6.41516 13.6496 5.93941C13.6402 5.92971 13.6304 5.92035 13.6203 5.91137C13.603 5.89596 13.5866 5.87904 13.5542 5.84432L13.5492 5.83906C13.5241 5.81218 13.4852 5.77048 13.4385 5.72785C12.4033 4.65676 10.9878 4.03593 9.49806 4.00017L9.48477 4.00002H9.04406Z" fill="#233043"/>
</svg>
