<svg width="24" height="24" viewBox="0 0 24 24" fill="none" xmlns="http://www.w3.org/2000/svg">
<path fill-rule="evenodd" clip-rule="evenodd" d="M9.49806 4.00016C10.9878 4.03591 12.4033 4.65675 13.4385 5.72783C13.4852 5.77047 13.5241 5.81216 13.5492 5.83905L13.5542 5.84431C13.5866 5.87902 13.6029 5.89594 13.6203 5.91135C13.6304 5.92034 13.6402 5.92969 13.6496 5.93939C14.1117 6.41514 14.6706 6.78608 15.2885 7.02712C15.9061 7.26802 16.5682 7.37354 17.23 7.33655C17.9146 7.29532 18.582 7.10532 19.1856 6.77978C19.3724 6.67904 19.6004 6.69395 19.7725 6.81816C19.9445 6.94236 20.0305 7.15401 19.9937 7.36302C19.9557 7.57891 19.9055 7.79156 19.8437 8.00005C19.8292 8.04909 19.814 8.0979 19.7982 8.14647L19.7958 8.15375C19.4818 9.11285 18.9187 9.97713 18.1578 10.6546C17.1927 11.5138 15.9659 12.0221 14.676 12.0973C14.6652 12.0979 14.6545 12.0983 14.6438 12.0983L14.2017 12.0982C13.8272 12.0973 13.4542 12.0524 13.0902 11.9645C12.6935 11.8867 12.2885 11.8587 11.8848 11.8813C11.1594 11.9256 10.4546 12.14 9.82738 12.5072C9.30517 12.813 8.84897 13.2175 8.48363 13.6969L10.4148 18.9998C10.5563 19.3883 10.356 19.8178 9.96756 19.9593C9.57912 20.1007 9.14956 19.9005 9.0081 19.5121L6.10785 11.5482L4.45308 7.00781C4.45146 7.00319 4.45012 6.99835 4.44905 6.99329L4.04539 5.88489C3.90392 5.49643 4.10416 5.06683 4.49263 4.92538C4.88108 4.78394 5.31064 4.98416 5.4521 5.3726L5.49357 5.48647C5.85649 5.15379 6.26206 4.86873 6.70066 4.63933C7.41714 4.26458 8.20529 4.04693 9.01254 4.0009C9.02303 4.0003 9.03354 4 9.04406 4H9.48477L9.49806 4.00016ZM12.4632 6.87386C12.4882 6.90054 12.5354 6.95108 12.5945 7.00592C13.2022 7.62549 13.9347 8.10908 14.7434 8.42456C15.561 8.74348 16.4375 8.88318 17.3137 8.83423L17.3202 8.83384C17.4897 8.82363 17.6584 8.8065 17.8259 8.78257C17.6358 9.05686 17.4128 9.30947 17.1604 9.53423C16.4541 10.163 15.558 10.5374 14.6148 10.5983L14.2037 10.5982C13.9473 10.5975 13.6919 10.5667 13.4427 10.5065C13.4215 10.5013 13.4002 10.4967 13.3789 10.4925C12.8595 10.3907 12.3295 10.3541 11.8011 10.3836L11.8011 10.3836L11.7933 10.3841C10.833 10.4428 9.89986 10.7266 9.06951 11.2128C8.64579 11.4609 8.25489 11.7581 7.9044 12.0971L6.06886 7.06068C6.4308 6.6089 6.88261 6.23695 7.39587 5.96849C7.9158 5.69655 8.487 5.53697 9.07239 5.5H9.47284C10.5645 5.52902 11.6011 5.98518 12.36 6.77029C12.3815 6.7926 12.4038 6.81423 12.4267 6.83515C12.4243 6.83297 12.4252 6.8337 12.43 6.83863C12.4352 6.84389 12.4405 6.8495 12.4531 6.86304L12.4533 6.86318L12.4582 6.86843L12.4587 6.86903L12.4632 6.87386Z" fill="#233043"/>
</svg>
