<svg width="16" height="16" viewBox="0 0 16 16" fill="none" xmlns="http://www.w3.org/2000/svg">
<path fill-rule="evenodd" clip-rule="evenodd" d="M5.78182 2.00002C5.77394 2.00002 5.76606 2.00024 5.75819 2.00069C5.15293 2.0352 4.56199 2.19839 4.02479 2.47937C3.69597 2.65136 3.39191 2.86506 3.11982 3.11447L3.08876 3.02917C2.98269 2.73793 2.66062 2.5878 2.36937 2.69386C2.0781 2.79991 1.92796 3.12201 2.03403 3.41328L5.75497 13.6307C5.86104 13.9219 6.18311 14.072 6.47436 13.966C6.76563 13.8599 6.91577 13.5378 6.80969 13.2466L5.3617 9.2705C5.63562 8.91105 5.97764 8.6078 6.36914 8.37859C6.83941 8.10326 7.36787 7.94248 7.91178 7.90924C8.21447 7.89232 8.51808 7.91328 8.81556 7.97161C9.08845 8.03758 9.36816 8.07125 9.64893 8.07193L9.64993 8.07193H9.98037C9.98843 8.07193 9.99648 8.07169 10.0045 8.07122C10.9717 8.01484 11.8915 7.63369 12.6151 6.98948C13.3387 6.34526 13.8238 5.4757 13.9917 4.52154C14.0192 4.36483 13.9548 4.20614 13.8258 4.11302C13.6968 4.01989 13.5258 4.00871 13.3858 4.08424C12.9332 4.32832 12.4328 4.47078 11.9195 4.5017C11.4233 4.52943 10.9269 4.45031 10.4638 4.26969C10.0005 4.08897 9.58146 3.81084 9.23497 3.45413C9.2279 3.44686 9.22057 3.43985 9.21299 3.43311C9.2 3.42156 9.18776 3.40887 9.16341 3.38284L9.15973 3.3789C9.14089 3.35874 9.11169 3.32748 9.0767 3.29551C8.3005 2.49243 7.23921 2.02694 6.12223 2.00013L6.11226 2.00002H5.78182Z" fill="#233043"/>
</svg>
