<svg width="16" height="16" viewBox="0 0 16 16" fill="none" xmlns="http://www.w3.org/2000/svg">
<path fill-rule="evenodd" clip-rule="evenodd" d="M5.81021 1.00014C7.11357 1.03142 8.35195 1.57458 9.25766 2.51166C9.29848 2.54896 9.33256 2.58544 9.35454 2.60896L9.35884 2.61356C9.38725 2.64393 9.40153 2.65873 9.41669 2.67222C9.42554 2.68008 9.43409 2.68826 9.44233 2.69675C9.84664 3.11297 10.3356 3.4375 10.8762 3.64838C11.4165 3.85914 11.9958 3.95146 12.5748 3.9191C12.8899 3.90013 13.2008 3.84512 13.5017 3.75578L13.5053 3.75469C13.5556 3.73972 13.6055 3.72379 13.6552 3.7069L13.6552 3.7069C13.8721 3.63317 14.083 3.54132 14.2857 3.43199C14.4492 3.34386 14.6486 3.3569 14.7991 3.46557C14.9497 3.57423 15.0249 3.7594 14.9927 3.94226C14.9595 4.13114 14.9156 4.31718 14.8615 4.49958C14.8266 4.61729 14.7874 4.73349 14.7441 4.84795L14.7287 4.88814C14.4426 5.62571 13.9843 6.28975 13.3865 6.82198C12.5422 7.57368 11.4689 8.01843 10.3403 8.08423C10.3309 8.08477 10.3215 8.08505 10.3121 8.08505L9.92537 8.08504C9.59775 8.08425 9.27137 8.04497 8.95295 7.96799C8.60583 7.89992 8.25157 7.87547 7.89837 7.89522C7.2637 7.934 6.64707 8.12161 6.09833 8.44287C5.64144 8.71037 5.24232 9.06427 4.92268 9.48375L6.61222 14.1231C6.73599 14.463 6.5608 14.8388 6.22093 14.9626C5.88109 15.0863 5.50527 14.9111 5.38151 14.5713L2.78882 7.45198L1.39643 3.63149C1.39505 3.62753 1.39389 3.62339 1.39296 3.61907L1.03971 2.64907C0.915944 2.30921 1.09113 1.93336 1.431 1.80961C1.77084 1.68586 2.14666 1.86103 2.27042 2.20087L2.30671 2.30052C2.62423 2.00945 2.97907 1.76005 3.36281 1.55934C3.98965 1.23148 4.67919 1.04106 5.38544 1.00079C5.39462 1.00026 5.40382 1 5.41301 1H5.79859L5.81021 1.00014ZM12.665 5.41639L12.6753 5.41576C12.5858 5.51606 12.4903 5.61155 12.3891 5.70165C11.8039 6.22262 11.0619 6.53333 10.2807 6.58505L9.9274 6.58504C9.71783 6.58442 9.50908 6.55922 9.3054 6.50999C9.28423 6.50487 9.26296 6.50021 9.24158 6.49602C8.77191 6.40392 8.29256 6.37084 7.81466 6.39755L7.81466 6.39753L7.80688 6.39801C6.93726 6.45115 6.09234 6.70821 5.34046 7.14841C5.03961 7.32455 4.75703 7.52804 4.49603 7.7557L3.02317 3.71441C3.31171 3.37568 3.66293 3.09515 4.05802 2.8885C4.48787 2.66368 4.95993 2.53138 5.4438 2.5H5.78562C6.69064 2.5247 7.54994 2.90316 8.17911 3.55411C8.19931 3.57502 8.22012 3.59533 8.2415 3.61502L8.25845 3.63296L8.25855 3.63308L8.26285 3.63767L8.26343 3.63829L8.26762 3.64278C8.28905 3.66573 8.33284 3.71263 8.38827 3.7643C8.93798 4.32386 9.60011 4.76067 10.3311 5.04582C11.0714 5.33461 11.8651 5.4611 12.6585 5.41677L12.6585 5.41678L12.665 5.41639Z" fill="#233043"/>
</svg>
