<svg width="24" height="24" viewBox="0 0 24 24" fill="none" xmlns="http://www.w3.org/2000/svg">
<path fill-rule="evenodd" clip-rule="evenodd" d="M20 8.25C20 6.04086 18.2091 4.25 16 4.25H8C5.79086 4.25 4 6.04086 4 8.25V12.25C4 14.4591 5.79086 16.25 8 16.25V18.658C8 19.6289 9.25667 20.1152 9.99163 19.4286L13.3943 16.25H16C18.2091 16.25 20 14.4591 20 12.25V8.25ZM14.5 10.25C14.5 10.8023 14.9477 11.25 15.5 11.25C16.0523 11.25 16.5 10.8023 16.5 10.25C16.5 9.69772 16.0523 9.25 15.5 9.25C14.9477 9.25 14.5 9.69772 14.5 10.25ZM8.5 11.25C7.94772 11.25 7.5 10.8023 7.5 10.25C7.5 9.69772 7.94772 9.25 8.5 9.25C9.05228 9.25 9.5 9.69772 9.5 10.25C9.5 10.8023 9.05228 11.25 8.5 11.25ZM11.05 10.25C11.05 10.8023 11.4977 11.25 12.05 11.25C12.6023 11.25 13.05 10.8023 13.05 10.25C13.05 9.69772 12.6023 9.25 12.05 9.25C11.4977 9.25 11.05 9.69772 11.05 10.25Z" fill="#233043"/>
</svg>
