<svg width="24" height="24" viewBox="0 0 24 24" fill="none" xmlns="http://www.w3.org/2000/svg">
<path d="M13.3943 15.5C13.2042 15.5 13.0212 15.5722 12.8823 15.7019L9.47965 18.8805C9.3482 19.0033 9.16313 19.0321 8.99085 18.9654C8.8206 18.8995 8.75 18.7804 8.75 18.658V16.25C8.75 15.8358 8.41421 15.5 8 15.5C6.20507 15.5 4.75 14.0449 4.75 12.25V8.25C4.75 6.45507 6.20507 5 8 5H16C17.7949 5 19.25 6.45507 19.25 8.25V12.25C19.25 14.0449 17.7949 15.5 16 15.5H13.3943Z" stroke="#233043" stroke-width="1.5" stroke-linejoin="round"/>
<circle r="1" transform="matrix(-1 0 0 1 15.5 10.25)" fill="#233043"/>
<circle r="1" transform="matrix(-1 0 0 1 12.05 10.25)" fill="#233043"/>
<circle r="1" transform="matrix(-1 0 0 1 8.5 10.25)" fill="#233043"/>
</svg>
