<svg width="16" height="16" viewBox="0 0 16 16" fill="none" xmlns="http://www.w3.org/2000/svg">
<path fill-rule="evenodd" clip-rule="evenodd" d="M14 5.25C14 3.59315 12.6569 2.25 11 2.25H5C3.34315 2.25 2 3.59315 2 5.25V8.25C2 9.90685 3.34315 11.25 5 11.25V13.056C5 13.7842 5.9425 14.1489 6.49372 13.634L9.0457 11.25H11C12.6569 11.25 14 9.90685 14 8.25V5.25ZM9.875 6.75C9.875 7.16421 10.2108 7.5 10.625 7.5C11.0392 7.5 11.375 7.16421 11.375 6.75C11.375 6.33579 11.0392 6 10.625 6C10.2108 6 9.875 6.33579 9.875 6.75ZM5.375 7.5C4.96079 7.5 4.625 7.16421 4.625 6.75C4.625 6.33579 4.96079 6 5.375 6C5.78921 6 6.125 6.33579 6.125 6.75C6.125 7.16421 5.78921 7.5 5.375 7.5ZM7.28749 6.75C7.28749 7.16421 7.62328 7.5 8.03749 7.5C8.4517 7.5 8.78749 7.16421 8.78749 6.75C8.78749 6.33579 8.4517 6 8.03749 6C7.62328 6 7.28749 6.33579 7.28749 6.75Z" fill="#233043"/>
</svg>
