<svg width="16" height="16" viewBox="0 0 16 16" fill="none" xmlns="http://www.w3.org/2000/svg">
<path fill-rule="evenodd" clip-rule="evenodd" d="M9.21999 10.25C8.83982 10.25 8.47384 10.3944 8.19603 10.6539L6 12.7053V11.75C6 10.9216 5.32843 10.25 4.5 10.25C3.39543 10.25 2.5 9.35457 2.5 8.25V4.75C2.5 3.64543 3.39543 2.75 4.5 2.75H11.5C12.6046 2.75 13.5 3.64543 13.5 4.75V8.25C13.5 9.35457 12.6046 10.25 11.5 10.25H9.21999ZM11.5 11.75H9.21999L6.24267 14.5313C5.59958 15.132 4.5 14.7066 4.5 13.857V13.25V11.75C2.567 11.75 1 10.183 1 8.25V4.75C1 2.817 2.567 1.25 4.5 1.25H11.5C13.433 1.25 15 2.817 15 4.75V8.25C15 10.183 13.433 11.75 11.5 11.75ZM11.0625 7.375C10.5793 7.375 10.1875 6.98325 10.1875 6.5C10.1875 6.01675 10.5793 5.625 11.0625 5.625C11.5457 5.625 11.9375 6.01675 11.9375 6.5C11.9375 6.98325 11.5457 7.375 11.0625 7.375ZM7.16875 6.5C7.16875 6.98325 7.5605 7.375 8.04375 7.375C8.527 7.375 8.91875 6.98325 8.91875 6.5C8.91875 6.01675 8.527 5.625 8.04375 5.625C7.5605 5.625 7.16875 6.01675 7.16875 6.5ZM4.9375 7.375C4.45425 7.375 4.0625 6.98325 4.0625 6.5C4.0625 6.01675 4.45425 5.625 4.9375 5.625C5.42075 5.625 5.8125 6.01675 5.8125 6.5C5.8125 6.98325 5.42075 7.375 4.9375 7.375Z" fill="#233043"/>
</svg>
