<svg width="24" height="24" viewBox="0 0 24 24" fill="none" xmlns="http://www.w3.org/2000/svg">
<path fill-rule="evenodd" clip-rule="evenodd" d="M18.5 12C18.5 15.5899 15.5899 18.5 12 18.5C8.41015 18.5 5.5 15.5899 5.5 12C5.5 8.41015 8.41015 5.5 12 5.5C15.5899 5.5 18.5 8.41015 18.5 12ZM20 12C20 16.4183 16.4183 20 12 20C7.58172 20 4 16.4183 4 12C4 7.58172 7.58172 4 12 4C16.4183 4 20 7.58172 20 12ZM9 10.5C9.55228 10.5 10 10.0523 10 9.5C10 8.94772 9.55228 8.5 9 8.5C8.44772 8.5 8 8.94772 8 9.5C8 10.0523 8.44772 10.5 9 10.5ZM16 9.5C16 10.0523 15.5523 10.5 15 10.5C14.4477 10.5 14 10.0523 14 9.5C14 8.94772 14.4477 8.5 15 8.5C15.5523 8.5 16 8.94772 16 9.5ZM8.24241 12.6359C8.17388 12.2274 7.78716 11.9518 7.37865 12.0203C6.97015 12.0889 6.69455 12.4756 6.76308 12.8841C7.18451 15.396 9.36785 17.31 11.9997 17.31C14.6315 17.31 16.8149 15.396 17.2363 12.8841C17.3048 12.4756 17.0292 12.0889 16.6207 12.0203C16.2122 11.9518 15.8255 12.2274 15.757 12.6359C15.4548 14.4373 13.8868 15.81 11.9997 15.81C10.1126 15.81 8.54462 14.4373 8.24241 12.6359Z" fill="#233043"/>
</svg>
