<svg width="16" height="16" viewBox="0 0 16 16" fill="none" xmlns="http://www.w3.org/2000/svg">
<path fill-rule="evenodd" clip-rule="evenodd" d="M13.5 8C13.5 11.0376 11.0376 13.5 8 13.5C4.96243 13.5 2.5 11.0376 2.5 8C2.5 4.96243 4.96243 2.5 8 2.5C11.0376 2.5 13.5 4.96243 13.5 8ZM15 8C15 11.866 11.866 15 8 15C4.13401 15 1 11.866 1 8C1 4.13401 4.13401 1 8 1C11.866 1 15 4.13401 15 8ZM5.375 6.6875C5.85825 6.6875 6.25 6.29575 6.25 5.8125C6.25 5.32925 5.85825 4.9375 5.375 4.9375C4.89175 4.9375 4.5 5.32925 4.5 5.8125C4.5 6.29575 4.89175 6.6875 5.375 6.6875ZM11.5 5.8125C11.5 6.29575 11.1082 6.6875 10.625 6.6875C10.1418 6.6875 9.75 6.29575 9.75 5.8125C9.75 5.32925 10.1418 4.9375 10.625 4.9375C11.1082 4.9375 11.5 5.32925 11.5 5.8125ZM4.80456 8.54092C4.73602 8.13241 4.34931 7.85681 3.9408 7.92535C3.5323 7.99388 3.2567 8.3806 3.32523 8.7891C3.70143 11.0315 5.65031 12.74 7.99973 12.74C10.3491 12.74 12.298 11.0315 12.6742 8.7891C12.7428 8.3806 12.4672 7.99388 12.0587 7.92535C11.6501 7.85681 11.2634 8.13241 11.1949 8.54092C10.9379 10.0727 9.6044 11.24 7.99973 11.24C6.39505 11.24 5.06154 10.0727 4.80456 8.54092Z" fill="#233043"/>
</svg>
