<svg width="16" height="16" viewBox="0 0 16 16" fill="none" xmlns="http://www.w3.org/2000/svg">
<path fill-rule="evenodd" clip-rule="evenodd" d="M8 14C11.3137 14 14 11.3137 14 8C14 4.68629 11.3137 2 8 2C4.68629 2 2 4.68629 2 8C2 11.3137 4.68629 14 8 14ZM5.75 6.875C6.16421 6.875 6.5 6.53921 6.5 6.125C6.5 5.71079 6.16421 5.375 5.75 5.375C5.33579 5.375 5 5.71079 5 6.125C5 6.53921 5.33579 6.875 5.75 6.875ZM11 6.125C11 6.53921 10.6642 6.875 10.25 6.875C9.83579 6.875 9.5 6.53921 9.5 6.125C9.5 5.71079 9.83579 5.375 10.25 5.375C10.6642 5.375 11 5.71079 11 6.125ZM5.12025 8.48728C5.07456 8.21494 4.81675 8.03121 4.54441 8.0769C4.27208 8.12259 4.08834 8.3804 4.13403 8.65274C4.44513 10.5071 6.057 11.92 7.99986 11.92C9.94271 11.92 11.5546 10.5071 11.8657 8.65274C11.9114 8.3804 11.7276 8.12259 11.4553 8.0769C11.183 8.03121 10.9251 8.21494 10.8795 8.48728C10.6478 9.86792 9.44622 10.92 7.99986 10.92C6.55349 10.92 5.35188 9.86792 5.12025 8.48728Z" fill="#233043"/>
</svg>
