<svg width="16" height="16" viewBox="0 0 16 16" fill="none" xmlns="http://www.w3.org/2000/svg">
<path fill-rule="evenodd" clip-rule="evenodd" d="M5.05605 8.90498C4.13537 8.90498 3.38815 8.15148 3.38815 7.22307C3.38815 6.5503 3.78178 5.97845 4.34219 5.70935C3.78178 5.44024 3.38815 4.86839 3.38815 4.19563C3.38815 3.26721 4.13537 2.51372 5.05605 2.51372C5.40964 2.51372 5.73655 2.62136 6.00341 2.80974L5.99007 2.68191C5.99007 1.7535 6.73728 1 7.65796 1C8.57864 1 9.32585 1.7535 9.32585 2.68191L9.31251 2.80974C9.58605 2.62136 9.90628 2.51372 10.2599 2.51372C11.1806 2.51372 11.9278 3.26721 11.9278 4.19563C11.9278 4.86839 11.5341 5.44024 10.9737 5.70935C11.5341 5.97845 11.9278 6.5503 11.9278 7.22307C11.9278 8.15148 11.1806 8.90498 10.2599 8.90498C9.90628 8.90498 9.57937 8.79733 9.31251 8.60896L9.32585 8.73678C9.32585 9.6652 8.57864 10.4187 7.65796 10.4187C6.73728 10.4187 5.99007 9.6652 5.99007 8.73678L6.00341 8.60896C5.72988 8.79733 5.40964 8.90498 5.05605 8.90498ZM9.32585 5.70935C9.32585 4.78093 8.57864 4.02744 7.65796 4.02744C6.73728 4.02744 5.99007 4.78093 5.99007 5.70935C5.99007 6.63776 6.73728 7.39126 7.65796 7.39126C8.57864 7.39126 9.32585 6.63776 9.32585 5.70935ZM3 10.6003C3 10.402 3.16511 10.242 3.37079 10.242C5.40665 10.242 7.12386 11.5576 7.65797 13.3551C8.19209 11.5576 9.9093 10.242 11.9452 10.242C12.1508 10.242 12.3159 10.402 12.3159 10.6003C12.3159 12.975 10.3195 14.9 7.85679 14.9C7.79015 14.9 7.72385 14.8986 7.65792 14.8958C7.59202 14.8986 7.52576 14.9 7.45915 14.9C4.99643 14.9 3 12.975 3 10.6003Z" fill="#233043"/>
</svg>
