<svg width="24" height="24" viewBox="0 0 24 24" fill="none" xmlns="http://www.w3.org/2000/svg">
<path fill-rule="evenodd" clip-rule="evenodd" d="M8.64844 13.1825C7.4625 13.1825 6.5 12.2119 6.5 11.016C6.5 10.1494 7.00703 9.41281 7.72891 9.06618C7.00703 8.71954 6.5 7.98293 6.5 7.11633C6.5 5.92043 7.4625 4.94984 8.64844 4.94984C9.10391 4.94984 9.525 5.0885 9.86875 5.33115L9.85156 5.16649C9.85156 3.97059 10.8141 3 12 3C13.1859 3 14.1484 3.97059 14.1484 5.16649L14.1313 5.33115C14.4836 5.0885 14.8961 4.94984 15.3516 4.94984C16.5375 4.94984 17.5 5.92043 17.5 7.11633C17.5 7.98293 16.993 8.71954 16.2711 9.06618C16.993 9.41281 17.5 10.1494 17.5 11.016C17.5 12.2119 16.5375 13.1825 15.3516 13.1825C14.8961 13.1825 14.475 13.0439 14.1313 12.8012L14.1484 12.9659C14.1484 14.1618 13.1859 15.1324 12 15.1324C10.8141 15.1324 9.85156 14.1618 9.85156 12.9659L9.86875 12.8012C9.51641 13.0439 9.10391 13.1825 8.64844 13.1825ZM14.1484 9.06618C14.1484 7.87027 13.1859 6.89968 12 6.89968C10.8141 6.89968 9.85156 7.87027 9.85156 9.06618C9.85156 10.2621 10.8141 11.2327 12 11.2327C13.1859 11.2327 14.1484 10.2621 14.1484 9.06618ZM6 15.3663C6 15.1109 6.21268 14.9048 6.47762 14.9048C9.10004 14.9048 11.312 16.5993 12 18.9148C12.688 16.5993 14.9 14.9048 17.5224 14.9048C17.7873 14.9048 18 15.1109 18 15.3663C18 18.4251 15.4284 20.9048 12.2561 20.9048C12.1703 20.9048 12.0849 20.903 11.9999 20.8994C11.915 20.903 11.8297 20.9048 11.7439 20.9048C8.57163 20.9048 6 18.4251 6 15.3663Z" fill="#233043"/>
</svg>
