<svg width="24" height="24" viewBox="0 0 24 24" fill="none" xmlns="http://www.w3.org/2000/svg">
<path fill-rule="evenodd" clip-rule="evenodd" d="M9.2444 4.26066C9.62265 3.09641 10.7102 2.25 12 2.25C13.29 2.25 14.3776 3.09658 14.7557 4.26102C14.9474 4.22089 15.1464 4.19984 15.3516 4.19984C16.9576 4.19984 18.25 5.51215 18.25 7.11633C18.25 7.87181 17.9638 8.55311 17.4999 9.06618C17.9638 9.57924 18.25 10.2605 18.25 11.016C18.25 12.6202 16.9576 13.9325 15.3516 13.9325C15.1479 13.9325 14.9485 13.9117 14.7556 13.8717C14.3774 15.0359 13.2898 15.8824 12 15.8824C10.71 15.8824 9.62243 15.0358 9.24428 13.8713C9.05259 13.9115 8.85356 13.9325 8.64844 13.9325C7.04238 13.9325 5.75 12.6202 5.75 11.016C5.75 10.2605 6.03618 9.57924 6.50008 9.06618C6.03618 8.55311 5.75 7.87181 5.75 7.11633C5.75 5.51215 7.04238 4.19984 8.64844 4.19984C8.85207 4.19984 9.05152 4.22062 9.2444 4.26066ZM10.602 5.13146L10.6147 5.25328C10.6452 5.54595 10.5018 5.82945 10.2479 5.97822C9.99407 6.127 9.67664 6.11357 9.43624 5.94387C9.2195 5.79088 8.9496 5.69984 8.64844 5.69984C7.88262 5.69984 7.25 6.32872 7.25 7.11633C7.25 7.68034 7.57862 8.16202 8.05356 8.39008C8.31354 8.51492 8.47891 8.77778 8.47891 9.06618C8.47891 9.35458 8.31354 9.61743 8.05356 9.74227C7.57862 9.97033 7.25 10.452 7.25 11.016C7.25 11.8036 7.88262 12.4325 8.64844 12.4325C8.94499 12.4325 9.21026 12.344 9.44337 12.1835C9.68442 12.0175 10 12.0069 10.2517 12.1563C10.5034 12.3058 10.6451 12.588 10.6147 12.8791L10.602 13.0009C10.6204 13.772 11.2456 14.3824 12 14.3824C12.7544 14.3824 13.3796 13.772 13.398 13.0009L13.3853 12.8791C13.3548 12.5864 13.4982 12.3029 13.7521 12.1541C14.0059 12.0054 14.3234 12.0188 14.5638 12.1885C14.7805 12.3415 15.0504 12.4325 15.3516 12.4325C16.1174 12.4325 16.75 11.8036 16.75 11.016C16.75 10.452 16.4214 9.97033 15.9464 9.74227C15.6865 9.61743 15.5211 9.35458 15.5211 9.06618C15.5211 8.77778 15.6865 8.51492 15.9464 8.39008C16.4214 8.16202 16.75 7.68034 16.75 7.11633C16.75 6.32871 16.1174 5.69984 15.3516 5.69984C15.055 5.69984 14.7897 5.78831 14.5566 5.94884C14.3156 6.11485 14 6.12546 13.7483 5.97602C13.4966 5.82657 13.3549 5.54438 13.3853 5.25327L13.398 5.13146C13.3796 4.36031 12.7544 3.75 12 3.75C11.2456 3.75 10.6204 4.36031 10.602 5.13146ZM12 8.25C11.5862 8.25 11.25 8.58621 11.25 9C11.25 9.41379 11.5862 9.75 12 9.75C12.4138 9.75 12.75 9.41379 12.75 9C12.75 8.58621 12.4138 8.25 12 8.25ZM9.75 9C9.75 7.75779 10.7578 6.75 12 6.75C13.2422 6.75 14.25 7.75779 14.25 9C14.25 10.2422 13.2422 11.25 12 11.25C10.7578 11.25 9.75 10.2422 9.75 9ZM12.2561 20.9048C12.5036 20.9048 12.7475 20.8897 12.9867 20.8604C15.814 20.5143 18 18.1865 18 15.3663C18 15.1109 17.7873 14.9048 17.5224 14.9048C15.6215 14.9048 13.9362 15.7952 12.8907 17.167C12.4939 17.6877 12.1893 18.2778 12 18.9148C11.8107 18.2778 11.5061 17.6877 11.1093 17.167C10.0638 15.7952 8.37855 14.9048 6.47762 14.9048C6.21268 14.9048 6 15.1109 6 15.3663C6 18.1865 8.186 20.5143 11.0133 20.8604C11.2525 20.8897 11.4964 20.9048 11.7439 20.9048C11.8297 20.9048 11.915 20.903 11.9999 20.8994C12.0849 20.903 12.1703 20.9048 12.2561 20.9048ZM7.69434 16.5728C9.057 16.9598 10.1161 17.9786 10.5297 19.2384C9.16544 18.8531 8.11125 17.8355 7.69434 16.5728ZM13.4703 19.2384C13.8839 17.9786 14.943 16.9599 16.3057 16.5728C15.8888 17.8355 14.8346 18.8531 13.4703 19.2384Z" fill="#233043"/>
</svg>
