<svg width="16" height="16" viewBox="0 0 16 16" fill="none" xmlns="http://www.w3.org/2000/svg">
<path fill-rule="evenodd" clip-rule="evenodd" d="M5.95693 2.62123C6.2337 1.76932 7.02946 1.14999 7.97325 1.14999C8.91714 1.14999 9.71296 1.76945 9.98965 2.62149C10.1299 2.59213 10.2755 2.57672 10.4256 2.57672C11.6008 2.57672 12.5465 3.53696 12.5465 4.71077C12.5465 5.26356 12.3371 5.76208 11.9976 6.1375C12.3371 6.51292 12.5465 7.01144 12.5465 7.56423C12.5465 8.73804 11.6008 9.69827 10.4256 9.69827C10.2766 9.69827 10.1307 9.68307 9.98956 9.65377C9.71279 10.5057 8.91704 11.125 7.97325 11.125C7.02936 11.125 6.23354 10.5055 5.95685 9.65351C5.81658 9.68287 5.67095 9.69827 5.52086 9.69827C4.34568 9.69827 3.40002 8.73804 3.40002 7.56423C3.40002 7.01144 3.60943 6.51292 3.94887 6.1375C3.60943 5.76208 3.40002 5.26356 3.40002 4.71077C3.40002 3.53696 4.34568 2.57672 5.52086 2.57672C5.66986 2.57672 5.8158 2.59192 5.95693 2.62123ZM6.9503 3.2584L6.9596 3.34754C6.98196 3.56169 6.87701 3.76913 6.69124 3.87799C6.50548 3.98686 6.27321 3.97703 6.0973 3.85286C5.93871 3.74091 5.74123 3.6743 5.52086 3.6743C4.9605 3.6743 4.4976 4.13445 4.4976 4.71077C4.4976 5.12346 4.73806 5.47592 5.08558 5.64279C5.27581 5.73414 5.39681 5.92647 5.39681 6.1375C5.39681 6.34852 5.27581 6.54086 5.08558 6.63221C4.73806 6.79908 4.4976 7.15153 4.4976 7.56423C4.4976 8.14054 4.9605 8.6007 5.52086 8.6007C5.73785 8.6007 5.93195 8.53597 6.10252 8.4185C6.2789 8.29703 6.50984 8.28927 6.69398 8.39862C6.87813 8.50797 6.98184 8.71445 6.9596 8.92746L6.9503 9.01659C6.96378 9.58086 7.42122 10.0274 7.97325 10.0274C8.52528 10.0274 8.98272 9.58086 8.9962 9.0166L8.9869 8.92746C8.96454 8.71331 9.06948 8.50587 9.25525 8.397C9.44102 8.28814 9.67329 8.29797 9.84919 8.42214C10.0078 8.53408 10.2053 8.6007 10.4256 8.6007C10.986 8.6007 11.4489 8.14054 11.4489 7.56423C11.4489 7.15153 11.2084 6.79908 10.8609 6.63221C10.6707 6.54086 10.5497 6.34852 10.5497 6.1375C10.5497 5.92647 10.6707 5.73414 10.8609 5.64279C11.2084 5.47592 11.4489 5.12346 11.4489 4.71077C11.4489 4.13445 10.986 3.6743 10.4256 3.6743C10.2086 3.6743 10.0145 3.73903 9.84398 3.85649C9.66759 3.97796 9.43666 3.98573 9.25251 3.87638C9.06837 3.76703 8.96466 3.56055 8.9869 3.34754L8.9962 3.2584C8.98272 2.69414 8.52528 2.24757 7.97325 2.24757C7.42122 2.24757 6.96378 2.69414 6.9503 3.2584ZM7.97326 5.54028C7.67048 5.54028 7.42447 5.78629 7.42447 6.08907C7.42447 6.39184 7.67048 6.63785 7.97326 6.63785C8.27603 6.63785 8.52205 6.39184 8.52205 6.08907C8.52205 5.78629 8.27603 5.54028 7.97326 5.54028ZM6.3269 6.08907C6.3269 5.18012 7.06431 4.44271 7.97326 4.44271C8.88221 4.44271 9.61962 5.18012 9.61962 6.08907C9.61962 6.99801 8.88221 7.73543 7.97326 7.73543C7.06431 7.73543 6.3269 6.99801 6.3269 6.08907ZM8.1606 14.8C8.34171 14.8 8.52013 14.789 8.6952 14.7675C10.764 14.5143 12.3635 12.811 12.3635 10.7474C12.3635 10.5605 12.2079 10.4097 12.014 10.4097C10.6231 10.4097 9.38996 11.0612 8.62497 12.065C8.33463 12.446 8.11171 12.8778 7.97321 13.3439C7.83471 12.8778 7.6118 12.446 7.32145 12.065C6.55646 11.0612 5.32334 10.4097 3.9324 10.4097C3.73854 10.4097 3.58291 10.5605 3.58291 10.7474C3.58291 12.811 5.18245 14.5143 7.25122 14.7675C7.42628 14.789 7.60471 14.8 7.78581 14.8C7.84859 14.8 7.91105 14.7987 7.97316 14.796C8.0353 14.7987 8.09779 14.8 8.1606 14.8ZM4.82269 11.6302C5.81977 11.9134 6.59473 12.6589 6.89738 13.5807C5.89912 13.2988 5.12775 12.5542 4.82269 11.6302ZM9.04904 13.5807C9.35169 12.6589 10.1266 11.9134 11.1237 11.6302C10.8187 12.5542 10.0473 13.2988 9.04904 13.5807Z" fill="#233043"/>
</svg>
