<svg width="16" height="16" viewBox="0 0 16 16" fill="none" xmlns="http://www.w3.org/2000/svg">
<path fill-rule="evenodd" clip-rule="evenodd" d="M3.03649 4.07836C2.92328 4.07836 2.8314 4.1701 2.83139 4.28357L2.83132 5.2869C2.83132 5.28692 2.83132 5.28689 2.83132 5.2869C2.83135 6.16245 3.6128 6.95149 4.67833 6.95149C5.01836 6.95149 5.29401 7.22714 5.29401 7.56716C5.29401 7.90719 5.01836 8.18284 4.67833 8.18284C3.02368 8.18284 1.59998 6.93004 1.59998 5.2869L1.60005 4.28347C1.60011 3.49025 2.24301 2.84702 3.03649 2.84702L4.47311 2.84702C4.81314 2.84702 5.08878 3.12267 5.08878 3.46269C5.08878 3.80272 4.81313 4.07836 4.47311 4.07836L3.03649 4.07836L3.03649 3.46269L3.03649 4.07836Z" fill="#233043"/>
<path fill-rule="evenodd" clip-rule="evenodd" d="M5.08877 2.23134V6.33582C5.08877 7.92261 6.37511 9.20895 7.9619 9.20895C9.54869 9.20895 10.835 7.92261 10.835 6.33582V3.46816C10.835 3.46634 10.835 3.46451 10.835 3.46269C10.835 3.46086 10.835 3.45903 10.835 3.45721V2.23134H5.08877ZM12.0664 2.84701V1.8209C12.0664 1.36753 11.6988 1 11.2455 1H4.67832C4.22495 1 3.85742 1.36753 3.85742 1.8209V6.33582C3.85742 8.39342 5.37147 10.0974 7.34625 10.3944V11.056H6.5254C5.1653 11.056 4.06271 12.1585 4.06271 13.5187C4.06271 14.1987 4.614 14.75 5.29406 14.75H10.6299C11.3099 14.75 11.8612 14.1987 11.8612 13.5187C11.8612 12.1585 10.7586 11.056 9.39853 11.056H8.57759V10.3944C9.92389 10.1919 11.056 9.33547 11.6403 8.15888C13.1203 7.9784 14.3238 6.7976 14.3238 5.28685L14.3237 4.28347C14.3237 3.49025 13.6808 2.84701 12.8873 2.84701L12.0664 2.84701ZM12.0664 4.07836V6.33582C12.0664 6.48956 12.0579 6.64133 12.0415 6.79068C12.6781 6.51613 13.0925 5.92448 13.0925 5.28694L13.0924 4.28356C13.0924 4.1701 13.0005 4.07835 12.8873 4.07835L12.0664 4.07836ZM5.29406 13.5187C5.29406 12.8386 5.84535 12.2873 6.5254 12.2873H9.39853C10.0786 12.2873 10.6299 12.8386 10.6299 13.5187H5.29406Z" fill="#233043"/>
</svg>
