<svg width="24" height="24" viewBox="0 0 24 24" fill="none" xmlns="http://www.w3.org/2000/svg">
<path fill-rule="evenodd" clip-rule="evenodd" d="M8.5 7.00001V10.5C8.5 12.433 10.067 14 12 14C13.933 14 15.5 12.433 15.5 10.5V7.00001V5.5H8.5V7.00001ZM17 6.25V5C17 4.44772 16.5523 4 16 4H8C7.44772 4 7 4.44772 7 5V6.25L5.99993 6.25C5.03333 6.25 4.25017 7.03358 4.25009 7.99987L4.25 9.22217V9.22222C4.25 11.0626 5.71612 12.501 7.51904 12.7208C8.23077 14.1541 9.60995 15.1974 11.25 15.4441V16.25H10.25C8.59315 16.25 7.25 17.5931 7.25 19.25C7.25 20.0784 7.92157 20.75 8.75 20.75H15.25C16.0784 20.75 16.75 20.0784 16.75 19.25C16.75 17.5931 15.4069 16.25 13.75 16.25H12.75V15.4441C14.39 15.1974 15.7692 14.1541 16.481 12.7208C18.2839 12.501 19.75 11.0626 19.75 9.22222V9.22217L19.7499 7.99987C19.7498 7.03358 18.9667 6.25 18.0001 6.25L17 6.25ZM17 7.75V10.5C17 10.6873 16.9897 10.8722 16.9696 11.0541C17.7452 10.7197 18.25 9.99893 18.25 9.22228V9.22222L18.2499 7.99998C18.2499 7.86176 18.138 7.75 18.0001 7.75L17 7.75ZM7 10.5V7.75L5.99993 7.75C5.86202 7.75 5.7501 7.86176 5.75009 7.99998L5.75 9.22222V9.22228C5.75002 9.99893 6.25478 10.7197 7.03036 11.0541C7.0103 10.8722 7 10.6873 7 10.5ZM8.75 19.25C8.75 18.4216 9.42157 17.75 10.25 17.75H13.75C14.5784 17.75 15.25 18.4216 15.25 19.25H8.75Z" fill="#233043"/>
</svg>
