<svg width="16" height="16" viewBox="0 0 16 16" fill="none" xmlns="http://www.w3.org/2000/svg">
<path fill-rule="evenodd" clip-rule="evenodd" d="M5 2C4.58579 2 4.25 2.33579 4.25 2.75V3.5L3.75 3.5C2.78351 3.5 2.00012 4.28347 2.00005 5.24987L2 5.91661V5.91667C2 7.44852 3.2534 8.61928 4.74578 8.73976C5.30387 9.71159 6.28477 10.4097 7.4375 10.5831V11.75H6.6875C5.75552 11.75 5 12.5055 5 13.4375C5 13.7482 5.25184 14 5.5625 14H10.4375C10.7482 14 11 13.7482 11 13.4375C11 12.5055 10.2445 11.75 9.3125 11.75H8.5625V10.5831C9.71523 10.4097 10.6961 9.71159 11.2542 8.73976C12.7466 8.61928 14 7.44852 14 5.91667V5.91661L13.9999 5.24987C13.9999 4.28347 13.2165 3.5 12.25 3.5L11.75 3.5V2.75C11.75 2.33579 11.4142 2 11 2H5ZM11.75 5V6.875C11.75 6.94233 11.7482 7.00924 11.7447 7.0757C12.2109 6.83704 12.5 6.38458 12.5 5.91672V5.91667L12.4999 5.24998C12.4999 5.11187 12.388 5 12.25 5L11.75 5ZM3.75 5L4.25 5V6.875C4.25 6.94233 4.25177 7.00924 4.25528 7.0757C3.78911 6.83704 3.50002 6.38458 3.5 5.91672V5.91667L3.50005 5.24998C3.50006 5.11187 3.61198 5 3.75 5Z" fill="#233043"/>
</svg>
