<svg width="24" height="24" viewBox="0 0 24 24" fill="none" xmlns="http://www.w3.org/2000/svg">
<path fill-rule="evenodd" clip-rule="evenodd" d="M8 4C7.44772 4 7 4.44772 7 5V6.25L5.99975 6.25C5.03297 6.25 4.25017 7.03375 4.25009 7.99987L4.25 9.22217V9.22222C4.25 11.0626 5.71612 12.501 7.51904 12.7208C8.23077 14.1541 9.60995 15.1974 11.25 15.4441V17H10.25C9.00736 17 8 18.0074 8 19.25C8 19.6642 8.33579 20 8.75 20H15.25C15.6642 20 16 19.6642 16 19.25C16 18.0074 14.9926 17 13.75 17H12.75V15.4441C14.39 15.1974 15.7692 14.1541 16.481 12.7208C18.2839 12.501 19.75 11.0626 19.75 9.22222V9.22217L19.7499 7.99987C19.7498 7.03375 18.967 6.25 18.0002 6.25L17 6.25V5C17 4.44772 16.5523 4 16 4H8ZM17 7.75V10.5C17 10.6873 16.9897 10.8722 16.9696 11.0541C17.7452 10.7197 18.25 9.99893 18.25 9.22228V9.22222L18.2499 7.99998C18.2499 7.86159 18.138 7.75 18.0002 7.75L17 7.75ZM5.99975 7.75L7 7.75V10.5C7 10.6873 7.0103 10.8722 7.03036 11.0541C6.25478 10.7197 5.75002 9.99893 5.75 9.22228V9.22222L5.75009 7.99998C5.7501 7.86159 5.86202 7.75 5.99975 7.75Z" fill="#233043"/>
</svg>
