<svg width="16" height="16" viewBox="0 0 16 16" fill="none" xmlns="http://www.w3.org/2000/svg">
<path fill-rule="evenodd" clip-rule="evenodd" d="M7.92112 2.10391C7.13998 2.10391 6.50674 2.73714 6.50674 3.51828C6.50674 4.29942 7.13998 4.93266 7.92112 4.93266C8.70226 4.93266 9.33549 4.29942 9.33549 3.51828C9.33549 2.73714 8.70226 2.10391 7.92112 2.10391ZM5.40283 3.51828C5.40283 2.12747 6.53031 1 7.92112 1C9.31193 1 10.4394 2.12747 10.4394 3.51828C10.4394 4.90909 9.31193 6.03657 7.92112 6.03657C6.53031 6.03657 5.40283 4.90909 5.40283 3.51828Z" fill="#233043"/>
<path fill-rule="evenodd" clip-rule="evenodd" d="M3.72705 10.1731C3.72705 8.25919 5.27856 6.70769 7.19243 6.70769H8.82321C10.7371 6.70769 12.2886 8.25919 12.2886 10.1731H11.0655C11.0655 8.93468 10.0616 7.93076 8.82321 7.93076H7.19243C5.95404 7.93076 4.95013 8.93468 4.95013 10.1731H3.72705Z" fill="#233043"/>
<path fill-rule="evenodd" clip-rule="evenodd" d="M2.30005 12.6192C2.30005 11.7186 3.03017 10.9885 3.93082 10.9885C4.83147 10.9885 5.56159 11.7186 5.56159 12.6192C5.56159 13.5199 4.83147 14.25 3.93082 14.25C3.03017 14.25 2.30005 13.5199 2.30005 12.6192ZM3.93082 12.2115C3.70566 12.2115 3.52313 12.3941 3.52313 12.6192C3.52313 12.8444 3.70566 13.0269 3.93082 13.0269C4.15598 13.0269 4.33851 12.8444 4.33851 12.6192C4.33851 12.3941 4.15598 12.2115 3.93082 12.2115Z" fill="#233043"/>
<path fill-rule="evenodd" clip-rule="evenodd" d="M6.37683 12.6192C6.37683 11.7186 7.10695 10.9885 8.0076 10.9885C8.90825 10.9885 9.63837 11.7186 9.63837 12.6192C9.63837 13.5199 8.90825 14.25 8.0076 14.25C7.10695 14.25 6.37683 13.5199 6.37683 12.6192ZM8.0076 12.2115C7.78244 12.2115 7.59991 12.3941 7.59991 12.6192C7.59991 12.8444 7.78244 13.0269 8.0076 13.0269C8.23276 13.0269 8.41529 12.8444 8.41529 12.6192C8.41529 12.3941 8.23276 12.2115 8.0076 12.2115Z" fill="#233043"/>
<path fill-rule="evenodd" clip-rule="evenodd" d="M10.454 12.6192C10.454 11.7186 11.1841 10.9885 12.0847 10.9885C12.9854 10.9885 13.7155 11.7186 13.7155 12.6192C13.7155 13.5199 12.9854 14.25 12.0847 14.25C11.1841 14.25 10.454 13.5199 10.454 12.6192ZM12.0847 12.2115C11.8596 12.2115 11.6771 12.3941 11.6771 12.6192C11.6771 12.8444 11.8596 13.0269 12.0847 13.0269C12.3099 13.0269 12.4924 12.8444 12.4924 12.6192C12.4924 12.3941 12.3099 12.2115 12.0847 12.2115Z" fill="#233043"/>
</svg>
