<svg width="24" height="24" viewBox="0 0 24 24" fill="none" xmlns="http://www.w3.org/2000/svg">
<path fill-rule="evenodd" clip-rule="evenodd" d="M11.8936 5.35385C10.9356 5.35385 10.159 6.13046 10.159 7.08846C10.159 8.04646 10.9356 8.82308 11.8936 8.82308C12.8516 8.82308 13.6283 8.04646 13.6283 7.08846C13.6283 6.13046 12.8516 5.35385 11.8936 5.35385ZM8.80518 7.08846C8.80518 5.38275 10.1879 4 11.8936 4C13.5993 4 14.9821 5.38275 14.9821 7.08846C14.9821 8.79417 13.5993 10.1769 11.8936 10.1769C10.1879 10.1769 8.80518 8.79417 8.80518 7.08846Z" fill="#233043"/>
<path d="M16.5 15.25V15.25C16.5 13.317 14.933 11.75 13 11.75H11C9.067 11.75 7.5 13.317 7.5 15.25V15.25" stroke="#233043" stroke-width="1.5" stroke-linecap="round" stroke-linejoin="round"/>
<rect x="5.75" y="17" width="2.5" height="2.5" rx="1.25" stroke="#233043" stroke-width="1.5"/>
<rect x="10.75" y="17" width="2.5" height="2.5" rx="1.25" stroke="#233043" stroke-width="1.5"/>
<rect x="15.75" y="17" width="2.5" height="2.5" rx="1.25" stroke="#233043" stroke-width="1.5"/>
</svg>
