<svg width="16" height="16" viewBox="0 0 16 16" fill="none" xmlns="http://www.w3.org/2000/svg">
<path fill-rule="evenodd" clip-rule="evenodd" d="M11.0204 11.0204C13.4272 10.5746 15.25 8.46447 15.25 5.92857C15.25 3.06853 12.9315 0.75 10.0714 0.75C7.5355 0.75 5.42532 2.57277 4.97959 4.97961C2.57276 5.42535 0.75 7.53553 0.75 10.0714C0.75 12.9315 3.06853 15.25 5.92857 15.25C8.46448 15.25 10.5747 13.4272 11.0204 11.0204ZM10.0714 1.99286C8.2522 1.99286 6.72128 3.22714 6.27039 4.90396C8.01875 5.01789 9.53046 5.99946 10.3792 7.42234C11.0165 7.3164 11.5406 6.88709 11.7749 6.31465C11.9049 5.99701 12.2677 5.84489 12.5854 5.97488C12.903 6.10487 13.0551 6.46774 12.9251 6.78538C12.5678 7.65866 11.8154 8.32908 10.8896 8.58149C10.9997 8.9487 11.0702 9.33306 11.096 9.72958C12.7728 9.27868 14.0071 7.74777 14.0071 5.92857C14.0071 3.75494 12.245 1.99286 10.0714 1.99286ZM1.99286 10.0714C1.99286 7.89779 3.75494 6.13571 5.92857 6.13571C8.10221 6.13571 9.86429 7.89779 9.86429 10.0714C9.86429 12.2451 8.10221 14.0071 5.92857 14.0071C3.75494 14.0071 1.99286 12.2451 1.99286 10.0714ZM7.99998 4.89286C8.34319 4.89286 8.62141 4.61464 8.62141 4.27143C8.62141 3.92823 8.34319 3.65001 7.99998 3.65001C7.65677 3.65001 7.37855 3.92823 7.37855 4.27143C7.37855 4.61464 7.65677 4.89286 7.99998 4.89286ZM3.85722 9.03571C4.20043 9.03571 4.47865 8.75748 4.47865 8.41428C4.47865 8.07107 4.20043 7.79285 3.85722 7.79285C3.51402 7.79285 3.23579 8.07107 3.23579 8.41428C3.23579 8.75748 3.51402 9.03571 3.85722 9.03571ZM7.99998 9.03571C8.34319 9.03571 8.62141 8.75748 8.62141 8.41428C8.62141 8.07107 8.34319 7.79285 7.99998 7.79285C7.65677 7.79285 7.37855 8.07107 7.37855 8.41428C7.37855 8.75748 7.65677 9.03571 7.99998 9.03571ZM3.41464 10.1177C3.73228 9.98775 4.09515 10.1399 4.22514 10.4575C4.49617 11.1198 5.15513 11.5905 5.92858 11.5905C6.70203 11.5905 7.36098 11.1198 7.63202 10.4575C7.76201 10.1399 8.12488 9.98775 8.44252 10.1177C8.76015 10.2477 8.91227 10.6106 8.78228 10.9282C8.32429 12.0474 7.21755 12.8333 5.92858 12.8333C4.63961 12.8333 3.53287 12.0474 3.07488 10.9282C2.94489 10.6106 3.097 10.2477 3.41464 10.1177ZM12.7643 4.27143C12.7643 4.61464 12.4861 4.89286 12.1429 4.89286C11.7996 4.89286 11.5214 4.61464 11.5214 4.27143C11.5214 3.92823 11.7996 3.65001 12.1429 3.65001C12.4861 3.65001 12.7643 3.92823 12.7643 4.27143Z" fill="#233043"/>
</svg>
