<svg width="16" height="16" viewBox="0 0 16 16" fill="none" xmlns="http://www.w3.org/2000/svg">
<path d="M5.86865 4.32822C5.86865 3.04238 6.91103 2 8.19688 2C9.48272 2 10.5251 3.04238 10.5251 4.32822C10.5251 5.61407 9.48272 6.65645 8.19688 6.65645C6.91103 6.65645 5.86865 5.61407 5.86865 4.32822Z" fill="#233043"/>
<path fill-rule="evenodd" clip-rule="evenodd" d="M4.31934 10.1876C4.31934 8.58007 5.62249 7.27692 7.23002 7.27692H9.32404C10.9316 7.27692 12.2347 8.58007 12.2347 10.1876C12.2347 10.2906 12.2166 10.3893 12.1834 10.4808H4.37069C4.33746 10.3893 4.31934 10.2906 4.31934 10.1876Z" fill="#233043"/>
<path fill-rule="evenodd" clip-rule="evenodd" d="M4.50769 11.2346C3.67502 11.2346 3 11.9096 3 12.7423C3 13.575 3.67502 14.25 4.50769 14.25C5.34037 14.25 6.01538 13.575 6.01538 12.7423C6.01538 11.9096 5.34037 11.2346 4.50769 11.2346ZM8.27679 11.2346C7.44412 11.2346 6.7691 11.9096 6.7691 12.7423C6.7691 13.575 7.44412 14.25 8.27679 14.25C9.10947 14.25 9.78449 13.575 9.78449 12.7423C9.78449 11.9096 9.10947 11.2346 8.27679 11.2346ZM12.0462 11.2346C11.2136 11.2346 10.5385 11.9096 10.5385 12.7423C10.5385 13.575 11.2136 14.25 12.0462 14.25C12.8789 14.25 13.5539 13.575 13.5539 12.7423C13.5539 11.9096 12.8789 11.2346 12.0462 11.2346Z" fill="#233043"/>
</svg>
