<svg width="16" height="16" viewBox="0 0 16 16" fill="none" xmlns="http://www.w3.org/2000/svg">
<path fill-rule="evenodd" clip-rule="evenodd" d="M13.9999 6.125C13.9999 7.8743 12.911 9.36928 11.3741 9.96912C11.3746 9.93781 11.3749 9.90644 11.3749 9.875C11.3749 9.33493 11.2934 8.8139 11.1419 8.32356C11.7349 8.02295 12.2055 7.51772 12.458 6.90055C12.5757 6.61303 12.438 6.28457 12.1505 6.16691C11.863 6.04924 11.5345 6.18694 11.4168 6.47445C11.276 6.81857 11.0195 7.10554 10.6941 7.28758C10.1501 6.32901 9.31318 5.55846 8.30502 5.09765C8.45991 4.99746 8.56242 4.8232 8.56242 4.625C8.56242 4.31434 8.31058 4.0625 7.99992 4.0625C7.68926 4.0625 7.43742 4.31434 7.43742 4.625C7.43742 4.68514 7.44685 4.74307 7.46433 4.7974C7.03674 4.68491 6.58782 4.625 6.12492 4.625C6.09348 4.625 6.06211 4.62528 6.0308 4.62583C6.63064 3.08888 8.12562 2 9.87492 2C12.1531 2 13.9999 3.84683 13.9999 6.125ZM12.3124 4.625C12.3124 4.93566 12.0606 5.1875 11.7499 5.1875C11.4393 5.1875 11.1874 4.93566 11.1874 4.625C11.1874 4.31434 11.4393 4.0625 11.7499 4.0625C12.0606 4.0625 12.3124 4.31434 12.3124 4.625ZM10.25 9.875C10.25 12.1532 8.40317 14 6.125 14C3.84683 14 2 12.1532 2 9.875C2 7.59683 3.84683 5.75 6.125 5.75C8.40317 5.75 10.25 7.59683 10.25 9.875ZM4.8125 8.375C4.8125 8.68566 4.56066 8.9375 4.25 8.9375C3.93934 8.9375 3.6875 8.68566 3.6875 8.375C3.6875 8.06434 3.93934 7.8125 4.25 7.8125C4.56066 7.8125 4.8125 8.06434 4.8125 8.375ZM8 8.9375C8.31066 8.9375 8.5625 8.68566 8.5625 8.375C8.5625 8.06434 8.31066 7.8125 8 7.8125C7.68934 7.8125 7.4375 8.06434 7.4375 8.375C7.4375 8.68566 7.68934 8.9375 8 8.9375ZM3.84946 9.91691C4.13698 9.79924 4.46544 9.93694 4.5831 10.2245C4.82844 10.8239 5.4249 11.25 6.12501 11.25C6.82512 11.25 7.42158 10.8239 7.66692 10.2245C7.78458 9.93694 8.11304 9.79924 8.40056 9.91691C8.68807 10.0346 8.82577 10.363 8.7081 10.6505C8.29354 11.6636 7.29175 12.375 6.12501 12.375C4.95827 12.375 3.95648 11.6636 3.54192 10.6505C3.42426 10.363 3.56195 10.0346 3.84946 9.91691Z" fill="#233043"/>
</svg>
