<svg width="24" height="24" viewBox="0 0 24 24" fill="none" xmlns="http://www.w3.org/2000/svg">
<path d="M8.80518 7.08846C8.80518 5.38275 10.1879 4 11.8936 4C13.5993 4 14.9821 5.38275 14.9821 7.08846C14.9821 8.79417 13.5993 10.1769 11.8936 10.1769C10.1879 10.1769 8.80518 8.79417 8.80518 7.08846Z" fill="#233043"/>
<path fill-rule="evenodd" clip-rule="evenodd" d="M6.75 14.8611C6.75 12.7287 8.47868 11 10.6111 11H13.3889C15.5213 11 17.25 12.7287 17.25 14.8611C17.25 14.9977 17.226 15.1287 17.1819 15.25H6.81812C6.77404 15.1287 6.75 14.9977 6.75 14.8611Z" fill="#233043"/>
<path fill-rule="evenodd" clip-rule="evenodd" d="M7 16.25C5.89543 16.25 5 17.1454 5 18.25C5 19.3546 5.89543 20.25 7 20.25C8.10457 20.25 9 19.3546 9 18.25C9 17.1454 8.10457 16.25 7 16.25ZM12 16.25C10.8954 16.25 10 17.1454 10 18.25C10 19.3546 10.8954 20.25 12 20.25C13.1046 20.25 14 19.3546 14 18.25C14 17.1454 13.1046 16.25 12 16.25ZM17 16.25C15.8954 16.25 15 17.1454 15 18.25C15 19.3546 15.8954 20.25 17 20.25C18.1046 20.25 19 19.3546 19 18.25C19 17.1454 18.1046 16.25 17 16.25Z" fill="#233043"/>
</svg>
