<svg width="24" height="24" viewBox="0 0 24 24" fill="none" xmlns="http://www.w3.org/2000/svg">
<path fill-rule="evenodd" clip-rule="evenodd" d="M15.6453 15.6453C18.5501 15.1073 20.75 12.5606 20.75 9.5C20.75 6.04822 17.9518 3.25 14.5 3.25C11.4394 3.25 8.89263 5.4499 8.35468 8.3547C5.44989 8.89267 3.25 11.4394 3.25 14.5C3.25 17.9518 6.04822 20.75 9.5 20.75C12.5606 20.75 15.1073 18.5501 15.6453 15.6453ZM14.5 4.75C12.3044 4.75 10.4567 6.23965 9.91254 8.2634C12.0226 8.4009 13.8471 9.58555 14.8715 11.3028C15.6406 11.175 16.2732 10.6568 16.5559 9.96595C16.7128 9.5826 17.1507 9.39901 17.5341 9.55589C17.9174 9.71277 18.101 10.1507 17.9441 10.5341C17.5128 11.588 16.6047 12.3972 15.4874 12.7018C15.6204 13.145 15.7054 13.6089 15.7366 14.0874C17.7603 13.5432 19.25 11.6956 19.25 9.5C19.25 6.87665 17.1233 4.75 14.5 4.75ZM4.75 14.5C4.75 11.8766 6.87665 9.75 9.5 9.75C12.1234 9.75 14.25 11.8766 14.25 14.5C14.25 17.1234 12.1234 19.25 9.5 19.25C6.87665 19.25 4.75 17.1234 4.75 14.5ZM12 8.25C12.4142 8.25 12.75 7.91421 12.75 7.5C12.75 7.08579 12.4142 6.75 12 6.75C11.5858 6.75 11.25 7.08579 11.25 7.5C11.25 7.91421 11.5858 8.25 12 8.25ZM7 13.25C7.41421 13.25 7.75 12.9142 7.75 12.5C7.75 12.0858 7.41421 11.75 7 11.75C6.58579 11.75 6.25 12.0858 6.25 12.5C6.25 12.9142 6.58579 13.25 7 13.25ZM12 13.25C12.4142 13.25 12.75 12.9142 12.75 12.5C12.75 12.0858 12.4142 11.75 12 11.75C11.5858 11.75 11.25 12.0858 11.25 12.5C11.25 12.9142 11.5858 13.25 12 13.25ZM6.46595 14.5559C6.84931 14.399 7.28726 14.5826 7.44414 14.966C7.77125 15.7653 8.56654 16.3333 9.50001 16.3333C10.4335 16.3333 11.2288 15.7653 11.5559 14.966C11.7128 14.5826 12.1507 14.399 12.5341 14.5559C12.9174 14.7128 13.101 15.1507 12.9441 15.5341C12.3914 16.8848 11.0557 17.8333 9.50001 17.8333C7.94436 17.8333 6.60864 16.8848 6.05589 15.5341C5.89901 15.1507 6.0826 14.7128 6.46595 14.5559ZM17.75 7.5C17.75 7.91421 17.4142 8.25 17 8.25C16.5858 8.25 16.25 7.91421 16.25 7.5C16.25 7.08579 16.5858 6.75 17 6.75C17.4142 6.75 17.75 7.08579 17.75 7.5Z" fill="#233043"/>
</svg>
