<svg width="24" height="24" viewBox="0 0 24 24" fill="none" xmlns="http://www.w3.org/2000/svg">
<path fill-rule="evenodd" clip-rule="evenodd" d="M20 9.5C20 11.8324 18.5482 13.8257 16.4989 14.6255C16.4996 14.5837 16.5 14.5419 16.5 14.5C16.5 13.7799 16.3913 13.0852 16.1893 12.4314C16.98 12.0306 17.6074 11.357 17.9441 10.5341C18.101 10.1507 17.9174 9.71276 17.5341 9.55588C17.1507 9.39899 16.7128 9.58258 16.5559 9.96594C16.3681 10.4248 16.0261 10.8074 15.5922 11.0501C14.8669 9.77201 13.751 8.74461 12.4068 8.1302C12.6133 7.99661 12.75 7.76427 12.75 7.5C12.75 7.08579 12.4142 6.75 12 6.75C11.5858 6.75 11.25 7.08579 11.25 7.5C11.25 7.58018 11.2626 7.65743 11.2859 7.72987C10.7158 7.57988 10.1172 7.5 9.5 7.5C9.45808 7.5 9.41625 7.50037 9.37451 7.5011C10.1743 5.45184 12.1676 4 14.5 4C17.5376 4 20 6.46243 20 9.5ZM17.75 7.5C17.75 7.91421 17.4142 8.25 17 8.25C16.5858 8.25 16.25 7.91421 16.25 7.5C16.25 7.08579 16.5858 6.75 17 6.75C17.4142 6.75 17.75 7.08579 17.75 7.5ZM15 14.5C15 17.5376 12.5376 20 9.5 20C6.46243 20 4 17.5376 4 14.5C4 11.4624 6.46243 9 9.5 9C12.5376 9 15 11.4624 15 14.5ZM7.75 12.5C7.75 12.9142 7.41421 13.25 7 13.25C6.58579 13.25 6.25 12.9142 6.25 12.5C6.25 12.0858 6.58579 11.75 7 11.75C7.41421 11.75 7.75 12.0858 7.75 12.5ZM12 13.25C12.4142 13.25 12.75 12.9142 12.75 12.5C12.75 12.0858 12.4142 11.75 12 11.75C11.5858 11.75 11.25 12.0858 11.25 12.5C11.25 12.9142 11.5858 13.25 12 13.25ZM6.46595 14.5559C6.84931 14.399 7.28726 14.5826 7.44414 14.9659C7.77125 15.7653 8.56654 16.3333 9.50001 16.3333C10.4335 16.3333 11.2288 15.7653 11.5559 14.9659C11.7128 14.5826 12.1507 14.399 12.5341 14.5559C12.9174 14.7128 13.101 15.1507 12.9441 15.5341C12.3914 16.8848 11.0557 17.8333 9.50001 17.8333C7.94436 17.8333 6.60864 16.8848 6.05589 15.5341C5.89901 15.1507 6.0826 14.7128 6.46595 14.5559Z" fill="#233043"/>
</svg>
