<svg width="24" height="24" viewBox="0 0 24 24" fill="none" xmlns="http://www.w3.org/2000/svg">
<path fill-rule="evenodd" clip-rule="evenodd" d="M12.2158 4.25C11.5545 4.25 10.9686 4.66338 10.7385 5.27813L8.61911 10.8125H6C5.0335 10.8125 4.25 11.596 4.25 12.5625V17.5625C4.25 18.529 5.0335 19.3125 6 19.3125H9.15625H16.3322C17.5149 19.3125 18.4329 18.4595 18.6476 17.3533L18.6481 17.3508L19.7043 12.0526L19.7043 12.0526L19.7052 12.0481C19.9923 10.561 18.8659 9.16071 17.3425 9.16071H14.0486V5.83727C14.0486 4.96814 13.3493 4.25 12.4701 4.25H12.2158ZM8.40625 17.8125V12.3125H6C5.86193 12.3125 5.75 12.4244 5.75 12.5625V17.5625C5.75 17.7006 5.86193 17.8125 6 17.8125H8.40625ZM9.90625 17.8125H16.3322C16.7341 17.8125 17.0854 17.5318 17.1753 17.0665L17.1761 17.062L17.1761 17.062L18.2324 11.7638L18.2327 11.7619C18.3436 11.1818 17.9035 10.6607 17.3425 10.6607H13.7128C13.0624 10.6607 12.5486 10.13 12.5486 9.49208V5.83727C12.5486 5.78158 12.506 5.75 12.4701 5.75H12.2158C12.188 5.75 12.1568 5.76771 12.1432 5.8042L12.1405 5.81152L12.1405 5.8115L9.90625 11.6457V17.8125Z" fill="#233043"/>
</svg>
