<svg width="16" height="16" viewBox="0 0 16 16" fill="none" xmlns="http://www.w3.org/2000/svg">
<path fill-rule="evenodd" clip-rule="evenodd" d="M8.15678 1C7.58338 1 7.07539 1.35842 6.87589 1.89145L5.03827 6.69004H2.76734C1.92934 6.69004 1.25 7.36938 1.25 8.20738V12.5427C1.25 13.3807 1.92934 14.06 2.76734 14.06H5.50204C5.50269 14.06 5.50334 14.06 5.50399 14.06H11.7259C12.7514 14.06 13.5473 13.3204 13.7335 12.3613L13.7339 12.3591L14.6497 7.76525L14.6497 7.76526L14.6505 7.76139C14.8995 6.47193 13.9228 5.25785 12.6019 5.25785H9.74593V2.37625C9.74593 1.62266 9.13964 1 8.37731 1H8.15678ZM8.09386 2.34757C8.1056 2.31594 8.13264 2.30058 8.15678 2.30058H8.37731C8.40842 2.30058 8.44535 2.32796 8.44535 2.37625V5.54516C8.44535 6.09828 8.89083 6.55843 9.4548 6.55843H12.6019C13.0883 6.55843 13.4699 7.01026 13.3738 7.51325L13.3735 7.51484L12.4577 12.1087L12.4577 12.1087L12.4569 12.1126C12.379 12.516 12.0744 12.7594 11.7259 12.7594H6.15428V7.4125L8.09147 2.35391L8.09151 2.35392L8.09386 2.34757ZM2.55058 8.20738C2.55058 8.08767 2.64763 7.99062 2.76734 7.99062H4.85369V12.7594H2.76734C2.64763 12.7594 2.55058 12.6624 2.55058 12.5427V8.20738Z" fill="#233043"/>
</svg>
