<svg width="24" height="24" viewBox="0 0 24 24" fill="none" xmlns="http://www.w3.org/2000/svg">
<path d="M9.15625 18.5625H16.3322C17.1249 18.5625 17.7598 17.995 17.9117 17.2087L18.9688 11.9059C19.1684 10.8719 18.385 9.91071 17.3425 9.91071H13.7128C13.4841 9.91071 13.2986 9.72328 13.2986 9.49208V5.83727C13.2986 5.37486 12.9277 5 12.4701 5H12.2158C11.8704 5 11.5613 5.2165 11.4401 5.54328L9.15625 11.507V18.5625Z" fill="#233043"/>
<path d="M7.65625 18.5625V11.507H6C5.44772 11.507 5 11.9548 5 12.507V17.5625C5 18.1148 5.44772 18.5625 6 18.5625H7.65625Z" fill="#233043"/>
</svg>
