<svg width="16" height="16" viewBox="0 0 16 16" fill="none" xmlns="http://www.w3.org/2000/svg">
<path d="M5.96875 12.6875H11.0944C11.6607 12.6875 12.1142 12.2821 12.2226 11.7205L12.9777 7.93282C13.1203 7.19424 12.5607 6.50765 11.8161 6.50765H9.22345C9.06004 6.50765 8.92757 6.37377 8.92757 6.20863V3.59805C8.92757 3.26776 8.66263 3 8.33581 3H8.15414C7.90746 3 7.68666 3.15464 7.60005 3.38806L5.96875 7.64789V12.6875Z" fill="#233043"/>
<path d="M4.89732 12.6875V7.64789H3.71429C3.3198 7.64789 3 7.96768 3 8.36217V11.9732C3 12.3677 3.3198 12.6875 3.71429 12.6875H4.89732Z" fill="#233043"/>
</svg>
