<svg width="16" height="16" viewBox="0 0 16 16" fill="none" xmlns="http://www.w3.org/2000/svg">
<path fill-rule="evenodd" clip-rule="evenodd" d="M2.5 6.1548C2.5 4.66232 3.66232 3.5 5.1548 3.5C6.00486 3.5 6.83245 3.89938 7.36952 4.53008C7.51202 4.69741 7.72075 4.79382 7.94054 4.79382C8.16033 4.79382 8.36906 4.69741 8.51155 4.53008C9.04863 3.89938 9.87622 3.5 10.7263 3.5C12.2188 3.5 13.3811 4.66232 13.3811 6.1548C13.3811 7.07846 12.9724 7.97513 12.0995 9.04316C11.218 10.1216 9.94352 11.2808 8.33457 12.7429L8.33377 12.7436L7.94245 13.0972L7.5478 12.7379L7.54672 12.7369C5.93756 11.2777 4.66288 10.1198 3.78145 9.04219C2.90863 7.97509 2.5 7.07845 2.5 6.1548ZM5.1548 2C2.8339 2 1 3.8339 1 6.1548C1 7.57117 1.64376 8.79788 2.62037 9.99187C3.57908 11.164 4.93387 12.3925 6.49375 13.8069L6.49377 13.807L6.53803 13.8471L6.5391 13.8481L7.0205 14.2863C7.54143 14.7605 8.33719 14.762 8.8599 14.2898L9.34095 13.8552L9.34256 13.8537L9.40317 13.7987L9.40321 13.7986C10.9565 12.3871 12.3055 11.1613 13.2609 9.99245C14.2373 8.79784 14.8811 7.57116 14.8811 6.1548C14.8811 3.8339 13.0472 2 10.7263 2C9.69858 2 8.71074 2.3747 7.94054 3.00037C7.17034 2.3747 6.1825 2 5.1548 2ZM7.36021 8.55363H6.19948C6.04556 8.55363 5.89794 8.49248 5.7891 8.38364C5.68027 8.2748 5.61912 8.12719 5.61912 7.97326C5.61912 7.81934 5.68027 7.67172 5.7891 7.56289C5.89794 7.45405 6.04556 7.3929 6.19948 7.3929H7.36021V6.23217C7.36021 6.07825 7.42135 5.93064 7.53019 5.8218C7.63903 5.71296 7.78665 5.65181 7.94057 5.65181C8.09449 5.65181 8.24211 5.71296 8.35095 5.8218C8.45979 5.93064 8.52094 6.07825 8.52094 6.23217V7.3929H9.68166C9.83558 7.3929 9.9832 7.45405 10.092 7.56289C10.2009 7.67172 10.262 7.81934 10.262 7.97326C10.262 8.12719 10.2009 8.2748 10.092 8.38364C9.9832 8.49248 9.83558 8.55363 9.68166 8.55363H8.52094V9.71435C8.52094 9.86828 8.45979 10.0159 8.35095 10.1247C8.24211 10.2336 8.09449 10.2947 7.94057 10.2947C7.78665 10.2947 7.63903 10.2336 7.53019 10.1247C7.42135 10.0159 7.36021 9.86828 7.36021 9.71435V8.55363Z" fill="#233043"/>
</svg>
