<svg width="24" height="24" viewBox="0 0 24 24" fill="none" xmlns="http://www.w3.org/2000/svg">
<path fill-rule="evenodd" clip-rule="evenodd" d="M4.75 9.4C4.75 7.35021 6.35021 5.75 8.4 5.75C9.56491 5.75 10.6947 6.29595 11.429 7.15825C11.5715 7.32559 11.7802 7.422 12 7.422C12.2198 7.422 12.4285 7.32559 12.571 7.15825C13.3053 6.29595 14.4351 5.75 15.6 5.75C17.6498 5.75 19.25 7.35021 19.25 9.4C19.25 10.6656 18.6876 11.8726 17.5443 13.2714C16.3926 14.6804 14.7313 16.1907 12.6564 18.0762L12.6556 18.0769L12.0356 18.6371C12.0165 18.6544 11.9874 18.6543 11.9684 18.637L11.3449 18.0694L11.3438 18.0684C9.26871 16.1867 7.60726 14.6782 6.45554 13.2702C5.31243 11.8726 4.75 10.6656 4.75 9.4ZM8.4 4.25C5.52179 4.25 3.25 6.52179 3.25 9.4C3.25 11.1584 4.04757 12.6954 5.29446 14.2198C6.523 15.7218 8.26363 17.3002 10.288 19.1359L10.3351 19.1786L10.3362 19.1796L10.9586 19.7462C11.5484 20.2831 12.4493 20.2848 13.0411 19.7501L13.6628 19.1885L13.6644 19.1871L13.7327 19.125C15.7483 17.2934 17.4814 15.7185 18.7057 14.2206C19.9524 12.6954 20.75 11.1584 20.75 9.4C20.75 6.52179 18.4782 4.25 15.6 4.25C14.2617 4.25 12.9759 4.76245 12 5.60979C11.0241 4.76245 9.73829 4.25 8.4 4.25ZM11.25 12.5H9.75C9.55109 12.5 9.36032 12.421 9.21967 12.2803C9.07902 12.1397 9 11.9489 9 11.75C9 11.5511 9.07902 11.3603 9.21967 11.2197C9.36032 11.079 9.55109 11 9.75 11H11.25V9.5C11.25 9.30109 11.329 9.11032 11.4697 8.96967C11.6103 8.82902 11.8011 8.75 12 8.75C12.1989 8.75 12.3897 8.82902 12.5303 8.96967C12.671 9.11032 12.75 9.30109 12.75 9.5V11H14.25C14.4489 11 14.6397 11.079 14.7803 11.2197C14.921 11.3603 15 11.5511 15 11.75C15 11.9489 14.921 12.1397 14.7803 12.2803C14.6397 12.421 14.4489 12.5 14.25 12.5H12.75V14C12.75 14.1989 12.671 14.3897 12.5303 14.5303C12.3897 14.671 12.1989 14.75 12 14.75C11.8011 14.75 11.6103 14.671 11.4697 14.5303C11.329 14.3897 11.25 14.1989 11.25 14V12.5Z" fill="#233043"/>
</svg>
