<svg width="16" height="16" viewBox="0 0 16 16" fill="none" xmlns="http://www.w3.org/2000/svg">
<path fill-rule="evenodd" clip-rule="evenodd" d="M7.59762 13.3937C7.82592 13.6015 8.17467 13.6022 8.40376 13.3952L8.87 12.974L8.89369 12.9525C11.9704 10.1565 14 8.3122 14 6.05C14 4.202 12.548 2.75 10.7 2.75C9.656 2.75 8.654 3.236 8 4.004C7.346 3.236 6.344 2.75 5.3 2.75C3.452 2.75 2 4.202 2 6.05C2 8.31614 4.03665 10.163 7.1224 12.9611L7.13 12.968L7.59762 13.3937ZM7.4375 8.5625H6.3125C6.16332 8.5625 6.02024 8.50324 5.91475 8.39775C5.80926 8.29226 5.75 8.14918 5.75 8C5.75 7.85082 5.80926 7.70774 5.91475 7.60225C6.02024 7.49676 6.16332 7.4375 6.3125 7.4375H7.4375V6.3125C7.4375 6.16332 7.49676 6.02024 7.60225 5.91475C7.70774 5.80926 7.85082 5.75 8 5.75C8.14918 5.75 8.29226 5.80926 8.39775 5.91475C8.50324 6.02024 8.5625 6.16332 8.5625 6.3125V7.4375H9.6875C9.83668 7.4375 9.97976 7.49676 10.0852 7.60225C10.1907 7.70774 10.25 7.85082 10.25 8C10.25 8.14918 10.1907 8.29226 10.0852 8.39775C9.97976 8.50324 9.83668 8.5625 9.6875 8.5625H8.5625V9.6875C8.5625 9.83669 8.50324 9.97976 8.39775 10.0852C8.29226 10.1907 8.14918 10.25 8 10.25C7.85082 10.25 7.70774 10.1907 7.60225 10.0852C7.49676 9.97976 7.4375 9.83669 7.4375 9.6875V8.5625Z" fill="#233043"/>
</svg>
