<svg width="24" height="24" viewBox="0 0 24 24" fill="none" xmlns="http://www.w3.org/2000/svg">
<path fill-rule="evenodd" clip-rule="evenodd" d="M11.4635 18.9416C11.7679 19.2187 12.2329 19.2196 12.5383 18.9436L13.16 18.382L13.1916 18.3533C17.2939 14.6254 20 12.1663 20 9.15C20 6.686 18.064 4.75 15.6 4.75C14.208 4.75 12.872 5.398 12 6.422C11.128 5.398 9.792 4.75 8.4 4.75C5.936 4.75 4 6.686 4 9.15C4 12.1715 6.71554 14.634 10.8299 18.3648L10.84 18.374L11.4635 18.9416ZM11.25 12.5H9.75C9.55109 12.5 9.36032 12.421 9.21967 12.2803C9.07902 12.1397 9 11.9489 9 11.75C9 11.5511 9.07902 11.3603 9.21967 11.2197C9.36032 11.079 9.55109 11 9.75 11H11.25V9.5C11.25 9.30109 11.329 9.11032 11.4697 8.96967C11.6103 8.82902 11.8011 8.75 12 8.75C12.1989 8.75 12.3897 8.82902 12.5303 8.96967C12.671 9.11032 12.75 9.30109 12.75 9.5V11H14.25C14.4489 11 14.6397 11.079 14.7803 11.2197C14.921 11.3603 15 11.5511 15 11.75C15 11.9489 14.921 12.1397 14.7803 12.2803C14.6397 12.421 14.4489 12.5 14.25 12.5H12.75V14C12.75 14.1989 12.671 14.3897 12.5303 14.5303C12.3897 14.671 12.1989 14.75 12 14.75C11.8011 14.75 11.6103 14.671 11.4697 14.5303C11.329 14.3897 11.25 14.1989 11.25 14V12.5Z" fill="#233043"/>
</svg>
